G04 #@! TF.GenerationSoftware,KiCad,Pcbnew,(5.0.2)-1*
G04 #@! TF.CreationDate,2019-04-18T22:06:28+09:00*
G04 #@! TF.ProjectId,Electrocity_Manager,456c6563-7472-46f6-9369-74795f4d616e,rev?*
G04 #@! TF.SameCoordinates,Original*
G04 #@! TF.FileFunction,Soldermask,Bot*
G04 #@! TF.FilePolarity,Negative*
%FSLAX46Y46*%
G04 Gerber Fmt 4.6, Leading zero omitted, Abs format (unit mm)*
G04 Created by KiCad (PCBNEW (5.0.2)-1) date 2019/04/18 22:06:28*
%MOMM*%
%LPD*%
G01*
G04 APERTURE LIST*
%ADD10C,0.100000*%
G04 APERTURE END LIST*
D10*
G36*
X118489485Y-170908996D02*
X118489487Y-170908997D01*
X118489488Y-170908997D01*
X118590892Y-170951000D01*
X118726255Y-171007069D01*
X118939342Y-171149449D01*
X119120551Y-171330658D01*
X119262931Y-171543745D01*
X119361004Y-171780515D01*
X119411000Y-172031861D01*
X119411000Y-172288139D01*
X119385179Y-172417951D01*
X119361003Y-172539488D01*
X119295691Y-172697165D01*
X119262931Y-172776255D01*
X119120551Y-172989342D01*
X118939342Y-173170551D01*
X118939339Y-173170553D01*
X118726255Y-173312931D01*
X118489488Y-173411003D01*
X118489487Y-173411003D01*
X118489485Y-173411004D01*
X118238139Y-173461000D01*
X117981861Y-173461000D01*
X117730515Y-173411004D01*
X117730513Y-173411003D01*
X117730512Y-173411003D01*
X117493745Y-173312931D01*
X117280661Y-173170553D01*
X117280658Y-173170551D01*
X117099449Y-172989342D01*
X116957069Y-172776255D01*
X116924309Y-172697165D01*
X116858997Y-172539488D01*
X116834822Y-172417951D01*
X116809000Y-172288139D01*
X116809000Y-172031861D01*
X116858996Y-171780515D01*
X116957069Y-171543745D01*
X117099449Y-171330658D01*
X117280658Y-171149449D01*
X117493745Y-171007069D01*
X117629108Y-170951000D01*
X117730512Y-170908997D01*
X117730513Y-170908997D01*
X117730515Y-170908996D01*
X117981861Y-170859000D01*
X118238139Y-170859000D01*
X118489485Y-170908996D01*
X118489485Y-170908996D01*
G37*
G36*
X124204472Y-172075938D02*
X124332049Y-172128782D01*
X124446865Y-172205500D01*
X124544500Y-172303135D01*
X124621218Y-172417951D01*
X124674062Y-172545528D01*
X124701000Y-172680956D01*
X124701000Y-172819044D01*
X124674062Y-172954472D01*
X124621218Y-173082049D01*
X124544500Y-173196865D01*
X124446865Y-173294500D01*
X124332049Y-173371218D01*
X124204472Y-173424062D01*
X124069044Y-173451000D01*
X123930956Y-173451000D01*
X123795528Y-173424062D01*
X123667951Y-173371218D01*
X123553135Y-173294500D01*
X123455500Y-173196865D01*
X123378782Y-173082049D01*
X123325938Y-172954472D01*
X123299000Y-172819044D01*
X123299000Y-172680956D01*
X123325938Y-172545528D01*
X123378782Y-172417951D01*
X123455500Y-172303135D01*
X123553135Y-172205500D01*
X123667951Y-172128782D01*
X123795528Y-172075938D01*
X123930956Y-172049000D01*
X124069044Y-172049000D01*
X124204472Y-172075938D01*
X124204472Y-172075938D01*
G37*
G36*
X66454472Y-172075938D02*
X66582049Y-172128782D01*
X66696865Y-172205500D01*
X66794500Y-172303135D01*
X66871218Y-172417951D01*
X66924062Y-172545528D01*
X66951000Y-172680956D01*
X66951000Y-172819044D01*
X66924062Y-172954472D01*
X66871218Y-173082049D01*
X66794500Y-173196865D01*
X66696865Y-173294500D01*
X66582049Y-173371218D01*
X66454472Y-173424062D01*
X66319044Y-173451000D01*
X66180956Y-173451000D01*
X66045528Y-173424062D01*
X65917951Y-173371218D01*
X65803135Y-173294500D01*
X65705500Y-173196865D01*
X65628782Y-173082049D01*
X65575938Y-172954472D01*
X65549000Y-172819044D01*
X65549000Y-172680956D01*
X65575938Y-172545528D01*
X65628782Y-172417951D01*
X65705500Y-172303135D01*
X65803135Y-172205500D01*
X65917951Y-172128782D01*
X66045528Y-172075938D01*
X66180956Y-172049000D01*
X66319044Y-172049000D01*
X66454472Y-172075938D01*
X66454472Y-172075938D01*
G37*
G36*
X132657024Y-170460590D02*
X132808011Y-170506392D01*
X132947161Y-170580768D01*
X133007822Y-170630551D01*
X133069133Y-170680867D01*
X133069134Y-170680869D01*
X133069136Y-170680870D01*
X133169230Y-170802835D01*
X133243608Y-170941988D01*
X133289410Y-171092975D01*
X133301000Y-171210654D01*
X133301000Y-172289346D01*
X133289410Y-172407025D01*
X133243608Y-172558012D01*
X133169230Y-172697165D01*
X133069133Y-172819133D01*
X132947165Y-172919230D01*
X132808012Y-172993608D01*
X132657025Y-173039410D01*
X132500000Y-173054875D01*
X132342976Y-173039410D01*
X132191989Y-172993608D01*
X132052836Y-172919230D01*
X131930868Y-172819133D01*
X131830771Y-172697165D01*
X131756393Y-172558012D01*
X131710591Y-172407025D01*
X131699001Y-172289346D01*
X131699000Y-171210655D01*
X131710590Y-171092976D01*
X131756392Y-170941989D01*
X131830768Y-170802839D01*
X131930865Y-170680870D01*
X131930867Y-170680867D01*
X131930869Y-170680866D01*
X131930870Y-170680864D01*
X132052835Y-170580770D01*
X132191988Y-170506392D01*
X132342975Y-170460590D01*
X132500000Y-170445125D01*
X132657024Y-170460590D01*
X132657024Y-170460590D01*
G37*
G36*
X137657024Y-170460590D02*
X137808011Y-170506392D01*
X137947161Y-170580768D01*
X138007822Y-170630551D01*
X138069133Y-170680867D01*
X138069134Y-170680869D01*
X138069136Y-170680870D01*
X138169230Y-170802835D01*
X138243608Y-170941988D01*
X138289410Y-171092975D01*
X138301000Y-171210654D01*
X138301000Y-172289346D01*
X138289410Y-172407025D01*
X138243608Y-172558012D01*
X138169230Y-172697165D01*
X138069133Y-172819133D01*
X137947165Y-172919230D01*
X137808012Y-172993608D01*
X137657025Y-173039410D01*
X137500000Y-173054875D01*
X137342976Y-173039410D01*
X137191989Y-172993608D01*
X137052836Y-172919230D01*
X136930868Y-172819133D01*
X136830771Y-172697165D01*
X136756393Y-172558012D01*
X136710591Y-172407025D01*
X136699001Y-172289346D01*
X136699000Y-171210655D01*
X136710590Y-171092976D01*
X136756392Y-170941989D01*
X136830768Y-170802839D01*
X136930865Y-170680870D01*
X136930867Y-170680867D01*
X136930869Y-170680866D01*
X136930870Y-170680864D01*
X137052835Y-170580770D01*
X137191988Y-170506392D01*
X137342975Y-170460590D01*
X137500000Y-170445125D01*
X137657024Y-170460590D01*
X137657024Y-170460590D01*
G37*
G36*
X135157024Y-170460590D02*
X135308011Y-170506392D01*
X135447161Y-170580768D01*
X135507822Y-170630551D01*
X135569133Y-170680867D01*
X135569134Y-170680869D01*
X135569136Y-170680870D01*
X135669230Y-170802835D01*
X135743608Y-170941988D01*
X135789410Y-171092975D01*
X135801000Y-171210654D01*
X135801000Y-172289346D01*
X135789410Y-172407025D01*
X135743608Y-172558012D01*
X135669230Y-172697165D01*
X135569133Y-172819133D01*
X135447165Y-172919230D01*
X135308012Y-172993608D01*
X135157025Y-173039410D01*
X135000000Y-173054875D01*
X134842976Y-173039410D01*
X134691989Y-172993608D01*
X134552836Y-172919230D01*
X134430868Y-172819133D01*
X134330771Y-172697165D01*
X134256393Y-172558012D01*
X134210591Y-172407025D01*
X134199001Y-172289346D01*
X134199000Y-171210655D01*
X134210590Y-171092976D01*
X134256392Y-170941989D01*
X134330768Y-170802839D01*
X134430865Y-170680870D01*
X134430867Y-170680867D01*
X134430869Y-170680866D01*
X134430870Y-170680864D01*
X134552835Y-170580770D01*
X134691988Y-170506392D01*
X134842975Y-170460590D01*
X135000000Y-170445125D01*
X135157024Y-170460590D01*
X135157024Y-170460590D01*
G37*
G36*
X130157024Y-170460590D02*
X130308011Y-170506392D01*
X130447161Y-170580768D01*
X130507822Y-170630551D01*
X130569133Y-170680867D01*
X130569134Y-170680869D01*
X130569136Y-170680870D01*
X130669230Y-170802835D01*
X130743608Y-170941988D01*
X130789410Y-171092975D01*
X130801000Y-171210654D01*
X130801000Y-172289346D01*
X130789410Y-172407025D01*
X130743608Y-172558012D01*
X130669230Y-172697165D01*
X130569133Y-172819133D01*
X130447165Y-172919230D01*
X130308012Y-172993608D01*
X130157025Y-173039410D01*
X130000000Y-173054875D01*
X129842976Y-173039410D01*
X129691989Y-172993608D01*
X129552836Y-172919230D01*
X129430868Y-172819133D01*
X129330771Y-172697165D01*
X129256393Y-172558012D01*
X129210591Y-172407025D01*
X129199001Y-172289346D01*
X129199000Y-171210655D01*
X129210590Y-171092976D01*
X129256392Y-170941989D01*
X129330768Y-170802839D01*
X129430865Y-170680870D01*
X129430867Y-170680867D01*
X129430869Y-170680866D01*
X129430870Y-170680864D01*
X129552835Y-170580770D01*
X129691988Y-170506392D01*
X129842975Y-170460590D01*
X130000000Y-170445125D01*
X130157024Y-170460590D01*
X130157024Y-170460590D01*
G37*
G36*
X56907025Y-170460590D02*
X57058012Y-170506392D01*
X57197165Y-170580770D01*
X57319133Y-170680867D01*
X57419230Y-170802835D01*
X57493608Y-170941988D01*
X57539410Y-171092975D01*
X57551000Y-171210654D01*
X57551000Y-172289346D01*
X57539410Y-172407025D01*
X57493608Y-172558012D01*
X57419230Y-172697165D01*
X57319136Y-172819130D01*
X57319134Y-172819131D01*
X57319133Y-172819133D01*
X57319129Y-172819136D01*
X57197161Y-172919232D01*
X57058011Y-172993608D01*
X56907024Y-173039410D01*
X56750000Y-173054875D01*
X56592975Y-173039410D01*
X56441988Y-172993608D01*
X56302835Y-172919230D01*
X56180870Y-172819136D01*
X56180869Y-172819134D01*
X56180867Y-172819133D01*
X56130819Y-172758148D01*
X56080768Y-172697161D01*
X56006392Y-172558011D01*
X55960590Y-172407024D01*
X55949000Y-172289345D01*
X55949001Y-171210654D01*
X55960591Y-171092975D01*
X56006393Y-170941988D01*
X56080771Y-170802835D01*
X56180868Y-170680867D01*
X56302836Y-170580770D01*
X56441989Y-170506392D01*
X56592976Y-170460590D01*
X56750000Y-170445125D01*
X56907025Y-170460590D01*
X56907025Y-170460590D01*
G37*
G36*
X59407025Y-170460590D02*
X59558012Y-170506392D01*
X59697165Y-170580770D01*
X59819133Y-170680867D01*
X59919230Y-170802835D01*
X59993608Y-170941988D01*
X60039410Y-171092975D01*
X60051000Y-171210654D01*
X60051000Y-172289346D01*
X60039410Y-172407025D01*
X59993608Y-172558012D01*
X59919230Y-172697165D01*
X59819136Y-172819130D01*
X59819134Y-172819131D01*
X59819133Y-172819133D01*
X59819129Y-172819136D01*
X59697161Y-172919232D01*
X59558011Y-172993608D01*
X59407024Y-173039410D01*
X59250000Y-173054875D01*
X59092975Y-173039410D01*
X58941988Y-172993608D01*
X58802835Y-172919230D01*
X58680870Y-172819136D01*
X58680869Y-172819134D01*
X58680867Y-172819133D01*
X58630819Y-172758148D01*
X58580768Y-172697161D01*
X58506392Y-172558011D01*
X58460590Y-172407024D01*
X58449000Y-172289345D01*
X58449001Y-171210654D01*
X58460591Y-171092975D01*
X58506393Y-170941988D01*
X58580771Y-170802835D01*
X58680868Y-170680867D01*
X58802836Y-170580770D01*
X58941989Y-170506392D01*
X59092976Y-170460590D01*
X59250000Y-170445125D01*
X59407025Y-170460590D01*
X59407025Y-170460590D01*
G37*
G36*
X121701000Y-171351000D02*
X120299000Y-171351000D01*
X120299000Y-170549000D01*
X121701000Y-170549000D01*
X121701000Y-171351000D01*
X121701000Y-171351000D01*
G37*
G36*
X66951000Y-170951000D02*
X65549000Y-170951000D01*
X65549000Y-169549000D01*
X66951000Y-169549000D01*
X66951000Y-170951000D01*
X66951000Y-170951000D01*
G37*
G36*
X124701000Y-170951000D02*
X123299000Y-170951000D01*
X123299000Y-169549000D01*
X124701000Y-169549000D01*
X124701000Y-170951000D01*
X124701000Y-170951000D01*
G37*
G36*
X72769485Y-168368996D02*
X72769487Y-168368997D01*
X72769488Y-168368997D01*
X72846750Y-168401000D01*
X73006255Y-168467069D01*
X73219342Y-168609449D01*
X73400551Y-168790658D01*
X73542931Y-169003745D01*
X73641004Y-169240515D01*
X73691000Y-169491861D01*
X73691000Y-169748139D01*
X73641004Y-169999485D01*
X73542931Y-170236255D01*
X73400551Y-170449342D01*
X73219342Y-170630551D01*
X73219339Y-170630553D01*
X73006255Y-170772931D01*
X72769488Y-170871003D01*
X72769487Y-170871003D01*
X72769485Y-170871004D01*
X72518139Y-170921000D01*
X72261861Y-170921000D01*
X72010515Y-170871004D01*
X72010513Y-170871003D01*
X72010512Y-170871003D01*
X71773745Y-170772931D01*
X71560661Y-170630553D01*
X71560658Y-170630551D01*
X71379449Y-170449342D01*
X71237069Y-170236255D01*
X71138996Y-169999485D01*
X71089000Y-169748139D01*
X71089000Y-169491861D01*
X71138996Y-169240515D01*
X71237069Y-169003745D01*
X71379449Y-168790658D01*
X71560658Y-168609449D01*
X71773745Y-168467069D01*
X71933250Y-168401000D01*
X72010512Y-168368997D01*
X72010513Y-168368997D01*
X72010515Y-168368996D01*
X72261861Y-168319000D01*
X72518139Y-168319000D01*
X72769485Y-168368996D01*
X72769485Y-168368996D01*
G37*
G36*
X137731000Y-170151000D02*
X136629000Y-170151000D01*
X136629000Y-168849000D01*
X137731000Y-168849000D01*
X137731000Y-170151000D01*
X137731000Y-170151000D01*
G37*
G36*
X135851000Y-170151000D02*
X134749000Y-170151000D01*
X134749000Y-168849000D01*
X135851000Y-168849000D01*
X135851000Y-170151000D01*
X135851000Y-170151000D01*
G37*
G36*
X61411000Y-169491000D02*
X56589000Y-169491000D01*
X56589000Y-164589000D01*
X61411000Y-164589000D01*
X61411000Y-169491000D01*
X61411000Y-169491000D01*
G37*
G36*
X121701000Y-169451000D02*
X120299000Y-169451000D01*
X120299000Y-168649000D01*
X121701000Y-168649000D01*
X121701000Y-169451000D01*
X121701000Y-169451000D01*
G37*
G36*
X79411000Y-168641000D02*
X78089000Y-168641000D01*
X78089000Y-167629000D01*
X79411000Y-167629000D01*
X79411000Y-168641000D01*
X79411000Y-168641000D01*
G37*
G36*
X137581000Y-168401000D02*
X136479000Y-168401000D01*
X136479000Y-167099000D01*
X137581000Y-167099000D01*
X137581000Y-168401000D01*
X137581000Y-168401000D01*
G37*
G36*
X136021000Y-168401000D02*
X134919000Y-168401000D01*
X134919000Y-167099000D01*
X136021000Y-167099000D01*
X136021000Y-168401000D01*
X136021000Y-168401000D01*
G37*
G36*
X132251000Y-168151000D02*
X131149000Y-168151000D01*
X131149000Y-166849000D01*
X132251000Y-166849000D01*
X132251000Y-168151000D01*
X132251000Y-168151000D01*
G37*
G36*
X130371000Y-168151000D02*
X129269000Y-168151000D01*
X129269000Y-166849000D01*
X130371000Y-166849000D01*
X130371000Y-168151000D01*
X130371000Y-168151000D01*
G37*
G36*
X142870015Y-166956973D02*
X142973879Y-166988479D01*
X143069600Y-167039644D01*
X143153501Y-167108499D01*
X143222356Y-167192400D01*
X143273521Y-167288121D01*
X143305027Y-167391985D01*
X143315666Y-167500000D01*
X143305027Y-167608015D01*
X143273521Y-167711879D01*
X143222356Y-167807600D01*
X143153501Y-167891501D01*
X143069600Y-167960356D01*
X142973879Y-168011521D01*
X142870015Y-168043027D01*
X142789067Y-168051000D01*
X142210933Y-168051000D01*
X142129985Y-168043027D01*
X142026121Y-168011521D01*
X141930400Y-167960356D01*
X141846499Y-167891501D01*
X141777644Y-167807600D01*
X141726479Y-167711879D01*
X141694973Y-167608015D01*
X141684334Y-167500000D01*
X141694973Y-167391985D01*
X141726479Y-167288121D01*
X141777644Y-167192400D01*
X141846499Y-167108499D01*
X141930400Y-167039644D01*
X142026121Y-166988479D01*
X142129985Y-166956973D01*
X142210933Y-166949000D01*
X142789067Y-166949000D01*
X142870015Y-166956973D01*
X142870015Y-166956973D01*
G37*
G36*
X121351000Y-167951000D02*
X120549000Y-167951000D01*
X120549000Y-166549000D01*
X121351000Y-166549000D01*
X121351000Y-167951000D01*
X121351000Y-167951000D01*
G37*
G36*
X119451000Y-167951000D02*
X118649000Y-167951000D01*
X118649000Y-166549000D01*
X119451000Y-166549000D01*
X119451000Y-167951000D01*
X119451000Y-167951000D01*
G37*
G36*
X146651000Y-167501000D02*
X145349000Y-167501000D01*
X145349000Y-166399000D01*
X146651000Y-166399000D01*
X146651000Y-167501000D01*
X146651000Y-167501000D01*
G37*
G36*
X103201810Y-167151050D02*
X102299710Y-167151050D01*
X102299710Y-166248950D01*
X103201810Y-166248950D01*
X103201810Y-167151050D01*
X103201810Y-167151050D01*
G37*
G36*
X135157025Y-163960590D02*
X135308012Y-164006392D01*
X135447165Y-164080770D01*
X135569133Y-164180867D01*
X135669230Y-164302835D01*
X135743608Y-164441988D01*
X135789410Y-164592975D01*
X135801000Y-164710654D01*
X135801000Y-165789346D01*
X135789410Y-165907025D01*
X135743608Y-166058012D01*
X135669230Y-166197165D01*
X135569136Y-166319130D01*
X135569134Y-166319131D01*
X135569133Y-166319133D01*
X135569129Y-166319136D01*
X135447161Y-166419232D01*
X135308011Y-166493608D01*
X135157024Y-166539410D01*
X135000000Y-166554875D01*
X134842975Y-166539410D01*
X134691988Y-166493608D01*
X134552835Y-166419230D01*
X134430870Y-166319136D01*
X134430869Y-166319134D01*
X134430867Y-166319133D01*
X134333960Y-166201050D01*
X134330768Y-166197161D01*
X134256392Y-166058011D01*
X134210590Y-165907024D01*
X134199000Y-165789345D01*
X134199001Y-164710654D01*
X134210591Y-164592975D01*
X134256393Y-164441988D01*
X134330771Y-164302835D01*
X134430868Y-164180867D01*
X134552836Y-164080770D01*
X134691989Y-164006392D01*
X134842976Y-163960590D01*
X135000000Y-163945125D01*
X135157025Y-163960590D01*
X135157025Y-163960590D01*
G37*
G36*
X130157025Y-163960590D02*
X130308012Y-164006392D01*
X130447165Y-164080770D01*
X130569133Y-164180867D01*
X130669230Y-164302835D01*
X130743608Y-164441988D01*
X130789410Y-164592975D01*
X130801000Y-164710654D01*
X130801000Y-165789346D01*
X130789410Y-165907025D01*
X130743608Y-166058012D01*
X130669230Y-166197165D01*
X130569136Y-166319130D01*
X130569134Y-166319131D01*
X130569133Y-166319133D01*
X130569129Y-166319136D01*
X130447161Y-166419232D01*
X130308011Y-166493608D01*
X130157024Y-166539410D01*
X130000000Y-166554875D01*
X129842975Y-166539410D01*
X129691988Y-166493608D01*
X129552835Y-166419230D01*
X129430870Y-166319136D01*
X129430869Y-166319134D01*
X129430867Y-166319133D01*
X129333960Y-166201050D01*
X129330768Y-166197161D01*
X129256392Y-166058011D01*
X129210590Y-165907024D01*
X129199000Y-165789345D01*
X129199001Y-164710654D01*
X129210591Y-164592975D01*
X129256393Y-164441988D01*
X129330771Y-164302835D01*
X129430868Y-164180867D01*
X129552836Y-164080770D01*
X129691989Y-164006392D01*
X129842976Y-163960590D01*
X130000000Y-163945125D01*
X130157025Y-163960590D01*
X130157025Y-163960590D01*
G37*
G36*
X132657025Y-163960590D02*
X132808012Y-164006392D01*
X132947165Y-164080770D01*
X133069133Y-164180867D01*
X133169230Y-164302835D01*
X133243608Y-164441988D01*
X133289410Y-164592975D01*
X133301000Y-164710654D01*
X133301000Y-165789346D01*
X133289410Y-165907025D01*
X133243608Y-166058012D01*
X133169230Y-166197165D01*
X133069136Y-166319130D01*
X133069134Y-166319131D01*
X133069133Y-166319133D01*
X133069129Y-166319136D01*
X132947161Y-166419232D01*
X132808011Y-166493608D01*
X132657024Y-166539410D01*
X132500000Y-166554875D01*
X132342975Y-166539410D01*
X132191988Y-166493608D01*
X132052835Y-166419230D01*
X131930870Y-166319136D01*
X131930869Y-166319134D01*
X131930867Y-166319133D01*
X131833960Y-166201050D01*
X131830768Y-166197161D01*
X131756392Y-166058011D01*
X131710590Y-165907024D01*
X131699000Y-165789345D01*
X131699001Y-164710654D01*
X131710591Y-164592975D01*
X131756393Y-164441988D01*
X131830771Y-164302835D01*
X131930868Y-164180867D01*
X132052836Y-164080770D01*
X132191989Y-164006392D01*
X132342976Y-163960590D01*
X132500000Y-163945125D01*
X132657025Y-163960590D01*
X132657025Y-163960590D01*
G37*
G36*
X137657025Y-163960590D02*
X137808012Y-164006392D01*
X137947165Y-164080770D01*
X138069133Y-164180867D01*
X138169230Y-164302835D01*
X138243608Y-164441988D01*
X138289410Y-164592975D01*
X138301000Y-164710654D01*
X138301000Y-165789346D01*
X138289410Y-165907025D01*
X138243608Y-166058012D01*
X138169230Y-166197165D01*
X138069136Y-166319130D01*
X138069134Y-166319131D01*
X138069133Y-166319133D01*
X138069129Y-166319136D01*
X137947161Y-166419232D01*
X137808011Y-166493608D01*
X137657024Y-166539410D01*
X137500000Y-166554875D01*
X137342975Y-166539410D01*
X137191988Y-166493608D01*
X137052835Y-166419230D01*
X136930870Y-166319136D01*
X136930869Y-166319134D01*
X136930867Y-166319133D01*
X136833960Y-166201050D01*
X136830768Y-166197161D01*
X136756392Y-166058011D01*
X136710590Y-165907024D01*
X136699000Y-165789345D01*
X136699001Y-164710654D01*
X136710591Y-164592975D01*
X136756393Y-164441988D01*
X136830771Y-164302835D01*
X136930868Y-164180867D01*
X137052836Y-164080770D01*
X137191989Y-164006392D01*
X137342976Y-163960590D01*
X137500000Y-163945125D01*
X137657025Y-163960590D01*
X137657025Y-163960590D01*
G37*
G36*
X142870015Y-165456973D02*
X142973879Y-165488479D01*
X143069600Y-165539644D01*
X143153501Y-165608499D01*
X143222356Y-165692400D01*
X143273521Y-165788121D01*
X143305027Y-165891985D01*
X143315666Y-166000000D01*
X143305027Y-166108015D01*
X143273521Y-166211879D01*
X143222356Y-166307600D01*
X143153501Y-166391501D01*
X143069600Y-166460356D01*
X142973879Y-166511521D01*
X142870015Y-166543027D01*
X142789067Y-166551000D01*
X142210933Y-166551000D01*
X142129985Y-166543027D01*
X142026121Y-166511521D01*
X141930400Y-166460356D01*
X141846499Y-166391501D01*
X141777644Y-166307600D01*
X141726479Y-166211879D01*
X141694973Y-166108015D01*
X141684334Y-166000000D01*
X141694973Y-165891985D01*
X141726479Y-165788121D01*
X141777644Y-165692400D01*
X141846499Y-165608499D01*
X141930400Y-165539644D01*
X142026121Y-165488479D01*
X142129985Y-165456973D01*
X142210933Y-165449000D01*
X142789067Y-165449000D01*
X142870015Y-165456973D01*
X142870015Y-165456973D01*
G37*
G36*
X124601000Y-166401000D02*
X123499000Y-166401000D01*
X123499000Y-165099000D01*
X124601000Y-165099000D01*
X124601000Y-166401000D01*
X124601000Y-166401000D01*
G37*
G36*
X126481000Y-166401000D02*
X125379000Y-166401000D01*
X125379000Y-165099000D01*
X126481000Y-165099000D01*
X126481000Y-166401000D01*
X126481000Y-166401000D01*
G37*
G36*
X105601000Y-166261000D02*
X103799000Y-166261000D01*
X103799000Y-165509000D01*
X105601000Y-165509000D01*
X105601000Y-166261000D01*
X105601000Y-166261000D01*
G37*
G36*
X112201000Y-166261000D02*
X110399000Y-166261000D01*
X110399000Y-165509000D01*
X112201000Y-165509000D01*
X112201000Y-166261000D01*
X112201000Y-166261000D01*
G37*
G36*
X101202830Y-166201050D02*
X100300730Y-166201050D01*
X100300730Y-165298950D01*
X101202830Y-165298950D01*
X101202830Y-166201050D01*
X101202830Y-166201050D01*
G37*
G36*
X72769485Y-163288996D02*
X72769487Y-163288997D01*
X72769488Y-163288997D01*
X72814402Y-163307601D01*
X73006255Y-163387069D01*
X73219342Y-163529449D01*
X73400551Y-163710658D01*
X73400553Y-163710661D01*
X73542931Y-163923745D01*
X73619459Y-164108499D01*
X73641004Y-164160515D01*
X73691000Y-164411861D01*
X73691000Y-164668139D01*
X73646571Y-164891500D01*
X73641003Y-164919488D01*
X73586529Y-165051000D01*
X73542931Y-165156255D01*
X73400551Y-165369342D01*
X73219342Y-165550551D01*
X73219339Y-165550553D01*
X73006255Y-165692931D01*
X72769488Y-165791003D01*
X72769487Y-165791003D01*
X72769485Y-165791004D01*
X72518139Y-165841000D01*
X72261861Y-165841000D01*
X72010515Y-165791004D01*
X72010513Y-165791003D01*
X72010512Y-165791003D01*
X71773745Y-165692931D01*
X71560661Y-165550553D01*
X71560658Y-165550551D01*
X71379449Y-165369342D01*
X71237069Y-165156255D01*
X71193471Y-165051000D01*
X71138997Y-164919488D01*
X71133430Y-164891500D01*
X71089000Y-164668139D01*
X71089000Y-164411861D01*
X71138996Y-164160515D01*
X71160542Y-164108499D01*
X71237069Y-163923745D01*
X71379447Y-163710661D01*
X71379449Y-163710658D01*
X71560658Y-163529449D01*
X71773745Y-163387069D01*
X71965598Y-163307601D01*
X72010512Y-163288997D01*
X72010513Y-163288997D01*
X72010515Y-163288996D01*
X72261861Y-163239000D01*
X72518139Y-163239000D01*
X72769485Y-163288996D01*
X72769485Y-163288996D01*
G37*
G36*
X119621000Y-165651000D02*
X118519000Y-165651000D01*
X118519000Y-164349000D01*
X119621000Y-164349000D01*
X119621000Y-165651000D01*
X119621000Y-165651000D01*
G37*
G36*
X121501000Y-165651000D02*
X120399000Y-165651000D01*
X120399000Y-164349000D01*
X121501000Y-164349000D01*
X121501000Y-165651000D01*
X121501000Y-165651000D01*
G37*
G36*
X146651000Y-165621000D02*
X145349000Y-165621000D01*
X145349000Y-164519000D01*
X146651000Y-164519000D01*
X146651000Y-165621000D01*
X146651000Y-165621000D01*
G37*
G36*
X79411000Y-165371000D02*
X78089000Y-165371000D01*
X78089000Y-164359000D01*
X79411000Y-164359000D01*
X79411000Y-165371000D01*
X79411000Y-165371000D01*
G37*
G36*
X103201810Y-165251050D02*
X102299710Y-165251050D01*
X102299710Y-164348950D01*
X103201810Y-164348950D01*
X103201810Y-165251050D01*
X103201810Y-165251050D01*
G37*
G36*
X115331000Y-165151000D02*
X114229000Y-165151000D01*
X114229000Y-163849000D01*
X115331000Y-163849000D01*
X115331000Y-165151000D01*
X115331000Y-165151000D01*
G37*
G36*
X113771000Y-165151000D02*
X112669000Y-165151000D01*
X112669000Y-163849000D01*
X113771000Y-163849000D01*
X113771000Y-165151000D01*
X113771000Y-165151000D01*
G37*
G36*
X142870015Y-163956973D02*
X142973879Y-163988479D01*
X143069600Y-164039644D01*
X143153501Y-164108499D01*
X143222356Y-164192400D01*
X143273521Y-164288121D01*
X143305027Y-164391985D01*
X143315666Y-164500000D01*
X143305027Y-164608015D01*
X143273521Y-164711879D01*
X143222356Y-164807600D01*
X143153501Y-164891501D01*
X143069600Y-164960356D01*
X142973879Y-165011521D01*
X142870015Y-165043027D01*
X142789067Y-165051000D01*
X142210933Y-165051000D01*
X142129985Y-165043027D01*
X142026121Y-165011521D01*
X141930400Y-164960356D01*
X141846499Y-164891501D01*
X141777644Y-164807600D01*
X141726479Y-164711879D01*
X141694973Y-164608015D01*
X141684334Y-164500000D01*
X141694973Y-164391985D01*
X141726479Y-164288121D01*
X141777644Y-164192400D01*
X141846499Y-164108499D01*
X141930400Y-164039644D01*
X142026121Y-163988479D01*
X142129985Y-163956973D01*
X142210933Y-163949000D01*
X142789067Y-163949000D01*
X142870015Y-163956973D01*
X142870015Y-163956973D01*
G37*
G36*
X112201000Y-164991000D02*
X110399000Y-164991000D01*
X110399000Y-164239000D01*
X112201000Y-164239000D01*
X112201000Y-164991000D01*
X112201000Y-164991000D01*
G37*
G36*
X105601000Y-164991000D02*
X103799000Y-164991000D01*
X103799000Y-164239000D01*
X105601000Y-164239000D01*
X105601000Y-164991000D01*
X105601000Y-164991000D01*
G37*
G36*
X83901000Y-164581000D02*
X82599000Y-164581000D01*
X82599000Y-163479000D01*
X83901000Y-163479000D01*
X83901000Y-164581000D01*
X83901000Y-164581000D01*
G37*
G36*
X64087612Y-128963388D02*
X64106554Y-128978934D01*
X64128165Y-128990485D01*
X64151614Y-128997598D01*
X64176000Y-129000000D01*
X64500000Y-129000000D01*
X64500000Y-139625000D01*
X64502402Y-139649386D01*
X64509515Y-139672835D01*
X64521066Y-139694446D01*
X64536612Y-139713388D01*
X64555554Y-139728934D01*
X64577165Y-139740485D01*
X64600614Y-139747598D01*
X64625000Y-139750000D01*
X87574000Y-139750000D01*
X87598386Y-139747598D01*
X87621835Y-139740485D01*
X87643446Y-139728934D01*
X87662388Y-139713388D01*
X87677934Y-139694446D01*
X87689485Y-139672835D01*
X87696598Y-139649386D01*
X87699000Y-139625000D01*
X87699000Y-128949000D01*
X90801000Y-128949000D01*
X90801000Y-142051000D01*
X87674196Y-142051000D01*
X87662388Y-142036612D01*
X87643446Y-142021066D01*
X87621835Y-142009515D01*
X87598386Y-142002402D01*
X87574000Y-142000000D01*
X64176000Y-142000000D01*
X64151614Y-142002402D01*
X64128165Y-142009515D01*
X64106554Y-142021066D01*
X64087612Y-142036612D01*
X64075804Y-142051000D01*
X61125000Y-142051000D01*
X61100614Y-142053402D01*
X61077165Y-142060515D01*
X61055554Y-142072066D01*
X61036612Y-142087612D01*
X61021066Y-142106554D01*
X61009515Y-142128165D01*
X61002402Y-142151614D01*
X61000000Y-142176000D01*
X61000000Y-146365690D01*
X61002402Y-146390076D01*
X61009515Y-146413525D01*
X61021066Y-146435136D01*
X61036612Y-146454078D01*
X61055554Y-146469624D01*
X61077165Y-146481175D01*
X61100614Y-146488288D01*
X61125000Y-146490690D01*
X61149386Y-146488288D01*
X61172835Y-146481175D01*
X61194446Y-146469624D01*
X61213388Y-146454078D01*
X61508269Y-146159197D01*
X61643059Y-146069133D01*
X62212712Y-145688503D01*
X62212714Y-145688502D01*
X62995445Y-145364284D01*
X63826387Y-145199000D01*
X64673613Y-145199000D01*
X65504555Y-145364284D01*
X66287286Y-145688502D01*
X66287288Y-145688503D01*
X66856941Y-146069133D01*
X66991731Y-146159197D01*
X67590803Y-146758269D01*
X67590805Y-146758272D01*
X68050946Y-147446921D01*
X68061498Y-147462714D01*
X68385716Y-148245445D01*
X68551000Y-149076387D01*
X68551000Y-149923613D01*
X68385716Y-150754555D01*
X68061498Y-151537286D01*
X68061497Y-151537288D01*
X67811790Y-151911000D01*
X67590803Y-152241731D01*
X66991731Y-152840803D01*
X66991728Y-152840805D01*
X66287288Y-153311497D01*
X66287287Y-153311498D01*
X66287286Y-153311498D01*
X65504555Y-153635716D01*
X64673613Y-153801000D01*
X63826387Y-153801000D01*
X62995445Y-153635716D01*
X62212714Y-153311498D01*
X62212713Y-153311498D01*
X62212712Y-153311497D01*
X61508272Y-152840805D01*
X61508269Y-152840803D01*
X61213388Y-152545922D01*
X61194446Y-152530376D01*
X61172835Y-152518825D01*
X61149386Y-152511712D01*
X61125000Y-152509310D01*
X61100614Y-152511712D01*
X61077165Y-152518825D01*
X61055554Y-152530376D01*
X61036612Y-152545922D01*
X61021066Y-152564864D01*
X61009515Y-152586475D01*
X61002402Y-152609924D01*
X61000000Y-152634310D01*
X61000000Y-156615690D01*
X61002402Y-156640076D01*
X61009515Y-156663525D01*
X61021066Y-156685136D01*
X61036612Y-156704078D01*
X61055554Y-156719624D01*
X61077165Y-156731175D01*
X61100614Y-156738288D01*
X61125000Y-156740690D01*
X61149386Y-156738288D01*
X61172835Y-156731175D01*
X61194446Y-156719624D01*
X61213388Y-156704078D01*
X61508269Y-156409197D01*
X61687543Y-156289410D01*
X62212712Y-155938503D01*
X62212714Y-155938502D01*
X62995445Y-155614284D01*
X63826387Y-155449000D01*
X64673613Y-155449000D01*
X65504555Y-155614284D01*
X66287286Y-155938502D01*
X66287288Y-155938503D01*
X66812457Y-156289410D01*
X66991731Y-156409197D01*
X67590803Y-157008269D01*
X67590805Y-157008272D01*
X67853218Y-157401000D01*
X68061498Y-157712714D01*
X68385716Y-158495445D01*
X68551000Y-159326387D01*
X68551000Y-160173613D01*
X68385716Y-161004555D01*
X68076528Y-161751000D01*
X68061497Y-161787288D01*
X67665803Y-162379485D01*
X67590803Y-162491731D01*
X66991731Y-163090803D01*
X66991728Y-163090805D01*
X66287288Y-163561497D01*
X66287287Y-163561498D01*
X66287286Y-163561498D01*
X65504555Y-163885716D01*
X64673613Y-164051000D01*
X63826387Y-164051000D01*
X62995445Y-163885716D01*
X62212714Y-163561498D01*
X62212713Y-163561498D01*
X62212712Y-163561497D01*
X61508272Y-163090805D01*
X61508269Y-163090803D01*
X61213388Y-162795922D01*
X61194446Y-162780376D01*
X61172835Y-162768825D01*
X61149386Y-162761712D01*
X61125000Y-162759310D01*
X61100614Y-162761712D01*
X61077165Y-162768825D01*
X61055554Y-162780376D01*
X61036612Y-162795922D01*
X61021066Y-162814864D01*
X61009515Y-162836475D01*
X61002402Y-162859924D01*
X61000000Y-162884310D01*
X61000000Y-164000000D01*
X59250000Y-164000000D01*
X59250000Y-129000000D01*
X60824000Y-129000000D01*
X60848386Y-128997598D01*
X60871835Y-128990485D01*
X60893446Y-128978934D01*
X60912388Y-128963388D01*
X60924196Y-128949000D01*
X64075804Y-128949000D01*
X64087612Y-128963388D01*
X64087612Y-128963388D01*
G37*
G36*
X99000000Y-99073560D02*
X99002402Y-99097946D01*
X99009515Y-99121395D01*
X99021066Y-99143006D01*
X99036612Y-99161948D01*
X99055554Y-99177494D01*
X99077165Y-99189045D01*
X99100614Y-99196158D01*
X99125000Y-99198560D01*
X99226674Y-99198560D01*
X99671305Y-99287002D01*
X100090140Y-99460489D01*
X100467086Y-99712357D01*
X100787643Y-100032914D01*
X101039511Y-100409860D01*
X101212998Y-100828695D01*
X101301440Y-101273326D01*
X101301440Y-101726674D01*
X101212998Y-102171305D01*
X101039511Y-102590140D01*
X100787643Y-102967086D01*
X100467086Y-103287643D01*
X100090140Y-103539511D01*
X99671305Y-103712998D01*
X99226674Y-103801440D01*
X98773326Y-103801440D01*
X98328695Y-103712998D01*
X97909860Y-103539511D01*
X97532914Y-103287643D01*
X97212357Y-102967086D01*
X96960489Y-102590140D01*
X96787002Y-102171305D01*
X96698560Y-101726674D01*
X96698560Y-101273326D01*
X96787002Y-100828694D01*
X96955114Y-100422835D01*
X96962227Y-100399386D01*
X96964629Y-100375000D01*
X96962227Y-100350614D01*
X96955114Y-100327164D01*
X96943563Y-100305554D01*
X96928017Y-100286612D01*
X96909075Y-100271066D01*
X96887464Y-100259515D01*
X96864015Y-100252402D01*
X96839629Y-100250000D01*
X92950536Y-100250000D01*
X92926150Y-100252402D01*
X92902701Y-100259515D01*
X92881090Y-100271066D01*
X92862148Y-100286612D01*
X92846602Y-100305554D01*
X92835051Y-100327165D01*
X92827938Y-100350614D01*
X92825536Y-100375000D01*
X92827938Y-100399386D01*
X92835051Y-100422835D01*
X92846602Y-100444446D01*
X93175309Y-100936391D01*
X93424145Y-101537135D01*
X93551000Y-102174878D01*
X93551000Y-102825122D01*
X93424145Y-103462865D01*
X93175309Y-104063609D01*
X92814052Y-104604268D01*
X92354268Y-105064052D01*
X91813609Y-105425309D01*
X91212865Y-105674145D01*
X90575122Y-105801000D01*
X89924878Y-105801000D01*
X89287135Y-105674145D01*
X88686391Y-105425309D01*
X88145732Y-105064052D01*
X87685948Y-104604268D01*
X87324691Y-104063609D01*
X87075855Y-103462865D01*
X86949000Y-102825122D01*
X86949000Y-102174878D01*
X87075855Y-101537135D01*
X87324691Y-100936391D01*
X87653398Y-100444446D01*
X87664949Y-100422835D01*
X87672062Y-100399386D01*
X87674464Y-100375000D01*
X87672062Y-100350614D01*
X87664949Y-100327165D01*
X87653398Y-100305554D01*
X87637852Y-100286612D01*
X87618910Y-100271066D01*
X87597299Y-100259515D01*
X87573850Y-100252402D01*
X87549464Y-100250000D01*
X84700536Y-100250000D01*
X84676150Y-100252402D01*
X84652701Y-100259515D01*
X84631090Y-100271066D01*
X84612148Y-100286612D01*
X84596602Y-100305554D01*
X84585051Y-100327165D01*
X84577938Y-100350614D01*
X84575536Y-100375000D01*
X84577938Y-100399386D01*
X84585051Y-100422835D01*
X84596602Y-100444446D01*
X84925309Y-100936391D01*
X85174145Y-101537135D01*
X85301000Y-102174878D01*
X85301000Y-102825122D01*
X85174145Y-103462865D01*
X84925309Y-104063609D01*
X84564052Y-104604268D01*
X84104268Y-105064052D01*
X83563609Y-105425309D01*
X82962865Y-105674145D01*
X82325122Y-105801000D01*
X81674878Y-105801000D01*
X81037135Y-105674145D01*
X80436391Y-105425309D01*
X79895732Y-105064052D01*
X79435948Y-104604268D01*
X79074691Y-104063609D01*
X78825855Y-103462865D01*
X78699000Y-102825122D01*
X78699000Y-102174878D01*
X78825855Y-101537135D01*
X79074691Y-100936391D01*
X79403398Y-100444446D01*
X79414949Y-100422835D01*
X79422062Y-100399386D01*
X79424464Y-100375000D01*
X79422062Y-100350614D01*
X79414949Y-100327165D01*
X79403398Y-100305554D01*
X79387852Y-100286612D01*
X79368910Y-100271066D01*
X79347299Y-100259515D01*
X79323850Y-100252402D01*
X79299464Y-100250000D01*
X69450536Y-100250000D01*
X69426150Y-100252402D01*
X69402701Y-100259515D01*
X69381090Y-100271066D01*
X69362148Y-100286612D01*
X69346602Y-100305554D01*
X69335051Y-100327165D01*
X69327938Y-100350614D01*
X69325536Y-100375000D01*
X69327938Y-100399386D01*
X69335051Y-100422835D01*
X69346602Y-100444446D01*
X69675309Y-100936391D01*
X69924145Y-101537135D01*
X70051000Y-102174878D01*
X70051000Y-102825122D01*
X69924145Y-103462865D01*
X69675309Y-104063609D01*
X69314052Y-104604268D01*
X68854268Y-105064052D01*
X68313609Y-105425309D01*
X67712865Y-105674145D01*
X67075122Y-105801000D01*
X66424878Y-105801000D01*
X65787135Y-105674145D01*
X65186391Y-105425309D01*
X64645732Y-105064052D01*
X64185948Y-104604268D01*
X63824691Y-104063609D01*
X63575855Y-103462865D01*
X63449000Y-102825122D01*
X63449000Y-102174878D01*
X63575855Y-101537135D01*
X63824691Y-100936391D01*
X64153398Y-100444446D01*
X64164949Y-100422835D01*
X64172062Y-100399386D01*
X64174464Y-100375000D01*
X64172062Y-100350614D01*
X64164949Y-100327165D01*
X64153398Y-100305554D01*
X64137852Y-100286612D01*
X64118910Y-100271066D01*
X64097299Y-100259515D01*
X64073850Y-100252402D01*
X64049464Y-100250000D01*
X61450536Y-100250000D01*
X61426150Y-100252402D01*
X61402701Y-100259515D01*
X61381090Y-100271066D01*
X61362148Y-100286612D01*
X61346602Y-100305554D01*
X61335051Y-100327165D01*
X61327938Y-100350614D01*
X61325536Y-100375000D01*
X61327938Y-100399386D01*
X61335051Y-100422835D01*
X61346602Y-100444446D01*
X61675309Y-100936391D01*
X61924145Y-101537135D01*
X62051000Y-102174878D01*
X62051000Y-102825122D01*
X61924145Y-103462865D01*
X61675309Y-104063609D01*
X61314052Y-104604268D01*
X60854268Y-105064052D01*
X60313609Y-105425309D01*
X59712865Y-105674145D01*
X59075122Y-105801000D01*
X58424878Y-105801000D01*
X57787135Y-105674145D01*
X57186391Y-105425309D01*
X56645732Y-105064052D01*
X56185948Y-104604268D01*
X55954052Y-104257212D01*
X55938506Y-104238270D01*
X55919564Y-104222724D01*
X55897953Y-104211173D01*
X55874504Y-104204060D01*
X55850118Y-104201658D01*
X55825732Y-104204060D01*
X55802282Y-104211173D01*
X55780672Y-104222724D01*
X55761730Y-104238270D01*
X51036370Y-108963630D01*
X51020824Y-108982572D01*
X51009273Y-109004183D01*
X51002160Y-109027632D01*
X50999759Y-109051431D01*
X50989168Y-111307413D01*
X50991456Y-111331810D01*
X50998459Y-111355293D01*
X51009908Y-111376958D01*
X51025365Y-111395972D01*
X51044234Y-111411607D01*
X51065790Y-111423259D01*
X51089205Y-111430482D01*
X51114167Y-111433000D01*
X51317000Y-111433000D01*
X51317000Y-113567000D01*
X51102974Y-113567000D01*
X51078588Y-113569402D01*
X51055139Y-113576515D01*
X51033528Y-113588066D01*
X51014586Y-113603612D01*
X50999040Y-113622554D01*
X50987489Y-113644165D01*
X50980376Y-113667614D01*
X50977975Y-113691413D01*
X50893986Y-131581000D01*
X50827754Y-145688503D01*
X50827646Y-145711351D01*
X50829934Y-145735748D01*
X50836937Y-145759231D01*
X50848386Y-145780896D01*
X50863843Y-145799910D01*
X50882712Y-145815545D01*
X50904268Y-145827197D01*
X50927683Y-145834420D01*
X50952058Y-145836937D01*
X50976455Y-145834649D01*
X50999938Y-145827646D01*
X51022091Y-145815872D01*
X51106860Y-145759231D01*
X51212712Y-145688503D01*
X51212714Y-145688502D01*
X51995445Y-145364284D01*
X52826387Y-145199000D01*
X53673613Y-145199000D01*
X54504555Y-145364284D01*
X55287286Y-145688502D01*
X55287288Y-145688503D01*
X55856941Y-146069133D01*
X55991731Y-146159197D01*
X56590803Y-146758269D01*
X56590805Y-146758272D01*
X57050946Y-147446921D01*
X57061498Y-147462714D01*
X57385716Y-148245445D01*
X57551000Y-149076387D01*
X57551000Y-149923613D01*
X57385716Y-150754555D01*
X57061498Y-151537286D01*
X57061497Y-151537288D01*
X56811790Y-151911000D01*
X56590803Y-152241731D01*
X55991731Y-152840803D01*
X55991728Y-152840805D01*
X55287288Y-153311497D01*
X55287287Y-153311498D01*
X55287286Y-153311498D01*
X54504555Y-153635716D01*
X53673613Y-153801000D01*
X52826387Y-153801000D01*
X51995445Y-153635716D01*
X51212714Y-153311498D01*
X51212713Y-153311498D01*
X51212712Y-153311497D01*
X50986631Y-153160434D01*
X50965024Y-153148885D01*
X50941574Y-153141772D01*
X50917188Y-153139370D01*
X50892802Y-153141772D01*
X50869353Y-153148885D01*
X50847742Y-153160436D01*
X50828800Y-153175982D01*
X50813254Y-153194924D01*
X50801703Y-153216534D01*
X50794590Y-153239984D01*
X50792189Y-153263783D01*
X50779373Y-155993606D01*
X50781661Y-156018003D01*
X50788664Y-156041486D01*
X50800113Y-156063151D01*
X50815570Y-156082165D01*
X50834439Y-156097800D01*
X50855995Y-156109452D01*
X50879410Y-156116675D01*
X50903785Y-156119192D01*
X50928182Y-156116904D01*
X50951665Y-156109901D01*
X50973818Y-156098127D01*
X50997707Y-156082165D01*
X51212712Y-155938503D01*
X51212714Y-155938502D01*
X51995445Y-155614284D01*
X52826387Y-155449000D01*
X53673613Y-155449000D01*
X54504555Y-155614284D01*
X55287286Y-155938502D01*
X55287288Y-155938503D01*
X55812457Y-156289410D01*
X55991731Y-156409197D01*
X56590803Y-157008269D01*
X56590805Y-157008272D01*
X56853218Y-157401000D01*
X57061498Y-157712714D01*
X57385716Y-158495445D01*
X57551000Y-159326387D01*
X57551000Y-160173613D01*
X57385716Y-161004555D01*
X57076528Y-161751000D01*
X57061497Y-161787288D01*
X56665803Y-162379485D01*
X56590803Y-162491731D01*
X55991731Y-163090803D01*
X55991728Y-163090805D01*
X55287288Y-163561497D01*
X55287287Y-163561498D01*
X55287286Y-163561498D01*
X54504555Y-163885716D01*
X53673613Y-164051000D01*
X52826387Y-164051000D01*
X51995445Y-163885716D01*
X51212714Y-163561498D01*
X51212713Y-163561498D01*
X51212712Y-163561497D01*
X50508272Y-163090805D01*
X50508269Y-163090803D01*
X49909197Y-162491731D01*
X49784797Y-162305554D01*
X49769251Y-162286612D01*
X49750309Y-162271066D01*
X49728698Y-162259515D01*
X49705249Y-162252402D01*
X49680863Y-162250000D01*
X48600000Y-162250000D01*
X48600000Y-108900000D01*
X55452947Y-102047053D01*
X55468493Y-102028111D01*
X55480044Y-102006500D01*
X55487157Y-101983051D01*
X55575855Y-101537135D01*
X55824691Y-100936391D01*
X56185948Y-100395732D01*
X56645732Y-99935948D01*
X57186391Y-99574691D01*
X57787135Y-99325855D01*
X58233051Y-99237157D01*
X58256500Y-99230044D01*
X58278111Y-99218493D01*
X58297053Y-99202947D01*
X58500000Y-99000000D01*
X99000000Y-99000000D01*
X99000000Y-99073560D01*
X99000000Y-99073560D01*
G37*
G36*
X58711000Y-163921000D02*
X57209000Y-163921000D01*
X57209000Y-162549000D01*
X58711000Y-162549000D01*
X58711000Y-163921000D01*
X58711000Y-163921000D01*
G37*
G36*
X101771000Y-163901000D02*
X100669000Y-163901000D01*
X100669000Y-162599000D01*
X101771000Y-162599000D01*
X101771000Y-163901000D01*
X101771000Y-163901000D01*
G37*
G36*
X103331000Y-163901000D02*
X102229000Y-163901000D01*
X102229000Y-162599000D01*
X103331000Y-162599000D01*
X103331000Y-163901000D01*
X103331000Y-163901000D01*
G37*
G36*
X142870015Y-162456973D02*
X142973879Y-162488479D01*
X143069600Y-162539644D01*
X143153501Y-162608499D01*
X143222356Y-162692400D01*
X143273521Y-162788121D01*
X143305027Y-162891985D01*
X143315666Y-163000000D01*
X143305027Y-163108015D01*
X143273521Y-163211879D01*
X143222356Y-163307600D01*
X143153501Y-163391501D01*
X143069600Y-163460356D01*
X142973879Y-163511521D01*
X142870015Y-163543027D01*
X142789067Y-163551000D01*
X142210933Y-163551000D01*
X142129985Y-163543027D01*
X142026121Y-163511521D01*
X141930400Y-163460356D01*
X141846499Y-163391501D01*
X141777644Y-163307600D01*
X141726479Y-163211879D01*
X141694973Y-163108015D01*
X141684334Y-163000000D01*
X141694973Y-162891985D01*
X141726479Y-162788121D01*
X141777644Y-162692400D01*
X141846499Y-162608499D01*
X141930400Y-162539644D01*
X142026121Y-162488479D01*
X142129985Y-162456973D01*
X142210933Y-162449000D01*
X142789067Y-162449000D01*
X142870015Y-162456973D01*
X142870015Y-162456973D01*
G37*
G36*
X118489485Y-160748996D02*
X118489487Y-160748997D01*
X118489488Y-160748997D01*
X118726255Y-160847069D01*
X118939342Y-160989449D01*
X119120551Y-161170658D01*
X119120553Y-161170661D01*
X119262931Y-161383745D01*
X119355827Y-161608015D01*
X119361004Y-161620515D01*
X119411000Y-161871861D01*
X119411000Y-162128139D01*
X119361004Y-162379485D01*
X119262931Y-162616255D01*
X119120551Y-162829342D01*
X118939342Y-163010551D01*
X118939339Y-163010553D01*
X118726255Y-163152931D01*
X118489488Y-163251003D01*
X118489487Y-163251003D01*
X118489485Y-163251004D01*
X118238139Y-163301000D01*
X117981861Y-163301000D01*
X117730515Y-163251004D01*
X117730513Y-163251003D01*
X117730512Y-163251003D01*
X117493745Y-163152931D01*
X117280661Y-163010553D01*
X117280658Y-163010551D01*
X117099449Y-162829342D01*
X116957069Y-162616255D01*
X116858996Y-162379485D01*
X116809000Y-162128139D01*
X116809000Y-161871861D01*
X116858996Y-161620515D01*
X116864174Y-161608015D01*
X116957069Y-161383745D01*
X117099447Y-161170661D01*
X117099449Y-161170658D01*
X117280658Y-160989449D01*
X117493745Y-160847069D01*
X117730512Y-160748997D01*
X117730513Y-160748997D01*
X117730515Y-160748996D01*
X117981861Y-160699000D01*
X118238139Y-160699000D01*
X118489485Y-160748996D01*
X118489485Y-160748996D01*
G37*
G36*
X83901000Y-163021000D02*
X82599000Y-163021000D01*
X82599000Y-161919000D01*
X83901000Y-161919000D01*
X83901000Y-163021000D01*
X83901000Y-163021000D01*
G37*
G36*
X128771000Y-162901000D02*
X127669000Y-162901000D01*
X127669000Y-161599000D01*
X128771000Y-161599000D01*
X128771000Y-162901000D01*
X128771000Y-162901000D01*
G37*
G36*
X130331000Y-162901000D02*
X129229000Y-162901000D01*
X129229000Y-161599000D01*
X130331000Y-161599000D01*
X130331000Y-162901000D01*
X130331000Y-162901000D01*
G37*
G36*
X82101860Y-162846400D02*
X80999100Y-162846400D01*
X80999100Y-160153600D01*
X82101860Y-160153600D01*
X82101860Y-162846400D01*
X82101860Y-162846400D01*
G37*
G36*
X79500900Y-162846400D02*
X78398140Y-162846400D01*
X78398140Y-160153600D01*
X79500900Y-160153600D01*
X79500900Y-162846400D01*
X79500900Y-162846400D01*
G37*
G36*
X132701050Y-162699270D02*
X131798950Y-162699270D01*
X131798950Y-161797170D01*
X132701050Y-161797170D01*
X132701050Y-162699270D01*
X132701050Y-162699270D01*
G37*
G36*
X103331000Y-162151000D02*
X102229000Y-162151000D01*
X102229000Y-160849000D01*
X103331000Y-160849000D01*
X103331000Y-162151000D01*
X103331000Y-162151000D01*
G37*
G36*
X75871000Y-162151000D02*
X74769000Y-162151000D01*
X74769000Y-160849000D01*
X75871000Y-160849000D01*
X75871000Y-162151000D01*
X75871000Y-162151000D01*
G37*
G36*
X77751000Y-162151000D02*
X76649000Y-162151000D01*
X76649000Y-160849000D01*
X77751000Y-160849000D01*
X77751000Y-162151000D01*
X77751000Y-162151000D01*
G37*
G36*
X101771000Y-162151000D02*
X100669000Y-162151000D01*
X100669000Y-160849000D01*
X101771000Y-160849000D01*
X101771000Y-162151000D01*
X101771000Y-162151000D01*
G37*
G36*
X142870015Y-160956973D02*
X142973879Y-160988479D01*
X143069600Y-161039644D01*
X143153501Y-161108499D01*
X143222356Y-161192400D01*
X143273521Y-161288121D01*
X143305027Y-161391985D01*
X143315666Y-161500000D01*
X143305027Y-161608015D01*
X143273521Y-161711879D01*
X143222356Y-161807600D01*
X143153501Y-161891501D01*
X143069600Y-161960356D01*
X142973879Y-162011521D01*
X142870015Y-162043027D01*
X142789067Y-162051000D01*
X142210933Y-162051000D01*
X142129985Y-162043027D01*
X142026121Y-162011521D01*
X141930400Y-161960356D01*
X141846499Y-161891501D01*
X141777644Y-161807600D01*
X141726479Y-161711879D01*
X141694973Y-161608015D01*
X141684334Y-161500000D01*
X141694973Y-161391985D01*
X141726479Y-161288121D01*
X141777644Y-161192400D01*
X141846499Y-161108499D01*
X141930400Y-161039644D01*
X142026121Y-160988479D01*
X142129985Y-160956973D01*
X142210933Y-160949000D01*
X142789067Y-160949000D01*
X142870015Y-160956973D01*
X142870015Y-160956973D01*
G37*
G36*
X105601000Y-161761000D02*
X103799000Y-161761000D01*
X103799000Y-161009000D01*
X105601000Y-161009000D01*
X105601000Y-161761000D01*
X105601000Y-161761000D01*
G37*
G36*
X112201000Y-161761000D02*
X110399000Y-161761000D01*
X110399000Y-161009000D01*
X112201000Y-161009000D01*
X112201000Y-161761000D01*
X112201000Y-161761000D01*
G37*
G36*
X85651000Y-161751000D02*
X84349000Y-161751000D01*
X84349000Y-160649000D01*
X85651000Y-160649000D01*
X85651000Y-161751000D01*
X85651000Y-161751000D01*
G37*
G36*
X83901000Y-161581000D02*
X82599000Y-161581000D01*
X82599000Y-160479000D01*
X83901000Y-160479000D01*
X83901000Y-161581000D01*
X83901000Y-161581000D01*
G37*
G36*
X140911000Y-161391000D02*
X139589000Y-161391000D01*
X139589000Y-160379000D01*
X140911000Y-160379000D01*
X140911000Y-161391000D01*
X140911000Y-161391000D01*
G37*
G36*
X122851000Y-161051000D02*
X120449000Y-161051000D01*
X120449000Y-158649000D01*
X122851000Y-158649000D01*
X122851000Y-161051000D01*
X122851000Y-161051000D01*
G37*
G36*
X130911000Y-158641000D02*
X129576000Y-158641000D01*
X129551614Y-158643402D01*
X129528165Y-158650515D01*
X129506554Y-158662066D01*
X129487612Y-158677612D01*
X129472066Y-158696554D01*
X129460515Y-158718165D01*
X129453402Y-158741614D01*
X129451000Y-158766000D01*
X129451000Y-161051000D01*
X127049000Y-161051000D01*
X127049000Y-158649000D01*
X129464000Y-158649000D01*
X129488386Y-158646598D01*
X129511835Y-158639485D01*
X129533446Y-158627934D01*
X129552388Y-158612388D01*
X129567934Y-158593446D01*
X129579485Y-158571835D01*
X129586598Y-158548386D01*
X129589000Y-158524000D01*
X129589000Y-157629000D01*
X130911000Y-157629000D01*
X130911000Y-158641000D01*
X130911000Y-158641000D01*
G37*
G36*
X131751050Y-160700290D02*
X130848950Y-160700290D01*
X130848950Y-159798190D01*
X131751050Y-159798190D01*
X131751050Y-160700290D01*
X131751050Y-160700290D01*
G37*
G36*
X133651050Y-160700290D02*
X132748950Y-160700290D01*
X132748950Y-159798190D01*
X133651050Y-159798190D01*
X133651050Y-160700290D01*
X133651050Y-160700290D01*
G37*
G36*
X142870015Y-159456973D02*
X142973879Y-159488479D01*
X143069600Y-159539644D01*
X143153501Y-159608499D01*
X143222356Y-159692400D01*
X143273521Y-159788121D01*
X143305027Y-159891985D01*
X143315666Y-160000000D01*
X143305027Y-160108015D01*
X143273521Y-160211879D01*
X143222356Y-160307600D01*
X143153501Y-160391501D01*
X143069600Y-160460356D01*
X142973879Y-160511521D01*
X142870015Y-160543027D01*
X142789067Y-160551000D01*
X142210933Y-160551000D01*
X142129985Y-160543027D01*
X142026121Y-160511521D01*
X141930400Y-160460356D01*
X141846499Y-160391501D01*
X141777644Y-160307600D01*
X141726479Y-160211879D01*
X141694973Y-160108015D01*
X141684334Y-160000000D01*
X141694973Y-159891985D01*
X141726479Y-159788121D01*
X141777644Y-159692400D01*
X141846499Y-159608499D01*
X141930400Y-159539644D01*
X142026121Y-159488479D01*
X142129985Y-159456973D01*
X142210933Y-159449000D01*
X142789067Y-159449000D01*
X142870015Y-159456973D01*
X142870015Y-159456973D01*
G37*
G36*
X112201000Y-160491000D02*
X110399000Y-160491000D01*
X110399000Y-159739000D01*
X112201000Y-159739000D01*
X112201000Y-160491000D01*
X112201000Y-160491000D01*
G37*
G36*
X105601000Y-160491000D02*
X103799000Y-160491000D01*
X103799000Y-159739000D01*
X105601000Y-159739000D01*
X105601000Y-160491000D01*
X105601000Y-160491000D01*
G37*
G36*
X101771000Y-160151000D02*
X100669000Y-160151000D01*
X100669000Y-158849000D01*
X101771000Y-158849000D01*
X101771000Y-160151000D01*
X101771000Y-160151000D01*
G37*
G36*
X103331000Y-160151000D02*
X102229000Y-160151000D01*
X102229000Y-158849000D01*
X103331000Y-158849000D01*
X103331000Y-160151000D01*
X103331000Y-160151000D01*
G37*
G36*
X83901000Y-160021000D02*
X82599000Y-160021000D01*
X82599000Y-158919000D01*
X83901000Y-158919000D01*
X83901000Y-160021000D01*
X83901000Y-160021000D01*
G37*
G36*
X85651000Y-159871000D02*
X84349000Y-159871000D01*
X84349000Y-158769000D01*
X85651000Y-158769000D01*
X85651000Y-159871000D01*
X85651000Y-159871000D01*
G37*
G36*
X79871000Y-159651000D02*
X78769000Y-159651000D01*
X78769000Y-158349000D01*
X79871000Y-158349000D01*
X79871000Y-159651000D01*
X79871000Y-159651000D01*
G37*
G36*
X81751000Y-159651000D02*
X80649000Y-159651000D01*
X80649000Y-158349000D01*
X81751000Y-158349000D01*
X81751000Y-159651000D01*
X81751000Y-159651000D01*
G37*
G36*
X140911000Y-158121000D02*
X139589000Y-158121000D01*
X139589000Y-157109000D01*
X140911000Y-157109000D01*
X140911000Y-158121000D01*
X140911000Y-158121000D01*
G37*
G36*
X84751000Y-157401000D02*
X82249000Y-157401000D01*
X82249000Y-153099000D01*
X84751000Y-153099000D01*
X84751000Y-157401000D01*
X84751000Y-157401000D01*
G37*
G36*
X80251000Y-157401000D02*
X77749000Y-157401000D01*
X77749000Y-153099000D01*
X80251000Y-153099000D01*
X80251000Y-157401000D01*
X80251000Y-157401000D01*
G37*
G36*
X91676000Y-157301000D02*
X90324000Y-157301000D01*
X90324000Y-156199000D01*
X91676000Y-156199000D01*
X91676000Y-157301000D01*
X91676000Y-157301000D01*
G37*
G36*
X98401000Y-157001000D02*
X97099000Y-157001000D01*
X97099000Y-155899000D01*
X98401000Y-155899000D01*
X98401000Y-157001000D01*
X98401000Y-157001000D01*
G37*
G36*
X140053600Y-156436000D02*
X137716400Y-156436000D01*
X137716400Y-155064000D01*
X140053600Y-155064000D01*
X140053600Y-156436000D01*
X140053600Y-156436000D01*
G37*
G36*
X143401000Y-154922535D02*
X143403402Y-154946921D01*
X143410515Y-154970370D01*
X143422066Y-154991981D01*
X143437612Y-155010923D01*
X143456554Y-155026469D01*
X143478165Y-155038020D01*
X143501614Y-155045133D01*
X143526000Y-155047535D01*
X143550386Y-155045133D01*
X143573835Y-155038020D01*
X143595446Y-155026469D01*
X143614388Y-155010923D01*
X143622619Y-155001843D01*
X143680867Y-154930867D01*
X143680869Y-154930866D01*
X143680870Y-154930864D01*
X143802835Y-154830770D01*
X143941988Y-154756392D01*
X144092975Y-154710590D01*
X144210654Y-154699000D01*
X145289346Y-154699000D01*
X145407025Y-154710590D01*
X145558012Y-154756392D01*
X145697165Y-154830770D01*
X145819133Y-154930867D01*
X145919230Y-155052835D01*
X145993608Y-155191988D01*
X146039410Y-155342975D01*
X146054875Y-155500000D01*
X146039410Y-155657025D01*
X145993608Y-155808012D01*
X145919230Y-155947165D01*
X145819133Y-156069133D01*
X145697165Y-156169230D01*
X145558012Y-156243608D01*
X145407025Y-156289410D01*
X145289346Y-156301000D01*
X144210654Y-156301000D01*
X144092975Y-156289410D01*
X143941988Y-156243608D01*
X143802835Y-156169230D01*
X143680867Y-156069133D01*
X143580770Y-155947165D01*
X143511237Y-155817076D01*
X143497624Y-155796701D01*
X143480297Y-155779374D01*
X143459922Y-155765760D01*
X143437283Y-155756383D01*
X143413250Y-155751602D01*
X143400997Y-155751000D01*
X142099000Y-155751000D01*
X142099000Y-154649000D01*
X143401000Y-154649000D01*
X143401000Y-154922535D01*
X143401000Y-154922535D01*
G37*
G36*
X87651000Y-155751000D02*
X86349000Y-155751000D01*
X86349000Y-154649000D01*
X87651000Y-154649000D01*
X87651000Y-155751000D01*
X87651000Y-155751000D01*
G37*
G36*
X72769485Y-153128996D02*
X72769487Y-153128997D01*
X72769488Y-153128997D01*
X72882920Y-153175982D01*
X73006255Y-153227069D01*
X73219342Y-153369449D01*
X73400551Y-153550658D01*
X73400553Y-153550661D01*
X73542931Y-153763745D01*
X73600886Y-153903660D01*
X73641004Y-154000515D01*
X73691000Y-154251861D01*
X73691000Y-154508139D01*
X73650730Y-154710590D01*
X73641003Y-154759488D01*
X73573467Y-154922535D01*
X73542931Y-154996255D01*
X73400551Y-155209342D01*
X73219342Y-155390551D01*
X73219339Y-155390553D01*
X73006255Y-155532931D01*
X72769488Y-155631003D01*
X72769487Y-155631003D01*
X72769485Y-155631004D01*
X72518139Y-155681000D01*
X72261861Y-155681000D01*
X72010515Y-155631004D01*
X72010513Y-155631003D01*
X72010512Y-155631003D01*
X71773745Y-155532931D01*
X71560661Y-155390553D01*
X71560658Y-155390551D01*
X71379449Y-155209342D01*
X71237069Y-154996255D01*
X71206533Y-154922535D01*
X71138997Y-154759488D01*
X71129271Y-154710590D01*
X71089000Y-154508139D01*
X71089000Y-154251861D01*
X71138996Y-154000515D01*
X71179115Y-153903660D01*
X71237069Y-153763745D01*
X71379447Y-153550661D01*
X71379449Y-153550658D01*
X71560658Y-153369449D01*
X71773745Y-153227069D01*
X71897080Y-153175982D01*
X72010512Y-153128997D01*
X72010513Y-153128997D01*
X72010515Y-153128996D01*
X72261861Y-153079000D01*
X72518139Y-153079000D01*
X72769485Y-153128996D01*
X72769485Y-153128996D01*
G37*
G36*
X96552520Y-155403930D02*
X95449760Y-155403930D01*
X95449760Y-153800790D01*
X96552520Y-153800790D01*
X96552520Y-155403930D01*
X96552520Y-155403930D01*
G37*
G36*
X95550490Y-152949350D02*
X95552892Y-152973736D01*
X95560005Y-152997185D01*
X95571556Y-153018796D01*
X95587102Y-153037738D01*
X95606044Y-153053284D01*
X95609115Y-153054926D01*
X95596144Y-153074350D01*
X95579683Y-153099000D01*
X95571538Y-153111196D01*
X95559992Y-153132810D01*
X95552885Y-153156261D01*
X95550490Y-153180615D01*
X95550490Y-153205070D01*
X95530067Y-153211265D01*
X95508456Y-153222816D01*
X95489514Y-153238362D01*
X95473950Y-153257331D01*
X95240862Y-153606371D01*
X95232306Y-153622387D01*
X95220808Y-153636401D01*
X95072428Y-153858595D01*
X95060882Y-153880209D01*
X95053775Y-153903660D01*
X95051380Y-153928014D01*
X95051380Y-155403930D01*
X93948620Y-155403930D01*
X93948620Y-153928014D01*
X93946218Y-153903628D01*
X93939105Y-153880179D01*
X93927572Y-153858595D01*
X93779192Y-153636401D01*
X93767693Y-153622382D01*
X93759138Y-153606371D01*
X93526050Y-153257331D01*
X93510510Y-153238385D01*
X93491572Y-153222835D01*
X93469964Y-153211278D01*
X93449510Y-153205067D01*
X93449510Y-153180615D01*
X93447108Y-153156229D01*
X93439995Y-153132780D01*
X93428462Y-153111196D01*
X93420318Y-153099000D01*
X93403856Y-153074350D01*
X93390885Y-153054926D01*
X93393956Y-153053284D01*
X93412898Y-153037738D01*
X93428444Y-153018796D01*
X93439995Y-152997185D01*
X93447108Y-152973736D01*
X93449510Y-152949350D01*
X93449510Y-150100010D01*
X95550490Y-150100010D01*
X95550490Y-152949350D01*
X95550490Y-152949350D01*
G37*
G36*
X93550240Y-155403930D02*
X92447480Y-155403930D01*
X92447480Y-153800790D01*
X93550240Y-153800790D01*
X93550240Y-155403930D01*
X93550240Y-155403930D01*
G37*
G36*
X129451000Y-154234000D02*
X129453402Y-154258386D01*
X129460515Y-154281835D01*
X129472066Y-154303446D01*
X129487612Y-154322388D01*
X129506554Y-154337934D01*
X129528165Y-154349485D01*
X129551614Y-154356598D01*
X129576000Y-154359000D01*
X130911000Y-154359000D01*
X130911000Y-155371000D01*
X129589000Y-155371000D01*
X129589000Y-154576000D01*
X129586598Y-154551614D01*
X129579485Y-154528165D01*
X129567934Y-154506554D01*
X129552388Y-154487612D01*
X129533446Y-154472066D01*
X129511835Y-154460515D01*
X129488386Y-154453402D01*
X129464000Y-154451000D01*
X127049000Y-154451000D01*
X127049000Y-152049000D01*
X129451000Y-152049000D01*
X129451000Y-154234000D01*
X129451000Y-154234000D01*
G37*
G36*
X91676000Y-155301000D02*
X90324000Y-155301000D01*
X90324000Y-154199000D01*
X91676000Y-154199000D01*
X91676000Y-155301000D01*
X91676000Y-155301000D01*
G37*
G36*
X98401000Y-155121000D02*
X97099000Y-155121000D01*
X97099000Y-154019000D01*
X98401000Y-154019000D01*
X98401000Y-155121000D01*
X98401000Y-155121000D01*
G37*
G36*
X87651000Y-153871000D02*
X86349000Y-153871000D01*
X86349000Y-152769000D01*
X87651000Y-152769000D01*
X87651000Y-153871000D01*
X87651000Y-153871000D01*
G37*
G36*
X145407025Y-152210590D02*
X145558012Y-152256392D01*
X145697165Y-152330770D01*
X145819133Y-152430867D01*
X145919230Y-152552835D01*
X145993608Y-152691988D01*
X146039410Y-152842975D01*
X146054875Y-153000000D01*
X146039410Y-153157025D01*
X145993608Y-153308012D01*
X145919230Y-153447165D01*
X145819133Y-153569133D01*
X145697165Y-153669230D01*
X145558012Y-153743608D01*
X145407025Y-153789410D01*
X145289346Y-153801000D01*
X144210654Y-153801000D01*
X144092975Y-153789410D01*
X143941988Y-153743608D01*
X143802835Y-153669230D01*
X143680870Y-153569136D01*
X143680869Y-153569134D01*
X143680867Y-153569133D01*
X143622623Y-153498162D01*
X143605300Y-153480839D01*
X143584925Y-153467225D01*
X143562286Y-153457848D01*
X143538253Y-153453067D01*
X143513748Y-153453067D01*
X143489715Y-153457847D01*
X143467076Y-153467225D01*
X143446701Y-153480838D01*
X143429374Y-153498165D01*
X143415760Y-153518540D01*
X143406383Y-153541179D01*
X143401602Y-153565212D01*
X143401000Y-153577465D01*
X143401000Y-153871000D01*
X142099000Y-153871000D01*
X142099000Y-152769000D01*
X143390325Y-152769000D01*
X143414711Y-152766598D01*
X143438160Y-152759485D01*
X143459771Y-152747934D01*
X143478713Y-152732388D01*
X143494259Y-152713446D01*
X143499541Y-152702285D01*
X143500589Y-152702845D01*
X143580770Y-152552835D01*
X143680867Y-152430867D01*
X143802835Y-152330770D01*
X143941988Y-152256392D01*
X144092975Y-152210590D01*
X144210654Y-152199000D01*
X145289346Y-152199000D01*
X145407025Y-152210590D01*
X145407025Y-152210590D01*
G37*
G36*
X118489485Y-150588996D02*
X118489487Y-150588997D01*
X118489488Y-150588997D01*
X118489495Y-150589000D01*
X118726255Y-150687069D01*
X118939342Y-150829449D01*
X119120551Y-151010658D01*
X119262931Y-151223745D01*
X119361004Y-151460515D01*
X119411000Y-151711861D01*
X119411000Y-151968139D01*
X119365079Y-152199000D01*
X119361003Y-152219488D01*
X119314908Y-152330771D01*
X119262931Y-152456255D01*
X119120551Y-152669342D01*
X118939342Y-152850551D01*
X118939339Y-152850553D01*
X118726255Y-152992931D01*
X118489488Y-153091003D01*
X118489487Y-153091003D01*
X118489485Y-153091004D01*
X118238139Y-153141000D01*
X117981861Y-153141000D01*
X117730515Y-153091004D01*
X117730513Y-153091003D01*
X117730512Y-153091003D01*
X117493745Y-152992931D01*
X117280661Y-152850553D01*
X117280658Y-152850551D01*
X117099449Y-152669342D01*
X116957069Y-152456255D01*
X116905092Y-152330771D01*
X116858997Y-152219488D01*
X116854922Y-152199000D01*
X116809000Y-151968139D01*
X116809000Y-151711861D01*
X116858996Y-151460515D01*
X116957069Y-151223745D01*
X117099449Y-151010658D01*
X117280658Y-150829449D01*
X117493745Y-150687069D01*
X117730505Y-150589000D01*
X117730512Y-150588997D01*
X117730513Y-150588997D01*
X117730515Y-150588996D01*
X117981861Y-150539000D01*
X118238139Y-150539000D01*
X118489485Y-150588996D01*
X118489485Y-150588996D01*
G37*
G36*
X124651000Y-152331000D02*
X123349000Y-152331000D01*
X123349000Y-151229000D01*
X124651000Y-151229000D01*
X124651000Y-152331000D01*
X124651000Y-152331000D01*
G37*
G36*
X79391000Y-151911000D02*
X78379000Y-151911000D01*
X78379000Y-150589000D01*
X79391000Y-150589000D01*
X79391000Y-151911000D01*
X79391000Y-151911000D01*
G37*
G36*
X76121000Y-151911000D02*
X75109000Y-151911000D01*
X75109000Y-150589000D01*
X76121000Y-150589000D01*
X76121000Y-151911000D01*
X76121000Y-151911000D01*
G37*
G36*
X112491000Y-151151000D02*
X111389000Y-151151000D01*
X111389000Y-149849000D01*
X112491000Y-149849000D01*
X112491000Y-151151000D01*
X112491000Y-151151000D01*
G37*
G36*
X114051000Y-151151000D02*
X112949000Y-151151000D01*
X112949000Y-149849000D01*
X114051000Y-149849000D01*
X114051000Y-151151000D01*
X114051000Y-151151000D01*
G37*
G36*
X124651000Y-150771000D02*
X123349000Y-150771000D01*
X123349000Y-149669000D01*
X124651000Y-149669000D01*
X124651000Y-150771000D01*
X124651000Y-150771000D01*
G37*
G36*
X126401000Y-149501000D02*
X125099000Y-149501000D01*
X125099000Y-148399000D01*
X126401000Y-148399000D01*
X126401000Y-149501000D01*
X126401000Y-149501000D01*
G37*
G36*
X143401000Y-147422535D02*
X143403402Y-147446921D01*
X143410515Y-147470370D01*
X143422066Y-147491981D01*
X143437612Y-147510923D01*
X143456554Y-147526469D01*
X143478165Y-147538020D01*
X143501614Y-147545133D01*
X143526000Y-147547535D01*
X143550386Y-147545133D01*
X143573835Y-147538020D01*
X143595446Y-147526469D01*
X143614388Y-147510923D01*
X143622619Y-147501843D01*
X143680867Y-147430867D01*
X143680869Y-147430866D01*
X143680870Y-147430864D01*
X143802835Y-147330770D01*
X143941988Y-147256392D01*
X144092975Y-147210590D01*
X144210654Y-147199000D01*
X145289346Y-147199000D01*
X145407025Y-147210590D01*
X145558012Y-147256392D01*
X145697165Y-147330770D01*
X145819133Y-147430867D01*
X145919230Y-147552835D01*
X145993608Y-147691988D01*
X146039410Y-147842975D01*
X146054875Y-148000000D01*
X146039410Y-148157025D01*
X145993608Y-148308012D01*
X145919230Y-148447165D01*
X145819133Y-148569133D01*
X145697165Y-148669230D01*
X145558012Y-148743608D01*
X145407025Y-148789410D01*
X145289346Y-148801000D01*
X144210654Y-148801000D01*
X144092975Y-148789410D01*
X143941988Y-148743608D01*
X143802835Y-148669230D01*
X143680867Y-148569133D01*
X143580770Y-148447165D01*
X143537962Y-148367076D01*
X143524348Y-148346701D01*
X143507021Y-148329374D01*
X143486647Y-148315760D01*
X143464008Y-148306383D01*
X143439974Y-148301602D01*
X143427722Y-148301000D01*
X142099000Y-148301000D01*
X142099000Y-147199000D01*
X143401000Y-147199000D01*
X143401000Y-147422535D01*
X143401000Y-147422535D01*
G37*
G36*
X112161000Y-148761000D02*
X110359000Y-148761000D01*
X110359000Y-148009000D01*
X112161000Y-148009000D01*
X112161000Y-148761000D01*
X112161000Y-148761000D01*
G37*
G36*
X105561000Y-148761000D02*
X103759000Y-148761000D01*
X103759000Y-148009000D01*
X105561000Y-148009000D01*
X105561000Y-148761000D01*
X105561000Y-148761000D01*
G37*
G36*
X124651000Y-148731000D02*
X123349000Y-148731000D01*
X123349000Y-147629000D01*
X124651000Y-147629000D01*
X124651000Y-148731000D01*
X124651000Y-148731000D01*
G37*
G36*
X126401000Y-147621000D02*
X125099000Y-147621000D01*
X125099000Y-146519000D01*
X126401000Y-146519000D01*
X126401000Y-147621000D01*
X126401000Y-147621000D01*
G37*
G36*
X112161000Y-147491000D02*
X110359000Y-147491000D01*
X110359000Y-146739000D01*
X112161000Y-146739000D01*
X112161000Y-147491000D01*
X112161000Y-147491000D01*
G37*
G36*
X105561000Y-147491000D02*
X103759000Y-147491000D01*
X103759000Y-146739000D01*
X105561000Y-146739000D01*
X105561000Y-147491000D01*
X105561000Y-147491000D01*
G37*
G36*
X124651000Y-146851001D02*
X123349000Y-146851001D01*
X123349000Y-145749001D01*
X124651000Y-145749001D01*
X124651000Y-146851001D01*
X124651000Y-146851001D01*
G37*
G36*
X140051000Y-146711000D02*
X138949000Y-146711000D01*
X138949000Y-145409000D01*
X140051000Y-145409000D01*
X140051000Y-146711000D01*
X140051000Y-146711000D01*
G37*
G36*
X138491000Y-146711000D02*
X137389000Y-146711000D01*
X137389000Y-145409000D01*
X138491000Y-145409000D01*
X138491000Y-146711000D01*
X138491000Y-146711000D01*
G37*
G36*
X145407025Y-144710590D02*
X145558012Y-144756392D01*
X145697165Y-144830770D01*
X145819133Y-144930867D01*
X145919230Y-145052835D01*
X145993608Y-145191988D01*
X146039410Y-145342975D01*
X146054875Y-145500000D01*
X146039410Y-145657025D01*
X145993608Y-145808012D01*
X145919230Y-145947165D01*
X145819133Y-146069133D01*
X145697165Y-146169230D01*
X145558012Y-146243608D01*
X145407025Y-146289410D01*
X145289346Y-146301000D01*
X144210654Y-146301000D01*
X144092975Y-146289410D01*
X143941988Y-146243608D01*
X143802835Y-146169230D01*
X143680870Y-146069136D01*
X143680869Y-146069134D01*
X143680867Y-146069133D01*
X143622623Y-145998162D01*
X143605300Y-145980839D01*
X143584925Y-145967225D01*
X143562286Y-145957848D01*
X143538253Y-145953067D01*
X143513748Y-145953067D01*
X143489715Y-145957847D01*
X143467076Y-145967225D01*
X143446701Y-145980838D01*
X143429374Y-145998165D01*
X143415760Y-146018540D01*
X143406383Y-146041179D01*
X143401602Y-146065212D01*
X143401000Y-146077465D01*
X143401000Y-146421000D01*
X142099000Y-146421000D01*
X142099000Y-145319000D01*
X143375158Y-145319000D01*
X143399544Y-145316598D01*
X143422993Y-145309485D01*
X143444604Y-145297934D01*
X143463546Y-145282388D01*
X143479092Y-145263446D01*
X143490643Y-145241835D01*
X143494768Y-145230308D01*
X143506392Y-145191988D01*
X143556095Y-145099000D01*
X143580770Y-145052835D01*
X143680867Y-144930867D01*
X143802835Y-144830770D01*
X143941988Y-144756392D01*
X144092975Y-144710590D01*
X144210654Y-144699000D01*
X145289346Y-144699000D01*
X145407025Y-144710590D01*
X145407025Y-144710590D01*
G37*
G36*
X121481000Y-146401000D02*
X120379000Y-146401000D01*
X120379000Y-145099000D01*
X121481000Y-145099000D01*
X121481000Y-146401000D01*
X121481000Y-146401000D01*
G37*
G36*
X119601000Y-146401000D02*
X118499000Y-146401000D01*
X118499000Y-145099000D01*
X119601000Y-145099000D01*
X119601000Y-146401000D01*
X119601000Y-146401000D01*
G37*
G36*
X102151000Y-144731000D02*
X100849000Y-144731000D01*
X100849000Y-143629000D01*
X102151000Y-143629000D01*
X102151000Y-144731000D01*
X102151000Y-144731000D01*
G37*
G36*
X131401486Y-143730832D02*
X130480832Y-144651486D01*
X129701600Y-143872254D01*
X130622254Y-142951600D01*
X131401486Y-143730832D01*
X131401486Y-143730832D01*
G37*
G36*
X135846000Y-144566000D02*
X134194000Y-144566000D01*
X134194000Y-143864000D01*
X135846000Y-143864000D01*
X135846000Y-144566000D01*
X135846000Y-144566000D01*
G37*
G36*
X141246000Y-144566000D02*
X139594000Y-144566000D01*
X139594000Y-143864000D01*
X141246000Y-143864000D01*
X141246000Y-144566000D01*
X141246000Y-144566000D01*
G37*
G36*
X132763042Y-142842388D02*
X132781984Y-142857934D01*
X132803595Y-142869485D01*
X132827044Y-142876598D01*
X132851430Y-142879000D01*
X133901000Y-142879000D01*
X133901000Y-143981000D01*
X132599000Y-143981000D01*
X132599000Y-143325510D01*
X132596598Y-143301124D01*
X132589485Y-143277675D01*
X132577934Y-143256064D01*
X132562388Y-143237122D01*
X132543446Y-143221576D01*
X132521835Y-143210025D01*
X132498386Y-143202912D01*
X132474000Y-143200510D01*
X132449614Y-143202912D01*
X132426165Y-143210025D01*
X132404554Y-143221576D01*
X132385612Y-143237122D01*
X131851040Y-143771694D01*
X131071808Y-142992462D01*
X131992462Y-142071808D01*
X132763042Y-142842388D01*
X132763042Y-142842388D01*
G37*
G36*
X130298400Y-142627746D02*
X129377746Y-143548400D01*
X128598514Y-142769168D01*
X129519168Y-141848514D01*
X130298400Y-142627746D01*
X130298400Y-142627746D01*
G37*
G36*
X135846000Y-143296000D02*
X134194000Y-143296000D01*
X134194000Y-142594000D01*
X135846000Y-142594000D01*
X135846000Y-143296000D01*
X135846000Y-143296000D01*
G37*
G36*
X141246000Y-143296000D02*
X139594000Y-143296000D01*
X139594000Y-142594000D01*
X141246000Y-142594000D01*
X141246000Y-143296000D01*
X141246000Y-143296000D01*
G37*
G36*
X120750999Y-141458550D02*
X120740515Y-141478165D01*
X120733402Y-141501614D01*
X120731000Y-141526000D01*
X120731000Y-142901000D01*
X119629000Y-142901000D01*
X119629000Y-141541450D01*
X119639484Y-141521835D01*
X119646597Y-141498386D01*
X119648999Y-141474000D01*
X119648999Y-140099000D01*
X120750999Y-140099000D01*
X120750999Y-141458550D01*
X120750999Y-141458550D01*
G37*
G36*
X118871000Y-141458548D02*
X118860515Y-141478165D01*
X118853402Y-141501614D01*
X118851000Y-141526000D01*
X118851000Y-142901000D01*
X117749000Y-142901000D01*
X117749000Y-141541452D01*
X117759485Y-141521835D01*
X117766598Y-141498386D01*
X117769000Y-141474000D01*
X117769000Y-140099000D01*
X118871000Y-140099000D01*
X118871000Y-141458548D01*
X118871000Y-141458548D01*
G37*
G36*
X102151000Y-142851000D02*
X100849000Y-142851000D01*
X100849000Y-141749000D01*
X102151000Y-141749000D01*
X102151000Y-142851000D01*
X102151000Y-142851000D01*
G37*
G36*
X131442334Y-141521680D02*
X130521680Y-142442334D01*
X129742448Y-141663102D01*
X130663102Y-140742448D01*
X131442334Y-141521680D01*
X131442334Y-141521680D01*
G37*
G36*
X133901000Y-142101000D02*
X132599000Y-142101000D01*
X132599000Y-140999000D01*
X133901000Y-140999000D01*
X133901000Y-142101000D01*
X133901000Y-142101000D01*
G37*
G36*
X141246000Y-142026000D02*
X139594000Y-142026000D01*
X139594000Y-141324000D01*
X141246000Y-141324000D01*
X141246000Y-142026000D01*
X141246000Y-142026000D01*
G37*
G36*
X135846000Y-142026000D02*
X134194000Y-142026000D01*
X134194000Y-141324000D01*
X135846000Y-141324000D01*
X135846000Y-142026000D01*
X135846000Y-142026000D01*
G37*
G36*
X145407025Y-139710590D02*
X145558012Y-139756392D01*
X145697165Y-139830770D01*
X145819133Y-139930867D01*
X145919230Y-140052835D01*
X145993608Y-140191988D01*
X146039410Y-140342975D01*
X146054875Y-140500000D01*
X146039410Y-140657025D01*
X145993608Y-140808012D01*
X145919230Y-140947165D01*
X145819133Y-141069133D01*
X145697165Y-141169230D01*
X145558012Y-141243608D01*
X145407025Y-141289410D01*
X145289346Y-141301000D01*
X144210654Y-141301000D01*
X144092975Y-141289410D01*
X143941988Y-141243608D01*
X143802835Y-141169230D01*
X143680867Y-141069133D01*
X143580770Y-140947165D01*
X143506392Y-140808012D01*
X143460590Y-140657025D01*
X143445125Y-140500000D01*
X143460590Y-140342975D01*
X143506392Y-140191988D01*
X143580770Y-140052835D01*
X143680867Y-139930867D01*
X143802835Y-139830770D01*
X143941988Y-139756392D01*
X144092975Y-139710590D01*
X144210654Y-139699000D01*
X145289346Y-139699000D01*
X145407025Y-139710590D01*
X145407025Y-139710590D01*
G37*
G36*
X112401000Y-140981000D02*
X111099000Y-140981000D01*
X111099000Y-139879000D01*
X112401000Y-139879000D01*
X112401000Y-140981000D01*
X112401000Y-140981000D01*
G37*
G36*
X135846000Y-140756000D02*
X134194000Y-140756000D01*
X134194000Y-140054000D01*
X135846000Y-140054000D01*
X135846000Y-140756000D01*
X135846000Y-140756000D01*
G37*
G36*
X141246000Y-140756000D02*
X139594000Y-140756000D01*
X139594000Y-140054000D01*
X141246000Y-140054000D01*
X141246000Y-140756000D01*
X141246000Y-140756000D01*
G37*
G36*
X102151000Y-139981000D02*
X100849000Y-139981000D01*
X100849000Y-138879000D01*
X102151000Y-138879000D01*
X102151000Y-139981000D01*
X102151000Y-139981000D01*
G37*
G36*
X112401000Y-139101000D02*
X111099000Y-139101000D01*
X111099000Y-137999000D01*
X112401000Y-137999000D01*
X112401000Y-139101000D01*
X112401000Y-139101000D01*
G37*
G36*
X145407025Y-137210590D02*
X145558012Y-137256392D01*
X145697165Y-137330770D01*
X145819133Y-137430867D01*
X145919230Y-137552835D01*
X145993608Y-137691988D01*
X146039410Y-137842975D01*
X146054875Y-138000000D01*
X146039410Y-138157025D01*
X145993608Y-138308012D01*
X145919230Y-138447165D01*
X145819133Y-138569133D01*
X145697165Y-138669230D01*
X145558012Y-138743608D01*
X145407025Y-138789410D01*
X145289346Y-138801000D01*
X144210654Y-138801000D01*
X144092975Y-138789410D01*
X143941988Y-138743608D01*
X143802835Y-138669230D01*
X143680867Y-138569133D01*
X143580770Y-138447165D01*
X143506392Y-138308012D01*
X143460590Y-138157025D01*
X143445125Y-138000000D01*
X143460590Y-137842975D01*
X143506392Y-137691988D01*
X143580770Y-137552835D01*
X143680867Y-137430867D01*
X143802835Y-137330770D01*
X143941988Y-137256392D01*
X144092975Y-137210590D01*
X144210654Y-137199000D01*
X145289346Y-137199000D01*
X145407025Y-137210590D01*
X145407025Y-137210590D01*
G37*
G36*
X102151000Y-138101000D02*
X100849000Y-138101000D01*
X100849000Y-136999000D01*
X102151000Y-136999000D01*
X102151000Y-138101000D01*
X102151000Y-138101000D01*
G37*
G36*
X143151000Y-137981000D02*
X141849000Y-137981000D01*
X141849000Y-136879000D01*
X143151000Y-136879000D01*
X143151000Y-137981000D01*
X143151000Y-137981000D01*
G37*
G36*
X98201000Y-137851000D02*
X96799000Y-137851000D01*
X96799000Y-137049000D01*
X98201000Y-137049000D01*
X98201000Y-137851000D01*
X98201000Y-137851000D01*
G37*
G36*
X129001000Y-137401000D02*
X127899000Y-137401000D01*
X127899000Y-136099000D01*
X129001000Y-136099000D01*
X129001000Y-137401000D01*
X129001000Y-137401000D01*
G37*
G36*
X127121000Y-137401000D02*
X126019000Y-137401000D01*
X126019000Y-136099000D01*
X127121000Y-136099000D01*
X127121000Y-137401000D01*
X127121000Y-137401000D01*
G37*
G36*
X124981000Y-137151000D02*
X123879000Y-137151000D01*
X123879000Y-135849000D01*
X124981000Y-135849000D01*
X124981000Y-137151000D01*
X124981000Y-137151000D01*
G37*
G36*
X123101000Y-137151000D02*
X121999000Y-137151000D01*
X121999000Y-135849000D01*
X123101000Y-135849000D01*
X123101000Y-137151000D01*
X123101000Y-137151000D01*
G37*
G36*
X145407025Y-134710590D02*
X145558012Y-134756392D01*
X145697165Y-134830770D01*
X145819133Y-134930867D01*
X145919230Y-135052835D01*
X145993608Y-135191988D01*
X146039410Y-135342975D01*
X146054875Y-135500000D01*
X146039410Y-135657025D01*
X145993608Y-135808012D01*
X145919230Y-135947165D01*
X145819133Y-136069133D01*
X145697165Y-136169230D01*
X145558012Y-136243608D01*
X145407025Y-136289410D01*
X145289346Y-136301000D01*
X144210654Y-136301000D01*
X144092975Y-136289410D01*
X143941988Y-136243608D01*
X143802835Y-136169230D01*
X143680867Y-136069133D01*
X143580770Y-135947165D01*
X143506392Y-135808012D01*
X143460590Y-135657025D01*
X143445125Y-135500000D01*
X143460590Y-135342975D01*
X143506392Y-135191988D01*
X143580770Y-135052835D01*
X143680867Y-134930867D01*
X143802835Y-134830770D01*
X143941988Y-134756392D01*
X144092975Y-134710590D01*
X144210654Y-134699000D01*
X145289346Y-134699000D01*
X145407025Y-134710590D01*
X145407025Y-134710590D01*
G37*
G36*
X93951000Y-136201000D02*
X93149000Y-136201000D01*
X93149000Y-134799000D01*
X93951000Y-134799000D01*
X93951000Y-136201000D01*
X93951000Y-136201000D01*
G37*
G36*
X95851000Y-136201000D02*
X95049000Y-136201000D01*
X95049000Y-134799000D01*
X95851000Y-134799000D01*
X95851000Y-136201000D01*
X95851000Y-136201000D01*
G37*
G36*
X143151000Y-136101000D02*
X141849000Y-136101000D01*
X141849000Y-134999000D01*
X143151000Y-134999000D01*
X143151000Y-136101000D01*
X143151000Y-136101000D01*
G37*
G36*
X98201000Y-135951000D02*
X96799000Y-135951000D01*
X96799000Y-135149000D01*
X98201000Y-135149000D01*
X98201000Y-135951000D01*
X98201000Y-135951000D01*
G37*
G36*
X119151000Y-134831000D02*
X117849000Y-134831000D01*
X117849000Y-133729000D01*
X119151000Y-133729000D01*
X119151000Y-134831000D01*
X119151000Y-134831000D01*
G37*
G36*
X115401000Y-134831000D02*
X114099000Y-134831000D01*
X114099000Y-133729000D01*
X115401000Y-133729000D01*
X115401000Y-134831000D01*
X115401000Y-134831000D01*
G37*
G36*
X145407025Y-132210590D02*
X145558012Y-132256392D01*
X145697165Y-132330770D01*
X145819133Y-132430867D01*
X145919230Y-132552835D01*
X145993608Y-132691988D01*
X146039410Y-132842975D01*
X146054875Y-133000000D01*
X146039410Y-133157025D01*
X145993608Y-133308012D01*
X145919230Y-133447165D01*
X145819133Y-133569133D01*
X145697165Y-133669230D01*
X145558012Y-133743608D01*
X145407025Y-133789410D01*
X145289346Y-133801000D01*
X144210654Y-133801000D01*
X144092975Y-133789410D01*
X143941988Y-133743608D01*
X143802835Y-133669230D01*
X143680867Y-133569133D01*
X143580770Y-133447165D01*
X143506392Y-133308012D01*
X143460590Y-133157025D01*
X143445125Y-133000000D01*
X143460590Y-132842975D01*
X143506392Y-132691988D01*
X143580770Y-132552835D01*
X143680867Y-132430867D01*
X143802835Y-132330770D01*
X143941988Y-132256392D01*
X144092975Y-132210590D01*
X144210654Y-132199000D01*
X145289346Y-132199000D01*
X145407025Y-132210590D01*
X145407025Y-132210590D01*
G37*
G36*
X115401000Y-133271000D02*
X114099000Y-133271000D01*
X114099000Y-132169000D01*
X115401000Y-132169000D01*
X115401000Y-133271000D01*
X115401000Y-133271000D01*
G37*
G36*
X119151000Y-133271000D02*
X117849000Y-133271000D01*
X117849000Y-132169000D01*
X119151000Y-132169000D01*
X119151000Y-133271000D01*
X119151000Y-133271000D01*
G37*
G36*
X129487142Y-130218242D02*
X129635102Y-130279530D01*
X129768258Y-130368502D01*
X129881498Y-130481742D01*
X129970470Y-130614898D01*
X130031758Y-130762858D01*
X130063000Y-130919925D01*
X130063000Y-131080075D01*
X130031758Y-131237142D01*
X129970470Y-131385102D01*
X129881498Y-131518258D01*
X129768258Y-131631498D01*
X129635102Y-131720470D01*
X129487142Y-131781758D01*
X129330075Y-131813000D01*
X129169925Y-131813000D01*
X129012858Y-131781758D01*
X128864898Y-131720470D01*
X128731742Y-131631498D01*
X128618502Y-131518258D01*
X128529530Y-131385102D01*
X128468242Y-131237142D01*
X128437000Y-131080075D01*
X128437000Y-130919925D01*
X128468242Y-130762858D01*
X128529530Y-130614898D01*
X128618502Y-130481742D01*
X128731742Y-130368502D01*
X128864898Y-130279530D01*
X129012858Y-130218242D01*
X129169925Y-130187000D01*
X129330075Y-130187000D01*
X129487142Y-130218242D01*
X129487142Y-130218242D01*
G37*
G36*
X132027142Y-130218242D02*
X132175102Y-130279530D01*
X132308258Y-130368502D01*
X132421498Y-130481742D01*
X132510470Y-130614898D01*
X132571758Y-130762858D01*
X132603000Y-130919925D01*
X132603000Y-131080075D01*
X132571758Y-131237142D01*
X132510470Y-131385102D01*
X132421498Y-131518258D01*
X132308258Y-131631498D01*
X132175102Y-131720470D01*
X132027142Y-131781758D01*
X131870075Y-131813000D01*
X131709925Y-131813000D01*
X131552858Y-131781758D01*
X131404898Y-131720470D01*
X131271742Y-131631498D01*
X131158502Y-131518258D01*
X131069530Y-131385102D01*
X131008242Y-131237142D01*
X130977000Y-131080075D01*
X130977000Y-130919925D01*
X131008242Y-130762858D01*
X131069530Y-130614898D01*
X131158502Y-130481742D01*
X131271742Y-130368502D01*
X131404898Y-130279530D01*
X131552858Y-130218242D01*
X131709925Y-130187000D01*
X131870075Y-130187000D01*
X132027142Y-130218242D01*
X132027142Y-130218242D01*
G37*
G36*
X126947142Y-130218242D02*
X127095102Y-130279530D01*
X127228258Y-130368502D01*
X127341498Y-130481742D01*
X127430470Y-130614898D01*
X127491758Y-130762858D01*
X127523000Y-130919925D01*
X127523000Y-131080075D01*
X127491758Y-131237142D01*
X127430470Y-131385102D01*
X127341498Y-131518258D01*
X127228258Y-131631498D01*
X127095102Y-131720470D01*
X126947142Y-131781758D01*
X126790075Y-131813000D01*
X126629925Y-131813000D01*
X126472858Y-131781758D01*
X126324898Y-131720470D01*
X126191742Y-131631498D01*
X126078502Y-131518258D01*
X125989530Y-131385102D01*
X125928242Y-131237142D01*
X125897000Y-131080075D01*
X125897000Y-130919925D01*
X125928242Y-130762858D01*
X125989530Y-130614898D01*
X126078502Y-130481742D01*
X126191742Y-130368502D01*
X126324898Y-130279530D01*
X126472858Y-130218242D01*
X126629925Y-130187000D01*
X126790075Y-130187000D01*
X126947142Y-130218242D01*
X126947142Y-130218242D01*
G37*
G36*
X138151000Y-131581000D02*
X136849000Y-131581000D01*
X136849000Y-130479000D01*
X138151000Y-130479000D01*
X138151000Y-131581000D01*
X138151000Y-131581000D01*
G37*
G36*
X98751000Y-130701000D02*
X96649000Y-130701000D01*
X96649000Y-121599000D01*
X98751000Y-121599000D01*
X98751000Y-130701000D01*
X98751000Y-130701000D01*
G37*
G36*
X72001000Y-130701000D02*
X69899000Y-130701000D01*
X69899000Y-121599000D01*
X72001000Y-121599000D01*
X72001000Y-130701000D01*
X72001000Y-130701000D01*
G37*
G36*
X81851000Y-130701000D02*
X79749000Y-130701000D01*
X79749000Y-121599000D01*
X81851000Y-121599000D01*
X81851000Y-130701000D01*
X81851000Y-130701000D01*
G37*
G36*
X55101000Y-130701000D02*
X52999000Y-130701000D01*
X52999000Y-121599000D01*
X55101000Y-121599000D01*
X55101000Y-130701000D01*
X55101000Y-130701000D01*
G37*
G36*
X138151000Y-130021000D02*
X136849000Y-130021000D01*
X136849000Y-128919000D01*
X138151000Y-128919000D01*
X138151000Y-130021000D01*
X138151000Y-130021000D01*
G37*
G36*
X127101000Y-129901000D02*
X125999000Y-129901000D01*
X125999000Y-128599000D01*
X127101000Y-128599000D01*
X127101000Y-129901000D01*
X127101000Y-129901000D01*
G37*
G36*
X130171000Y-129901000D02*
X127879000Y-129901000D01*
X127879000Y-128599000D01*
X130171000Y-128599000D01*
X130171000Y-129901000D01*
X130171000Y-129901000D01*
G37*
G36*
X132051000Y-129901000D02*
X130949000Y-129901000D01*
X130949000Y-128599000D01*
X132051000Y-128599000D01*
X132051000Y-129901000D01*
X132051000Y-129901000D01*
G37*
G36*
X136451810Y-129651050D02*
X135549710Y-129651050D01*
X135549710Y-128748950D01*
X136451810Y-128748950D01*
X136451810Y-129651050D01*
X136451810Y-129651050D01*
G37*
G36*
X145407025Y-127210590D02*
X145558012Y-127256392D01*
X145697165Y-127330770D01*
X145819133Y-127430867D01*
X145919230Y-127552835D01*
X145993608Y-127691988D01*
X146039410Y-127842975D01*
X146054875Y-128000000D01*
X146039410Y-128157025D01*
X145993608Y-128308012D01*
X145919230Y-128447165D01*
X145819133Y-128569133D01*
X145697165Y-128669230D01*
X145558012Y-128743608D01*
X145407025Y-128789410D01*
X145289346Y-128801000D01*
X144210654Y-128801000D01*
X144092975Y-128789410D01*
X143941988Y-128743608D01*
X143802835Y-128669230D01*
X143680867Y-128569133D01*
X143580770Y-128447165D01*
X143506392Y-128308012D01*
X143460590Y-128157025D01*
X143445125Y-128000000D01*
X143460590Y-127842975D01*
X143506392Y-127691988D01*
X143580770Y-127552835D01*
X143680867Y-127430867D01*
X143802835Y-127330770D01*
X143941988Y-127256392D01*
X144092975Y-127210590D01*
X144210654Y-127199000D01*
X145289346Y-127199000D01*
X145407025Y-127210590D01*
X145407025Y-127210590D01*
G37*
G36*
X134452830Y-128701050D02*
X133550730Y-128701050D01*
X133550730Y-127798950D01*
X134452830Y-127798950D01*
X134452830Y-128701050D01*
X134452830Y-128701050D01*
G37*
G36*
X116351000Y-128651000D02*
X115249000Y-128651000D01*
X115249000Y-127349000D01*
X116351000Y-127349000D01*
X116351000Y-128651000D01*
X116351000Y-128651000D01*
G37*
G36*
X118231000Y-128651000D02*
X117129000Y-128651000D01*
X117129000Y-127349000D01*
X118231000Y-127349000D01*
X118231000Y-128651000D01*
X118231000Y-128651000D01*
G37*
G36*
X126947142Y-126618242D02*
X127095102Y-126679530D01*
X127228258Y-126768502D01*
X127341498Y-126881742D01*
X127430470Y-127014898D01*
X127491758Y-127162858D01*
X127523000Y-127319925D01*
X127523000Y-127480075D01*
X127491758Y-127637142D01*
X127430470Y-127785102D01*
X127341498Y-127918258D01*
X127228258Y-128031498D01*
X127095102Y-128120470D01*
X126947142Y-128181758D01*
X126790075Y-128213000D01*
X126629925Y-128213000D01*
X126472858Y-128181758D01*
X126324898Y-128120470D01*
X126191742Y-128031498D01*
X126078502Y-127918258D01*
X125989530Y-127785102D01*
X125928242Y-127637142D01*
X125897000Y-127480075D01*
X125897000Y-127319925D01*
X125928242Y-127162858D01*
X125989530Y-127014898D01*
X126078502Y-126881742D01*
X126191742Y-126768502D01*
X126324898Y-126679530D01*
X126472858Y-126618242D01*
X126629925Y-126587000D01*
X126790075Y-126587000D01*
X126947142Y-126618242D01*
X126947142Y-126618242D01*
G37*
G36*
X132027142Y-126618242D02*
X132175102Y-126679530D01*
X132308258Y-126768502D01*
X132421498Y-126881742D01*
X132510470Y-127014898D01*
X132571758Y-127162858D01*
X132603000Y-127319925D01*
X132603000Y-127480075D01*
X132571758Y-127637142D01*
X132510470Y-127785102D01*
X132421498Y-127918258D01*
X132308258Y-128031498D01*
X132175102Y-128120470D01*
X132027142Y-128181758D01*
X131870075Y-128213000D01*
X131709925Y-128213000D01*
X131552858Y-128181758D01*
X131404898Y-128120470D01*
X131271742Y-128031498D01*
X131158502Y-127918258D01*
X131069530Y-127785102D01*
X131008242Y-127637142D01*
X130977000Y-127480075D01*
X130977000Y-127319925D01*
X131008242Y-127162858D01*
X131069530Y-127014898D01*
X131158502Y-126881742D01*
X131271742Y-126768502D01*
X131404898Y-126679530D01*
X131552858Y-126618242D01*
X131709925Y-126587000D01*
X131870075Y-126587000D01*
X132027142Y-126618242D01*
X132027142Y-126618242D01*
G37*
G36*
X129487142Y-126618242D02*
X129635102Y-126679530D01*
X129768258Y-126768502D01*
X129881498Y-126881742D01*
X129970470Y-127014898D01*
X130031758Y-127162858D01*
X130063000Y-127319925D01*
X130063000Y-127480075D01*
X130031758Y-127637142D01*
X129970470Y-127785102D01*
X129881498Y-127918258D01*
X129768258Y-128031498D01*
X129635102Y-128120470D01*
X129487142Y-128181758D01*
X129330075Y-128213000D01*
X129169925Y-128213000D01*
X129012858Y-128181758D01*
X128864898Y-128120470D01*
X128731742Y-128031498D01*
X128618502Y-127918258D01*
X128529530Y-127785102D01*
X128468242Y-127637142D01*
X128437000Y-127480075D01*
X128437000Y-127319925D01*
X128468242Y-127162858D01*
X128529530Y-127014898D01*
X128618502Y-126881742D01*
X128731742Y-126768502D01*
X128864898Y-126679530D01*
X129012858Y-126618242D01*
X129169925Y-126587000D01*
X129330075Y-126587000D01*
X129487142Y-126618242D01*
X129487142Y-126618242D01*
G37*
G36*
X136451810Y-127751050D02*
X135549710Y-127751050D01*
X135549710Y-126848950D01*
X136451810Y-126848950D01*
X136451810Y-127751050D01*
X136451810Y-127751050D01*
G37*
G36*
X141411000Y-127141000D02*
X140089000Y-127141000D01*
X140089000Y-126129000D01*
X141411000Y-126129000D01*
X141411000Y-127141000D01*
X141411000Y-127141000D01*
G37*
G36*
X60871000Y-126911000D02*
X59859000Y-126911000D01*
X59859000Y-125589000D01*
X60871000Y-125589000D01*
X60871000Y-126911000D01*
X60871000Y-126911000D01*
G37*
G36*
X64141000Y-126911000D02*
X63129000Y-126911000D01*
X63129000Y-125589000D01*
X64141000Y-125589000D01*
X64141000Y-126911000D01*
X64141000Y-126911000D01*
G37*
G36*
X91141000Y-126911000D02*
X90129000Y-126911000D01*
X90129000Y-125589000D01*
X91141000Y-125589000D01*
X91141000Y-126911000D01*
X91141000Y-126911000D01*
G37*
G36*
X87871000Y-126911000D02*
X86859000Y-126911000D01*
X86859000Y-125589000D01*
X87871000Y-125589000D01*
X87871000Y-126911000D01*
X87871000Y-126911000D01*
G37*
G36*
X118231000Y-126901000D02*
X117129000Y-126901000D01*
X117129000Y-125599000D01*
X118231000Y-125599000D01*
X118231000Y-126901000D01*
X118231000Y-126901000D01*
G37*
G36*
X116351000Y-126901000D02*
X115249000Y-126901000D01*
X115249000Y-125599000D01*
X116351000Y-125599000D01*
X116351000Y-126901000D01*
X116351000Y-126901000D01*
G37*
G36*
X134651000Y-126331000D02*
X133349000Y-126331000D01*
X133349000Y-125229000D01*
X134651000Y-125229000D01*
X134651000Y-126331000D01*
X134651000Y-126331000D01*
G37*
G36*
X145407025Y-124710590D02*
X145558012Y-124756392D01*
X145697165Y-124830770D01*
X145819133Y-124930867D01*
X145919230Y-125052835D01*
X145993608Y-125191988D01*
X146039410Y-125342975D01*
X146054875Y-125500000D01*
X146039410Y-125657025D01*
X145993608Y-125808012D01*
X145919230Y-125947165D01*
X145819133Y-126069133D01*
X145697165Y-126169230D01*
X145558012Y-126243608D01*
X145407025Y-126289410D01*
X145289346Y-126301000D01*
X144210654Y-126301000D01*
X144092975Y-126289410D01*
X143941988Y-126243608D01*
X143802835Y-126169230D01*
X143680867Y-126069133D01*
X143580770Y-125947165D01*
X143506392Y-125808012D01*
X143460590Y-125657025D01*
X143445125Y-125500000D01*
X143460590Y-125342975D01*
X143506392Y-125191988D01*
X143580770Y-125052835D01*
X143680867Y-124930867D01*
X143802835Y-124830770D01*
X143941988Y-124756392D01*
X144092975Y-124710590D01*
X144210654Y-124699000D01*
X145289346Y-124699000D01*
X145407025Y-124710590D01*
X145407025Y-124710590D01*
G37*
G36*
X137161000Y-125641000D02*
X135839000Y-125641000D01*
X135839000Y-124629000D01*
X137161000Y-124629000D01*
X137161000Y-125641000D01*
X137161000Y-125641000D01*
G37*
G36*
X121401000Y-123322807D02*
X121402337Y-123336384D01*
X121399022Y-123319715D01*
X121389644Y-123297076D01*
X121376031Y-123276701D01*
X121358703Y-123259374D01*
X121338329Y-123245760D01*
X121315690Y-123236383D01*
X121291657Y-123231602D01*
X121279404Y-123231000D01*
X120220595Y-123231000D01*
X120196209Y-123233402D01*
X120172760Y-123240515D01*
X120151149Y-123252066D01*
X120132207Y-123267612D01*
X120116661Y-123286554D01*
X120105110Y-123308165D01*
X120097997Y-123331614D01*
X120095595Y-123356000D01*
X120097997Y-123380386D01*
X120105110Y-123403835D01*
X120116661Y-123425446D01*
X120132207Y-123444388D01*
X120151149Y-123459934D01*
X120172760Y-123471485D01*
X120184304Y-123475616D01*
X120217854Y-123485793D01*
X120250332Y-123495645D01*
X120310782Y-123527957D01*
X120363425Y-123556095D01*
X120462553Y-123637447D01*
X120543905Y-123736574D01*
X120543906Y-123736576D01*
X120604355Y-123849667D01*
X120610826Y-123871000D01*
X120630384Y-123935474D01*
X120639760Y-123958108D01*
X120653373Y-123978483D01*
X120670700Y-123995810D01*
X120691075Y-124009424D01*
X120713714Y-124018801D01*
X120737747Y-124023582D01*
X120762252Y-124023582D01*
X120786285Y-124018802D01*
X120808924Y-124009424D01*
X120829299Y-123995811D01*
X120846626Y-123978484D01*
X120860240Y-123958109D01*
X120869618Y-123935469D01*
X120895645Y-123849668D01*
X120952336Y-123743608D01*
X120956095Y-123736575D01*
X121037447Y-123637447D01*
X121136574Y-123556095D01*
X121149509Y-123549181D01*
X121249667Y-123495645D01*
X121282145Y-123485793D01*
X121315692Y-123475617D01*
X121338328Y-123466240D01*
X121358703Y-123452627D01*
X121376030Y-123435299D01*
X121389644Y-123414925D01*
X121399021Y-123392286D01*
X121403802Y-123368253D01*
X121403802Y-123348512D01*
X121410515Y-123370642D01*
X121422066Y-123392253D01*
X121437612Y-123411195D01*
X121456554Y-123426741D01*
X121478165Y-123438292D01*
X121513748Y-123447205D01*
X121627617Y-123458420D01*
X121709426Y-123483237D01*
X121750332Y-123495645D01*
X121810782Y-123527957D01*
X121863425Y-123556095D01*
X121962553Y-123637447D01*
X122043905Y-123736574D01*
X122043906Y-123736576D01*
X122104355Y-123849667D01*
X122110826Y-123871000D01*
X122130384Y-123935474D01*
X122139760Y-123958108D01*
X122153373Y-123978483D01*
X122170700Y-123995810D01*
X122191075Y-124009424D01*
X122213714Y-124018801D01*
X122237747Y-124023582D01*
X122262252Y-124023582D01*
X122286285Y-124018802D01*
X122308924Y-124009424D01*
X122329299Y-123995811D01*
X122346626Y-123978484D01*
X122360240Y-123958109D01*
X122369618Y-123935469D01*
X122395645Y-123849668D01*
X122452336Y-123743608D01*
X122456095Y-123736575D01*
X122537447Y-123637447D01*
X122636574Y-123556095D01*
X122649509Y-123549181D01*
X122749667Y-123495645D01*
X122790573Y-123483237D01*
X122872382Y-123458420D01*
X123000000Y-123445851D01*
X123127617Y-123458420D01*
X123209426Y-123483237D01*
X123250332Y-123495645D01*
X123310782Y-123527957D01*
X123363425Y-123556095D01*
X123462553Y-123637447D01*
X123543905Y-123736574D01*
X123543906Y-123736576D01*
X123604355Y-123849667D01*
X123610826Y-123871000D01*
X123630384Y-123935474D01*
X123639760Y-123958108D01*
X123653373Y-123978483D01*
X123670700Y-123995810D01*
X123691075Y-124009424D01*
X123713714Y-124018801D01*
X123737747Y-124023582D01*
X123762252Y-124023582D01*
X123786285Y-124018802D01*
X123808924Y-124009424D01*
X123829299Y-123995811D01*
X123846626Y-123978484D01*
X123860240Y-123958109D01*
X123869618Y-123935469D01*
X123895645Y-123849668D01*
X123952336Y-123743608D01*
X123956095Y-123736575D01*
X124037447Y-123637447D01*
X124136574Y-123556095D01*
X124149509Y-123549181D01*
X124249667Y-123495645D01*
X124290573Y-123483237D01*
X124372382Y-123458420D01*
X124500000Y-123445851D01*
X124627617Y-123458420D01*
X124709426Y-123483237D01*
X124750332Y-123495645D01*
X124810782Y-123527957D01*
X124863425Y-123556095D01*
X124962553Y-123637447D01*
X125043905Y-123736574D01*
X125043906Y-123736576D01*
X125104355Y-123849667D01*
X125110826Y-123871000D01*
X125130384Y-123935474D01*
X125139760Y-123958108D01*
X125153373Y-123978483D01*
X125170700Y-123995810D01*
X125191075Y-124009424D01*
X125213714Y-124018801D01*
X125237747Y-124023582D01*
X125262252Y-124023582D01*
X125286285Y-124018802D01*
X125308924Y-124009424D01*
X125329299Y-123995811D01*
X125346626Y-123978484D01*
X125360240Y-123958109D01*
X125369618Y-123935469D01*
X125395645Y-123849668D01*
X125452336Y-123743608D01*
X125456095Y-123736575D01*
X125537447Y-123637447D01*
X125636574Y-123556095D01*
X125649509Y-123549181D01*
X125749667Y-123495645D01*
X125790573Y-123483237D01*
X125872382Y-123458420D01*
X126000000Y-123445851D01*
X126127617Y-123458420D01*
X126209426Y-123483237D01*
X126250332Y-123495645D01*
X126310782Y-123527957D01*
X126363425Y-123556095D01*
X126462553Y-123637447D01*
X126543905Y-123736574D01*
X126543906Y-123736576D01*
X126604355Y-123849667D01*
X126610826Y-123871000D01*
X126630384Y-123935474D01*
X126639760Y-123958108D01*
X126653373Y-123978483D01*
X126670700Y-123995810D01*
X126691075Y-124009424D01*
X126713714Y-124018801D01*
X126737747Y-124023582D01*
X126762252Y-124023582D01*
X126786285Y-124018802D01*
X126808924Y-124009424D01*
X126829299Y-123995811D01*
X126846626Y-123978484D01*
X126860240Y-123958109D01*
X126869618Y-123935469D01*
X126895645Y-123849668D01*
X126952336Y-123743608D01*
X126956095Y-123736575D01*
X127037447Y-123637447D01*
X127136574Y-123556095D01*
X127149509Y-123549181D01*
X127249667Y-123495645D01*
X127290573Y-123483237D01*
X127372382Y-123458420D01*
X127500000Y-123445851D01*
X127627617Y-123458420D01*
X127709426Y-123483237D01*
X127750332Y-123495645D01*
X127810782Y-123527957D01*
X127863425Y-123556095D01*
X127962553Y-123637447D01*
X128043905Y-123736574D01*
X128043906Y-123736576D01*
X128104355Y-123849667D01*
X128110826Y-123871000D01*
X128130384Y-123935474D01*
X128139760Y-123958108D01*
X128153373Y-123978483D01*
X128170700Y-123995810D01*
X128191075Y-124009424D01*
X128213714Y-124018801D01*
X128237747Y-124023582D01*
X128262252Y-124023582D01*
X128286285Y-124018802D01*
X128308924Y-124009424D01*
X128329299Y-123995811D01*
X128346626Y-123978484D01*
X128360240Y-123958109D01*
X128369618Y-123935469D01*
X128395645Y-123849668D01*
X128452336Y-123743608D01*
X128456095Y-123736575D01*
X128537447Y-123637447D01*
X128636574Y-123556095D01*
X128649509Y-123549181D01*
X128749667Y-123495645D01*
X128790573Y-123483237D01*
X128872382Y-123458420D01*
X129000000Y-123445851D01*
X129127617Y-123458420D01*
X129209426Y-123483237D01*
X129250332Y-123495645D01*
X129310782Y-123527957D01*
X129363425Y-123556095D01*
X129462553Y-123637447D01*
X129543905Y-123736574D01*
X129543906Y-123736576D01*
X129604355Y-123849667D01*
X129610826Y-123871000D01*
X129630384Y-123935474D01*
X129639760Y-123958108D01*
X129653373Y-123978483D01*
X129670700Y-123995810D01*
X129691075Y-124009424D01*
X129713714Y-124018801D01*
X129737747Y-124023582D01*
X129762252Y-124023582D01*
X129786285Y-124018802D01*
X129808924Y-124009424D01*
X129829299Y-123995811D01*
X129846626Y-123978484D01*
X129860240Y-123958109D01*
X129869618Y-123935469D01*
X129895645Y-123849668D01*
X129952336Y-123743608D01*
X129956095Y-123736575D01*
X130037447Y-123637447D01*
X130136574Y-123556095D01*
X130149509Y-123549181D01*
X130249667Y-123495645D01*
X130290573Y-123483237D01*
X130372382Y-123458420D01*
X130500000Y-123445851D01*
X130627617Y-123458420D01*
X130709426Y-123483237D01*
X130750332Y-123495645D01*
X130810782Y-123527957D01*
X130863425Y-123556095D01*
X130962553Y-123637447D01*
X131043905Y-123736574D01*
X131043906Y-123736576D01*
X131104355Y-123849667D01*
X131110826Y-123871000D01*
X131130384Y-123935474D01*
X131139760Y-123958108D01*
X131153373Y-123978483D01*
X131170700Y-123995810D01*
X131191075Y-124009424D01*
X131213714Y-124018801D01*
X131237747Y-124023582D01*
X131262252Y-124023582D01*
X131286285Y-124018802D01*
X131308924Y-124009424D01*
X131329299Y-123995811D01*
X131346626Y-123978484D01*
X131360240Y-123958109D01*
X131369618Y-123935469D01*
X131395645Y-123849668D01*
X131452336Y-123743608D01*
X131456095Y-123736575D01*
X131537447Y-123637447D01*
X131636574Y-123556095D01*
X131649509Y-123549181D01*
X131749667Y-123495645D01*
X131790573Y-123483237D01*
X131872382Y-123458420D01*
X132000000Y-123445851D01*
X132127617Y-123458420D01*
X132209426Y-123483237D01*
X132250332Y-123495645D01*
X132310782Y-123527957D01*
X132363425Y-123556095D01*
X132462553Y-123637447D01*
X132543905Y-123736574D01*
X132543906Y-123736576D01*
X132604355Y-123849667D01*
X132610826Y-123871000D01*
X132641580Y-123972382D01*
X132651000Y-124068027D01*
X132651000Y-124931973D01*
X132641580Y-125027618D01*
X132616763Y-125109427D01*
X132604355Y-125150333D01*
X132562306Y-125229000D01*
X132543905Y-125263426D01*
X132462553Y-125362553D01*
X132363426Y-125443905D01*
X132363424Y-125443906D01*
X132250333Y-125504355D01*
X132209427Y-125516763D01*
X132127618Y-125541580D01*
X132000000Y-125554149D01*
X131872383Y-125541580D01*
X131790574Y-125516763D01*
X131749668Y-125504355D01*
X131636577Y-125443906D01*
X131636575Y-125443905D01*
X131537448Y-125362553D01*
X131456096Y-125263426D01*
X131395646Y-125150332D01*
X131369613Y-125064516D01*
X131360242Y-125041891D01*
X131346628Y-125021517D01*
X131329301Y-125004189D01*
X131308926Y-124990575D01*
X131286287Y-124981198D01*
X131262254Y-124976417D01*
X131237750Y-124976417D01*
X131213716Y-124981197D01*
X131191077Y-124990574D01*
X131170703Y-125004188D01*
X131153375Y-125021515D01*
X131139761Y-125041890D01*
X131130384Y-125064529D01*
X131104356Y-125150330D01*
X131104355Y-125150332D01*
X131043905Y-125263426D01*
X130962553Y-125362553D01*
X130863426Y-125443905D01*
X130863424Y-125443906D01*
X130750333Y-125504355D01*
X130709427Y-125516763D01*
X130627618Y-125541580D01*
X130500000Y-125554149D01*
X130372383Y-125541580D01*
X130290574Y-125516763D01*
X130249668Y-125504355D01*
X130136577Y-125443906D01*
X130136575Y-125443905D01*
X130037448Y-125362553D01*
X129956096Y-125263426D01*
X129895646Y-125150332D01*
X129869613Y-125064516D01*
X129860242Y-125041891D01*
X129846628Y-125021517D01*
X129829301Y-125004189D01*
X129808926Y-124990575D01*
X129786287Y-124981198D01*
X129762254Y-124976417D01*
X129737750Y-124976417D01*
X129713716Y-124981197D01*
X129691077Y-124990574D01*
X129670703Y-125004188D01*
X129653375Y-125021515D01*
X129639761Y-125041890D01*
X129630384Y-125064529D01*
X129604356Y-125150330D01*
X129604355Y-125150332D01*
X129543905Y-125263426D01*
X129462553Y-125362553D01*
X129363426Y-125443905D01*
X129363424Y-125443906D01*
X129250333Y-125504355D01*
X129209427Y-125516763D01*
X129127618Y-125541580D01*
X129000000Y-125554149D01*
X128872383Y-125541580D01*
X128790574Y-125516763D01*
X128749668Y-125504355D01*
X128636577Y-125443906D01*
X128636575Y-125443905D01*
X128537448Y-125362553D01*
X128456096Y-125263426D01*
X128395646Y-125150332D01*
X128369613Y-125064516D01*
X128360242Y-125041891D01*
X128346628Y-125021517D01*
X128329301Y-125004189D01*
X128308926Y-124990575D01*
X128286287Y-124981198D01*
X128262254Y-124976417D01*
X128237750Y-124976417D01*
X128213716Y-124981197D01*
X128191077Y-124990574D01*
X128170703Y-125004188D01*
X128153375Y-125021515D01*
X128139761Y-125041890D01*
X128130384Y-125064529D01*
X128104356Y-125150330D01*
X128104355Y-125150332D01*
X128043905Y-125263426D01*
X127962553Y-125362553D01*
X127863426Y-125443905D01*
X127863424Y-125443906D01*
X127750333Y-125504355D01*
X127709427Y-125516763D01*
X127627618Y-125541580D01*
X127500000Y-125554149D01*
X127372383Y-125541580D01*
X127290574Y-125516763D01*
X127249668Y-125504355D01*
X127136577Y-125443906D01*
X127136575Y-125443905D01*
X127037448Y-125362553D01*
X126956096Y-125263426D01*
X126895646Y-125150332D01*
X126869613Y-125064516D01*
X126860242Y-125041891D01*
X126846628Y-125021517D01*
X126829301Y-125004189D01*
X126808926Y-124990575D01*
X126786287Y-124981198D01*
X126762254Y-124976417D01*
X126737750Y-124976417D01*
X126713716Y-124981197D01*
X126691077Y-124990574D01*
X126670703Y-125004188D01*
X126653375Y-125021515D01*
X126639761Y-125041890D01*
X126630384Y-125064529D01*
X126604356Y-125150330D01*
X126604355Y-125150332D01*
X126543905Y-125263426D01*
X126462553Y-125362553D01*
X126363426Y-125443905D01*
X126363424Y-125443906D01*
X126250333Y-125504355D01*
X126209427Y-125516763D01*
X126127618Y-125541580D01*
X126000000Y-125554149D01*
X125872383Y-125541580D01*
X125790574Y-125516763D01*
X125749668Y-125504355D01*
X125636577Y-125443906D01*
X125636575Y-125443905D01*
X125537448Y-125362553D01*
X125456096Y-125263426D01*
X125395646Y-125150332D01*
X125369613Y-125064516D01*
X125360242Y-125041891D01*
X125346628Y-125021517D01*
X125329301Y-125004189D01*
X125308926Y-124990575D01*
X125286287Y-124981198D01*
X125262254Y-124976417D01*
X125237750Y-124976417D01*
X125213716Y-124981197D01*
X125191077Y-124990574D01*
X125170703Y-125004188D01*
X125153375Y-125021515D01*
X125139761Y-125041890D01*
X125130384Y-125064529D01*
X125104356Y-125150330D01*
X125104355Y-125150332D01*
X125043905Y-125263426D01*
X124962553Y-125362553D01*
X124863426Y-125443905D01*
X124863424Y-125443906D01*
X124750333Y-125504355D01*
X124709427Y-125516763D01*
X124627618Y-125541580D01*
X124500000Y-125554149D01*
X124372383Y-125541580D01*
X124290574Y-125516763D01*
X124249668Y-125504355D01*
X124136577Y-125443906D01*
X124136575Y-125443905D01*
X124037448Y-125362553D01*
X123956096Y-125263426D01*
X123895646Y-125150332D01*
X123869613Y-125064516D01*
X123860242Y-125041891D01*
X123846628Y-125021517D01*
X123829301Y-125004189D01*
X123808926Y-124990575D01*
X123786287Y-124981198D01*
X123762254Y-124976417D01*
X123737750Y-124976417D01*
X123713716Y-124981197D01*
X123691077Y-124990574D01*
X123670703Y-125004188D01*
X123653375Y-125021515D01*
X123639761Y-125041890D01*
X123630384Y-125064529D01*
X123604356Y-125150330D01*
X123604355Y-125150332D01*
X123543905Y-125263426D01*
X123462553Y-125362553D01*
X123363426Y-125443905D01*
X123363424Y-125443906D01*
X123250333Y-125504355D01*
X123209427Y-125516763D01*
X123127618Y-125541580D01*
X123000000Y-125554149D01*
X122872383Y-125541580D01*
X122790574Y-125516763D01*
X122749668Y-125504355D01*
X122636577Y-125443906D01*
X122636575Y-125443905D01*
X122537448Y-125362553D01*
X122456096Y-125263426D01*
X122395646Y-125150332D01*
X122369613Y-125064516D01*
X122360242Y-125041891D01*
X122346628Y-125021517D01*
X122329301Y-125004189D01*
X122308926Y-124990575D01*
X122286287Y-124981198D01*
X122262254Y-124976417D01*
X122237750Y-124976417D01*
X122213716Y-124981197D01*
X122191077Y-124990574D01*
X122170703Y-125004188D01*
X122153375Y-125021515D01*
X122139761Y-125041890D01*
X122130384Y-125064529D01*
X122104356Y-125150330D01*
X122104355Y-125150332D01*
X122043905Y-125263426D01*
X121962553Y-125362553D01*
X121863426Y-125443905D01*
X121863424Y-125443906D01*
X121750333Y-125504355D01*
X121709427Y-125516763D01*
X121627618Y-125541580D01*
X121500000Y-125554149D01*
X121372383Y-125541580D01*
X121290574Y-125516763D01*
X121249668Y-125504355D01*
X121136577Y-125443906D01*
X121136575Y-125443905D01*
X121037448Y-125362553D01*
X120956096Y-125263426D01*
X120895646Y-125150332D01*
X120869613Y-125064516D01*
X120860242Y-125041891D01*
X120846628Y-125021517D01*
X120829301Y-125004189D01*
X120808926Y-124990575D01*
X120786287Y-124981198D01*
X120762254Y-124976417D01*
X120737750Y-124976417D01*
X120713716Y-124981197D01*
X120691077Y-124990574D01*
X120670703Y-125004188D01*
X120653375Y-125021515D01*
X120639761Y-125041890D01*
X120630384Y-125064529D01*
X120604356Y-125150330D01*
X120604355Y-125150332D01*
X120543905Y-125263426D01*
X120462553Y-125362553D01*
X120363426Y-125443905D01*
X120363424Y-125443906D01*
X120250333Y-125504355D01*
X120209427Y-125516763D01*
X120127618Y-125541580D01*
X120000000Y-125554149D01*
X119872383Y-125541580D01*
X119790574Y-125516763D01*
X119749668Y-125504355D01*
X119636577Y-125443906D01*
X119636575Y-125443905D01*
X119537448Y-125362553D01*
X119456096Y-125263426D01*
X119437695Y-125229000D01*
X119395646Y-125150333D01*
X119389734Y-125130843D01*
X119358420Y-125027618D01*
X119349000Y-124931973D01*
X119349000Y-124068028D01*
X119358420Y-123972383D01*
X119395645Y-123849669D01*
X119395645Y-123849668D01*
X119452336Y-123743608D01*
X119456095Y-123736575D01*
X119537447Y-123637447D01*
X119636574Y-123556095D01*
X119649509Y-123549181D01*
X119749667Y-123495645D01*
X119790573Y-123483237D01*
X119872382Y-123458420D01*
X119986252Y-123447205D01*
X120010286Y-123442425D01*
X120032925Y-123433047D01*
X120053299Y-123419433D01*
X120070626Y-123402106D01*
X120084240Y-123381732D01*
X120093618Y-123359093D01*
X120099000Y-123322807D01*
X120099000Y-122129000D01*
X121401000Y-122129000D01*
X121401000Y-123322807D01*
X121401000Y-123322807D01*
G37*
G36*
X134651000Y-124771000D02*
X133349000Y-124771000D01*
X133349000Y-123669000D01*
X134651000Y-123669000D01*
X134651000Y-124771000D01*
X134651000Y-124771000D01*
G37*
G36*
X141751000Y-122651000D02*
X141536000Y-122651000D01*
X141511614Y-122653402D01*
X141488165Y-122660515D01*
X141466554Y-122672066D01*
X141447612Y-122687612D01*
X141432066Y-122706554D01*
X141420515Y-122728165D01*
X141413402Y-122751614D01*
X141411000Y-122776000D01*
X141411000Y-123871000D01*
X140089000Y-123871000D01*
X140089000Y-122859000D01*
X140524000Y-122859000D01*
X140548386Y-122856598D01*
X140571835Y-122849485D01*
X140593446Y-122837934D01*
X140612388Y-122822388D01*
X140627934Y-122803446D01*
X140639485Y-122781835D01*
X140646598Y-122758386D01*
X140649000Y-122734000D01*
X140649000Y-121349000D01*
X141751000Y-121349000D01*
X141751000Y-122651000D01*
X141751000Y-122651000D01*
G37*
G36*
X143401000Y-122422535D02*
X143403402Y-122446921D01*
X143410515Y-122470370D01*
X143422066Y-122491981D01*
X143437612Y-122510923D01*
X143456554Y-122526469D01*
X143478165Y-122538020D01*
X143501614Y-122545133D01*
X143526000Y-122547535D01*
X143550386Y-122545133D01*
X143573835Y-122538020D01*
X143595446Y-122526469D01*
X143614388Y-122510923D01*
X143622619Y-122501843D01*
X143680867Y-122430867D01*
X143680869Y-122430866D01*
X143680870Y-122430864D01*
X143802835Y-122330770D01*
X143941988Y-122256392D01*
X144092975Y-122210590D01*
X144210654Y-122199000D01*
X145289346Y-122199000D01*
X145407025Y-122210590D01*
X145558012Y-122256392D01*
X145697165Y-122330770D01*
X145819133Y-122430867D01*
X145919230Y-122552835D01*
X145993608Y-122691988D01*
X146039410Y-122842975D01*
X146054875Y-123000000D01*
X146039410Y-123157025D01*
X145993608Y-123308012D01*
X145919230Y-123447165D01*
X145819133Y-123569133D01*
X145697165Y-123669230D01*
X145558012Y-123743608D01*
X145407025Y-123789410D01*
X145289346Y-123801000D01*
X144210654Y-123801000D01*
X144092975Y-123789410D01*
X143941988Y-123743608D01*
X143802835Y-123669230D01*
X143680867Y-123569133D01*
X143580770Y-123447165D01*
X143514300Y-123322807D01*
X143511236Y-123317075D01*
X143497624Y-123296701D01*
X143480297Y-123279374D01*
X143459922Y-123265760D01*
X143437283Y-123256383D01*
X143413250Y-123251602D01*
X143400997Y-123251000D01*
X142099000Y-123251000D01*
X142099000Y-122149000D01*
X143401000Y-122149000D01*
X143401000Y-122422535D01*
X143401000Y-122422535D01*
G37*
G36*
X135351000Y-123301000D02*
X132649000Y-123301000D01*
X132649000Y-121499000D01*
X135351000Y-121499000D01*
X135351000Y-123301000D01*
X135351000Y-123301000D01*
G37*
G36*
X119351000Y-123301000D02*
X116649000Y-123301000D01*
X116649000Y-121499000D01*
X119351000Y-121499000D01*
X119351000Y-123301000D01*
X119351000Y-123301000D01*
G37*
G36*
X126101000Y-123151000D02*
X123649000Y-123151000D01*
X123649000Y-121849000D01*
X126101000Y-121849000D01*
X126101000Y-123151000D01*
X126101000Y-123151000D01*
G37*
G36*
X127981000Y-123151000D02*
X126879000Y-123151000D01*
X126879000Y-121849000D01*
X127981000Y-121849000D01*
X127981000Y-123151000D01*
X127981000Y-123151000D01*
G37*
G36*
X122871000Y-123151000D02*
X121769000Y-123151000D01*
X121769000Y-121849000D01*
X122871000Y-121849000D01*
X122871000Y-123151000D01*
X122871000Y-123151000D01*
G37*
G36*
X131151000Y-122831000D02*
X128349000Y-122831000D01*
X128349000Y-121729000D01*
X131151000Y-121729000D01*
X131151000Y-122831000D01*
X131151000Y-122831000D01*
G37*
G36*
X139871000Y-122651000D02*
X138769000Y-122651000D01*
X138769000Y-121349000D01*
X139871000Y-121349000D01*
X139871000Y-122651000D01*
X139871000Y-122651000D01*
G37*
G36*
X137161000Y-122371000D02*
X135839000Y-122371000D01*
X135839000Y-121359000D01*
X137161000Y-121359000D01*
X137161000Y-122371000D01*
X137161000Y-122371000D01*
G37*
G36*
X113621000Y-121901000D02*
X112519000Y-121901000D01*
X112519000Y-120599000D01*
X113621000Y-120599000D01*
X113621000Y-121901000D01*
X113621000Y-121901000D01*
G37*
G36*
X115501000Y-121901000D02*
X114399000Y-121901000D01*
X114399000Y-120599000D01*
X115501000Y-120599000D01*
X115501000Y-121901000D01*
X115501000Y-121901000D01*
G37*
G36*
X145407025Y-119710590D02*
X145558012Y-119756392D01*
X145697165Y-119830770D01*
X145819133Y-119930867D01*
X145919230Y-120052835D01*
X145993608Y-120191988D01*
X146039410Y-120342975D01*
X146054875Y-120500000D01*
X146039410Y-120657025D01*
X145993608Y-120808012D01*
X145919230Y-120947165D01*
X145819133Y-121069133D01*
X145697165Y-121169230D01*
X145558012Y-121243608D01*
X145407025Y-121289410D01*
X145289346Y-121301000D01*
X144210654Y-121301000D01*
X144092975Y-121289410D01*
X143941988Y-121243608D01*
X143802835Y-121169230D01*
X143680870Y-121069136D01*
X143680869Y-121069134D01*
X143680867Y-121069133D01*
X143622623Y-120998162D01*
X143605300Y-120980839D01*
X143584925Y-120967225D01*
X143562286Y-120957848D01*
X143538253Y-120953067D01*
X143513748Y-120953067D01*
X143489715Y-120957847D01*
X143467076Y-120967225D01*
X143446701Y-120980838D01*
X143429374Y-120998165D01*
X143415760Y-121018540D01*
X143406383Y-121041179D01*
X143401602Y-121065212D01*
X143401000Y-121077465D01*
X143401000Y-121371000D01*
X142099000Y-121371000D01*
X142099000Y-120269000D01*
X143390325Y-120269000D01*
X143414711Y-120266598D01*
X143438160Y-120259485D01*
X143459771Y-120247934D01*
X143478713Y-120232388D01*
X143494259Y-120213446D01*
X143499541Y-120202285D01*
X143500589Y-120202845D01*
X143580770Y-120052835D01*
X143680867Y-119930867D01*
X143802835Y-119830770D01*
X143941988Y-119756392D01*
X144092975Y-119710590D01*
X144210654Y-119699000D01*
X145289346Y-119699000D01*
X145407025Y-119710590D01*
X145407025Y-119710590D01*
G37*
G36*
X121401000Y-121351000D02*
X120099000Y-121351000D01*
X120099000Y-120249000D01*
X121401000Y-120249000D01*
X121401000Y-121351000D01*
X121401000Y-121351000D01*
G37*
G36*
X131151000Y-121271000D02*
X128349000Y-121271000D01*
X128349000Y-120169000D01*
X131151000Y-120169000D01*
X131151000Y-121271000D01*
X131151000Y-121271000D01*
G37*
G36*
X136401000Y-121001000D02*
X132099000Y-121001000D01*
X132099000Y-118499000D01*
X136401000Y-118499000D01*
X136401000Y-121001000D01*
X136401000Y-121001000D01*
G37*
G36*
X141596400Y-120851860D02*
X138903600Y-120851860D01*
X138903600Y-119749100D01*
X141596400Y-119749100D01*
X141596400Y-120851860D01*
X141596400Y-120851860D01*
G37*
G36*
X138651000Y-120501000D02*
X137349000Y-120501000D01*
X137349000Y-119399000D01*
X138651000Y-119399000D01*
X138651000Y-120501000D01*
X138651000Y-120501000D01*
G37*
G36*
X116801000Y-120151000D02*
X113199000Y-120151000D01*
X113199000Y-117549000D01*
X116801000Y-117549000D01*
X116801000Y-120151000D01*
X116801000Y-120151000D01*
G37*
G36*
X147401000Y-119581000D02*
X146099000Y-119581000D01*
X146099000Y-118479000D01*
X147401000Y-118479000D01*
X147401000Y-119581000D01*
X147401000Y-119581000D01*
G37*
G36*
X97351000Y-115703364D02*
X97350614Y-115703402D01*
X97327165Y-115710515D01*
X97305554Y-115722066D01*
X97286612Y-115737612D01*
X97271066Y-115756554D01*
X97259515Y-115778165D01*
X97252402Y-115801614D01*
X97250000Y-115826000D01*
X97250000Y-119250000D01*
X95926000Y-119250000D01*
X95901614Y-119252402D01*
X95878165Y-119259515D01*
X95856554Y-119271066D01*
X95837612Y-119286612D01*
X95825804Y-119301000D01*
X82699000Y-119301000D01*
X82699000Y-116174196D01*
X82713388Y-116162388D01*
X82728934Y-116143446D01*
X82740485Y-116121835D01*
X82747598Y-116098386D01*
X82750000Y-116074000D01*
X82750000Y-115500000D01*
X94624000Y-115500000D01*
X94648386Y-115497598D01*
X94671835Y-115490485D01*
X94693446Y-115478934D01*
X94712388Y-115463388D01*
X94727934Y-115444446D01*
X94739485Y-115422835D01*
X94746598Y-115399386D01*
X94749000Y-115375000D01*
X94749000Y-113799000D01*
X97351000Y-113799000D01*
X97351000Y-115703364D01*
X97351000Y-115703364D01*
G37*
G36*
X71851000Y-115703364D02*
X71850614Y-115703402D01*
X71827165Y-115710515D01*
X71805554Y-115722066D01*
X71786612Y-115737612D01*
X71771066Y-115756554D01*
X71759515Y-115778165D01*
X71752402Y-115801614D01*
X71750000Y-115826000D01*
X71750000Y-119250000D01*
X69176000Y-119250000D01*
X69151614Y-119252402D01*
X69128165Y-119259515D01*
X69106554Y-119271066D01*
X69087612Y-119286612D01*
X69075804Y-119301000D01*
X55949000Y-119301000D01*
X55949000Y-116174196D01*
X55963388Y-116162388D01*
X55978934Y-116143446D01*
X55990485Y-116121835D01*
X55997598Y-116098386D01*
X56000000Y-116074000D01*
X56000000Y-115500000D01*
X69124000Y-115500000D01*
X69148386Y-115497598D01*
X69171835Y-115490485D01*
X69193446Y-115478934D01*
X69212388Y-115463388D01*
X69227934Y-115444446D01*
X69239485Y-115422835D01*
X69246598Y-115399386D01*
X69249000Y-115375000D01*
X69249000Y-113799000D01*
X71851000Y-113799000D01*
X71851000Y-115703364D01*
X71851000Y-115703364D01*
G37*
G36*
X138651000Y-118621000D02*
X137349000Y-118621000D01*
X137349000Y-117519000D01*
X138651000Y-117519000D01*
X138651000Y-118621000D01*
X138651000Y-118621000D01*
G37*
G36*
X141596400Y-118250900D02*
X138903600Y-118250900D01*
X138903600Y-117148140D01*
X141596400Y-117148140D01*
X141596400Y-118250900D01*
X141596400Y-118250900D01*
G37*
G36*
X146817000Y-116794000D02*
X146819402Y-116818386D01*
X146826515Y-116841835D01*
X146838066Y-116863446D01*
X146853612Y-116882388D01*
X146872554Y-116897934D01*
X146894165Y-116909485D01*
X146917614Y-116916598D01*
X146942000Y-116919000D01*
X147401000Y-116919000D01*
X147401000Y-118021000D01*
X146099000Y-118021000D01*
X146099000Y-116942000D01*
X146096598Y-116917614D01*
X146089485Y-116894165D01*
X146077934Y-116872554D01*
X146062388Y-116853612D01*
X146043446Y-116838066D01*
X146021835Y-116826515D01*
X145998386Y-116819402D01*
X145974000Y-116817000D01*
X144683000Y-116817000D01*
X144683000Y-114683000D01*
X146817000Y-114683000D01*
X146817000Y-116794000D01*
X146817000Y-116794000D01*
G37*
G36*
X73801000Y-117601000D02*
X72699000Y-117601000D01*
X72699000Y-115499000D01*
X73801000Y-115499000D01*
X73801000Y-117601000D01*
X73801000Y-117601000D01*
G37*
G36*
X99301000Y-117601000D02*
X98199000Y-117601000D01*
X98199000Y-115499000D01*
X99301000Y-115499000D01*
X99301000Y-117601000D01*
X99301000Y-117601000D01*
G37*
G36*
X127151000Y-117081000D02*
X125849000Y-117081000D01*
X125849000Y-115979000D01*
X127151000Y-115979000D01*
X127151000Y-117081000D01*
X127151000Y-117081000D01*
G37*
G36*
X122581000Y-116901000D02*
X121479000Y-116901000D01*
X121479000Y-115599000D01*
X122581000Y-115599000D01*
X122581000Y-116901000D01*
X122581000Y-116901000D01*
G37*
G36*
X121021000Y-116901000D02*
X119919000Y-116901000D01*
X119919000Y-115599000D01*
X121021000Y-115599000D01*
X121021000Y-116901000D01*
X121021000Y-116901000D01*
G37*
G36*
X143325114Y-114689176D02*
X143419168Y-114698439D01*
X143620299Y-114759451D01*
X143652899Y-114776876D01*
X143805662Y-114858529D01*
X143968133Y-114991867D01*
X144101471Y-115154338D01*
X144142447Y-115231000D01*
X144200549Y-115339701D01*
X144261561Y-115540832D01*
X144282162Y-115750000D01*
X144261561Y-115959168D01*
X144200549Y-116160299D01*
X144200546Y-116160304D01*
X144101471Y-116345662D01*
X143968133Y-116508133D01*
X143805662Y-116641471D01*
X143652899Y-116723124D01*
X143620299Y-116740549D01*
X143419168Y-116801561D01*
X143325114Y-116810824D01*
X143262413Y-116817000D01*
X143157587Y-116817000D01*
X143094886Y-116810824D01*
X143000832Y-116801561D01*
X142799701Y-116740549D01*
X142767101Y-116723124D01*
X142614338Y-116641471D01*
X142451867Y-116508133D01*
X142318529Y-116345662D01*
X142219454Y-116160304D01*
X142219451Y-116160299D01*
X142158439Y-115959168D01*
X142137838Y-115750000D01*
X142158439Y-115540832D01*
X142219451Y-115339701D01*
X142277553Y-115231000D01*
X142318529Y-115154338D01*
X142451867Y-114991867D01*
X142614338Y-114858529D01*
X142767101Y-114776876D01*
X142799701Y-114759451D01*
X143000832Y-114698439D01*
X143094886Y-114689176D01*
X143157587Y-114683000D01*
X143262413Y-114683000D01*
X143325114Y-114689176D01*
X143325114Y-114689176D01*
G37*
G36*
X136401000Y-116501000D02*
X132099000Y-116501000D01*
X132099000Y-113999000D01*
X136401000Y-113999000D01*
X136401000Y-116501000D01*
X136401000Y-116501000D01*
G37*
G36*
X130801000Y-115901000D02*
X129699000Y-115901000D01*
X129699000Y-114599000D01*
X130801000Y-114599000D01*
X130801000Y-115901000D01*
X130801000Y-115901000D01*
G37*
G36*
X128921000Y-115901000D02*
X127819000Y-115901000D01*
X127819000Y-114599000D01*
X128921000Y-114599000D01*
X128921000Y-115901000D01*
X128921000Y-115901000D01*
G37*
G36*
X127151000Y-115521000D02*
X125849000Y-115521000D01*
X125849000Y-114419000D01*
X127151000Y-114419000D01*
X127151000Y-115521000D01*
X127151000Y-115521000D01*
G37*
G36*
X138651000Y-115331000D02*
X137349000Y-115331000D01*
X137349000Y-114229000D01*
X138651000Y-114229000D01*
X138651000Y-115331000D01*
X138651000Y-115331000D01*
G37*
G36*
X141901000Y-115331000D02*
X140599000Y-115331000D01*
X140599000Y-114229000D01*
X141901000Y-114229000D01*
X141901000Y-115331000D01*
X141901000Y-115331000D01*
G37*
G36*
X77351000Y-115301000D02*
X74749000Y-115301000D01*
X74749000Y-114199000D01*
X77351000Y-114199000D01*
X77351000Y-115301000D01*
X77351000Y-115301000D01*
G37*
G36*
X102851000Y-115301000D02*
X100249000Y-115301000D01*
X100249000Y-114199000D01*
X102851000Y-114199000D01*
X102851000Y-115301000D01*
X102851000Y-115301000D01*
G37*
G36*
X119901000Y-115231000D02*
X118599000Y-115231000D01*
X118599000Y-114129000D01*
X119901000Y-114129000D01*
X119901000Y-115231000D01*
X119901000Y-115231000D01*
G37*
G36*
X113351000Y-113901000D02*
X112049000Y-113901000D01*
X112049000Y-111799000D01*
X113351000Y-111799000D01*
X113351000Y-113901000D01*
X113351000Y-113901000D01*
G37*
G36*
X117951000Y-113901000D02*
X116649000Y-113901000D01*
X116649000Y-111799000D01*
X117951000Y-111799000D01*
X117951000Y-113901000D01*
X117951000Y-113901000D01*
G37*
G36*
X115651000Y-113901000D02*
X114349000Y-113901000D01*
X114349000Y-111799000D01*
X115651000Y-111799000D01*
X115651000Y-113901000D01*
X115651000Y-113901000D01*
G37*
G36*
X102851000Y-113801000D02*
X100249000Y-113801000D01*
X100249000Y-112699000D01*
X102851000Y-112699000D01*
X102851000Y-113801000D01*
X102851000Y-113801000D01*
G37*
G36*
X77351000Y-113801000D02*
X74749000Y-113801000D01*
X74749000Y-112699000D01*
X77351000Y-112699000D01*
X77351000Y-113801000D01*
X77351000Y-113801000D01*
G37*
G36*
X138651000Y-113771000D02*
X137349000Y-113771000D01*
X137349000Y-112669000D01*
X138651000Y-112669000D01*
X138651000Y-113771000D01*
X138651000Y-113771000D01*
G37*
G36*
X141901000Y-113771000D02*
X140599000Y-113771000D01*
X140599000Y-112669000D01*
X141901000Y-112669000D01*
X141901000Y-113771000D01*
X141901000Y-113771000D01*
G37*
G36*
X126851000Y-113751000D02*
X126149000Y-113751000D01*
X126149000Y-112149000D01*
X126851000Y-112149000D01*
X126851000Y-113751000D01*
X126851000Y-113751000D01*
G37*
G36*
X129391000Y-113751000D02*
X128689000Y-113751000D01*
X128689000Y-112149000D01*
X129391000Y-112149000D01*
X129391000Y-113751000D01*
X129391000Y-113751000D01*
G37*
G36*
X124311000Y-113751000D02*
X123609000Y-113751000D01*
X123609000Y-112149000D01*
X124311000Y-112149000D01*
X124311000Y-113751000D01*
X124311000Y-113751000D01*
G37*
G36*
X123041000Y-113751000D02*
X122339000Y-113751000D01*
X122339000Y-112149000D01*
X123041000Y-112149000D01*
X123041000Y-113751000D01*
X123041000Y-113751000D01*
G37*
G36*
X125581000Y-113751000D02*
X124879000Y-113751000D01*
X124879000Y-112149000D01*
X125581000Y-112149000D01*
X125581000Y-113751000D01*
X125581000Y-113751000D01*
G37*
G36*
X128121000Y-113751000D02*
X127419000Y-113751000D01*
X127419000Y-112149000D01*
X128121000Y-112149000D01*
X128121000Y-113751000D01*
X128121000Y-113751000D01*
G37*
G36*
X130661000Y-113751000D02*
X129959000Y-113751000D01*
X129959000Y-112149000D01*
X130661000Y-112149000D01*
X130661000Y-113751000D01*
X130661000Y-113751000D01*
G37*
G36*
X52905114Y-111439176D02*
X52999168Y-111448439D01*
X53200299Y-111509451D01*
X53232899Y-111526876D01*
X53385662Y-111608529D01*
X53548133Y-111741867D01*
X53681471Y-111904338D01*
X53763124Y-112057101D01*
X53780549Y-112089701D01*
X53841561Y-112290832D01*
X53862162Y-112500000D01*
X53841561Y-112709168D01*
X53780549Y-112910299D01*
X53780546Y-112910304D01*
X53681471Y-113095662D01*
X53548133Y-113258133D01*
X53385662Y-113391471D01*
X53232899Y-113473124D01*
X53200299Y-113490549D01*
X52999168Y-113551561D01*
X52905114Y-113560824D01*
X52842413Y-113567000D01*
X52737587Y-113567000D01*
X52674886Y-113560824D01*
X52580832Y-113551561D01*
X52379701Y-113490549D01*
X52347101Y-113473124D01*
X52194338Y-113391471D01*
X52031867Y-113258133D01*
X51898529Y-113095662D01*
X51799454Y-112910304D01*
X51799451Y-112910299D01*
X51738439Y-112709168D01*
X51717838Y-112500000D01*
X51738439Y-112290832D01*
X51799451Y-112089701D01*
X51816876Y-112057101D01*
X51898529Y-111904338D01*
X52031867Y-111741867D01*
X52194338Y-111608529D01*
X52347101Y-111526876D01*
X52379701Y-111509451D01*
X52580832Y-111448439D01*
X52674886Y-111439176D01*
X52737587Y-111433000D01*
X52842413Y-111433000D01*
X52905114Y-111439176D01*
X52905114Y-111439176D01*
G37*
G36*
X119901000Y-113351000D02*
X118599000Y-113351000D01*
X118599000Y-112249000D01*
X119901000Y-112249000D01*
X119901000Y-113351000D01*
X119901000Y-113351000D01*
G37*
G36*
X59712865Y-106325855D02*
X60313609Y-106574691D01*
X60854268Y-106935948D01*
X61314052Y-107395732D01*
X61675309Y-107936391D01*
X61924145Y-108537135D01*
X62051000Y-109174878D01*
X62051000Y-109825122D01*
X61924145Y-110462865D01*
X61675309Y-111063609D01*
X61513647Y-111305554D01*
X61502096Y-111327165D01*
X61494983Y-111350614D01*
X61492581Y-111375000D01*
X61494983Y-111399386D01*
X61502096Y-111422836D01*
X61513647Y-111444446D01*
X61529193Y-111463388D01*
X61548135Y-111478934D01*
X61569746Y-111490485D01*
X61593195Y-111497598D01*
X61617581Y-111500000D01*
X63882419Y-111500000D01*
X63906805Y-111497598D01*
X63930254Y-111490485D01*
X63951865Y-111478934D01*
X63970807Y-111463388D01*
X63986353Y-111444446D01*
X63997904Y-111422835D01*
X64005017Y-111399386D01*
X64007419Y-111375000D01*
X64005017Y-111350614D01*
X63997904Y-111327165D01*
X63986353Y-111305554D01*
X63824691Y-111063609D01*
X63575855Y-110462865D01*
X63449000Y-109825122D01*
X63449000Y-109174878D01*
X63575855Y-108537135D01*
X63824691Y-107936391D01*
X64185948Y-107395732D01*
X64645732Y-106935948D01*
X65186391Y-106574691D01*
X65787135Y-106325855D01*
X66424878Y-106199000D01*
X67075122Y-106199000D01*
X67712865Y-106325855D01*
X68313609Y-106574691D01*
X68854268Y-106935948D01*
X69314052Y-107395732D01*
X69675309Y-107936391D01*
X69924145Y-108537135D01*
X70051000Y-109174878D01*
X70051000Y-109825122D01*
X69924145Y-110462865D01*
X69856504Y-110626165D01*
X69849391Y-110649614D01*
X69846989Y-110674000D01*
X69849391Y-110698386D01*
X69856504Y-110721835D01*
X69868055Y-110743446D01*
X69883601Y-110762388D01*
X69902543Y-110777934D01*
X69924154Y-110789485D01*
X69947603Y-110796598D01*
X69971989Y-110799000D01*
X71851000Y-110799000D01*
X71851000Y-112701000D01*
X71846666Y-112701000D01*
X71822280Y-112703402D01*
X71798831Y-112710515D01*
X71777220Y-112722066D01*
X71758278Y-112737612D01*
X71751067Y-112746398D01*
X71750000Y-112747111D01*
X71750000Y-112750000D01*
X67343827Y-112750000D01*
X67319441Y-112752402D01*
X67075122Y-112801000D01*
X66424878Y-112801000D01*
X66180559Y-112752402D01*
X66156173Y-112750000D01*
X59343827Y-112750000D01*
X59319441Y-112752402D01*
X59075122Y-112801000D01*
X58424878Y-112801000D01*
X58180559Y-112752402D01*
X58156173Y-112750000D01*
X55250000Y-112750000D01*
X55250000Y-111500000D01*
X55882419Y-111500000D01*
X55906805Y-111497598D01*
X55930254Y-111490485D01*
X55951865Y-111478934D01*
X55970807Y-111463388D01*
X55986353Y-111444446D01*
X55997904Y-111422835D01*
X56005017Y-111399386D01*
X56007419Y-111375000D01*
X56005017Y-111350614D01*
X55997904Y-111327165D01*
X55986353Y-111305554D01*
X55824691Y-111063609D01*
X55575855Y-110462865D01*
X55449000Y-109825122D01*
X55449000Y-109174878D01*
X55575855Y-108537135D01*
X55824691Y-107936391D01*
X56185948Y-107395732D01*
X56645732Y-106935948D01*
X57186391Y-106574691D01*
X57787135Y-106325855D01*
X58424878Y-106199000D01*
X59075122Y-106199000D01*
X59712865Y-106325855D01*
X59712865Y-106325855D01*
G37*
G36*
X82962865Y-106325855D02*
X83563609Y-106574691D01*
X84104268Y-106935948D01*
X84564052Y-107395732D01*
X84925309Y-107936391D01*
X85174145Y-108537135D01*
X85301000Y-109174878D01*
X85301000Y-109825122D01*
X85174145Y-110462865D01*
X84925309Y-111063609D01*
X84763647Y-111305554D01*
X84752096Y-111327165D01*
X84744983Y-111350614D01*
X84742581Y-111375000D01*
X84744983Y-111399386D01*
X84752096Y-111422836D01*
X84763647Y-111444446D01*
X84779193Y-111463388D01*
X84798135Y-111478934D01*
X84819746Y-111490485D01*
X84843195Y-111497598D01*
X84867581Y-111500000D01*
X87382419Y-111500000D01*
X87406805Y-111497598D01*
X87430254Y-111490485D01*
X87451865Y-111478934D01*
X87470807Y-111463388D01*
X87486353Y-111444446D01*
X87497904Y-111422835D01*
X87505017Y-111399386D01*
X87507419Y-111375000D01*
X87505017Y-111350614D01*
X87497904Y-111327165D01*
X87486353Y-111305554D01*
X87324691Y-111063609D01*
X87075855Y-110462865D01*
X86949000Y-109825122D01*
X86949000Y-109174878D01*
X87075855Y-108537135D01*
X87324691Y-107936391D01*
X87685948Y-107395732D01*
X88145732Y-106935948D01*
X88686391Y-106574691D01*
X89287135Y-106325855D01*
X89924878Y-106199000D01*
X90575122Y-106199000D01*
X91212865Y-106325855D01*
X91813609Y-106574691D01*
X92354268Y-106935948D01*
X92814052Y-107395732D01*
X93175309Y-107936391D01*
X93424145Y-108537135D01*
X93551000Y-109174878D01*
X93551000Y-109825122D01*
X93424145Y-110462865D01*
X93175309Y-111063609D01*
X93013647Y-111305554D01*
X93002096Y-111327165D01*
X92994983Y-111350614D01*
X92992581Y-111375000D01*
X92994983Y-111399386D01*
X93002096Y-111422836D01*
X93013647Y-111444446D01*
X93029193Y-111463388D01*
X93048135Y-111478934D01*
X93069746Y-111490485D01*
X93093195Y-111497598D01*
X93117581Y-111500000D01*
X94624000Y-111500000D01*
X94648386Y-111497598D01*
X94671835Y-111490485D01*
X94693446Y-111478934D01*
X94712388Y-111463388D01*
X94727934Y-111444446D01*
X94739485Y-111422835D01*
X94746598Y-111399386D01*
X94749000Y-111375000D01*
X94749000Y-110799000D01*
X97351000Y-110799000D01*
X97351000Y-112701000D01*
X97346666Y-112701000D01*
X97322280Y-112703402D01*
X97298831Y-112710515D01*
X97277220Y-112722066D01*
X97258278Y-112737612D01*
X97251067Y-112746398D01*
X97250000Y-112747111D01*
X97250000Y-112750000D01*
X90843827Y-112750000D01*
X90819441Y-112752402D01*
X90575122Y-112801000D01*
X89924878Y-112801000D01*
X89680559Y-112752402D01*
X89656173Y-112750000D01*
X82593827Y-112750000D01*
X82569441Y-112752402D01*
X82325122Y-112801000D01*
X81674878Y-112801000D01*
X81430559Y-112752402D01*
X81406173Y-112750000D01*
X78750000Y-112750000D01*
X78750000Y-111500000D01*
X79132419Y-111500000D01*
X79156805Y-111497598D01*
X79180254Y-111490485D01*
X79201865Y-111478934D01*
X79220807Y-111463388D01*
X79236353Y-111444446D01*
X79247904Y-111422835D01*
X79255017Y-111399386D01*
X79257419Y-111375000D01*
X79255017Y-111350614D01*
X79247904Y-111327165D01*
X79236353Y-111305554D01*
X79074691Y-111063609D01*
X78825855Y-110462865D01*
X78699000Y-109825122D01*
X78699000Y-109174878D01*
X78825855Y-108537135D01*
X79074691Y-107936391D01*
X79435948Y-107395732D01*
X79895732Y-106935948D01*
X80436391Y-106574691D01*
X81037135Y-106325855D01*
X81674878Y-106199000D01*
X82325122Y-106199000D01*
X82962865Y-106325855D01*
X82962865Y-106325855D01*
G37*
G36*
X102851000Y-112301000D02*
X100249000Y-112301000D01*
X100249000Y-111199000D01*
X102851000Y-111199000D01*
X102851000Y-112301000D01*
X102851000Y-112301000D01*
G37*
G36*
X77351000Y-112301000D02*
X74749000Y-112301000D01*
X74749000Y-111199000D01*
X77351000Y-111199000D01*
X77351000Y-112301000D01*
X77351000Y-112301000D01*
G37*
G36*
X121151000Y-111581000D02*
X119849000Y-111581000D01*
X119849000Y-110479000D01*
X121151000Y-110479000D01*
X121151000Y-111581000D01*
X121151000Y-111581000D01*
G37*
G36*
X138621000Y-111411000D02*
X137609000Y-111411000D01*
X137609000Y-110089000D01*
X138621000Y-110089000D01*
X138621000Y-111411000D01*
X138621000Y-111411000D01*
G37*
G36*
X141891000Y-111411000D02*
X140879000Y-111411000D01*
X140879000Y-110089000D01*
X141891000Y-110089000D01*
X141891000Y-111411000D01*
X141891000Y-111411000D01*
G37*
G36*
X115601000Y-111401000D02*
X114499000Y-111401000D01*
X114499000Y-110099000D01*
X115601000Y-110099000D01*
X115601000Y-111401000D01*
X115601000Y-111401000D01*
G37*
G36*
X117481000Y-111401000D02*
X116379000Y-111401000D01*
X116379000Y-110099000D01*
X117481000Y-110099000D01*
X117481000Y-111401000D01*
X117481000Y-111401000D01*
G37*
G36*
X73801000Y-111001000D02*
X72699000Y-111001000D01*
X72699000Y-108899000D01*
X73801000Y-108899000D01*
X73801000Y-111001000D01*
X73801000Y-111001000D01*
G37*
G36*
X99301000Y-111001000D02*
X98199000Y-111001000D01*
X98199000Y-108899000D01*
X99301000Y-108899000D01*
X99301000Y-111001000D01*
X99301000Y-111001000D01*
G37*
G36*
X121151000Y-110021000D02*
X119849000Y-110021000D01*
X119849000Y-108919000D01*
X121151000Y-108919000D01*
X121151000Y-110021000D01*
X121151000Y-110021000D01*
G37*
G36*
X134401000Y-109831000D02*
X133099000Y-109831000D01*
X133099000Y-108729000D01*
X134401000Y-108729000D01*
X134401000Y-109831000D01*
X134401000Y-109831000D01*
G37*
G36*
X136151000Y-109831000D02*
X134849000Y-109831000D01*
X134849000Y-108729000D01*
X136151000Y-108729000D01*
X136151000Y-109831000D01*
X136151000Y-109831000D01*
G37*
G36*
X132651000Y-109831000D02*
X131349000Y-109831000D01*
X131349000Y-108729000D01*
X132651000Y-108729000D01*
X132651000Y-109831000D01*
X132651000Y-109831000D01*
G37*
G36*
X142651000Y-109251000D02*
X141349000Y-109251000D01*
X141349000Y-108149000D01*
X142651000Y-108149000D01*
X142651000Y-109251000D01*
X142651000Y-109251000D01*
G37*
G36*
X139911000Y-108641000D02*
X138589000Y-108641000D01*
X138589000Y-107629000D01*
X139911000Y-107629000D01*
X139911000Y-108641000D01*
X139911000Y-108641000D01*
G37*
G36*
X120901050Y-108451810D02*
X119998950Y-108451810D01*
X119998950Y-107549710D01*
X120901050Y-107549710D01*
X120901050Y-108451810D01*
X120901050Y-108451810D01*
G37*
G36*
X119001050Y-108451810D02*
X118098950Y-108451810D01*
X118098950Y-107549710D01*
X119001050Y-107549710D01*
X119001050Y-108451810D01*
X119001050Y-108451810D01*
G37*
G36*
X126851000Y-108351000D02*
X126149000Y-108351000D01*
X126149000Y-106749000D01*
X126851000Y-106749000D01*
X126851000Y-108351000D01*
X126851000Y-108351000D01*
G37*
G36*
X123041000Y-108351000D02*
X122339000Y-108351000D01*
X122339000Y-106749000D01*
X123041000Y-106749000D01*
X123041000Y-108351000D01*
X123041000Y-108351000D01*
G37*
G36*
X124311000Y-108351000D02*
X123609000Y-108351000D01*
X123609000Y-106749000D01*
X124311000Y-106749000D01*
X124311000Y-108351000D01*
X124311000Y-108351000D01*
G37*
G36*
X125581000Y-108351000D02*
X124879000Y-108351000D01*
X124879000Y-106749000D01*
X125581000Y-106749000D01*
X125581000Y-108351000D01*
X125581000Y-108351000D01*
G37*
G36*
X130661000Y-108351000D02*
X129959000Y-108351000D01*
X129959000Y-106749000D01*
X130661000Y-106749000D01*
X130661000Y-108351000D01*
X130661000Y-108351000D01*
G37*
G36*
X129391000Y-108351000D02*
X128689000Y-108351000D01*
X128689000Y-106749000D01*
X129391000Y-106749000D01*
X129391000Y-108351000D01*
X129391000Y-108351000D01*
G37*
G36*
X128121000Y-108351000D02*
X127419000Y-108351000D01*
X127419000Y-106749000D01*
X128121000Y-106749000D01*
X128121000Y-108351000D01*
X128121000Y-108351000D01*
G37*
G36*
X136151000Y-108271000D02*
X134849000Y-108271000D01*
X134849000Y-107169000D01*
X136151000Y-107169000D01*
X136151000Y-108271000D01*
X136151000Y-108271000D01*
G37*
G36*
X134401000Y-108271000D02*
X133099000Y-108271000D01*
X133099000Y-107169000D01*
X134401000Y-107169000D01*
X134401000Y-108271000D01*
X134401000Y-108271000D01*
G37*
G36*
X132651000Y-108271000D02*
X131349000Y-108271000D01*
X131349000Y-107169000D01*
X132651000Y-107169000D01*
X132651000Y-108271000D01*
X132651000Y-108271000D01*
G37*
G36*
X142651000Y-107371000D02*
X141349000Y-107371000D01*
X141349000Y-106269000D01*
X142651000Y-106269000D01*
X142651000Y-107371000D01*
X142651000Y-107371000D01*
G37*
G36*
X119951050Y-106452830D02*
X119048950Y-106452830D01*
X119048950Y-105550730D01*
X119951050Y-105550730D01*
X119951050Y-106452830D01*
X119951050Y-106452830D01*
G37*
G36*
X139911000Y-105371000D02*
X138589000Y-105371000D01*
X138589000Y-104359000D01*
X139911000Y-104359000D01*
X139911000Y-105371000D01*
X139911000Y-105371000D01*
G37*
G36*
X119237142Y-103298242D02*
X119385102Y-103359530D01*
X119518258Y-103448502D01*
X119631498Y-103561742D01*
X119720470Y-103694898D01*
X119781758Y-103842858D01*
X119813000Y-103999925D01*
X119813000Y-104160075D01*
X119781758Y-104317142D01*
X119720470Y-104465102D01*
X119631498Y-104598258D01*
X119518258Y-104711498D01*
X119385102Y-104800470D01*
X119237142Y-104861758D01*
X119080075Y-104893000D01*
X118919925Y-104893000D01*
X118762858Y-104861758D01*
X118614898Y-104800470D01*
X118481742Y-104711498D01*
X118368502Y-104598258D01*
X118279530Y-104465102D01*
X118218242Y-104317142D01*
X118187000Y-104160075D01*
X118187000Y-103999925D01*
X118218242Y-103842858D01*
X118279530Y-103694898D01*
X118368502Y-103561742D01*
X118481742Y-103448502D01*
X118614898Y-103359530D01*
X118762858Y-103298242D01*
X118919925Y-103267000D01*
X119080075Y-103267000D01*
X119237142Y-103298242D01*
X119237142Y-103298242D01*
G37*
G36*
X121777142Y-103298242D02*
X121925102Y-103359530D01*
X122058258Y-103448502D01*
X122171498Y-103561742D01*
X122260470Y-103694898D01*
X122321758Y-103842858D01*
X122353000Y-103999925D01*
X122353000Y-104160075D01*
X122321758Y-104317142D01*
X122260470Y-104465102D01*
X122171498Y-104598258D01*
X122058258Y-104711498D01*
X121925102Y-104800470D01*
X121777142Y-104861758D01*
X121620075Y-104893000D01*
X121459925Y-104893000D01*
X121302858Y-104861758D01*
X121154898Y-104800470D01*
X121021742Y-104711498D01*
X120908502Y-104598258D01*
X120819530Y-104465102D01*
X120758242Y-104317142D01*
X120727000Y-104160075D01*
X120727000Y-103999925D01*
X120758242Y-103842858D01*
X120819530Y-103694898D01*
X120908502Y-103561742D01*
X121021742Y-103448502D01*
X121154898Y-103359530D01*
X121302858Y-103298242D01*
X121459925Y-103267000D01*
X121620075Y-103267000D01*
X121777142Y-103298242D01*
X121777142Y-103298242D01*
G37*
G36*
X129397142Y-103298242D02*
X129545102Y-103359530D01*
X129678258Y-103448502D01*
X129791498Y-103561742D01*
X129880470Y-103694898D01*
X129941758Y-103842858D01*
X129973000Y-103999925D01*
X129973000Y-104160075D01*
X129941758Y-104317142D01*
X129880470Y-104465102D01*
X129791498Y-104598258D01*
X129678258Y-104711498D01*
X129545102Y-104800470D01*
X129397142Y-104861758D01*
X129240075Y-104893000D01*
X129079925Y-104893000D01*
X128922858Y-104861758D01*
X128774898Y-104800470D01*
X128641742Y-104711498D01*
X128528502Y-104598258D01*
X128439530Y-104465102D01*
X128378242Y-104317142D01*
X128347000Y-104160075D01*
X128347000Y-103999925D01*
X128378242Y-103842858D01*
X128439530Y-103694898D01*
X128528502Y-103561742D01*
X128641742Y-103448502D01*
X128774898Y-103359530D01*
X128922858Y-103298242D01*
X129079925Y-103267000D01*
X129240075Y-103267000D01*
X129397142Y-103298242D01*
X129397142Y-103298242D01*
G37*
G36*
X124161000Y-103641000D02*
X122839000Y-103641000D01*
X122839000Y-102629000D01*
X124161000Y-102629000D01*
X124161000Y-103641000D01*
X124161000Y-103641000D01*
G37*
G36*
X105657025Y-99710590D02*
X105808012Y-99756392D01*
X105947165Y-99830770D01*
X106069133Y-99930867D01*
X106169230Y-100052835D01*
X106243608Y-100191988D01*
X106289410Y-100342975D01*
X106301000Y-100460654D01*
X106301000Y-101539346D01*
X106289410Y-101657025D01*
X106243608Y-101808012D01*
X106169230Y-101947165D01*
X106069136Y-102069130D01*
X106069134Y-102069131D01*
X106069133Y-102069133D01*
X106069129Y-102069136D01*
X105947161Y-102169232D01*
X105808011Y-102243608D01*
X105657024Y-102289410D01*
X105500000Y-102304875D01*
X105342975Y-102289410D01*
X105191988Y-102243608D01*
X105052835Y-102169230D01*
X104930870Y-102069136D01*
X104930869Y-102069134D01*
X104930867Y-102069133D01*
X104860222Y-101983051D01*
X104830768Y-101947161D01*
X104756392Y-101808011D01*
X104710590Y-101657024D01*
X104699000Y-101539345D01*
X104699001Y-100460654D01*
X104710591Y-100342975D01*
X104756393Y-100191988D01*
X104830771Y-100052835D01*
X104930868Y-99930867D01*
X105052836Y-99830770D01*
X105191989Y-99756392D01*
X105342976Y-99710590D01*
X105500000Y-99695125D01*
X105657025Y-99710590D01*
X105657025Y-99710590D01*
G37*
G36*
X115657025Y-99710590D02*
X115808012Y-99756392D01*
X115947165Y-99830770D01*
X116069133Y-99930867D01*
X116169230Y-100052835D01*
X116243608Y-100191988D01*
X116289410Y-100342975D01*
X116301000Y-100460654D01*
X116301000Y-101539346D01*
X116289410Y-101657025D01*
X116243608Y-101808012D01*
X116169230Y-101947165D01*
X116069136Y-102069130D01*
X116069134Y-102069131D01*
X116069133Y-102069133D01*
X116069129Y-102069136D01*
X115947161Y-102169232D01*
X115808011Y-102243608D01*
X115657024Y-102289410D01*
X115500000Y-102304875D01*
X115342975Y-102289410D01*
X115191988Y-102243608D01*
X115052835Y-102169230D01*
X114930870Y-102069136D01*
X114930869Y-102069134D01*
X114930867Y-102069133D01*
X114860222Y-101983051D01*
X114830768Y-101947161D01*
X114756392Y-101808011D01*
X114710590Y-101657024D01*
X114699000Y-101539345D01*
X114699001Y-100460654D01*
X114710591Y-100342975D01*
X114756393Y-100191988D01*
X114830771Y-100052835D01*
X114930868Y-99930867D01*
X115052836Y-99830770D01*
X115191989Y-99756392D01*
X115342976Y-99710590D01*
X115500000Y-99695125D01*
X115657025Y-99710590D01*
X115657025Y-99710590D01*
G37*
G36*
X108157025Y-99710590D02*
X108308012Y-99756392D01*
X108447165Y-99830770D01*
X108569133Y-99930867D01*
X108669230Y-100052835D01*
X108743608Y-100191988D01*
X108789410Y-100342975D01*
X108801000Y-100460654D01*
X108801000Y-101539346D01*
X108789410Y-101657025D01*
X108743608Y-101808012D01*
X108669230Y-101947165D01*
X108569136Y-102069130D01*
X108569134Y-102069131D01*
X108569133Y-102069133D01*
X108569129Y-102069136D01*
X108447161Y-102169232D01*
X108308011Y-102243608D01*
X108157024Y-102289410D01*
X108000000Y-102304875D01*
X107842975Y-102289410D01*
X107691988Y-102243608D01*
X107552835Y-102169230D01*
X107430870Y-102069136D01*
X107430869Y-102069134D01*
X107430867Y-102069133D01*
X107360222Y-101983051D01*
X107330768Y-101947161D01*
X107256392Y-101808011D01*
X107210590Y-101657024D01*
X107199000Y-101539345D01*
X107199001Y-100460654D01*
X107210591Y-100342975D01*
X107256393Y-100191988D01*
X107330771Y-100052835D01*
X107430868Y-99930867D01*
X107552836Y-99830770D01*
X107691989Y-99756392D01*
X107842976Y-99710590D01*
X108000000Y-99695125D01*
X108157025Y-99710590D01*
X108157025Y-99710590D01*
G37*
G36*
X113157025Y-99710590D02*
X113308012Y-99756392D01*
X113447165Y-99830770D01*
X113569133Y-99930867D01*
X113669230Y-100052835D01*
X113743608Y-100191988D01*
X113789410Y-100342975D01*
X113801000Y-100460654D01*
X113801000Y-101539346D01*
X113789410Y-101657025D01*
X113743608Y-101808012D01*
X113669230Y-101947165D01*
X113569136Y-102069130D01*
X113569134Y-102069131D01*
X113569133Y-102069133D01*
X113569129Y-102069136D01*
X113447161Y-102169232D01*
X113308011Y-102243608D01*
X113157024Y-102289410D01*
X113000000Y-102304875D01*
X112842975Y-102289410D01*
X112691988Y-102243608D01*
X112552835Y-102169230D01*
X112430870Y-102069136D01*
X112430869Y-102069134D01*
X112430867Y-102069133D01*
X112360222Y-101983051D01*
X112330768Y-101947161D01*
X112256392Y-101808011D01*
X112210590Y-101657024D01*
X112199000Y-101539345D01*
X112199001Y-100460654D01*
X112210591Y-100342975D01*
X112256393Y-100191988D01*
X112330771Y-100052835D01*
X112430868Y-99930867D01*
X112552836Y-99830770D01*
X112691989Y-99756392D01*
X112842976Y-99710590D01*
X113000000Y-99695125D01*
X113157025Y-99710590D01*
X113157025Y-99710590D01*
G37*
G36*
X124161000Y-100371000D02*
X122839000Y-100371000D01*
X122839000Y-99359000D01*
X124161000Y-99359000D01*
X124161000Y-100371000D01*
X124161000Y-100371000D01*
G37*
G36*
X121777142Y-98218242D02*
X121925102Y-98279530D01*
X122058258Y-98368502D01*
X122171498Y-98481742D01*
X122260470Y-98614898D01*
X122321758Y-98762858D01*
X122353000Y-98919925D01*
X122353000Y-99080075D01*
X122321758Y-99237142D01*
X122260470Y-99385102D01*
X122171498Y-99518258D01*
X122058258Y-99631498D01*
X121925102Y-99720470D01*
X121777142Y-99781758D01*
X121620075Y-99813000D01*
X121459925Y-99813000D01*
X121302858Y-99781758D01*
X121154898Y-99720470D01*
X121021742Y-99631498D01*
X120908502Y-99518258D01*
X120819530Y-99385102D01*
X120758242Y-99237142D01*
X120727000Y-99080075D01*
X120727000Y-98919925D01*
X120758242Y-98762858D01*
X120819530Y-98614898D01*
X120908502Y-98481742D01*
X121021742Y-98368502D01*
X121154898Y-98279530D01*
X121302858Y-98218242D01*
X121459925Y-98187000D01*
X121620075Y-98187000D01*
X121777142Y-98218242D01*
X121777142Y-98218242D01*
G37*
G36*
X129397142Y-98218242D02*
X129545102Y-98279530D01*
X129678258Y-98368502D01*
X129791498Y-98481742D01*
X129880470Y-98614898D01*
X129941758Y-98762858D01*
X129973000Y-98919925D01*
X129973000Y-99080075D01*
X129941758Y-99237142D01*
X129880470Y-99385102D01*
X129791498Y-99518258D01*
X129678258Y-99631498D01*
X129545102Y-99720470D01*
X129397142Y-99781758D01*
X129240075Y-99813000D01*
X129079925Y-99813000D01*
X128922858Y-99781758D01*
X128774898Y-99720470D01*
X128641742Y-99631498D01*
X128528502Y-99518258D01*
X128439530Y-99385102D01*
X128378242Y-99237142D01*
X128347000Y-99080075D01*
X128347000Y-98919925D01*
X128378242Y-98762858D01*
X128439530Y-98614898D01*
X128528502Y-98481742D01*
X128641742Y-98368502D01*
X128774898Y-98279530D01*
X128922858Y-98218242D01*
X129079925Y-98187000D01*
X129240075Y-98187000D01*
X129397142Y-98218242D01*
X129397142Y-98218242D01*
G37*
G36*
X119237142Y-98218242D02*
X119385102Y-98279530D01*
X119518258Y-98368502D01*
X119631498Y-98481742D01*
X119720470Y-98614898D01*
X119781758Y-98762858D01*
X119813000Y-98919925D01*
X119813000Y-99080075D01*
X119781758Y-99237142D01*
X119720470Y-99385102D01*
X119631498Y-99518258D01*
X119518258Y-99631498D01*
X119385102Y-99720470D01*
X119237142Y-99781758D01*
X119080075Y-99813000D01*
X118919925Y-99813000D01*
X118762858Y-99781758D01*
X118614898Y-99720470D01*
X118481742Y-99631498D01*
X118368502Y-99518258D01*
X118279530Y-99385102D01*
X118218242Y-99237142D01*
X118187000Y-99080075D01*
X118187000Y-98919925D01*
X118218242Y-98762858D01*
X118279530Y-98614898D01*
X118368502Y-98481742D01*
X118481742Y-98368502D01*
X118614898Y-98279530D01*
X118762858Y-98218242D01*
X118919925Y-98187000D01*
X119080075Y-98187000D01*
X119237142Y-98218242D01*
X119237142Y-98218242D01*
G37*
M02*
