G04 #@! TF.GenerationSoftware,KiCad,Pcbnew,(5.0.2)-1*
G04 #@! TF.CreationDate,2019-05-03T12:12:17+09:00*
G04 #@! TF.ProjectId,Electrocity_Manager,456c6563-7472-46f6-9369-74795f4d616e,rev?*
G04 #@! TF.SameCoordinates,Original*
G04 #@! TF.FileFunction,Soldermask,Top*
G04 #@! TF.FilePolarity,Negative*
%FSLAX46Y46*%
G04 Gerber Fmt 4.6, Leading zero omitted, Abs format (unit mm)*
G04 Created by KiCad (PCBNEW (5.0.2)-1) date 2019/05/03 12:12:17*
%MOMM*%
%LPD*%
G01*
G04 APERTURE LIST*
%ADD10C,0.100000*%
G04 APERTURE END LIST*
D10*
G36*
X118489485Y-170908996D02*
X118489487Y-170908997D01*
X118489488Y-170908997D01*
X118590892Y-170951000D01*
X118726255Y-171007069D01*
X118939342Y-171149449D01*
X119120551Y-171330658D01*
X119262931Y-171543745D01*
X119361004Y-171780515D01*
X119411000Y-172031861D01*
X119411000Y-172288139D01*
X119385179Y-172417951D01*
X119361003Y-172539488D01*
X119295691Y-172697165D01*
X119262931Y-172776255D01*
X119120551Y-172989342D01*
X118939342Y-173170551D01*
X118939339Y-173170553D01*
X118726255Y-173312931D01*
X118489488Y-173411003D01*
X118489487Y-173411003D01*
X118489485Y-173411004D01*
X118238139Y-173461000D01*
X117981861Y-173461000D01*
X117730515Y-173411004D01*
X117730513Y-173411003D01*
X117730512Y-173411003D01*
X117493745Y-173312931D01*
X117280661Y-173170553D01*
X117280658Y-173170551D01*
X117099449Y-172989342D01*
X116957069Y-172776255D01*
X116924309Y-172697165D01*
X116858997Y-172539488D01*
X116834822Y-172417951D01*
X116809000Y-172288139D01*
X116809000Y-172031861D01*
X116858996Y-171780515D01*
X116957069Y-171543745D01*
X117099449Y-171330658D01*
X117280658Y-171149449D01*
X117493745Y-171007069D01*
X117629108Y-170951000D01*
X117730512Y-170908997D01*
X117730513Y-170908997D01*
X117730515Y-170908996D01*
X117981861Y-170859000D01*
X118238139Y-170859000D01*
X118489485Y-170908996D01*
X118489485Y-170908996D01*
G37*
G36*
X124204472Y-172075938D02*
X124332049Y-172128782D01*
X124446865Y-172205500D01*
X124544500Y-172303135D01*
X124621218Y-172417951D01*
X124674062Y-172545528D01*
X124701000Y-172680956D01*
X124701000Y-172819044D01*
X124674062Y-172954472D01*
X124621218Y-173082049D01*
X124544500Y-173196865D01*
X124446865Y-173294500D01*
X124332049Y-173371218D01*
X124204472Y-173424062D01*
X124069044Y-173451000D01*
X123930956Y-173451000D01*
X123795528Y-173424062D01*
X123667951Y-173371218D01*
X123553135Y-173294500D01*
X123455500Y-173196865D01*
X123378782Y-173082049D01*
X123325938Y-172954472D01*
X123299000Y-172819044D01*
X123299000Y-172680956D01*
X123325938Y-172545528D01*
X123378782Y-172417951D01*
X123455500Y-172303135D01*
X123553135Y-172205500D01*
X123667951Y-172128782D01*
X123795528Y-172075938D01*
X123930956Y-172049000D01*
X124069044Y-172049000D01*
X124204472Y-172075938D01*
X124204472Y-172075938D01*
G37*
G36*
X66454472Y-172075938D02*
X66582049Y-172128782D01*
X66696865Y-172205500D01*
X66794500Y-172303135D01*
X66871218Y-172417951D01*
X66924062Y-172545528D01*
X66951000Y-172680956D01*
X66951000Y-172819044D01*
X66924062Y-172954472D01*
X66871218Y-173082049D01*
X66794500Y-173196865D01*
X66696865Y-173294500D01*
X66582049Y-173371218D01*
X66454472Y-173424062D01*
X66319044Y-173451000D01*
X66180956Y-173451000D01*
X66045528Y-173424062D01*
X65917951Y-173371218D01*
X65803135Y-173294500D01*
X65705500Y-173196865D01*
X65628782Y-173082049D01*
X65575938Y-172954472D01*
X65549000Y-172819044D01*
X65549000Y-172680956D01*
X65575938Y-172545528D01*
X65628782Y-172417951D01*
X65705500Y-172303135D01*
X65803135Y-172205500D01*
X65917951Y-172128782D01*
X66045528Y-172075938D01*
X66180956Y-172049000D01*
X66319044Y-172049000D01*
X66454472Y-172075938D01*
X66454472Y-172075938D01*
G37*
G36*
X137657024Y-170460590D02*
X137808011Y-170506392D01*
X137947161Y-170580768D01*
X138007822Y-170630551D01*
X138069133Y-170680867D01*
X138069134Y-170680869D01*
X138069136Y-170680870D01*
X138169230Y-170802835D01*
X138243608Y-170941988D01*
X138289410Y-171092975D01*
X138301000Y-171210654D01*
X138301000Y-172289346D01*
X138289410Y-172407025D01*
X138243608Y-172558012D01*
X138169230Y-172697165D01*
X138069133Y-172819133D01*
X137947165Y-172919230D01*
X137808012Y-172993608D01*
X137657025Y-173039410D01*
X137500000Y-173054875D01*
X137342976Y-173039410D01*
X137191989Y-172993608D01*
X137052836Y-172919230D01*
X136930868Y-172819133D01*
X136830771Y-172697165D01*
X136756393Y-172558012D01*
X136710591Y-172407025D01*
X136699001Y-172289346D01*
X136699000Y-171210655D01*
X136710590Y-171092976D01*
X136756392Y-170941989D01*
X136830768Y-170802839D01*
X136930865Y-170680870D01*
X136930867Y-170680867D01*
X136930869Y-170680866D01*
X136930870Y-170680864D01*
X137052835Y-170580770D01*
X137191988Y-170506392D01*
X137342975Y-170460590D01*
X137500000Y-170445125D01*
X137657024Y-170460590D01*
X137657024Y-170460590D01*
G37*
G36*
X59407025Y-170460590D02*
X59558012Y-170506392D01*
X59697165Y-170580770D01*
X59819133Y-170680867D01*
X59919230Y-170802835D01*
X59993608Y-170941988D01*
X60039410Y-171092975D01*
X60051000Y-171210654D01*
X60051000Y-172289346D01*
X60039410Y-172407025D01*
X59993608Y-172558012D01*
X59919230Y-172697165D01*
X59819136Y-172819130D01*
X59819134Y-172819131D01*
X59819133Y-172819133D01*
X59819129Y-172819136D01*
X59697161Y-172919232D01*
X59558011Y-172993608D01*
X59407024Y-173039410D01*
X59250000Y-173054875D01*
X59092975Y-173039410D01*
X58941988Y-172993608D01*
X58802835Y-172919230D01*
X58680870Y-172819136D01*
X58680869Y-172819134D01*
X58680867Y-172819133D01*
X58630819Y-172758148D01*
X58580768Y-172697161D01*
X58506392Y-172558011D01*
X58460590Y-172407024D01*
X58449000Y-172289345D01*
X58449001Y-171210654D01*
X58460591Y-171092975D01*
X58506393Y-170941988D01*
X58580771Y-170802835D01*
X58680868Y-170680867D01*
X58802836Y-170580770D01*
X58941989Y-170506392D01*
X59092976Y-170460590D01*
X59250000Y-170445125D01*
X59407025Y-170460590D01*
X59407025Y-170460590D01*
G37*
G36*
X56907025Y-170460590D02*
X57058012Y-170506392D01*
X57197165Y-170580770D01*
X57319133Y-170680867D01*
X57419230Y-170802835D01*
X57493608Y-170941988D01*
X57539410Y-171092975D01*
X57551000Y-171210654D01*
X57551000Y-172289346D01*
X57539410Y-172407025D01*
X57493608Y-172558012D01*
X57419230Y-172697165D01*
X57319136Y-172819130D01*
X57319134Y-172819131D01*
X57319133Y-172819133D01*
X57319129Y-172819136D01*
X57197161Y-172919232D01*
X57058011Y-172993608D01*
X56907024Y-173039410D01*
X56750000Y-173054875D01*
X56592975Y-173039410D01*
X56441988Y-172993608D01*
X56302835Y-172919230D01*
X56180870Y-172819136D01*
X56180869Y-172819134D01*
X56180867Y-172819133D01*
X56130819Y-172758148D01*
X56080768Y-172697161D01*
X56006392Y-172558011D01*
X55960590Y-172407024D01*
X55949000Y-172289345D01*
X55949001Y-171210654D01*
X55960591Y-171092975D01*
X56006393Y-170941988D01*
X56080771Y-170802835D01*
X56180868Y-170680867D01*
X56302836Y-170580770D01*
X56441989Y-170506392D01*
X56592976Y-170460590D01*
X56750000Y-170445125D01*
X56907025Y-170460590D01*
X56907025Y-170460590D01*
G37*
G36*
X132657024Y-170460590D02*
X132808011Y-170506392D01*
X132947161Y-170580768D01*
X133007822Y-170630551D01*
X133069133Y-170680867D01*
X133069134Y-170680869D01*
X133069136Y-170680870D01*
X133169230Y-170802835D01*
X133243608Y-170941988D01*
X133289410Y-171092975D01*
X133301000Y-171210654D01*
X133301000Y-172289346D01*
X133289410Y-172407025D01*
X133243608Y-172558012D01*
X133169230Y-172697165D01*
X133069133Y-172819133D01*
X132947165Y-172919230D01*
X132808012Y-172993608D01*
X132657025Y-173039410D01*
X132500000Y-173054875D01*
X132342976Y-173039410D01*
X132191989Y-172993608D01*
X132052836Y-172919230D01*
X131930868Y-172819133D01*
X131830771Y-172697165D01*
X131756393Y-172558012D01*
X131710591Y-172407025D01*
X131699001Y-172289346D01*
X131699000Y-171210655D01*
X131710590Y-171092976D01*
X131756392Y-170941989D01*
X131830768Y-170802839D01*
X131930865Y-170680870D01*
X131930867Y-170680867D01*
X131930869Y-170680866D01*
X131930870Y-170680864D01*
X132052835Y-170580770D01*
X132191988Y-170506392D01*
X132342975Y-170460590D01*
X132500000Y-170445125D01*
X132657024Y-170460590D01*
X132657024Y-170460590D01*
G37*
G36*
X130157024Y-170460590D02*
X130308011Y-170506392D01*
X130447161Y-170580768D01*
X130507822Y-170630551D01*
X130569133Y-170680867D01*
X130569134Y-170680869D01*
X130569136Y-170680870D01*
X130669230Y-170802835D01*
X130743608Y-170941988D01*
X130789410Y-171092975D01*
X130801000Y-171210654D01*
X130801000Y-172289346D01*
X130789410Y-172407025D01*
X130743608Y-172558012D01*
X130669230Y-172697165D01*
X130569133Y-172819133D01*
X130447165Y-172919230D01*
X130308012Y-172993608D01*
X130157025Y-173039410D01*
X130000000Y-173054875D01*
X129842976Y-173039410D01*
X129691989Y-172993608D01*
X129552836Y-172919230D01*
X129430868Y-172819133D01*
X129330771Y-172697165D01*
X129256393Y-172558012D01*
X129210591Y-172407025D01*
X129199001Y-172289346D01*
X129199000Y-171210655D01*
X129210590Y-171092976D01*
X129256392Y-170941989D01*
X129330768Y-170802839D01*
X129430865Y-170680870D01*
X129430867Y-170680867D01*
X129430869Y-170680866D01*
X129430870Y-170680864D01*
X129552835Y-170580770D01*
X129691988Y-170506392D01*
X129842975Y-170460590D01*
X130000000Y-170445125D01*
X130157024Y-170460590D01*
X130157024Y-170460590D01*
G37*
G36*
X135157024Y-170460590D02*
X135308011Y-170506392D01*
X135447161Y-170580768D01*
X135507822Y-170630551D01*
X135569133Y-170680867D01*
X135569134Y-170680869D01*
X135569136Y-170680870D01*
X135669230Y-170802835D01*
X135743608Y-170941988D01*
X135789410Y-171092975D01*
X135801000Y-171210654D01*
X135801000Y-172289346D01*
X135789410Y-172407025D01*
X135743608Y-172558012D01*
X135669230Y-172697165D01*
X135569133Y-172819133D01*
X135447165Y-172919230D01*
X135308012Y-172993608D01*
X135157025Y-173039410D01*
X135000000Y-173054875D01*
X134842976Y-173039410D01*
X134691989Y-172993608D01*
X134552836Y-172919230D01*
X134430868Y-172819133D01*
X134330771Y-172697165D01*
X134256393Y-172558012D01*
X134210591Y-172407025D01*
X134199001Y-172289346D01*
X134199000Y-171210655D01*
X134210590Y-171092976D01*
X134256392Y-170941989D01*
X134330768Y-170802839D01*
X134430865Y-170680870D01*
X134430867Y-170680867D01*
X134430869Y-170680866D01*
X134430870Y-170680864D01*
X134552835Y-170580770D01*
X134691988Y-170506392D01*
X134842975Y-170460590D01*
X135000000Y-170445125D01*
X135157024Y-170460590D01*
X135157024Y-170460590D01*
G37*
G36*
X124701000Y-170951000D02*
X123299000Y-170951000D01*
X123299000Y-169549000D01*
X124701000Y-169549000D01*
X124701000Y-170951000D01*
X124701000Y-170951000D01*
G37*
G36*
X66951000Y-170951000D02*
X65549000Y-170951000D01*
X65549000Y-169549000D01*
X66951000Y-169549000D01*
X66951000Y-170951000D01*
X66951000Y-170951000D01*
G37*
G36*
X72769485Y-168368996D02*
X72769487Y-168368997D01*
X72769488Y-168368997D01*
X73006255Y-168467069D01*
X73219342Y-168609449D01*
X73400551Y-168790658D01*
X73542931Y-169003745D01*
X73641004Y-169240515D01*
X73691000Y-169491861D01*
X73691000Y-169748139D01*
X73641004Y-169999485D01*
X73542931Y-170236255D01*
X73400551Y-170449342D01*
X73219342Y-170630551D01*
X73219339Y-170630553D01*
X73006255Y-170772931D01*
X72769488Y-170871003D01*
X72769487Y-170871003D01*
X72769485Y-170871004D01*
X72518139Y-170921000D01*
X72261861Y-170921000D01*
X72010515Y-170871004D01*
X72010513Y-170871003D01*
X72010512Y-170871003D01*
X71773745Y-170772931D01*
X71560661Y-170630553D01*
X71560658Y-170630551D01*
X71379449Y-170449342D01*
X71237069Y-170236255D01*
X71138996Y-169999485D01*
X71089000Y-169748139D01*
X71089000Y-169491861D01*
X71138996Y-169240515D01*
X71237069Y-169003745D01*
X71379449Y-168790658D01*
X71560658Y-168609449D01*
X71773745Y-168467069D01*
X72010512Y-168368997D01*
X72010513Y-168368997D01*
X72010515Y-168368996D01*
X72261861Y-168319000D01*
X72518139Y-168319000D01*
X72769485Y-168368996D01*
X72769485Y-168368996D01*
G37*
G36*
X146801000Y-168651000D02*
X145199000Y-168651000D01*
X145199000Y-165949000D01*
X146801000Y-165949000D01*
X146801000Y-168651000D01*
X146801000Y-168651000D01*
G37*
G36*
X125951000Y-168051000D02*
X124049000Y-168051000D01*
X124049000Y-166649000D01*
X125951000Y-166649000D01*
X125951000Y-168051000D01*
X125951000Y-168051000D01*
G37*
G36*
X142870015Y-166956973D02*
X142973879Y-166988479D01*
X143069600Y-167039644D01*
X143153501Y-167108499D01*
X143222356Y-167192400D01*
X143273521Y-167288121D01*
X143305027Y-167391985D01*
X143315666Y-167500000D01*
X143305027Y-167608015D01*
X143273521Y-167711879D01*
X143222356Y-167807600D01*
X143153501Y-167891501D01*
X143069600Y-167960356D01*
X142973879Y-168011521D01*
X142870015Y-168043027D01*
X142789067Y-168051000D01*
X142210933Y-168051000D01*
X142129985Y-168043027D01*
X142026121Y-168011521D01*
X141930400Y-167960356D01*
X141846499Y-167891501D01*
X141777644Y-167807600D01*
X141726479Y-167711879D01*
X141694973Y-167608015D01*
X141684334Y-167500000D01*
X141694973Y-167391985D01*
X141726479Y-167288121D01*
X141777644Y-167192400D01*
X141846499Y-167108499D01*
X141930400Y-167039644D01*
X142026121Y-166988479D01*
X142129985Y-166956973D01*
X142210933Y-166949000D01*
X142789067Y-166949000D01*
X142870015Y-166956973D01*
X142870015Y-166956973D01*
G37*
G36*
X67421000Y-167901000D02*
X65479000Y-167901000D01*
X65479000Y-166599000D01*
X67421000Y-166599000D01*
X67421000Y-167901000D01*
X67421000Y-167901000D01*
G37*
G36*
X65021000Y-167901000D02*
X63919000Y-167901000D01*
X63919000Y-166599000D01*
X65021000Y-166599000D01*
X65021000Y-167901000D01*
X65021000Y-167901000D01*
G37*
G36*
X69181000Y-167901000D02*
X68079000Y-167901000D01*
X68079000Y-166599000D01*
X69181000Y-166599000D01*
X69181000Y-167901000D01*
X69181000Y-167901000D01*
G37*
G36*
X52771000Y-167401000D02*
X50829000Y-167401000D01*
X50829000Y-166099000D01*
X52771000Y-166099000D01*
X52771000Y-167401000D01*
X52771000Y-167401000D01*
G37*
G36*
X54331000Y-167401000D02*
X53229000Y-167401000D01*
X53229000Y-166099000D01*
X54331000Y-166099000D01*
X54331000Y-167401000D01*
X54331000Y-167401000D01*
G37*
G36*
X50171000Y-167401000D02*
X49069000Y-167401000D01*
X49069000Y-166099000D01*
X50171000Y-166099000D01*
X50171000Y-167401000D01*
X50171000Y-167401000D01*
G37*
G36*
X130157025Y-163960590D02*
X130308012Y-164006392D01*
X130447165Y-164080770D01*
X130569133Y-164180867D01*
X130669230Y-164302835D01*
X130743608Y-164441988D01*
X130789410Y-164592975D01*
X130801000Y-164710654D01*
X130801000Y-165789346D01*
X130789410Y-165907025D01*
X130743608Y-166058012D01*
X130669230Y-166197165D01*
X130569136Y-166319130D01*
X130569134Y-166319131D01*
X130569133Y-166319133D01*
X130569129Y-166319136D01*
X130447161Y-166419232D01*
X130308011Y-166493608D01*
X130157024Y-166539410D01*
X130000000Y-166554875D01*
X129842975Y-166539410D01*
X129691988Y-166493608D01*
X129552835Y-166419230D01*
X129430870Y-166319136D01*
X129430869Y-166319134D01*
X129430867Y-166319133D01*
X129342847Y-166211879D01*
X129330768Y-166197161D01*
X129256392Y-166058011D01*
X129210590Y-165907024D01*
X129199000Y-165789345D01*
X129199001Y-164710654D01*
X129210591Y-164592975D01*
X129256393Y-164441988D01*
X129330771Y-164302835D01*
X129430868Y-164180867D01*
X129552836Y-164080770D01*
X129691989Y-164006392D01*
X129842976Y-163960590D01*
X130000000Y-163945125D01*
X130157025Y-163960590D01*
X130157025Y-163960590D01*
G37*
G36*
X132657025Y-163960590D02*
X132808012Y-164006392D01*
X132947165Y-164080770D01*
X133069133Y-164180867D01*
X133169230Y-164302835D01*
X133243608Y-164441988D01*
X133289410Y-164592975D01*
X133301000Y-164710654D01*
X133301000Y-165789346D01*
X133289410Y-165907025D01*
X133243608Y-166058012D01*
X133169230Y-166197165D01*
X133069136Y-166319130D01*
X133069134Y-166319131D01*
X133069133Y-166319133D01*
X133069129Y-166319136D01*
X132947161Y-166419232D01*
X132808011Y-166493608D01*
X132657024Y-166539410D01*
X132500000Y-166554875D01*
X132342975Y-166539410D01*
X132191988Y-166493608D01*
X132052835Y-166419230D01*
X131930870Y-166319136D01*
X131930869Y-166319134D01*
X131930867Y-166319133D01*
X131842847Y-166211879D01*
X131830768Y-166197161D01*
X131756392Y-166058011D01*
X131710590Y-165907024D01*
X131699000Y-165789345D01*
X131699001Y-164710654D01*
X131710591Y-164592975D01*
X131756393Y-164441988D01*
X131830771Y-164302835D01*
X131930868Y-164180867D01*
X132052836Y-164080770D01*
X132191989Y-164006392D01*
X132342976Y-163960590D01*
X132500000Y-163945125D01*
X132657025Y-163960590D01*
X132657025Y-163960590D01*
G37*
G36*
X135157025Y-163960590D02*
X135308012Y-164006392D01*
X135447165Y-164080770D01*
X135569133Y-164180867D01*
X135669230Y-164302835D01*
X135743608Y-164441988D01*
X135789410Y-164592975D01*
X135801000Y-164710654D01*
X135801000Y-165789346D01*
X135789410Y-165907025D01*
X135743608Y-166058012D01*
X135669230Y-166197165D01*
X135569136Y-166319130D01*
X135569134Y-166319131D01*
X135569133Y-166319133D01*
X135569129Y-166319136D01*
X135447161Y-166419232D01*
X135308011Y-166493608D01*
X135157024Y-166539410D01*
X135000000Y-166554875D01*
X134842975Y-166539410D01*
X134691988Y-166493608D01*
X134552835Y-166419230D01*
X134430870Y-166319136D01*
X134430869Y-166319134D01*
X134430867Y-166319133D01*
X134342847Y-166211879D01*
X134330768Y-166197161D01*
X134256392Y-166058011D01*
X134210590Y-165907024D01*
X134199000Y-165789345D01*
X134199001Y-164710654D01*
X134210591Y-164592975D01*
X134256393Y-164441988D01*
X134330771Y-164302835D01*
X134430868Y-164180867D01*
X134552836Y-164080770D01*
X134691989Y-164006392D01*
X134842976Y-163960590D01*
X135000000Y-163945125D01*
X135157025Y-163960590D01*
X135157025Y-163960590D01*
G37*
G36*
X137657025Y-163960590D02*
X137808012Y-164006392D01*
X137947165Y-164080770D01*
X138069133Y-164180867D01*
X138169230Y-164302835D01*
X138243608Y-164441988D01*
X138289410Y-164592975D01*
X138301000Y-164710654D01*
X138301000Y-165789346D01*
X138289410Y-165907025D01*
X138243608Y-166058012D01*
X138169230Y-166197165D01*
X138069136Y-166319130D01*
X138069134Y-166319131D01*
X138069133Y-166319133D01*
X138069129Y-166319136D01*
X137947161Y-166419232D01*
X137808011Y-166493608D01*
X137657024Y-166539410D01*
X137500000Y-166554875D01*
X137342975Y-166539410D01*
X137191988Y-166493608D01*
X137052835Y-166419230D01*
X136930870Y-166319136D01*
X136930869Y-166319134D01*
X136930867Y-166319133D01*
X136842847Y-166211879D01*
X136830768Y-166197161D01*
X136756392Y-166058011D01*
X136710590Y-165907024D01*
X136699000Y-165789345D01*
X136699001Y-164710654D01*
X136710591Y-164592975D01*
X136756393Y-164441988D01*
X136830771Y-164302835D01*
X136930868Y-164180867D01*
X137052836Y-164080770D01*
X137191989Y-164006392D01*
X137342976Y-163960590D01*
X137500000Y-163945125D01*
X137657025Y-163960590D01*
X137657025Y-163960590D01*
G37*
G36*
X142870015Y-165456973D02*
X142973879Y-165488479D01*
X143069600Y-165539644D01*
X143153501Y-165608499D01*
X143222356Y-165692400D01*
X143273521Y-165788121D01*
X143305027Y-165891985D01*
X143315666Y-166000000D01*
X143305027Y-166108015D01*
X143273521Y-166211879D01*
X143222356Y-166307600D01*
X143153501Y-166391501D01*
X143069600Y-166460356D01*
X142973879Y-166511521D01*
X142870015Y-166543027D01*
X142789067Y-166551000D01*
X142210933Y-166551000D01*
X142129985Y-166543027D01*
X142026121Y-166511521D01*
X141930400Y-166460356D01*
X141846499Y-166391501D01*
X141777644Y-166307600D01*
X141726479Y-166211879D01*
X141694973Y-166108015D01*
X141684334Y-166000000D01*
X141694973Y-165891985D01*
X141726479Y-165788121D01*
X141777644Y-165692400D01*
X141846499Y-165608499D01*
X141930400Y-165539644D01*
X142026121Y-165488479D01*
X142129985Y-165456973D01*
X142210933Y-165449000D01*
X142789067Y-165449000D01*
X142870015Y-165456973D01*
X142870015Y-165456973D01*
G37*
G36*
X125951000Y-165024000D02*
X125953402Y-165048386D01*
X125960515Y-165071835D01*
X125972066Y-165093446D01*
X125987612Y-165112388D01*
X126006554Y-165127934D01*
X126028165Y-165139485D01*
X126051614Y-165146598D01*
X126076000Y-165149000D01*
X126926000Y-165149000D01*
X126926000Y-166051000D01*
X125974000Y-166051000D01*
X125974000Y-165251000D01*
X125971598Y-165226614D01*
X125964485Y-165203165D01*
X125952934Y-165181554D01*
X125937388Y-165162612D01*
X125918446Y-165147066D01*
X125896835Y-165135515D01*
X125873386Y-165128402D01*
X125849000Y-165126000D01*
X124151000Y-165126000D01*
X124126614Y-165128402D01*
X124103165Y-165135515D01*
X124081554Y-165147066D01*
X124062612Y-165162612D01*
X124047066Y-165181554D01*
X124035515Y-165203165D01*
X124028402Y-165226614D01*
X124026000Y-165251000D01*
X124026000Y-166051000D01*
X123074000Y-166051000D01*
X123074000Y-165149000D01*
X123924000Y-165149000D01*
X123948386Y-165146598D01*
X123971835Y-165139485D01*
X123993446Y-165127934D01*
X124012388Y-165112388D01*
X124027934Y-165093446D01*
X124039485Y-165071835D01*
X124046598Y-165048386D01*
X124049000Y-165024000D01*
X124049000Y-164174000D01*
X125951000Y-164174000D01*
X125951000Y-165024000D01*
X125951000Y-165024000D01*
G37*
G36*
X72769485Y-163288996D02*
X72769487Y-163288997D01*
X72769488Y-163288997D01*
X73006255Y-163387069D01*
X73219342Y-163529449D01*
X73400551Y-163710658D01*
X73400553Y-163710661D01*
X73542931Y-163923745D01*
X73619459Y-164108499D01*
X73641004Y-164160515D01*
X73691000Y-164411861D01*
X73691000Y-164668139D01*
X73646571Y-164891500D01*
X73641003Y-164919488D01*
X73587612Y-165048386D01*
X73542931Y-165156255D01*
X73400551Y-165369342D01*
X73219342Y-165550551D01*
X73219339Y-165550553D01*
X73006255Y-165692931D01*
X72769488Y-165791003D01*
X72769487Y-165791003D01*
X72769485Y-165791004D01*
X72518139Y-165841000D01*
X72261861Y-165841000D01*
X72010515Y-165791004D01*
X72010513Y-165791003D01*
X72010512Y-165791003D01*
X71773745Y-165692931D01*
X71560661Y-165550553D01*
X71560658Y-165550551D01*
X71379449Y-165369342D01*
X71237069Y-165156255D01*
X71192388Y-165048386D01*
X71138997Y-164919488D01*
X71133430Y-164891500D01*
X71089000Y-164668139D01*
X71089000Y-164411861D01*
X71138996Y-164160515D01*
X71160542Y-164108499D01*
X71237069Y-163923745D01*
X71379447Y-163710661D01*
X71379449Y-163710658D01*
X71560658Y-163529449D01*
X71773745Y-163387069D01*
X72010512Y-163288997D01*
X72010513Y-163288997D01*
X72010515Y-163288996D01*
X72261861Y-163239000D01*
X72518139Y-163239000D01*
X72769485Y-163288996D01*
X72769485Y-163288996D01*
G37*
G36*
X142870015Y-163956973D02*
X142973879Y-163988479D01*
X143069600Y-164039644D01*
X143153501Y-164108499D01*
X143222356Y-164192400D01*
X143273521Y-164288121D01*
X143305027Y-164391985D01*
X143315666Y-164500000D01*
X143305027Y-164608015D01*
X143273521Y-164711879D01*
X143222356Y-164807600D01*
X143153501Y-164891501D01*
X143069600Y-164960356D01*
X142973879Y-165011521D01*
X142870015Y-165043027D01*
X142789067Y-165051000D01*
X142210933Y-165051000D01*
X142129985Y-165043027D01*
X142026121Y-165011521D01*
X141930400Y-164960356D01*
X141846499Y-164891501D01*
X141777644Y-164807600D01*
X141726479Y-164711879D01*
X141694973Y-164608015D01*
X141684334Y-164500000D01*
X141694973Y-164391985D01*
X141726479Y-164288121D01*
X141777644Y-164192400D01*
X141846499Y-164108499D01*
X141930400Y-164039644D01*
X142026121Y-163988479D01*
X142129985Y-163956973D01*
X142210933Y-163949000D01*
X142789067Y-163949000D01*
X142870015Y-163956973D01*
X142870015Y-163956973D01*
G37*
G36*
X65504555Y-155864284D02*
X66240759Y-156169230D01*
X66287288Y-156188503D01*
X66901640Y-156599000D01*
X66991731Y-156659197D01*
X67590803Y-157258269D01*
X67590805Y-157258272D01*
X67886627Y-157701000D01*
X68061498Y-157962714D01*
X68385716Y-158745445D01*
X68551000Y-159576387D01*
X68551000Y-160423613D01*
X68385716Y-161254555D01*
X68072170Y-162011521D01*
X68061497Y-162037288D01*
X68000792Y-162128139D01*
X67590803Y-162741731D01*
X66991731Y-163340803D01*
X66991728Y-163340805D01*
X66287288Y-163811497D01*
X66287287Y-163811498D01*
X66287286Y-163811498D01*
X65504555Y-164135716D01*
X64673613Y-164301000D01*
X63826387Y-164301000D01*
X62995445Y-164135716D01*
X62212714Y-163811498D01*
X62212713Y-163811498D01*
X62212712Y-163811497D01*
X61508272Y-163340805D01*
X61508269Y-163340803D01*
X60909197Y-162741731D01*
X60499208Y-162128139D01*
X60438503Y-162037288D01*
X60427830Y-162011521D01*
X60114284Y-161254555D01*
X59949000Y-160423613D01*
X59949000Y-159576387D01*
X60114284Y-158745445D01*
X60438502Y-157962714D01*
X60613374Y-157701000D01*
X60909195Y-157258272D01*
X60909197Y-157258269D01*
X61508269Y-156659197D01*
X61598360Y-156599000D01*
X62212712Y-156188503D01*
X62259241Y-156169230D01*
X62995445Y-155864284D01*
X63826387Y-155699000D01*
X64673613Y-155699000D01*
X65504555Y-155864284D01*
X65504555Y-155864284D01*
G37*
G36*
X54504555Y-155864284D02*
X55240759Y-156169230D01*
X55287288Y-156188503D01*
X55901640Y-156599000D01*
X55991731Y-156659197D01*
X56590803Y-157258269D01*
X56590805Y-157258272D01*
X56886627Y-157701000D01*
X57061498Y-157962714D01*
X57385716Y-158745445D01*
X57551000Y-159576387D01*
X57551000Y-160423613D01*
X57385716Y-161254555D01*
X57072170Y-162011521D01*
X57061497Y-162037288D01*
X57000792Y-162128139D01*
X56590803Y-162741731D01*
X55991731Y-163340803D01*
X55991728Y-163340805D01*
X55287288Y-163811497D01*
X55287287Y-163811498D01*
X55287286Y-163811498D01*
X54504555Y-164135716D01*
X53673613Y-164301000D01*
X52826387Y-164301000D01*
X51995445Y-164135716D01*
X51212714Y-163811498D01*
X51212713Y-163811498D01*
X51212712Y-163811497D01*
X50508272Y-163340805D01*
X50508269Y-163340803D01*
X49909197Y-162741731D01*
X49499208Y-162128139D01*
X49438503Y-162037288D01*
X49427830Y-162011521D01*
X49114284Y-161254555D01*
X48949000Y-160423613D01*
X48949000Y-159576387D01*
X49114284Y-158745445D01*
X49438502Y-157962714D01*
X49613374Y-157701000D01*
X49909195Y-157258272D01*
X49909197Y-157258269D01*
X50508269Y-156659197D01*
X50598360Y-156599000D01*
X51212712Y-156188503D01*
X51259241Y-156169230D01*
X51995445Y-155864284D01*
X52826387Y-155699000D01*
X53673613Y-155699000D01*
X54504555Y-155864284D01*
X54504555Y-155864284D01*
G37*
G36*
X142870015Y-162456973D02*
X142973879Y-162488479D01*
X143069600Y-162539644D01*
X143153501Y-162608499D01*
X143222356Y-162692400D01*
X143273521Y-162788121D01*
X143305027Y-162891985D01*
X143315666Y-163000000D01*
X143305027Y-163108015D01*
X143273521Y-163211879D01*
X143222356Y-163307600D01*
X143153501Y-163391501D01*
X143069600Y-163460356D01*
X142973879Y-163511521D01*
X142870015Y-163543027D01*
X142789067Y-163551000D01*
X142210933Y-163551000D01*
X142129985Y-163543027D01*
X142026121Y-163511521D01*
X141930400Y-163460356D01*
X141846499Y-163391501D01*
X141777644Y-163307600D01*
X141726479Y-163211879D01*
X141694973Y-163108015D01*
X141684334Y-163000000D01*
X141694973Y-162891985D01*
X141726479Y-162788121D01*
X141777644Y-162692400D01*
X141846499Y-162608499D01*
X141930400Y-162539644D01*
X142026121Y-162488479D01*
X142129985Y-162456973D01*
X142210933Y-162449000D01*
X142789067Y-162449000D01*
X142870015Y-162456973D01*
X142870015Y-162456973D01*
G37*
G36*
X118489485Y-160748996D02*
X118489487Y-160748997D01*
X118489488Y-160748997D01*
X118726255Y-160847069D01*
X118939342Y-160989449D01*
X119120551Y-161170658D01*
X119120553Y-161170661D01*
X119262931Y-161383745D01*
X119355827Y-161608015D01*
X119361004Y-161620515D01*
X119411000Y-161871861D01*
X119411000Y-162128139D01*
X119361004Y-162379485D01*
X119262931Y-162616255D01*
X119120551Y-162829342D01*
X118939342Y-163010551D01*
X118939339Y-163010553D01*
X118726255Y-163152931D01*
X118489488Y-163251003D01*
X118489487Y-163251003D01*
X118489485Y-163251004D01*
X118238139Y-163301000D01*
X117981861Y-163301000D01*
X117730515Y-163251004D01*
X117730513Y-163251003D01*
X117730512Y-163251003D01*
X117493745Y-163152931D01*
X117280661Y-163010553D01*
X117280658Y-163010551D01*
X117099449Y-162829342D01*
X116957069Y-162616255D01*
X116858996Y-162379485D01*
X116809000Y-162128139D01*
X116809000Y-161871861D01*
X116858996Y-161620515D01*
X116864174Y-161608015D01*
X116957069Y-161383745D01*
X117099447Y-161170661D01*
X117099449Y-161170658D01*
X117280658Y-160989449D01*
X117493745Y-160847069D01*
X117730512Y-160748997D01*
X117730513Y-160748997D01*
X117730515Y-160748996D01*
X117981861Y-160699000D01*
X118238139Y-160699000D01*
X118489485Y-160748996D01*
X118489485Y-160748996D01*
G37*
G36*
X146801000Y-163051000D02*
X145199000Y-163051000D01*
X145199000Y-160349000D01*
X146801000Y-160349000D01*
X146801000Y-163051000D01*
X146801000Y-163051000D01*
G37*
G36*
X142870015Y-160956973D02*
X142973879Y-160988479D01*
X143069600Y-161039644D01*
X143153501Y-161108499D01*
X143222356Y-161192400D01*
X143273521Y-161288121D01*
X143305027Y-161391985D01*
X143315666Y-161500000D01*
X143305027Y-161608015D01*
X143273521Y-161711879D01*
X143222356Y-161807600D01*
X143153501Y-161891501D01*
X143069600Y-161960356D01*
X142973879Y-162011521D01*
X142870015Y-162043027D01*
X142789067Y-162051000D01*
X142210933Y-162051000D01*
X142129985Y-162043027D01*
X142026121Y-162011521D01*
X141930400Y-161960356D01*
X141846499Y-161891501D01*
X141777644Y-161807600D01*
X141726479Y-161711879D01*
X141694973Y-161608015D01*
X141684334Y-161500000D01*
X141694973Y-161391985D01*
X141726479Y-161288121D01*
X141777644Y-161192400D01*
X141846499Y-161108499D01*
X141930400Y-161039644D01*
X142026121Y-160988479D01*
X142129985Y-160956973D01*
X142210933Y-160949000D01*
X142789067Y-160949000D01*
X142870015Y-160956973D01*
X142870015Y-160956973D01*
G37*
G36*
X142870015Y-159456973D02*
X142973879Y-159488479D01*
X143069600Y-159539644D01*
X143153501Y-159608499D01*
X143222356Y-159692400D01*
X143273521Y-159788121D01*
X143305027Y-159891985D01*
X143315666Y-160000000D01*
X143305027Y-160108015D01*
X143273521Y-160211879D01*
X143222356Y-160307600D01*
X143153501Y-160391501D01*
X143069600Y-160460356D01*
X142973879Y-160511521D01*
X142870015Y-160543027D01*
X142789067Y-160551000D01*
X142210933Y-160551000D01*
X142129985Y-160543027D01*
X142026121Y-160511521D01*
X141930400Y-160460356D01*
X141846499Y-160391501D01*
X141777644Y-160307600D01*
X141726479Y-160211879D01*
X141694973Y-160108015D01*
X141684334Y-160000000D01*
X141694973Y-159891985D01*
X141726479Y-159788121D01*
X141777644Y-159692400D01*
X141846499Y-159608499D01*
X141930400Y-159539644D01*
X142026121Y-159488479D01*
X142129985Y-159456973D01*
X142210933Y-159449000D01*
X142789067Y-159449000D01*
X142870015Y-159456973D01*
X142870015Y-159456973D01*
G37*
G36*
X123901000Y-159461000D02*
X122599000Y-159461000D01*
X122599000Y-158359000D01*
X123901000Y-158359000D01*
X123901000Y-159461000D01*
X123901000Y-159461000D01*
G37*
G36*
X127401000Y-159461000D02*
X126099000Y-159461000D01*
X126099000Y-158359000D01*
X127401000Y-158359000D01*
X127401000Y-159461000D01*
X127401000Y-159461000D01*
G37*
G36*
X122151000Y-159461000D02*
X120849000Y-159461000D01*
X120849000Y-158359000D01*
X122151000Y-158359000D01*
X122151000Y-159461000D01*
X122151000Y-159461000D01*
G37*
G36*
X125651000Y-159461000D02*
X124349000Y-159461000D01*
X124349000Y-158359000D01*
X125651000Y-158359000D01*
X125651000Y-159461000D01*
X125651000Y-159461000D01*
G37*
G36*
X131741000Y-158901000D02*
X130639000Y-158901000D01*
X130639000Y-157599000D01*
X131741000Y-157599000D01*
X131741000Y-158901000D01*
X131741000Y-158901000D01*
G37*
G36*
X134201000Y-158651000D02*
X133426000Y-158651000D01*
X133401614Y-158653402D01*
X133378165Y-158660515D01*
X133356554Y-158672066D01*
X133337612Y-158687612D01*
X133322066Y-158706554D01*
X133310515Y-158728165D01*
X133303402Y-158751614D01*
X133301000Y-158776000D01*
X133301000Y-158901000D01*
X132199000Y-158901000D01*
X132199000Y-157599000D01*
X132474000Y-157599000D01*
X132498386Y-157596598D01*
X132521835Y-157589485D01*
X132543446Y-157577934D01*
X132562388Y-157562388D01*
X132573376Y-157549000D01*
X134201000Y-157549000D01*
X134201000Y-158651000D01*
X134201000Y-158651000D01*
G37*
G36*
X139201000Y-158651000D02*
X137599000Y-158651000D01*
X137599000Y-157549000D01*
X139201000Y-157549000D01*
X139201000Y-158651000D01*
X139201000Y-158651000D01*
G37*
G36*
X123901000Y-157701000D02*
X122599000Y-157701000D01*
X122599000Y-156009000D01*
X123901000Y-156009000D01*
X123901000Y-157701000D01*
X123901000Y-157701000D01*
G37*
G36*
X125651000Y-157701000D02*
X124349000Y-157701000D01*
X124349000Y-156009000D01*
X125651000Y-156009000D01*
X125651000Y-157701000D01*
X125651000Y-157701000D01*
G37*
G36*
X127401000Y-157701000D02*
X126099000Y-157701000D01*
X126099000Y-156009000D01*
X127401000Y-156009000D01*
X127401000Y-157701000D01*
X127401000Y-157701000D01*
G37*
G36*
X122151000Y-157701000D02*
X120849000Y-157701000D01*
X120849000Y-156009000D01*
X122151000Y-156009000D01*
X122151000Y-157701000D01*
X122151000Y-157701000D01*
G37*
G36*
X131771000Y-157151000D02*
X130669000Y-157151000D01*
X130669000Y-155849000D01*
X131771000Y-155849000D01*
X131771000Y-157151000D01*
X131771000Y-157151000D01*
G37*
G36*
X133340515Y-155871835D02*
X133352066Y-155893446D01*
X133367612Y-155912388D01*
X133386554Y-155927934D01*
X133408165Y-155939485D01*
X133431614Y-155946598D01*
X133456000Y-155949000D01*
X134201000Y-155949000D01*
X134201000Y-157051000D01*
X133456000Y-157051000D01*
X133431614Y-157053402D01*
X133408165Y-157060515D01*
X133386554Y-157072066D01*
X133367612Y-157087612D01*
X133352066Y-157106554D01*
X133340515Y-157128165D01*
X133333588Y-157151000D01*
X132229000Y-157151000D01*
X132229000Y-155849000D01*
X133333588Y-155849000D01*
X133340515Y-155871835D01*
X133340515Y-155871835D01*
G37*
G36*
X129151000Y-157081000D02*
X127849000Y-157081000D01*
X127849000Y-155979000D01*
X129151000Y-155979000D01*
X129151000Y-157081000D01*
X129151000Y-157081000D01*
G37*
G36*
X139201000Y-157051000D02*
X137599000Y-157051000D01*
X137599000Y-155949000D01*
X139201000Y-155949000D01*
X139201000Y-157051000D01*
X139201000Y-157051000D01*
G37*
G36*
X145407025Y-154710590D02*
X145558012Y-154756392D01*
X145697165Y-154830770D01*
X145819133Y-154930867D01*
X145919230Y-155052835D01*
X145993608Y-155191988D01*
X146039410Y-155342975D01*
X146054875Y-155500000D01*
X146039410Y-155657025D01*
X145993608Y-155808012D01*
X145919230Y-155947165D01*
X145819133Y-156069133D01*
X145697165Y-156169230D01*
X145558012Y-156243608D01*
X145407025Y-156289410D01*
X145289346Y-156301000D01*
X144210654Y-156301000D01*
X144092975Y-156289410D01*
X143941988Y-156243608D01*
X143802835Y-156169230D01*
X143680867Y-156069133D01*
X143580770Y-155947165D01*
X143506392Y-155808012D01*
X143460590Y-155657025D01*
X143445125Y-155500000D01*
X143460590Y-155342975D01*
X143506392Y-155191988D01*
X143580770Y-155052835D01*
X143680867Y-154930867D01*
X143802835Y-154830770D01*
X143941988Y-154756392D01*
X144092975Y-154710590D01*
X144210654Y-154699000D01*
X145289346Y-154699000D01*
X145407025Y-154710590D01*
X145407025Y-154710590D01*
G37*
G36*
X72769485Y-153128996D02*
X72769487Y-153128997D01*
X72769488Y-153128997D01*
X73006255Y-153227069D01*
X73219342Y-153369449D01*
X73400551Y-153550658D01*
X73400553Y-153550661D01*
X73542931Y-153763745D01*
X73562711Y-153811497D01*
X73641004Y-154000515D01*
X73691000Y-154251861D01*
X73691000Y-154508139D01*
X73650730Y-154710590D01*
X73641003Y-154759488D01*
X73570016Y-154930867D01*
X73542931Y-154996255D01*
X73400551Y-155209342D01*
X73219342Y-155390551D01*
X73219339Y-155390553D01*
X73006255Y-155532931D01*
X72769488Y-155631003D01*
X72769487Y-155631003D01*
X72769485Y-155631004D01*
X72518139Y-155681000D01*
X72261861Y-155681000D01*
X72010515Y-155631004D01*
X72010513Y-155631003D01*
X72010512Y-155631003D01*
X71773745Y-155532931D01*
X71560661Y-155390553D01*
X71560658Y-155390551D01*
X71379449Y-155209342D01*
X71237069Y-154996255D01*
X71209984Y-154930867D01*
X71138997Y-154759488D01*
X71129271Y-154710590D01*
X71089000Y-154508139D01*
X71089000Y-154251861D01*
X71138996Y-154000515D01*
X71217290Y-153811497D01*
X71237069Y-153763745D01*
X71379447Y-153550661D01*
X71379449Y-153550658D01*
X71560658Y-153369449D01*
X71773745Y-153227069D01*
X72010512Y-153128997D01*
X72010513Y-153128997D01*
X72010515Y-153128996D01*
X72261861Y-153079000D01*
X72518139Y-153079000D01*
X72769485Y-153128996D01*
X72769485Y-153128996D01*
G37*
G36*
X122151000Y-155551000D02*
X120849000Y-155551000D01*
X120849000Y-154449000D01*
X122151000Y-154449000D01*
X122151000Y-155551000D01*
X122151000Y-155551000D01*
G37*
G36*
X125651000Y-155551000D02*
X124349000Y-155551000D01*
X124349000Y-154449000D01*
X125651000Y-154449000D01*
X125651000Y-155551000D01*
X125651000Y-155551000D01*
G37*
G36*
X123901000Y-155551000D02*
X122599000Y-155551000D01*
X122599000Y-154449000D01*
X123901000Y-154449000D01*
X123901000Y-155551000D01*
X123901000Y-155551000D01*
G37*
G36*
X127401000Y-155551000D02*
X126099000Y-155551000D01*
X126099000Y-154449000D01*
X127401000Y-154449000D01*
X127401000Y-155551000D01*
X127401000Y-155551000D01*
G37*
G36*
X129151000Y-155521000D02*
X127849000Y-155521000D01*
X127849000Y-154419000D01*
X129151000Y-154419000D01*
X129151000Y-155521000D01*
X129151000Y-155521000D01*
G37*
G36*
X139201000Y-155451000D02*
X137599000Y-155451000D01*
X137599000Y-154349000D01*
X139201000Y-154349000D01*
X139201000Y-155451000D01*
X139201000Y-155451000D01*
G37*
G36*
X133331000Y-154224000D02*
X133333402Y-154248386D01*
X133340515Y-154271835D01*
X133352066Y-154293446D01*
X133367612Y-154312388D01*
X133386554Y-154327934D01*
X133408165Y-154339485D01*
X133431614Y-154346598D01*
X133456000Y-154349000D01*
X134201000Y-154349000D01*
X134201000Y-155451000D01*
X132573376Y-155451000D01*
X132562388Y-155437612D01*
X132543446Y-155422066D01*
X132521835Y-155410515D01*
X132498386Y-155403402D01*
X132474000Y-155401000D01*
X132229000Y-155401000D01*
X132229000Y-154099000D01*
X133331000Y-154099000D01*
X133331000Y-154224000D01*
X133331000Y-154224000D01*
G37*
G36*
X131771000Y-155401000D02*
X130669000Y-155401000D01*
X130669000Y-154099000D01*
X131771000Y-154099000D01*
X131771000Y-155401000D01*
X131771000Y-155401000D01*
G37*
G36*
X54504555Y-145864284D02*
X55240759Y-146169230D01*
X55287288Y-146188503D01*
X55788740Y-146523563D01*
X55991731Y-146659197D01*
X56590803Y-147258269D01*
X56590805Y-147258272D01*
X57056446Y-147955152D01*
X57061498Y-147962714D01*
X57385716Y-148745445D01*
X57551000Y-149576387D01*
X57551000Y-150423613D01*
X57385716Y-151254555D01*
X57061498Y-152037286D01*
X56590803Y-152741731D01*
X55991731Y-153340803D01*
X55991728Y-153340805D01*
X55287288Y-153811497D01*
X55287287Y-153811498D01*
X55287286Y-153811498D01*
X54504555Y-154135716D01*
X53673613Y-154301000D01*
X52826387Y-154301000D01*
X51995445Y-154135716D01*
X51212714Y-153811498D01*
X51212713Y-153811498D01*
X51212712Y-153811497D01*
X50508272Y-153340805D01*
X50508269Y-153340803D01*
X49909197Y-152741731D01*
X49438502Y-152037286D01*
X49114284Y-151254555D01*
X48949000Y-150423613D01*
X48949000Y-149576387D01*
X49114284Y-148745445D01*
X49438502Y-147962714D01*
X49443555Y-147955152D01*
X49909195Y-147258272D01*
X49909197Y-147258269D01*
X50508269Y-146659197D01*
X50711260Y-146523563D01*
X51212712Y-146188503D01*
X51259241Y-146169230D01*
X51995445Y-145864284D01*
X52826387Y-145699000D01*
X53673613Y-145699000D01*
X54504555Y-145864284D01*
X54504555Y-145864284D01*
G37*
G36*
X65504555Y-145864284D02*
X66240759Y-146169230D01*
X66287288Y-146188503D01*
X66788740Y-146523563D01*
X66991731Y-146659197D01*
X67590803Y-147258269D01*
X67590805Y-147258272D01*
X68056446Y-147955152D01*
X68061498Y-147962714D01*
X68385716Y-148745445D01*
X68551000Y-149576387D01*
X68551000Y-150423613D01*
X68385716Y-151254555D01*
X68061498Y-152037286D01*
X67590803Y-152741731D01*
X66991731Y-153340803D01*
X66991728Y-153340805D01*
X66287288Y-153811497D01*
X66287287Y-153811498D01*
X66287286Y-153811498D01*
X65504555Y-154135716D01*
X64673613Y-154301000D01*
X63826387Y-154301000D01*
X62995445Y-154135716D01*
X62212714Y-153811498D01*
X62212713Y-153811498D01*
X62212712Y-153811497D01*
X61508272Y-153340805D01*
X61508269Y-153340803D01*
X60909197Y-152741731D01*
X60438502Y-152037286D01*
X60114284Y-151254555D01*
X59949000Y-150423613D01*
X59949000Y-149576387D01*
X60114284Y-148745445D01*
X60438502Y-147962714D01*
X60443555Y-147955152D01*
X60909195Y-147258272D01*
X60909197Y-147258269D01*
X61508269Y-146659197D01*
X61711260Y-146523563D01*
X62212712Y-146188503D01*
X62259241Y-146169230D01*
X62995445Y-145864284D01*
X63826387Y-145699000D01*
X64673613Y-145699000D01*
X65504555Y-145864284D01*
X65504555Y-145864284D01*
G37*
G36*
X145407025Y-152210590D02*
X145558012Y-152256392D01*
X145697165Y-152330770D01*
X145819133Y-152430867D01*
X145919230Y-152552835D01*
X145993608Y-152691988D01*
X146039410Y-152842975D01*
X146054875Y-153000000D01*
X146039410Y-153157025D01*
X145993608Y-153308012D01*
X145919230Y-153447165D01*
X145819133Y-153569133D01*
X145697165Y-153669230D01*
X145558012Y-153743608D01*
X145407025Y-153789410D01*
X145289346Y-153801000D01*
X144210654Y-153801000D01*
X144092975Y-153789410D01*
X143941988Y-153743608D01*
X143802835Y-153669230D01*
X143680867Y-153569133D01*
X143580770Y-153447165D01*
X143506392Y-153308012D01*
X143460590Y-153157025D01*
X143445125Y-153000000D01*
X143460590Y-152842975D01*
X143506392Y-152691988D01*
X143580770Y-152552835D01*
X143680867Y-152430867D01*
X143802835Y-152330770D01*
X143941988Y-152256392D01*
X144092975Y-152210590D01*
X144210654Y-152199000D01*
X145289346Y-152199000D01*
X145407025Y-152210590D01*
X145407025Y-152210590D01*
G37*
G36*
X118489485Y-150588996D02*
X118489487Y-150588997D01*
X118489488Y-150588997D01*
X118726255Y-150687069D01*
X118939342Y-150829449D01*
X119120551Y-151010658D01*
X119262931Y-151223745D01*
X119361004Y-151460515D01*
X119411000Y-151711861D01*
X119411000Y-151968139D01*
X119365079Y-152199000D01*
X119361003Y-152219488D01*
X119314908Y-152330771D01*
X119262931Y-152456255D01*
X119120551Y-152669342D01*
X118939342Y-152850551D01*
X118939339Y-152850553D01*
X118726255Y-152992931D01*
X118489488Y-153091003D01*
X118489487Y-153091003D01*
X118489485Y-153091004D01*
X118238139Y-153141000D01*
X117981861Y-153141000D01*
X117730515Y-153091004D01*
X117730513Y-153091003D01*
X117730512Y-153091003D01*
X117493745Y-152992931D01*
X117280661Y-152850553D01*
X117280658Y-152850551D01*
X117099449Y-152669342D01*
X116957069Y-152456255D01*
X116905092Y-152330771D01*
X116858997Y-152219488D01*
X116854922Y-152199000D01*
X116809000Y-151968139D01*
X116809000Y-151711861D01*
X116858996Y-151460515D01*
X116957069Y-151223745D01*
X117099449Y-151010658D01*
X117280658Y-150829449D01*
X117493745Y-150687069D01*
X117730512Y-150588997D01*
X117730513Y-150588997D01*
X117730515Y-150588996D01*
X117981861Y-150539000D01*
X118238139Y-150539000D01*
X118489485Y-150588996D01*
X118489485Y-150588996D01*
G37*
G36*
X131479832Y-142152045D02*
X131486851Y-142154174D01*
X131493314Y-142157629D01*
X131503754Y-142166197D01*
X132609465Y-143271908D01*
X132618033Y-143282348D01*
X132621488Y-143288811D01*
X132623617Y-143295830D01*
X132624335Y-143303123D01*
X132623617Y-143310416D01*
X132621488Y-143317435D01*
X132618033Y-143323898D01*
X132609465Y-143334338D01*
X132387638Y-143556165D01*
X132377198Y-143564733D01*
X132370736Y-143568187D01*
X132355795Y-143572720D01*
X132333156Y-143582098D01*
X132312782Y-143595713D01*
X132295456Y-143613040D01*
X132281842Y-143633415D01*
X132272467Y-143656048D01*
X132267934Y-143670989D01*
X132264480Y-143677451D01*
X132255912Y-143687891D01*
X132034085Y-143909718D01*
X132023645Y-143918286D01*
X132017183Y-143921740D01*
X132002242Y-143926273D01*
X131979603Y-143935651D01*
X131959229Y-143949266D01*
X131941903Y-143966593D01*
X131928289Y-143986968D01*
X131918914Y-144009601D01*
X131914381Y-144024542D01*
X131910927Y-144031004D01*
X131902359Y-144041444D01*
X131680532Y-144263271D01*
X131670092Y-144271839D01*
X131663629Y-144275294D01*
X131648689Y-144279826D01*
X131626051Y-144289204D01*
X131605676Y-144302818D01*
X131588349Y-144320145D01*
X131574736Y-144340520D01*
X131565360Y-144363155D01*
X131560828Y-144378095D01*
X131557373Y-144384558D01*
X131548805Y-144394998D01*
X131326978Y-144616825D01*
X131316538Y-144625393D01*
X131310076Y-144628847D01*
X131295135Y-144633380D01*
X131272496Y-144642758D01*
X131252122Y-144656373D01*
X131234796Y-144673700D01*
X131221182Y-144694075D01*
X131211807Y-144716708D01*
X131207274Y-144731649D01*
X131203820Y-144738111D01*
X131195252Y-144748551D01*
X130973425Y-144970378D01*
X130962985Y-144978946D01*
X130956522Y-144982401D01*
X130941582Y-144986933D01*
X130918944Y-144996311D01*
X130898569Y-145009925D01*
X130881242Y-145027252D01*
X130867629Y-145047627D01*
X130858253Y-145070262D01*
X130853721Y-145085202D01*
X130850266Y-145091665D01*
X130841698Y-145102105D01*
X130619871Y-145323932D01*
X130609431Y-145332500D01*
X130602969Y-145335954D01*
X130588028Y-145340487D01*
X130565389Y-145349865D01*
X130545015Y-145363480D01*
X130527689Y-145380807D01*
X130514075Y-145401182D01*
X130504700Y-145423815D01*
X130500167Y-145438756D01*
X130496713Y-145445218D01*
X130488145Y-145455658D01*
X130266318Y-145677485D01*
X130255878Y-145686053D01*
X130249416Y-145689507D01*
X130234475Y-145694040D01*
X130211836Y-145703418D01*
X130191462Y-145717033D01*
X130174136Y-145734360D01*
X130160522Y-145754735D01*
X130151147Y-145777368D01*
X130146614Y-145792309D01*
X130143160Y-145798771D01*
X130134592Y-145809211D01*
X129912765Y-146031038D01*
X129902325Y-146039606D01*
X129895862Y-146043061D01*
X129880922Y-146047593D01*
X129858284Y-146056971D01*
X129837909Y-146070585D01*
X129820582Y-146087912D01*
X129806969Y-146108287D01*
X129797593Y-146130922D01*
X129793061Y-146145862D01*
X129789606Y-146152325D01*
X129781038Y-146162765D01*
X129559211Y-146384592D01*
X129548771Y-146393160D01*
X129542309Y-146396614D01*
X129527368Y-146401147D01*
X129504729Y-146410525D01*
X129484355Y-146424140D01*
X129467029Y-146441467D01*
X129453415Y-146461842D01*
X129444040Y-146484475D01*
X129439507Y-146499416D01*
X129436053Y-146505878D01*
X129427485Y-146516318D01*
X129205658Y-146738145D01*
X129195218Y-146746713D01*
X129188756Y-146750167D01*
X129173815Y-146754700D01*
X129151176Y-146764078D01*
X129130802Y-146777693D01*
X129113476Y-146795020D01*
X129099862Y-146815395D01*
X129090487Y-146838028D01*
X129085954Y-146852969D01*
X129082500Y-146859431D01*
X129073932Y-146869871D01*
X128852105Y-147091698D01*
X128841665Y-147100266D01*
X128835202Y-147103721D01*
X128820262Y-147108253D01*
X128797624Y-147117631D01*
X128777249Y-147131245D01*
X128759922Y-147148572D01*
X128746309Y-147168947D01*
X128736933Y-147191582D01*
X128732401Y-147206522D01*
X128728946Y-147212985D01*
X128720378Y-147223425D01*
X128498551Y-147445252D01*
X128488111Y-147453820D01*
X128481649Y-147457274D01*
X128466708Y-147461807D01*
X128444069Y-147471185D01*
X128423695Y-147484800D01*
X128406369Y-147502127D01*
X128392755Y-147522502D01*
X128383380Y-147545135D01*
X128378847Y-147560076D01*
X128375393Y-147566538D01*
X128366825Y-147576978D01*
X128144998Y-147798805D01*
X128134558Y-147807373D01*
X128128095Y-147810828D01*
X128113155Y-147815360D01*
X128090517Y-147824738D01*
X128070142Y-147838352D01*
X128052815Y-147855679D01*
X128039202Y-147876054D01*
X128029826Y-147898689D01*
X128025294Y-147913629D01*
X128021839Y-147920092D01*
X128013271Y-147930532D01*
X127791444Y-148152359D01*
X127781004Y-148160927D01*
X127774542Y-148164381D01*
X127759601Y-148168914D01*
X127736962Y-148178292D01*
X127716588Y-148191907D01*
X127699262Y-148209234D01*
X127685648Y-148229609D01*
X127676273Y-148252242D01*
X127671740Y-148267183D01*
X127668286Y-148273645D01*
X127659718Y-148284085D01*
X127437891Y-148505912D01*
X127427451Y-148514480D01*
X127420989Y-148517934D01*
X127406048Y-148522467D01*
X127383409Y-148531845D01*
X127363035Y-148545460D01*
X127345709Y-148562787D01*
X127332095Y-148583162D01*
X127322720Y-148605795D01*
X127318187Y-148620736D01*
X127314733Y-148627198D01*
X127306165Y-148637638D01*
X127084338Y-148859465D01*
X127073898Y-148868033D01*
X127067435Y-148871488D01*
X127060416Y-148873617D01*
X127053123Y-148874335D01*
X127045830Y-148873617D01*
X127038811Y-148871488D01*
X127032348Y-148868033D01*
X127021908Y-148859465D01*
X125916197Y-147753754D01*
X125907629Y-147743314D01*
X125904174Y-147736851D01*
X125902045Y-147729832D01*
X125901327Y-147722539D01*
X125902045Y-147715246D01*
X125904174Y-147708227D01*
X125907629Y-147701764D01*
X125916197Y-147691324D01*
X126138024Y-147469497D01*
X126148464Y-147460929D01*
X126154926Y-147457475D01*
X126169867Y-147452942D01*
X126192506Y-147443564D01*
X126212880Y-147429949D01*
X126230206Y-147412622D01*
X126243820Y-147392247D01*
X126253195Y-147369614D01*
X126257728Y-147354673D01*
X126261182Y-147348211D01*
X126269750Y-147337771D01*
X126491577Y-147115944D01*
X126502017Y-147107376D01*
X126508479Y-147103922D01*
X126523420Y-147099389D01*
X126546059Y-147090011D01*
X126566433Y-147076396D01*
X126583759Y-147059069D01*
X126597373Y-147038694D01*
X126606748Y-147016061D01*
X126611281Y-147001120D01*
X126614735Y-146994658D01*
X126623303Y-146984218D01*
X126845130Y-146762391D01*
X126855570Y-146753823D01*
X126862033Y-146750368D01*
X126876973Y-146745836D01*
X126899611Y-146736458D01*
X126919986Y-146722844D01*
X126937313Y-146705517D01*
X126950926Y-146685142D01*
X126960302Y-146662507D01*
X126964834Y-146647567D01*
X126968289Y-146641104D01*
X126976857Y-146630664D01*
X127198684Y-146408837D01*
X127209124Y-146400269D01*
X127215586Y-146396815D01*
X127230527Y-146392282D01*
X127253166Y-146382904D01*
X127273540Y-146369289D01*
X127290866Y-146351962D01*
X127304480Y-146331587D01*
X127313855Y-146308954D01*
X127318388Y-146294013D01*
X127321842Y-146287551D01*
X127330410Y-146277111D01*
X127552237Y-146055284D01*
X127562677Y-146046716D01*
X127569140Y-146043261D01*
X127584080Y-146038729D01*
X127606718Y-146029351D01*
X127627093Y-146015737D01*
X127644420Y-145998410D01*
X127658033Y-145978035D01*
X127667409Y-145955400D01*
X127671941Y-145940460D01*
X127675396Y-145933997D01*
X127683964Y-145923557D01*
X127905791Y-145701730D01*
X127916231Y-145693162D01*
X127922693Y-145689708D01*
X127937634Y-145685175D01*
X127960273Y-145675797D01*
X127980647Y-145662182D01*
X127997973Y-145644855D01*
X128011587Y-145624480D01*
X128020962Y-145601847D01*
X128025495Y-145586906D01*
X128028949Y-145580444D01*
X128037517Y-145570004D01*
X128259344Y-145348177D01*
X128269784Y-145339609D01*
X128276246Y-145336155D01*
X128291187Y-145331622D01*
X128313826Y-145322244D01*
X128334200Y-145308629D01*
X128351526Y-145291302D01*
X128365140Y-145270927D01*
X128374515Y-145248294D01*
X128379048Y-145233353D01*
X128382502Y-145226891D01*
X128391070Y-145216451D01*
X128612897Y-144994624D01*
X128623337Y-144986056D01*
X128629800Y-144982601D01*
X128644740Y-144978069D01*
X128667378Y-144968691D01*
X128687753Y-144955077D01*
X128705080Y-144937750D01*
X128718693Y-144917375D01*
X128728069Y-144894740D01*
X128732601Y-144879800D01*
X128736056Y-144873337D01*
X128744624Y-144862897D01*
X128966451Y-144641070D01*
X128976891Y-144632502D01*
X128983353Y-144629048D01*
X128998294Y-144624515D01*
X129020933Y-144615137D01*
X129041307Y-144601522D01*
X129058633Y-144584195D01*
X129072247Y-144563820D01*
X129081622Y-144541187D01*
X129086155Y-144526246D01*
X129089609Y-144519784D01*
X129098177Y-144509344D01*
X129320004Y-144287517D01*
X129330444Y-144278949D01*
X129336906Y-144275495D01*
X129351847Y-144270962D01*
X129374486Y-144261584D01*
X129394860Y-144247969D01*
X129412186Y-144230642D01*
X129425800Y-144210267D01*
X129435175Y-144187634D01*
X129439708Y-144172693D01*
X129443162Y-144166231D01*
X129451730Y-144155791D01*
X129673557Y-143933964D01*
X129683997Y-143925396D01*
X129690460Y-143921941D01*
X129705400Y-143917409D01*
X129728038Y-143908031D01*
X129748413Y-143894417D01*
X129765740Y-143877090D01*
X129779353Y-143856715D01*
X129788729Y-143834080D01*
X129793261Y-143819140D01*
X129796716Y-143812677D01*
X129805284Y-143802237D01*
X130027111Y-143580410D01*
X130037551Y-143571842D01*
X130044013Y-143568388D01*
X130058954Y-143563855D01*
X130081593Y-143554477D01*
X130101967Y-143540862D01*
X130119293Y-143523535D01*
X130132907Y-143503160D01*
X130142282Y-143480527D01*
X130146815Y-143465586D01*
X130150269Y-143459124D01*
X130158837Y-143448684D01*
X130380664Y-143226857D01*
X130391104Y-143218289D01*
X130397567Y-143214834D01*
X130412507Y-143210302D01*
X130435145Y-143200924D01*
X130455520Y-143187310D01*
X130472847Y-143169983D01*
X130486460Y-143149608D01*
X130495836Y-143126973D01*
X130500368Y-143112033D01*
X130503823Y-143105570D01*
X130512391Y-143095130D01*
X130734218Y-142873303D01*
X130744658Y-142864735D01*
X130751120Y-142861281D01*
X130766061Y-142856748D01*
X130788700Y-142847370D01*
X130809074Y-142833755D01*
X130826400Y-142816428D01*
X130840014Y-142796053D01*
X130849389Y-142773420D01*
X130853922Y-142758479D01*
X130857376Y-142752017D01*
X130865944Y-142741577D01*
X131087771Y-142519750D01*
X131098211Y-142511182D01*
X131104673Y-142507728D01*
X131119614Y-142503195D01*
X131142253Y-142493817D01*
X131162627Y-142480202D01*
X131179953Y-142462875D01*
X131193567Y-142442500D01*
X131202942Y-142419867D01*
X131207475Y-142404926D01*
X131210929Y-142398464D01*
X131219497Y-142388024D01*
X131441324Y-142166197D01*
X131451764Y-142157629D01*
X131458227Y-142154174D01*
X131465246Y-142152045D01*
X131472539Y-142151327D01*
X131479832Y-142152045D01*
X131479832Y-142152045D01*
G37*
G36*
X119034754Y-142152045D02*
X119041773Y-142154174D01*
X119048236Y-142157629D01*
X119058676Y-142166197D01*
X119280503Y-142388024D01*
X119289071Y-142398464D01*
X119292525Y-142404926D01*
X119297058Y-142419867D01*
X119306436Y-142442506D01*
X119320051Y-142462880D01*
X119337378Y-142480206D01*
X119357753Y-142493820D01*
X119380386Y-142503195D01*
X119395327Y-142507728D01*
X119401789Y-142511182D01*
X119412229Y-142519750D01*
X119634056Y-142741577D01*
X119642624Y-142752017D01*
X119646078Y-142758479D01*
X119650611Y-142773420D01*
X119659989Y-142796059D01*
X119673604Y-142816433D01*
X119690931Y-142833759D01*
X119711306Y-142847373D01*
X119733939Y-142856748D01*
X119748880Y-142861281D01*
X119755342Y-142864735D01*
X119765782Y-142873303D01*
X119987609Y-143095130D01*
X119996177Y-143105570D01*
X119999632Y-143112033D01*
X120004164Y-143126973D01*
X120013542Y-143149611D01*
X120027156Y-143169986D01*
X120044483Y-143187313D01*
X120064858Y-143200926D01*
X120087493Y-143210302D01*
X120102433Y-143214834D01*
X120108896Y-143218289D01*
X120119336Y-143226857D01*
X120341163Y-143448684D01*
X120349731Y-143459124D01*
X120353185Y-143465586D01*
X120357718Y-143480527D01*
X120367096Y-143503166D01*
X120380711Y-143523540D01*
X120398038Y-143540866D01*
X120418413Y-143554480D01*
X120441046Y-143563855D01*
X120455987Y-143568388D01*
X120462449Y-143571842D01*
X120472889Y-143580410D01*
X120694716Y-143802237D01*
X120703284Y-143812677D01*
X120706739Y-143819140D01*
X120711271Y-143834080D01*
X120720649Y-143856718D01*
X120734263Y-143877093D01*
X120751590Y-143894420D01*
X120771965Y-143908033D01*
X120794600Y-143917409D01*
X120809540Y-143921941D01*
X120816003Y-143925396D01*
X120826443Y-143933964D01*
X121048270Y-144155791D01*
X121056838Y-144166231D01*
X121060292Y-144172693D01*
X121064825Y-144187634D01*
X121074203Y-144210273D01*
X121087818Y-144230647D01*
X121105145Y-144247973D01*
X121125520Y-144261587D01*
X121148153Y-144270962D01*
X121163094Y-144275495D01*
X121169556Y-144278949D01*
X121179996Y-144287517D01*
X121401823Y-144509344D01*
X121410391Y-144519784D01*
X121413845Y-144526246D01*
X121418378Y-144541187D01*
X121427756Y-144563826D01*
X121441371Y-144584200D01*
X121458698Y-144601526D01*
X121479073Y-144615140D01*
X121501706Y-144624515D01*
X121516647Y-144629048D01*
X121523109Y-144632502D01*
X121533549Y-144641070D01*
X121755376Y-144862897D01*
X121763944Y-144873337D01*
X121767399Y-144879800D01*
X121771931Y-144894740D01*
X121781309Y-144917378D01*
X121794923Y-144937753D01*
X121812250Y-144955080D01*
X121832625Y-144968693D01*
X121855260Y-144978069D01*
X121870200Y-144982601D01*
X121876663Y-144986056D01*
X121887103Y-144994624D01*
X122108930Y-145216451D01*
X122117498Y-145226891D01*
X122120952Y-145233353D01*
X122125485Y-145248294D01*
X122134863Y-145270933D01*
X122148478Y-145291307D01*
X122165805Y-145308633D01*
X122186180Y-145322247D01*
X122208813Y-145331622D01*
X122223754Y-145336155D01*
X122230216Y-145339609D01*
X122240656Y-145348177D01*
X122462483Y-145570004D01*
X122471051Y-145580444D01*
X122474505Y-145586906D01*
X122479038Y-145601847D01*
X122488416Y-145624486D01*
X122502031Y-145644860D01*
X122519358Y-145662186D01*
X122539733Y-145675800D01*
X122562366Y-145685175D01*
X122577307Y-145689708D01*
X122583769Y-145693162D01*
X122594209Y-145701730D01*
X122816036Y-145923557D01*
X122824604Y-145933997D01*
X122828059Y-145940460D01*
X122832591Y-145955400D01*
X122841969Y-145978038D01*
X122855583Y-145998413D01*
X122872910Y-146015740D01*
X122893285Y-146029353D01*
X122915920Y-146038729D01*
X122930860Y-146043261D01*
X122937323Y-146046716D01*
X122947763Y-146055284D01*
X123169590Y-146277111D01*
X123178158Y-146287551D01*
X123181612Y-146294013D01*
X123186145Y-146308954D01*
X123195523Y-146331593D01*
X123209138Y-146351967D01*
X123226465Y-146369293D01*
X123246840Y-146382907D01*
X123269473Y-146392282D01*
X123284414Y-146396815D01*
X123290876Y-146400269D01*
X123301316Y-146408837D01*
X123523143Y-146630664D01*
X123531711Y-146641104D01*
X123535166Y-146647567D01*
X123539698Y-146662507D01*
X123549076Y-146685145D01*
X123562690Y-146705520D01*
X123580017Y-146722847D01*
X123600392Y-146736460D01*
X123623027Y-146745836D01*
X123637967Y-146750368D01*
X123644430Y-146753823D01*
X123654870Y-146762391D01*
X123876697Y-146984218D01*
X123885265Y-146994658D01*
X123888719Y-147001120D01*
X123893252Y-147016061D01*
X123902630Y-147038700D01*
X123916245Y-147059074D01*
X123933572Y-147076400D01*
X123953947Y-147090014D01*
X123976580Y-147099389D01*
X123991521Y-147103922D01*
X123997983Y-147107376D01*
X124008423Y-147115944D01*
X124230250Y-147337771D01*
X124238818Y-147348211D01*
X124242272Y-147354673D01*
X124246805Y-147369614D01*
X124256183Y-147392253D01*
X124269798Y-147412627D01*
X124287125Y-147429953D01*
X124307500Y-147443567D01*
X124330133Y-147452942D01*
X124345074Y-147457475D01*
X124351536Y-147460929D01*
X124361976Y-147469497D01*
X124583803Y-147691324D01*
X124592371Y-147701764D01*
X124595826Y-147708227D01*
X124597955Y-147715246D01*
X124598673Y-147722539D01*
X124597955Y-147729832D01*
X124595826Y-147736851D01*
X124592371Y-147743314D01*
X124583803Y-147753754D01*
X123478092Y-148859465D01*
X123467652Y-148868033D01*
X123461189Y-148871488D01*
X123454170Y-148873617D01*
X123446877Y-148874335D01*
X123439584Y-148873617D01*
X123432565Y-148871488D01*
X123426102Y-148868033D01*
X123415662Y-148859465D01*
X123193835Y-148637638D01*
X123185267Y-148627198D01*
X123181813Y-148620736D01*
X123177280Y-148605795D01*
X123167902Y-148583156D01*
X123154287Y-148562782D01*
X123136960Y-148545456D01*
X123116585Y-148531842D01*
X123093952Y-148522467D01*
X123079011Y-148517934D01*
X123072549Y-148514480D01*
X123062109Y-148505912D01*
X122840282Y-148284085D01*
X122831714Y-148273645D01*
X122828260Y-148267183D01*
X122823727Y-148252242D01*
X122814349Y-148229603D01*
X122800734Y-148209229D01*
X122783407Y-148191903D01*
X122763032Y-148178289D01*
X122740399Y-148168914D01*
X122725458Y-148164381D01*
X122718996Y-148160927D01*
X122708556Y-148152359D01*
X122486729Y-147930532D01*
X122478161Y-147920092D01*
X122474706Y-147913629D01*
X122470174Y-147898689D01*
X122460796Y-147876051D01*
X122447182Y-147855676D01*
X122429855Y-147838349D01*
X122409480Y-147824736D01*
X122386845Y-147815360D01*
X122371905Y-147810828D01*
X122365442Y-147807373D01*
X122355002Y-147798805D01*
X122133175Y-147576978D01*
X122124607Y-147566538D01*
X122121153Y-147560076D01*
X122116620Y-147545135D01*
X122107242Y-147522496D01*
X122093627Y-147502122D01*
X122076300Y-147484796D01*
X122055925Y-147471182D01*
X122033292Y-147461807D01*
X122018351Y-147457274D01*
X122011889Y-147453820D01*
X122001449Y-147445252D01*
X121779622Y-147223425D01*
X121771054Y-147212985D01*
X121767599Y-147206522D01*
X121763067Y-147191582D01*
X121753689Y-147168944D01*
X121740075Y-147148569D01*
X121722748Y-147131242D01*
X121702373Y-147117629D01*
X121679738Y-147108253D01*
X121664798Y-147103721D01*
X121658335Y-147100266D01*
X121647895Y-147091698D01*
X121426068Y-146869871D01*
X121417500Y-146859431D01*
X121414046Y-146852969D01*
X121409513Y-146838028D01*
X121400135Y-146815389D01*
X121386520Y-146795015D01*
X121369193Y-146777689D01*
X121348818Y-146764075D01*
X121326185Y-146754700D01*
X121311244Y-146750167D01*
X121304782Y-146746713D01*
X121294342Y-146738145D01*
X121072515Y-146516318D01*
X121063947Y-146505878D01*
X121060493Y-146499416D01*
X121055960Y-146484475D01*
X121046582Y-146461836D01*
X121032967Y-146441462D01*
X121015640Y-146424136D01*
X120995265Y-146410522D01*
X120972632Y-146401147D01*
X120957691Y-146396614D01*
X120951229Y-146393160D01*
X120940789Y-146384592D01*
X120718962Y-146162765D01*
X120710394Y-146152325D01*
X120706939Y-146145862D01*
X120702407Y-146130922D01*
X120693029Y-146108284D01*
X120679415Y-146087909D01*
X120662088Y-146070582D01*
X120641713Y-146056969D01*
X120619078Y-146047593D01*
X120604138Y-146043061D01*
X120597675Y-146039606D01*
X120587235Y-146031038D01*
X120365408Y-145809211D01*
X120356840Y-145798771D01*
X120353386Y-145792309D01*
X120348853Y-145777368D01*
X120339475Y-145754729D01*
X120325860Y-145734355D01*
X120308533Y-145717029D01*
X120288158Y-145703415D01*
X120265525Y-145694040D01*
X120250584Y-145689507D01*
X120244122Y-145686053D01*
X120233682Y-145677485D01*
X120011855Y-145455658D01*
X120003287Y-145445218D01*
X119999833Y-145438756D01*
X119995300Y-145423815D01*
X119985922Y-145401176D01*
X119972307Y-145380802D01*
X119954980Y-145363476D01*
X119934605Y-145349862D01*
X119911972Y-145340487D01*
X119897031Y-145335954D01*
X119890569Y-145332500D01*
X119880129Y-145323932D01*
X119658302Y-145102105D01*
X119649734Y-145091665D01*
X119646279Y-145085202D01*
X119641747Y-145070262D01*
X119632369Y-145047624D01*
X119618755Y-145027249D01*
X119601428Y-145009922D01*
X119581053Y-144996309D01*
X119558418Y-144986933D01*
X119543478Y-144982401D01*
X119537015Y-144978946D01*
X119526575Y-144970378D01*
X119304748Y-144748551D01*
X119296180Y-144738111D01*
X119292726Y-144731649D01*
X119288193Y-144716708D01*
X119278815Y-144694069D01*
X119265200Y-144673695D01*
X119247873Y-144656369D01*
X119227498Y-144642755D01*
X119204865Y-144633380D01*
X119189924Y-144628847D01*
X119183462Y-144625393D01*
X119173022Y-144616825D01*
X118951195Y-144394998D01*
X118942627Y-144384558D01*
X118939172Y-144378095D01*
X118934640Y-144363155D01*
X118925262Y-144340517D01*
X118911648Y-144320142D01*
X118894321Y-144302815D01*
X118873946Y-144289202D01*
X118851311Y-144279826D01*
X118836371Y-144275294D01*
X118829908Y-144271839D01*
X118819468Y-144263271D01*
X118597641Y-144041444D01*
X118589073Y-144031004D01*
X118585619Y-144024542D01*
X118581086Y-144009601D01*
X118571708Y-143986962D01*
X118558093Y-143966588D01*
X118540766Y-143949262D01*
X118520391Y-143935648D01*
X118497758Y-143926273D01*
X118482817Y-143921740D01*
X118476355Y-143918286D01*
X118465915Y-143909718D01*
X118244088Y-143687891D01*
X118235520Y-143677451D01*
X118232066Y-143670989D01*
X118227533Y-143656048D01*
X118218155Y-143633409D01*
X118204540Y-143613035D01*
X118187213Y-143595709D01*
X118166838Y-143582095D01*
X118144205Y-143572720D01*
X118129264Y-143568187D01*
X118122802Y-143564733D01*
X118112362Y-143556165D01*
X117890535Y-143334338D01*
X117881967Y-143323898D01*
X117878512Y-143317435D01*
X117876383Y-143310416D01*
X117875665Y-143303123D01*
X117876383Y-143295830D01*
X117878512Y-143288811D01*
X117881967Y-143282348D01*
X117890535Y-143271908D01*
X118996246Y-142166197D01*
X119006686Y-142157629D01*
X119013149Y-142154174D01*
X119020168Y-142152045D01*
X119027461Y-142151327D01*
X119034754Y-142152045D01*
X119034754Y-142152045D01*
G37*
G36*
X145407025Y-147210590D02*
X145558012Y-147256392D01*
X145697165Y-147330770D01*
X145819133Y-147430867D01*
X145919230Y-147552835D01*
X145993608Y-147691988D01*
X146039410Y-147842975D01*
X146054875Y-148000000D01*
X146039410Y-148157025D01*
X145993608Y-148308012D01*
X145919230Y-148447165D01*
X145819133Y-148569133D01*
X145697165Y-148669230D01*
X145558012Y-148743608D01*
X145407025Y-148789410D01*
X145289346Y-148801000D01*
X144210654Y-148801000D01*
X144092975Y-148789410D01*
X143941988Y-148743608D01*
X143802835Y-148669230D01*
X143680867Y-148569133D01*
X143580770Y-148447165D01*
X143506392Y-148308012D01*
X143460590Y-148157025D01*
X143445125Y-148000000D01*
X143460590Y-147842975D01*
X143506392Y-147691988D01*
X143580770Y-147552835D01*
X143680867Y-147430867D01*
X143802835Y-147330770D01*
X143941988Y-147256392D01*
X144092975Y-147210590D01*
X144210654Y-147199000D01*
X145289346Y-147199000D01*
X145407025Y-147210590D01*
X145407025Y-147210590D01*
G37*
G36*
X104151000Y-148796000D02*
X102549000Y-148796000D01*
X102549000Y-148094000D01*
X104151000Y-148094000D01*
X104151000Y-148796000D01*
X104151000Y-148796000D01*
G37*
G36*
X113451000Y-148796000D02*
X111849000Y-148796000D01*
X111849000Y-148094000D01*
X113451000Y-148094000D01*
X113451000Y-148796000D01*
X113451000Y-148796000D01*
G37*
G36*
X102081000Y-147901000D02*
X100979000Y-147901000D01*
X100979000Y-146599000D01*
X102081000Y-146599000D01*
X102081000Y-147901000D01*
X102081000Y-147901000D01*
G37*
G36*
X100521000Y-147901000D02*
X99419000Y-147901000D01*
X99419000Y-146599000D01*
X100521000Y-146599000D01*
X100521000Y-147901000D01*
X100521000Y-147901000D01*
G37*
G36*
X115101000Y-147901000D02*
X113999000Y-147901000D01*
X113999000Y-146599000D01*
X115101000Y-146599000D01*
X115101000Y-147901000D01*
X115101000Y-147901000D01*
G37*
G36*
X116981000Y-147901000D02*
X115879000Y-147901000D01*
X115879000Y-146599000D01*
X116981000Y-146599000D01*
X116981000Y-147901000D01*
X116981000Y-147901000D01*
G37*
G36*
X113451000Y-147526000D02*
X111849000Y-147526000D01*
X111849000Y-146824000D01*
X113451000Y-146824000D01*
X113451000Y-147526000D01*
X113451000Y-147526000D01*
G37*
G36*
X104151000Y-147526000D02*
X102549000Y-147526000D01*
X102549000Y-146824000D01*
X104151000Y-146824000D01*
X104151000Y-147526000D01*
X104151000Y-147526000D01*
G37*
G36*
X145407025Y-144710590D02*
X145558012Y-144756392D01*
X145697165Y-144830770D01*
X145819133Y-144930867D01*
X145919230Y-145052835D01*
X145993608Y-145191988D01*
X146039410Y-145342975D01*
X146054875Y-145500000D01*
X146039410Y-145657025D01*
X145993608Y-145808012D01*
X145919230Y-145947165D01*
X145819133Y-146069133D01*
X145697165Y-146169230D01*
X145558012Y-146243608D01*
X145407025Y-146289410D01*
X145289346Y-146301000D01*
X144210654Y-146301000D01*
X144092975Y-146289410D01*
X143941988Y-146243608D01*
X143802835Y-146169230D01*
X143680867Y-146069133D01*
X143580770Y-145947165D01*
X143506392Y-145808012D01*
X143460590Y-145657025D01*
X143445125Y-145500000D01*
X143460590Y-145342975D01*
X143506392Y-145191988D01*
X143580770Y-145052835D01*
X143680867Y-144930867D01*
X143802835Y-144830770D01*
X143941988Y-144756392D01*
X144092975Y-144710590D01*
X144210654Y-144699000D01*
X145289346Y-144699000D01*
X145407025Y-144710590D01*
X145407025Y-144710590D01*
G37*
G36*
X104151000Y-146256000D02*
X102549000Y-146256000D01*
X102549000Y-145554000D01*
X104151000Y-145554000D01*
X104151000Y-146256000D01*
X104151000Y-146256000D01*
G37*
G36*
X113451000Y-146256000D02*
X111849000Y-146256000D01*
X111849000Y-145554000D01*
X113451000Y-145554000D01*
X113451000Y-146256000D01*
X113451000Y-146256000D01*
G37*
G36*
X104151000Y-144986000D02*
X102549000Y-144986000D01*
X102549000Y-144284000D01*
X104151000Y-144284000D01*
X104151000Y-144986000D01*
X104151000Y-144986000D01*
G37*
G36*
X113451000Y-144986000D02*
X111849000Y-144986000D01*
X111849000Y-144284000D01*
X113451000Y-144284000D01*
X113451000Y-144986000D01*
X113451000Y-144986000D01*
G37*
G36*
X113451000Y-143716000D02*
X111849000Y-143716000D01*
X111849000Y-143014000D01*
X113451000Y-143014000D01*
X113451000Y-143716000D01*
X113451000Y-143716000D01*
G37*
G36*
X104151000Y-143716000D02*
X102549000Y-143716000D01*
X102549000Y-143014000D01*
X104151000Y-143014000D01*
X104151000Y-143716000D01*
X104151000Y-143716000D01*
G37*
G36*
X113451000Y-142446000D02*
X111849000Y-142446000D01*
X111849000Y-141744000D01*
X113451000Y-141744000D01*
X113451000Y-142446000D01*
X113451000Y-142446000D01*
G37*
G36*
X104151000Y-142446000D02*
X102549000Y-142446000D01*
X102549000Y-141744000D01*
X104151000Y-141744000D01*
X104151000Y-142446000D01*
X104151000Y-142446000D01*
G37*
G36*
X64051000Y-141801000D02*
X60949000Y-141801000D01*
X60949000Y-128699000D01*
X64051000Y-128699000D01*
X64051000Y-141801000D01*
X64051000Y-141801000D01*
G37*
G36*
X90801000Y-141801000D02*
X87699000Y-141801000D01*
X87699000Y-128699000D01*
X90801000Y-128699000D01*
X90801000Y-141801000D01*
X90801000Y-141801000D01*
G37*
G36*
X145407025Y-139710590D02*
X145558012Y-139756392D01*
X145697165Y-139830770D01*
X145819133Y-139930867D01*
X145919230Y-140052835D01*
X145993608Y-140191988D01*
X146039410Y-140342975D01*
X146054875Y-140500000D01*
X146039410Y-140657025D01*
X145993608Y-140808012D01*
X145919230Y-140947165D01*
X145819133Y-141069133D01*
X145697165Y-141169230D01*
X145558012Y-141243608D01*
X145407025Y-141289410D01*
X145289346Y-141301000D01*
X144210654Y-141301000D01*
X144092975Y-141289410D01*
X143941988Y-141243608D01*
X143802835Y-141169230D01*
X143680867Y-141069133D01*
X143580770Y-140947165D01*
X143506392Y-140808012D01*
X143460590Y-140657025D01*
X143445125Y-140500000D01*
X143460590Y-140342975D01*
X143506392Y-140191988D01*
X143580770Y-140052835D01*
X143680867Y-139930867D01*
X143802835Y-139830770D01*
X143941988Y-139756392D01*
X144092975Y-139710590D01*
X144210654Y-139699000D01*
X145289346Y-139699000D01*
X145407025Y-139710590D01*
X145407025Y-139710590D01*
G37*
G36*
X104151000Y-141176000D02*
X102549000Y-141176000D01*
X102549000Y-140474000D01*
X104151000Y-140474000D01*
X104151000Y-141176000D01*
X104151000Y-141176000D01*
G37*
G36*
X113451000Y-141176000D02*
X111849000Y-141176000D01*
X111849000Y-140474000D01*
X113451000Y-140474000D01*
X113451000Y-141176000D01*
X113451000Y-141176000D01*
G37*
G36*
X127060416Y-134126383D02*
X127067435Y-134128512D01*
X127073898Y-134131967D01*
X127084338Y-134140535D01*
X127306165Y-134362362D01*
X127314733Y-134372802D01*
X127318187Y-134379264D01*
X127322720Y-134394205D01*
X127332098Y-134416844D01*
X127345713Y-134437218D01*
X127363040Y-134454544D01*
X127383415Y-134468158D01*
X127406048Y-134477533D01*
X127420989Y-134482066D01*
X127427451Y-134485520D01*
X127437891Y-134494088D01*
X127659718Y-134715915D01*
X127668286Y-134726355D01*
X127671740Y-134732817D01*
X127676273Y-134747758D01*
X127685651Y-134770397D01*
X127699266Y-134790771D01*
X127716593Y-134808097D01*
X127736968Y-134821711D01*
X127759601Y-134831086D01*
X127774542Y-134835619D01*
X127781004Y-134839073D01*
X127791444Y-134847641D01*
X128013271Y-135069468D01*
X128021839Y-135079908D01*
X128025294Y-135086371D01*
X128029826Y-135101311D01*
X128039204Y-135123949D01*
X128052818Y-135144324D01*
X128070145Y-135161651D01*
X128090520Y-135175264D01*
X128113155Y-135184640D01*
X128128095Y-135189172D01*
X128134558Y-135192627D01*
X128144998Y-135201195D01*
X128366825Y-135423022D01*
X128375393Y-135433462D01*
X128378847Y-135439924D01*
X128383380Y-135454865D01*
X128392758Y-135477504D01*
X128406373Y-135497878D01*
X128423700Y-135515204D01*
X128444075Y-135528818D01*
X128466708Y-135538193D01*
X128481649Y-135542726D01*
X128488111Y-135546180D01*
X128498551Y-135554748D01*
X128720378Y-135776575D01*
X128728946Y-135787015D01*
X128732401Y-135793478D01*
X128736933Y-135808418D01*
X128746311Y-135831056D01*
X128759925Y-135851431D01*
X128777252Y-135868758D01*
X128797627Y-135882371D01*
X128820262Y-135891747D01*
X128835202Y-135896279D01*
X128841665Y-135899734D01*
X128852105Y-135908302D01*
X129073932Y-136130129D01*
X129082500Y-136140569D01*
X129085954Y-136147031D01*
X129090487Y-136161972D01*
X129099865Y-136184611D01*
X129113480Y-136204985D01*
X129130807Y-136222311D01*
X129151182Y-136235925D01*
X129173815Y-136245300D01*
X129188756Y-136249833D01*
X129195218Y-136253287D01*
X129205658Y-136261855D01*
X129427485Y-136483682D01*
X129436053Y-136494122D01*
X129439507Y-136500584D01*
X129444040Y-136515525D01*
X129453418Y-136538164D01*
X129467033Y-136558538D01*
X129484360Y-136575864D01*
X129504735Y-136589478D01*
X129527368Y-136598853D01*
X129542309Y-136603386D01*
X129548771Y-136606840D01*
X129559211Y-136615408D01*
X129781038Y-136837235D01*
X129789606Y-136847675D01*
X129793061Y-136854138D01*
X129797593Y-136869078D01*
X129806971Y-136891716D01*
X129820585Y-136912091D01*
X129837912Y-136929418D01*
X129858287Y-136943031D01*
X129880922Y-136952407D01*
X129895862Y-136956939D01*
X129902325Y-136960394D01*
X129912765Y-136968962D01*
X130134592Y-137190789D01*
X130143160Y-137201229D01*
X130146614Y-137207691D01*
X130151147Y-137222632D01*
X130160525Y-137245271D01*
X130174140Y-137265645D01*
X130191467Y-137282971D01*
X130211842Y-137296585D01*
X130234475Y-137305960D01*
X130249416Y-137310493D01*
X130255878Y-137313947D01*
X130266318Y-137322515D01*
X130488145Y-137544342D01*
X130496713Y-137554782D01*
X130500167Y-137561244D01*
X130504700Y-137576185D01*
X130514078Y-137598824D01*
X130527693Y-137619198D01*
X130545020Y-137636524D01*
X130565395Y-137650138D01*
X130588028Y-137659513D01*
X130602969Y-137664046D01*
X130609431Y-137667500D01*
X130619871Y-137676068D01*
X130841698Y-137897895D01*
X130850266Y-137908335D01*
X130853721Y-137914798D01*
X130858253Y-137929738D01*
X130867631Y-137952376D01*
X130881245Y-137972751D01*
X130898572Y-137990078D01*
X130918947Y-138003691D01*
X130941582Y-138013067D01*
X130956522Y-138017599D01*
X130962985Y-138021054D01*
X130973425Y-138029622D01*
X131195252Y-138251449D01*
X131203820Y-138261889D01*
X131207274Y-138268351D01*
X131211807Y-138283292D01*
X131221185Y-138305931D01*
X131234800Y-138326305D01*
X131252127Y-138343631D01*
X131272502Y-138357245D01*
X131295135Y-138366620D01*
X131310076Y-138371153D01*
X131316538Y-138374607D01*
X131326978Y-138383175D01*
X131548805Y-138605002D01*
X131557373Y-138615442D01*
X131560828Y-138621905D01*
X131565360Y-138636845D01*
X131574738Y-138659483D01*
X131588352Y-138679858D01*
X131605679Y-138697185D01*
X131626054Y-138710798D01*
X131648689Y-138720174D01*
X131663629Y-138724706D01*
X131670092Y-138728161D01*
X131680532Y-138736729D01*
X131902359Y-138958556D01*
X131910927Y-138968996D01*
X131914381Y-138975458D01*
X131918914Y-138990399D01*
X131928292Y-139013038D01*
X131941907Y-139033412D01*
X131959234Y-139050738D01*
X131979609Y-139064352D01*
X132002242Y-139073727D01*
X132017183Y-139078260D01*
X132023645Y-139081714D01*
X132034085Y-139090282D01*
X132255912Y-139312109D01*
X132264480Y-139322549D01*
X132267934Y-139329011D01*
X132272467Y-139343952D01*
X132281845Y-139366591D01*
X132295460Y-139386965D01*
X132312787Y-139404291D01*
X132333162Y-139417905D01*
X132355795Y-139427280D01*
X132370736Y-139431813D01*
X132377198Y-139435267D01*
X132387638Y-139443835D01*
X132609465Y-139665662D01*
X132618033Y-139676102D01*
X132621488Y-139682565D01*
X132623617Y-139689584D01*
X132624335Y-139696877D01*
X132623617Y-139704170D01*
X132621488Y-139711189D01*
X132618033Y-139717652D01*
X132609465Y-139728092D01*
X131503754Y-140833803D01*
X131493314Y-140842371D01*
X131486851Y-140845826D01*
X131479832Y-140847955D01*
X131472539Y-140848673D01*
X131465246Y-140847955D01*
X131458227Y-140845826D01*
X131451764Y-140842371D01*
X131441324Y-140833803D01*
X131219497Y-140611976D01*
X131210929Y-140601536D01*
X131207475Y-140595074D01*
X131202942Y-140580133D01*
X131193564Y-140557494D01*
X131179949Y-140537120D01*
X131162622Y-140519794D01*
X131142247Y-140506180D01*
X131119614Y-140496805D01*
X131104673Y-140492272D01*
X131098211Y-140488818D01*
X131087771Y-140480250D01*
X130865944Y-140258423D01*
X130857376Y-140247983D01*
X130853922Y-140241521D01*
X130849389Y-140226580D01*
X130840011Y-140203941D01*
X130826396Y-140183567D01*
X130809069Y-140166241D01*
X130788694Y-140152627D01*
X130766061Y-140143252D01*
X130751120Y-140138719D01*
X130744658Y-140135265D01*
X130734218Y-140126697D01*
X130512391Y-139904870D01*
X130503823Y-139894430D01*
X130500368Y-139887967D01*
X130495836Y-139873027D01*
X130486458Y-139850389D01*
X130472844Y-139830014D01*
X130455517Y-139812687D01*
X130435142Y-139799074D01*
X130412507Y-139789698D01*
X130397567Y-139785166D01*
X130391104Y-139781711D01*
X130380664Y-139773143D01*
X130158837Y-139551316D01*
X130150269Y-139540876D01*
X130146815Y-139534414D01*
X130142282Y-139519473D01*
X130132904Y-139496834D01*
X130119289Y-139476460D01*
X130101962Y-139459134D01*
X130081587Y-139445520D01*
X130058954Y-139436145D01*
X130044013Y-139431612D01*
X130037551Y-139428158D01*
X130027111Y-139419590D01*
X129805284Y-139197763D01*
X129796716Y-139187323D01*
X129793261Y-139180860D01*
X129788729Y-139165920D01*
X129779351Y-139143282D01*
X129765737Y-139122907D01*
X129748410Y-139105580D01*
X129728035Y-139091967D01*
X129705400Y-139082591D01*
X129690460Y-139078059D01*
X129683997Y-139074604D01*
X129673557Y-139066036D01*
X129451730Y-138844209D01*
X129443162Y-138833769D01*
X129439708Y-138827307D01*
X129435175Y-138812366D01*
X129425797Y-138789727D01*
X129412182Y-138769353D01*
X129394855Y-138752027D01*
X129374480Y-138738413D01*
X129351847Y-138729038D01*
X129336906Y-138724505D01*
X129330444Y-138721051D01*
X129320004Y-138712483D01*
X129098177Y-138490656D01*
X129089609Y-138480216D01*
X129086155Y-138473754D01*
X129081622Y-138458813D01*
X129072244Y-138436174D01*
X129058629Y-138415800D01*
X129041302Y-138398474D01*
X129020927Y-138384860D01*
X128998294Y-138375485D01*
X128983353Y-138370952D01*
X128976891Y-138367498D01*
X128966451Y-138358930D01*
X128744624Y-138137103D01*
X128736056Y-138126663D01*
X128732601Y-138120200D01*
X128728069Y-138105260D01*
X128718691Y-138082622D01*
X128705077Y-138062247D01*
X128687750Y-138044920D01*
X128667375Y-138031307D01*
X128644740Y-138021931D01*
X128629800Y-138017399D01*
X128623337Y-138013944D01*
X128612897Y-138005376D01*
X128391070Y-137783549D01*
X128382502Y-137773109D01*
X128379048Y-137766647D01*
X128374515Y-137751706D01*
X128365137Y-137729067D01*
X128351522Y-137708693D01*
X128334195Y-137691367D01*
X128313820Y-137677753D01*
X128291187Y-137668378D01*
X128276246Y-137663845D01*
X128269784Y-137660391D01*
X128259344Y-137651823D01*
X128037517Y-137429996D01*
X128028949Y-137419556D01*
X128025495Y-137413094D01*
X128020962Y-137398153D01*
X128011584Y-137375514D01*
X127997969Y-137355140D01*
X127980642Y-137337814D01*
X127960267Y-137324200D01*
X127937634Y-137314825D01*
X127922693Y-137310292D01*
X127916231Y-137306838D01*
X127905791Y-137298270D01*
X127683964Y-137076443D01*
X127675396Y-137066003D01*
X127671941Y-137059540D01*
X127667409Y-137044600D01*
X127658031Y-137021962D01*
X127644417Y-137001587D01*
X127627090Y-136984260D01*
X127606715Y-136970647D01*
X127584080Y-136961271D01*
X127569140Y-136956739D01*
X127562677Y-136953284D01*
X127552237Y-136944716D01*
X127330410Y-136722889D01*
X127321842Y-136712449D01*
X127318388Y-136705987D01*
X127313855Y-136691046D01*
X127304477Y-136668407D01*
X127290862Y-136648033D01*
X127273535Y-136630707D01*
X127253160Y-136617093D01*
X127230527Y-136607718D01*
X127215586Y-136603185D01*
X127209124Y-136599731D01*
X127198684Y-136591163D01*
X126976857Y-136369336D01*
X126968289Y-136358896D01*
X126964834Y-136352433D01*
X126960302Y-136337493D01*
X126950924Y-136314855D01*
X126937310Y-136294480D01*
X126919983Y-136277153D01*
X126899608Y-136263540D01*
X126876973Y-136254164D01*
X126862033Y-136249632D01*
X126855570Y-136246177D01*
X126845130Y-136237609D01*
X126623303Y-136015782D01*
X126614735Y-136005342D01*
X126611281Y-135998880D01*
X126606748Y-135983939D01*
X126597370Y-135961300D01*
X126583755Y-135940926D01*
X126566428Y-135923600D01*
X126546053Y-135909986D01*
X126523420Y-135900611D01*
X126508479Y-135896078D01*
X126502017Y-135892624D01*
X126491577Y-135884056D01*
X126269750Y-135662229D01*
X126261182Y-135651789D01*
X126257728Y-135645327D01*
X126253195Y-135630386D01*
X126243817Y-135607747D01*
X126230202Y-135587373D01*
X126212875Y-135570047D01*
X126192500Y-135556433D01*
X126169867Y-135547058D01*
X126154926Y-135542525D01*
X126148464Y-135539071D01*
X126138024Y-135530503D01*
X125916197Y-135308676D01*
X125907629Y-135298236D01*
X125904174Y-135291773D01*
X125902045Y-135284754D01*
X125901327Y-135277461D01*
X125902045Y-135270168D01*
X125904174Y-135263149D01*
X125907629Y-135256686D01*
X125916197Y-135246246D01*
X127021908Y-134140535D01*
X127032348Y-134131967D01*
X127038811Y-134128512D01*
X127045830Y-134126383D01*
X127053123Y-134125665D01*
X127060416Y-134126383D01*
X127060416Y-134126383D01*
G37*
G36*
X123454170Y-134126383D02*
X123461189Y-134128512D01*
X123467652Y-134131967D01*
X123478092Y-134140535D01*
X124583803Y-135246246D01*
X124592371Y-135256686D01*
X124595826Y-135263149D01*
X124597955Y-135270168D01*
X124598673Y-135277461D01*
X124597955Y-135284754D01*
X124595826Y-135291773D01*
X124592371Y-135298236D01*
X124583803Y-135308676D01*
X124361976Y-135530503D01*
X124351536Y-135539071D01*
X124345074Y-135542525D01*
X124330133Y-135547058D01*
X124307494Y-135556436D01*
X124287120Y-135570051D01*
X124269794Y-135587378D01*
X124256180Y-135607753D01*
X124246805Y-135630386D01*
X124242272Y-135645327D01*
X124238818Y-135651789D01*
X124230250Y-135662229D01*
X124008423Y-135884056D01*
X123997983Y-135892624D01*
X123991521Y-135896078D01*
X123976580Y-135900611D01*
X123953941Y-135909989D01*
X123933567Y-135923604D01*
X123916241Y-135940931D01*
X123902627Y-135961306D01*
X123893252Y-135983939D01*
X123888719Y-135998880D01*
X123885265Y-136005342D01*
X123876697Y-136015782D01*
X123654870Y-136237609D01*
X123644430Y-136246177D01*
X123637967Y-136249632D01*
X123623027Y-136254164D01*
X123600389Y-136263542D01*
X123580014Y-136277156D01*
X123562687Y-136294483D01*
X123549074Y-136314858D01*
X123539698Y-136337493D01*
X123535166Y-136352433D01*
X123531711Y-136358896D01*
X123523143Y-136369336D01*
X123301316Y-136591163D01*
X123290876Y-136599731D01*
X123284414Y-136603185D01*
X123269473Y-136607718D01*
X123246834Y-136617096D01*
X123226460Y-136630711D01*
X123209134Y-136648038D01*
X123195520Y-136668413D01*
X123186145Y-136691046D01*
X123181612Y-136705987D01*
X123178158Y-136712449D01*
X123169590Y-136722889D01*
X122947763Y-136944716D01*
X122937323Y-136953284D01*
X122930860Y-136956739D01*
X122915920Y-136961271D01*
X122893282Y-136970649D01*
X122872907Y-136984263D01*
X122855580Y-137001590D01*
X122841967Y-137021965D01*
X122832591Y-137044600D01*
X122828059Y-137059540D01*
X122824604Y-137066003D01*
X122816036Y-137076443D01*
X122594209Y-137298270D01*
X122583769Y-137306838D01*
X122577307Y-137310292D01*
X122562366Y-137314825D01*
X122539727Y-137324203D01*
X122519353Y-137337818D01*
X122502027Y-137355145D01*
X122488413Y-137375520D01*
X122479038Y-137398153D01*
X122474505Y-137413094D01*
X122471051Y-137419556D01*
X122462483Y-137429996D01*
X122240656Y-137651823D01*
X122230216Y-137660391D01*
X122223754Y-137663845D01*
X122208813Y-137668378D01*
X122186174Y-137677756D01*
X122165800Y-137691371D01*
X122148474Y-137708698D01*
X122134860Y-137729073D01*
X122125485Y-137751706D01*
X122120952Y-137766647D01*
X122117498Y-137773109D01*
X122108930Y-137783549D01*
X121887103Y-138005376D01*
X121876663Y-138013944D01*
X121870200Y-138017399D01*
X121855260Y-138021931D01*
X121832622Y-138031309D01*
X121812247Y-138044923D01*
X121794920Y-138062250D01*
X121781307Y-138082625D01*
X121771931Y-138105260D01*
X121767399Y-138120200D01*
X121763944Y-138126663D01*
X121755376Y-138137103D01*
X121533549Y-138358930D01*
X121523109Y-138367498D01*
X121516647Y-138370952D01*
X121501706Y-138375485D01*
X121479067Y-138384863D01*
X121458693Y-138398478D01*
X121441367Y-138415805D01*
X121427753Y-138436180D01*
X121418378Y-138458813D01*
X121413845Y-138473754D01*
X121410391Y-138480216D01*
X121401823Y-138490656D01*
X121179996Y-138712483D01*
X121169556Y-138721051D01*
X121163094Y-138724505D01*
X121148153Y-138729038D01*
X121125514Y-138738416D01*
X121105140Y-138752031D01*
X121087814Y-138769358D01*
X121074200Y-138789733D01*
X121064825Y-138812366D01*
X121060292Y-138827307D01*
X121056838Y-138833769D01*
X121048270Y-138844209D01*
X120826443Y-139066036D01*
X120816003Y-139074604D01*
X120809540Y-139078059D01*
X120794600Y-139082591D01*
X120771962Y-139091969D01*
X120751587Y-139105583D01*
X120734260Y-139122910D01*
X120720647Y-139143285D01*
X120711271Y-139165920D01*
X120706739Y-139180860D01*
X120703284Y-139187323D01*
X120694716Y-139197763D01*
X120472889Y-139419590D01*
X120462449Y-139428158D01*
X120455987Y-139431612D01*
X120441046Y-139436145D01*
X120418407Y-139445523D01*
X120398033Y-139459138D01*
X120380707Y-139476465D01*
X120367093Y-139496840D01*
X120357718Y-139519473D01*
X120353185Y-139534414D01*
X120349731Y-139540876D01*
X120341163Y-139551316D01*
X120119336Y-139773143D01*
X120108896Y-139781711D01*
X120102433Y-139785166D01*
X120087493Y-139789698D01*
X120064855Y-139799076D01*
X120044480Y-139812690D01*
X120027153Y-139830017D01*
X120013540Y-139850392D01*
X120004164Y-139873027D01*
X119999632Y-139887967D01*
X119996177Y-139894430D01*
X119987609Y-139904870D01*
X119765782Y-140126697D01*
X119755342Y-140135265D01*
X119748880Y-140138719D01*
X119733939Y-140143252D01*
X119711300Y-140152630D01*
X119690926Y-140166245D01*
X119673600Y-140183572D01*
X119659986Y-140203947D01*
X119650611Y-140226580D01*
X119646078Y-140241521D01*
X119642624Y-140247983D01*
X119634056Y-140258423D01*
X119412229Y-140480250D01*
X119401789Y-140488818D01*
X119395327Y-140492272D01*
X119380386Y-140496805D01*
X119357747Y-140506183D01*
X119337373Y-140519798D01*
X119320047Y-140537125D01*
X119306433Y-140557500D01*
X119297058Y-140580133D01*
X119292525Y-140595074D01*
X119289071Y-140601536D01*
X119280503Y-140611976D01*
X119058676Y-140833803D01*
X119048236Y-140842371D01*
X119041773Y-140845826D01*
X119034754Y-140847955D01*
X119027461Y-140848673D01*
X119020168Y-140847955D01*
X119013149Y-140845826D01*
X119006686Y-140842371D01*
X118996246Y-140833803D01*
X117890535Y-139728092D01*
X117881967Y-139717652D01*
X117878512Y-139711189D01*
X117876383Y-139704170D01*
X117875665Y-139696877D01*
X117876383Y-139689584D01*
X117878512Y-139682565D01*
X117881967Y-139676102D01*
X117890535Y-139665662D01*
X118112362Y-139443835D01*
X118122802Y-139435267D01*
X118129264Y-139431813D01*
X118144205Y-139427280D01*
X118166844Y-139417902D01*
X118187218Y-139404287D01*
X118204544Y-139386960D01*
X118218158Y-139366585D01*
X118227533Y-139343952D01*
X118232066Y-139329011D01*
X118235520Y-139322549D01*
X118244088Y-139312109D01*
X118465915Y-139090282D01*
X118476355Y-139081714D01*
X118482817Y-139078260D01*
X118497758Y-139073727D01*
X118520397Y-139064349D01*
X118540771Y-139050734D01*
X118558097Y-139033407D01*
X118571711Y-139013032D01*
X118581086Y-138990399D01*
X118585619Y-138975458D01*
X118589073Y-138968996D01*
X118597641Y-138958556D01*
X118819468Y-138736729D01*
X118829908Y-138728161D01*
X118836371Y-138724706D01*
X118851311Y-138720174D01*
X118873949Y-138710796D01*
X118894324Y-138697182D01*
X118911651Y-138679855D01*
X118925264Y-138659480D01*
X118934640Y-138636845D01*
X118939172Y-138621905D01*
X118942627Y-138615442D01*
X118951195Y-138605002D01*
X119173022Y-138383175D01*
X119183462Y-138374607D01*
X119189924Y-138371153D01*
X119204865Y-138366620D01*
X119227504Y-138357242D01*
X119247878Y-138343627D01*
X119265204Y-138326300D01*
X119278818Y-138305925D01*
X119288193Y-138283292D01*
X119292726Y-138268351D01*
X119296180Y-138261889D01*
X119304748Y-138251449D01*
X119526575Y-138029622D01*
X119537015Y-138021054D01*
X119543478Y-138017599D01*
X119558418Y-138013067D01*
X119581056Y-138003689D01*
X119601431Y-137990075D01*
X119618758Y-137972748D01*
X119632371Y-137952373D01*
X119641747Y-137929738D01*
X119646279Y-137914798D01*
X119649734Y-137908335D01*
X119658302Y-137897895D01*
X119880129Y-137676068D01*
X119890569Y-137667500D01*
X119897031Y-137664046D01*
X119911972Y-137659513D01*
X119934611Y-137650135D01*
X119954985Y-137636520D01*
X119972311Y-137619193D01*
X119985925Y-137598818D01*
X119995300Y-137576185D01*
X119999833Y-137561244D01*
X120003287Y-137554782D01*
X120011855Y-137544342D01*
X120233682Y-137322515D01*
X120244122Y-137313947D01*
X120250584Y-137310493D01*
X120265525Y-137305960D01*
X120288164Y-137296582D01*
X120308538Y-137282967D01*
X120325864Y-137265640D01*
X120339478Y-137245265D01*
X120348853Y-137222632D01*
X120353386Y-137207691D01*
X120356840Y-137201229D01*
X120365408Y-137190789D01*
X120587235Y-136968962D01*
X120597675Y-136960394D01*
X120604138Y-136956939D01*
X120619078Y-136952407D01*
X120641716Y-136943029D01*
X120662091Y-136929415D01*
X120679418Y-136912088D01*
X120693031Y-136891713D01*
X120702407Y-136869078D01*
X120706939Y-136854138D01*
X120710394Y-136847675D01*
X120718962Y-136837235D01*
X120940789Y-136615408D01*
X120951229Y-136606840D01*
X120957691Y-136603386D01*
X120972632Y-136598853D01*
X120995271Y-136589475D01*
X121015645Y-136575860D01*
X121032971Y-136558533D01*
X121046585Y-136538158D01*
X121055960Y-136515525D01*
X121060493Y-136500584D01*
X121063947Y-136494122D01*
X121072515Y-136483682D01*
X121294342Y-136261855D01*
X121304782Y-136253287D01*
X121311244Y-136249833D01*
X121326185Y-136245300D01*
X121348824Y-136235922D01*
X121369198Y-136222307D01*
X121386524Y-136204980D01*
X121400138Y-136184605D01*
X121409513Y-136161972D01*
X121414046Y-136147031D01*
X121417500Y-136140569D01*
X121426068Y-136130129D01*
X121647895Y-135908302D01*
X121658335Y-135899734D01*
X121664798Y-135896279D01*
X121679738Y-135891747D01*
X121702376Y-135882369D01*
X121722751Y-135868755D01*
X121740078Y-135851428D01*
X121753691Y-135831053D01*
X121763067Y-135808418D01*
X121767599Y-135793478D01*
X121771054Y-135787015D01*
X121779622Y-135776575D01*
X122001449Y-135554748D01*
X122011889Y-135546180D01*
X122018351Y-135542726D01*
X122033292Y-135538193D01*
X122055931Y-135528815D01*
X122076305Y-135515200D01*
X122093631Y-135497873D01*
X122107245Y-135477498D01*
X122116620Y-135454865D01*
X122121153Y-135439924D01*
X122124607Y-135433462D01*
X122133175Y-135423022D01*
X122355002Y-135201195D01*
X122365442Y-135192627D01*
X122371905Y-135189172D01*
X122386845Y-135184640D01*
X122409483Y-135175262D01*
X122429858Y-135161648D01*
X122447185Y-135144321D01*
X122460798Y-135123946D01*
X122470174Y-135101311D01*
X122474706Y-135086371D01*
X122478161Y-135079908D01*
X122486729Y-135069468D01*
X122708556Y-134847641D01*
X122718996Y-134839073D01*
X122725458Y-134835619D01*
X122740399Y-134831086D01*
X122763038Y-134821708D01*
X122783412Y-134808093D01*
X122800738Y-134790766D01*
X122814352Y-134770391D01*
X122823727Y-134747758D01*
X122828260Y-134732817D01*
X122831714Y-134726355D01*
X122840282Y-134715915D01*
X123062109Y-134494088D01*
X123072549Y-134485520D01*
X123079011Y-134482066D01*
X123093952Y-134477533D01*
X123116591Y-134468155D01*
X123136965Y-134454540D01*
X123154291Y-134437213D01*
X123167905Y-134416838D01*
X123177280Y-134394205D01*
X123181813Y-134379264D01*
X123185267Y-134372802D01*
X123193835Y-134362362D01*
X123415662Y-134140535D01*
X123426102Y-134131967D01*
X123432565Y-134128512D01*
X123439584Y-134126383D01*
X123446877Y-134125665D01*
X123454170Y-134126383D01*
X123454170Y-134126383D01*
G37*
G36*
X113451000Y-139906000D02*
X111849000Y-139906000D01*
X111849000Y-139204000D01*
X113451000Y-139204000D01*
X113451000Y-139906000D01*
X113451000Y-139906000D01*
G37*
G36*
X104151000Y-139906000D02*
X102549000Y-139906000D01*
X102549000Y-139204000D01*
X104151000Y-139204000D01*
X104151000Y-139906000D01*
X104151000Y-139906000D01*
G37*
G36*
X137327330Y-137558148D02*
X135558148Y-139327330D01*
X134071808Y-137840990D01*
X135840990Y-136071808D01*
X137327330Y-137558148D01*
X137327330Y-137558148D01*
G37*
G36*
X145407025Y-137210590D02*
X145558012Y-137256392D01*
X145697165Y-137330770D01*
X145819133Y-137430867D01*
X145919230Y-137552835D01*
X145993608Y-137691988D01*
X146039410Y-137842975D01*
X146054875Y-138000000D01*
X146039410Y-138157025D01*
X145993608Y-138308012D01*
X145919230Y-138447165D01*
X145819133Y-138569133D01*
X145697165Y-138669230D01*
X145558012Y-138743608D01*
X145407025Y-138789410D01*
X145289346Y-138801000D01*
X144210654Y-138801000D01*
X144092975Y-138789410D01*
X143941988Y-138743608D01*
X143802835Y-138669230D01*
X143680867Y-138569133D01*
X143580770Y-138447165D01*
X143506392Y-138308012D01*
X143460590Y-138157025D01*
X143445125Y-138000000D01*
X143460590Y-137842975D01*
X143506392Y-137691988D01*
X143580770Y-137552835D01*
X143680867Y-137430867D01*
X143802835Y-137330770D01*
X143941988Y-137256392D01*
X144092975Y-137210590D01*
X144210654Y-137199000D01*
X145289346Y-137199000D01*
X145407025Y-137210590D01*
X145407025Y-137210590D01*
G37*
G36*
X138521694Y-135601040D02*
X137601040Y-136521694D01*
X136821808Y-135742462D01*
X137742462Y-134821808D01*
X138521694Y-135601040D01*
X138521694Y-135601040D01*
G37*
G36*
X134428192Y-134659010D02*
X132659010Y-136428192D01*
X131172670Y-134941852D01*
X132941852Y-133172670D01*
X134428192Y-134659010D01*
X134428192Y-134659010D01*
G37*
G36*
X145407025Y-134710590D02*
X145558012Y-134756392D01*
X145697165Y-134830770D01*
X145819133Y-134930867D01*
X145919230Y-135052835D01*
X145993608Y-135191988D01*
X146039410Y-135342975D01*
X146054875Y-135500000D01*
X146039410Y-135657025D01*
X145993608Y-135808012D01*
X145919230Y-135947165D01*
X145819133Y-136069133D01*
X145697165Y-136169230D01*
X145558012Y-136243608D01*
X145407025Y-136289410D01*
X145289346Y-136301000D01*
X144210654Y-136301000D01*
X144092975Y-136289410D01*
X143941988Y-136243608D01*
X143802835Y-136169230D01*
X143680867Y-136069133D01*
X143580770Y-135947165D01*
X143506392Y-135808012D01*
X143460590Y-135657025D01*
X143445125Y-135500000D01*
X143460590Y-135342975D01*
X143506392Y-135191988D01*
X143580770Y-135052835D01*
X143680867Y-134930867D01*
X143802835Y-134830770D01*
X143941988Y-134756392D01*
X144092975Y-134710590D01*
X144210654Y-134699000D01*
X145289346Y-134699000D01*
X145407025Y-134710590D01*
X145407025Y-134710590D01*
G37*
G36*
X115551000Y-135651000D02*
X113949000Y-135651000D01*
X113949000Y-132949000D01*
X115551000Y-132949000D01*
X115551000Y-135651000D01*
X115551000Y-135651000D01*
G37*
G36*
X119301000Y-135651000D02*
X117699000Y-135651000D01*
X117699000Y-132949000D01*
X119301000Y-132949000D01*
X119301000Y-135651000D01*
X119301000Y-135651000D01*
G37*
G36*
X137192334Y-134271680D02*
X136271680Y-135192334D01*
X135057666Y-133978320D01*
X135978320Y-133057666D01*
X137192334Y-134271680D01*
X137192334Y-134271680D01*
G37*
G36*
X145407025Y-132210590D02*
X145558012Y-132256392D01*
X145697165Y-132330770D01*
X145819133Y-132430867D01*
X145919230Y-132552835D01*
X145993608Y-132691988D01*
X146039410Y-132842975D01*
X146054875Y-133000000D01*
X146039410Y-133157025D01*
X145993608Y-133308012D01*
X145919230Y-133447165D01*
X145819133Y-133569133D01*
X145697165Y-133669230D01*
X145558012Y-133743608D01*
X145407025Y-133789410D01*
X145289346Y-133801000D01*
X144210654Y-133801000D01*
X144092975Y-133789410D01*
X143941988Y-133743608D01*
X143802835Y-133669230D01*
X143680867Y-133569133D01*
X143580770Y-133447165D01*
X143506392Y-133308012D01*
X143460590Y-133157025D01*
X143445125Y-133000000D01*
X143460590Y-132842975D01*
X143506392Y-132691988D01*
X143580770Y-132552835D01*
X143680867Y-132430867D01*
X143802835Y-132330770D01*
X143941988Y-132256392D01*
X144092975Y-132210590D01*
X144210654Y-132199000D01*
X145289346Y-132199000D01*
X145407025Y-132210590D01*
X145407025Y-132210590D01*
G37*
G36*
X135428192Y-132507538D02*
X134507538Y-133428192D01*
X133728306Y-132648960D01*
X134648960Y-131728306D01*
X135428192Y-132507538D01*
X135428192Y-132507538D01*
G37*
G36*
X129487142Y-130218242D02*
X129635102Y-130279530D01*
X129768258Y-130368502D01*
X129881498Y-130481742D01*
X129970470Y-130614898D01*
X130031758Y-130762858D01*
X130063000Y-130919925D01*
X130063000Y-131080075D01*
X130031758Y-131237142D01*
X129970470Y-131385102D01*
X129881498Y-131518258D01*
X129768258Y-131631498D01*
X129635102Y-131720470D01*
X129487142Y-131781758D01*
X129330075Y-131813000D01*
X129169925Y-131813000D01*
X129012858Y-131781758D01*
X128864898Y-131720470D01*
X128731742Y-131631498D01*
X128618502Y-131518258D01*
X128529530Y-131385102D01*
X128468242Y-131237142D01*
X128437000Y-131080075D01*
X128437000Y-130919925D01*
X128468242Y-130762858D01*
X128529530Y-130614898D01*
X128618502Y-130481742D01*
X128731742Y-130368502D01*
X128864898Y-130279530D01*
X129012858Y-130218242D01*
X129169925Y-130187000D01*
X129330075Y-130187000D01*
X129487142Y-130218242D01*
X129487142Y-130218242D01*
G37*
G36*
X132027142Y-130218242D02*
X132175102Y-130279530D01*
X132308258Y-130368502D01*
X132421498Y-130481742D01*
X132510470Y-130614898D01*
X132571758Y-130762858D01*
X132603000Y-130919925D01*
X132603000Y-131080075D01*
X132571758Y-131237142D01*
X132510470Y-131385102D01*
X132421498Y-131518258D01*
X132308258Y-131631498D01*
X132175102Y-131720470D01*
X132027142Y-131781758D01*
X131870075Y-131813000D01*
X131709925Y-131813000D01*
X131552858Y-131781758D01*
X131404898Y-131720470D01*
X131271742Y-131631498D01*
X131158502Y-131518258D01*
X131069530Y-131385102D01*
X131008242Y-131237142D01*
X130977000Y-131080075D01*
X130977000Y-130919925D01*
X131008242Y-130762858D01*
X131069530Y-130614898D01*
X131158502Y-130481742D01*
X131271742Y-130368502D01*
X131404898Y-130279530D01*
X131552858Y-130218242D01*
X131709925Y-130187000D01*
X131870075Y-130187000D01*
X132027142Y-130218242D01*
X132027142Y-130218242D01*
G37*
G36*
X126947142Y-130218242D02*
X127095102Y-130279530D01*
X127228258Y-130368502D01*
X127341498Y-130481742D01*
X127430470Y-130614898D01*
X127491758Y-130762858D01*
X127523000Y-130919925D01*
X127523000Y-131080075D01*
X127491758Y-131237142D01*
X127430470Y-131385102D01*
X127341498Y-131518258D01*
X127228258Y-131631498D01*
X127095102Y-131720470D01*
X126947142Y-131781758D01*
X126790075Y-131813000D01*
X126629925Y-131813000D01*
X126472858Y-131781758D01*
X126324898Y-131720470D01*
X126191742Y-131631498D01*
X126078502Y-131518258D01*
X125989530Y-131385102D01*
X125928242Y-131237142D01*
X125897000Y-131080075D01*
X125897000Y-130919925D01*
X125928242Y-130762858D01*
X125989530Y-130614898D01*
X126078502Y-130481742D01*
X126191742Y-130368502D01*
X126324898Y-130279530D01*
X126472858Y-130218242D01*
X126629925Y-130187000D01*
X126790075Y-130187000D01*
X126947142Y-130218242D01*
X126947142Y-130218242D01*
G37*
G36*
X72001000Y-130451000D02*
X69899000Y-130451000D01*
X69899000Y-121349000D01*
X72001000Y-121349000D01*
X72001000Y-130451000D01*
X72001000Y-130451000D01*
G37*
G36*
X55101000Y-130451000D02*
X52999000Y-130451000D01*
X52999000Y-121349000D01*
X55101000Y-121349000D01*
X55101000Y-130451000D01*
X55101000Y-130451000D01*
G37*
G36*
X98751000Y-130451000D02*
X96649000Y-130451000D01*
X96649000Y-121349000D01*
X98751000Y-121349000D01*
X98751000Y-130451000D01*
X98751000Y-130451000D01*
G37*
G36*
X81851000Y-130451000D02*
X79749000Y-130451000D01*
X79749000Y-121349000D01*
X81851000Y-121349000D01*
X81851000Y-130451000D01*
X81851000Y-130451000D01*
G37*
G36*
X115551000Y-130051000D02*
X113949000Y-130051000D01*
X113949000Y-127349000D01*
X115551000Y-127349000D01*
X115551000Y-130051000D01*
X115551000Y-130051000D01*
G37*
G36*
X119301000Y-130051000D02*
X117699000Y-130051000D01*
X117699000Y-127349000D01*
X119301000Y-127349000D01*
X119301000Y-130051000D01*
X119301000Y-130051000D01*
G37*
G36*
X145407025Y-127210590D02*
X145558012Y-127256392D01*
X145697165Y-127330770D01*
X145819133Y-127430867D01*
X145919230Y-127552835D01*
X145993608Y-127691988D01*
X146039410Y-127842975D01*
X146054875Y-128000000D01*
X146039410Y-128157025D01*
X145993608Y-128308012D01*
X145919230Y-128447165D01*
X145819133Y-128569133D01*
X145697165Y-128669230D01*
X145558012Y-128743608D01*
X145407025Y-128789410D01*
X145289346Y-128801000D01*
X144210654Y-128801000D01*
X144092975Y-128789410D01*
X143941988Y-128743608D01*
X143802835Y-128669230D01*
X143680867Y-128569133D01*
X143580770Y-128447165D01*
X143506392Y-128308012D01*
X143460590Y-128157025D01*
X143445125Y-128000000D01*
X143460590Y-127842975D01*
X143506392Y-127691988D01*
X143580770Y-127552835D01*
X143680867Y-127430867D01*
X143802835Y-127330770D01*
X143941988Y-127256392D01*
X144092975Y-127210590D01*
X144210654Y-127199000D01*
X145289346Y-127199000D01*
X145407025Y-127210590D01*
X145407025Y-127210590D01*
G37*
G36*
X112331000Y-128651000D02*
X111229000Y-128651000D01*
X111229000Y-127349000D01*
X112331000Y-127349000D01*
X112331000Y-128651000D01*
X112331000Y-128651000D01*
G37*
G36*
X110771000Y-128651000D02*
X109669000Y-128651000D01*
X109669000Y-127349000D01*
X110771000Y-127349000D01*
X110771000Y-128651000D01*
X110771000Y-128651000D01*
G37*
G36*
X129487142Y-126618242D02*
X129635102Y-126679530D01*
X129768258Y-126768502D01*
X129881498Y-126881742D01*
X129970470Y-127014898D01*
X130031758Y-127162858D01*
X130063000Y-127319925D01*
X130063000Y-127480075D01*
X130031758Y-127637142D01*
X129970470Y-127785102D01*
X129881498Y-127918258D01*
X129768258Y-128031498D01*
X129635102Y-128120470D01*
X129487142Y-128181758D01*
X129330075Y-128213000D01*
X129169925Y-128213000D01*
X129012858Y-128181758D01*
X128864898Y-128120470D01*
X128731742Y-128031498D01*
X128618502Y-127918258D01*
X128529530Y-127785102D01*
X128468242Y-127637142D01*
X128437000Y-127480075D01*
X128437000Y-127319925D01*
X128468242Y-127162858D01*
X128529530Y-127014898D01*
X128618502Y-126881742D01*
X128731742Y-126768502D01*
X128864898Y-126679530D01*
X129012858Y-126618242D01*
X129169925Y-126587000D01*
X129330075Y-126587000D01*
X129487142Y-126618242D01*
X129487142Y-126618242D01*
G37*
G36*
X132027142Y-126618242D02*
X132175102Y-126679530D01*
X132308258Y-126768502D01*
X132421498Y-126881742D01*
X132510470Y-127014898D01*
X132571758Y-127162858D01*
X132603000Y-127319925D01*
X132603000Y-127480075D01*
X132571758Y-127637142D01*
X132510470Y-127785102D01*
X132421498Y-127918258D01*
X132308258Y-128031498D01*
X132175102Y-128120470D01*
X132027142Y-128181758D01*
X131870075Y-128213000D01*
X131709925Y-128213000D01*
X131552858Y-128181758D01*
X131404898Y-128120470D01*
X131271742Y-128031498D01*
X131158502Y-127918258D01*
X131069530Y-127785102D01*
X131008242Y-127637142D01*
X130977000Y-127480075D01*
X130977000Y-127319925D01*
X131008242Y-127162858D01*
X131069530Y-127014898D01*
X131158502Y-126881742D01*
X131271742Y-126768502D01*
X131404898Y-126679530D01*
X131552858Y-126618242D01*
X131709925Y-126587000D01*
X131870075Y-126587000D01*
X132027142Y-126618242D01*
X132027142Y-126618242D01*
G37*
G36*
X126947142Y-126618242D02*
X127095102Y-126679530D01*
X127228258Y-126768502D01*
X127341498Y-126881742D01*
X127430470Y-127014898D01*
X127491758Y-127162858D01*
X127523000Y-127319925D01*
X127523000Y-127480075D01*
X127491758Y-127637142D01*
X127430470Y-127785102D01*
X127341498Y-127918258D01*
X127228258Y-128031498D01*
X127095102Y-128120470D01*
X126947142Y-128181758D01*
X126790075Y-128213000D01*
X126629925Y-128213000D01*
X126472858Y-128181758D01*
X126324898Y-128120470D01*
X126191742Y-128031498D01*
X126078502Y-127918258D01*
X125989530Y-127785102D01*
X125928242Y-127637142D01*
X125897000Y-127480075D01*
X125897000Y-127319925D01*
X125928242Y-127162858D01*
X125989530Y-127014898D01*
X126078502Y-126881742D01*
X126191742Y-126768502D01*
X126324898Y-126679530D01*
X126472858Y-126618242D01*
X126629925Y-126587000D01*
X126790075Y-126587000D01*
X126947142Y-126618242D01*
X126947142Y-126618242D01*
G37*
G36*
X110771000Y-126901000D02*
X109669000Y-126901000D01*
X109669000Y-125599000D01*
X110771000Y-125599000D01*
X110771000Y-126901000D01*
X110771000Y-126901000D01*
G37*
G36*
X112331000Y-126901000D02*
X111229000Y-126901000D01*
X111229000Y-125599000D01*
X112331000Y-125599000D01*
X112331000Y-126901000D01*
X112331000Y-126901000D01*
G37*
G36*
X145407025Y-124710590D02*
X145558012Y-124756392D01*
X145697165Y-124830770D01*
X145819133Y-124930867D01*
X145919230Y-125052835D01*
X145993608Y-125191988D01*
X146039410Y-125342975D01*
X146054875Y-125500000D01*
X146039410Y-125657025D01*
X145993608Y-125808012D01*
X145919230Y-125947165D01*
X145819133Y-126069133D01*
X145697165Y-126169230D01*
X145558012Y-126243608D01*
X145407025Y-126289410D01*
X145289346Y-126301000D01*
X144210654Y-126301000D01*
X144092975Y-126289410D01*
X143941988Y-126243608D01*
X143802835Y-126169230D01*
X143680867Y-126069133D01*
X143580770Y-125947165D01*
X143506392Y-125808012D01*
X143460590Y-125657025D01*
X143445125Y-125500000D01*
X143460590Y-125342975D01*
X143506392Y-125191988D01*
X143580770Y-125052835D01*
X143680867Y-124930867D01*
X143802835Y-124830770D01*
X143941988Y-124756392D01*
X144092975Y-124710590D01*
X144210654Y-124699000D01*
X145289346Y-124699000D01*
X145407025Y-124710590D01*
X145407025Y-124710590D01*
G37*
G36*
X132127617Y-123458420D02*
X132209426Y-123483237D01*
X132250332Y-123495645D01*
X132310782Y-123527957D01*
X132363425Y-123556095D01*
X132462553Y-123637447D01*
X132543905Y-123736574D01*
X132543906Y-123736576D01*
X132604355Y-123849667D01*
X132616763Y-123890573D01*
X132641580Y-123972382D01*
X132651000Y-124068027D01*
X132651000Y-124931973D01*
X132641580Y-125027618D01*
X132616763Y-125109427D01*
X132604355Y-125150333D01*
X132550819Y-125250491D01*
X132543905Y-125263426D01*
X132462553Y-125362553D01*
X132363426Y-125443905D01*
X132363424Y-125443906D01*
X132250333Y-125504355D01*
X132209427Y-125516763D01*
X132127618Y-125541580D01*
X132000000Y-125554149D01*
X131872383Y-125541580D01*
X131790574Y-125516763D01*
X131749668Y-125504355D01*
X131636577Y-125443906D01*
X131636575Y-125443905D01*
X131537448Y-125362553D01*
X131456096Y-125263426D01*
X131395646Y-125150332D01*
X131369613Y-125064516D01*
X131360242Y-125041891D01*
X131346628Y-125021517D01*
X131329301Y-125004189D01*
X131308926Y-124990575D01*
X131286287Y-124981198D01*
X131262254Y-124976417D01*
X131237750Y-124976417D01*
X131213716Y-124981197D01*
X131191077Y-124990574D01*
X131170703Y-125004188D01*
X131153375Y-125021515D01*
X131139761Y-125041890D01*
X131130384Y-125064529D01*
X131104356Y-125150330D01*
X131104355Y-125150332D01*
X131043905Y-125263426D01*
X130962553Y-125362553D01*
X130863426Y-125443905D01*
X130863424Y-125443906D01*
X130750333Y-125504355D01*
X130709427Y-125516763D01*
X130627618Y-125541580D01*
X130500000Y-125554149D01*
X130372383Y-125541580D01*
X130290574Y-125516763D01*
X130249668Y-125504355D01*
X130136577Y-125443906D01*
X130136575Y-125443905D01*
X130037448Y-125362553D01*
X129956096Y-125263426D01*
X129895646Y-125150332D01*
X129869613Y-125064516D01*
X129860242Y-125041891D01*
X129846628Y-125021517D01*
X129829301Y-125004189D01*
X129808926Y-124990575D01*
X129786287Y-124981198D01*
X129762254Y-124976417D01*
X129737750Y-124976417D01*
X129713716Y-124981197D01*
X129691077Y-124990574D01*
X129670703Y-125004188D01*
X129653375Y-125021515D01*
X129639761Y-125041890D01*
X129630384Y-125064529D01*
X129604356Y-125150330D01*
X129604355Y-125150332D01*
X129543905Y-125263426D01*
X129462553Y-125362553D01*
X129363426Y-125443905D01*
X129363424Y-125443906D01*
X129250333Y-125504355D01*
X129209427Y-125516763D01*
X129127618Y-125541580D01*
X129000000Y-125554149D01*
X128872383Y-125541580D01*
X128790574Y-125516763D01*
X128749668Y-125504355D01*
X128636577Y-125443906D01*
X128636575Y-125443905D01*
X128537448Y-125362553D01*
X128456096Y-125263426D01*
X128395646Y-125150332D01*
X128369613Y-125064516D01*
X128360242Y-125041891D01*
X128346628Y-125021517D01*
X128329301Y-125004189D01*
X128308926Y-124990575D01*
X128286287Y-124981198D01*
X128262254Y-124976417D01*
X128237750Y-124976417D01*
X128213716Y-124981197D01*
X128191077Y-124990574D01*
X128170703Y-125004188D01*
X128153375Y-125021515D01*
X128139761Y-125041890D01*
X128130384Y-125064529D01*
X128104356Y-125150330D01*
X128104355Y-125150332D01*
X128043905Y-125263426D01*
X127962553Y-125362553D01*
X127863426Y-125443905D01*
X127863424Y-125443906D01*
X127750333Y-125504355D01*
X127709427Y-125516763D01*
X127627618Y-125541580D01*
X127500000Y-125554149D01*
X127372383Y-125541580D01*
X127290574Y-125516763D01*
X127249668Y-125504355D01*
X127136577Y-125443906D01*
X127136575Y-125443905D01*
X127037448Y-125362553D01*
X126956096Y-125263426D01*
X126895646Y-125150332D01*
X126869613Y-125064516D01*
X126860242Y-125041891D01*
X126846628Y-125021517D01*
X126829301Y-125004189D01*
X126808926Y-124990575D01*
X126786287Y-124981198D01*
X126762254Y-124976417D01*
X126737750Y-124976417D01*
X126713716Y-124981197D01*
X126691077Y-124990574D01*
X126670703Y-125004188D01*
X126653375Y-125021515D01*
X126639761Y-125041890D01*
X126630384Y-125064529D01*
X126604356Y-125150330D01*
X126604355Y-125150332D01*
X126543905Y-125263426D01*
X126462553Y-125362553D01*
X126363426Y-125443905D01*
X126363424Y-125443906D01*
X126250333Y-125504355D01*
X126209427Y-125516763D01*
X126127618Y-125541580D01*
X126000000Y-125554149D01*
X125872383Y-125541580D01*
X125790574Y-125516763D01*
X125749668Y-125504355D01*
X125636577Y-125443906D01*
X125636575Y-125443905D01*
X125537448Y-125362553D01*
X125456096Y-125263426D01*
X125395646Y-125150332D01*
X125369613Y-125064516D01*
X125360242Y-125041891D01*
X125346628Y-125021517D01*
X125329301Y-125004189D01*
X125308926Y-124990575D01*
X125286287Y-124981198D01*
X125262254Y-124976417D01*
X125237750Y-124976417D01*
X125213716Y-124981197D01*
X125191077Y-124990574D01*
X125170703Y-125004188D01*
X125153375Y-125021515D01*
X125139761Y-125041890D01*
X125130384Y-125064529D01*
X125104356Y-125150330D01*
X125104355Y-125150332D01*
X125043905Y-125263426D01*
X124962553Y-125362553D01*
X124863426Y-125443905D01*
X124863424Y-125443906D01*
X124750333Y-125504355D01*
X124709427Y-125516763D01*
X124627618Y-125541580D01*
X124500000Y-125554149D01*
X124372383Y-125541580D01*
X124290574Y-125516763D01*
X124249668Y-125504355D01*
X124136577Y-125443906D01*
X124136575Y-125443905D01*
X124037448Y-125362553D01*
X123956096Y-125263426D01*
X123895646Y-125150332D01*
X123869613Y-125064516D01*
X123860242Y-125041891D01*
X123846628Y-125021517D01*
X123829301Y-125004189D01*
X123808926Y-124990575D01*
X123786287Y-124981198D01*
X123762254Y-124976417D01*
X123737750Y-124976417D01*
X123713716Y-124981197D01*
X123691077Y-124990574D01*
X123670703Y-125004188D01*
X123653375Y-125021515D01*
X123639761Y-125041890D01*
X123630384Y-125064529D01*
X123604356Y-125150330D01*
X123604355Y-125150332D01*
X123543905Y-125263426D01*
X123462553Y-125362553D01*
X123363426Y-125443905D01*
X123363424Y-125443906D01*
X123250333Y-125504355D01*
X123209427Y-125516763D01*
X123127618Y-125541580D01*
X123000000Y-125554149D01*
X122872383Y-125541580D01*
X122790574Y-125516763D01*
X122749668Y-125504355D01*
X122636577Y-125443906D01*
X122636575Y-125443905D01*
X122537448Y-125362553D01*
X122456096Y-125263426D01*
X122395646Y-125150332D01*
X122369613Y-125064516D01*
X122360242Y-125041891D01*
X122346628Y-125021517D01*
X122329301Y-125004189D01*
X122308926Y-124990575D01*
X122286287Y-124981198D01*
X122262254Y-124976417D01*
X122237750Y-124976417D01*
X122213716Y-124981197D01*
X122191077Y-124990574D01*
X122170703Y-125004188D01*
X122153375Y-125021515D01*
X122139761Y-125041890D01*
X122130384Y-125064529D01*
X122104356Y-125150330D01*
X122104355Y-125150332D01*
X122043905Y-125263426D01*
X121962553Y-125362553D01*
X121863426Y-125443905D01*
X121863424Y-125443906D01*
X121750333Y-125504355D01*
X121709427Y-125516763D01*
X121627618Y-125541580D01*
X121500000Y-125554149D01*
X121372383Y-125541580D01*
X121290574Y-125516763D01*
X121249668Y-125504355D01*
X121136577Y-125443906D01*
X121136575Y-125443905D01*
X121037448Y-125362553D01*
X120956096Y-125263426D01*
X120895646Y-125150332D01*
X120869613Y-125064516D01*
X120860242Y-125041891D01*
X120846628Y-125021517D01*
X120829301Y-125004189D01*
X120808926Y-124990575D01*
X120786287Y-124981198D01*
X120762254Y-124976417D01*
X120737750Y-124976417D01*
X120713716Y-124981197D01*
X120691077Y-124990574D01*
X120670703Y-125004188D01*
X120653375Y-125021515D01*
X120639761Y-125041890D01*
X120630384Y-125064529D01*
X120604356Y-125150330D01*
X120604355Y-125150332D01*
X120543905Y-125263426D01*
X120462553Y-125362553D01*
X120363426Y-125443905D01*
X120363424Y-125443906D01*
X120250333Y-125504355D01*
X120209427Y-125516763D01*
X120127618Y-125541580D01*
X120000000Y-125554149D01*
X119872383Y-125541580D01*
X119790574Y-125516763D01*
X119749668Y-125504355D01*
X119636577Y-125443906D01*
X119636575Y-125443905D01*
X119537448Y-125362553D01*
X119456096Y-125263426D01*
X119449182Y-125250491D01*
X119395646Y-125150333D01*
X119389734Y-125130843D01*
X119358420Y-125027618D01*
X119349000Y-124931973D01*
X119349000Y-124068028D01*
X119358420Y-123972383D01*
X119395645Y-123849669D01*
X119395645Y-123849668D01*
X119452336Y-123743608D01*
X119456095Y-123736575D01*
X119537447Y-123637447D01*
X119636574Y-123556095D01*
X119649509Y-123549181D01*
X119749667Y-123495645D01*
X119790573Y-123483237D01*
X119872382Y-123458420D01*
X120000000Y-123445851D01*
X120127617Y-123458420D01*
X120209426Y-123483237D01*
X120250332Y-123495645D01*
X120310782Y-123527957D01*
X120363425Y-123556095D01*
X120462553Y-123637447D01*
X120543905Y-123736574D01*
X120543906Y-123736576D01*
X120604355Y-123849667D01*
X120613838Y-123880928D01*
X120630384Y-123935474D01*
X120639760Y-123958108D01*
X120653373Y-123978483D01*
X120670700Y-123995810D01*
X120691075Y-124009424D01*
X120713714Y-124018801D01*
X120737747Y-124023582D01*
X120762252Y-124023582D01*
X120786285Y-124018802D01*
X120808924Y-124009424D01*
X120829299Y-123995811D01*
X120846626Y-123978484D01*
X120860240Y-123958109D01*
X120869618Y-123935469D01*
X120895645Y-123849668D01*
X120952336Y-123743608D01*
X120956095Y-123736575D01*
X121037447Y-123637447D01*
X121136574Y-123556095D01*
X121149509Y-123549181D01*
X121249667Y-123495645D01*
X121290573Y-123483237D01*
X121372382Y-123458420D01*
X121500000Y-123445851D01*
X121627617Y-123458420D01*
X121709426Y-123483237D01*
X121750332Y-123495645D01*
X121810782Y-123527957D01*
X121863425Y-123556095D01*
X121962553Y-123637447D01*
X122043905Y-123736574D01*
X122043906Y-123736576D01*
X122104355Y-123849667D01*
X122113838Y-123880928D01*
X122130384Y-123935474D01*
X122139760Y-123958108D01*
X122153373Y-123978483D01*
X122170700Y-123995810D01*
X122191075Y-124009424D01*
X122213714Y-124018801D01*
X122237747Y-124023582D01*
X122262252Y-124023582D01*
X122286285Y-124018802D01*
X122308924Y-124009424D01*
X122329299Y-123995811D01*
X122346626Y-123978484D01*
X122360240Y-123958109D01*
X122369618Y-123935469D01*
X122395645Y-123849668D01*
X122452336Y-123743608D01*
X122456095Y-123736575D01*
X122537447Y-123637447D01*
X122636574Y-123556095D01*
X122649509Y-123549181D01*
X122749667Y-123495645D01*
X122790573Y-123483237D01*
X122872382Y-123458420D01*
X123000000Y-123445851D01*
X123127617Y-123458420D01*
X123209426Y-123483237D01*
X123250332Y-123495645D01*
X123310782Y-123527957D01*
X123363425Y-123556095D01*
X123462553Y-123637447D01*
X123543905Y-123736574D01*
X123543906Y-123736576D01*
X123604355Y-123849667D01*
X123613838Y-123880928D01*
X123630384Y-123935474D01*
X123639760Y-123958108D01*
X123653373Y-123978483D01*
X123670700Y-123995810D01*
X123691075Y-124009424D01*
X123713714Y-124018801D01*
X123737747Y-124023582D01*
X123762252Y-124023582D01*
X123786285Y-124018802D01*
X123808924Y-124009424D01*
X123829299Y-123995811D01*
X123846626Y-123978484D01*
X123860240Y-123958109D01*
X123869618Y-123935469D01*
X123895645Y-123849668D01*
X123952336Y-123743608D01*
X123956095Y-123736575D01*
X124037447Y-123637447D01*
X124136574Y-123556095D01*
X124149509Y-123549181D01*
X124249667Y-123495645D01*
X124290573Y-123483237D01*
X124372382Y-123458420D01*
X124500000Y-123445851D01*
X124627617Y-123458420D01*
X124709426Y-123483237D01*
X124750332Y-123495645D01*
X124810782Y-123527957D01*
X124863425Y-123556095D01*
X124962553Y-123637447D01*
X125043905Y-123736574D01*
X125043906Y-123736576D01*
X125104355Y-123849667D01*
X125113838Y-123880928D01*
X125130384Y-123935474D01*
X125139760Y-123958108D01*
X125153373Y-123978483D01*
X125170700Y-123995810D01*
X125191075Y-124009424D01*
X125213714Y-124018801D01*
X125237747Y-124023582D01*
X125262252Y-124023582D01*
X125286285Y-124018802D01*
X125308924Y-124009424D01*
X125329299Y-123995811D01*
X125346626Y-123978484D01*
X125360240Y-123958109D01*
X125369618Y-123935469D01*
X125395645Y-123849668D01*
X125452336Y-123743608D01*
X125456095Y-123736575D01*
X125537447Y-123637447D01*
X125636574Y-123556095D01*
X125649509Y-123549181D01*
X125749667Y-123495645D01*
X125790573Y-123483237D01*
X125872382Y-123458420D01*
X126000000Y-123445851D01*
X126127617Y-123458420D01*
X126209426Y-123483237D01*
X126250332Y-123495645D01*
X126310782Y-123527957D01*
X126363425Y-123556095D01*
X126462553Y-123637447D01*
X126543905Y-123736574D01*
X126543906Y-123736576D01*
X126604355Y-123849667D01*
X126613838Y-123880928D01*
X126630384Y-123935474D01*
X126639760Y-123958108D01*
X126653373Y-123978483D01*
X126670700Y-123995810D01*
X126691075Y-124009424D01*
X126713714Y-124018801D01*
X126737747Y-124023582D01*
X126762252Y-124023582D01*
X126786285Y-124018802D01*
X126808924Y-124009424D01*
X126829299Y-123995811D01*
X126846626Y-123978484D01*
X126860240Y-123958109D01*
X126869618Y-123935469D01*
X126895645Y-123849668D01*
X126952336Y-123743608D01*
X126956095Y-123736575D01*
X127037447Y-123637447D01*
X127136574Y-123556095D01*
X127149509Y-123549181D01*
X127249667Y-123495645D01*
X127290573Y-123483237D01*
X127372382Y-123458420D01*
X127500000Y-123445851D01*
X127627617Y-123458420D01*
X127709426Y-123483237D01*
X127750332Y-123495645D01*
X127810782Y-123527957D01*
X127863425Y-123556095D01*
X127962553Y-123637447D01*
X128043905Y-123736574D01*
X128043906Y-123736576D01*
X128104355Y-123849667D01*
X128113838Y-123880928D01*
X128130384Y-123935474D01*
X128139760Y-123958108D01*
X128153373Y-123978483D01*
X128170700Y-123995810D01*
X128191075Y-124009424D01*
X128213714Y-124018801D01*
X128237747Y-124023582D01*
X128262252Y-124023582D01*
X128286285Y-124018802D01*
X128308924Y-124009424D01*
X128329299Y-123995811D01*
X128346626Y-123978484D01*
X128360240Y-123958109D01*
X128369618Y-123935469D01*
X128395645Y-123849668D01*
X128452336Y-123743608D01*
X128456095Y-123736575D01*
X128537447Y-123637447D01*
X128636574Y-123556095D01*
X128649509Y-123549181D01*
X128749667Y-123495645D01*
X128790573Y-123483237D01*
X128872382Y-123458420D01*
X129000000Y-123445851D01*
X129127617Y-123458420D01*
X129209426Y-123483237D01*
X129250332Y-123495645D01*
X129310782Y-123527957D01*
X129363425Y-123556095D01*
X129462553Y-123637447D01*
X129543905Y-123736574D01*
X129543906Y-123736576D01*
X129604355Y-123849667D01*
X129613838Y-123880928D01*
X129630384Y-123935474D01*
X129639760Y-123958108D01*
X129653373Y-123978483D01*
X129670700Y-123995810D01*
X129691075Y-124009424D01*
X129713714Y-124018801D01*
X129737747Y-124023582D01*
X129762252Y-124023582D01*
X129786285Y-124018802D01*
X129808924Y-124009424D01*
X129829299Y-123995811D01*
X129846626Y-123978484D01*
X129860240Y-123958109D01*
X129869618Y-123935469D01*
X129895645Y-123849668D01*
X129952336Y-123743608D01*
X129956095Y-123736575D01*
X130037447Y-123637447D01*
X130136574Y-123556095D01*
X130149509Y-123549181D01*
X130249667Y-123495645D01*
X130290573Y-123483237D01*
X130372382Y-123458420D01*
X130500000Y-123445851D01*
X130627617Y-123458420D01*
X130709426Y-123483237D01*
X130750332Y-123495645D01*
X130810782Y-123527957D01*
X130863425Y-123556095D01*
X130962553Y-123637447D01*
X131043905Y-123736574D01*
X131043906Y-123736576D01*
X131104355Y-123849667D01*
X131113838Y-123880928D01*
X131130384Y-123935474D01*
X131139760Y-123958108D01*
X131153373Y-123978483D01*
X131170700Y-123995810D01*
X131191075Y-124009424D01*
X131213714Y-124018801D01*
X131237747Y-124023582D01*
X131262252Y-124023582D01*
X131286285Y-124018802D01*
X131308924Y-124009424D01*
X131329299Y-123995811D01*
X131346626Y-123978484D01*
X131360240Y-123958109D01*
X131369618Y-123935469D01*
X131395645Y-123849668D01*
X131452336Y-123743608D01*
X131456095Y-123736575D01*
X131537447Y-123637447D01*
X131636574Y-123556095D01*
X131649509Y-123549181D01*
X131749667Y-123495645D01*
X131790573Y-123483237D01*
X131872382Y-123458420D01*
X132000000Y-123445851D01*
X132127617Y-123458420D01*
X132127617Y-123458420D01*
G37*
G36*
X145407025Y-122210590D02*
X145558012Y-122256392D01*
X145697165Y-122330770D01*
X145819133Y-122430867D01*
X145919230Y-122552835D01*
X145993608Y-122691988D01*
X146039410Y-122842975D01*
X146054875Y-123000000D01*
X146039410Y-123157025D01*
X145993608Y-123308012D01*
X145919230Y-123447165D01*
X145819133Y-123569133D01*
X145697165Y-123669230D01*
X145558012Y-123743608D01*
X145407025Y-123789410D01*
X145289346Y-123801000D01*
X144210654Y-123801000D01*
X144092975Y-123789410D01*
X143941988Y-123743608D01*
X143802835Y-123669230D01*
X143680867Y-123569133D01*
X143580770Y-123447165D01*
X143506392Y-123308012D01*
X143460590Y-123157025D01*
X143445125Y-123000000D01*
X143460590Y-122842975D01*
X143506392Y-122691988D01*
X143580770Y-122552835D01*
X143680867Y-122430867D01*
X143802835Y-122330770D01*
X143941988Y-122256392D01*
X144092975Y-122210590D01*
X144210654Y-122199000D01*
X145289346Y-122199000D01*
X145407025Y-122210590D01*
X145407025Y-122210590D01*
G37*
G36*
X119351000Y-123301000D02*
X116649000Y-123301000D01*
X116649000Y-121499000D01*
X119351000Y-121499000D01*
X119351000Y-123301000D01*
X119351000Y-123301000D01*
G37*
G36*
X135351000Y-123301000D02*
X132649000Y-123301000D01*
X132649000Y-121499000D01*
X135351000Y-121499000D01*
X135351000Y-123301000D01*
X135351000Y-123301000D01*
G37*
G36*
X145407025Y-119710590D02*
X145558012Y-119756392D01*
X145697165Y-119830770D01*
X145819133Y-119930867D01*
X145919230Y-120052835D01*
X145993608Y-120191988D01*
X146039410Y-120342975D01*
X146054875Y-120500000D01*
X146039410Y-120657025D01*
X145993608Y-120808012D01*
X145919230Y-120947165D01*
X145819133Y-121069133D01*
X145697165Y-121169230D01*
X145558012Y-121243608D01*
X145407025Y-121289410D01*
X145289346Y-121301000D01*
X144210654Y-121301000D01*
X144092975Y-121289410D01*
X143941988Y-121243608D01*
X143802835Y-121169230D01*
X143680867Y-121069133D01*
X143580770Y-120947165D01*
X143506392Y-120808012D01*
X143460590Y-120657025D01*
X143445125Y-120500000D01*
X143460590Y-120342975D01*
X143506392Y-120191988D01*
X143580770Y-120052835D01*
X143680867Y-119930867D01*
X143802835Y-119830770D01*
X143941988Y-119756392D01*
X144092975Y-119710590D01*
X144210654Y-119699000D01*
X145289346Y-119699000D01*
X145407025Y-119710590D01*
X145407025Y-119710590D01*
G37*
G36*
X95801000Y-119051000D02*
X82699000Y-119051000D01*
X82699000Y-115949000D01*
X95801000Y-115949000D01*
X95801000Y-119051000D01*
X95801000Y-119051000D01*
G37*
G36*
X69051000Y-119051000D02*
X55949000Y-119051000D01*
X55949000Y-115949000D01*
X69051000Y-115949000D01*
X69051000Y-119051000D01*
X69051000Y-119051000D01*
G37*
G36*
X143325114Y-114689176D02*
X143419168Y-114698439D01*
X143620299Y-114759451D01*
X143652899Y-114776876D01*
X143805662Y-114858529D01*
X143968133Y-114991867D01*
X144101471Y-115154338D01*
X144183124Y-115307101D01*
X144200549Y-115339701D01*
X144261561Y-115540832D01*
X144282162Y-115750000D01*
X144261561Y-115959168D01*
X144200549Y-116160299D01*
X144200546Y-116160304D01*
X144101471Y-116345662D01*
X143968133Y-116508133D01*
X143805662Y-116641471D01*
X143652899Y-116723124D01*
X143620299Y-116740549D01*
X143419168Y-116801561D01*
X143325114Y-116810824D01*
X143262413Y-116817000D01*
X143157587Y-116817000D01*
X143094886Y-116810824D01*
X143000832Y-116801561D01*
X142799701Y-116740549D01*
X142767101Y-116723124D01*
X142614338Y-116641471D01*
X142451867Y-116508133D01*
X142318529Y-116345662D01*
X142219454Y-116160304D01*
X142219451Y-116160299D01*
X142158439Y-115959168D01*
X142137838Y-115750000D01*
X142158439Y-115540832D01*
X142219451Y-115339701D01*
X142236876Y-115307101D01*
X142318529Y-115154338D01*
X142451867Y-114991867D01*
X142614338Y-114858529D01*
X142767101Y-114776876D01*
X142799701Y-114759451D01*
X143000832Y-114698439D01*
X143094886Y-114689176D01*
X143157587Y-114683000D01*
X143262413Y-114683000D01*
X143325114Y-114689176D01*
X143325114Y-114689176D01*
G37*
G36*
X146817000Y-116817000D02*
X144683000Y-116817000D01*
X144683000Y-114683000D01*
X146817000Y-114683000D01*
X146817000Y-116817000D01*
X146817000Y-116817000D01*
G37*
G36*
X102651000Y-113981000D02*
X101349000Y-113981000D01*
X101349000Y-112879000D01*
X102651000Y-112879000D01*
X102651000Y-113981000D01*
X102651000Y-113981000D01*
G37*
G36*
X76651000Y-113981000D02*
X75349000Y-113981000D01*
X75349000Y-112879000D01*
X76651000Y-112879000D01*
X76651000Y-113981000D01*
X76651000Y-113981000D01*
G37*
G36*
X52905114Y-111439176D02*
X52999168Y-111448439D01*
X53200299Y-111509451D01*
X53232899Y-111526876D01*
X53385662Y-111608529D01*
X53548133Y-111741867D01*
X53681471Y-111904338D01*
X53763124Y-112057101D01*
X53780549Y-112089701D01*
X53841561Y-112290832D01*
X53862162Y-112500000D01*
X53841561Y-112709168D01*
X53780549Y-112910299D01*
X53780546Y-112910304D01*
X53681471Y-113095662D01*
X53548133Y-113258133D01*
X53385662Y-113391471D01*
X53232899Y-113473124D01*
X53200299Y-113490549D01*
X52999168Y-113551561D01*
X52905114Y-113560824D01*
X52842413Y-113567000D01*
X52737587Y-113567000D01*
X52674886Y-113560824D01*
X52580832Y-113551561D01*
X52379701Y-113490549D01*
X52347101Y-113473124D01*
X52194338Y-113391471D01*
X52031867Y-113258133D01*
X51898529Y-113095662D01*
X51799454Y-112910304D01*
X51799451Y-112910299D01*
X51738439Y-112709168D01*
X51717838Y-112500000D01*
X51738439Y-112290832D01*
X51799451Y-112089701D01*
X51816876Y-112057101D01*
X51898529Y-111904338D01*
X52031867Y-111741867D01*
X52194338Y-111608529D01*
X52347101Y-111526876D01*
X52379701Y-111509451D01*
X52580832Y-111448439D01*
X52674886Y-111439176D01*
X52737587Y-111433000D01*
X52842413Y-111433000D01*
X52905114Y-111439176D01*
X52905114Y-111439176D01*
G37*
G36*
X51317000Y-113567000D02*
X49183000Y-113567000D01*
X49183000Y-111433000D01*
X51317000Y-111433000D01*
X51317000Y-113567000D01*
X51317000Y-113567000D01*
G37*
G36*
X82962865Y-106325855D02*
X83563609Y-106574691D01*
X84104268Y-106935948D01*
X84564052Y-107395732D01*
X84925309Y-107936391D01*
X85174145Y-108537135D01*
X85301000Y-109174878D01*
X85301000Y-109825122D01*
X85174145Y-110462865D01*
X84925309Y-111063609D01*
X84564052Y-111604268D01*
X84104268Y-112064052D01*
X83563609Y-112425309D01*
X82962865Y-112674145D01*
X82325122Y-112801000D01*
X81674878Y-112801000D01*
X81037135Y-112674145D01*
X80436391Y-112425309D01*
X79895732Y-112064052D01*
X79435948Y-111604268D01*
X79074691Y-111063609D01*
X78825855Y-110462865D01*
X78699000Y-109825122D01*
X78699000Y-109174878D01*
X78825855Y-108537135D01*
X79074691Y-107936391D01*
X79435948Y-107395732D01*
X79895732Y-106935948D01*
X80436391Y-106574691D01*
X81037135Y-106325855D01*
X81674878Y-106199000D01*
X82325122Y-106199000D01*
X82962865Y-106325855D01*
X82962865Y-106325855D01*
G37*
G36*
X59712865Y-106325855D02*
X60313609Y-106574691D01*
X60854268Y-106935948D01*
X61314052Y-107395732D01*
X61675309Y-107936391D01*
X61924145Y-108537135D01*
X62051000Y-109174878D01*
X62051000Y-109825122D01*
X61924145Y-110462865D01*
X61675309Y-111063609D01*
X61314052Y-111604268D01*
X60854268Y-112064052D01*
X60313609Y-112425309D01*
X59712865Y-112674145D01*
X59075122Y-112801000D01*
X58424878Y-112801000D01*
X57787135Y-112674145D01*
X57186391Y-112425309D01*
X56645732Y-112064052D01*
X56185948Y-111604268D01*
X55824691Y-111063609D01*
X55575855Y-110462865D01*
X55449000Y-109825122D01*
X55449000Y-109174878D01*
X55575855Y-108537135D01*
X55824691Y-107936391D01*
X56185948Y-107395732D01*
X56645732Y-106935948D01*
X57186391Y-106574691D01*
X57787135Y-106325855D01*
X58424878Y-106199000D01*
X59075122Y-106199000D01*
X59712865Y-106325855D01*
X59712865Y-106325855D01*
G37*
G36*
X91212865Y-106325855D02*
X91813609Y-106574691D01*
X92354268Y-106935948D01*
X92814052Y-107395732D01*
X93175309Y-107936391D01*
X93424145Y-108537135D01*
X93551000Y-109174878D01*
X93551000Y-109825122D01*
X93424145Y-110462865D01*
X93175309Y-111063609D01*
X92814052Y-111604268D01*
X92354268Y-112064052D01*
X91813609Y-112425309D01*
X91212865Y-112674145D01*
X90575122Y-112801000D01*
X89924878Y-112801000D01*
X89287135Y-112674145D01*
X88686391Y-112425309D01*
X88145732Y-112064052D01*
X87685948Y-111604268D01*
X87324691Y-111063609D01*
X87075855Y-110462865D01*
X86949000Y-109825122D01*
X86949000Y-109174878D01*
X87075855Y-108537135D01*
X87324691Y-107936391D01*
X87685948Y-107395732D01*
X88145732Y-106935948D01*
X88686391Y-106574691D01*
X89287135Y-106325855D01*
X89924878Y-106199000D01*
X90575122Y-106199000D01*
X91212865Y-106325855D01*
X91212865Y-106325855D01*
G37*
G36*
X67712865Y-106325855D02*
X68313609Y-106574691D01*
X68854268Y-106935948D01*
X69314052Y-107395732D01*
X69675309Y-107936391D01*
X69924145Y-108537135D01*
X70051000Y-109174878D01*
X70051000Y-109825122D01*
X69924145Y-110462865D01*
X69675309Y-111063609D01*
X69314052Y-111604268D01*
X68854268Y-112064052D01*
X68313609Y-112425309D01*
X67712865Y-112674145D01*
X67075122Y-112801000D01*
X66424878Y-112801000D01*
X65787135Y-112674145D01*
X65186391Y-112425309D01*
X64645732Y-112064052D01*
X64185948Y-111604268D01*
X63824691Y-111063609D01*
X63575855Y-110462865D01*
X63449000Y-109825122D01*
X63449000Y-109174878D01*
X63575855Y-108537135D01*
X63824691Y-107936391D01*
X64185948Y-107395732D01*
X64645732Y-106935948D01*
X65186391Y-106574691D01*
X65787135Y-106325855D01*
X66424878Y-106199000D01*
X67075122Y-106199000D01*
X67712865Y-106325855D01*
X67712865Y-106325855D01*
G37*
G36*
X143271000Y-112401000D02*
X142169000Y-112401000D01*
X142169000Y-111099000D01*
X143271000Y-111099000D01*
X143271000Y-112401000D01*
X143271000Y-112401000D01*
G37*
G36*
X147181000Y-112401000D02*
X146079000Y-112401000D01*
X146079000Y-111099000D01*
X147181000Y-111099000D01*
X147181000Y-112401000D01*
X147181000Y-112401000D01*
G37*
G36*
X145421000Y-112401000D02*
X143729000Y-112401000D01*
X143729000Y-111099000D01*
X145421000Y-111099000D01*
X145421000Y-112401000D01*
X145421000Y-112401000D01*
G37*
G36*
X108331000Y-112141000D02*
X107229000Y-112141000D01*
X107229000Y-110839000D01*
X108331000Y-110839000D01*
X108331000Y-112141000D01*
X108331000Y-112141000D01*
G37*
G36*
X106771000Y-112141000D02*
X105069000Y-112141000D01*
X105069000Y-110839000D01*
X106771000Y-110839000D01*
X106771000Y-112141000D01*
X106771000Y-112141000D01*
G37*
G36*
X104411000Y-112141000D02*
X103309000Y-112141000D01*
X103309000Y-110839000D01*
X104411000Y-110839000D01*
X104411000Y-112141000D01*
X104411000Y-112141000D01*
G37*
G36*
X102651000Y-112101000D02*
X101349000Y-112101000D01*
X101349000Y-110999000D01*
X102651000Y-110999000D01*
X102651000Y-112101000D01*
X102651000Y-112101000D01*
G37*
G36*
X76651000Y-112101000D02*
X75349000Y-112101000D01*
X75349000Y-110999000D01*
X76651000Y-110999000D01*
X76651000Y-112101000D01*
X76651000Y-112101000D01*
G37*
G36*
X145421000Y-109651000D02*
X143729000Y-109651000D01*
X143729000Y-108349000D01*
X145421000Y-108349000D01*
X145421000Y-109651000D01*
X145421000Y-109651000D01*
G37*
G36*
X147181000Y-109651000D02*
X146079000Y-109651000D01*
X146079000Y-108349000D01*
X147181000Y-108349000D01*
X147181000Y-109651000D01*
X147181000Y-109651000D01*
G37*
G36*
X143271000Y-109651000D02*
X142169000Y-109651000D01*
X142169000Y-108349000D01*
X143271000Y-108349000D01*
X143271000Y-109651000D01*
X143271000Y-109651000D01*
G37*
G36*
X108331000Y-109641000D02*
X107229000Y-109641000D01*
X107229000Y-108339000D01*
X108331000Y-108339000D01*
X108331000Y-109641000D01*
X108331000Y-109641000D01*
G37*
G36*
X106771000Y-109641000D02*
X105069000Y-109641000D01*
X105069000Y-108339000D01*
X106771000Y-108339000D01*
X106771000Y-109641000D01*
X106771000Y-109641000D01*
G37*
G36*
X104411000Y-109641000D02*
X103309000Y-109641000D01*
X103309000Y-108339000D01*
X104411000Y-108339000D01*
X104411000Y-109641000D01*
X104411000Y-109641000D01*
G37*
G36*
X74401000Y-109581000D02*
X73099000Y-109581000D01*
X73099000Y-108479000D01*
X74401000Y-108479000D01*
X74401000Y-109581000D01*
X74401000Y-109581000D01*
G37*
G36*
X97901000Y-109331000D02*
X96599000Y-109331000D01*
X96599000Y-108229000D01*
X97901000Y-108229000D01*
X97901000Y-109331000D01*
X97901000Y-109331000D01*
G37*
G36*
X74401000Y-108021000D02*
X73099000Y-108021000D01*
X73099000Y-106329000D01*
X74401000Y-106329000D01*
X74401000Y-108021000D01*
X74401000Y-108021000D01*
G37*
G36*
X97901000Y-107771000D02*
X96599000Y-107771000D01*
X96599000Y-106329000D01*
X97901000Y-106329000D01*
X97901000Y-107771000D01*
X97901000Y-107771000D01*
G37*
G36*
X104411000Y-107141000D02*
X103309000Y-107141000D01*
X103309000Y-105839000D01*
X104411000Y-105839000D01*
X104411000Y-107141000D01*
X104411000Y-107141000D01*
G37*
G36*
X106771000Y-107141000D02*
X105069000Y-107141000D01*
X105069000Y-105839000D01*
X106771000Y-105839000D01*
X106771000Y-107141000D01*
X106771000Y-107141000D01*
G37*
G36*
X108331000Y-107141000D02*
X107229000Y-107141000D01*
X107229000Y-105839000D01*
X108331000Y-105839000D01*
X108331000Y-107141000D01*
X108331000Y-107141000D01*
G37*
G36*
X147181000Y-106901000D02*
X146079000Y-106901000D01*
X146079000Y-105599000D01*
X147181000Y-105599000D01*
X147181000Y-106901000D01*
X147181000Y-106901000D01*
G37*
G36*
X143271000Y-106901000D02*
X142169000Y-106901000D01*
X142169000Y-105599000D01*
X143271000Y-105599000D01*
X143271000Y-106901000D01*
X143271000Y-106901000D01*
G37*
G36*
X145421000Y-106901000D02*
X143729000Y-106901000D01*
X143729000Y-105599000D01*
X145421000Y-105599000D01*
X145421000Y-106901000D01*
X145421000Y-106901000D01*
G37*
G36*
X82962865Y-99325855D02*
X83563609Y-99574691D01*
X84104268Y-99935948D01*
X84564052Y-100395732D01*
X84925309Y-100936391D01*
X85174145Y-101537135D01*
X85301000Y-102174878D01*
X85301000Y-102825122D01*
X85174145Y-103462865D01*
X84925309Y-104063609D01*
X84564052Y-104604268D01*
X84104268Y-105064052D01*
X83563609Y-105425309D01*
X82962865Y-105674145D01*
X82325122Y-105801000D01*
X81674878Y-105801000D01*
X81037135Y-105674145D01*
X80436391Y-105425309D01*
X79895732Y-105064052D01*
X79435948Y-104604268D01*
X79074691Y-104063609D01*
X78825855Y-103462865D01*
X78699000Y-102825122D01*
X78699000Y-102174878D01*
X78825855Y-101537135D01*
X79074691Y-100936391D01*
X79435948Y-100395732D01*
X79895732Y-99935948D01*
X80436391Y-99574691D01*
X81037135Y-99325855D01*
X81674878Y-99199000D01*
X82325122Y-99199000D01*
X82962865Y-99325855D01*
X82962865Y-99325855D01*
G37*
G36*
X67712865Y-99325855D02*
X68313609Y-99574691D01*
X68854268Y-99935948D01*
X69314052Y-100395732D01*
X69675309Y-100936391D01*
X69924145Y-101537135D01*
X70051000Y-102174878D01*
X70051000Y-102825122D01*
X69924145Y-103462865D01*
X69675309Y-104063609D01*
X69314052Y-104604268D01*
X68854268Y-105064052D01*
X68313609Y-105425309D01*
X67712865Y-105674145D01*
X67075122Y-105801000D01*
X66424878Y-105801000D01*
X65787135Y-105674145D01*
X65186391Y-105425309D01*
X64645732Y-105064052D01*
X64185948Y-104604268D01*
X63824691Y-104063609D01*
X63575855Y-103462865D01*
X63449000Y-102825122D01*
X63449000Y-102174878D01*
X63575855Y-101537135D01*
X63824691Y-100936391D01*
X64185948Y-100395732D01*
X64645732Y-99935948D01*
X65186391Y-99574691D01*
X65787135Y-99325855D01*
X66424878Y-99199000D01*
X67075122Y-99199000D01*
X67712865Y-99325855D01*
X67712865Y-99325855D01*
G37*
G36*
X59712865Y-99325855D02*
X60313609Y-99574691D01*
X60854268Y-99935948D01*
X61314052Y-100395732D01*
X61675309Y-100936391D01*
X61924145Y-101537135D01*
X62051000Y-102174878D01*
X62051000Y-102825122D01*
X61924145Y-103462865D01*
X61675309Y-104063609D01*
X61314052Y-104604268D01*
X60854268Y-105064052D01*
X60313609Y-105425309D01*
X59712865Y-105674145D01*
X59075122Y-105801000D01*
X58424878Y-105801000D01*
X57787135Y-105674145D01*
X57186391Y-105425309D01*
X56645732Y-105064052D01*
X56185948Y-104604268D01*
X55824691Y-104063609D01*
X55575855Y-103462865D01*
X55449000Y-102825122D01*
X55449000Y-102174878D01*
X55575855Y-101537135D01*
X55824691Y-100936391D01*
X56185948Y-100395732D01*
X56645732Y-99935948D01*
X57186391Y-99574691D01*
X57787135Y-99325855D01*
X58424878Y-99199000D01*
X59075122Y-99199000D01*
X59712865Y-99325855D01*
X59712865Y-99325855D01*
G37*
G36*
X91212865Y-99325855D02*
X91813609Y-99574691D01*
X92354268Y-99935948D01*
X92814052Y-100395732D01*
X93175309Y-100936391D01*
X93424145Y-101537135D01*
X93551000Y-102174878D01*
X93551000Y-102825122D01*
X93424145Y-103462865D01*
X93175309Y-104063609D01*
X92814052Y-104604268D01*
X92354268Y-105064052D01*
X91813609Y-105425309D01*
X91212865Y-105674145D01*
X90575122Y-105801000D01*
X89924878Y-105801000D01*
X89287135Y-105674145D01*
X88686391Y-105425309D01*
X88145732Y-105064052D01*
X87685948Y-104604268D01*
X87324691Y-104063609D01*
X87075855Y-103462865D01*
X86949000Y-102825122D01*
X86949000Y-102174878D01*
X87075855Y-101537135D01*
X87324691Y-100936391D01*
X87685948Y-100395732D01*
X88145732Y-99935948D01*
X88686391Y-99574691D01*
X89287135Y-99325855D01*
X89924878Y-99199000D01*
X90575122Y-99199000D01*
X91212865Y-99325855D01*
X91212865Y-99325855D01*
G37*
G36*
X97901000Y-105671000D02*
X96599000Y-105671000D01*
X96599000Y-104569000D01*
X97901000Y-104569000D01*
X97901000Y-105671000D01*
X97901000Y-105671000D01*
G37*
G36*
X74401000Y-105671000D02*
X73099000Y-105671000D01*
X73099000Y-104569000D01*
X74401000Y-104569000D01*
X74401000Y-105671000D01*
X74401000Y-105671000D01*
G37*
G36*
X129397142Y-103298242D02*
X129545102Y-103359530D01*
X129678258Y-103448502D01*
X129791498Y-103561742D01*
X129880470Y-103694898D01*
X129941758Y-103842858D01*
X129973000Y-103999925D01*
X129973000Y-104160075D01*
X129941758Y-104317142D01*
X129880470Y-104465102D01*
X129791498Y-104598258D01*
X129678258Y-104711498D01*
X129545102Y-104800470D01*
X129397142Y-104861758D01*
X129240075Y-104893000D01*
X129079925Y-104893000D01*
X128922858Y-104861758D01*
X128774898Y-104800470D01*
X128641742Y-104711498D01*
X128528502Y-104598258D01*
X128439530Y-104465102D01*
X128378242Y-104317142D01*
X128347000Y-104160075D01*
X128347000Y-103999925D01*
X128378242Y-103842858D01*
X128439530Y-103694898D01*
X128528502Y-103561742D01*
X128641742Y-103448502D01*
X128774898Y-103359530D01*
X128922858Y-103298242D01*
X129079925Y-103267000D01*
X129240075Y-103267000D01*
X129397142Y-103298242D01*
X129397142Y-103298242D01*
G37*
G36*
X121777142Y-103298242D02*
X121925102Y-103359530D01*
X122058258Y-103448502D01*
X122171498Y-103561742D01*
X122260470Y-103694898D01*
X122321758Y-103842858D01*
X122353000Y-103999925D01*
X122353000Y-104160075D01*
X122321758Y-104317142D01*
X122260470Y-104465102D01*
X122171498Y-104598258D01*
X122058258Y-104711498D01*
X121925102Y-104800470D01*
X121777142Y-104861758D01*
X121620075Y-104893000D01*
X121459925Y-104893000D01*
X121302858Y-104861758D01*
X121154898Y-104800470D01*
X121021742Y-104711498D01*
X120908502Y-104598258D01*
X120819530Y-104465102D01*
X120758242Y-104317142D01*
X120727000Y-104160075D01*
X120727000Y-103999925D01*
X120758242Y-103842858D01*
X120819530Y-103694898D01*
X120908502Y-103561742D01*
X121021742Y-103448502D01*
X121154898Y-103359530D01*
X121302858Y-103298242D01*
X121459925Y-103267000D01*
X121620075Y-103267000D01*
X121777142Y-103298242D01*
X121777142Y-103298242D01*
G37*
G36*
X119237142Y-103298242D02*
X119385102Y-103359530D01*
X119518258Y-103448502D01*
X119631498Y-103561742D01*
X119720470Y-103694898D01*
X119781758Y-103842858D01*
X119813000Y-103999925D01*
X119813000Y-104160075D01*
X119781758Y-104317142D01*
X119720470Y-104465102D01*
X119631498Y-104598258D01*
X119518258Y-104711498D01*
X119385102Y-104800470D01*
X119237142Y-104861758D01*
X119080075Y-104893000D01*
X118919925Y-104893000D01*
X118762858Y-104861758D01*
X118614898Y-104800470D01*
X118481742Y-104711498D01*
X118368502Y-104598258D01*
X118279530Y-104465102D01*
X118218242Y-104317142D01*
X118187000Y-104160075D01*
X118187000Y-103999925D01*
X118218242Y-103842858D01*
X118279530Y-103694898D01*
X118368502Y-103561742D01*
X118481742Y-103448502D01*
X118614898Y-103359530D01*
X118762858Y-103298242D01*
X118919925Y-103267000D01*
X119080075Y-103267000D01*
X119237142Y-103298242D01*
X119237142Y-103298242D01*
G37*
G36*
X131471000Y-104751000D02*
X130369000Y-104751000D01*
X130369000Y-103449000D01*
X131471000Y-103449000D01*
X131471000Y-104751000D01*
X131471000Y-104751000D01*
G37*
G36*
X133231000Y-104751000D02*
X132129000Y-104751000D01*
X132129000Y-103449000D01*
X133231000Y-103449000D01*
X133231000Y-104751000D01*
X133231000Y-104751000D01*
G37*
G36*
X99671305Y-99287002D02*
X100090140Y-99460489D01*
X100467086Y-99712357D01*
X100787643Y-100032914D01*
X101039511Y-100409860D01*
X101212998Y-100828695D01*
X101301440Y-101273326D01*
X101301440Y-101726674D01*
X101212998Y-102171305D01*
X101039511Y-102590140D01*
X100787643Y-102967086D01*
X100467086Y-103287643D01*
X100090140Y-103539511D01*
X99671305Y-103712998D01*
X99226674Y-103801440D01*
X98773326Y-103801440D01*
X98328695Y-103712998D01*
X97909860Y-103539511D01*
X97532914Y-103287643D01*
X97212357Y-102967086D01*
X96960489Y-102590140D01*
X96787002Y-102171305D01*
X96698560Y-101726674D01*
X96698560Y-101273326D01*
X96787002Y-100828695D01*
X96960489Y-100409860D01*
X97212357Y-100032914D01*
X97532914Y-99712357D01*
X97909860Y-99460489D01*
X98328695Y-99287002D01*
X98773326Y-99198560D01*
X99226674Y-99198560D01*
X99671305Y-99287002D01*
X99671305Y-99287002D01*
G37*
G36*
X137598500Y-100251000D02*
X136251000Y-100251000D01*
X136226614Y-100253402D01*
X136203165Y-100260515D01*
X136181554Y-100272066D01*
X136162612Y-100287612D01*
X136147066Y-100306554D01*
X136135515Y-100328165D01*
X136128402Y-100351614D01*
X136126000Y-100376000D01*
X136126000Y-101044000D01*
X136128402Y-101068386D01*
X136135515Y-101091835D01*
X136147066Y-101113446D01*
X136162612Y-101132388D01*
X136181554Y-101147934D01*
X136203165Y-101159485D01*
X136226614Y-101166598D01*
X136251000Y-101169000D01*
X139349000Y-101169000D01*
X139373386Y-101166598D01*
X139396835Y-101159485D01*
X139418446Y-101147934D01*
X139437388Y-101132388D01*
X139452934Y-101113446D01*
X139464485Y-101091835D01*
X139471598Y-101068386D01*
X139474000Y-101044000D01*
X139474000Y-100376000D01*
X139471598Y-100351614D01*
X139464485Y-100328165D01*
X139452934Y-100306554D01*
X139437388Y-100287612D01*
X139418446Y-100272066D01*
X139396835Y-100260515D01*
X139373386Y-100253402D01*
X139349000Y-100251000D01*
X138001500Y-100251000D01*
X138001500Y-98249000D01*
X141948500Y-98249000D01*
X141948500Y-100251000D01*
X141176000Y-100251000D01*
X141151614Y-100253402D01*
X141128165Y-100260515D01*
X141106554Y-100272066D01*
X141087612Y-100287612D01*
X141072066Y-100306554D01*
X141060515Y-100328165D01*
X141053402Y-100351614D01*
X141051000Y-100376000D01*
X141051000Y-102651000D01*
X134549000Y-102651000D01*
X134549000Y-100376000D01*
X134546598Y-100351614D01*
X134539485Y-100328165D01*
X134527934Y-100306554D01*
X134512388Y-100287612D01*
X134493446Y-100272066D01*
X134471835Y-100260515D01*
X134448386Y-100253402D01*
X134424000Y-100251000D01*
X133651500Y-100251000D01*
X133651500Y-98249000D01*
X137598500Y-98249000D01*
X137598500Y-100251000D01*
X137598500Y-100251000D01*
G37*
G36*
X108157025Y-99710590D02*
X108308012Y-99756392D01*
X108447165Y-99830770D01*
X108569133Y-99930867D01*
X108669230Y-100052835D01*
X108743608Y-100191988D01*
X108789410Y-100342975D01*
X108801000Y-100460654D01*
X108801000Y-101539346D01*
X108789410Y-101657025D01*
X108743608Y-101808012D01*
X108669230Y-101947165D01*
X108569136Y-102069130D01*
X108569134Y-102069131D01*
X108569133Y-102069133D01*
X108569129Y-102069136D01*
X108447161Y-102169232D01*
X108308011Y-102243608D01*
X108157024Y-102289410D01*
X108000000Y-102304875D01*
X107842975Y-102289410D01*
X107691988Y-102243608D01*
X107552835Y-102169230D01*
X107430870Y-102069136D01*
X107430869Y-102069134D01*
X107430867Y-102069133D01*
X107380819Y-102008149D01*
X107330768Y-101947161D01*
X107256392Y-101808011D01*
X107210590Y-101657024D01*
X107199000Y-101539345D01*
X107199001Y-100460654D01*
X107210591Y-100342975D01*
X107256393Y-100191988D01*
X107330771Y-100052835D01*
X107430868Y-99930867D01*
X107552836Y-99830770D01*
X107691989Y-99756392D01*
X107842976Y-99710590D01*
X108000000Y-99695125D01*
X108157025Y-99710590D01*
X108157025Y-99710590D01*
G37*
G36*
X105657025Y-99710590D02*
X105808012Y-99756392D01*
X105947165Y-99830770D01*
X106069133Y-99930867D01*
X106169230Y-100052835D01*
X106243608Y-100191988D01*
X106289410Y-100342975D01*
X106301000Y-100460654D01*
X106301000Y-101539346D01*
X106289410Y-101657025D01*
X106243608Y-101808012D01*
X106169230Y-101947165D01*
X106069136Y-102069130D01*
X106069134Y-102069131D01*
X106069133Y-102069133D01*
X106069129Y-102069136D01*
X105947161Y-102169232D01*
X105808011Y-102243608D01*
X105657024Y-102289410D01*
X105500000Y-102304875D01*
X105342975Y-102289410D01*
X105191988Y-102243608D01*
X105052835Y-102169230D01*
X104930870Y-102069136D01*
X104930869Y-102069134D01*
X104930867Y-102069133D01*
X104880819Y-102008149D01*
X104830768Y-101947161D01*
X104756392Y-101808011D01*
X104710590Y-101657024D01*
X104699000Y-101539345D01*
X104699001Y-100460654D01*
X104710591Y-100342975D01*
X104756393Y-100191988D01*
X104830771Y-100052835D01*
X104930868Y-99930867D01*
X105052836Y-99830770D01*
X105191989Y-99756392D01*
X105342976Y-99710590D01*
X105500000Y-99695125D01*
X105657025Y-99710590D01*
X105657025Y-99710590D01*
G37*
G36*
X113157025Y-99710590D02*
X113308012Y-99756392D01*
X113447165Y-99830770D01*
X113569133Y-99930867D01*
X113669230Y-100052835D01*
X113743608Y-100191988D01*
X113789410Y-100342975D01*
X113801000Y-100460654D01*
X113801000Y-101539346D01*
X113789410Y-101657025D01*
X113743608Y-101808012D01*
X113669230Y-101947165D01*
X113569136Y-102069130D01*
X113569134Y-102069131D01*
X113569133Y-102069133D01*
X113569129Y-102069136D01*
X113447161Y-102169232D01*
X113308011Y-102243608D01*
X113157024Y-102289410D01*
X113000000Y-102304875D01*
X112842975Y-102289410D01*
X112691988Y-102243608D01*
X112552835Y-102169230D01*
X112430870Y-102069136D01*
X112430869Y-102069134D01*
X112430867Y-102069133D01*
X112380819Y-102008149D01*
X112330768Y-101947161D01*
X112256392Y-101808011D01*
X112210590Y-101657024D01*
X112199000Y-101539345D01*
X112199001Y-100460654D01*
X112210591Y-100342975D01*
X112256393Y-100191988D01*
X112330771Y-100052835D01*
X112430868Y-99930867D01*
X112552836Y-99830770D01*
X112691989Y-99756392D01*
X112842976Y-99710590D01*
X113000000Y-99695125D01*
X113157025Y-99710590D01*
X113157025Y-99710590D01*
G37*
G36*
X115657025Y-99710590D02*
X115808012Y-99756392D01*
X115947165Y-99830770D01*
X116069133Y-99930867D01*
X116169230Y-100052835D01*
X116243608Y-100191988D01*
X116289410Y-100342975D01*
X116301000Y-100460654D01*
X116301000Y-101539346D01*
X116289410Y-101657025D01*
X116243608Y-101808012D01*
X116169230Y-101947165D01*
X116069136Y-102069130D01*
X116069134Y-102069131D01*
X116069133Y-102069133D01*
X116069129Y-102069136D01*
X115947161Y-102169232D01*
X115808011Y-102243608D01*
X115657024Y-102289410D01*
X115500000Y-102304875D01*
X115342975Y-102289410D01*
X115191988Y-102243608D01*
X115052835Y-102169230D01*
X114930870Y-102069136D01*
X114930869Y-102069134D01*
X114930867Y-102069133D01*
X114880819Y-102008149D01*
X114830768Y-101947161D01*
X114756392Y-101808011D01*
X114710590Y-101657024D01*
X114699000Y-101539345D01*
X114699001Y-100460654D01*
X114710591Y-100342975D01*
X114756393Y-100191988D01*
X114830771Y-100052835D01*
X114930868Y-99930867D01*
X115052836Y-99830770D01*
X115191989Y-99756392D01*
X115342976Y-99710590D01*
X115500000Y-99695125D01*
X115657025Y-99710590D01*
X115657025Y-99710590D01*
G37*
G36*
X133231000Y-102151000D02*
X132129000Y-102151000D01*
X132129000Y-100849000D01*
X133231000Y-100849000D01*
X133231000Y-102151000D01*
X133231000Y-102151000D01*
G37*
G36*
X131471000Y-102151000D02*
X130369000Y-102151000D01*
X130369000Y-100849000D01*
X131471000Y-100849000D01*
X131471000Y-102151000D01*
X131471000Y-102151000D01*
G37*
G36*
X121777142Y-98218242D02*
X121925102Y-98279530D01*
X122058258Y-98368502D01*
X122171498Y-98481742D01*
X122260470Y-98614898D01*
X122321758Y-98762858D01*
X122353000Y-98919925D01*
X122353000Y-99080075D01*
X122321758Y-99237142D01*
X122260470Y-99385102D01*
X122171498Y-99518258D01*
X122058258Y-99631498D01*
X121925102Y-99720470D01*
X121777142Y-99781758D01*
X121620075Y-99813000D01*
X121459925Y-99813000D01*
X121302858Y-99781758D01*
X121154898Y-99720470D01*
X121021742Y-99631498D01*
X120908502Y-99518258D01*
X120819530Y-99385102D01*
X120758242Y-99237142D01*
X120727000Y-99080075D01*
X120727000Y-98919925D01*
X120758242Y-98762858D01*
X120819530Y-98614898D01*
X120908502Y-98481742D01*
X121021742Y-98368502D01*
X121154898Y-98279530D01*
X121302858Y-98218242D01*
X121459925Y-98187000D01*
X121620075Y-98187000D01*
X121777142Y-98218242D01*
X121777142Y-98218242D01*
G37*
G36*
X119237142Y-98218242D02*
X119385102Y-98279530D01*
X119518258Y-98368502D01*
X119631498Y-98481742D01*
X119720470Y-98614898D01*
X119781758Y-98762858D01*
X119813000Y-98919925D01*
X119813000Y-99080075D01*
X119781758Y-99237142D01*
X119720470Y-99385102D01*
X119631498Y-99518258D01*
X119518258Y-99631498D01*
X119385102Y-99720470D01*
X119237142Y-99781758D01*
X119080075Y-99813000D01*
X118919925Y-99813000D01*
X118762858Y-99781758D01*
X118614898Y-99720470D01*
X118481742Y-99631498D01*
X118368502Y-99518258D01*
X118279530Y-99385102D01*
X118218242Y-99237142D01*
X118187000Y-99080075D01*
X118187000Y-98919925D01*
X118218242Y-98762858D01*
X118279530Y-98614898D01*
X118368502Y-98481742D01*
X118481742Y-98368502D01*
X118614898Y-98279530D01*
X118762858Y-98218242D01*
X118919925Y-98187000D01*
X119080075Y-98187000D01*
X119237142Y-98218242D01*
X119237142Y-98218242D01*
G37*
G36*
X129397142Y-98218242D02*
X129545102Y-98279530D01*
X129678258Y-98368502D01*
X129791498Y-98481742D01*
X129880470Y-98614898D01*
X129941758Y-98762858D01*
X129973000Y-98919925D01*
X129973000Y-99080075D01*
X129941758Y-99237142D01*
X129880470Y-99385102D01*
X129791498Y-99518258D01*
X129678258Y-99631498D01*
X129545102Y-99720470D01*
X129397142Y-99781758D01*
X129240075Y-99813000D01*
X129079925Y-99813000D01*
X128922858Y-99781758D01*
X128774898Y-99720470D01*
X128641742Y-99631498D01*
X128528502Y-99518258D01*
X128439530Y-99385102D01*
X128378242Y-99237142D01*
X128347000Y-99080075D01*
X128347000Y-98919925D01*
X128378242Y-98762858D01*
X128439530Y-98614898D01*
X128528502Y-98481742D01*
X128641742Y-98368502D01*
X128774898Y-98279530D01*
X128922858Y-98218242D01*
X129079925Y-98187000D01*
X129240075Y-98187000D01*
X129397142Y-98218242D01*
X129397142Y-98218242D01*
G37*
G36*
X133231000Y-99601000D02*
X132129000Y-99601000D01*
X132129000Y-98299000D01*
X133231000Y-98299000D01*
X133231000Y-99601000D01*
X133231000Y-99601000D01*
G37*
G36*
X131471000Y-99601000D02*
X130369000Y-99601000D01*
X130369000Y-98299000D01*
X131471000Y-98299000D01*
X131471000Y-99601000D01*
X131471000Y-99601000D01*
G37*
M02*
