M48
;DRILL file {KiCad 4.0.1-stable} date 2018/10/17 9:50:09
;FORMAT={-:-/ absolute / metric / decimal}
FMAT,2
METRIC,TZ
T1C1.000
T2C1.001
T3C1.016
T4C1.100
T5C3.000
%
G90
G05
M71
T1
X129.93Y-125.575
X132.43Y-125.575
X134.93Y-125.575
X137.43Y-125.575
X143.08Y-125.6
X145.58Y-125.6
X148.08Y-125.6
X149.24Y-76.385
X150.58Y-125.6
X151.74Y-76.385
X154.45Y-97.485
X154.45Y-99.985
X154.45Y-102.485
X154.45Y-104.985
X161.6Y-97.46
X161.6Y-99.96
X161.6Y-102.46
X161.6Y-104.96
X161.64Y-78.41
X161.64Y-80.91
X161.64Y-83.41
X161.64Y-85.91
T2
X111.225Y-71.73
X111.225Y-74.27
X117.61Y-71.74
X117.61Y-74.28
X147.75Y-93.68
X147.75Y-96.22
X153.96Y-115.24
X153.96Y-120.3
X153.97Y-110.36
X156.5Y-115.24
X156.5Y-120.3
X156.51Y-110.36
X160.17Y-110.3
X160.17Y-115.24
X160.17Y-120.3
X162.71Y-110.3
X162.71Y-115.24
X162.71Y-120.3
T3
X105.165Y-86.485
X105.165Y-89.025
X105.165Y-91.565
X105.165Y-94.105
X105.165Y-96.645
X105.165Y-99.185
X105.165Y-101.725
X105.165Y-104.265
X105.165Y-106.805
X105.165Y-109.345
X105.165Y-111.885
X105.165Y-114.425
X113.175Y-82.035
X113.175Y-84.575
X113.175Y-87.115
X113.175Y-89.655
X113.175Y-92.195
X113.175Y-94.735
X113.175Y-97.275
X113.175Y-99.815
X113.175Y-102.355
X113.175Y-104.895
X113.175Y-107.435
X113.175Y-109.975
X113.175Y-112.515
X113.175Y-115.055
X113.175Y-117.595
X115.715Y-82.035
X115.715Y-84.575
X115.715Y-87.115
X115.715Y-89.655
X115.715Y-92.195
X115.715Y-94.735
X115.715Y-97.275
X115.715Y-99.815
X115.715Y-102.355
X115.715Y-104.895
X115.715Y-107.435
X115.715Y-109.975
X115.715Y-112.515
X115.715Y-115.055
X115.715Y-117.595
X120.215Y-81.535
X122.755Y-81.535
X125.295Y-81.535
X127.835Y-81.535
X130.375Y-81.535
X132.915Y-81.535
X141.175Y-82.035
X141.175Y-84.575
X141.175Y-87.115
X141.175Y-89.655
X141.175Y-92.195
X141.175Y-94.735
X141.175Y-97.275
X141.175Y-99.815
X141.175Y-102.355
X141.175Y-104.895
X141.175Y-107.435
X141.175Y-109.975
X141.175Y-112.515
X141.175Y-115.055
X141.175Y-117.595
X143.715Y-82.035
X143.715Y-84.575
X143.715Y-87.115
X143.715Y-89.655
X143.715Y-92.195
X143.715Y-94.735
X143.715Y-97.275
X143.715Y-99.815
X143.715Y-102.355
X143.715Y-104.895
X143.715Y-107.435
X143.715Y-109.975
X143.715Y-112.515
X143.715Y-115.055
X143.715Y-117.595
T4
X109.14Y-123.46
X109.14Y-127.96
X115.64Y-123.46
X115.64Y-127.96
X118.39Y-123.46
X118.39Y-127.96
X124.89Y-123.46
X124.89Y-127.96
T5
X104.09Y-72.66
X104.09Y-126.66
X168.09Y-72.66
X168.09Y-126.66
X168.1Y-101.21
X168.14Y-82.16
T0
M30
