M48
;DRILL file {KiCad 4.0.1-stable} date 2018/12/22 9:49:52
;FORMAT={-:-/ absolute / metric / decimal}
FMAT,2
METRIC,TZ
T1C1.000
T2C1.001
T3C1.016
T4C1.100
T5C3.000
T6C0.899
%
G90
G05
M71
T1
X110.Y-125.5
X112.5Y-125.5
X115.Y-125.5
X117.5Y-125.5
X142.75Y-125.5
X145.25Y-125.5
X147.75Y-125.5
X149.25Y-75.5
X150.25Y-125.5
X151.75Y-75.5
X154.46Y-96.74
X154.46Y-99.24
X154.46Y-101.74
X154.46Y-104.24
X161.58Y-96.81
X161.58Y-99.31
X161.58Y-101.81
X161.58Y-104.31
X161.64Y-78.41
X161.64Y-80.91
X161.64Y-83.41
X161.64Y-85.91
T2
X111.225Y-71.73
X111.225Y-74.27
X117.61Y-71.74
X117.61Y-74.28
X147.75Y-93.68
X147.75Y-96.22
X153.94Y-113.79
X153.94Y-118.32
X153.95Y-109.27
X156.48Y-113.79
X156.48Y-118.32
X156.49Y-109.27
X160.16Y-109.26
X160.16Y-113.8
X160.16Y-118.34
X162.7Y-109.26
X162.7Y-113.8
X162.7Y-118.34
T3
X103.25Y-77.75
X103.25Y-80.29
X103.25Y-82.83
X103.25Y-85.37
X104.75Y-88.5
X104.75Y-91.04
X104.75Y-93.58
X104.75Y-96.12
X104.75Y-98.66
X104.75Y-101.2
X104.75Y-103.74
X104.75Y-106.28
X104.75Y-108.82
X104.75Y-111.36
X104.75Y-113.9
X104.75Y-116.44
X104.75Y-118.98
X104.75Y-121.52
X105.79Y-77.75
X105.79Y-80.29
X105.79Y-82.83
X105.79Y-85.37
X108.5Y-77.75
X108.5Y-80.29
X108.5Y-82.83
X108.5Y-85.37
X113.175Y-82.035
X113.175Y-84.575
X113.175Y-87.115
X113.175Y-89.655
X113.175Y-92.195
X113.175Y-94.735
X113.175Y-97.275
X113.175Y-99.815
X113.175Y-102.355
X113.175Y-104.895
X113.175Y-107.435
X113.175Y-109.975
X113.175Y-112.515
X113.175Y-115.055
X113.175Y-117.595
X115.715Y-82.035
X115.715Y-84.575
X115.715Y-87.115
X115.715Y-89.655
X115.715Y-92.195
X115.715Y-94.735
X115.715Y-97.275
X115.715Y-99.815
X115.715Y-102.355
X115.715Y-104.895
X115.715Y-107.435
X115.715Y-109.975
X115.715Y-112.515
X115.715Y-115.055
X115.715Y-117.595
X120.215Y-81.535
X122.755Y-81.535
X125.295Y-81.535
X127.835Y-81.535
X130.375Y-81.535
X132.915Y-81.535
X141.175Y-82.035
X141.175Y-84.575
X141.175Y-87.115
X141.175Y-89.655
X141.175Y-92.195
X141.175Y-94.735
X141.175Y-97.275
X141.175Y-99.815
X141.175Y-102.355
X141.175Y-104.895
X141.175Y-107.435
X141.175Y-109.975
X141.175Y-112.515
X141.175Y-115.055
X141.175Y-117.595
X143.715Y-82.035
X143.715Y-84.575
X143.715Y-87.115
X143.715Y-89.655
X143.715Y-92.195
X143.715Y-94.735
X143.715Y-97.275
X143.715Y-99.815
X143.715Y-102.355
X143.715Y-104.895
X143.715Y-107.435
X143.715Y-109.975
X143.715Y-112.515
X143.715Y-115.055
X143.715Y-117.595
X147.75Y-82.5
X150.29Y-82.5
X154.75Y-123.
X154.75Y-125.71
X154.75Y-128.25
X157.29Y-123.
X157.29Y-125.71
X157.29Y-128.25
X158.96Y-92.
X159.83Y-123.
X159.83Y-125.71
X159.83Y-128.25
X161.5Y-92.
X162.37Y-123.
X162.37Y-125.71
X162.37Y-128.25
T4
X121.45Y-122.75
X121.45Y-127.
X127.05Y-122.75
X127.05Y-127.
T5
X104.09Y-72.66
X104.09Y-126.66
X168.08Y-100.56
X168.09Y-72.66
X168.09Y-126.66
X168.14Y-82.16
T6
X131.8Y-125.399
X136.2Y-125.399
T0
M30
