M48
;DRILL file {KiCad (5.0.2)-1} date 2019/05/03 14:05:27
;FORMAT={-:-/ absolute / metric / decimal}
FMAT,2
METRIC,TZ
T1C0.300
T2C0.400
T3C0.700
T4C0.762
T5C0.800
T6C1.000
T7C1.016
T8C1.500
T9C3.000
T10C4.500
T11C6.500
%
G90
G05
T1
X113.03Y-127.5
X115.8Y-126.25
X116.33Y-144.87
X117.22Y-144.
X117.33Y-147.81
X117.61Y-148.7
X118.24Y-137.57
X118.93Y-137.78
X120.18Y-142.25
X120.2Y-140.75
X120.47Y-116.25
X120.675Y-128.24
X122.16Y-130.59
X123.55Y-165.95
X123.96Y-114.83
X124.Y-146.3
X124.Y-163.75
X124.43Y-136.5
X124.91Y-129.97
X125.24Y-114.51
X125.75Y-147.07
X126.57Y-136.75
X128.37Y-115.25
X129.Y-106.25
X129.448Y-142.698
X130.592Y-141.592
X130.77Y-133.78
X131.Y-106.25
X131.355Y-136.09
X133.07Y-159.47
X135.02Y-140.405
X135.02Y-144.215
X135.98Y-152.34
X136.5Y-103.
X137.5Y-132.25
X137.887Y-162.414
X138.Y-161.66
X138.95Y-164.63
X146.Y-166.95
T2
X49.25Y-136.
X49.25Y-138.
X49.25Y-140.
X49.25Y-142.
X49.25Y-144.
X49.25Y-146.
X49.25Y-148.
X49.25Y-150.
X49.25Y-152.
X49.25Y-154.
X49.25Y-156.
X49.25Y-158.
X49.25Y-160.
X49.25Y-162.
X49.25Y-164.
X49.25Y-166.
X49.25Y-168.
X50.Y-137.
X50.Y-139.
X50.Y-141.
X50.Y-141.
X50.Y-141.
X50.Y-143.
X50.Y-145.
X50.Y-147.
X50.Y-149.
X50.Y-151.
X50.Y-153.
X50.Y-155.
X50.Y-157.
X50.Y-159.
X50.Y-161.
X50.Y-163.
X50.Y-165.
X50.75Y-136.
X50.75Y-138.
X50.75Y-140.
X50.75Y-142.
X50.75Y-144.
X50.75Y-146.
X50.75Y-148.
X50.75Y-152.
X50.75Y-154.
X50.75Y-156.
X50.75Y-164.
X51.5Y-137.
X51.5Y-139.
X51.5Y-141.
X51.5Y-143.
X51.5Y-145.
X51.5Y-147.
X51.5Y-153.
X51.5Y-155.
X51.5Y-157.
X51.5Y-163.
X51.5Y-165.
X52.25Y-136.
X52.25Y-138.
X52.25Y-140.
X52.25Y-142.
X52.25Y-144.
X52.25Y-146.
X52.25Y-154.
X52.25Y-156.
X52.25Y-164.
X53.Y-137.
X53.Y-139.
X53.Y-141.
X53.Y-143.
X53.Y-145.
X53.Y-155.
X53.Y-165.
X53.25Y-168.5
X53.75Y-136.
X53.75Y-138.
X53.75Y-140.
X53.75Y-142.
X53.75Y-144.
X53.75Y-146.
X53.75Y-154.
X53.75Y-156.
X53.75Y-164.
X54.5Y-137.
X54.5Y-139.
X54.5Y-141.
X54.5Y-143.
X54.5Y-145.
X54.5Y-147.
X54.5Y-153.
X54.5Y-155.
X54.5Y-157.
X54.5Y-163.
X54.5Y-165.
X54.75Y-169.75
X55.Y-171.75
X55.Y-173.75
X55.22Y-142.02
X55.25Y-100.5
X55.25Y-102.5
X55.25Y-104.5
X55.25Y-136.
X55.25Y-138.
X55.25Y-140.
X55.25Y-144.
X55.25Y-146.
X55.25Y-154.
X55.25Y-156.
X55.25Y-164.
X56.Y-99.5
X56.Y-101.5
X56.Y-103.5
X56.Y-137.
X56.Y-139.
X56.Y-141.
X56.Y-143.
X56.Y-145.
X56.Y-147.
X56.Y-153.
X56.Y-155.
X56.Y-157.
X56.Y-163.
X56.75Y-100.5
X56.75Y-136.
X56.75Y-138.
X56.75Y-140.
X56.75Y-142.
X56.75Y-144.
X56.75Y-146.
X56.75Y-148.
X56.75Y-150.
X56.75Y-152.
X56.75Y-154.
X56.75Y-156.
X56.75Y-158.
X56.75Y-160.
X56.75Y-162.
X57.5Y-99.5
X57.5Y-137.
X57.5Y-139.
X57.5Y-141.
X57.5Y-143.
X57.5Y-145.
X57.5Y-147.
X57.5Y-149.
X57.5Y-151.
X57.5Y-153.
X57.5Y-155.
X57.5Y-157.
X57.5Y-159.
X57.5Y-161.
X58.Y-173.75
X58.25Y-136.
X58.25Y-138.
X58.25Y-140.
X58.25Y-142.
X58.25Y-144.
X58.25Y-146.
X58.25Y-148.
X58.25Y-150.
X58.25Y-152.
X58.25Y-154.
X58.25Y-156.
X58.25Y-158.
X58.25Y-160.
X59.Y-99.5
X60.5Y-99.5
X61.Y-173.75
X61.25Y-100.5
X61.25Y-102.5
X61.25Y-104.5
X61.25Y-104.5
X61.25Y-104.5
X61.25Y-104.5
X62.Y-99.5
X62.Y-101.5
X62.Y-103.5
X62.5Y-165.
X62.5Y-168.25
X62.75Y-100.5
X62.75Y-102.5
X62.75Y-104.5
X63.5Y-99.5
X63.5Y-101.5
X63.5Y-103.5
X64.Y-173.75
X64.25Y-100.5
X64.25Y-102.5
X64.25Y-104.5
X64.47Y-167.25
X65.Y-99.5
X65.Y-101.5
X65.Y-103.5
X65.75Y-100.5
X65.75Y-104.5
X66.Y-165.
X66.5Y-99.5
X68.Y-99.5
X68.75Y-100.5
X68.75Y-104.5
X69.5Y-99.5
X69.5Y-101.5
X69.5Y-103.5
X69.5Y-165.
X69.5Y-168.75
X69.5Y-172.
X70.25Y-100.5
X70.25Y-102.5
X70.25Y-104.5
X71.Y-99.5
X71.Y-101.5
X71.Y-103.5
X71.75Y-100.5
X71.75Y-102.5
X71.75Y-104.5
X72.5Y-99.5
X72.5Y-101.5
X72.5Y-103.5
X73.25Y-100.5
X73.25Y-102.5
X73.25Y-104.5
X74.Y-99.5
X74.Y-101.5
X74.Y-103.5
X74.75Y-100.5
X74.75Y-102.5
X74.75Y-104.5
X75.5Y-99.5
X75.5Y-101.5
X75.5Y-103.5
X76.Y-111.55
X76.Y-113.43
X76.25Y-100.5
X76.25Y-102.5
X76.25Y-104.5
X77.Y-99.5
X77.Y-101.5
X77.Y-103.5
X77.75Y-100.5
X77.75Y-102.5
X77.75Y-104.5
X78.25Y-114.75
X78.5Y-99.5
X78.5Y-101.5
X78.5Y-103.5
X79.25Y-100.5
X79.25Y-102.5
X79.25Y-104.5
X80.Y-99.5
X81.5Y-99.5
X83.Y-99.5
X84.5Y-99.5
X84.5Y-101.5
X84.5Y-103.5
X85.25Y-100.5
X85.25Y-102.5
X85.25Y-104.5
X86.Y-99.5
X86.Y-101.5
X86.Y-103.5
X86.75Y-100.5
X86.75Y-102.5
X86.75Y-104.5
X87.5Y-99.5
X87.5Y-101.5
X87.5Y-103.5
X88.25Y-100.5
X88.25Y-104.5
X89.Y-99.5
X90.5Y-99.5
X92.Y-99.5
X92.75Y-100.5
X92.75Y-102.5
X92.75Y-104.5
X93.5Y-99.5
X93.5Y-101.5
X93.5Y-103.5
X94.25Y-100.5
X94.25Y-102.5
X94.25Y-104.5
X95.Y-99.5
X95.Y-101.5
X95.Y-103.5
X95.75Y-100.5
X95.75Y-102.5
X95.75Y-104.5
X96.5Y-99.5
X96.5Y-101.5
X96.5Y-103.5
X97.25Y-100.5
X97.25Y-102.5
X97.25Y-104.5
X97.75Y-144.51
X98.Y-99.5
X98.Y-103.5
X98.75Y-104.5
X99.5Y-99.5
X99.5Y-103.5
X99.97Y-147.25
X100.Y-123.75
X100.25Y-104.5
X100.752Y-165.75
X101.Y-99.5
X101.Y-101.5
X101.Y-103.5
X101.5Y-139.43
X101.5Y-142.3
X101.75Y-100.5
X101.75Y-102.5
X102.Y-111.55
X102.Y-113.43
X102.Y-123.5
X102.04Y-104.77
X102.5Y-99.5
X102.5Y-101.5
X102.5Y-103.5
X103.75Y-114.75
X104.66Y-147.115
X104.7Y-161.385
X107.65Y-106.499
X107.65Y-111.49
X107.78Y-108.99
X110.Y-109.75
X110.Y-111.75
X110.Y-131.75
X110.Y-133.75
X110.Y-135.75
X110.Y-137.75
X110.Y-139.75
X110.Y-141.75
X110.Y-145.5
X110.Y-151.
X110.Y-153.
X110.Y-155.
X110.Y-157.
X110.Y-159.
X110.Y-163.
X110.Y-166.25
X110.Y-168.25
X110.Y-170.25
X110.Y-172.25
X110.Y-174.25
X110.5Y-108.25
X111.5Y-107.25
X111.75Y-138.55
X112.25Y-174.25
X112.94Y-161.39
X113.5Y-107.25
X114.25Y-174.25
X114.55Y-147.25
X114.75Y-134.28
X114.78Y-164.5
X115.05Y-110.75
X115.25Y-107.
X116.25Y-174.25
X116.75Y-106.5
X118.25Y-106.5
X118.25Y-174.25
X118.5Y-134.28
X119.25Y-112.8
X119.5Y-170.5
X119.85Y-133.5
X120.25Y-174.25
X120.75Y-106.5
X121.113Y-134.764
X122.Y-140.
X122.Y-143.5
X122.25Y-174.25
X122.5Y-110.25
X122.5Y-169.5
X122.69Y-111.73
X123.25Y-137.5
X124.Y-142.
X124.25Y-145.
X124.25Y-174.25
X125.Y-139.25
X125.25Y-105.25
X126.25Y-174.25
X126.5Y-104.75
X126.511Y-108.889
X126.55Y-129.25
X126.75Y-143.75
X126.75Y-149.75
X127.25Y-164.25
X127.5Y-138.
X127.77Y-111.51
X128.25Y-174.25
X128.5Y-143.75
X130.Y-109.75
X130.25Y-174.25
X130.5Y-147.75
X130.92Y-98.95
X130.92Y-101.5
X130.92Y-104.1
X131.28Y-160.2
X131.5Y-129.25
X131.7Y-167.5
X131.9Y-110.69
X132.25Y-174.25
X132.9Y-167.8
X133.75Y-110.32
X134.25Y-174.25
X134.73Y-168.93
X136.Y-151.
X136.25Y-174.25
X137.Y-106.
X137.Y-154.
X137.03Y-167.75
X137.9Y-123.42
X137.9Y-126.81
X138.25Y-174.25
X138.75Y-160.
X139.25Y-103.83
X139.25Y-108.41
X140.25Y-174.25
X140.75Y-126.635
X141.Y-155.25
X141.Y-167.
X141.24Y-136.88
X141.25Y-128.75
X141.25Y-132.75
X141.25Y-171.25
X141.25Y-173.25
X141.5Y-103.25
X141.5Y-169.5
X142.Y-108.7
X142.5Y-114.
X142.5Y-135.55
X142.75Y-122.7
X142.75Y-147.75
X142.75Y-155.2
X143.Y-104.75
X143.Y-156.75
X143.5Y-168.5
X144.Y-129.5
X144.Y-162.25
X144.Y-163.75
X144.Y-165.
X144.Y-167.25
X145.Y-105.
X145.5Y-130.
X147.Y-104.5
X147.Y-113.5
X147.Y-142.25
X147.Y-144.25
X147.Y-146.25
X147.Y-148.25
X147.Y-150.25
X147.Y-152.25
X147.Y-154.25
X147.Y-156.25
X147.Y-158.25
X147.Y-160.25
X147.25Y-163.75
T3
X142.5Y-160.
X142.5Y-161.5
X142.5Y-163.
X142.5Y-164.5
X142.5Y-166.
X142.5Y-167.5
T4
X119.Y-99.
X119.Y-104.08
X121.54Y-99.
X121.54Y-104.08
X129.16Y-99.
X129.16Y-104.08
X126.71Y-131.
X129.25Y-131.
X131.79Y-131.
X126.71Y-127.4
X129.25Y-127.4
X131.79Y-127.4
T5
X66.25Y-170.25
X66.25Y-172.75
X124.Y-170.25
X124.Y-172.75
X120.Y-124.5
X121.5Y-124.5
X123.Y-124.5
X124.5Y-124.5
X126.Y-124.5
X127.5Y-124.5
X129.Y-124.5
X130.5Y-124.5
X132.Y-124.5
T6
X144.75Y-153.
X144.75Y-155.5
X130.Y-171.75
X132.5Y-171.75
X135.Y-171.75
X137.5Y-171.75
X113.Y-101.
X115.5Y-101.
X144.75Y-133.
X144.75Y-135.5
X144.75Y-138.
X144.75Y-140.5
X56.75Y-171.75
X59.25Y-171.75
X130.Y-165.25
X132.5Y-165.25
X135.Y-165.25
X137.5Y-165.25
X144.75Y-145.5
X144.75Y-148.
X105.5Y-101.
X108.Y-101.
X144.75Y-120.5
X144.75Y-123.
X144.75Y-125.5
X144.75Y-128.
T7
X143.21Y-115.75
X145.75Y-115.75
X50.25Y-112.5
X52.79Y-112.5
T8
X72.39Y-154.38
X72.39Y-164.54
X72.39Y-169.62
X118.11Y-151.84
X118.11Y-162.
X118.11Y-172.16
T9
X51.Y-101.
X51.Y-172.
X145.Y-101.
X145.Y-172.
X99.Y-101.5
T10
X58.75Y-102.5
X58.75Y-109.5
X67.Y-102.5
X67.Y-109.5
X82.Y-102.5
X82.Y-109.5
X90.25Y-102.5
X90.25Y-109.5
T11
X53.25Y-150.
X64.25Y-150.
X53.25Y-160.
X64.25Y-160.
T3
X117.55Y-122.4G85X118.45Y-122.4
G05
X133.55Y-122.4G85X134.45Y-122.4
G05
T6
X54.05Y-122.9G85X54.05Y-128.9
G05
X70.95Y-122.9G85X70.95Y-128.9
G05
X80.8Y-122.9G85X80.8Y-128.9
G05
X97.7Y-122.9G85X97.7Y-128.9
G05
T8
X84.5Y-117.5G85X94.Y-117.5
G05
X89.25Y-130.5G85X89.25Y-140.
G05
X57.75Y-117.5G85X67.25Y-117.5
G05
X62.5Y-130.5G85X62.5Y-140.
G05
T0
M30
