M48
;DRILL file {KiCad (5.0.2)-1} date 2019/04/09 18:59:38
;FORMAT={-:-/ absolute / metric / decimal}
FMAT,2
METRIC,TZ
T1C0.800
T2C1.000
T3C1.001
T4C1.016
T5C1.500
T6C3.000
%
G90
G05
T1
X108.78Y-89.75
X108.78Y-93.25
X108.78Y-102.75
X108.78Y-106.25
X115.Y-120.44
X118.75Y-120.47
X123.85Y-109.95
X126.75Y-97.25
X149.19Y-121.12
X152.69Y-121.12
T2
X148.52Y-125.27
X151.02Y-125.27
X153.52Y-125.27
X156.02Y-125.27
X123.51Y-125.24
X126.01Y-125.24
X128.51Y-125.24
X131.01Y-125.24
X166.31Y-116.99
X166.31Y-119.53
X166.31Y-122.07
X161.58Y-94.81
X161.58Y-97.31
X161.58Y-99.81
X161.58Y-102.31
X163.66Y-116.99
X163.66Y-119.53
X163.66Y-122.07
X163.66Y-124.61
X111.Y-125.25
X113.5Y-125.25
X116.Y-125.25
X118.5Y-125.25
X154.46Y-94.74
X154.46Y-97.24
X154.46Y-99.74
X154.46Y-102.24
X104.75Y-89.
X104.75Y-91.5
X104.75Y-94.
X104.75Y-96.5
X104.75Y-115.
X104.75Y-117.5
X104.75Y-120.
X104.75Y-122.5
X161.64Y-78.41
X161.64Y-80.91
X161.64Y-83.41
X161.64Y-85.91
X104.75Y-102.
X104.75Y-104.5
X104.75Y-107.
X104.75Y-109.5
X149.25Y-75.4
X151.75Y-75.4
X136.03Y-125.26
X138.53Y-125.26
X141.03Y-125.26
X143.53Y-125.26
T3
X150.42Y-113.63
X152.96Y-113.63
X149.5Y-94.21
X149.5Y-96.75
X125.4Y-71.46
X125.4Y-74.
X156.92Y-113.63
X159.46Y-113.63
X120.9Y-71.46
X120.9Y-74.
X156.92Y-109.13
X159.46Y-109.13
X150.42Y-109.13
X152.96Y-109.13
T4
X120.215Y-81.535
X122.755Y-81.535
X125.295Y-81.535
X127.835Y-81.535
X130.375Y-81.535
X132.915Y-81.535
X161.06Y-116.99
X161.06Y-119.53
X161.06Y-122.07
X161.06Y-124.61
X103.25Y-77.25
X103.25Y-79.79
X103.25Y-82.33
X103.25Y-84.87
X105.79Y-77.25
X105.79Y-79.79
X105.79Y-82.33
X105.79Y-84.87
X161.27Y-90.49
X163.81Y-90.49
X141.175Y-82.035
X141.175Y-84.575
X141.175Y-87.115
X141.175Y-89.655
X141.175Y-92.195
X141.175Y-94.735
X141.175Y-97.275
X141.175Y-99.815
X141.175Y-102.355
X141.175Y-104.895
X141.175Y-107.435
X141.175Y-109.975
X141.175Y-112.515
X141.175Y-115.055
X141.175Y-117.595
X143.715Y-82.035
X143.715Y-84.575
X143.715Y-87.115
X143.715Y-89.655
X143.715Y-92.195
X143.715Y-94.735
X143.715Y-97.275
X143.715Y-99.815
X143.715Y-102.355
X143.715Y-104.895
X143.715Y-107.435
X143.715Y-109.975
X143.715Y-112.515
X143.715Y-115.055
X143.715Y-117.595
X108.5Y-77.25
X108.5Y-79.79
X108.5Y-82.33
X108.5Y-84.87
X113.175Y-82.035
X113.175Y-84.575
X113.175Y-87.115
X113.175Y-89.655
X113.175Y-92.195
X113.175Y-94.735
X113.175Y-97.275
X113.175Y-99.815
X113.175Y-102.355
X113.175Y-104.895
X113.175Y-107.435
X113.175Y-109.975
X113.175Y-112.515
X113.175Y-115.055
X113.175Y-117.595
X115.715Y-82.035
X115.715Y-84.575
X115.715Y-87.115
X115.715Y-89.655
X115.715Y-92.195
X115.715Y-94.735
X115.715Y-97.275
X115.715Y-99.815
X115.715Y-102.355
X115.715Y-104.895
X115.715Y-107.435
X115.715Y-109.975
X115.715Y-112.515
X115.715Y-115.055
X115.715Y-117.595
T5
X151.1Y-85.1
X157.1Y-85.1
X151.1Y-80.95
X157.1Y-80.95
T6
X104.09Y-72.66
X104.09Y-126.66
X168.09Y-72.66
X168.09Y-126.66
X168.14Y-82.16
X168.08Y-98.56
T0
M30
