G04 #@! TF.FileFunction,Copper,L2,Bot,Signal*
%FSLAX46Y46*%
G04 Gerber Fmt 4.6, Leading zero omitted, Abs format (unit mm)*
G04 Created by KiCad (PCBNEW 4.0.1-stable) date 2018/08/21 16:15:17*
%MOMM*%
G01*
G04 APERTURE LIST*
%ADD10C,0.100000*%
%ADD11C,0.300000*%
%ADD12R,1.000000X1.200000*%
%ADD13O,2.500000X1.500000*%
%ADD14O,1.500000X2.500000*%
%ADD15C,3.000000*%
%ADD16C,1.501140*%
%ADD17C,2.999740*%
%ADD18R,2.032000X1.727200*%
%ADD19O,2.032000X1.727200*%
%ADD20R,1.200000X1.000000*%
%ADD21R,2.000000X2.000000*%
%ADD22C,2.000000*%
%ADD23R,1.727200X1.727200*%
%ADD24O,1.727200X1.727200*%
%ADD25R,1.727200X2.032000*%
%ADD26O,1.727200X2.032000*%
%ADD27C,6.000000*%
%ADD28C,0.500000*%
%ADD29C,0.250000*%
G04 APERTURE END LIST*
D10*
D11*
X159350000Y-62258571D02*
X159350000Y-60758571D01*
X158850000Y-61830000D01*
X158350000Y-60758571D01*
X158350000Y-62258571D01*
X156992857Y-62258571D02*
X156992857Y-61472857D01*
X157064286Y-61330000D01*
X157207143Y-61258571D01*
X157492857Y-61258571D01*
X157635714Y-61330000D01*
X156992857Y-62187143D02*
X157135714Y-62258571D01*
X157492857Y-62258571D01*
X157635714Y-62187143D01*
X157707143Y-62044286D01*
X157707143Y-61901429D01*
X157635714Y-61758571D01*
X157492857Y-61687143D01*
X157135714Y-61687143D01*
X156992857Y-61615714D01*
X156278571Y-61258571D02*
X156278571Y-62258571D01*
X156278571Y-61401429D02*
X156207143Y-61330000D01*
X156064285Y-61258571D01*
X155850000Y-61258571D01*
X155707143Y-61330000D01*
X155635714Y-61472857D01*
X155635714Y-62258571D01*
X154278571Y-61258571D02*
X154278571Y-62258571D01*
X154921428Y-61258571D02*
X154921428Y-62044286D01*
X154850000Y-62187143D01*
X154707142Y-62258571D01*
X154492857Y-62258571D01*
X154350000Y-62187143D01*
X154278571Y-62115714D01*
X152921428Y-62258571D02*
X152921428Y-61472857D01*
X152992857Y-61330000D01*
X153135714Y-61258571D01*
X153421428Y-61258571D01*
X153564285Y-61330000D01*
X152921428Y-62187143D02*
X153064285Y-62258571D01*
X153421428Y-62258571D01*
X153564285Y-62187143D01*
X153635714Y-62044286D01*
X153635714Y-61901429D01*
X153564285Y-61758571D01*
X153421428Y-61687143D01*
X153064285Y-61687143D01*
X152921428Y-61615714D01*
X151992856Y-62258571D02*
X152135714Y-62187143D01*
X152207142Y-62044286D01*
X152207142Y-60758571D01*
X150278571Y-62258571D02*
X150278571Y-61258571D01*
X150278571Y-61401429D02*
X150207143Y-61330000D01*
X150064285Y-61258571D01*
X149850000Y-61258571D01*
X149707143Y-61330000D01*
X149635714Y-61472857D01*
X149635714Y-62258571D01*
X149635714Y-61472857D02*
X149564285Y-61330000D01*
X149421428Y-61258571D01*
X149207143Y-61258571D01*
X149064285Y-61330000D01*
X148992857Y-61472857D01*
X148992857Y-62258571D01*
X147635714Y-62258571D02*
X147635714Y-61472857D01*
X147707143Y-61330000D01*
X147850000Y-61258571D01*
X148135714Y-61258571D01*
X148278571Y-61330000D01*
X147635714Y-62187143D02*
X147778571Y-62258571D01*
X148135714Y-62258571D01*
X148278571Y-62187143D01*
X148350000Y-62044286D01*
X148350000Y-61901429D01*
X148278571Y-61758571D01*
X148135714Y-61687143D01*
X147778571Y-61687143D01*
X147635714Y-61615714D01*
X146921428Y-62258571D02*
X146921428Y-61258571D01*
X146921428Y-60758571D02*
X146992857Y-60830000D01*
X146921428Y-60901429D01*
X146850000Y-60830000D01*
X146921428Y-60758571D01*
X146921428Y-60901429D01*
X146207142Y-61258571D02*
X146207142Y-62258571D01*
X146207142Y-61401429D02*
X146135714Y-61330000D01*
X145992856Y-61258571D01*
X145778571Y-61258571D01*
X145635714Y-61330000D01*
X145564285Y-61472857D01*
X145564285Y-62258571D01*
X143849999Y-61258571D02*
X143492856Y-62258571D01*
X143135714Y-61258571D01*
X141992857Y-62187143D02*
X142135714Y-62258571D01*
X142421428Y-62258571D01*
X142564285Y-62187143D01*
X142635714Y-62044286D01*
X142635714Y-61472857D01*
X142564285Y-61330000D01*
X142421428Y-61258571D01*
X142135714Y-61258571D01*
X141992857Y-61330000D01*
X141921428Y-61472857D01*
X141921428Y-61615714D01*
X142635714Y-61758571D01*
X141278571Y-62258571D02*
X141278571Y-61258571D01*
X141278571Y-61544286D02*
X141207143Y-61401429D01*
X141135714Y-61330000D01*
X140992857Y-61258571D01*
X140850000Y-61258571D01*
X140350000Y-62115714D02*
X140278572Y-62187143D01*
X140350000Y-62258571D01*
X140421429Y-62187143D01*
X140350000Y-62115714D01*
X140350000Y-62258571D01*
X139635714Y-61472857D02*
X139135714Y-61472857D01*
X138921428Y-62258571D02*
X139635714Y-62258571D01*
X139635714Y-60758571D01*
X138921428Y-60758571D01*
X138278571Y-62258571D02*
X138278571Y-60758571D01*
X137421428Y-62258571D01*
X137421428Y-60758571D01*
X135849999Y-62115714D02*
X135921428Y-62187143D01*
X136135714Y-62258571D01*
X136278571Y-62258571D01*
X136492856Y-62187143D01*
X136635714Y-62044286D01*
X136707142Y-61901429D01*
X136778571Y-61615714D01*
X136778571Y-61401429D01*
X136707142Y-61115714D01*
X136635714Y-60972857D01*
X136492856Y-60830000D01*
X136278571Y-60758571D01*
X136135714Y-60758571D01*
X135921428Y-60830000D01*
X135849999Y-60901429D01*
X135564285Y-62401429D02*
X134421428Y-62401429D01*
X134135714Y-60901429D02*
X134064285Y-60830000D01*
X133921428Y-60758571D01*
X133564285Y-60758571D01*
X133421428Y-60830000D01*
X133349999Y-60901429D01*
X133278571Y-61044286D01*
X133278571Y-61187143D01*
X133349999Y-61401429D01*
X134207142Y-62258571D01*
X133278571Y-62258571D01*
D12*
X147470000Y-111430000D03*
X149350000Y-111430000D03*
X158730000Y-111620000D03*
X160610000Y-111620000D03*
X171850000Y-111510000D03*
X173730000Y-111510000D03*
D13*
X132750000Y-98500000D03*
X132750000Y-96000000D03*
X132750000Y-93500000D03*
X132750000Y-91000000D03*
X133000000Y-111750000D03*
X133000000Y-109250000D03*
X133000000Y-106750000D03*
X133000000Y-104250000D03*
X132750000Y-85250000D03*
X132750000Y-82750000D03*
X132750000Y-80250000D03*
X132750000Y-77750000D03*
D14*
X140140000Y-113790000D03*
X142640000Y-113790000D03*
X145140000Y-113790000D03*
X147640000Y-113790000D03*
X153390000Y-113790000D03*
X155890000Y-113790000D03*
X158390000Y-113790000D03*
X160890000Y-113790000D03*
X166550000Y-113760000D03*
X169050000Y-113760000D03*
X171550000Y-113760000D03*
X174050000Y-113760000D03*
D13*
X187500000Y-76000000D03*
X187500000Y-73500000D03*
X187500000Y-71000000D03*
X187500000Y-68500000D03*
D15*
X194000000Y-72250000D03*
D14*
X169500000Y-64600000D03*
X167000000Y-64600000D03*
D16*
X183997880Y-83637140D03*
X183997880Y-86177140D03*
X183997880Y-88209140D03*
X183997880Y-90749140D03*
D17*
X186664880Y-80589140D03*
X186664880Y-94305140D03*
D18*
X133000000Y-68000000D03*
D19*
X133000000Y-70540000D03*
X133000000Y-73080000D03*
D13*
X178500000Y-83250000D03*
X178500000Y-85750000D03*
X178500000Y-88250000D03*
X178500000Y-90750000D03*
D20*
X166550000Y-111230000D03*
X166550000Y-109670000D03*
X169830000Y-111400000D03*
X169830000Y-109840000D03*
D12*
X165740000Y-115930000D03*
X164180000Y-115930000D03*
X167670000Y-117710000D03*
X166110000Y-117710000D03*
X175350000Y-73400000D03*
X176910000Y-73400000D03*
X174220000Y-63900000D03*
X175780000Y-63900000D03*
D21*
X179130000Y-72400000D03*
D22*
X179130000Y-69860000D03*
D21*
X179150000Y-67210000D03*
D22*
X179150000Y-64670000D03*
D21*
X190250000Y-99000000D03*
D22*
X190250000Y-101540000D03*
D21*
X183500000Y-101500000D03*
D22*
X183500000Y-98960000D03*
D21*
X190260000Y-104650000D03*
D22*
X190260000Y-107190000D03*
D21*
X183490000Y-107210000D03*
D22*
X183490000Y-104670000D03*
D21*
X190260000Y-110260000D03*
D22*
X190260000Y-112800000D03*
D21*
X183510000Y-113050000D03*
D22*
X183510000Y-110510000D03*
D23*
X141500000Y-71000000D03*
D24*
X138960000Y-71000000D03*
X141500000Y-73540000D03*
X138960000Y-73540000D03*
X141500000Y-76080000D03*
X138960000Y-76080000D03*
X141500000Y-78620000D03*
X138960000Y-78620000D03*
X141500000Y-81160000D03*
X138960000Y-81160000D03*
X141500000Y-83700000D03*
X138960000Y-83700000D03*
X141500000Y-86240000D03*
X138960000Y-86240000D03*
X141500000Y-88780000D03*
X138960000Y-88780000D03*
X141500000Y-91320000D03*
X138960000Y-91320000D03*
X141500000Y-93860000D03*
X138960000Y-93860000D03*
X141500000Y-96400000D03*
X138960000Y-96400000D03*
X141500000Y-98940000D03*
X138960000Y-98940000D03*
X141500000Y-101480000D03*
X138960000Y-101480000D03*
X141500000Y-104020000D03*
X138960000Y-104020000D03*
X141500000Y-106560000D03*
X138960000Y-106560000D03*
D23*
X169500000Y-71000000D03*
D24*
X166960000Y-71000000D03*
X169500000Y-73540000D03*
X166960000Y-73540000D03*
X169500000Y-76080000D03*
X166960000Y-76080000D03*
X169500000Y-78620000D03*
X166960000Y-78620000D03*
X169500000Y-81160000D03*
X166960000Y-81160000D03*
X169500000Y-83700000D03*
X166960000Y-83700000D03*
X169500000Y-86240000D03*
X166960000Y-86240000D03*
X169500000Y-88780000D03*
X166960000Y-88780000D03*
X169500000Y-91320000D03*
X166960000Y-91320000D03*
X169500000Y-93860000D03*
X166960000Y-93860000D03*
X169500000Y-96400000D03*
X166960000Y-96400000D03*
X169500000Y-98940000D03*
X166960000Y-98940000D03*
X169500000Y-101480000D03*
X166960000Y-101480000D03*
X169500000Y-104020000D03*
X166960000Y-104020000D03*
X169500000Y-106560000D03*
X166960000Y-106560000D03*
D25*
X146000000Y-70500000D03*
D26*
X148540000Y-70500000D03*
X151080000Y-70500000D03*
X153620000Y-70500000D03*
X156160000Y-70500000D03*
X158700000Y-70500000D03*
D12*
X186220000Y-97000000D03*
X187780000Y-97000000D03*
X179470000Y-102000000D03*
X181030000Y-102000000D03*
X186220000Y-103750000D03*
X187780000Y-103750000D03*
X179550000Y-107580000D03*
X181110000Y-107580000D03*
X186220000Y-109720000D03*
X187780000Y-109720000D03*
X179680000Y-111930000D03*
X181240000Y-111930000D03*
D27*
X194000000Y-63000000D03*
X130000000Y-63000000D03*
X130000000Y-117000000D03*
X194000000Y-117000000D03*
D28*
X192560000Y-112990000D02*
X193400000Y-112150000D01*
X193400000Y-83670000D02*
X192560000Y-82830000D01*
X193400000Y-112150000D02*
X193400000Y-83670000D01*
X145790000Y-116230000D02*
X139460000Y-116230000D01*
X162814998Y-74855002D02*
X159710000Y-74855002D01*
X162814998Y-74855002D02*
X166670000Y-71000000D01*
X152294998Y-74855002D02*
X159710000Y-74855002D01*
X145630000Y-81520000D02*
X152294998Y-74855002D01*
X145630000Y-108130000D02*
X145630000Y-81520000D01*
X142540000Y-111220000D02*
X145630000Y-108130000D01*
X139960000Y-111220000D02*
X142540000Y-111220000D01*
X138500000Y-112680000D02*
X139960000Y-111220000D01*
X138500000Y-115270000D02*
X138500000Y-112680000D01*
X139460000Y-116230000D02*
X138500000Y-115270000D01*
X145140000Y-113790000D02*
X145140000Y-113760000D01*
X145140000Y-113760000D02*
X147470000Y-111430000D01*
X145140000Y-113790000D02*
X145140000Y-113180000D01*
X166960000Y-71000000D02*
X166670000Y-71000000D01*
X145140000Y-113790000D02*
X145140000Y-115580000D01*
X155950000Y-116230000D02*
X158390000Y-113790000D01*
X145790000Y-116230000D02*
X155950000Y-116230000D01*
X145140000Y-115580000D02*
X145790000Y-116230000D01*
X158390000Y-113790000D02*
X158390000Y-111960000D01*
X158390000Y-111960000D02*
X158730000Y-111620000D01*
X175350000Y-73400000D02*
X175350000Y-74200000D01*
X175350000Y-74200000D02*
X175870000Y-74720000D01*
X171550000Y-113760000D02*
X171550000Y-115220000D01*
X171550000Y-115220000D02*
X172260000Y-115930000D01*
X172260000Y-115930000D02*
X189620000Y-115930000D01*
X189620000Y-115930000D02*
X192560000Y-112990000D01*
X192560000Y-82830000D02*
X187460000Y-77730000D01*
X187460000Y-77730000D02*
X178880000Y-77730000D01*
X178880000Y-77730000D02*
X175870000Y-74720000D01*
X175430000Y-73400000D02*
X175350000Y-73400000D01*
X171850000Y-111510000D02*
X171850000Y-113460000D01*
X171850000Y-113460000D02*
X171550000Y-113760000D01*
X175350000Y-73400000D02*
X175010000Y-73400000D01*
X175010000Y-73400000D02*
X174150000Y-72540000D01*
X174150000Y-72540000D02*
X174150000Y-69990000D01*
X174150000Y-69990000D02*
X172510000Y-68350000D01*
X172510000Y-68350000D02*
X168210000Y-68350000D01*
X166960000Y-71000000D02*
X166960000Y-69600000D01*
X169500000Y-67060000D02*
X169500000Y-64600000D01*
X166960000Y-69600000D02*
X168210000Y-68350000D01*
X168210000Y-68350000D02*
X169500000Y-67060000D01*
X179130000Y-72400000D02*
X179130000Y-72780000D01*
X179130000Y-72780000D02*
X178510000Y-73400000D01*
X178510000Y-73400000D02*
X176910000Y-73400000D01*
D11*
X175780000Y-63900000D02*
X176310000Y-63900000D01*
X177790000Y-67210000D02*
X179150000Y-67210000D01*
X177470000Y-66890000D02*
X177790000Y-67210000D01*
X177470000Y-65060000D02*
X177470000Y-66890000D01*
X176310000Y-63900000D02*
X177470000Y-65060000D01*
D28*
X172640000Y-63900000D02*
X172171470Y-63900000D01*
X170601472Y-62330002D02*
X170030000Y-62330002D01*
X172171470Y-63900000D02*
X170601472Y-62330002D01*
X166759998Y-62330002D02*
X166480000Y-62610000D01*
X145375000Y-73335000D02*
X146195000Y-74155000D01*
X165350000Y-69070000D02*
X165350000Y-69370000D01*
X165350000Y-69070000D02*
X165350000Y-63740000D01*
X165350000Y-63740000D02*
X166480000Y-62610000D01*
X165350000Y-69370000D02*
X160565000Y-74155000D01*
X160565000Y-74155000D02*
X146195000Y-74155000D01*
X143835000Y-73335000D02*
X145375000Y-73335000D01*
X170030000Y-62330002D02*
X166759998Y-62330002D01*
X144665000Y-107485000D02*
X144665000Y-74165000D01*
X144665000Y-74165000D02*
X143835000Y-73335000D01*
X141600000Y-117710000D02*
X138840000Y-117710000D01*
X138640000Y-110200000D02*
X141960000Y-110200000D01*
X136850000Y-111990000D02*
X138640000Y-110200000D01*
X136850000Y-115720000D02*
X136850000Y-111990000D01*
X138840000Y-117710000D02*
X136850000Y-115720000D01*
X144280000Y-107880000D02*
X144280000Y-107870000D01*
X144280000Y-107870000D02*
X144665000Y-107485000D01*
X141960000Y-110200000D02*
X144280000Y-107880000D01*
X143835000Y-73335000D02*
X141500000Y-71000000D01*
X164180000Y-115930000D02*
X163830000Y-115930000D01*
X163830000Y-115930000D02*
X162050000Y-117710000D01*
X162050000Y-117710000D02*
X141600000Y-117710000D01*
X163090000Y-117710000D02*
X141600000Y-117710000D01*
X163090000Y-117710000D02*
X166110000Y-117710000D01*
X172640000Y-63900000D02*
X174220000Y-63900000D01*
D29*
X138960000Y-73540000D02*
X138160000Y-73540000D01*
X138160000Y-73540000D02*
X136860000Y-72240000D01*
X136860000Y-72240000D02*
X136860000Y-69500000D01*
X136860000Y-69500000D02*
X135360000Y-68000000D01*
X135360000Y-68000000D02*
X133000000Y-68000000D01*
D11*
X138960000Y-81160000D02*
X137210000Y-81160000D01*
X137210000Y-81160000D02*
X133800000Y-77750000D01*
X133800000Y-77750000D02*
X132750000Y-77750000D01*
X141500000Y-81160000D02*
X141350000Y-81160000D01*
X141350000Y-81160000D02*
X140090000Y-82420000D01*
X140090000Y-82420000D02*
X134920000Y-82420000D01*
X134920000Y-82420000D02*
X132750000Y-80250000D01*
X138960000Y-83700000D02*
X133700000Y-83700000D01*
X133700000Y-83700000D02*
X132750000Y-82750000D01*
X132750000Y-85250000D02*
X137550000Y-85250000D01*
X140220000Y-84980000D02*
X141500000Y-83700000D01*
X137820000Y-84980000D02*
X140220000Y-84980000D01*
X137550000Y-85250000D02*
X137820000Y-84980000D01*
X138960000Y-88780000D02*
X137500000Y-88780000D01*
X135280000Y-91000000D02*
X132750000Y-91000000D01*
X137500000Y-88780000D02*
X135280000Y-91000000D01*
X132750000Y-93500000D02*
X134870000Y-93500000D01*
X140230000Y-90050000D02*
X141500000Y-88780000D01*
X138320000Y-90050000D02*
X140230000Y-90050000D01*
X134870000Y-93500000D02*
X138320000Y-90050000D01*
X138960000Y-93860000D02*
X137750000Y-93860000D01*
X135610000Y-96000000D02*
X132750000Y-96000000D01*
X137750000Y-93860000D02*
X135610000Y-96000000D01*
X132750000Y-98500000D02*
X134380000Y-98500000D01*
X140230000Y-95130000D02*
X141500000Y-93860000D01*
X137750000Y-95130000D02*
X140230000Y-95130000D01*
X134380000Y-98500000D02*
X137750000Y-95130000D01*
X141500000Y-96400000D02*
X141480000Y-96400000D01*
X141480000Y-96400000D02*
X140260000Y-97620000D01*
X140260000Y-97620000D02*
X137470000Y-97620000D01*
X137470000Y-97620000D02*
X131150000Y-103940000D01*
X131150000Y-103940000D02*
X131150000Y-104900000D01*
X131150000Y-104900000D02*
X133000000Y-106750000D01*
X133000000Y-104250000D02*
X135090000Y-104250000D01*
X140240000Y-100200000D02*
X141500000Y-98940000D01*
X138050000Y-100200000D02*
X140240000Y-100200000D01*
X136940000Y-101310000D02*
X138050000Y-100200000D01*
X136940000Y-102400000D02*
X136940000Y-101310000D01*
X135090000Y-104250000D02*
X136940000Y-102400000D01*
X141500000Y-101480000D02*
X142250000Y-101480000D01*
X142250000Y-101480000D02*
X143530000Y-102760000D01*
X143530000Y-102760000D02*
X143530000Y-106960000D01*
X143530000Y-106960000D02*
X141450000Y-109040000D01*
X141450000Y-109040000D02*
X138340000Y-109040000D01*
X138340000Y-109040000D02*
X135630000Y-111750000D01*
X135630000Y-111750000D02*
X133000000Y-111750000D01*
D29*
X138960000Y-104020000D02*
X138960000Y-103810000D01*
X138960000Y-103810000D02*
X140250000Y-102520000D01*
X142040000Y-100260000D02*
X143520000Y-98780000D01*
X140950000Y-100260000D02*
X142040000Y-100260000D01*
X140250000Y-100960000D02*
X140950000Y-100260000D01*
X140250000Y-102520000D02*
X140250000Y-100960000D01*
X133000000Y-70540000D02*
X133630000Y-70540000D01*
X133630000Y-70540000D02*
X137890000Y-74800000D01*
X137890000Y-74800000D02*
X142660000Y-74800000D01*
X142660000Y-74800000D02*
X143520000Y-75660000D01*
X143520000Y-75660000D02*
X143520000Y-98780000D01*
D11*
X133000000Y-109250000D02*
X135390000Y-109250000D01*
X140260000Y-105260000D02*
X141500000Y-104020000D01*
X140260000Y-107320000D02*
X140260000Y-105260000D01*
X139570000Y-108010000D02*
X140260000Y-107320000D01*
X136630000Y-108010000D02*
X139570000Y-108010000D01*
X135390000Y-109250000D02*
X136630000Y-108010000D01*
X131950000Y-107970000D02*
X131500000Y-107970000D01*
X136650000Y-106560000D02*
X135240000Y-107970000D01*
X135240000Y-107970000D02*
X131950000Y-107970000D01*
X138960000Y-106560000D02*
X136650000Y-106560000D01*
X129840000Y-76240000D02*
X133000000Y-73080000D01*
X129840000Y-106310000D02*
X129840000Y-76240000D01*
X131500000Y-107970000D02*
X129840000Y-106310000D01*
X179470000Y-102000000D02*
X179090000Y-102000000D01*
X179090000Y-102000000D02*
X176710000Y-99620000D01*
X176710000Y-99620000D02*
X176710000Y-93950000D01*
X176710000Y-93950000D02*
X173980000Y-91220000D01*
X173980000Y-91220000D02*
X173980000Y-77970000D01*
X173980000Y-77970000D02*
X170820000Y-74810000D01*
X170820000Y-74810000D02*
X168230000Y-74810000D01*
X168230000Y-74810000D02*
X166960000Y-73540000D01*
X169500000Y-73540000D02*
X171440000Y-73540000D01*
X183450000Y-97000000D02*
X186220000Y-97000000D01*
X180140000Y-93690000D02*
X183450000Y-97000000D01*
X177950000Y-93690000D02*
X180140000Y-93690000D01*
X175260000Y-91000000D02*
X177950000Y-93690000D01*
X175260000Y-77360000D02*
X175260000Y-91000000D01*
X171440000Y-73540000D02*
X175260000Y-77360000D01*
X147105000Y-97625000D02*
X147105000Y-109015000D01*
X144870000Y-111250000D02*
X143660000Y-111250000D01*
X147105000Y-109015000D02*
X144870000Y-111250000D01*
X142900000Y-112010000D02*
X141480000Y-112010000D01*
X143660000Y-111250000D02*
X142900000Y-112010000D01*
X140140000Y-113790000D02*
X140140000Y-113350000D01*
X140140000Y-113350000D02*
X141480000Y-112010000D01*
X147105000Y-97625000D02*
X151770000Y-92960000D01*
X151770000Y-92960000D02*
X151770000Y-84210000D01*
X151770000Y-84210000D02*
X159900000Y-76080000D01*
X159900000Y-76080000D02*
X166960000Y-76080000D01*
X143880000Y-112070000D02*
X145050000Y-112070000D01*
X147780000Y-109340000D02*
X147780000Y-98090000D01*
X145050000Y-112070000D02*
X147780000Y-109340000D01*
X142640000Y-113790000D02*
X142640000Y-113310000D01*
X142640000Y-113310000D02*
X143880000Y-112070000D01*
X169500000Y-76080000D02*
X169500000Y-76310000D01*
X169500000Y-76310000D02*
X168470000Y-77340000D01*
X152890000Y-92980000D02*
X147780000Y-98090000D01*
X152890000Y-85010000D02*
X152890000Y-92980000D01*
X160560000Y-77340000D02*
X152890000Y-85010000D01*
X168470000Y-77340000D02*
X160560000Y-77340000D01*
X169500000Y-81160000D02*
X169500000Y-81170000D01*
X169500000Y-81170000D02*
X168210000Y-79880000D01*
X168210000Y-79880000D02*
X166160000Y-79880000D01*
X166160000Y-79880000D02*
X158860000Y-87180000D01*
X158860000Y-87180000D02*
X158860000Y-95400000D01*
X158860000Y-95400000D02*
X153390000Y-100870000D01*
X153390000Y-100870000D02*
X153390000Y-113790000D01*
X161090000Y-93790000D02*
X161090000Y-87890000D01*
X155890000Y-107250000D02*
X161090000Y-102050000D01*
X161090000Y-102050000D02*
X161090000Y-93790000D01*
X155890000Y-113790000D02*
X155890000Y-107250000D01*
X165280000Y-83700000D02*
X166960000Y-83700000D01*
X161090000Y-87890000D02*
X165280000Y-83700000D01*
X186220000Y-103750000D02*
X185700000Y-103750000D01*
X177760000Y-103100000D02*
X175630000Y-100970000D01*
X185050000Y-103100000D02*
X177760000Y-103100000D01*
X185700000Y-103750000D02*
X185050000Y-103100000D01*
X171460000Y-83700000D02*
X169500000Y-83700000D01*
X173280000Y-85520000D02*
X171460000Y-83700000D01*
X173280000Y-92140000D02*
X173280000Y-85520000D01*
X175630000Y-94490000D02*
X173280000Y-92140000D01*
X175630000Y-100970000D02*
X175630000Y-94490000D01*
X179550000Y-107580000D02*
X178140000Y-107580000D01*
X178140000Y-107580000D02*
X174930000Y-104370000D01*
X174930000Y-104370000D02*
X174930000Y-95300000D01*
X174930000Y-95300000D02*
X172640000Y-93010000D01*
X172640000Y-93010000D02*
X172640000Y-87670000D01*
X172640000Y-87670000D02*
X171210000Y-86240000D01*
X171210000Y-86240000D02*
X169500000Y-86240000D01*
X179680000Y-111930000D02*
X178340000Y-111930000D01*
X178340000Y-111930000D02*
X178000000Y-111590000D01*
X168220000Y-95120000D02*
X166960000Y-93860000D01*
X170980000Y-95120000D02*
X168220000Y-95120000D01*
X173400000Y-97540000D02*
X170980000Y-95120000D01*
X173400000Y-106990000D02*
X173400000Y-97540000D01*
X178000000Y-111590000D02*
X173400000Y-106990000D01*
X186220000Y-109720000D02*
X186220000Y-109690000D01*
X186220000Y-109690000D02*
X185240000Y-108710000D01*
X185240000Y-108710000D02*
X177320000Y-108710000D01*
X177320000Y-108710000D02*
X174210000Y-105600000D01*
X171200000Y-93860000D02*
X169500000Y-93860000D01*
X174210000Y-96870000D02*
X171200000Y-93860000D01*
X174210000Y-105600000D02*
X174210000Y-96870000D01*
X166960000Y-101480000D02*
X165730000Y-101480000D01*
X166550000Y-108960000D02*
X166550000Y-109670000D01*
X164520000Y-106930000D02*
X166550000Y-108960000D01*
X164520000Y-102690000D02*
X164520000Y-106930000D01*
X165730000Y-101480000D02*
X164520000Y-102690000D01*
X169500000Y-101480000D02*
X170550000Y-101480000D01*
X169830000Y-109210000D02*
X169830000Y-109840000D01*
X171400000Y-107640000D02*
X169830000Y-109210000D01*
X171400000Y-102330000D02*
X171400000Y-107640000D01*
X170550000Y-101480000D02*
X171400000Y-102330000D01*
X166550000Y-111230000D02*
X166550000Y-113760000D01*
D28*
X166550000Y-113760000D02*
X166550000Y-115120000D01*
X166550000Y-115120000D02*
X165740000Y-115930000D01*
D11*
X169830000Y-111400000D02*
X169830000Y-112980000D01*
X169830000Y-112980000D02*
X169050000Y-113760000D01*
D28*
X169050000Y-113760000D02*
X169050000Y-116330000D01*
X169050000Y-116330000D02*
X167670000Y-117710000D01*
D11*
X151080000Y-70500000D02*
X151080000Y-71450000D01*
X151080000Y-71450000D02*
X152330000Y-72700000D01*
X152330000Y-72700000D02*
X160260000Y-72700000D01*
X160260000Y-72700000D02*
X164500000Y-68460000D01*
X164500000Y-68460000D02*
X164500000Y-63460000D01*
X164500000Y-63460000D02*
X166230000Y-61730000D01*
X166230000Y-61730000D02*
X170850000Y-61730000D01*
X170850000Y-61730000D02*
X171790000Y-62670000D01*
X171790000Y-62670000D02*
X180820000Y-62670000D01*
X180820000Y-62670000D02*
X183680000Y-65530000D01*
X183680000Y-65530000D02*
X183680000Y-69310000D01*
X183680000Y-69310000D02*
X185370000Y-71000000D01*
X185370000Y-71000000D02*
X187500000Y-71000000D01*
X187500000Y-68500000D02*
X186650000Y-68500000D01*
X186650000Y-68500000D02*
X184820000Y-66670000D01*
X184820000Y-66670000D02*
X184820000Y-65300000D01*
X184820000Y-65300000D02*
X181600000Y-62080000D01*
X181600000Y-62080000D02*
X172300000Y-62080000D01*
X172300000Y-62080000D02*
X171380000Y-61160000D01*
X171380000Y-61160000D02*
X165880000Y-61160000D01*
X165880000Y-61160000D02*
X163450000Y-63590000D01*
X163450000Y-63590000D02*
X163450000Y-66110000D01*
X163450000Y-66110000D02*
X160940000Y-68620000D01*
X160940000Y-68620000D02*
X155500000Y-68620000D01*
X155500000Y-68620000D02*
X153620000Y-70500000D01*
D28*
X178500000Y-83250000D02*
X183610740Y-83250000D01*
X183610740Y-83250000D02*
X183997880Y-83637140D01*
X183997880Y-86177140D02*
X178927140Y-86177140D01*
X178927140Y-86177140D02*
X178500000Y-85750000D01*
X178500000Y-88250000D02*
X183957020Y-88250000D01*
X183957020Y-88250000D02*
X183997880Y-88209140D01*
X178500000Y-90750000D02*
X183997020Y-90750000D01*
X183997020Y-90750000D02*
X183997880Y-90749140D01*
D11*
X187780000Y-97000000D02*
X188250000Y-97000000D01*
X188250000Y-97000000D02*
X190250000Y-99000000D01*
X181030000Y-102000000D02*
X183000000Y-102000000D01*
X183000000Y-102000000D02*
X183500000Y-101500000D01*
X187780000Y-103750000D02*
X189360000Y-103750000D01*
X189360000Y-103750000D02*
X190260000Y-104650000D01*
X181110000Y-107580000D02*
X183120000Y-107580000D01*
X183120000Y-107580000D02*
X183490000Y-107210000D01*
X187780000Y-109720000D02*
X189720000Y-109720000D01*
X189720000Y-109720000D02*
X190260000Y-110260000D01*
X181240000Y-111930000D02*
X182390000Y-111930000D01*
X182390000Y-111930000D02*
X183510000Y-113050000D01*
D29*
G36*
X191182845Y-61114079D02*
X190675578Y-62335715D01*
X190674424Y-63658482D01*
X191179558Y-64881001D01*
X192114079Y-65817155D01*
X193335715Y-66324422D01*
X194658482Y-66325576D01*
X195881001Y-65820442D01*
X196600000Y-65102697D01*
X196600000Y-114898172D01*
X195885921Y-114182845D01*
X194664285Y-113675578D01*
X193341518Y-113674424D01*
X192229112Y-114134060D01*
X192966586Y-113396586D01*
X193806586Y-112556587D01*
X193931231Y-112370043D01*
X193938150Y-112335260D01*
X193975000Y-112150000D01*
X193975000Y-83670000D01*
X193931231Y-83449957D01*
X193806586Y-83263413D01*
X192966588Y-82423416D01*
X192966586Y-82423413D01*
X187866586Y-77323414D01*
X187680043Y-77198769D01*
X187460000Y-77155000D01*
X179118173Y-77155000D01*
X176276586Y-74313414D01*
X176241147Y-74277975D01*
X176281080Y-74305260D01*
X176410000Y-74331367D01*
X177410000Y-74331367D01*
X177530438Y-74308705D01*
X177641053Y-74237526D01*
X177715260Y-74128920D01*
X177741367Y-74000000D01*
X177741367Y-73975000D01*
X178510000Y-73975000D01*
X178730043Y-73931231D01*
X178916586Y-73806586D01*
X178991805Y-73731367D01*
X180130000Y-73731367D01*
X180250438Y-73708705D01*
X180361053Y-73637526D01*
X180435260Y-73528920D01*
X180441116Y-73500000D01*
X185894144Y-73500000D01*
X185975974Y-73911385D01*
X186209004Y-74260140D01*
X186557759Y-74493170D01*
X186969144Y-74575000D01*
X188030856Y-74575000D01*
X188442241Y-74493170D01*
X188790996Y-74260140D01*
X189024026Y-73911385D01*
X189105856Y-73500000D01*
X189024026Y-73088615D01*
X188790996Y-72739860D01*
X188598775Y-72611422D01*
X192174684Y-72611422D01*
X192451938Y-73282429D01*
X192964871Y-73796258D01*
X193635392Y-74074683D01*
X194361422Y-74075316D01*
X195032429Y-73798062D01*
X195546258Y-73285129D01*
X195824683Y-72614608D01*
X195825316Y-71888578D01*
X195548062Y-71217571D01*
X195035129Y-70703742D01*
X194364608Y-70425317D01*
X193638578Y-70424684D01*
X192967571Y-70701938D01*
X192453742Y-71214871D01*
X192175317Y-71885392D01*
X192174684Y-72611422D01*
X188598775Y-72611422D01*
X188442241Y-72506830D01*
X188030856Y-72425000D01*
X186969144Y-72425000D01*
X186557759Y-72506830D01*
X186209004Y-72739860D01*
X185975974Y-73088615D01*
X185894144Y-73500000D01*
X180441116Y-73500000D01*
X180461367Y-73400000D01*
X180461367Y-71400000D01*
X180438705Y-71279562D01*
X180367526Y-71168947D01*
X180258920Y-71094740D01*
X180130000Y-71068633D01*
X178130000Y-71068633D01*
X178009562Y-71091295D01*
X177898947Y-71162474D01*
X177824740Y-71271080D01*
X177798633Y-71400000D01*
X177798633Y-72825000D01*
X177741367Y-72825000D01*
X177741367Y-72800000D01*
X177718705Y-72679562D01*
X177647526Y-72568947D01*
X177538920Y-72494740D01*
X177410000Y-72468633D01*
X176410000Y-72468633D01*
X176289562Y-72491295D01*
X176178947Y-72562474D01*
X176129721Y-72634519D01*
X176087526Y-72568947D01*
X175978920Y-72494740D01*
X175850000Y-72468633D01*
X174891805Y-72468633D01*
X174725000Y-72301828D01*
X174725000Y-69990000D01*
X174681231Y-69769957D01*
X174615916Y-69672207D01*
X174556586Y-69583413D01*
X172916586Y-67943414D01*
X172730043Y-67818769D01*
X172510000Y-67775000D01*
X169598173Y-67775000D01*
X169906586Y-67466587D01*
X170031231Y-67280043D01*
X170045163Y-67210000D01*
X170075000Y-67060000D01*
X170075000Y-66014702D01*
X170260140Y-65890996D01*
X170493170Y-65542241D01*
X170575000Y-65130856D01*
X170575000Y-64069144D01*
X170493170Y-63657759D01*
X170260140Y-63309004D01*
X169911385Y-63075974D01*
X169500000Y-62994144D01*
X169088615Y-63075974D01*
X168739860Y-63309004D01*
X168506830Y-63657759D01*
X168425000Y-64069144D01*
X168425000Y-65130856D01*
X168506830Y-65542241D01*
X168739860Y-65890996D01*
X168925000Y-66014702D01*
X168925000Y-66821827D01*
X167803414Y-67943414D01*
X166553414Y-69193414D01*
X166428769Y-69379957D01*
X166385000Y-69600000D01*
X166385000Y-69958867D01*
X166119533Y-70136247D01*
X165861877Y-70521856D01*
X165771400Y-70976714D01*
X165771400Y-71023286D01*
X165781710Y-71075118D01*
X162576826Y-74280002D01*
X161253170Y-74280002D01*
X165756586Y-69776586D01*
X165881231Y-69590043D01*
X165925000Y-69370000D01*
X165925000Y-63978172D01*
X166886586Y-63016587D01*
X166886588Y-63016584D01*
X166998170Y-62905002D01*
X170363300Y-62905002D01*
X171764883Y-64306586D01*
X171951427Y-64431231D01*
X172171470Y-64475000D01*
X173388633Y-64475000D01*
X173388633Y-64500000D01*
X173411295Y-64620438D01*
X173482474Y-64731053D01*
X173591080Y-64805260D01*
X173720000Y-64831367D01*
X174720000Y-64831367D01*
X174840438Y-64808705D01*
X174951053Y-64737526D01*
X175000279Y-64665481D01*
X175042474Y-64731053D01*
X175151080Y-64805260D01*
X175280000Y-64831367D01*
X176280000Y-64831367D01*
X176400438Y-64808705D01*
X176489587Y-64751339D01*
X176995000Y-65256752D01*
X176995000Y-66890000D01*
X177031157Y-67071775D01*
X177134124Y-67225876D01*
X177454122Y-67545873D01*
X177454124Y-67545876D01*
X177608225Y-67648843D01*
X177790000Y-67685000D01*
X177818633Y-67685000D01*
X177818633Y-68210000D01*
X177841295Y-68330438D01*
X177912474Y-68441053D01*
X178021080Y-68515260D01*
X178150000Y-68541367D01*
X180150000Y-68541367D01*
X180270438Y-68518705D01*
X180381053Y-68447526D01*
X180455260Y-68338920D01*
X180481367Y-68210000D01*
X180481367Y-66210000D01*
X180458705Y-66089562D01*
X180387526Y-65978947D01*
X180278920Y-65904740D01*
X180150000Y-65878633D01*
X178150000Y-65878633D01*
X178029562Y-65901295D01*
X177945000Y-65955709D01*
X177945000Y-65060005D01*
X177945001Y-65060000D01*
X177908843Y-64878226D01*
X177908843Y-64878225D01*
X177805876Y-64724124D01*
X176645876Y-63564124D01*
X176611367Y-63541066D01*
X176611367Y-63300000D01*
X176588705Y-63179562D01*
X176566465Y-63145000D01*
X180623248Y-63145000D01*
X183205000Y-65726752D01*
X183205000Y-69310000D01*
X183241157Y-69491775D01*
X183344124Y-69645876D01*
X185034124Y-71335876D01*
X185188225Y-71438843D01*
X185370000Y-71475000D01*
X186018480Y-71475000D01*
X186209004Y-71760140D01*
X186557759Y-71993170D01*
X186969144Y-72075000D01*
X188030856Y-72075000D01*
X188442241Y-71993170D01*
X188790996Y-71760140D01*
X189024026Y-71411385D01*
X189105856Y-71000000D01*
X189024026Y-70588615D01*
X188790996Y-70239860D01*
X188442241Y-70006830D01*
X188030856Y-69925000D01*
X186969144Y-69925000D01*
X186557759Y-70006830D01*
X186209004Y-70239860D01*
X186018480Y-70525000D01*
X185566752Y-70525000D01*
X184155000Y-69113248D01*
X184155000Y-65530005D01*
X184155001Y-65530000D01*
X184118843Y-65348226D01*
X184118843Y-65348225D01*
X184015876Y-65194124D01*
X181376752Y-62555000D01*
X181403248Y-62555000D01*
X184345000Y-65496751D01*
X184345000Y-66670000D01*
X184381157Y-66851775D01*
X184484124Y-67005876D01*
X185908098Y-68429850D01*
X185894144Y-68500000D01*
X185975974Y-68911385D01*
X186209004Y-69260140D01*
X186557759Y-69493170D01*
X186969144Y-69575000D01*
X188030856Y-69575000D01*
X188442241Y-69493170D01*
X188790996Y-69260140D01*
X189024026Y-68911385D01*
X189105856Y-68500000D01*
X189024026Y-68088615D01*
X188790996Y-67739860D01*
X188442241Y-67506830D01*
X188030856Y-67425000D01*
X186969144Y-67425000D01*
X186557759Y-67506830D01*
X186420377Y-67598625D01*
X185295000Y-66473248D01*
X185295000Y-65300005D01*
X185295001Y-65300000D01*
X185258843Y-65118226D01*
X185258843Y-65118225D01*
X185155876Y-64964124D01*
X185155873Y-64964122D01*
X181935876Y-61744124D01*
X181781775Y-61641157D01*
X181600000Y-61605000D01*
X172496751Y-61605000D01*
X171715876Y-60824124D01*
X171561775Y-60721157D01*
X171380000Y-60685000D01*
X165880000Y-60685000D01*
X165698225Y-60721157D01*
X165544124Y-60824124D01*
X163114124Y-63254124D01*
X163011157Y-63408225D01*
X162975000Y-63590000D01*
X162975000Y-65913248D01*
X160743248Y-68145000D01*
X155500000Y-68145000D01*
X155318225Y-68181157D01*
X155164124Y-68284124D01*
X155164122Y-68284127D01*
X154164888Y-69283361D01*
X154074858Y-69223205D01*
X153620000Y-69132728D01*
X153165142Y-69223205D01*
X152779533Y-69480861D01*
X152521877Y-69866470D01*
X152431400Y-70321328D01*
X152431400Y-70678672D01*
X152521877Y-71133530D01*
X152779533Y-71519139D01*
X153165142Y-71776795D01*
X153620000Y-71867272D01*
X154074858Y-71776795D01*
X154460467Y-71519139D01*
X154718123Y-71133530D01*
X154808600Y-70678672D01*
X154808600Y-70321328D01*
X154971400Y-70321328D01*
X154971400Y-70678672D01*
X155061877Y-71133530D01*
X155319533Y-71519139D01*
X155705142Y-71776795D01*
X156160000Y-71867272D01*
X156614858Y-71776795D01*
X157000467Y-71519139D01*
X157258123Y-71133530D01*
X157348600Y-70678672D01*
X157348600Y-70321328D01*
X157511400Y-70321328D01*
X157511400Y-70678672D01*
X157601877Y-71133530D01*
X157859533Y-71519139D01*
X158245142Y-71776795D01*
X158700000Y-71867272D01*
X159154858Y-71776795D01*
X159540467Y-71519139D01*
X159798123Y-71133530D01*
X159888600Y-70678672D01*
X159888600Y-70321328D01*
X159798123Y-69866470D01*
X159540467Y-69480861D01*
X159154858Y-69223205D01*
X158700000Y-69132728D01*
X158245142Y-69223205D01*
X157859533Y-69480861D01*
X157601877Y-69866470D01*
X157511400Y-70321328D01*
X157348600Y-70321328D01*
X157258123Y-69866470D01*
X157000467Y-69480861D01*
X156614858Y-69223205D01*
X156160000Y-69132728D01*
X155705142Y-69223205D01*
X155319533Y-69480861D01*
X155061877Y-69866470D01*
X154971400Y-70321328D01*
X154808600Y-70321328D01*
X154752493Y-70039259D01*
X155696751Y-69095000D01*
X160940000Y-69095000D01*
X161121775Y-69058843D01*
X161275876Y-68955876D01*
X163785876Y-66445876D01*
X163888843Y-66291775D01*
X163925000Y-66110000D01*
X163925000Y-63786752D01*
X164025000Y-63686752D01*
X164025000Y-68263249D01*
X160063248Y-72225000D01*
X152526752Y-72225000D01*
X151860776Y-71559024D01*
X151920467Y-71519139D01*
X152178123Y-71133530D01*
X152268600Y-70678672D01*
X152268600Y-70321328D01*
X152178123Y-69866470D01*
X151920467Y-69480861D01*
X151534858Y-69223205D01*
X151080000Y-69132728D01*
X150625142Y-69223205D01*
X150239533Y-69480861D01*
X149981877Y-69866470D01*
X149891400Y-70321328D01*
X149891400Y-70678672D01*
X149981877Y-71133530D01*
X150239533Y-71519139D01*
X150625142Y-71776795D01*
X150762332Y-71804084D01*
X151994124Y-73035876D01*
X152148225Y-73138843D01*
X152330000Y-73175000D01*
X160260000Y-73175000D01*
X160441775Y-73138843D01*
X160595876Y-73035876D01*
X164775000Y-68856751D01*
X164775000Y-69131828D01*
X160326828Y-73580000D01*
X146433172Y-73580000D01*
X145781586Y-72928414D01*
X145595043Y-72803769D01*
X145375000Y-72760000D01*
X144073173Y-72760000D01*
X142694967Y-71381795D01*
X142694967Y-70321328D01*
X147351400Y-70321328D01*
X147351400Y-70678672D01*
X147441877Y-71133530D01*
X147699533Y-71519139D01*
X148085142Y-71776795D01*
X148540000Y-71867272D01*
X148994858Y-71776795D01*
X149380467Y-71519139D01*
X149638123Y-71133530D01*
X149728600Y-70678672D01*
X149728600Y-70321328D01*
X149638123Y-69866470D01*
X149380467Y-69480861D01*
X148994858Y-69223205D01*
X148540000Y-69132728D01*
X148085142Y-69223205D01*
X147699533Y-69480861D01*
X147441877Y-69866470D01*
X147351400Y-70321328D01*
X142694967Y-70321328D01*
X142694967Y-70136400D01*
X142672305Y-70015962D01*
X142601126Y-69905347D01*
X142492520Y-69831140D01*
X142363600Y-69805033D01*
X140636400Y-69805033D01*
X140515962Y-69827695D01*
X140405347Y-69898874D01*
X140331140Y-70007480D01*
X140305033Y-70136400D01*
X140305033Y-71863600D01*
X140327695Y-71984038D01*
X140398874Y-72094653D01*
X140507480Y-72168860D01*
X140636400Y-72194967D01*
X141881795Y-72194967D01*
X143428414Y-73741587D01*
X143428417Y-73741589D01*
X144090000Y-74403173D01*
X144090000Y-107246827D01*
X143873414Y-107463414D01*
X143853279Y-107493548D01*
X141721828Y-109625000D01*
X138640000Y-109625000D01*
X138419957Y-109668769D01*
X138308529Y-109743223D01*
X138536752Y-109515000D01*
X141450000Y-109515000D01*
X141631775Y-109478843D01*
X141785876Y-109375876D01*
X143865876Y-107295876D01*
X143968843Y-107141775D01*
X144005000Y-106960000D01*
X144005000Y-102760000D01*
X143968843Y-102578225D01*
X143865876Y-102424124D01*
X143865873Y-102424122D01*
X142636490Y-101194738D01*
X142598123Y-101001856D01*
X142340467Y-100616247D01*
X142320860Y-100603146D01*
X142358198Y-100578198D01*
X143838198Y-99098198D01*
X143903812Y-99000000D01*
X143935746Y-98952208D01*
X143970000Y-98780000D01*
X143970000Y-75660000D01*
X143935746Y-75487792D01*
X143838198Y-75341802D01*
X142978198Y-74481802D01*
X142966707Y-74474124D01*
X142832208Y-74384254D01*
X142660000Y-74350000D01*
X142376384Y-74350000D01*
X142598123Y-74018144D01*
X142688600Y-73563286D01*
X142688600Y-73516714D01*
X142598123Y-73061856D01*
X142340467Y-72676247D01*
X141954858Y-72418591D01*
X141500000Y-72328114D01*
X141045142Y-72418591D01*
X140659533Y-72676247D01*
X140401877Y-73061856D01*
X140311400Y-73516714D01*
X140311400Y-73563286D01*
X140401877Y-74018144D01*
X140623616Y-74350000D01*
X139836384Y-74350000D01*
X140058123Y-74018144D01*
X140148600Y-73563286D01*
X140148600Y-73516714D01*
X140058123Y-73061856D01*
X139800467Y-72676247D01*
X139414858Y-72418591D01*
X138960000Y-72328114D01*
X138505142Y-72418591D01*
X138119533Y-72676247D01*
X138044675Y-72788279D01*
X137310000Y-72053604D01*
X137310000Y-69500000D01*
X137275746Y-69327792D01*
X137178198Y-69181802D01*
X135678198Y-67681802D01*
X135532208Y-67584254D01*
X135360000Y-67550000D01*
X134347367Y-67550000D01*
X134347367Y-67136400D01*
X134324705Y-67015962D01*
X134253526Y-66905347D01*
X134144920Y-66831140D01*
X134016000Y-66805033D01*
X131984000Y-66805033D01*
X131863562Y-66827695D01*
X131752947Y-66898874D01*
X131678740Y-67007480D01*
X131652633Y-67136400D01*
X131652633Y-68863600D01*
X131675295Y-68984038D01*
X131746474Y-69094653D01*
X131855080Y-69168860D01*
X131984000Y-69194967D01*
X134016000Y-69194967D01*
X134136438Y-69172305D01*
X134247053Y-69101126D01*
X134321260Y-68992520D01*
X134347367Y-68863600D01*
X134347367Y-68450000D01*
X135173604Y-68450000D01*
X136410000Y-69686396D01*
X136410000Y-72240000D01*
X136444254Y-72412208D01*
X136529642Y-72540000D01*
X136541802Y-72558198D01*
X137827147Y-73843543D01*
X137861877Y-74018144D01*
X138083616Y-74350000D01*
X138076396Y-74350000D01*
X134350536Y-70624140D01*
X134367272Y-70540000D01*
X134276795Y-70085142D01*
X134019139Y-69699533D01*
X133633530Y-69441877D01*
X133178672Y-69351400D01*
X132821328Y-69351400D01*
X132366470Y-69441877D01*
X131980861Y-69699533D01*
X131723205Y-70085142D01*
X131632728Y-70540000D01*
X131723205Y-70994858D01*
X131980861Y-71380467D01*
X132366470Y-71638123D01*
X132821328Y-71728600D01*
X133178672Y-71728600D01*
X133633530Y-71638123D01*
X133908199Y-71454595D01*
X137571802Y-75118198D01*
X137717792Y-75215746D01*
X137890000Y-75250000D01*
X138096980Y-75250000D01*
X137861877Y-75601856D01*
X137771400Y-76056714D01*
X137771400Y-76103286D01*
X137861877Y-76558144D01*
X138119533Y-76943753D01*
X138505142Y-77201409D01*
X138960000Y-77291886D01*
X139414858Y-77201409D01*
X139800467Y-76943753D01*
X140058123Y-76558144D01*
X140148600Y-76103286D01*
X140148600Y-76056714D01*
X140058123Y-75601856D01*
X139823020Y-75250000D01*
X140636980Y-75250000D01*
X140401877Y-75601856D01*
X140311400Y-76056714D01*
X140311400Y-76103286D01*
X140401877Y-76558144D01*
X140659533Y-76943753D01*
X141045142Y-77201409D01*
X141500000Y-77291886D01*
X141954858Y-77201409D01*
X142340467Y-76943753D01*
X142598123Y-76558144D01*
X142688600Y-76103286D01*
X142688600Y-76056714D01*
X142598123Y-75601856D01*
X142363020Y-75250000D01*
X142473604Y-75250000D01*
X143070000Y-75846396D01*
X143070000Y-98593604D01*
X142685690Y-98977914D01*
X142688600Y-98963286D01*
X142688600Y-98916714D01*
X142598123Y-98461856D01*
X142340467Y-98076247D01*
X141954858Y-97818591D01*
X141500000Y-97728114D01*
X141045142Y-97818591D01*
X140659533Y-98076247D01*
X140401877Y-98461856D01*
X140311400Y-98916714D01*
X140311400Y-98963286D01*
X140393287Y-99374961D01*
X140043248Y-99725000D01*
X139853088Y-99725000D01*
X140058123Y-99418144D01*
X140148600Y-98963286D01*
X140148600Y-98916714D01*
X140058123Y-98461856D01*
X139812997Y-98095000D01*
X140260000Y-98095000D01*
X140441775Y-98058843D01*
X140595876Y-97955876D01*
X141036270Y-97515481D01*
X141045142Y-97521409D01*
X141500000Y-97611886D01*
X141954858Y-97521409D01*
X142340467Y-97263753D01*
X142598123Y-96878144D01*
X142688600Y-96423286D01*
X142688600Y-96376714D01*
X142598123Y-95921856D01*
X142340467Y-95536247D01*
X141954858Y-95278591D01*
X141500000Y-95188114D01*
X141045142Y-95278591D01*
X140659533Y-95536247D01*
X140401877Y-95921856D01*
X140311400Y-96376714D01*
X140311400Y-96423286D01*
X140389969Y-96818279D01*
X140063248Y-97145000D01*
X139879815Y-97145000D01*
X140058123Y-96878144D01*
X140148600Y-96423286D01*
X140148600Y-96376714D01*
X140058123Y-95921856D01*
X139846406Y-95605000D01*
X140230000Y-95605000D01*
X140411775Y-95568843D01*
X140565876Y-95465876D01*
X141049480Y-94982272D01*
X141500000Y-95071886D01*
X141954858Y-94981409D01*
X142340467Y-94723753D01*
X142598123Y-94338144D01*
X142688600Y-93883286D01*
X142688600Y-93836714D01*
X142598123Y-93381856D01*
X142340467Y-92996247D01*
X141954858Y-92738591D01*
X141500000Y-92648114D01*
X141045142Y-92738591D01*
X140659533Y-92996247D01*
X140401877Y-93381856D01*
X140311400Y-93836714D01*
X140311400Y-93883286D01*
X140393287Y-94294961D01*
X140033248Y-94655000D01*
X139846406Y-94655000D01*
X140058123Y-94338144D01*
X140148600Y-93883286D01*
X140148600Y-93836714D01*
X140058123Y-93381856D01*
X139800467Y-92996247D01*
X139414858Y-92738591D01*
X138960000Y-92648114D01*
X138505142Y-92738591D01*
X138119533Y-92996247D01*
X137861877Y-93381856D01*
X137861252Y-93385000D01*
X137750000Y-93385000D01*
X137568225Y-93421157D01*
X137414124Y-93524124D01*
X135413248Y-95525000D01*
X134231520Y-95525000D01*
X134040996Y-95239860D01*
X133692241Y-95006830D01*
X133280856Y-94925000D01*
X132219144Y-94925000D01*
X131807759Y-95006830D01*
X131459004Y-95239860D01*
X131225974Y-95588615D01*
X131144144Y-96000000D01*
X131225974Y-96411385D01*
X131459004Y-96760140D01*
X131807759Y-96993170D01*
X132219144Y-97075000D01*
X133280856Y-97075000D01*
X133692241Y-96993170D01*
X134040996Y-96760140D01*
X134231520Y-96475000D01*
X135610000Y-96475000D01*
X135763851Y-96444397D01*
X134212185Y-97996063D01*
X134040996Y-97739860D01*
X133692241Y-97506830D01*
X133280856Y-97425000D01*
X132219144Y-97425000D01*
X131807759Y-97506830D01*
X131459004Y-97739860D01*
X131225974Y-98088615D01*
X131144144Y-98500000D01*
X131225974Y-98911385D01*
X131459004Y-99260140D01*
X131807759Y-99493170D01*
X132219144Y-99575000D01*
X133280856Y-99575000D01*
X133692241Y-99493170D01*
X134040996Y-99260140D01*
X134231520Y-98975000D01*
X134380000Y-98975000D01*
X134561775Y-98938843D01*
X134715876Y-98835876D01*
X137946752Y-95605000D01*
X138073594Y-95605000D01*
X137861877Y-95921856D01*
X137771400Y-96376714D01*
X137771400Y-96423286D01*
X137861877Y-96878144D01*
X138040185Y-97145000D01*
X137470005Y-97145000D01*
X137470000Y-97144999D01*
X137318384Y-97175158D01*
X137288225Y-97181157D01*
X137134124Y-97284124D01*
X130814124Y-103604124D01*
X130711157Y-103758225D01*
X130675000Y-103940000D01*
X130675000Y-104900000D01*
X130711157Y-105081775D01*
X130814124Y-105235876D01*
X131652569Y-106074321D01*
X131475974Y-106338615D01*
X131394144Y-106750000D01*
X131475974Y-107161385D01*
X131698888Y-107495000D01*
X131696751Y-107495000D01*
X130315000Y-106113248D01*
X130315000Y-91000000D01*
X131144144Y-91000000D01*
X131225974Y-91411385D01*
X131459004Y-91760140D01*
X131807759Y-91993170D01*
X132219144Y-92075000D01*
X133280856Y-92075000D01*
X133692241Y-91993170D01*
X134040996Y-91760140D01*
X134231520Y-91475000D01*
X135280000Y-91475000D01*
X135461775Y-91438843D01*
X135615876Y-91335876D01*
X137696752Y-89255000D01*
X137861252Y-89255000D01*
X137861877Y-89258144D01*
X138110245Y-89629853D01*
X137984124Y-89714124D01*
X134673248Y-93025000D01*
X134231520Y-93025000D01*
X134040996Y-92739860D01*
X133692241Y-92506830D01*
X133280856Y-92425000D01*
X132219144Y-92425000D01*
X131807759Y-92506830D01*
X131459004Y-92739860D01*
X131225974Y-93088615D01*
X131144144Y-93500000D01*
X131225974Y-93911385D01*
X131459004Y-94260140D01*
X131807759Y-94493170D01*
X132219144Y-94575000D01*
X133280856Y-94575000D01*
X133692241Y-94493170D01*
X134040996Y-94260140D01*
X134231520Y-93975000D01*
X134870000Y-93975000D01*
X135051775Y-93938843D01*
X135205876Y-93835876D01*
X137777946Y-91263806D01*
X137771400Y-91296714D01*
X137771400Y-91343286D01*
X137861877Y-91798144D01*
X138119533Y-92183753D01*
X138505142Y-92441409D01*
X138960000Y-92531886D01*
X139414858Y-92441409D01*
X139800467Y-92183753D01*
X140058123Y-91798144D01*
X140148600Y-91343286D01*
X140148600Y-91296714D01*
X140311400Y-91296714D01*
X140311400Y-91343286D01*
X140401877Y-91798144D01*
X140659533Y-92183753D01*
X141045142Y-92441409D01*
X141500000Y-92531886D01*
X141954858Y-92441409D01*
X142340467Y-92183753D01*
X142598123Y-91798144D01*
X142688600Y-91343286D01*
X142688600Y-91296714D01*
X142598123Y-90841856D01*
X142340467Y-90456247D01*
X141954858Y-90198591D01*
X141500000Y-90108114D01*
X141045142Y-90198591D01*
X140659533Y-90456247D01*
X140401877Y-90841856D01*
X140311400Y-91296714D01*
X140148600Y-91296714D01*
X140058123Y-90841856D01*
X139846406Y-90525000D01*
X140230000Y-90525000D01*
X140411775Y-90488843D01*
X140565876Y-90385876D01*
X141049480Y-89902272D01*
X141500000Y-89991886D01*
X141954858Y-89901409D01*
X142340467Y-89643753D01*
X142598123Y-89258144D01*
X142688600Y-88803286D01*
X142688600Y-88756714D01*
X142598123Y-88301856D01*
X142340467Y-87916247D01*
X141954858Y-87658591D01*
X141500000Y-87568114D01*
X141045142Y-87658591D01*
X140659533Y-87916247D01*
X140401877Y-88301856D01*
X140311400Y-88756714D01*
X140311400Y-88803286D01*
X140393287Y-89214961D01*
X140033248Y-89575000D01*
X139846406Y-89575000D01*
X140058123Y-89258144D01*
X140148600Y-88803286D01*
X140148600Y-88756714D01*
X140058123Y-88301856D01*
X139800467Y-87916247D01*
X139414858Y-87658591D01*
X138960000Y-87568114D01*
X138505142Y-87658591D01*
X138119533Y-87916247D01*
X137861877Y-88301856D01*
X137861252Y-88305000D01*
X137500000Y-88305000D01*
X137318225Y-88341157D01*
X137164124Y-88444124D01*
X135083248Y-90525000D01*
X134231520Y-90525000D01*
X134040996Y-90239860D01*
X133692241Y-90006830D01*
X133280856Y-89925000D01*
X132219144Y-89925000D01*
X131807759Y-90006830D01*
X131459004Y-90239860D01*
X131225974Y-90588615D01*
X131144144Y-91000000D01*
X130315000Y-91000000D01*
X130315000Y-77750000D01*
X131144144Y-77750000D01*
X131225974Y-78161385D01*
X131459004Y-78510140D01*
X131807759Y-78743170D01*
X132219144Y-78825000D01*
X133280856Y-78825000D01*
X133692241Y-78743170D01*
X133949514Y-78571266D01*
X136874124Y-81495876D01*
X137028225Y-81598843D01*
X137210000Y-81635000D01*
X137861252Y-81635000D01*
X137861877Y-81638144D01*
X138066912Y-81945000D01*
X135116751Y-81945000D01*
X134097431Y-80925679D01*
X134274026Y-80661385D01*
X134355856Y-80250000D01*
X134274026Y-79838615D01*
X134040996Y-79489860D01*
X133692241Y-79256830D01*
X133280856Y-79175000D01*
X132219144Y-79175000D01*
X131807759Y-79256830D01*
X131459004Y-79489860D01*
X131225974Y-79838615D01*
X131144144Y-80250000D01*
X131225974Y-80661385D01*
X131459004Y-81010140D01*
X131807759Y-81243170D01*
X132219144Y-81325000D01*
X133153248Y-81325000D01*
X133558470Y-81730221D01*
X133280856Y-81675000D01*
X132219144Y-81675000D01*
X131807759Y-81756830D01*
X131459004Y-81989860D01*
X131225974Y-82338615D01*
X131144144Y-82750000D01*
X131225974Y-83161385D01*
X131459004Y-83510140D01*
X131807759Y-83743170D01*
X132219144Y-83825000D01*
X133153248Y-83825000D01*
X133364124Y-84035876D01*
X133518225Y-84138843D01*
X133700000Y-84175000D01*
X137861252Y-84175000D01*
X137861877Y-84178144D01*
X138080275Y-84505000D01*
X137820005Y-84505000D01*
X137820000Y-84504999D01*
X137669179Y-84535000D01*
X137638225Y-84541157D01*
X137484124Y-84644124D01*
X137484122Y-84644127D01*
X137353249Y-84775000D01*
X134231520Y-84775000D01*
X134040996Y-84489860D01*
X133692241Y-84256830D01*
X133280856Y-84175000D01*
X132219144Y-84175000D01*
X131807759Y-84256830D01*
X131459004Y-84489860D01*
X131225974Y-84838615D01*
X131144144Y-85250000D01*
X131225974Y-85661385D01*
X131459004Y-86010140D01*
X131807759Y-86243170D01*
X132219144Y-86325000D01*
X133280856Y-86325000D01*
X133692241Y-86243170D01*
X134040996Y-86010140D01*
X134231520Y-85725000D01*
X137550000Y-85725000D01*
X137731775Y-85688843D01*
X137885876Y-85585876D01*
X138016752Y-85455000D01*
X138066912Y-85455000D01*
X137861877Y-85761856D01*
X137771400Y-86216714D01*
X137771400Y-86263286D01*
X137861877Y-86718144D01*
X138119533Y-87103753D01*
X138505142Y-87361409D01*
X138960000Y-87451886D01*
X139414858Y-87361409D01*
X139800467Y-87103753D01*
X140058123Y-86718144D01*
X140148600Y-86263286D01*
X140148600Y-86216714D01*
X140311400Y-86216714D01*
X140311400Y-86263286D01*
X140401877Y-86718144D01*
X140659533Y-87103753D01*
X141045142Y-87361409D01*
X141500000Y-87451886D01*
X141954858Y-87361409D01*
X142340467Y-87103753D01*
X142598123Y-86718144D01*
X142688600Y-86263286D01*
X142688600Y-86216714D01*
X142598123Y-85761856D01*
X142340467Y-85376247D01*
X141954858Y-85118591D01*
X141500000Y-85028114D01*
X141045142Y-85118591D01*
X140659533Y-85376247D01*
X140401877Y-85761856D01*
X140311400Y-86216714D01*
X140148600Y-86216714D01*
X140058123Y-85761856D01*
X139853088Y-85455000D01*
X140220000Y-85455000D01*
X140401775Y-85418843D01*
X140555876Y-85315876D01*
X141049480Y-84822272D01*
X141500000Y-84911886D01*
X141954858Y-84821409D01*
X142340467Y-84563753D01*
X142598123Y-84178144D01*
X142688600Y-83723286D01*
X142688600Y-83676714D01*
X142598123Y-83221856D01*
X142340467Y-82836247D01*
X141954858Y-82578591D01*
X141500000Y-82488114D01*
X141045142Y-82578591D01*
X140659533Y-82836247D01*
X140401877Y-83221856D01*
X140311400Y-83676714D01*
X140311400Y-83723286D01*
X140393287Y-84134961D01*
X140023248Y-84505000D01*
X139839725Y-84505000D01*
X140058123Y-84178144D01*
X140148600Y-83723286D01*
X140148600Y-83676714D01*
X140058123Y-83221856D01*
X139839725Y-82895000D01*
X140090000Y-82895000D01*
X140271775Y-82858843D01*
X140425876Y-82755876D01*
X140958341Y-82223411D01*
X141045142Y-82281409D01*
X141500000Y-82371886D01*
X141954858Y-82281409D01*
X142340467Y-82023753D01*
X142598123Y-81638144D01*
X142688600Y-81183286D01*
X142688600Y-81136714D01*
X142598123Y-80681856D01*
X142340467Y-80296247D01*
X141954858Y-80038591D01*
X141500000Y-79948114D01*
X141045142Y-80038591D01*
X140659533Y-80296247D01*
X140401877Y-80681856D01*
X140311400Y-81136714D01*
X140311400Y-81183286D01*
X140368401Y-81469847D01*
X139893248Y-81945000D01*
X139853088Y-81945000D01*
X140058123Y-81638144D01*
X140148600Y-81183286D01*
X140148600Y-81136714D01*
X140058123Y-80681856D01*
X139800467Y-80296247D01*
X139414858Y-80038591D01*
X138960000Y-79948114D01*
X138505142Y-80038591D01*
X138119533Y-80296247D01*
X137861877Y-80681856D01*
X137861252Y-80685000D01*
X137406752Y-80685000D01*
X135318466Y-78596714D01*
X137771400Y-78596714D01*
X137771400Y-78643286D01*
X137861877Y-79098144D01*
X138119533Y-79483753D01*
X138505142Y-79741409D01*
X138960000Y-79831886D01*
X139414858Y-79741409D01*
X139800467Y-79483753D01*
X140058123Y-79098144D01*
X140148600Y-78643286D01*
X140148600Y-78596714D01*
X140311400Y-78596714D01*
X140311400Y-78643286D01*
X140401877Y-79098144D01*
X140659533Y-79483753D01*
X141045142Y-79741409D01*
X141500000Y-79831886D01*
X141954858Y-79741409D01*
X142340467Y-79483753D01*
X142598123Y-79098144D01*
X142688600Y-78643286D01*
X142688600Y-78596714D01*
X142598123Y-78141856D01*
X142340467Y-77756247D01*
X141954858Y-77498591D01*
X141500000Y-77408114D01*
X141045142Y-77498591D01*
X140659533Y-77756247D01*
X140401877Y-78141856D01*
X140311400Y-78596714D01*
X140148600Y-78596714D01*
X140058123Y-78141856D01*
X139800467Y-77756247D01*
X139414858Y-77498591D01*
X138960000Y-77408114D01*
X138505142Y-77498591D01*
X138119533Y-77756247D01*
X137861877Y-78141856D01*
X137771400Y-78596714D01*
X135318466Y-78596714D01*
X134327078Y-77605326D01*
X134274026Y-77338615D01*
X134040996Y-76989860D01*
X133692241Y-76756830D01*
X133280856Y-76675000D01*
X132219144Y-76675000D01*
X131807759Y-76756830D01*
X131459004Y-76989860D01*
X131225974Y-77338615D01*
X131144144Y-77750000D01*
X130315000Y-77750000D01*
X130315000Y-76436752D01*
X132539259Y-74212493D01*
X132821328Y-74268600D01*
X133178672Y-74268600D01*
X133633530Y-74178123D01*
X134019139Y-73920467D01*
X134276795Y-73534858D01*
X134367272Y-73080000D01*
X134276795Y-72625142D01*
X134019139Y-72239533D01*
X133633530Y-71981877D01*
X133178672Y-71891400D01*
X132821328Y-71891400D01*
X132366470Y-71981877D01*
X131980861Y-72239533D01*
X131723205Y-72625142D01*
X131632728Y-73080000D01*
X131723205Y-73534858D01*
X131783361Y-73624887D01*
X129504124Y-75904124D01*
X129401157Y-76058225D01*
X129365000Y-76240000D01*
X129365000Y-106310000D01*
X129401157Y-106491775D01*
X129504124Y-106645876D01*
X131164122Y-108305873D01*
X131164124Y-108305876D01*
X131230225Y-108350043D01*
X131318226Y-108408844D01*
X131500000Y-108445001D01*
X131500005Y-108445000D01*
X131776142Y-108445000D01*
X131709004Y-108489860D01*
X131475974Y-108838615D01*
X131394144Y-109250000D01*
X131475974Y-109661385D01*
X131709004Y-110010140D01*
X132057759Y-110243170D01*
X132469144Y-110325000D01*
X133530856Y-110325000D01*
X133942241Y-110243170D01*
X134290996Y-110010140D01*
X134481520Y-109725000D01*
X135390000Y-109725000D01*
X135571775Y-109688843D01*
X135725876Y-109585876D01*
X136826752Y-108485000D01*
X139570000Y-108485000D01*
X139751775Y-108448843D01*
X139905876Y-108345876D01*
X140595873Y-107655878D01*
X140595876Y-107655876D01*
X140698843Y-107501775D01*
X140707930Y-107456091D01*
X141045142Y-107681409D01*
X141500000Y-107771886D01*
X141954858Y-107681409D01*
X142340467Y-107423753D01*
X142598123Y-107038144D01*
X142688600Y-106583286D01*
X142688600Y-106536714D01*
X142598123Y-106081856D01*
X142340467Y-105696247D01*
X141954858Y-105438591D01*
X141500000Y-105348114D01*
X141045142Y-105438591D01*
X140735000Y-105645822D01*
X140735000Y-105456752D01*
X141049480Y-105142272D01*
X141500000Y-105231886D01*
X141954858Y-105141409D01*
X142340467Y-104883753D01*
X142598123Y-104498144D01*
X142688600Y-104043286D01*
X142688600Y-103996714D01*
X142598123Y-103541856D01*
X142340467Y-103156247D01*
X141954858Y-102898591D01*
X141500000Y-102808114D01*
X141045142Y-102898591D01*
X140659533Y-103156247D01*
X140401877Y-103541856D01*
X140311400Y-103996714D01*
X140311400Y-104043286D01*
X140393287Y-104454961D01*
X139924124Y-104924124D01*
X139821157Y-105078225D01*
X139785000Y-105260000D01*
X139785000Y-105685912D01*
X139414858Y-105438591D01*
X138960000Y-105348114D01*
X138505142Y-105438591D01*
X138119533Y-105696247D01*
X137861877Y-106081856D01*
X137861252Y-106085000D01*
X136650000Y-106085000D01*
X136468225Y-106121157D01*
X136314124Y-106224124D01*
X135043248Y-107495000D01*
X134301112Y-107495000D01*
X134524026Y-107161385D01*
X134605856Y-106750000D01*
X134524026Y-106338615D01*
X134290996Y-105989860D01*
X133942241Y-105756830D01*
X133530856Y-105675000D01*
X132596752Y-105675000D01*
X132191531Y-105269779D01*
X132469144Y-105325000D01*
X133530856Y-105325000D01*
X133942241Y-105243170D01*
X134290996Y-105010140D01*
X134481520Y-104725000D01*
X135090000Y-104725000D01*
X135271775Y-104688843D01*
X135425876Y-104585876D01*
X137275876Y-102735876D01*
X137378843Y-102581775D01*
X137415000Y-102400000D01*
X137415000Y-101506752D01*
X137847471Y-101074281D01*
X137771400Y-101456714D01*
X137771400Y-101503286D01*
X137861877Y-101958144D01*
X138119533Y-102343753D01*
X138505142Y-102601409D01*
X138960000Y-102691886D01*
X139414858Y-102601409D01*
X139768474Y-102365130D01*
X139264851Y-102868753D01*
X138960000Y-102808114D01*
X138505142Y-102898591D01*
X138119533Y-103156247D01*
X137861877Y-103541856D01*
X137771400Y-103996714D01*
X137771400Y-104043286D01*
X137861877Y-104498144D01*
X138119533Y-104883753D01*
X138505142Y-105141409D01*
X138960000Y-105231886D01*
X139414858Y-105141409D01*
X139800467Y-104883753D01*
X140058123Y-104498144D01*
X140148600Y-104043286D01*
X140148600Y-103996714D01*
X140058123Y-103541856D01*
X139980584Y-103425812D01*
X140568198Y-102838198D01*
X140665746Y-102692208D01*
X140700000Y-102520000D01*
X140700000Y-102370792D01*
X141045142Y-102601409D01*
X141500000Y-102691886D01*
X141954858Y-102601409D01*
X142340467Y-102343753D01*
X142381136Y-102282888D01*
X143055000Y-102956751D01*
X143055000Y-106763248D01*
X141253248Y-108565000D01*
X138340005Y-108565000D01*
X138340000Y-108564999D01*
X138188384Y-108595158D01*
X138158225Y-108601157D01*
X138068318Y-108661231D01*
X138004124Y-108704124D01*
X135433248Y-111275000D01*
X134481520Y-111275000D01*
X134290996Y-110989860D01*
X133942241Y-110756830D01*
X133530856Y-110675000D01*
X132469144Y-110675000D01*
X132057759Y-110756830D01*
X131709004Y-110989860D01*
X131475974Y-111338615D01*
X131394144Y-111750000D01*
X131475974Y-112161385D01*
X131709004Y-112510140D01*
X132057759Y-112743170D01*
X132469144Y-112825000D01*
X133530856Y-112825000D01*
X133942241Y-112743170D01*
X134290996Y-112510140D01*
X134481520Y-112225000D01*
X135630000Y-112225000D01*
X135811775Y-112188843D01*
X135965876Y-112085876D01*
X136393224Y-111658528D01*
X136318769Y-111769957D01*
X136275000Y-111990000D01*
X136275000Y-115720000D01*
X136299864Y-115845000D01*
X136318769Y-115940043D01*
X136443414Y-116126586D01*
X138433414Y-118116586D01*
X138619957Y-118241231D01*
X138840000Y-118285000D01*
X165278633Y-118285000D01*
X165278633Y-118310000D01*
X165301295Y-118430438D01*
X165372474Y-118541053D01*
X165481080Y-118615260D01*
X165610000Y-118641367D01*
X166610000Y-118641367D01*
X166730438Y-118618705D01*
X166841053Y-118547526D01*
X166890279Y-118475481D01*
X166932474Y-118541053D01*
X167041080Y-118615260D01*
X167170000Y-118641367D01*
X168170000Y-118641367D01*
X168290438Y-118618705D01*
X168401053Y-118547526D01*
X168475260Y-118438920D01*
X168501367Y-118310000D01*
X168501367Y-117691805D01*
X169456587Y-116736586D01*
X169581231Y-116550043D01*
X169625000Y-116330000D01*
X169625000Y-115174702D01*
X169810140Y-115050996D01*
X170043170Y-114702241D01*
X170125000Y-114290856D01*
X170125000Y-113356751D01*
X170165873Y-113315878D01*
X170165876Y-113315876D01*
X170268843Y-113161775D01*
X170283799Y-113086586D01*
X170305001Y-112980000D01*
X170305000Y-112979995D01*
X170305000Y-112231367D01*
X170430000Y-112231367D01*
X170550438Y-112208705D01*
X170661053Y-112137526D01*
X170735260Y-112028920D01*
X170761367Y-111900000D01*
X170761367Y-110900000D01*
X170738705Y-110779562D01*
X170667526Y-110668947D01*
X170595481Y-110619721D01*
X170661053Y-110577526D01*
X170735260Y-110468920D01*
X170761367Y-110340000D01*
X170761367Y-109340000D01*
X170738705Y-109219562D01*
X170667526Y-109108947D01*
X170629076Y-109082676D01*
X171735876Y-107975876D01*
X171838843Y-107821775D01*
X171875000Y-107640000D01*
X171875000Y-102330005D01*
X171875001Y-102330000D01*
X171838844Y-102148226D01*
X171786575Y-102070000D01*
X171735876Y-101994124D01*
X171735873Y-101994122D01*
X170885876Y-101144124D01*
X170731775Y-101041157D01*
X170600757Y-101015096D01*
X170598123Y-101001856D01*
X170340467Y-100616247D01*
X169954858Y-100358591D01*
X169500000Y-100268114D01*
X169045142Y-100358591D01*
X168659533Y-100616247D01*
X168401877Y-101001856D01*
X168311400Y-101456714D01*
X168311400Y-101503286D01*
X168401877Y-101958144D01*
X168659533Y-102343753D01*
X169045142Y-102601409D01*
X169500000Y-102691886D01*
X169954858Y-102601409D01*
X170340467Y-102343753D01*
X170501299Y-102103051D01*
X170925000Y-102526751D01*
X170925000Y-107443248D01*
X169494124Y-108874124D01*
X169404248Y-109008633D01*
X169230000Y-109008633D01*
X169109562Y-109031295D01*
X168998947Y-109102474D01*
X168924740Y-109211080D01*
X168898633Y-109340000D01*
X168898633Y-110340000D01*
X168921295Y-110460438D01*
X168992474Y-110571053D01*
X169064519Y-110620279D01*
X168998947Y-110662474D01*
X168924740Y-110771080D01*
X168898633Y-110900000D01*
X168898633Y-111900000D01*
X168921295Y-112020438D01*
X168992474Y-112131053D01*
X169031620Y-112157800D01*
X168638615Y-112235974D01*
X168289860Y-112469004D01*
X168056830Y-112817759D01*
X167975000Y-113229144D01*
X167975000Y-114290856D01*
X168056830Y-114702241D01*
X168289860Y-115050996D01*
X168475000Y-115174702D01*
X168475000Y-116091827D01*
X167788195Y-116778633D01*
X167170000Y-116778633D01*
X167049562Y-116801295D01*
X166938947Y-116872474D01*
X166889721Y-116944519D01*
X166847526Y-116878947D01*
X166738920Y-116804740D01*
X166610000Y-116778633D01*
X166453792Y-116778633D01*
X166471053Y-116767526D01*
X166545260Y-116658920D01*
X166571367Y-116530000D01*
X166571367Y-115911805D01*
X166956586Y-115526586D01*
X167081231Y-115340043D01*
X167095163Y-115270000D01*
X167112451Y-115183087D01*
X167310140Y-115050996D01*
X167543170Y-114702241D01*
X167625000Y-114290856D01*
X167625000Y-113229144D01*
X167543170Y-112817759D01*
X167310140Y-112469004D01*
X167025000Y-112278480D01*
X167025000Y-112061367D01*
X167150000Y-112061367D01*
X167270438Y-112038705D01*
X167381053Y-111967526D01*
X167455260Y-111858920D01*
X167481367Y-111730000D01*
X167481367Y-110730000D01*
X167458705Y-110609562D01*
X167387526Y-110498947D01*
X167315481Y-110449721D01*
X167381053Y-110407526D01*
X167455260Y-110298920D01*
X167481367Y-110170000D01*
X167481367Y-109170000D01*
X167458705Y-109049562D01*
X167387526Y-108938947D01*
X167278920Y-108864740D01*
X167150000Y-108838633D01*
X167000860Y-108838633D01*
X166988844Y-108778226D01*
X166954677Y-108727092D01*
X166885876Y-108624124D01*
X166885873Y-108624122D01*
X164995000Y-106733248D01*
X164995000Y-106536714D01*
X165771400Y-106536714D01*
X165771400Y-106583286D01*
X165861877Y-107038144D01*
X166119533Y-107423753D01*
X166505142Y-107681409D01*
X166960000Y-107771886D01*
X167414858Y-107681409D01*
X167800467Y-107423753D01*
X168058123Y-107038144D01*
X168148600Y-106583286D01*
X168148600Y-106536714D01*
X168311400Y-106536714D01*
X168311400Y-106583286D01*
X168401877Y-107038144D01*
X168659533Y-107423753D01*
X169045142Y-107681409D01*
X169500000Y-107771886D01*
X169954858Y-107681409D01*
X170340467Y-107423753D01*
X170598123Y-107038144D01*
X170688600Y-106583286D01*
X170688600Y-106536714D01*
X170598123Y-106081856D01*
X170340467Y-105696247D01*
X169954858Y-105438591D01*
X169500000Y-105348114D01*
X169045142Y-105438591D01*
X168659533Y-105696247D01*
X168401877Y-106081856D01*
X168311400Y-106536714D01*
X168148600Y-106536714D01*
X168058123Y-106081856D01*
X167800467Y-105696247D01*
X167414858Y-105438591D01*
X166960000Y-105348114D01*
X166505142Y-105438591D01*
X166119533Y-105696247D01*
X165861877Y-106081856D01*
X165771400Y-106536714D01*
X164995000Y-106536714D01*
X164995000Y-103996714D01*
X165771400Y-103996714D01*
X165771400Y-104043286D01*
X165861877Y-104498144D01*
X166119533Y-104883753D01*
X166505142Y-105141409D01*
X166960000Y-105231886D01*
X167414858Y-105141409D01*
X167800467Y-104883753D01*
X168058123Y-104498144D01*
X168148600Y-104043286D01*
X168148600Y-103996714D01*
X168311400Y-103996714D01*
X168311400Y-104043286D01*
X168401877Y-104498144D01*
X168659533Y-104883753D01*
X169045142Y-105141409D01*
X169500000Y-105231886D01*
X169954858Y-105141409D01*
X170340467Y-104883753D01*
X170598123Y-104498144D01*
X170688600Y-104043286D01*
X170688600Y-103996714D01*
X170598123Y-103541856D01*
X170340467Y-103156247D01*
X169954858Y-102898591D01*
X169500000Y-102808114D01*
X169045142Y-102898591D01*
X168659533Y-103156247D01*
X168401877Y-103541856D01*
X168311400Y-103996714D01*
X168148600Y-103996714D01*
X168058123Y-103541856D01*
X167800467Y-103156247D01*
X167414858Y-102898591D01*
X166960000Y-102808114D01*
X166505142Y-102898591D01*
X166119533Y-103156247D01*
X165861877Y-103541856D01*
X165771400Y-103996714D01*
X164995000Y-103996714D01*
X164995000Y-102886752D01*
X165886603Y-101995149D01*
X166119533Y-102343753D01*
X166505142Y-102601409D01*
X166960000Y-102691886D01*
X167414858Y-102601409D01*
X167800467Y-102343753D01*
X168058123Y-101958144D01*
X168148600Y-101503286D01*
X168148600Y-101456714D01*
X168058123Y-101001856D01*
X167800467Y-100616247D01*
X167414858Y-100358591D01*
X166960000Y-100268114D01*
X166505142Y-100358591D01*
X166119533Y-100616247D01*
X165861877Y-101001856D01*
X165861252Y-101005000D01*
X165730000Y-101005000D01*
X165548225Y-101041157D01*
X165394124Y-101144124D01*
X165394122Y-101144127D01*
X164184124Y-102354124D01*
X164081157Y-102508225D01*
X164045000Y-102690000D01*
X164045000Y-106930000D01*
X164081157Y-107111775D01*
X164184124Y-107265876D01*
X165799128Y-108880879D01*
X165718947Y-108932474D01*
X165644740Y-109041080D01*
X165618633Y-109170000D01*
X165618633Y-110170000D01*
X165641295Y-110290438D01*
X165712474Y-110401053D01*
X165784519Y-110450279D01*
X165718947Y-110492474D01*
X165644740Y-110601080D01*
X165618633Y-110730000D01*
X165618633Y-111730000D01*
X165641295Y-111850438D01*
X165712474Y-111961053D01*
X165821080Y-112035260D01*
X165950000Y-112061367D01*
X166075000Y-112061367D01*
X166075000Y-112278480D01*
X165789860Y-112469004D01*
X165556830Y-112817759D01*
X165475000Y-113229144D01*
X165475000Y-114290856D01*
X165556830Y-114702241D01*
X165754872Y-114998633D01*
X165240000Y-114998633D01*
X165119562Y-115021295D01*
X165008947Y-115092474D01*
X164959721Y-115164519D01*
X164917526Y-115098947D01*
X164808920Y-115024740D01*
X164680000Y-114998633D01*
X163680000Y-114998633D01*
X163559562Y-115021295D01*
X163448947Y-115092474D01*
X163374740Y-115201080D01*
X163348633Y-115330000D01*
X163348633Y-115598195D01*
X161811828Y-117135000D01*
X139078172Y-117135000D01*
X137425000Y-115481828D01*
X137425000Y-112228172D01*
X138878173Y-110775000D01*
X139610903Y-110775000D01*
X139553414Y-110813413D01*
X138093414Y-112273414D01*
X137968769Y-112459957D01*
X137925000Y-112680000D01*
X137925000Y-115270000D01*
X137968769Y-115490043D01*
X138093414Y-115676586D01*
X139053414Y-116636586D01*
X139239957Y-116761231D01*
X139460000Y-116805000D01*
X155950000Y-116805000D01*
X156170043Y-116761231D01*
X156356586Y-116636586D01*
X157799096Y-115194076D01*
X157978615Y-115314026D01*
X158390000Y-115395856D01*
X158801385Y-115314026D01*
X159150140Y-115080996D01*
X159383170Y-114732241D01*
X159465000Y-114320856D01*
X159465000Y-113259144D01*
X159383170Y-112847759D01*
X159185128Y-112551367D01*
X159230000Y-112551367D01*
X159350438Y-112528705D01*
X159461053Y-112457526D01*
X159535260Y-112348920D01*
X159561367Y-112220000D01*
X159561367Y-111020000D01*
X159538705Y-110899562D01*
X159467526Y-110788947D01*
X159358920Y-110714740D01*
X159230000Y-110688633D01*
X158230000Y-110688633D01*
X158109562Y-110711295D01*
X157998947Y-110782474D01*
X157924740Y-110891080D01*
X157898633Y-111020000D01*
X157898633Y-111680297D01*
X157858769Y-111739957D01*
X157815000Y-111960000D01*
X157815000Y-112375298D01*
X157629860Y-112499004D01*
X157396830Y-112847759D01*
X157315000Y-113259144D01*
X157315000Y-114051828D01*
X156944894Y-114421934D01*
X156965000Y-114320856D01*
X156965000Y-113259144D01*
X156883170Y-112847759D01*
X156650140Y-112499004D01*
X156365000Y-112308480D01*
X156365000Y-107446752D01*
X161425873Y-102385878D01*
X161425876Y-102385876D01*
X161494677Y-102282908D01*
X161528844Y-102231774D01*
X161565001Y-102050000D01*
X161565000Y-102049995D01*
X161565000Y-98916714D01*
X165771400Y-98916714D01*
X165771400Y-98963286D01*
X165861877Y-99418144D01*
X166119533Y-99803753D01*
X166505142Y-100061409D01*
X166960000Y-100151886D01*
X167414858Y-100061409D01*
X167800467Y-99803753D01*
X168058123Y-99418144D01*
X168148600Y-98963286D01*
X168148600Y-98916714D01*
X168311400Y-98916714D01*
X168311400Y-98963286D01*
X168401877Y-99418144D01*
X168659533Y-99803753D01*
X169045142Y-100061409D01*
X169500000Y-100151886D01*
X169954858Y-100061409D01*
X170340467Y-99803753D01*
X170598123Y-99418144D01*
X170688600Y-98963286D01*
X170688600Y-98916714D01*
X170598123Y-98461856D01*
X170340467Y-98076247D01*
X169954858Y-97818591D01*
X169500000Y-97728114D01*
X169045142Y-97818591D01*
X168659533Y-98076247D01*
X168401877Y-98461856D01*
X168311400Y-98916714D01*
X168148600Y-98916714D01*
X168058123Y-98461856D01*
X167800467Y-98076247D01*
X167414858Y-97818591D01*
X166960000Y-97728114D01*
X166505142Y-97818591D01*
X166119533Y-98076247D01*
X165861877Y-98461856D01*
X165771400Y-98916714D01*
X161565000Y-98916714D01*
X161565000Y-96376714D01*
X165771400Y-96376714D01*
X165771400Y-96423286D01*
X165861877Y-96878144D01*
X166119533Y-97263753D01*
X166505142Y-97521409D01*
X166960000Y-97611886D01*
X167414858Y-97521409D01*
X167800467Y-97263753D01*
X168058123Y-96878144D01*
X168148600Y-96423286D01*
X168148600Y-96376714D01*
X168058123Y-95921856D01*
X167800467Y-95536247D01*
X167414858Y-95278591D01*
X166960000Y-95188114D01*
X166505142Y-95278591D01*
X166119533Y-95536247D01*
X165861877Y-95921856D01*
X165771400Y-96376714D01*
X161565000Y-96376714D01*
X161565000Y-91296714D01*
X165771400Y-91296714D01*
X165771400Y-91343286D01*
X165861877Y-91798144D01*
X166119533Y-92183753D01*
X166505142Y-92441409D01*
X166960000Y-92531886D01*
X167414858Y-92441409D01*
X167800467Y-92183753D01*
X168058123Y-91798144D01*
X168148600Y-91343286D01*
X168148600Y-91296714D01*
X168311400Y-91296714D01*
X168311400Y-91343286D01*
X168401877Y-91798144D01*
X168659533Y-92183753D01*
X169045142Y-92441409D01*
X169500000Y-92531886D01*
X169954858Y-92441409D01*
X170340467Y-92183753D01*
X170598123Y-91798144D01*
X170688600Y-91343286D01*
X170688600Y-91296714D01*
X170598123Y-90841856D01*
X170340467Y-90456247D01*
X169954858Y-90198591D01*
X169500000Y-90108114D01*
X169045142Y-90198591D01*
X168659533Y-90456247D01*
X168401877Y-90841856D01*
X168311400Y-91296714D01*
X168148600Y-91296714D01*
X168058123Y-90841856D01*
X167800467Y-90456247D01*
X167414858Y-90198591D01*
X166960000Y-90108114D01*
X166505142Y-90198591D01*
X166119533Y-90456247D01*
X165861877Y-90841856D01*
X165771400Y-91296714D01*
X161565000Y-91296714D01*
X161565000Y-88756714D01*
X165771400Y-88756714D01*
X165771400Y-88803286D01*
X165861877Y-89258144D01*
X166119533Y-89643753D01*
X166505142Y-89901409D01*
X166960000Y-89991886D01*
X167414858Y-89901409D01*
X167800467Y-89643753D01*
X168058123Y-89258144D01*
X168148600Y-88803286D01*
X168148600Y-88756714D01*
X168311400Y-88756714D01*
X168311400Y-88803286D01*
X168401877Y-89258144D01*
X168659533Y-89643753D01*
X169045142Y-89901409D01*
X169500000Y-89991886D01*
X169954858Y-89901409D01*
X170340467Y-89643753D01*
X170598123Y-89258144D01*
X170688600Y-88803286D01*
X170688600Y-88756714D01*
X170598123Y-88301856D01*
X170340467Y-87916247D01*
X169954858Y-87658591D01*
X169500000Y-87568114D01*
X169045142Y-87658591D01*
X168659533Y-87916247D01*
X168401877Y-88301856D01*
X168311400Y-88756714D01*
X168148600Y-88756714D01*
X168058123Y-88301856D01*
X167800467Y-87916247D01*
X167414858Y-87658591D01*
X166960000Y-87568114D01*
X166505142Y-87658591D01*
X166119533Y-87916247D01*
X165861877Y-88301856D01*
X165771400Y-88756714D01*
X161565000Y-88756714D01*
X161565000Y-88086752D01*
X163435038Y-86216714D01*
X165771400Y-86216714D01*
X165771400Y-86263286D01*
X165861877Y-86718144D01*
X166119533Y-87103753D01*
X166505142Y-87361409D01*
X166960000Y-87451886D01*
X167414858Y-87361409D01*
X167800467Y-87103753D01*
X168058123Y-86718144D01*
X168148600Y-86263286D01*
X168148600Y-86216714D01*
X168058123Y-85761856D01*
X167800467Y-85376247D01*
X167414858Y-85118591D01*
X166960000Y-85028114D01*
X166505142Y-85118591D01*
X166119533Y-85376247D01*
X165861877Y-85761856D01*
X165771400Y-86216714D01*
X163435038Y-86216714D01*
X165476752Y-84175000D01*
X165861252Y-84175000D01*
X165861877Y-84178144D01*
X166119533Y-84563753D01*
X166505142Y-84821409D01*
X166960000Y-84911886D01*
X167414858Y-84821409D01*
X167800467Y-84563753D01*
X168058123Y-84178144D01*
X168148600Y-83723286D01*
X168148600Y-83676714D01*
X168058123Y-83221856D01*
X167800467Y-82836247D01*
X167414858Y-82578591D01*
X166960000Y-82488114D01*
X166505142Y-82578591D01*
X166119533Y-82836247D01*
X165861877Y-83221856D01*
X165861252Y-83225000D01*
X165280005Y-83225000D01*
X165280000Y-83224999D01*
X165154315Y-83250000D01*
X165098225Y-83261157D01*
X164948454Y-83361231D01*
X164944124Y-83364124D01*
X160754124Y-87554124D01*
X160651157Y-87708225D01*
X160615000Y-87890000D01*
X160615000Y-101853249D01*
X155554124Y-106914124D01*
X155451157Y-107068225D01*
X155415000Y-107250000D01*
X155415000Y-112308480D01*
X155129860Y-112499004D01*
X154896830Y-112847759D01*
X154815000Y-113259144D01*
X154815000Y-114320856D01*
X154896830Y-114732241D01*
X155129860Y-115080996D01*
X155478615Y-115314026D01*
X155890000Y-115395856D01*
X155991078Y-115375750D01*
X155711828Y-115655000D01*
X146028173Y-115655000D01*
X145715000Y-115341828D01*
X145715000Y-115204702D01*
X145900140Y-115080996D01*
X146133170Y-114732241D01*
X146215000Y-114320856D01*
X146215000Y-113498172D01*
X147351806Y-112361367D01*
X147970000Y-112361367D01*
X148090438Y-112338705D01*
X148201053Y-112267526D01*
X148275260Y-112158920D01*
X148301367Y-112030000D01*
X148301367Y-110830000D01*
X148278705Y-110709562D01*
X148207526Y-110598947D01*
X148098920Y-110524740D01*
X147970000Y-110498633D01*
X147293119Y-110498633D01*
X148115876Y-109675876D01*
X148218843Y-109521775D01*
X148255000Y-109340000D01*
X148255000Y-98286752D01*
X153225876Y-93315876D01*
X153328843Y-93161775D01*
X153365000Y-92980000D01*
X153365000Y-85206752D01*
X160756752Y-77815000D01*
X166080275Y-77815000D01*
X165861877Y-78141856D01*
X165771400Y-78596714D01*
X165771400Y-78643286D01*
X165861877Y-79098144D01*
X166077833Y-79421344D01*
X165978225Y-79441157D01*
X165824124Y-79544124D01*
X158524124Y-86844124D01*
X158421157Y-86998225D01*
X158385000Y-87180000D01*
X158385000Y-95203248D01*
X153054124Y-100534124D01*
X152951157Y-100688225D01*
X152915000Y-100870000D01*
X152915000Y-112308480D01*
X152629860Y-112499004D01*
X152396830Y-112847759D01*
X152315000Y-113259144D01*
X152315000Y-114320856D01*
X152396830Y-114732241D01*
X152629860Y-115080996D01*
X152978615Y-115314026D01*
X153390000Y-115395856D01*
X153801385Y-115314026D01*
X154150140Y-115080996D01*
X154383170Y-114732241D01*
X154465000Y-114320856D01*
X154465000Y-113259144D01*
X154383170Y-112847759D01*
X154150140Y-112499004D01*
X153865000Y-112308480D01*
X153865000Y-101066752D01*
X159195876Y-95735876D01*
X159298843Y-95581775D01*
X159335000Y-95400000D01*
X159335000Y-87376752D01*
X165820157Y-80891595D01*
X165771400Y-81136714D01*
X165771400Y-81183286D01*
X165861877Y-81638144D01*
X166119533Y-82023753D01*
X166505142Y-82281409D01*
X166960000Y-82371886D01*
X167414858Y-82281409D01*
X167800467Y-82023753D01*
X168058123Y-81638144D01*
X168148600Y-81183286D01*
X168148600Y-81136714D01*
X168058123Y-80681856D01*
X167839725Y-80355000D01*
X168013248Y-80355000D01*
X168391628Y-80733380D01*
X168311400Y-81136714D01*
X168311400Y-81183286D01*
X168401877Y-81638144D01*
X168659533Y-82023753D01*
X169045142Y-82281409D01*
X169500000Y-82371886D01*
X169954858Y-82281409D01*
X170340467Y-82023753D01*
X170598123Y-81638144D01*
X170688600Y-81183286D01*
X170688600Y-81136714D01*
X170598123Y-80681856D01*
X170340467Y-80296247D01*
X169954858Y-80038591D01*
X169500000Y-79948114D01*
X169045142Y-80038591D01*
X169042265Y-80040513D01*
X168545876Y-79544124D01*
X168391775Y-79441157D01*
X168210000Y-79405000D01*
X167853088Y-79405000D01*
X168058123Y-79098144D01*
X168148600Y-78643286D01*
X168148600Y-78596714D01*
X168058123Y-78141856D01*
X167839725Y-77815000D01*
X168470000Y-77815000D01*
X168643310Y-77780527D01*
X168401877Y-78141856D01*
X168311400Y-78596714D01*
X168311400Y-78643286D01*
X168401877Y-79098144D01*
X168659533Y-79483753D01*
X169045142Y-79741409D01*
X169500000Y-79831886D01*
X169954858Y-79741409D01*
X170340467Y-79483753D01*
X170598123Y-79098144D01*
X170688600Y-78643286D01*
X170688600Y-78596714D01*
X170598123Y-78141856D01*
X170340467Y-77756247D01*
X169954858Y-77498591D01*
X169500000Y-77408114D01*
X169045142Y-77498591D01*
X168858351Y-77623401D01*
X169241321Y-77240431D01*
X169500000Y-77291886D01*
X169954858Y-77201409D01*
X170340467Y-76943753D01*
X170598123Y-76558144D01*
X170688600Y-76103286D01*
X170688600Y-76056714D01*
X170598123Y-75601856D01*
X170386406Y-75285000D01*
X170623248Y-75285000D01*
X173505000Y-78166752D01*
X173505000Y-85073249D01*
X171795876Y-83364124D01*
X171641775Y-83261157D01*
X171460000Y-83225000D01*
X170598748Y-83225000D01*
X170598123Y-83221856D01*
X170340467Y-82836247D01*
X169954858Y-82578591D01*
X169500000Y-82488114D01*
X169045142Y-82578591D01*
X168659533Y-82836247D01*
X168401877Y-83221856D01*
X168311400Y-83676714D01*
X168311400Y-83723286D01*
X168401877Y-84178144D01*
X168659533Y-84563753D01*
X169045142Y-84821409D01*
X169500000Y-84911886D01*
X169954858Y-84821409D01*
X170340467Y-84563753D01*
X170598123Y-84178144D01*
X170598748Y-84175000D01*
X171263248Y-84175000D01*
X172805000Y-85716751D01*
X172805000Y-87163249D01*
X171545876Y-85904124D01*
X171391775Y-85801157D01*
X171210000Y-85765000D01*
X170598748Y-85765000D01*
X170598123Y-85761856D01*
X170340467Y-85376247D01*
X169954858Y-85118591D01*
X169500000Y-85028114D01*
X169045142Y-85118591D01*
X168659533Y-85376247D01*
X168401877Y-85761856D01*
X168311400Y-86216714D01*
X168311400Y-86263286D01*
X168401877Y-86718144D01*
X168659533Y-87103753D01*
X169045142Y-87361409D01*
X169500000Y-87451886D01*
X169954858Y-87361409D01*
X170340467Y-87103753D01*
X170598123Y-86718144D01*
X170598748Y-86715000D01*
X171013248Y-86715000D01*
X172165000Y-87866751D01*
X172165000Y-93010000D01*
X172201157Y-93191775D01*
X172304124Y-93345876D01*
X174455000Y-95496752D01*
X174455000Y-96443248D01*
X171535876Y-93524124D01*
X171381775Y-93421157D01*
X171200000Y-93385000D01*
X170598748Y-93385000D01*
X170598123Y-93381856D01*
X170340467Y-92996247D01*
X169954858Y-92738591D01*
X169500000Y-92648114D01*
X169045142Y-92738591D01*
X168659533Y-92996247D01*
X168401877Y-93381856D01*
X168311400Y-93836714D01*
X168311400Y-93883286D01*
X168401877Y-94338144D01*
X168606912Y-94645000D01*
X168416752Y-94645000D01*
X168066713Y-94294961D01*
X168148600Y-93883286D01*
X168148600Y-93836714D01*
X168058123Y-93381856D01*
X167800467Y-92996247D01*
X167414858Y-92738591D01*
X166960000Y-92648114D01*
X166505142Y-92738591D01*
X166119533Y-92996247D01*
X165861877Y-93381856D01*
X165771400Y-93836714D01*
X165771400Y-93883286D01*
X165861877Y-94338144D01*
X166119533Y-94723753D01*
X166505142Y-94981409D01*
X166960000Y-95071886D01*
X167410520Y-94982272D01*
X167884124Y-95455876D01*
X168038225Y-95558843D01*
X168220000Y-95595000D01*
X168620275Y-95595000D01*
X168401877Y-95921856D01*
X168311400Y-96376714D01*
X168311400Y-96423286D01*
X168401877Y-96878144D01*
X168659533Y-97263753D01*
X169045142Y-97521409D01*
X169500000Y-97611886D01*
X169954858Y-97521409D01*
X170340467Y-97263753D01*
X170598123Y-96878144D01*
X170688600Y-96423286D01*
X170688600Y-96376714D01*
X170598123Y-95921856D01*
X170379725Y-95595000D01*
X170783248Y-95595000D01*
X172925000Y-97736752D01*
X172925000Y-106990000D01*
X172961157Y-107171775D01*
X173064124Y-107325876D01*
X177664122Y-111925873D01*
X177664124Y-111925876D01*
X178004122Y-112265873D01*
X178004124Y-112265876D01*
X178158225Y-112368843D01*
X178188384Y-112374842D01*
X178340000Y-112405001D01*
X178340005Y-112405000D01*
X178848633Y-112405000D01*
X178848633Y-112530000D01*
X178871295Y-112650438D01*
X178942474Y-112761053D01*
X179051080Y-112835260D01*
X179180000Y-112861367D01*
X180180000Y-112861367D01*
X180300438Y-112838705D01*
X180411053Y-112767526D01*
X180460279Y-112695481D01*
X180502474Y-112761053D01*
X180611080Y-112835260D01*
X180740000Y-112861367D01*
X181740000Y-112861367D01*
X181860438Y-112838705D01*
X181971053Y-112767526D01*
X182045260Y-112658920D01*
X182071367Y-112530000D01*
X182071367Y-112405000D01*
X182178633Y-112405000D01*
X182178633Y-114050000D01*
X182201295Y-114170438D01*
X182272474Y-114281053D01*
X182381080Y-114355260D01*
X182510000Y-114381367D01*
X184510000Y-114381367D01*
X184630438Y-114358705D01*
X184741053Y-114287526D01*
X184815260Y-114178920D01*
X184841367Y-114050000D01*
X184841367Y-112050000D01*
X184818705Y-111929562D01*
X184747526Y-111818947D01*
X184638920Y-111744740D01*
X184510000Y-111718633D01*
X182850385Y-111718633D01*
X182725876Y-111594124D01*
X182571775Y-111491157D01*
X182390000Y-111455000D01*
X182071367Y-111455000D01*
X182071367Y-111330000D01*
X182048705Y-111209562D01*
X181977526Y-111098947D01*
X181868920Y-111024740D01*
X181740000Y-110998633D01*
X180740000Y-110998633D01*
X180619562Y-111021295D01*
X180508947Y-111092474D01*
X180459721Y-111164519D01*
X180417526Y-111098947D01*
X180308920Y-111024740D01*
X180180000Y-110998633D01*
X179180000Y-110998633D01*
X179059562Y-111021295D01*
X178948947Y-111092474D01*
X178874740Y-111201080D01*
X178848633Y-111330000D01*
X178848633Y-111455000D01*
X178536751Y-111455000D01*
X178335876Y-111254124D01*
X178335873Y-111254122D01*
X173875000Y-106793248D01*
X173875000Y-105936752D01*
X176984124Y-109045876D01*
X177138225Y-109148843D01*
X177320000Y-109185000D01*
X185043248Y-109185000D01*
X185388633Y-109530385D01*
X185388633Y-110320000D01*
X185411295Y-110440438D01*
X185482474Y-110551053D01*
X185591080Y-110625260D01*
X185720000Y-110651367D01*
X186720000Y-110651367D01*
X186840438Y-110628705D01*
X186951053Y-110557526D01*
X187000279Y-110485481D01*
X187042474Y-110551053D01*
X187151080Y-110625260D01*
X187280000Y-110651367D01*
X188280000Y-110651367D01*
X188400438Y-110628705D01*
X188511053Y-110557526D01*
X188585260Y-110448920D01*
X188611367Y-110320000D01*
X188611367Y-110195000D01*
X188928633Y-110195000D01*
X188928633Y-111260000D01*
X188951295Y-111380438D01*
X189022474Y-111491053D01*
X189131080Y-111565260D01*
X189260000Y-111591367D01*
X191260000Y-111591367D01*
X191380438Y-111568705D01*
X191491053Y-111497526D01*
X191565260Y-111388920D01*
X191591367Y-111260000D01*
X191591367Y-109260000D01*
X191568705Y-109139562D01*
X191497526Y-109028947D01*
X191388920Y-108954740D01*
X191260000Y-108928633D01*
X189260000Y-108928633D01*
X189139562Y-108951295D01*
X189028947Y-109022474D01*
X188954740Y-109131080D01*
X188931671Y-109245000D01*
X188611367Y-109245000D01*
X188611367Y-109120000D01*
X188588705Y-108999562D01*
X188517526Y-108888947D01*
X188408920Y-108814740D01*
X188280000Y-108788633D01*
X187280000Y-108788633D01*
X187159562Y-108811295D01*
X187048947Y-108882474D01*
X186999721Y-108954519D01*
X186957526Y-108888947D01*
X186848920Y-108814740D01*
X186720000Y-108788633D01*
X185990385Y-108788633D01*
X185575876Y-108374124D01*
X185421775Y-108271157D01*
X185240000Y-108235000D01*
X184816304Y-108235000D01*
X184821367Y-108210000D01*
X184821367Y-106210000D01*
X184798705Y-106089562D01*
X184727526Y-105978947D01*
X184618920Y-105904740D01*
X184490000Y-105878633D01*
X182490000Y-105878633D01*
X182369562Y-105901295D01*
X182258947Y-105972474D01*
X182184740Y-106081080D01*
X182158633Y-106210000D01*
X182158633Y-107105000D01*
X181941367Y-107105000D01*
X181941367Y-106980000D01*
X181918705Y-106859562D01*
X181847526Y-106748947D01*
X181738920Y-106674740D01*
X181610000Y-106648633D01*
X180610000Y-106648633D01*
X180489562Y-106671295D01*
X180378947Y-106742474D01*
X180329721Y-106814519D01*
X180287526Y-106748947D01*
X180178920Y-106674740D01*
X180050000Y-106648633D01*
X179050000Y-106648633D01*
X178929562Y-106671295D01*
X178818947Y-106742474D01*
X178744740Y-106851080D01*
X178718633Y-106980000D01*
X178718633Y-107105000D01*
X178336751Y-107105000D01*
X175405000Y-104173248D01*
X175405000Y-101416752D01*
X177424124Y-103435876D01*
X177578225Y-103538843D01*
X177760000Y-103575000D01*
X184853248Y-103575000D01*
X185364124Y-104085876D01*
X185388633Y-104102252D01*
X185388633Y-104350000D01*
X185411295Y-104470438D01*
X185482474Y-104581053D01*
X185591080Y-104655260D01*
X185720000Y-104681367D01*
X186720000Y-104681367D01*
X186840438Y-104658705D01*
X186951053Y-104587526D01*
X187000279Y-104515481D01*
X187042474Y-104581053D01*
X187151080Y-104655260D01*
X187280000Y-104681367D01*
X188280000Y-104681367D01*
X188400438Y-104658705D01*
X188511053Y-104587526D01*
X188585260Y-104478920D01*
X188611367Y-104350000D01*
X188611367Y-104225000D01*
X188928633Y-104225000D01*
X188928633Y-105650000D01*
X188951295Y-105770438D01*
X189022474Y-105881053D01*
X189131080Y-105955260D01*
X189260000Y-105981367D01*
X191260000Y-105981367D01*
X191380438Y-105958705D01*
X191491053Y-105887526D01*
X191565260Y-105778920D01*
X191591367Y-105650000D01*
X191591367Y-103650000D01*
X191568705Y-103529562D01*
X191497526Y-103418947D01*
X191388920Y-103344740D01*
X191260000Y-103318633D01*
X189552964Y-103318633D01*
X189541775Y-103311157D01*
X189360000Y-103275000D01*
X188611367Y-103275000D01*
X188611367Y-103150000D01*
X188588705Y-103029562D01*
X188517526Y-102918947D01*
X188408920Y-102844740D01*
X188280000Y-102818633D01*
X187280000Y-102818633D01*
X187159562Y-102841295D01*
X187048947Y-102912474D01*
X186999721Y-102984519D01*
X186957526Y-102918947D01*
X186848920Y-102844740D01*
X186720000Y-102818633D01*
X185720000Y-102818633D01*
X185599562Y-102841295D01*
X185516498Y-102894746D01*
X185385876Y-102764124D01*
X185231775Y-102661157D01*
X185050000Y-102625000D01*
X184806054Y-102625000D01*
X184831367Y-102500000D01*
X184831367Y-100500000D01*
X184808705Y-100379562D01*
X184737526Y-100268947D01*
X184628920Y-100194740D01*
X184500000Y-100168633D01*
X182500000Y-100168633D01*
X182379562Y-100191295D01*
X182268947Y-100262474D01*
X182194740Y-100371080D01*
X182168633Y-100500000D01*
X182168633Y-101525000D01*
X181861367Y-101525000D01*
X181861367Y-101400000D01*
X181838705Y-101279562D01*
X181767526Y-101168947D01*
X181658920Y-101094740D01*
X181530000Y-101068633D01*
X180530000Y-101068633D01*
X180409562Y-101091295D01*
X180298947Y-101162474D01*
X180249721Y-101234519D01*
X180207526Y-101168947D01*
X180098920Y-101094740D01*
X179970000Y-101068633D01*
X178970000Y-101068633D01*
X178852495Y-101090743D01*
X177185000Y-99423248D01*
X177185000Y-93950000D01*
X177148843Y-93768225D01*
X177045876Y-93614124D01*
X174455000Y-91023248D01*
X174455000Y-77970000D01*
X174418843Y-77788225D01*
X174315876Y-77634124D01*
X171155876Y-74474124D01*
X171001775Y-74371157D01*
X170820000Y-74335000D01*
X170386406Y-74335000D01*
X170598123Y-74018144D01*
X170598748Y-74015000D01*
X171243248Y-74015000D01*
X174785000Y-77556752D01*
X174785000Y-91000000D01*
X174821157Y-91181775D01*
X174924124Y-91335876D01*
X177614122Y-94025873D01*
X177614124Y-94025876D01*
X177768225Y-94128843D01*
X177950000Y-94165000D01*
X179943248Y-94165000D01*
X183114124Y-97335876D01*
X183268225Y-97438843D01*
X183450000Y-97475000D01*
X185388633Y-97475000D01*
X185388633Y-97600000D01*
X185411295Y-97720438D01*
X185482474Y-97831053D01*
X185591080Y-97905260D01*
X185720000Y-97931367D01*
X186720000Y-97931367D01*
X186840438Y-97908705D01*
X186951053Y-97837526D01*
X187000279Y-97765481D01*
X187042474Y-97831053D01*
X187151080Y-97905260D01*
X187280000Y-97931367D01*
X188280000Y-97931367D01*
X188400438Y-97908705D01*
X188453079Y-97874831D01*
X188918633Y-98340385D01*
X188918633Y-100000000D01*
X188941295Y-100120438D01*
X189012474Y-100231053D01*
X189121080Y-100305260D01*
X189250000Y-100331367D01*
X191250000Y-100331367D01*
X191370438Y-100308705D01*
X191481053Y-100237526D01*
X191555260Y-100128920D01*
X191581367Y-100000000D01*
X191581367Y-98000000D01*
X191558705Y-97879562D01*
X191487526Y-97768947D01*
X191378920Y-97694740D01*
X191250000Y-97668633D01*
X189590385Y-97668633D01*
X188611367Y-96689615D01*
X188611367Y-96400000D01*
X188588705Y-96279562D01*
X188517526Y-96168947D01*
X188408920Y-96094740D01*
X188280000Y-96068633D01*
X187280000Y-96068633D01*
X187159562Y-96091295D01*
X187048947Y-96162474D01*
X186999721Y-96234519D01*
X186957526Y-96168947D01*
X186900842Y-96130216D01*
X187026277Y-96130326D01*
X187697235Y-95853091D01*
X188211027Y-95340195D01*
X188489432Y-94669722D01*
X188490066Y-93943743D01*
X188212831Y-93272785D01*
X187699935Y-92758993D01*
X187029462Y-92480588D01*
X186303483Y-92479954D01*
X185632525Y-92757189D01*
X185118733Y-93270085D01*
X184840328Y-93940558D01*
X184839694Y-94666537D01*
X185116929Y-95337495D01*
X185629825Y-95851287D01*
X186153252Y-96068633D01*
X185720000Y-96068633D01*
X185599562Y-96091295D01*
X185488947Y-96162474D01*
X185414740Y-96271080D01*
X185388633Y-96400000D01*
X185388633Y-96525000D01*
X183646752Y-96525000D01*
X180475876Y-93354124D01*
X180321775Y-93251157D01*
X180140000Y-93215000D01*
X178146751Y-93215000D01*
X175735000Y-90803248D01*
X175735000Y-90750000D01*
X176894144Y-90750000D01*
X176975974Y-91161385D01*
X177209004Y-91510140D01*
X177557759Y-91743170D01*
X177969144Y-91825000D01*
X179030856Y-91825000D01*
X179442241Y-91743170D01*
X179790996Y-91510140D01*
X179914702Y-91325000D01*
X183072051Y-91325000D01*
X183085524Y-91357606D01*
X183387823Y-91660432D01*
X183782997Y-91824523D01*
X184210886Y-91824897D01*
X184606346Y-91661496D01*
X184909172Y-91359197D01*
X185073263Y-90964023D01*
X185073637Y-90536134D01*
X184910236Y-90140674D01*
X184607937Y-89837848D01*
X184212763Y-89673757D01*
X183784874Y-89673383D01*
X183389414Y-89836784D01*
X183086588Y-90139083D01*
X183071674Y-90175000D01*
X179914702Y-90175000D01*
X179790996Y-89989860D01*
X179442241Y-89756830D01*
X179030856Y-89675000D01*
X177969144Y-89675000D01*
X177557759Y-89756830D01*
X177209004Y-89989860D01*
X176975974Y-90338615D01*
X176894144Y-90750000D01*
X175735000Y-90750000D01*
X175735000Y-85750000D01*
X176894144Y-85750000D01*
X176975974Y-86161385D01*
X177209004Y-86510140D01*
X177557759Y-86743170D01*
X177969144Y-86825000D01*
X179030856Y-86825000D01*
X179397146Y-86752140D01*
X183071696Y-86752140D01*
X183085524Y-86785606D01*
X183387823Y-87088432D01*
X183640119Y-87193195D01*
X183389414Y-87296784D01*
X183086588Y-87599083D01*
X183055064Y-87675000D01*
X179914702Y-87675000D01*
X179790996Y-87489860D01*
X179442241Y-87256830D01*
X179030856Y-87175000D01*
X177969144Y-87175000D01*
X177557759Y-87256830D01*
X177209004Y-87489860D01*
X176975974Y-87838615D01*
X176894144Y-88250000D01*
X176975974Y-88661385D01*
X177209004Y-89010140D01*
X177557759Y-89243170D01*
X177969144Y-89325000D01*
X179030856Y-89325000D01*
X179442241Y-89243170D01*
X179790996Y-89010140D01*
X179914702Y-88825000D01*
X183092905Y-88825000D01*
X183387823Y-89120432D01*
X183782997Y-89284523D01*
X184210886Y-89284897D01*
X184606346Y-89121496D01*
X184909172Y-88819197D01*
X185073263Y-88424023D01*
X185073637Y-87996134D01*
X184910236Y-87600674D01*
X184607937Y-87297848D01*
X184355641Y-87193085D01*
X184606346Y-87089496D01*
X184909172Y-86787197D01*
X185073263Y-86392023D01*
X185073637Y-85964134D01*
X184910236Y-85568674D01*
X184607937Y-85265848D01*
X184212763Y-85101757D01*
X183784874Y-85101383D01*
X183389414Y-85264784D01*
X183086588Y-85567083D01*
X183072031Y-85602140D01*
X180076445Y-85602140D01*
X180024026Y-85338615D01*
X179790996Y-84989860D01*
X179442241Y-84756830D01*
X179030856Y-84675000D01*
X177969144Y-84675000D01*
X177557759Y-84756830D01*
X177209004Y-84989860D01*
X176975974Y-85338615D01*
X176894144Y-85750000D01*
X175735000Y-85750000D01*
X175735000Y-83250000D01*
X176894144Y-83250000D01*
X176975974Y-83661385D01*
X177209004Y-84010140D01*
X177557759Y-84243170D01*
X177969144Y-84325000D01*
X179030856Y-84325000D01*
X179442241Y-84243170D01*
X179790996Y-84010140D01*
X179914702Y-83825000D01*
X182922145Y-83825000D01*
X182922123Y-83850146D01*
X183085524Y-84245606D01*
X183387823Y-84548432D01*
X183782997Y-84712523D01*
X184210886Y-84712897D01*
X184606346Y-84549496D01*
X184909172Y-84247197D01*
X185073263Y-83852023D01*
X185073637Y-83424134D01*
X184910236Y-83028674D01*
X184607937Y-82725848D01*
X184212763Y-82561757D01*
X183784874Y-82561383D01*
X183509900Y-82675000D01*
X179914702Y-82675000D01*
X179790996Y-82489860D01*
X179442241Y-82256830D01*
X179030856Y-82175000D01*
X177969144Y-82175000D01*
X177557759Y-82256830D01*
X177209004Y-82489860D01*
X176975974Y-82838615D01*
X176894144Y-83250000D01*
X175735000Y-83250000D01*
X175735000Y-80950537D01*
X184839694Y-80950537D01*
X185116929Y-81621495D01*
X185629825Y-82135287D01*
X186300298Y-82413692D01*
X187026277Y-82414326D01*
X187697235Y-82137091D01*
X188211027Y-81624195D01*
X188489432Y-80953722D01*
X188490066Y-80227743D01*
X188212831Y-79556785D01*
X187699935Y-79042993D01*
X187029462Y-78764588D01*
X186303483Y-78763954D01*
X185632525Y-79041189D01*
X185118733Y-79554085D01*
X184840328Y-80224558D01*
X184839694Y-80950537D01*
X175735000Y-80950537D01*
X175735000Y-77360005D01*
X175735001Y-77360000D01*
X175698843Y-77178226D01*
X175698843Y-77178225D01*
X175595876Y-77024124D01*
X171775876Y-73204124D01*
X171621775Y-73101157D01*
X171440000Y-73065000D01*
X170598748Y-73065000D01*
X170598123Y-73061856D01*
X170340467Y-72676247D01*
X169954858Y-72418591D01*
X169500000Y-72328114D01*
X169045142Y-72418591D01*
X168659533Y-72676247D01*
X168401877Y-73061856D01*
X168311400Y-73516714D01*
X168311400Y-73563286D01*
X168401877Y-74018144D01*
X168613594Y-74335000D01*
X168426752Y-74335000D01*
X168066713Y-73974961D01*
X168148600Y-73563286D01*
X168148600Y-73516714D01*
X168058123Y-73061856D01*
X167800467Y-72676247D01*
X167414858Y-72418591D01*
X166960000Y-72328114D01*
X166505142Y-72418591D01*
X166119533Y-72676247D01*
X165861877Y-73061856D01*
X165771400Y-73516714D01*
X165771400Y-73563286D01*
X165861877Y-74018144D01*
X166119533Y-74403753D01*
X166505142Y-74661409D01*
X166960000Y-74751886D01*
X167410520Y-74662272D01*
X167894124Y-75145876D01*
X168048225Y-75248843D01*
X168230000Y-75285000D01*
X168613594Y-75285000D01*
X168401877Y-75601856D01*
X168311400Y-76056714D01*
X168311400Y-76103286D01*
X168401877Y-76558144D01*
X168473265Y-76664983D01*
X168273248Y-76865000D01*
X167853088Y-76865000D01*
X168058123Y-76558144D01*
X168148600Y-76103286D01*
X168148600Y-76056714D01*
X168058123Y-75601856D01*
X167800467Y-75216247D01*
X167414858Y-74958591D01*
X166960000Y-74868114D01*
X166505142Y-74958591D01*
X166119533Y-75216247D01*
X165861877Y-75601856D01*
X165861252Y-75605000D01*
X159900000Y-75605000D01*
X159718225Y-75641157D01*
X159564124Y-75744124D01*
X151434124Y-83874124D01*
X151331157Y-84028225D01*
X151295000Y-84210000D01*
X151295000Y-92763248D01*
X146769124Y-97289124D01*
X146666157Y-97443225D01*
X146630000Y-97625000D01*
X146630000Y-108818248D01*
X144673248Y-110775000D01*
X143798172Y-110775000D01*
X146036586Y-108536586D01*
X146161231Y-108350043D01*
X146205000Y-108130000D01*
X146205000Y-81758172D01*
X152533171Y-75430002D01*
X162814998Y-75430002D01*
X163035041Y-75386233D01*
X163221584Y-75261588D01*
X166419193Y-72063979D01*
X166505142Y-72121409D01*
X166960000Y-72211886D01*
X167414858Y-72121409D01*
X167800467Y-71863753D01*
X168058123Y-71478144D01*
X168148600Y-71023286D01*
X168148600Y-70976714D01*
X168058123Y-70521856D01*
X167800467Y-70136247D01*
X167535000Y-69958867D01*
X167535000Y-69838172D01*
X168448172Y-68925000D01*
X172271828Y-68925000D01*
X173575000Y-70228173D01*
X173575000Y-72540000D01*
X173604837Y-72690000D01*
X173618769Y-72760043D01*
X173743414Y-72946586D01*
X174518633Y-73721806D01*
X174518633Y-74000000D01*
X174541295Y-74120438D01*
X174612474Y-74231053D01*
X174721080Y-74305260D01*
X174799079Y-74321055D01*
X174801853Y-74335000D01*
X174818769Y-74420043D01*
X174943414Y-74606586D01*
X175463414Y-75126586D01*
X178473414Y-78136587D01*
X178659957Y-78261231D01*
X178880000Y-78305000D01*
X187221828Y-78305000D01*
X192153413Y-83236586D01*
X192153416Y-83236588D01*
X192825000Y-83908173D01*
X192825000Y-111911827D01*
X192153414Y-112583414D01*
X189381828Y-115355000D01*
X172498173Y-115355000D01*
X172240620Y-115097448D01*
X172310140Y-115050996D01*
X172543170Y-114702241D01*
X172625000Y-114290856D01*
X172625000Y-113229144D01*
X172543170Y-112817759D01*
X172425000Y-112640905D01*
X172425000Y-112427255D01*
X172470438Y-112418705D01*
X172581053Y-112347526D01*
X172655260Y-112238920D01*
X172681367Y-112110000D01*
X172681367Y-110910000D01*
X172658705Y-110789562D01*
X172587526Y-110678947D01*
X172478920Y-110604740D01*
X172350000Y-110578633D01*
X171350000Y-110578633D01*
X171229562Y-110601295D01*
X171118947Y-110672474D01*
X171044740Y-110781080D01*
X171018633Y-110910000D01*
X171018633Y-112110000D01*
X171041295Y-112230438D01*
X171073048Y-112279784D01*
X170789860Y-112469004D01*
X170556830Y-112817759D01*
X170475000Y-113229144D01*
X170475000Y-114290856D01*
X170556830Y-114702241D01*
X170789860Y-115050996D01*
X170975000Y-115174702D01*
X170975000Y-115220000D01*
X171009980Y-115395856D01*
X171018769Y-115440043D01*
X171143414Y-115626586D01*
X171853414Y-116336587D01*
X172023213Y-116450043D01*
X172039957Y-116461231D01*
X172260000Y-116505000D01*
X189620000Y-116505000D01*
X189840043Y-116461231D01*
X190026586Y-116336586D01*
X191135803Y-115227369D01*
X190675578Y-116335715D01*
X190674424Y-117658482D01*
X191179558Y-118881001D01*
X191897303Y-119600000D01*
X132101828Y-119600000D01*
X132817155Y-118885921D01*
X133324422Y-117664285D01*
X133325576Y-116341518D01*
X132820442Y-115118999D01*
X131885921Y-114182845D01*
X130664285Y-113675578D01*
X129341518Y-113674424D01*
X128118999Y-114179558D01*
X127400000Y-114897303D01*
X127400000Y-65101828D01*
X128114079Y-65817155D01*
X129335715Y-66324422D01*
X130658482Y-66325576D01*
X131881001Y-65820442D01*
X132817155Y-64885921D01*
X133324422Y-63664285D01*
X133324910Y-63105000D01*
X160182143Y-63105000D01*
X160182143Y-60400000D01*
X191898172Y-60400000D01*
X191182845Y-61114079D01*
X191182845Y-61114079D01*
G37*
X191182845Y-61114079D02*
X190675578Y-62335715D01*
X190674424Y-63658482D01*
X191179558Y-64881001D01*
X192114079Y-65817155D01*
X193335715Y-66324422D01*
X194658482Y-66325576D01*
X195881001Y-65820442D01*
X196600000Y-65102697D01*
X196600000Y-114898172D01*
X195885921Y-114182845D01*
X194664285Y-113675578D01*
X193341518Y-113674424D01*
X192229112Y-114134060D01*
X192966586Y-113396586D01*
X193806586Y-112556587D01*
X193931231Y-112370043D01*
X193938150Y-112335260D01*
X193975000Y-112150000D01*
X193975000Y-83670000D01*
X193931231Y-83449957D01*
X193806586Y-83263413D01*
X192966588Y-82423416D01*
X192966586Y-82423413D01*
X187866586Y-77323414D01*
X187680043Y-77198769D01*
X187460000Y-77155000D01*
X179118173Y-77155000D01*
X176276586Y-74313414D01*
X176241147Y-74277975D01*
X176281080Y-74305260D01*
X176410000Y-74331367D01*
X177410000Y-74331367D01*
X177530438Y-74308705D01*
X177641053Y-74237526D01*
X177715260Y-74128920D01*
X177741367Y-74000000D01*
X177741367Y-73975000D01*
X178510000Y-73975000D01*
X178730043Y-73931231D01*
X178916586Y-73806586D01*
X178991805Y-73731367D01*
X180130000Y-73731367D01*
X180250438Y-73708705D01*
X180361053Y-73637526D01*
X180435260Y-73528920D01*
X180441116Y-73500000D01*
X185894144Y-73500000D01*
X185975974Y-73911385D01*
X186209004Y-74260140D01*
X186557759Y-74493170D01*
X186969144Y-74575000D01*
X188030856Y-74575000D01*
X188442241Y-74493170D01*
X188790996Y-74260140D01*
X189024026Y-73911385D01*
X189105856Y-73500000D01*
X189024026Y-73088615D01*
X188790996Y-72739860D01*
X188598775Y-72611422D01*
X192174684Y-72611422D01*
X192451938Y-73282429D01*
X192964871Y-73796258D01*
X193635392Y-74074683D01*
X194361422Y-74075316D01*
X195032429Y-73798062D01*
X195546258Y-73285129D01*
X195824683Y-72614608D01*
X195825316Y-71888578D01*
X195548062Y-71217571D01*
X195035129Y-70703742D01*
X194364608Y-70425317D01*
X193638578Y-70424684D01*
X192967571Y-70701938D01*
X192453742Y-71214871D01*
X192175317Y-71885392D01*
X192174684Y-72611422D01*
X188598775Y-72611422D01*
X188442241Y-72506830D01*
X188030856Y-72425000D01*
X186969144Y-72425000D01*
X186557759Y-72506830D01*
X186209004Y-72739860D01*
X185975974Y-73088615D01*
X185894144Y-73500000D01*
X180441116Y-73500000D01*
X180461367Y-73400000D01*
X180461367Y-71400000D01*
X180438705Y-71279562D01*
X180367526Y-71168947D01*
X180258920Y-71094740D01*
X180130000Y-71068633D01*
X178130000Y-71068633D01*
X178009562Y-71091295D01*
X177898947Y-71162474D01*
X177824740Y-71271080D01*
X177798633Y-71400000D01*
X177798633Y-72825000D01*
X177741367Y-72825000D01*
X177741367Y-72800000D01*
X177718705Y-72679562D01*
X177647526Y-72568947D01*
X177538920Y-72494740D01*
X177410000Y-72468633D01*
X176410000Y-72468633D01*
X176289562Y-72491295D01*
X176178947Y-72562474D01*
X176129721Y-72634519D01*
X176087526Y-72568947D01*
X175978920Y-72494740D01*
X175850000Y-72468633D01*
X174891805Y-72468633D01*
X174725000Y-72301828D01*
X174725000Y-69990000D01*
X174681231Y-69769957D01*
X174615916Y-69672207D01*
X174556586Y-69583413D01*
X172916586Y-67943414D01*
X172730043Y-67818769D01*
X172510000Y-67775000D01*
X169598173Y-67775000D01*
X169906586Y-67466587D01*
X170031231Y-67280043D01*
X170045163Y-67210000D01*
X170075000Y-67060000D01*
X170075000Y-66014702D01*
X170260140Y-65890996D01*
X170493170Y-65542241D01*
X170575000Y-65130856D01*
X170575000Y-64069144D01*
X170493170Y-63657759D01*
X170260140Y-63309004D01*
X169911385Y-63075974D01*
X169500000Y-62994144D01*
X169088615Y-63075974D01*
X168739860Y-63309004D01*
X168506830Y-63657759D01*
X168425000Y-64069144D01*
X168425000Y-65130856D01*
X168506830Y-65542241D01*
X168739860Y-65890996D01*
X168925000Y-66014702D01*
X168925000Y-66821827D01*
X167803414Y-67943414D01*
X166553414Y-69193414D01*
X166428769Y-69379957D01*
X166385000Y-69600000D01*
X166385000Y-69958867D01*
X166119533Y-70136247D01*
X165861877Y-70521856D01*
X165771400Y-70976714D01*
X165771400Y-71023286D01*
X165781710Y-71075118D01*
X162576826Y-74280002D01*
X161253170Y-74280002D01*
X165756586Y-69776586D01*
X165881231Y-69590043D01*
X165925000Y-69370000D01*
X165925000Y-63978172D01*
X166886586Y-63016587D01*
X166886588Y-63016584D01*
X166998170Y-62905002D01*
X170363300Y-62905002D01*
X171764883Y-64306586D01*
X171951427Y-64431231D01*
X172171470Y-64475000D01*
X173388633Y-64475000D01*
X173388633Y-64500000D01*
X173411295Y-64620438D01*
X173482474Y-64731053D01*
X173591080Y-64805260D01*
X173720000Y-64831367D01*
X174720000Y-64831367D01*
X174840438Y-64808705D01*
X174951053Y-64737526D01*
X175000279Y-64665481D01*
X175042474Y-64731053D01*
X175151080Y-64805260D01*
X175280000Y-64831367D01*
X176280000Y-64831367D01*
X176400438Y-64808705D01*
X176489587Y-64751339D01*
X176995000Y-65256752D01*
X176995000Y-66890000D01*
X177031157Y-67071775D01*
X177134124Y-67225876D01*
X177454122Y-67545873D01*
X177454124Y-67545876D01*
X177608225Y-67648843D01*
X177790000Y-67685000D01*
X177818633Y-67685000D01*
X177818633Y-68210000D01*
X177841295Y-68330438D01*
X177912474Y-68441053D01*
X178021080Y-68515260D01*
X178150000Y-68541367D01*
X180150000Y-68541367D01*
X180270438Y-68518705D01*
X180381053Y-68447526D01*
X180455260Y-68338920D01*
X180481367Y-68210000D01*
X180481367Y-66210000D01*
X180458705Y-66089562D01*
X180387526Y-65978947D01*
X180278920Y-65904740D01*
X180150000Y-65878633D01*
X178150000Y-65878633D01*
X178029562Y-65901295D01*
X177945000Y-65955709D01*
X177945000Y-65060005D01*
X177945001Y-65060000D01*
X177908843Y-64878226D01*
X177908843Y-64878225D01*
X177805876Y-64724124D01*
X176645876Y-63564124D01*
X176611367Y-63541066D01*
X176611367Y-63300000D01*
X176588705Y-63179562D01*
X176566465Y-63145000D01*
X180623248Y-63145000D01*
X183205000Y-65726752D01*
X183205000Y-69310000D01*
X183241157Y-69491775D01*
X183344124Y-69645876D01*
X185034124Y-71335876D01*
X185188225Y-71438843D01*
X185370000Y-71475000D01*
X186018480Y-71475000D01*
X186209004Y-71760140D01*
X186557759Y-71993170D01*
X186969144Y-72075000D01*
X188030856Y-72075000D01*
X188442241Y-71993170D01*
X188790996Y-71760140D01*
X189024026Y-71411385D01*
X189105856Y-71000000D01*
X189024026Y-70588615D01*
X188790996Y-70239860D01*
X188442241Y-70006830D01*
X188030856Y-69925000D01*
X186969144Y-69925000D01*
X186557759Y-70006830D01*
X186209004Y-70239860D01*
X186018480Y-70525000D01*
X185566752Y-70525000D01*
X184155000Y-69113248D01*
X184155000Y-65530005D01*
X184155001Y-65530000D01*
X184118843Y-65348226D01*
X184118843Y-65348225D01*
X184015876Y-65194124D01*
X181376752Y-62555000D01*
X181403248Y-62555000D01*
X184345000Y-65496751D01*
X184345000Y-66670000D01*
X184381157Y-66851775D01*
X184484124Y-67005876D01*
X185908098Y-68429850D01*
X185894144Y-68500000D01*
X185975974Y-68911385D01*
X186209004Y-69260140D01*
X186557759Y-69493170D01*
X186969144Y-69575000D01*
X188030856Y-69575000D01*
X188442241Y-69493170D01*
X188790996Y-69260140D01*
X189024026Y-68911385D01*
X189105856Y-68500000D01*
X189024026Y-68088615D01*
X188790996Y-67739860D01*
X188442241Y-67506830D01*
X188030856Y-67425000D01*
X186969144Y-67425000D01*
X186557759Y-67506830D01*
X186420377Y-67598625D01*
X185295000Y-66473248D01*
X185295000Y-65300005D01*
X185295001Y-65300000D01*
X185258843Y-65118226D01*
X185258843Y-65118225D01*
X185155876Y-64964124D01*
X185155873Y-64964122D01*
X181935876Y-61744124D01*
X181781775Y-61641157D01*
X181600000Y-61605000D01*
X172496751Y-61605000D01*
X171715876Y-60824124D01*
X171561775Y-60721157D01*
X171380000Y-60685000D01*
X165880000Y-60685000D01*
X165698225Y-60721157D01*
X165544124Y-60824124D01*
X163114124Y-63254124D01*
X163011157Y-63408225D01*
X162975000Y-63590000D01*
X162975000Y-65913248D01*
X160743248Y-68145000D01*
X155500000Y-68145000D01*
X155318225Y-68181157D01*
X155164124Y-68284124D01*
X155164122Y-68284127D01*
X154164888Y-69283361D01*
X154074858Y-69223205D01*
X153620000Y-69132728D01*
X153165142Y-69223205D01*
X152779533Y-69480861D01*
X152521877Y-69866470D01*
X152431400Y-70321328D01*
X152431400Y-70678672D01*
X152521877Y-71133530D01*
X152779533Y-71519139D01*
X153165142Y-71776795D01*
X153620000Y-71867272D01*
X154074858Y-71776795D01*
X154460467Y-71519139D01*
X154718123Y-71133530D01*
X154808600Y-70678672D01*
X154808600Y-70321328D01*
X154971400Y-70321328D01*
X154971400Y-70678672D01*
X155061877Y-71133530D01*
X155319533Y-71519139D01*
X155705142Y-71776795D01*
X156160000Y-71867272D01*
X156614858Y-71776795D01*
X157000467Y-71519139D01*
X157258123Y-71133530D01*
X157348600Y-70678672D01*
X157348600Y-70321328D01*
X157511400Y-70321328D01*
X157511400Y-70678672D01*
X157601877Y-71133530D01*
X157859533Y-71519139D01*
X158245142Y-71776795D01*
X158700000Y-71867272D01*
X159154858Y-71776795D01*
X159540467Y-71519139D01*
X159798123Y-71133530D01*
X159888600Y-70678672D01*
X159888600Y-70321328D01*
X159798123Y-69866470D01*
X159540467Y-69480861D01*
X159154858Y-69223205D01*
X158700000Y-69132728D01*
X158245142Y-69223205D01*
X157859533Y-69480861D01*
X157601877Y-69866470D01*
X157511400Y-70321328D01*
X157348600Y-70321328D01*
X157258123Y-69866470D01*
X157000467Y-69480861D01*
X156614858Y-69223205D01*
X156160000Y-69132728D01*
X155705142Y-69223205D01*
X155319533Y-69480861D01*
X155061877Y-69866470D01*
X154971400Y-70321328D01*
X154808600Y-70321328D01*
X154752493Y-70039259D01*
X155696751Y-69095000D01*
X160940000Y-69095000D01*
X161121775Y-69058843D01*
X161275876Y-68955876D01*
X163785876Y-66445876D01*
X163888843Y-66291775D01*
X163925000Y-66110000D01*
X163925000Y-63786752D01*
X164025000Y-63686752D01*
X164025000Y-68263249D01*
X160063248Y-72225000D01*
X152526752Y-72225000D01*
X151860776Y-71559024D01*
X151920467Y-71519139D01*
X152178123Y-71133530D01*
X152268600Y-70678672D01*
X152268600Y-70321328D01*
X152178123Y-69866470D01*
X151920467Y-69480861D01*
X151534858Y-69223205D01*
X151080000Y-69132728D01*
X150625142Y-69223205D01*
X150239533Y-69480861D01*
X149981877Y-69866470D01*
X149891400Y-70321328D01*
X149891400Y-70678672D01*
X149981877Y-71133530D01*
X150239533Y-71519139D01*
X150625142Y-71776795D01*
X150762332Y-71804084D01*
X151994124Y-73035876D01*
X152148225Y-73138843D01*
X152330000Y-73175000D01*
X160260000Y-73175000D01*
X160441775Y-73138843D01*
X160595876Y-73035876D01*
X164775000Y-68856751D01*
X164775000Y-69131828D01*
X160326828Y-73580000D01*
X146433172Y-73580000D01*
X145781586Y-72928414D01*
X145595043Y-72803769D01*
X145375000Y-72760000D01*
X144073173Y-72760000D01*
X142694967Y-71381795D01*
X142694967Y-70321328D01*
X147351400Y-70321328D01*
X147351400Y-70678672D01*
X147441877Y-71133530D01*
X147699533Y-71519139D01*
X148085142Y-71776795D01*
X148540000Y-71867272D01*
X148994858Y-71776795D01*
X149380467Y-71519139D01*
X149638123Y-71133530D01*
X149728600Y-70678672D01*
X149728600Y-70321328D01*
X149638123Y-69866470D01*
X149380467Y-69480861D01*
X148994858Y-69223205D01*
X148540000Y-69132728D01*
X148085142Y-69223205D01*
X147699533Y-69480861D01*
X147441877Y-69866470D01*
X147351400Y-70321328D01*
X142694967Y-70321328D01*
X142694967Y-70136400D01*
X142672305Y-70015962D01*
X142601126Y-69905347D01*
X142492520Y-69831140D01*
X142363600Y-69805033D01*
X140636400Y-69805033D01*
X140515962Y-69827695D01*
X140405347Y-69898874D01*
X140331140Y-70007480D01*
X140305033Y-70136400D01*
X140305033Y-71863600D01*
X140327695Y-71984038D01*
X140398874Y-72094653D01*
X140507480Y-72168860D01*
X140636400Y-72194967D01*
X141881795Y-72194967D01*
X143428414Y-73741587D01*
X143428417Y-73741589D01*
X144090000Y-74403173D01*
X144090000Y-107246827D01*
X143873414Y-107463414D01*
X143853279Y-107493548D01*
X141721828Y-109625000D01*
X138640000Y-109625000D01*
X138419957Y-109668769D01*
X138308529Y-109743223D01*
X138536752Y-109515000D01*
X141450000Y-109515000D01*
X141631775Y-109478843D01*
X141785876Y-109375876D01*
X143865876Y-107295876D01*
X143968843Y-107141775D01*
X144005000Y-106960000D01*
X144005000Y-102760000D01*
X143968843Y-102578225D01*
X143865876Y-102424124D01*
X143865873Y-102424122D01*
X142636490Y-101194738D01*
X142598123Y-101001856D01*
X142340467Y-100616247D01*
X142320860Y-100603146D01*
X142358198Y-100578198D01*
X143838198Y-99098198D01*
X143903812Y-99000000D01*
X143935746Y-98952208D01*
X143970000Y-98780000D01*
X143970000Y-75660000D01*
X143935746Y-75487792D01*
X143838198Y-75341802D01*
X142978198Y-74481802D01*
X142966707Y-74474124D01*
X142832208Y-74384254D01*
X142660000Y-74350000D01*
X142376384Y-74350000D01*
X142598123Y-74018144D01*
X142688600Y-73563286D01*
X142688600Y-73516714D01*
X142598123Y-73061856D01*
X142340467Y-72676247D01*
X141954858Y-72418591D01*
X141500000Y-72328114D01*
X141045142Y-72418591D01*
X140659533Y-72676247D01*
X140401877Y-73061856D01*
X140311400Y-73516714D01*
X140311400Y-73563286D01*
X140401877Y-74018144D01*
X140623616Y-74350000D01*
X139836384Y-74350000D01*
X140058123Y-74018144D01*
X140148600Y-73563286D01*
X140148600Y-73516714D01*
X140058123Y-73061856D01*
X139800467Y-72676247D01*
X139414858Y-72418591D01*
X138960000Y-72328114D01*
X138505142Y-72418591D01*
X138119533Y-72676247D01*
X138044675Y-72788279D01*
X137310000Y-72053604D01*
X137310000Y-69500000D01*
X137275746Y-69327792D01*
X137178198Y-69181802D01*
X135678198Y-67681802D01*
X135532208Y-67584254D01*
X135360000Y-67550000D01*
X134347367Y-67550000D01*
X134347367Y-67136400D01*
X134324705Y-67015962D01*
X134253526Y-66905347D01*
X134144920Y-66831140D01*
X134016000Y-66805033D01*
X131984000Y-66805033D01*
X131863562Y-66827695D01*
X131752947Y-66898874D01*
X131678740Y-67007480D01*
X131652633Y-67136400D01*
X131652633Y-68863600D01*
X131675295Y-68984038D01*
X131746474Y-69094653D01*
X131855080Y-69168860D01*
X131984000Y-69194967D01*
X134016000Y-69194967D01*
X134136438Y-69172305D01*
X134247053Y-69101126D01*
X134321260Y-68992520D01*
X134347367Y-68863600D01*
X134347367Y-68450000D01*
X135173604Y-68450000D01*
X136410000Y-69686396D01*
X136410000Y-72240000D01*
X136444254Y-72412208D01*
X136529642Y-72540000D01*
X136541802Y-72558198D01*
X137827147Y-73843543D01*
X137861877Y-74018144D01*
X138083616Y-74350000D01*
X138076396Y-74350000D01*
X134350536Y-70624140D01*
X134367272Y-70540000D01*
X134276795Y-70085142D01*
X134019139Y-69699533D01*
X133633530Y-69441877D01*
X133178672Y-69351400D01*
X132821328Y-69351400D01*
X132366470Y-69441877D01*
X131980861Y-69699533D01*
X131723205Y-70085142D01*
X131632728Y-70540000D01*
X131723205Y-70994858D01*
X131980861Y-71380467D01*
X132366470Y-71638123D01*
X132821328Y-71728600D01*
X133178672Y-71728600D01*
X133633530Y-71638123D01*
X133908199Y-71454595D01*
X137571802Y-75118198D01*
X137717792Y-75215746D01*
X137890000Y-75250000D01*
X138096980Y-75250000D01*
X137861877Y-75601856D01*
X137771400Y-76056714D01*
X137771400Y-76103286D01*
X137861877Y-76558144D01*
X138119533Y-76943753D01*
X138505142Y-77201409D01*
X138960000Y-77291886D01*
X139414858Y-77201409D01*
X139800467Y-76943753D01*
X140058123Y-76558144D01*
X140148600Y-76103286D01*
X140148600Y-76056714D01*
X140058123Y-75601856D01*
X139823020Y-75250000D01*
X140636980Y-75250000D01*
X140401877Y-75601856D01*
X140311400Y-76056714D01*
X140311400Y-76103286D01*
X140401877Y-76558144D01*
X140659533Y-76943753D01*
X141045142Y-77201409D01*
X141500000Y-77291886D01*
X141954858Y-77201409D01*
X142340467Y-76943753D01*
X142598123Y-76558144D01*
X142688600Y-76103286D01*
X142688600Y-76056714D01*
X142598123Y-75601856D01*
X142363020Y-75250000D01*
X142473604Y-75250000D01*
X143070000Y-75846396D01*
X143070000Y-98593604D01*
X142685690Y-98977914D01*
X142688600Y-98963286D01*
X142688600Y-98916714D01*
X142598123Y-98461856D01*
X142340467Y-98076247D01*
X141954858Y-97818591D01*
X141500000Y-97728114D01*
X141045142Y-97818591D01*
X140659533Y-98076247D01*
X140401877Y-98461856D01*
X140311400Y-98916714D01*
X140311400Y-98963286D01*
X140393287Y-99374961D01*
X140043248Y-99725000D01*
X139853088Y-99725000D01*
X140058123Y-99418144D01*
X140148600Y-98963286D01*
X140148600Y-98916714D01*
X140058123Y-98461856D01*
X139812997Y-98095000D01*
X140260000Y-98095000D01*
X140441775Y-98058843D01*
X140595876Y-97955876D01*
X141036270Y-97515481D01*
X141045142Y-97521409D01*
X141500000Y-97611886D01*
X141954858Y-97521409D01*
X142340467Y-97263753D01*
X142598123Y-96878144D01*
X142688600Y-96423286D01*
X142688600Y-96376714D01*
X142598123Y-95921856D01*
X142340467Y-95536247D01*
X141954858Y-95278591D01*
X141500000Y-95188114D01*
X141045142Y-95278591D01*
X140659533Y-95536247D01*
X140401877Y-95921856D01*
X140311400Y-96376714D01*
X140311400Y-96423286D01*
X140389969Y-96818279D01*
X140063248Y-97145000D01*
X139879815Y-97145000D01*
X140058123Y-96878144D01*
X140148600Y-96423286D01*
X140148600Y-96376714D01*
X140058123Y-95921856D01*
X139846406Y-95605000D01*
X140230000Y-95605000D01*
X140411775Y-95568843D01*
X140565876Y-95465876D01*
X141049480Y-94982272D01*
X141500000Y-95071886D01*
X141954858Y-94981409D01*
X142340467Y-94723753D01*
X142598123Y-94338144D01*
X142688600Y-93883286D01*
X142688600Y-93836714D01*
X142598123Y-93381856D01*
X142340467Y-92996247D01*
X141954858Y-92738591D01*
X141500000Y-92648114D01*
X141045142Y-92738591D01*
X140659533Y-92996247D01*
X140401877Y-93381856D01*
X140311400Y-93836714D01*
X140311400Y-93883286D01*
X140393287Y-94294961D01*
X140033248Y-94655000D01*
X139846406Y-94655000D01*
X140058123Y-94338144D01*
X140148600Y-93883286D01*
X140148600Y-93836714D01*
X140058123Y-93381856D01*
X139800467Y-92996247D01*
X139414858Y-92738591D01*
X138960000Y-92648114D01*
X138505142Y-92738591D01*
X138119533Y-92996247D01*
X137861877Y-93381856D01*
X137861252Y-93385000D01*
X137750000Y-93385000D01*
X137568225Y-93421157D01*
X137414124Y-93524124D01*
X135413248Y-95525000D01*
X134231520Y-95525000D01*
X134040996Y-95239860D01*
X133692241Y-95006830D01*
X133280856Y-94925000D01*
X132219144Y-94925000D01*
X131807759Y-95006830D01*
X131459004Y-95239860D01*
X131225974Y-95588615D01*
X131144144Y-96000000D01*
X131225974Y-96411385D01*
X131459004Y-96760140D01*
X131807759Y-96993170D01*
X132219144Y-97075000D01*
X133280856Y-97075000D01*
X133692241Y-96993170D01*
X134040996Y-96760140D01*
X134231520Y-96475000D01*
X135610000Y-96475000D01*
X135763851Y-96444397D01*
X134212185Y-97996063D01*
X134040996Y-97739860D01*
X133692241Y-97506830D01*
X133280856Y-97425000D01*
X132219144Y-97425000D01*
X131807759Y-97506830D01*
X131459004Y-97739860D01*
X131225974Y-98088615D01*
X131144144Y-98500000D01*
X131225974Y-98911385D01*
X131459004Y-99260140D01*
X131807759Y-99493170D01*
X132219144Y-99575000D01*
X133280856Y-99575000D01*
X133692241Y-99493170D01*
X134040996Y-99260140D01*
X134231520Y-98975000D01*
X134380000Y-98975000D01*
X134561775Y-98938843D01*
X134715876Y-98835876D01*
X137946752Y-95605000D01*
X138073594Y-95605000D01*
X137861877Y-95921856D01*
X137771400Y-96376714D01*
X137771400Y-96423286D01*
X137861877Y-96878144D01*
X138040185Y-97145000D01*
X137470005Y-97145000D01*
X137470000Y-97144999D01*
X137318384Y-97175158D01*
X137288225Y-97181157D01*
X137134124Y-97284124D01*
X130814124Y-103604124D01*
X130711157Y-103758225D01*
X130675000Y-103940000D01*
X130675000Y-104900000D01*
X130711157Y-105081775D01*
X130814124Y-105235876D01*
X131652569Y-106074321D01*
X131475974Y-106338615D01*
X131394144Y-106750000D01*
X131475974Y-107161385D01*
X131698888Y-107495000D01*
X131696751Y-107495000D01*
X130315000Y-106113248D01*
X130315000Y-91000000D01*
X131144144Y-91000000D01*
X131225974Y-91411385D01*
X131459004Y-91760140D01*
X131807759Y-91993170D01*
X132219144Y-92075000D01*
X133280856Y-92075000D01*
X133692241Y-91993170D01*
X134040996Y-91760140D01*
X134231520Y-91475000D01*
X135280000Y-91475000D01*
X135461775Y-91438843D01*
X135615876Y-91335876D01*
X137696752Y-89255000D01*
X137861252Y-89255000D01*
X137861877Y-89258144D01*
X138110245Y-89629853D01*
X137984124Y-89714124D01*
X134673248Y-93025000D01*
X134231520Y-93025000D01*
X134040996Y-92739860D01*
X133692241Y-92506830D01*
X133280856Y-92425000D01*
X132219144Y-92425000D01*
X131807759Y-92506830D01*
X131459004Y-92739860D01*
X131225974Y-93088615D01*
X131144144Y-93500000D01*
X131225974Y-93911385D01*
X131459004Y-94260140D01*
X131807759Y-94493170D01*
X132219144Y-94575000D01*
X133280856Y-94575000D01*
X133692241Y-94493170D01*
X134040996Y-94260140D01*
X134231520Y-93975000D01*
X134870000Y-93975000D01*
X135051775Y-93938843D01*
X135205876Y-93835876D01*
X137777946Y-91263806D01*
X137771400Y-91296714D01*
X137771400Y-91343286D01*
X137861877Y-91798144D01*
X138119533Y-92183753D01*
X138505142Y-92441409D01*
X138960000Y-92531886D01*
X139414858Y-92441409D01*
X139800467Y-92183753D01*
X140058123Y-91798144D01*
X140148600Y-91343286D01*
X140148600Y-91296714D01*
X140311400Y-91296714D01*
X140311400Y-91343286D01*
X140401877Y-91798144D01*
X140659533Y-92183753D01*
X141045142Y-92441409D01*
X141500000Y-92531886D01*
X141954858Y-92441409D01*
X142340467Y-92183753D01*
X142598123Y-91798144D01*
X142688600Y-91343286D01*
X142688600Y-91296714D01*
X142598123Y-90841856D01*
X142340467Y-90456247D01*
X141954858Y-90198591D01*
X141500000Y-90108114D01*
X141045142Y-90198591D01*
X140659533Y-90456247D01*
X140401877Y-90841856D01*
X140311400Y-91296714D01*
X140148600Y-91296714D01*
X140058123Y-90841856D01*
X139846406Y-90525000D01*
X140230000Y-90525000D01*
X140411775Y-90488843D01*
X140565876Y-90385876D01*
X141049480Y-89902272D01*
X141500000Y-89991886D01*
X141954858Y-89901409D01*
X142340467Y-89643753D01*
X142598123Y-89258144D01*
X142688600Y-88803286D01*
X142688600Y-88756714D01*
X142598123Y-88301856D01*
X142340467Y-87916247D01*
X141954858Y-87658591D01*
X141500000Y-87568114D01*
X141045142Y-87658591D01*
X140659533Y-87916247D01*
X140401877Y-88301856D01*
X140311400Y-88756714D01*
X140311400Y-88803286D01*
X140393287Y-89214961D01*
X140033248Y-89575000D01*
X139846406Y-89575000D01*
X140058123Y-89258144D01*
X140148600Y-88803286D01*
X140148600Y-88756714D01*
X140058123Y-88301856D01*
X139800467Y-87916247D01*
X139414858Y-87658591D01*
X138960000Y-87568114D01*
X138505142Y-87658591D01*
X138119533Y-87916247D01*
X137861877Y-88301856D01*
X137861252Y-88305000D01*
X137500000Y-88305000D01*
X137318225Y-88341157D01*
X137164124Y-88444124D01*
X135083248Y-90525000D01*
X134231520Y-90525000D01*
X134040996Y-90239860D01*
X133692241Y-90006830D01*
X133280856Y-89925000D01*
X132219144Y-89925000D01*
X131807759Y-90006830D01*
X131459004Y-90239860D01*
X131225974Y-90588615D01*
X131144144Y-91000000D01*
X130315000Y-91000000D01*
X130315000Y-77750000D01*
X131144144Y-77750000D01*
X131225974Y-78161385D01*
X131459004Y-78510140D01*
X131807759Y-78743170D01*
X132219144Y-78825000D01*
X133280856Y-78825000D01*
X133692241Y-78743170D01*
X133949514Y-78571266D01*
X136874124Y-81495876D01*
X137028225Y-81598843D01*
X137210000Y-81635000D01*
X137861252Y-81635000D01*
X137861877Y-81638144D01*
X138066912Y-81945000D01*
X135116751Y-81945000D01*
X134097431Y-80925679D01*
X134274026Y-80661385D01*
X134355856Y-80250000D01*
X134274026Y-79838615D01*
X134040996Y-79489860D01*
X133692241Y-79256830D01*
X133280856Y-79175000D01*
X132219144Y-79175000D01*
X131807759Y-79256830D01*
X131459004Y-79489860D01*
X131225974Y-79838615D01*
X131144144Y-80250000D01*
X131225974Y-80661385D01*
X131459004Y-81010140D01*
X131807759Y-81243170D01*
X132219144Y-81325000D01*
X133153248Y-81325000D01*
X133558470Y-81730221D01*
X133280856Y-81675000D01*
X132219144Y-81675000D01*
X131807759Y-81756830D01*
X131459004Y-81989860D01*
X131225974Y-82338615D01*
X131144144Y-82750000D01*
X131225974Y-83161385D01*
X131459004Y-83510140D01*
X131807759Y-83743170D01*
X132219144Y-83825000D01*
X133153248Y-83825000D01*
X133364124Y-84035876D01*
X133518225Y-84138843D01*
X133700000Y-84175000D01*
X137861252Y-84175000D01*
X137861877Y-84178144D01*
X138080275Y-84505000D01*
X137820005Y-84505000D01*
X137820000Y-84504999D01*
X137669179Y-84535000D01*
X137638225Y-84541157D01*
X137484124Y-84644124D01*
X137484122Y-84644127D01*
X137353249Y-84775000D01*
X134231520Y-84775000D01*
X134040996Y-84489860D01*
X133692241Y-84256830D01*
X133280856Y-84175000D01*
X132219144Y-84175000D01*
X131807759Y-84256830D01*
X131459004Y-84489860D01*
X131225974Y-84838615D01*
X131144144Y-85250000D01*
X131225974Y-85661385D01*
X131459004Y-86010140D01*
X131807759Y-86243170D01*
X132219144Y-86325000D01*
X133280856Y-86325000D01*
X133692241Y-86243170D01*
X134040996Y-86010140D01*
X134231520Y-85725000D01*
X137550000Y-85725000D01*
X137731775Y-85688843D01*
X137885876Y-85585876D01*
X138016752Y-85455000D01*
X138066912Y-85455000D01*
X137861877Y-85761856D01*
X137771400Y-86216714D01*
X137771400Y-86263286D01*
X137861877Y-86718144D01*
X138119533Y-87103753D01*
X138505142Y-87361409D01*
X138960000Y-87451886D01*
X139414858Y-87361409D01*
X139800467Y-87103753D01*
X140058123Y-86718144D01*
X140148600Y-86263286D01*
X140148600Y-86216714D01*
X140311400Y-86216714D01*
X140311400Y-86263286D01*
X140401877Y-86718144D01*
X140659533Y-87103753D01*
X141045142Y-87361409D01*
X141500000Y-87451886D01*
X141954858Y-87361409D01*
X142340467Y-87103753D01*
X142598123Y-86718144D01*
X142688600Y-86263286D01*
X142688600Y-86216714D01*
X142598123Y-85761856D01*
X142340467Y-85376247D01*
X141954858Y-85118591D01*
X141500000Y-85028114D01*
X141045142Y-85118591D01*
X140659533Y-85376247D01*
X140401877Y-85761856D01*
X140311400Y-86216714D01*
X140148600Y-86216714D01*
X140058123Y-85761856D01*
X139853088Y-85455000D01*
X140220000Y-85455000D01*
X140401775Y-85418843D01*
X140555876Y-85315876D01*
X141049480Y-84822272D01*
X141500000Y-84911886D01*
X141954858Y-84821409D01*
X142340467Y-84563753D01*
X142598123Y-84178144D01*
X142688600Y-83723286D01*
X142688600Y-83676714D01*
X142598123Y-83221856D01*
X142340467Y-82836247D01*
X141954858Y-82578591D01*
X141500000Y-82488114D01*
X141045142Y-82578591D01*
X140659533Y-82836247D01*
X140401877Y-83221856D01*
X140311400Y-83676714D01*
X140311400Y-83723286D01*
X140393287Y-84134961D01*
X140023248Y-84505000D01*
X139839725Y-84505000D01*
X140058123Y-84178144D01*
X140148600Y-83723286D01*
X140148600Y-83676714D01*
X140058123Y-83221856D01*
X139839725Y-82895000D01*
X140090000Y-82895000D01*
X140271775Y-82858843D01*
X140425876Y-82755876D01*
X140958341Y-82223411D01*
X141045142Y-82281409D01*
X141500000Y-82371886D01*
X141954858Y-82281409D01*
X142340467Y-82023753D01*
X142598123Y-81638144D01*
X142688600Y-81183286D01*
X142688600Y-81136714D01*
X142598123Y-80681856D01*
X142340467Y-80296247D01*
X141954858Y-80038591D01*
X141500000Y-79948114D01*
X141045142Y-80038591D01*
X140659533Y-80296247D01*
X140401877Y-80681856D01*
X140311400Y-81136714D01*
X140311400Y-81183286D01*
X140368401Y-81469847D01*
X139893248Y-81945000D01*
X139853088Y-81945000D01*
X140058123Y-81638144D01*
X140148600Y-81183286D01*
X140148600Y-81136714D01*
X140058123Y-80681856D01*
X139800467Y-80296247D01*
X139414858Y-80038591D01*
X138960000Y-79948114D01*
X138505142Y-80038591D01*
X138119533Y-80296247D01*
X137861877Y-80681856D01*
X137861252Y-80685000D01*
X137406752Y-80685000D01*
X135318466Y-78596714D01*
X137771400Y-78596714D01*
X137771400Y-78643286D01*
X137861877Y-79098144D01*
X138119533Y-79483753D01*
X138505142Y-79741409D01*
X138960000Y-79831886D01*
X139414858Y-79741409D01*
X139800467Y-79483753D01*
X140058123Y-79098144D01*
X140148600Y-78643286D01*
X140148600Y-78596714D01*
X140311400Y-78596714D01*
X140311400Y-78643286D01*
X140401877Y-79098144D01*
X140659533Y-79483753D01*
X141045142Y-79741409D01*
X141500000Y-79831886D01*
X141954858Y-79741409D01*
X142340467Y-79483753D01*
X142598123Y-79098144D01*
X142688600Y-78643286D01*
X142688600Y-78596714D01*
X142598123Y-78141856D01*
X142340467Y-77756247D01*
X141954858Y-77498591D01*
X141500000Y-77408114D01*
X141045142Y-77498591D01*
X140659533Y-77756247D01*
X140401877Y-78141856D01*
X140311400Y-78596714D01*
X140148600Y-78596714D01*
X140058123Y-78141856D01*
X139800467Y-77756247D01*
X139414858Y-77498591D01*
X138960000Y-77408114D01*
X138505142Y-77498591D01*
X138119533Y-77756247D01*
X137861877Y-78141856D01*
X137771400Y-78596714D01*
X135318466Y-78596714D01*
X134327078Y-77605326D01*
X134274026Y-77338615D01*
X134040996Y-76989860D01*
X133692241Y-76756830D01*
X133280856Y-76675000D01*
X132219144Y-76675000D01*
X131807759Y-76756830D01*
X131459004Y-76989860D01*
X131225974Y-77338615D01*
X131144144Y-77750000D01*
X130315000Y-77750000D01*
X130315000Y-76436752D01*
X132539259Y-74212493D01*
X132821328Y-74268600D01*
X133178672Y-74268600D01*
X133633530Y-74178123D01*
X134019139Y-73920467D01*
X134276795Y-73534858D01*
X134367272Y-73080000D01*
X134276795Y-72625142D01*
X134019139Y-72239533D01*
X133633530Y-71981877D01*
X133178672Y-71891400D01*
X132821328Y-71891400D01*
X132366470Y-71981877D01*
X131980861Y-72239533D01*
X131723205Y-72625142D01*
X131632728Y-73080000D01*
X131723205Y-73534858D01*
X131783361Y-73624887D01*
X129504124Y-75904124D01*
X129401157Y-76058225D01*
X129365000Y-76240000D01*
X129365000Y-106310000D01*
X129401157Y-106491775D01*
X129504124Y-106645876D01*
X131164122Y-108305873D01*
X131164124Y-108305876D01*
X131230225Y-108350043D01*
X131318226Y-108408844D01*
X131500000Y-108445001D01*
X131500005Y-108445000D01*
X131776142Y-108445000D01*
X131709004Y-108489860D01*
X131475974Y-108838615D01*
X131394144Y-109250000D01*
X131475974Y-109661385D01*
X131709004Y-110010140D01*
X132057759Y-110243170D01*
X132469144Y-110325000D01*
X133530856Y-110325000D01*
X133942241Y-110243170D01*
X134290996Y-110010140D01*
X134481520Y-109725000D01*
X135390000Y-109725000D01*
X135571775Y-109688843D01*
X135725876Y-109585876D01*
X136826752Y-108485000D01*
X139570000Y-108485000D01*
X139751775Y-108448843D01*
X139905876Y-108345876D01*
X140595873Y-107655878D01*
X140595876Y-107655876D01*
X140698843Y-107501775D01*
X140707930Y-107456091D01*
X141045142Y-107681409D01*
X141500000Y-107771886D01*
X141954858Y-107681409D01*
X142340467Y-107423753D01*
X142598123Y-107038144D01*
X142688600Y-106583286D01*
X142688600Y-106536714D01*
X142598123Y-106081856D01*
X142340467Y-105696247D01*
X141954858Y-105438591D01*
X141500000Y-105348114D01*
X141045142Y-105438591D01*
X140735000Y-105645822D01*
X140735000Y-105456752D01*
X141049480Y-105142272D01*
X141500000Y-105231886D01*
X141954858Y-105141409D01*
X142340467Y-104883753D01*
X142598123Y-104498144D01*
X142688600Y-104043286D01*
X142688600Y-103996714D01*
X142598123Y-103541856D01*
X142340467Y-103156247D01*
X141954858Y-102898591D01*
X141500000Y-102808114D01*
X141045142Y-102898591D01*
X140659533Y-103156247D01*
X140401877Y-103541856D01*
X140311400Y-103996714D01*
X140311400Y-104043286D01*
X140393287Y-104454961D01*
X139924124Y-104924124D01*
X139821157Y-105078225D01*
X139785000Y-105260000D01*
X139785000Y-105685912D01*
X139414858Y-105438591D01*
X138960000Y-105348114D01*
X138505142Y-105438591D01*
X138119533Y-105696247D01*
X137861877Y-106081856D01*
X137861252Y-106085000D01*
X136650000Y-106085000D01*
X136468225Y-106121157D01*
X136314124Y-106224124D01*
X135043248Y-107495000D01*
X134301112Y-107495000D01*
X134524026Y-107161385D01*
X134605856Y-106750000D01*
X134524026Y-106338615D01*
X134290996Y-105989860D01*
X133942241Y-105756830D01*
X133530856Y-105675000D01*
X132596752Y-105675000D01*
X132191531Y-105269779D01*
X132469144Y-105325000D01*
X133530856Y-105325000D01*
X133942241Y-105243170D01*
X134290996Y-105010140D01*
X134481520Y-104725000D01*
X135090000Y-104725000D01*
X135271775Y-104688843D01*
X135425876Y-104585876D01*
X137275876Y-102735876D01*
X137378843Y-102581775D01*
X137415000Y-102400000D01*
X137415000Y-101506752D01*
X137847471Y-101074281D01*
X137771400Y-101456714D01*
X137771400Y-101503286D01*
X137861877Y-101958144D01*
X138119533Y-102343753D01*
X138505142Y-102601409D01*
X138960000Y-102691886D01*
X139414858Y-102601409D01*
X139768474Y-102365130D01*
X139264851Y-102868753D01*
X138960000Y-102808114D01*
X138505142Y-102898591D01*
X138119533Y-103156247D01*
X137861877Y-103541856D01*
X137771400Y-103996714D01*
X137771400Y-104043286D01*
X137861877Y-104498144D01*
X138119533Y-104883753D01*
X138505142Y-105141409D01*
X138960000Y-105231886D01*
X139414858Y-105141409D01*
X139800467Y-104883753D01*
X140058123Y-104498144D01*
X140148600Y-104043286D01*
X140148600Y-103996714D01*
X140058123Y-103541856D01*
X139980584Y-103425812D01*
X140568198Y-102838198D01*
X140665746Y-102692208D01*
X140700000Y-102520000D01*
X140700000Y-102370792D01*
X141045142Y-102601409D01*
X141500000Y-102691886D01*
X141954858Y-102601409D01*
X142340467Y-102343753D01*
X142381136Y-102282888D01*
X143055000Y-102956751D01*
X143055000Y-106763248D01*
X141253248Y-108565000D01*
X138340005Y-108565000D01*
X138340000Y-108564999D01*
X138188384Y-108595158D01*
X138158225Y-108601157D01*
X138068318Y-108661231D01*
X138004124Y-108704124D01*
X135433248Y-111275000D01*
X134481520Y-111275000D01*
X134290996Y-110989860D01*
X133942241Y-110756830D01*
X133530856Y-110675000D01*
X132469144Y-110675000D01*
X132057759Y-110756830D01*
X131709004Y-110989860D01*
X131475974Y-111338615D01*
X131394144Y-111750000D01*
X131475974Y-112161385D01*
X131709004Y-112510140D01*
X132057759Y-112743170D01*
X132469144Y-112825000D01*
X133530856Y-112825000D01*
X133942241Y-112743170D01*
X134290996Y-112510140D01*
X134481520Y-112225000D01*
X135630000Y-112225000D01*
X135811775Y-112188843D01*
X135965876Y-112085876D01*
X136393224Y-111658528D01*
X136318769Y-111769957D01*
X136275000Y-111990000D01*
X136275000Y-115720000D01*
X136299864Y-115845000D01*
X136318769Y-115940043D01*
X136443414Y-116126586D01*
X138433414Y-118116586D01*
X138619957Y-118241231D01*
X138840000Y-118285000D01*
X165278633Y-118285000D01*
X165278633Y-118310000D01*
X165301295Y-118430438D01*
X165372474Y-118541053D01*
X165481080Y-118615260D01*
X165610000Y-118641367D01*
X166610000Y-118641367D01*
X166730438Y-118618705D01*
X166841053Y-118547526D01*
X166890279Y-118475481D01*
X166932474Y-118541053D01*
X167041080Y-118615260D01*
X167170000Y-118641367D01*
X168170000Y-118641367D01*
X168290438Y-118618705D01*
X168401053Y-118547526D01*
X168475260Y-118438920D01*
X168501367Y-118310000D01*
X168501367Y-117691805D01*
X169456587Y-116736586D01*
X169581231Y-116550043D01*
X169625000Y-116330000D01*
X169625000Y-115174702D01*
X169810140Y-115050996D01*
X170043170Y-114702241D01*
X170125000Y-114290856D01*
X170125000Y-113356751D01*
X170165873Y-113315878D01*
X170165876Y-113315876D01*
X170268843Y-113161775D01*
X170283799Y-113086586D01*
X170305001Y-112980000D01*
X170305000Y-112979995D01*
X170305000Y-112231367D01*
X170430000Y-112231367D01*
X170550438Y-112208705D01*
X170661053Y-112137526D01*
X170735260Y-112028920D01*
X170761367Y-111900000D01*
X170761367Y-110900000D01*
X170738705Y-110779562D01*
X170667526Y-110668947D01*
X170595481Y-110619721D01*
X170661053Y-110577526D01*
X170735260Y-110468920D01*
X170761367Y-110340000D01*
X170761367Y-109340000D01*
X170738705Y-109219562D01*
X170667526Y-109108947D01*
X170629076Y-109082676D01*
X171735876Y-107975876D01*
X171838843Y-107821775D01*
X171875000Y-107640000D01*
X171875000Y-102330005D01*
X171875001Y-102330000D01*
X171838844Y-102148226D01*
X171786575Y-102070000D01*
X171735876Y-101994124D01*
X171735873Y-101994122D01*
X170885876Y-101144124D01*
X170731775Y-101041157D01*
X170600757Y-101015096D01*
X170598123Y-101001856D01*
X170340467Y-100616247D01*
X169954858Y-100358591D01*
X169500000Y-100268114D01*
X169045142Y-100358591D01*
X168659533Y-100616247D01*
X168401877Y-101001856D01*
X168311400Y-101456714D01*
X168311400Y-101503286D01*
X168401877Y-101958144D01*
X168659533Y-102343753D01*
X169045142Y-102601409D01*
X169500000Y-102691886D01*
X169954858Y-102601409D01*
X170340467Y-102343753D01*
X170501299Y-102103051D01*
X170925000Y-102526751D01*
X170925000Y-107443248D01*
X169494124Y-108874124D01*
X169404248Y-109008633D01*
X169230000Y-109008633D01*
X169109562Y-109031295D01*
X168998947Y-109102474D01*
X168924740Y-109211080D01*
X168898633Y-109340000D01*
X168898633Y-110340000D01*
X168921295Y-110460438D01*
X168992474Y-110571053D01*
X169064519Y-110620279D01*
X168998947Y-110662474D01*
X168924740Y-110771080D01*
X168898633Y-110900000D01*
X168898633Y-111900000D01*
X168921295Y-112020438D01*
X168992474Y-112131053D01*
X169031620Y-112157800D01*
X168638615Y-112235974D01*
X168289860Y-112469004D01*
X168056830Y-112817759D01*
X167975000Y-113229144D01*
X167975000Y-114290856D01*
X168056830Y-114702241D01*
X168289860Y-115050996D01*
X168475000Y-115174702D01*
X168475000Y-116091827D01*
X167788195Y-116778633D01*
X167170000Y-116778633D01*
X167049562Y-116801295D01*
X166938947Y-116872474D01*
X166889721Y-116944519D01*
X166847526Y-116878947D01*
X166738920Y-116804740D01*
X166610000Y-116778633D01*
X166453792Y-116778633D01*
X166471053Y-116767526D01*
X166545260Y-116658920D01*
X166571367Y-116530000D01*
X166571367Y-115911805D01*
X166956586Y-115526586D01*
X167081231Y-115340043D01*
X167095163Y-115270000D01*
X167112451Y-115183087D01*
X167310140Y-115050996D01*
X167543170Y-114702241D01*
X167625000Y-114290856D01*
X167625000Y-113229144D01*
X167543170Y-112817759D01*
X167310140Y-112469004D01*
X167025000Y-112278480D01*
X167025000Y-112061367D01*
X167150000Y-112061367D01*
X167270438Y-112038705D01*
X167381053Y-111967526D01*
X167455260Y-111858920D01*
X167481367Y-111730000D01*
X167481367Y-110730000D01*
X167458705Y-110609562D01*
X167387526Y-110498947D01*
X167315481Y-110449721D01*
X167381053Y-110407526D01*
X167455260Y-110298920D01*
X167481367Y-110170000D01*
X167481367Y-109170000D01*
X167458705Y-109049562D01*
X167387526Y-108938947D01*
X167278920Y-108864740D01*
X167150000Y-108838633D01*
X167000860Y-108838633D01*
X166988844Y-108778226D01*
X166954677Y-108727092D01*
X166885876Y-108624124D01*
X166885873Y-108624122D01*
X164995000Y-106733248D01*
X164995000Y-106536714D01*
X165771400Y-106536714D01*
X165771400Y-106583286D01*
X165861877Y-107038144D01*
X166119533Y-107423753D01*
X166505142Y-107681409D01*
X166960000Y-107771886D01*
X167414858Y-107681409D01*
X167800467Y-107423753D01*
X168058123Y-107038144D01*
X168148600Y-106583286D01*
X168148600Y-106536714D01*
X168311400Y-106536714D01*
X168311400Y-106583286D01*
X168401877Y-107038144D01*
X168659533Y-107423753D01*
X169045142Y-107681409D01*
X169500000Y-107771886D01*
X169954858Y-107681409D01*
X170340467Y-107423753D01*
X170598123Y-107038144D01*
X170688600Y-106583286D01*
X170688600Y-106536714D01*
X170598123Y-106081856D01*
X170340467Y-105696247D01*
X169954858Y-105438591D01*
X169500000Y-105348114D01*
X169045142Y-105438591D01*
X168659533Y-105696247D01*
X168401877Y-106081856D01*
X168311400Y-106536714D01*
X168148600Y-106536714D01*
X168058123Y-106081856D01*
X167800467Y-105696247D01*
X167414858Y-105438591D01*
X166960000Y-105348114D01*
X166505142Y-105438591D01*
X166119533Y-105696247D01*
X165861877Y-106081856D01*
X165771400Y-106536714D01*
X164995000Y-106536714D01*
X164995000Y-103996714D01*
X165771400Y-103996714D01*
X165771400Y-104043286D01*
X165861877Y-104498144D01*
X166119533Y-104883753D01*
X166505142Y-105141409D01*
X166960000Y-105231886D01*
X167414858Y-105141409D01*
X167800467Y-104883753D01*
X168058123Y-104498144D01*
X168148600Y-104043286D01*
X168148600Y-103996714D01*
X168311400Y-103996714D01*
X168311400Y-104043286D01*
X168401877Y-104498144D01*
X168659533Y-104883753D01*
X169045142Y-105141409D01*
X169500000Y-105231886D01*
X169954858Y-105141409D01*
X170340467Y-104883753D01*
X170598123Y-104498144D01*
X170688600Y-104043286D01*
X170688600Y-103996714D01*
X170598123Y-103541856D01*
X170340467Y-103156247D01*
X169954858Y-102898591D01*
X169500000Y-102808114D01*
X169045142Y-102898591D01*
X168659533Y-103156247D01*
X168401877Y-103541856D01*
X168311400Y-103996714D01*
X168148600Y-103996714D01*
X168058123Y-103541856D01*
X167800467Y-103156247D01*
X167414858Y-102898591D01*
X166960000Y-102808114D01*
X166505142Y-102898591D01*
X166119533Y-103156247D01*
X165861877Y-103541856D01*
X165771400Y-103996714D01*
X164995000Y-103996714D01*
X164995000Y-102886752D01*
X165886603Y-101995149D01*
X166119533Y-102343753D01*
X166505142Y-102601409D01*
X166960000Y-102691886D01*
X167414858Y-102601409D01*
X167800467Y-102343753D01*
X168058123Y-101958144D01*
X168148600Y-101503286D01*
X168148600Y-101456714D01*
X168058123Y-101001856D01*
X167800467Y-100616247D01*
X167414858Y-100358591D01*
X166960000Y-100268114D01*
X166505142Y-100358591D01*
X166119533Y-100616247D01*
X165861877Y-101001856D01*
X165861252Y-101005000D01*
X165730000Y-101005000D01*
X165548225Y-101041157D01*
X165394124Y-101144124D01*
X165394122Y-101144127D01*
X164184124Y-102354124D01*
X164081157Y-102508225D01*
X164045000Y-102690000D01*
X164045000Y-106930000D01*
X164081157Y-107111775D01*
X164184124Y-107265876D01*
X165799128Y-108880879D01*
X165718947Y-108932474D01*
X165644740Y-109041080D01*
X165618633Y-109170000D01*
X165618633Y-110170000D01*
X165641295Y-110290438D01*
X165712474Y-110401053D01*
X165784519Y-110450279D01*
X165718947Y-110492474D01*
X165644740Y-110601080D01*
X165618633Y-110730000D01*
X165618633Y-111730000D01*
X165641295Y-111850438D01*
X165712474Y-111961053D01*
X165821080Y-112035260D01*
X165950000Y-112061367D01*
X166075000Y-112061367D01*
X166075000Y-112278480D01*
X165789860Y-112469004D01*
X165556830Y-112817759D01*
X165475000Y-113229144D01*
X165475000Y-114290856D01*
X165556830Y-114702241D01*
X165754872Y-114998633D01*
X165240000Y-114998633D01*
X165119562Y-115021295D01*
X165008947Y-115092474D01*
X164959721Y-115164519D01*
X164917526Y-115098947D01*
X164808920Y-115024740D01*
X164680000Y-114998633D01*
X163680000Y-114998633D01*
X163559562Y-115021295D01*
X163448947Y-115092474D01*
X163374740Y-115201080D01*
X163348633Y-115330000D01*
X163348633Y-115598195D01*
X161811828Y-117135000D01*
X139078172Y-117135000D01*
X137425000Y-115481828D01*
X137425000Y-112228172D01*
X138878173Y-110775000D01*
X139610903Y-110775000D01*
X139553414Y-110813413D01*
X138093414Y-112273414D01*
X137968769Y-112459957D01*
X137925000Y-112680000D01*
X137925000Y-115270000D01*
X137968769Y-115490043D01*
X138093414Y-115676586D01*
X139053414Y-116636586D01*
X139239957Y-116761231D01*
X139460000Y-116805000D01*
X155950000Y-116805000D01*
X156170043Y-116761231D01*
X156356586Y-116636586D01*
X157799096Y-115194076D01*
X157978615Y-115314026D01*
X158390000Y-115395856D01*
X158801385Y-115314026D01*
X159150140Y-115080996D01*
X159383170Y-114732241D01*
X159465000Y-114320856D01*
X159465000Y-113259144D01*
X159383170Y-112847759D01*
X159185128Y-112551367D01*
X159230000Y-112551367D01*
X159350438Y-112528705D01*
X159461053Y-112457526D01*
X159535260Y-112348920D01*
X159561367Y-112220000D01*
X159561367Y-111020000D01*
X159538705Y-110899562D01*
X159467526Y-110788947D01*
X159358920Y-110714740D01*
X159230000Y-110688633D01*
X158230000Y-110688633D01*
X158109562Y-110711295D01*
X157998947Y-110782474D01*
X157924740Y-110891080D01*
X157898633Y-111020000D01*
X157898633Y-111680297D01*
X157858769Y-111739957D01*
X157815000Y-111960000D01*
X157815000Y-112375298D01*
X157629860Y-112499004D01*
X157396830Y-112847759D01*
X157315000Y-113259144D01*
X157315000Y-114051828D01*
X156944894Y-114421934D01*
X156965000Y-114320856D01*
X156965000Y-113259144D01*
X156883170Y-112847759D01*
X156650140Y-112499004D01*
X156365000Y-112308480D01*
X156365000Y-107446752D01*
X161425873Y-102385878D01*
X161425876Y-102385876D01*
X161494677Y-102282908D01*
X161528844Y-102231774D01*
X161565001Y-102050000D01*
X161565000Y-102049995D01*
X161565000Y-98916714D01*
X165771400Y-98916714D01*
X165771400Y-98963286D01*
X165861877Y-99418144D01*
X166119533Y-99803753D01*
X166505142Y-100061409D01*
X166960000Y-100151886D01*
X167414858Y-100061409D01*
X167800467Y-99803753D01*
X168058123Y-99418144D01*
X168148600Y-98963286D01*
X168148600Y-98916714D01*
X168311400Y-98916714D01*
X168311400Y-98963286D01*
X168401877Y-99418144D01*
X168659533Y-99803753D01*
X169045142Y-100061409D01*
X169500000Y-100151886D01*
X169954858Y-100061409D01*
X170340467Y-99803753D01*
X170598123Y-99418144D01*
X170688600Y-98963286D01*
X170688600Y-98916714D01*
X170598123Y-98461856D01*
X170340467Y-98076247D01*
X169954858Y-97818591D01*
X169500000Y-97728114D01*
X169045142Y-97818591D01*
X168659533Y-98076247D01*
X168401877Y-98461856D01*
X168311400Y-98916714D01*
X168148600Y-98916714D01*
X168058123Y-98461856D01*
X167800467Y-98076247D01*
X167414858Y-97818591D01*
X166960000Y-97728114D01*
X166505142Y-97818591D01*
X166119533Y-98076247D01*
X165861877Y-98461856D01*
X165771400Y-98916714D01*
X161565000Y-98916714D01*
X161565000Y-96376714D01*
X165771400Y-96376714D01*
X165771400Y-96423286D01*
X165861877Y-96878144D01*
X166119533Y-97263753D01*
X166505142Y-97521409D01*
X166960000Y-97611886D01*
X167414858Y-97521409D01*
X167800467Y-97263753D01*
X168058123Y-96878144D01*
X168148600Y-96423286D01*
X168148600Y-96376714D01*
X168058123Y-95921856D01*
X167800467Y-95536247D01*
X167414858Y-95278591D01*
X166960000Y-95188114D01*
X166505142Y-95278591D01*
X166119533Y-95536247D01*
X165861877Y-95921856D01*
X165771400Y-96376714D01*
X161565000Y-96376714D01*
X161565000Y-91296714D01*
X165771400Y-91296714D01*
X165771400Y-91343286D01*
X165861877Y-91798144D01*
X166119533Y-92183753D01*
X166505142Y-92441409D01*
X166960000Y-92531886D01*
X167414858Y-92441409D01*
X167800467Y-92183753D01*
X168058123Y-91798144D01*
X168148600Y-91343286D01*
X168148600Y-91296714D01*
X168311400Y-91296714D01*
X168311400Y-91343286D01*
X168401877Y-91798144D01*
X168659533Y-92183753D01*
X169045142Y-92441409D01*
X169500000Y-92531886D01*
X169954858Y-92441409D01*
X170340467Y-92183753D01*
X170598123Y-91798144D01*
X170688600Y-91343286D01*
X170688600Y-91296714D01*
X170598123Y-90841856D01*
X170340467Y-90456247D01*
X169954858Y-90198591D01*
X169500000Y-90108114D01*
X169045142Y-90198591D01*
X168659533Y-90456247D01*
X168401877Y-90841856D01*
X168311400Y-91296714D01*
X168148600Y-91296714D01*
X168058123Y-90841856D01*
X167800467Y-90456247D01*
X167414858Y-90198591D01*
X166960000Y-90108114D01*
X166505142Y-90198591D01*
X166119533Y-90456247D01*
X165861877Y-90841856D01*
X165771400Y-91296714D01*
X161565000Y-91296714D01*
X161565000Y-88756714D01*
X165771400Y-88756714D01*
X165771400Y-88803286D01*
X165861877Y-89258144D01*
X166119533Y-89643753D01*
X166505142Y-89901409D01*
X166960000Y-89991886D01*
X167414858Y-89901409D01*
X167800467Y-89643753D01*
X168058123Y-89258144D01*
X168148600Y-88803286D01*
X168148600Y-88756714D01*
X168311400Y-88756714D01*
X168311400Y-88803286D01*
X168401877Y-89258144D01*
X168659533Y-89643753D01*
X169045142Y-89901409D01*
X169500000Y-89991886D01*
X169954858Y-89901409D01*
X170340467Y-89643753D01*
X170598123Y-89258144D01*
X170688600Y-88803286D01*
X170688600Y-88756714D01*
X170598123Y-88301856D01*
X170340467Y-87916247D01*
X169954858Y-87658591D01*
X169500000Y-87568114D01*
X169045142Y-87658591D01*
X168659533Y-87916247D01*
X168401877Y-88301856D01*
X168311400Y-88756714D01*
X168148600Y-88756714D01*
X168058123Y-88301856D01*
X167800467Y-87916247D01*
X167414858Y-87658591D01*
X166960000Y-87568114D01*
X166505142Y-87658591D01*
X166119533Y-87916247D01*
X165861877Y-88301856D01*
X165771400Y-88756714D01*
X161565000Y-88756714D01*
X161565000Y-88086752D01*
X163435038Y-86216714D01*
X165771400Y-86216714D01*
X165771400Y-86263286D01*
X165861877Y-86718144D01*
X166119533Y-87103753D01*
X166505142Y-87361409D01*
X166960000Y-87451886D01*
X167414858Y-87361409D01*
X167800467Y-87103753D01*
X168058123Y-86718144D01*
X168148600Y-86263286D01*
X168148600Y-86216714D01*
X168058123Y-85761856D01*
X167800467Y-85376247D01*
X167414858Y-85118591D01*
X166960000Y-85028114D01*
X166505142Y-85118591D01*
X166119533Y-85376247D01*
X165861877Y-85761856D01*
X165771400Y-86216714D01*
X163435038Y-86216714D01*
X165476752Y-84175000D01*
X165861252Y-84175000D01*
X165861877Y-84178144D01*
X166119533Y-84563753D01*
X166505142Y-84821409D01*
X166960000Y-84911886D01*
X167414858Y-84821409D01*
X167800467Y-84563753D01*
X168058123Y-84178144D01*
X168148600Y-83723286D01*
X168148600Y-83676714D01*
X168058123Y-83221856D01*
X167800467Y-82836247D01*
X167414858Y-82578591D01*
X166960000Y-82488114D01*
X166505142Y-82578591D01*
X166119533Y-82836247D01*
X165861877Y-83221856D01*
X165861252Y-83225000D01*
X165280005Y-83225000D01*
X165280000Y-83224999D01*
X165154315Y-83250000D01*
X165098225Y-83261157D01*
X164948454Y-83361231D01*
X164944124Y-83364124D01*
X160754124Y-87554124D01*
X160651157Y-87708225D01*
X160615000Y-87890000D01*
X160615000Y-101853249D01*
X155554124Y-106914124D01*
X155451157Y-107068225D01*
X155415000Y-107250000D01*
X155415000Y-112308480D01*
X155129860Y-112499004D01*
X154896830Y-112847759D01*
X154815000Y-113259144D01*
X154815000Y-114320856D01*
X154896830Y-114732241D01*
X155129860Y-115080996D01*
X155478615Y-115314026D01*
X155890000Y-115395856D01*
X155991078Y-115375750D01*
X155711828Y-115655000D01*
X146028173Y-115655000D01*
X145715000Y-115341828D01*
X145715000Y-115204702D01*
X145900140Y-115080996D01*
X146133170Y-114732241D01*
X146215000Y-114320856D01*
X146215000Y-113498172D01*
X147351806Y-112361367D01*
X147970000Y-112361367D01*
X148090438Y-112338705D01*
X148201053Y-112267526D01*
X148275260Y-112158920D01*
X148301367Y-112030000D01*
X148301367Y-110830000D01*
X148278705Y-110709562D01*
X148207526Y-110598947D01*
X148098920Y-110524740D01*
X147970000Y-110498633D01*
X147293119Y-110498633D01*
X148115876Y-109675876D01*
X148218843Y-109521775D01*
X148255000Y-109340000D01*
X148255000Y-98286752D01*
X153225876Y-93315876D01*
X153328843Y-93161775D01*
X153365000Y-92980000D01*
X153365000Y-85206752D01*
X160756752Y-77815000D01*
X166080275Y-77815000D01*
X165861877Y-78141856D01*
X165771400Y-78596714D01*
X165771400Y-78643286D01*
X165861877Y-79098144D01*
X166077833Y-79421344D01*
X165978225Y-79441157D01*
X165824124Y-79544124D01*
X158524124Y-86844124D01*
X158421157Y-86998225D01*
X158385000Y-87180000D01*
X158385000Y-95203248D01*
X153054124Y-100534124D01*
X152951157Y-100688225D01*
X152915000Y-100870000D01*
X152915000Y-112308480D01*
X152629860Y-112499004D01*
X152396830Y-112847759D01*
X152315000Y-113259144D01*
X152315000Y-114320856D01*
X152396830Y-114732241D01*
X152629860Y-115080996D01*
X152978615Y-115314026D01*
X153390000Y-115395856D01*
X153801385Y-115314026D01*
X154150140Y-115080996D01*
X154383170Y-114732241D01*
X154465000Y-114320856D01*
X154465000Y-113259144D01*
X154383170Y-112847759D01*
X154150140Y-112499004D01*
X153865000Y-112308480D01*
X153865000Y-101066752D01*
X159195876Y-95735876D01*
X159298843Y-95581775D01*
X159335000Y-95400000D01*
X159335000Y-87376752D01*
X165820157Y-80891595D01*
X165771400Y-81136714D01*
X165771400Y-81183286D01*
X165861877Y-81638144D01*
X166119533Y-82023753D01*
X166505142Y-82281409D01*
X166960000Y-82371886D01*
X167414858Y-82281409D01*
X167800467Y-82023753D01*
X168058123Y-81638144D01*
X168148600Y-81183286D01*
X168148600Y-81136714D01*
X168058123Y-80681856D01*
X167839725Y-80355000D01*
X168013248Y-80355000D01*
X168391628Y-80733380D01*
X168311400Y-81136714D01*
X168311400Y-81183286D01*
X168401877Y-81638144D01*
X168659533Y-82023753D01*
X169045142Y-82281409D01*
X169500000Y-82371886D01*
X169954858Y-82281409D01*
X170340467Y-82023753D01*
X170598123Y-81638144D01*
X170688600Y-81183286D01*
X170688600Y-81136714D01*
X170598123Y-80681856D01*
X170340467Y-80296247D01*
X169954858Y-80038591D01*
X169500000Y-79948114D01*
X169045142Y-80038591D01*
X169042265Y-80040513D01*
X168545876Y-79544124D01*
X168391775Y-79441157D01*
X168210000Y-79405000D01*
X167853088Y-79405000D01*
X168058123Y-79098144D01*
X168148600Y-78643286D01*
X168148600Y-78596714D01*
X168058123Y-78141856D01*
X167839725Y-77815000D01*
X168470000Y-77815000D01*
X168643310Y-77780527D01*
X168401877Y-78141856D01*
X168311400Y-78596714D01*
X168311400Y-78643286D01*
X168401877Y-79098144D01*
X168659533Y-79483753D01*
X169045142Y-79741409D01*
X169500000Y-79831886D01*
X169954858Y-79741409D01*
X170340467Y-79483753D01*
X170598123Y-79098144D01*
X170688600Y-78643286D01*
X170688600Y-78596714D01*
X170598123Y-78141856D01*
X170340467Y-77756247D01*
X169954858Y-77498591D01*
X169500000Y-77408114D01*
X169045142Y-77498591D01*
X168858351Y-77623401D01*
X169241321Y-77240431D01*
X169500000Y-77291886D01*
X169954858Y-77201409D01*
X170340467Y-76943753D01*
X170598123Y-76558144D01*
X170688600Y-76103286D01*
X170688600Y-76056714D01*
X170598123Y-75601856D01*
X170386406Y-75285000D01*
X170623248Y-75285000D01*
X173505000Y-78166752D01*
X173505000Y-85073249D01*
X171795876Y-83364124D01*
X171641775Y-83261157D01*
X171460000Y-83225000D01*
X170598748Y-83225000D01*
X170598123Y-83221856D01*
X170340467Y-82836247D01*
X169954858Y-82578591D01*
X169500000Y-82488114D01*
X169045142Y-82578591D01*
X168659533Y-82836247D01*
X168401877Y-83221856D01*
X168311400Y-83676714D01*
X168311400Y-83723286D01*
X168401877Y-84178144D01*
X168659533Y-84563753D01*
X169045142Y-84821409D01*
X169500000Y-84911886D01*
X169954858Y-84821409D01*
X170340467Y-84563753D01*
X170598123Y-84178144D01*
X170598748Y-84175000D01*
X171263248Y-84175000D01*
X172805000Y-85716751D01*
X172805000Y-87163249D01*
X171545876Y-85904124D01*
X171391775Y-85801157D01*
X171210000Y-85765000D01*
X170598748Y-85765000D01*
X170598123Y-85761856D01*
X170340467Y-85376247D01*
X169954858Y-85118591D01*
X169500000Y-85028114D01*
X169045142Y-85118591D01*
X168659533Y-85376247D01*
X168401877Y-85761856D01*
X168311400Y-86216714D01*
X168311400Y-86263286D01*
X168401877Y-86718144D01*
X168659533Y-87103753D01*
X169045142Y-87361409D01*
X169500000Y-87451886D01*
X169954858Y-87361409D01*
X170340467Y-87103753D01*
X170598123Y-86718144D01*
X170598748Y-86715000D01*
X171013248Y-86715000D01*
X172165000Y-87866751D01*
X172165000Y-93010000D01*
X172201157Y-93191775D01*
X172304124Y-93345876D01*
X174455000Y-95496752D01*
X174455000Y-96443248D01*
X171535876Y-93524124D01*
X171381775Y-93421157D01*
X171200000Y-93385000D01*
X170598748Y-93385000D01*
X170598123Y-93381856D01*
X170340467Y-92996247D01*
X169954858Y-92738591D01*
X169500000Y-92648114D01*
X169045142Y-92738591D01*
X168659533Y-92996247D01*
X168401877Y-93381856D01*
X168311400Y-93836714D01*
X168311400Y-93883286D01*
X168401877Y-94338144D01*
X168606912Y-94645000D01*
X168416752Y-94645000D01*
X168066713Y-94294961D01*
X168148600Y-93883286D01*
X168148600Y-93836714D01*
X168058123Y-93381856D01*
X167800467Y-92996247D01*
X167414858Y-92738591D01*
X166960000Y-92648114D01*
X166505142Y-92738591D01*
X166119533Y-92996247D01*
X165861877Y-93381856D01*
X165771400Y-93836714D01*
X165771400Y-93883286D01*
X165861877Y-94338144D01*
X166119533Y-94723753D01*
X166505142Y-94981409D01*
X166960000Y-95071886D01*
X167410520Y-94982272D01*
X167884124Y-95455876D01*
X168038225Y-95558843D01*
X168220000Y-95595000D01*
X168620275Y-95595000D01*
X168401877Y-95921856D01*
X168311400Y-96376714D01*
X168311400Y-96423286D01*
X168401877Y-96878144D01*
X168659533Y-97263753D01*
X169045142Y-97521409D01*
X169500000Y-97611886D01*
X169954858Y-97521409D01*
X170340467Y-97263753D01*
X170598123Y-96878144D01*
X170688600Y-96423286D01*
X170688600Y-96376714D01*
X170598123Y-95921856D01*
X170379725Y-95595000D01*
X170783248Y-95595000D01*
X172925000Y-97736752D01*
X172925000Y-106990000D01*
X172961157Y-107171775D01*
X173064124Y-107325876D01*
X177664122Y-111925873D01*
X177664124Y-111925876D01*
X178004122Y-112265873D01*
X178004124Y-112265876D01*
X178158225Y-112368843D01*
X178188384Y-112374842D01*
X178340000Y-112405001D01*
X178340005Y-112405000D01*
X178848633Y-112405000D01*
X178848633Y-112530000D01*
X178871295Y-112650438D01*
X178942474Y-112761053D01*
X179051080Y-112835260D01*
X179180000Y-112861367D01*
X180180000Y-112861367D01*
X180300438Y-112838705D01*
X180411053Y-112767526D01*
X180460279Y-112695481D01*
X180502474Y-112761053D01*
X180611080Y-112835260D01*
X180740000Y-112861367D01*
X181740000Y-112861367D01*
X181860438Y-112838705D01*
X181971053Y-112767526D01*
X182045260Y-112658920D01*
X182071367Y-112530000D01*
X182071367Y-112405000D01*
X182178633Y-112405000D01*
X182178633Y-114050000D01*
X182201295Y-114170438D01*
X182272474Y-114281053D01*
X182381080Y-114355260D01*
X182510000Y-114381367D01*
X184510000Y-114381367D01*
X184630438Y-114358705D01*
X184741053Y-114287526D01*
X184815260Y-114178920D01*
X184841367Y-114050000D01*
X184841367Y-112050000D01*
X184818705Y-111929562D01*
X184747526Y-111818947D01*
X184638920Y-111744740D01*
X184510000Y-111718633D01*
X182850385Y-111718633D01*
X182725876Y-111594124D01*
X182571775Y-111491157D01*
X182390000Y-111455000D01*
X182071367Y-111455000D01*
X182071367Y-111330000D01*
X182048705Y-111209562D01*
X181977526Y-111098947D01*
X181868920Y-111024740D01*
X181740000Y-110998633D01*
X180740000Y-110998633D01*
X180619562Y-111021295D01*
X180508947Y-111092474D01*
X180459721Y-111164519D01*
X180417526Y-111098947D01*
X180308920Y-111024740D01*
X180180000Y-110998633D01*
X179180000Y-110998633D01*
X179059562Y-111021295D01*
X178948947Y-111092474D01*
X178874740Y-111201080D01*
X178848633Y-111330000D01*
X178848633Y-111455000D01*
X178536751Y-111455000D01*
X178335876Y-111254124D01*
X178335873Y-111254122D01*
X173875000Y-106793248D01*
X173875000Y-105936752D01*
X176984124Y-109045876D01*
X177138225Y-109148843D01*
X177320000Y-109185000D01*
X185043248Y-109185000D01*
X185388633Y-109530385D01*
X185388633Y-110320000D01*
X185411295Y-110440438D01*
X185482474Y-110551053D01*
X185591080Y-110625260D01*
X185720000Y-110651367D01*
X186720000Y-110651367D01*
X186840438Y-110628705D01*
X186951053Y-110557526D01*
X187000279Y-110485481D01*
X187042474Y-110551053D01*
X187151080Y-110625260D01*
X187280000Y-110651367D01*
X188280000Y-110651367D01*
X188400438Y-110628705D01*
X188511053Y-110557526D01*
X188585260Y-110448920D01*
X188611367Y-110320000D01*
X188611367Y-110195000D01*
X188928633Y-110195000D01*
X188928633Y-111260000D01*
X188951295Y-111380438D01*
X189022474Y-111491053D01*
X189131080Y-111565260D01*
X189260000Y-111591367D01*
X191260000Y-111591367D01*
X191380438Y-111568705D01*
X191491053Y-111497526D01*
X191565260Y-111388920D01*
X191591367Y-111260000D01*
X191591367Y-109260000D01*
X191568705Y-109139562D01*
X191497526Y-109028947D01*
X191388920Y-108954740D01*
X191260000Y-108928633D01*
X189260000Y-108928633D01*
X189139562Y-108951295D01*
X189028947Y-109022474D01*
X188954740Y-109131080D01*
X188931671Y-109245000D01*
X188611367Y-109245000D01*
X188611367Y-109120000D01*
X188588705Y-108999562D01*
X188517526Y-108888947D01*
X188408920Y-108814740D01*
X188280000Y-108788633D01*
X187280000Y-108788633D01*
X187159562Y-108811295D01*
X187048947Y-108882474D01*
X186999721Y-108954519D01*
X186957526Y-108888947D01*
X186848920Y-108814740D01*
X186720000Y-108788633D01*
X185990385Y-108788633D01*
X185575876Y-108374124D01*
X185421775Y-108271157D01*
X185240000Y-108235000D01*
X184816304Y-108235000D01*
X184821367Y-108210000D01*
X184821367Y-106210000D01*
X184798705Y-106089562D01*
X184727526Y-105978947D01*
X184618920Y-105904740D01*
X184490000Y-105878633D01*
X182490000Y-105878633D01*
X182369562Y-105901295D01*
X182258947Y-105972474D01*
X182184740Y-106081080D01*
X182158633Y-106210000D01*
X182158633Y-107105000D01*
X181941367Y-107105000D01*
X181941367Y-106980000D01*
X181918705Y-106859562D01*
X181847526Y-106748947D01*
X181738920Y-106674740D01*
X181610000Y-106648633D01*
X180610000Y-106648633D01*
X180489562Y-106671295D01*
X180378947Y-106742474D01*
X180329721Y-106814519D01*
X180287526Y-106748947D01*
X180178920Y-106674740D01*
X180050000Y-106648633D01*
X179050000Y-106648633D01*
X178929562Y-106671295D01*
X178818947Y-106742474D01*
X178744740Y-106851080D01*
X178718633Y-106980000D01*
X178718633Y-107105000D01*
X178336751Y-107105000D01*
X175405000Y-104173248D01*
X175405000Y-101416752D01*
X177424124Y-103435876D01*
X177578225Y-103538843D01*
X177760000Y-103575000D01*
X184853248Y-103575000D01*
X185364124Y-104085876D01*
X185388633Y-104102252D01*
X185388633Y-104350000D01*
X185411295Y-104470438D01*
X185482474Y-104581053D01*
X185591080Y-104655260D01*
X185720000Y-104681367D01*
X186720000Y-104681367D01*
X186840438Y-104658705D01*
X186951053Y-104587526D01*
X187000279Y-104515481D01*
X187042474Y-104581053D01*
X187151080Y-104655260D01*
X187280000Y-104681367D01*
X188280000Y-104681367D01*
X188400438Y-104658705D01*
X188511053Y-104587526D01*
X188585260Y-104478920D01*
X188611367Y-104350000D01*
X188611367Y-104225000D01*
X188928633Y-104225000D01*
X188928633Y-105650000D01*
X188951295Y-105770438D01*
X189022474Y-105881053D01*
X189131080Y-105955260D01*
X189260000Y-105981367D01*
X191260000Y-105981367D01*
X191380438Y-105958705D01*
X191491053Y-105887526D01*
X191565260Y-105778920D01*
X191591367Y-105650000D01*
X191591367Y-103650000D01*
X191568705Y-103529562D01*
X191497526Y-103418947D01*
X191388920Y-103344740D01*
X191260000Y-103318633D01*
X189552964Y-103318633D01*
X189541775Y-103311157D01*
X189360000Y-103275000D01*
X188611367Y-103275000D01*
X188611367Y-103150000D01*
X188588705Y-103029562D01*
X188517526Y-102918947D01*
X188408920Y-102844740D01*
X188280000Y-102818633D01*
X187280000Y-102818633D01*
X187159562Y-102841295D01*
X187048947Y-102912474D01*
X186999721Y-102984519D01*
X186957526Y-102918947D01*
X186848920Y-102844740D01*
X186720000Y-102818633D01*
X185720000Y-102818633D01*
X185599562Y-102841295D01*
X185516498Y-102894746D01*
X185385876Y-102764124D01*
X185231775Y-102661157D01*
X185050000Y-102625000D01*
X184806054Y-102625000D01*
X184831367Y-102500000D01*
X184831367Y-100500000D01*
X184808705Y-100379562D01*
X184737526Y-100268947D01*
X184628920Y-100194740D01*
X184500000Y-100168633D01*
X182500000Y-100168633D01*
X182379562Y-100191295D01*
X182268947Y-100262474D01*
X182194740Y-100371080D01*
X182168633Y-100500000D01*
X182168633Y-101525000D01*
X181861367Y-101525000D01*
X181861367Y-101400000D01*
X181838705Y-101279562D01*
X181767526Y-101168947D01*
X181658920Y-101094740D01*
X181530000Y-101068633D01*
X180530000Y-101068633D01*
X180409562Y-101091295D01*
X180298947Y-101162474D01*
X180249721Y-101234519D01*
X180207526Y-101168947D01*
X180098920Y-101094740D01*
X179970000Y-101068633D01*
X178970000Y-101068633D01*
X178852495Y-101090743D01*
X177185000Y-99423248D01*
X177185000Y-93950000D01*
X177148843Y-93768225D01*
X177045876Y-93614124D01*
X174455000Y-91023248D01*
X174455000Y-77970000D01*
X174418843Y-77788225D01*
X174315876Y-77634124D01*
X171155876Y-74474124D01*
X171001775Y-74371157D01*
X170820000Y-74335000D01*
X170386406Y-74335000D01*
X170598123Y-74018144D01*
X170598748Y-74015000D01*
X171243248Y-74015000D01*
X174785000Y-77556752D01*
X174785000Y-91000000D01*
X174821157Y-91181775D01*
X174924124Y-91335876D01*
X177614122Y-94025873D01*
X177614124Y-94025876D01*
X177768225Y-94128843D01*
X177950000Y-94165000D01*
X179943248Y-94165000D01*
X183114124Y-97335876D01*
X183268225Y-97438843D01*
X183450000Y-97475000D01*
X185388633Y-97475000D01*
X185388633Y-97600000D01*
X185411295Y-97720438D01*
X185482474Y-97831053D01*
X185591080Y-97905260D01*
X185720000Y-97931367D01*
X186720000Y-97931367D01*
X186840438Y-97908705D01*
X186951053Y-97837526D01*
X187000279Y-97765481D01*
X187042474Y-97831053D01*
X187151080Y-97905260D01*
X187280000Y-97931367D01*
X188280000Y-97931367D01*
X188400438Y-97908705D01*
X188453079Y-97874831D01*
X188918633Y-98340385D01*
X188918633Y-100000000D01*
X188941295Y-100120438D01*
X189012474Y-100231053D01*
X189121080Y-100305260D01*
X189250000Y-100331367D01*
X191250000Y-100331367D01*
X191370438Y-100308705D01*
X191481053Y-100237526D01*
X191555260Y-100128920D01*
X191581367Y-100000000D01*
X191581367Y-98000000D01*
X191558705Y-97879562D01*
X191487526Y-97768947D01*
X191378920Y-97694740D01*
X191250000Y-97668633D01*
X189590385Y-97668633D01*
X188611367Y-96689615D01*
X188611367Y-96400000D01*
X188588705Y-96279562D01*
X188517526Y-96168947D01*
X188408920Y-96094740D01*
X188280000Y-96068633D01*
X187280000Y-96068633D01*
X187159562Y-96091295D01*
X187048947Y-96162474D01*
X186999721Y-96234519D01*
X186957526Y-96168947D01*
X186900842Y-96130216D01*
X187026277Y-96130326D01*
X187697235Y-95853091D01*
X188211027Y-95340195D01*
X188489432Y-94669722D01*
X188490066Y-93943743D01*
X188212831Y-93272785D01*
X187699935Y-92758993D01*
X187029462Y-92480588D01*
X186303483Y-92479954D01*
X185632525Y-92757189D01*
X185118733Y-93270085D01*
X184840328Y-93940558D01*
X184839694Y-94666537D01*
X185116929Y-95337495D01*
X185629825Y-95851287D01*
X186153252Y-96068633D01*
X185720000Y-96068633D01*
X185599562Y-96091295D01*
X185488947Y-96162474D01*
X185414740Y-96271080D01*
X185388633Y-96400000D01*
X185388633Y-96525000D01*
X183646752Y-96525000D01*
X180475876Y-93354124D01*
X180321775Y-93251157D01*
X180140000Y-93215000D01*
X178146751Y-93215000D01*
X175735000Y-90803248D01*
X175735000Y-90750000D01*
X176894144Y-90750000D01*
X176975974Y-91161385D01*
X177209004Y-91510140D01*
X177557759Y-91743170D01*
X177969144Y-91825000D01*
X179030856Y-91825000D01*
X179442241Y-91743170D01*
X179790996Y-91510140D01*
X179914702Y-91325000D01*
X183072051Y-91325000D01*
X183085524Y-91357606D01*
X183387823Y-91660432D01*
X183782997Y-91824523D01*
X184210886Y-91824897D01*
X184606346Y-91661496D01*
X184909172Y-91359197D01*
X185073263Y-90964023D01*
X185073637Y-90536134D01*
X184910236Y-90140674D01*
X184607937Y-89837848D01*
X184212763Y-89673757D01*
X183784874Y-89673383D01*
X183389414Y-89836784D01*
X183086588Y-90139083D01*
X183071674Y-90175000D01*
X179914702Y-90175000D01*
X179790996Y-89989860D01*
X179442241Y-89756830D01*
X179030856Y-89675000D01*
X177969144Y-89675000D01*
X177557759Y-89756830D01*
X177209004Y-89989860D01*
X176975974Y-90338615D01*
X176894144Y-90750000D01*
X175735000Y-90750000D01*
X175735000Y-85750000D01*
X176894144Y-85750000D01*
X176975974Y-86161385D01*
X177209004Y-86510140D01*
X177557759Y-86743170D01*
X177969144Y-86825000D01*
X179030856Y-86825000D01*
X179397146Y-86752140D01*
X183071696Y-86752140D01*
X183085524Y-86785606D01*
X183387823Y-87088432D01*
X183640119Y-87193195D01*
X183389414Y-87296784D01*
X183086588Y-87599083D01*
X183055064Y-87675000D01*
X179914702Y-87675000D01*
X179790996Y-87489860D01*
X179442241Y-87256830D01*
X179030856Y-87175000D01*
X177969144Y-87175000D01*
X177557759Y-87256830D01*
X177209004Y-87489860D01*
X176975974Y-87838615D01*
X176894144Y-88250000D01*
X176975974Y-88661385D01*
X177209004Y-89010140D01*
X177557759Y-89243170D01*
X177969144Y-89325000D01*
X179030856Y-89325000D01*
X179442241Y-89243170D01*
X179790996Y-89010140D01*
X179914702Y-88825000D01*
X183092905Y-88825000D01*
X183387823Y-89120432D01*
X183782997Y-89284523D01*
X184210886Y-89284897D01*
X184606346Y-89121496D01*
X184909172Y-88819197D01*
X185073263Y-88424023D01*
X185073637Y-87996134D01*
X184910236Y-87600674D01*
X184607937Y-87297848D01*
X184355641Y-87193085D01*
X184606346Y-87089496D01*
X184909172Y-86787197D01*
X185073263Y-86392023D01*
X185073637Y-85964134D01*
X184910236Y-85568674D01*
X184607937Y-85265848D01*
X184212763Y-85101757D01*
X183784874Y-85101383D01*
X183389414Y-85264784D01*
X183086588Y-85567083D01*
X183072031Y-85602140D01*
X180076445Y-85602140D01*
X180024026Y-85338615D01*
X179790996Y-84989860D01*
X179442241Y-84756830D01*
X179030856Y-84675000D01*
X177969144Y-84675000D01*
X177557759Y-84756830D01*
X177209004Y-84989860D01*
X176975974Y-85338615D01*
X176894144Y-85750000D01*
X175735000Y-85750000D01*
X175735000Y-83250000D01*
X176894144Y-83250000D01*
X176975974Y-83661385D01*
X177209004Y-84010140D01*
X177557759Y-84243170D01*
X177969144Y-84325000D01*
X179030856Y-84325000D01*
X179442241Y-84243170D01*
X179790996Y-84010140D01*
X179914702Y-83825000D01*
X182922145Y-83825000D01*
X182922123Y-83850146D01*
X183085524Y-84245606D01*
X183387823Y-84548432D01*
X183782997Y-84712523D01*
X184210886Y-84712897D01*
X184606346Y-84549496D01*
X184909172Y-84247197D01*
X185073263Y-83852023D01*
X185073637Y-83424134D01*
X184910236Y-83028674D01*
X184607937Y-82725848D01*
X184212763Y-82561757D01*
X183784874Y-82561383D01*
X183509900Y-82675000D01*
X179914702Y-82675000D01*
X179790996Y-82489860D01*
X179442241Y-82256830D01*
X179030856Y-82175000D01*
X177969144Y-82175000D01*
X177557759Y-82256830D01*
X177209004Y-82489860D01*
X176975974Y-82838615D01*
X176894144Y-83250000D01*
X175735000Y-83250000D01*
X175735000Y-80950537D01*
X184839694Y-80950537D01*
X185116929Y-81621495D01*
X185629825Y-82135287D01*
X186300298Y-82413692D01*
X187026277Y-82414326D01*
X187697235Y-82137091D01*
X188211027Y-81624195D01*
X188489432Y-80953722D01*
X188490066Y-80227743D01*
X188212831Y-79556785D01*
X187699935Y-79042993D01*
X187029462Y-78764588D01*
X186303483Y-78763954D01*
X185632525Y-79041189D01*
X185118733Y-79554085D01*
X184840328Y-80224558D01*
X184839694Y-80950537D01*
X175735000Y-80950537D01*
X175735000Y-77360005D01*
X175735001Y-77360000D01*
X175698843Y-77178226D01*
X175698843Y-77178225D01*
X175595876Y-77024124D01*
X171775876Y-73204124D01*
X171621775Y-73101157D01*
X171440000Y-73065000D01*
X170598748Y-73065000D01*
X170598123Y-73061856D01*
X170340467Y-72676247D01*
X169954858Y-72418591D01*
X169500000Y-72328114D01*
X169045142Y-72418591D01*
X168659533Y-72676247D01*
X168401877Y-73061856D01*
X168311400Y-73516714D01*
X168311400Y-73563286D01*
X168401877Y-74018144D01*
X168613594Y-74335000D01*
X168426752Y-74335000D01*
X168066713Y-73974961D01*
X168148600Y-73563286D01*
X168148600Y-73516714D01*
X168058123Y-73061856D01*
X167800467Y-72676247D01*
X167414858Y-72418591D01*
X166960000Y-72328114D01*
X166505142Y-72418591D01*
X166119533Y-72676247D01*
X165861877Y-73061856D01*
X165771400Y-73516714D01*
X165771400Y-73563286D01*
X165861877Y-74018144D01*
X166119533Y-74403753D01*
X166505142Y-74661409D01*
X166960000Y-74751886D01*
X167410520Y-74662272D01*
X167894124Y-75145876D01*
X168048225Y-75248843D01*
X168230000Y-75285000D01*
X168613594Y-75285000D01*
X168401877Y-75601856D01*
X168311400Y-76056714D01*
X168311400Y-76103286D01*
X168401877Y-76558144D01*
X168473265Y-76664983D01*
X168273248Y-76865000D01*
X167853088Y-76865000D01*
X168058123Y-76558144D01*
X168148600Y-76103286D01*
X168148600Y-76056714D01*
X168058123Y-75601856D01*
X167800467Y-75216247D01*
X167414858Y-74958591D01*
X166960000Y-74868114D01*
X166505142Y-74958591D01*
X166119533Y-75216247D01*
X165861877Y-75601856D01*
X165861252Y-75605000D01*
X159900000Y-75605000D01*
X159718225Y-75641157D01*
X159564124Y-75744124D01*
X151434124Y-83874124D01*
X151331157Y-84028225D01*
X151295000Y-84210000D01*
X151295000Y-92763248D01*
X146769124Y-97289124D01*
X146666157Y-97443225D01*
X146630000Y-97625000D01*
X146630000Y-108818248D01*
X144673248Y-110775000D01*
X143798172Y-110775000D01*
X146036586Y-108536586D01*
X146161231Y-108350043D01*
X146205000Y-108130000D01*
X146205000Y-81758172D01*
X152533171Y-75430002D01*
X162814998Y-75430002D01*
X163035041Y-75386233D01*
X163221584Y-75261588D01*
X166419193Y-72063979D01*
X166505142Y-72121409D01*
X166960000Y-72211886D01*
X167414858Y-72121409D01*
X167800467Y-71863753D01*
X168058123Y-71478144D01*
X168148600Y-71023286D01*
X168148600Y-70976714D01*
X168058123Y-70521856D01*
X167800467Y-70136247D01*
X167535000Y-69958867D01*
X167535000Y-69838172D01*
X168448172Y-68925000D01*
X172271828Y-68925000D01*
X173575000Y-70228173D01*
X173575000Y-72540000D01*
X173604837Y-72690000D01*
X173618769Y-72760043D01*
X173743414Y-72946586D01*
X174518633Y-73721806D01*
X174518633Y-74000000D01*
X174541295Y-74120438D01*
X174612474Y-74231053D01*
X174721080Y-74305260D01*
X174799079Y-74321055D01*
X174801853Y-74335000D01*
X174818769Y-74420043D01*
X174943414Y-74606586D01*
X175463414Y-75126586D01*
X178473414Y-78136587D01*
X178659957Y-78261231D01*
X178880000Y-78305000D01*
X187221828Y-78305000D01*
X192153413Y-83236586D01*
X192153416Y-83236588D01*
X192825000Y-83908173D01*
X192825000Y-111911827D01*
X192153414Y-112583414D01*
X189381828Y-115355000D01*
X172498173Y-115355000D01*
X172240620Y-115097448D01*
X172310140Y-115050996D01*
X172543170Y-114702241D01*
X172625000Y-114290856D01*
X172625000Y-113229144D01*
X172543170Y-112817759D01*
X172425000Y-112640905D01*
X172425000Y-112427255D01*
X172470438Y-112418705D01*
X172581053Y-112347526D01*
X172655260Y-112238920D01*
X172681367Y-112110000D01*
X172681367Y-110910000D01*
X172658705Y-110789562D01*
X172587526Y-110678947D01*
X172478920Y-110604740D01*
X172350000Y-110578633D01*
X171350000Y-110578633D01*
X171229562Y-110601295D01*
X171118947Y-110672474D01*
X171044740Y-110781080D01*
X171018633Y-110910000D01*
X171018633Y-112110000D01*
X171041295Y-112230438D01*
X171073048Y-112279784D01*
X170789860Y-112469004D01*
X170556830Y-112817759D01*
X170475000Y-113229144D01*
X170475000Y-114290856D01*
X170556830Y-114702241D01*
X170789860Y-115050996D01*
X170975000Y-115174702D01*
X170975000Y-115220000D01*
X171009980Y-115395856D01*
X171018769Y-115440043D01*
X171143414Y-115626586D01*
X171853414Y-116336587D01*
X172023213Y-116450043D01*
X172039957Y-116461231D01*
X172260000Y-116505000D01*
X189620000Y-116505000D01*
X189840043Y-116461231D01*
X190026586Y-116336586D01*
X191135803Y-115227369D01*
X190675578Y-116335715D01*
X190674424Y-117658482D01*
X191179558Y-118881001D01*
X191897303Y-119600000D01*
X132101828Y-119600000D01*
X132817155Y-118885921D01*
X133324422Y-117664285D01*
X133325576Y-116341518D01*
X132820442Y-115118999D01*
X131885921Y-114182845D01*
X130664285Y-113675578D01*
X129341518Y-113674424D01*
X128118999Y-114179558D01*
X127400000Y-114897303D01*
X127400000Y-65101828D01*
X128114079Y-65817155D01*
X129335715Y-66324422D01*
X130658482Y-66325576D01*
X131881001Y-65820442D01*
X132817155Y-64885921D01*
X133324422Y-63664285D01*
X133324910Y-63105000D01*
X160182143Y-63105000D01*
X160182143Y-60400000D01*
X191898172Y-60400000D01*
X191182845Y-61114079D01*
M02*
