G04 #@! TF.GenerationSoftware,KiCad,Pcbnew,(5.0.0)*
G04 #@! TF.CreationDate,2019-03-01T17:45:54+09:00*
G04 #@! TF.ProjectId,Lipo_Alarm,4C69706F5F416C61726D2E6B69636164,rev?*
G04 #@! TF.SameCoordinates,Original*
G04 #@! TF.FileFunction,Soldermask,Bot*
G04 #@! TF.FilePolarity,Negative*
%FSLAX46Y46*%
G04 Gerber Fmt 4.6, Leading zero omitted, Abs format (unit mm)*
G04 Created by KiCad (PCBNEW (5.0.0)) date 03/01/19 17:45:54*
%MOMM*%
%LPD*%
G01*
G04 APERTURE LIST*
%ADD10R,1.400000X1.600000*%
%ADD11R,1.600000X1.400000*%
%ADD12O,1.924000X1.400000*%
%ADD13R,3.000000X1.900000*%
%ADD14O,1.900000X2.400000*%
%ADD15O,2.432000X2.127200*%
%ADD16R,2.432000X2.127200*%
%ADD17O,1.400000X1.950000*%
%ADD18O,1.650000X1.350000*%
%ADD19R,0.800000X1.750000*%
G04 APERTURE END LIST*
D10*
G04 #@! TO.C,C2*
X134700000Y-102750000D03*
X132820000Y-102750000D03*
G04 #@! TD*
D11*
G04 #@! TO.C,C4*
X136750000Y-99950000D03*
X136750000Y-98070000D03*
G04 #@! TD*
G04 #@! TO.C,C5*
X143250000Y-98070000D03*
X143250000Y-99950000D03*
G04 #@! TD*
D10*
G04 #@! TO.C,C6*
X145450000Y-90250000D03*
X143570000Y-90250000D03*
G04 #@! TD*
G04 #@! TO.C,C8*
X135680000Y-90000000D03*
X133800000Y-90000000D03*
G04 #@! TD*
G04 #@! TO.C,C10*
X133550000Y-96250000D03*
X135430000Y-96250000D03*
G04 #@! TD*
G04 #@! TO.C,D8*
X145380000Y-80500000D03*
X143620000Y-80500000D03*
G04 #@! TD*
G04 #@! TO.C,D9*
X123370000Y-80500000D03*
X125130000Y-80500000D03*
G04 #@! TD*
G04 #@! TO.C,D10*
X125380000Y-77250000D03*
X123620000Y-77250000D03*
G04 #@! TD*
D12*
G04 #@! TO.C,P1*
X155500000Y-85500000D03*
X155500000Y-87000000D03*
X155500000Y-88500000D03*
X155500000Y-90000000D03*
X155500000Y-91500000D03*
X155500000Y-93000000D03*
G04 #@! TD*
D11*
G04 #@! TO.C,R3*
X116500000Y-83470000D03*
X116500000Y-85030000D03*
G04 #@! TD*
D10*
G04 #@! TO.C,R4*
X120780000Y-85000000D03*
X119220000Y-85000000D03*
G04 #@! TD*
D11*
G04 #@! TO.C,R7*
X116500000Y-86720000D03*
X116500000Y-88280000D03*
G04 #@! TD*
D10*
G04 #@! TO.C,R8*
X120780000Y-88250000D03*
X119220000Y-88250000D03*
G04 #@! TD*
D11*
G04 #@! TO.C,R10*
X116500000Y-91280000D03*
X116500000Y-89720000D03*
G04 #@! TD*
D10*
G04 #@! TO.C,R11*
X119220000Y-91250000D03*
X120780000Y-91250000D03*
G04 #@! TD*
D11*
G04 #@! TO.C,R12*
X116500000Y-94280000D03*
X116500000Y-92720000D03*
G04 #@! TD*
D10*
G04 #@! TO.C,R13*
X119220000Y-94250000D03*
X120780000Y-94250000D03*
G04 #@! TD*
G04 #@! TO.C,R16*
X120970000Y-80500000D03*
X122530000Y-80500000D03*
G04 #@! TD*
G04 #@! TO.C,R17*
X122780000Y-77250000D03*
X121220000Y-77250000D03*
G04 #@! TD*
D11*
G04 #@! TO.C,R18*
X116500000Y-95720000D03*
X116500000Y-97280000D03*
G04 #@! TD*
D10*
G04 #@! TO.C,R19*
X120780000Y-97250000D03*
X119220000Y-97250000D03*
G04 #@! TD*
G04 #@! TO.C,R20*
X142780000Y-80500000D03*
X141220000Y-80500000D03*
G04 #@! TD*
D11*
G04 #@! TO.C,R21*
X116500000Y-100280000D03*
X116500000Y-98720000D03*
G04 #@! TD*
D10*
G04 #@! TO.C,R22*
X120780000Y-100250000D03*
X119220000Y-100250000D03*
G04 #@! TD*
D13*
G04 #@! TO.C,SW2*
X155050000Y-75750000D03*
X149450000Y-75750000D03*
G04 #@! TD*
G04 #@! TO.C,SW3*
X149450000Y-79500000D03*
X155050000Y-79500000D03*
G04 #@! TD*
D14*
G04 #@! TO.C,U2*
X148160000Y-82965000D03*
X145620000Y-82965000D03*
X143080000Y-82965000D03*
X140540000Y-82965000D03*
X138000000Y-82965000D03*
X135460000Y-82965000D03*
X132920000Y-82965000D03*
X130380000Y-82965000D03*
X127840000Y-82965000D03*
G04 #@! TD*
D11*
G04 #@! TO.C,C15*
X129250000Y-92550000D03*
X129250000Y-94430000D03*
G04 #@! TD*
D10*
G04 #@! TO.C,D12*
X145380000Y-77500000D03*
X143620000Y-77500000D03*
G04 #@! TD*
D11*
G04 #@! TO.C,R23*
X124500000Y-91530000D03*
X124500000Y-89970000D03*
G04 #@! TD*
D10*
G04 #@! TO.C,R25*
X124470000Y-93000000D03*
X126030000Y-93000000D03*
G04 #@! TD*
G04 #@! TO.C,R26*
X142780000Y-77500000D03*
X141220000Y-77500000D03*
G04 #@! TD*
D15*
G04 #@! TO.C,P2*
X112250000Y-97740000D03*
X112250000Y-95200000D03*
X112250000Y-92660000D03*
X112250000Y-90120000D03*
X112250000Y-87580000D03*
X112250000Y-85040000D03*
D16*
X112250000Y-82500000D03*
G04 #@! TD*
D10*
G04 #@! TO.C,D13*
X115630000Y-74500000D03*
X113870000Y-74500000D03*
G04 #@! TD*
G04 #@! TO.C,D14*
X113870000Y-76500000D03*
X115630000Y-76500000D03*
G04 #@! TD*
G04 #@! TO.C,D15*
X113870000Y-78500000D03*
X115630000Y-78500000D03*
G04 #@! TD*
D17*
G04 #@! TO.C,P3*
X138999100Y-75362540D03*
X131999100Y-75362540D03*
D18*
X137999100Y-78062540D03*
X132999100Y-78062540D03*
D19*
X136799100Y-78062540D03*
X136149100Y-78062540D03*
X135499100Y-78062540D03*
X134849100Y-78062540D03*
X134199100Y-78062540D03*
G04 #@! TD*
M02*
