G04 #@! TF.GenerationSoftware,KiCad,Pcbnew,(5.0.0)*
G04 #@! TF.CreationDate,2019-03-01T17:45:54+09:00*
G04 #@! TF.ProjectId,Lipo_Alarm,4C69706F5F416C61726D2E6B69636164,rev?*
G04 #@! TF.SameCoordinates,Original*
G04 #@! TF.FileFunction,Copper,L2,Bot,Signal*
G04 #@! TF.FilePolarity,Positive*
%FSLAX46Y46*%
G04 Gerber Fmt 4.6, Leading zero omitted, Abs format (unit mm)*
G04 Created by KiCad (PCBNEW (5.0.0)) date 03/01/19 17:45:54*
%MOMM*%
%LPD*%
G01*
G04 APERTURE LIST*
G04 #@! TA.AperFunction,SMDPad,CuDef*
%ADD10R,1.000000X1.200000*%
G04 #@! TD*
G04 #@! TA.AperFunction,SMDPad,CuDef*
%ADD11R,1.200000X1.000000*%
G04 #@! TD*
G04 #@! TA.AperFunction,ComponentPad*
%ADD12O,1.524000X1.000000*%
G04 #@! TD*
G04 #@! TA.AperFunction,SMDPad,CuDef*
%ADD13R,2.600000X1.500000*%
G04 #@! TD*
G04 #@! TA.AperFunction,ComponentPad*
%ADD14O,1.500000X2.000000*%
G04 #@! TD*
G04 #@! TA.AperFunction,ComponentPad*
%ADD15O,2.032000X1.727200*%
G04 #@! TD*
G04 #@! TA.AperFunction,ComponentPad*
%ADD16R,2.032000X1.727200*%
G04 #@! TD*
G04 #@! TA.AperFunction,ComponentPad*
%ADD17O,1.000000X1.550000*%
G04 #@! TD*
G04 #@! TA.AperFunction,ComponentPad*
%ADD18O,1.250000X0.950000*%
G04 #@! TD*
G04 #@! TA.AperFunction,SMDPad,CuDef*
%ADD19R,0.400000X1.350000*%
G04 #@! TD*
G04 #@! TA.AperFunction,ViaPad*
%ADD20C,0.500000*%
G04 #@! TD*
G04 #@! TA.AperFunction,ViaPad*
%ADD21C,0.800000*%
G04 #@! TD*
G04 #@! TA.AperFunction,Conductor*
%ADD22C,0.250000*%
G04 #@! TD*
G04 #@! TA.AperFunction,Conductor*
%ADD23C,0.500000*%
G04 #@! TD*
G04 #@! TA.AperFunction,Conductor*
%ADD24C,0.300000*%
G04 #@! TD*
G04 #@! TA.AperFunction,Conductor*
%ADD25C,0.254000*%
G04 #@! TD*
G04 APERTURE END LIST*
D10*
G04 #@! TO.P,C2,1*
G04 #@! TO.N,GND*
X134700000Y-102750000D03*
G04 #@! TO.P,C2,2*
G04 #@! TO.N,/~NRST*
X132820000Y-102750000D03*
G04 #@! TD*
D11*
G04 #@! TO.P,C4,1*
G04 #@! TO.N,GND*
X136750000Y-99950000D03*
G04 #@! TO.P,C4,2*
G04 #@! TO.N,+3.3V*
X136750000Y-98070000D03*
G04 #@! TD*
G04 #@! TO.P,C5,2*
G04 #@! TO.N,+3.3V*
X143250000Y-98070000D03*
G04 #@! TO.P,C5,1*
G04 #@! TO.N,GND*
X143250000Y-99950000D03*
G04 #@! TD*
D10*
G04 #@! TO.P,C6,1*
G04 #@! TO.N,GND*
X145450000Y-90250000D03*
G04 #@! TO.P,C6,2*
G04 #@! TO.N,+3.3V*
X143570000Y-90250000D03*
G04 #@! TD*
G04 #@! TO.P,C8,2*
G04 #@! TO.N,+3.3V*
X135680000Y-90000000D03*
G04 #@! TO.P,C8,1*
G04 #@! TO.N,GND*
X133800000Y-90000000D03*
G04 #@! TD*
G04 #@! TO.P,C10,1*
G04 #@! TO.N,GND*
X133550000Y-96250000D03*
G04 #@! TO.P,C10,2*
G04 #@! TO.N,+3.3V*
X135430000Y-96250000D03*
G04 #@! TD*
G04 #@! TO.P,D8,2*
G04 #@! TO.N,GND*
X145380000Y-80500000D03*
G04 #@! TO.P,D8,1*
G04 #@! TO.N,Net-(D8-Pad1)*
X143620000Y-80500000D03*
G04 #@! TD*
G04 #@! TO.P,D9,1*
G04 #@! TO.N,Net-(D9-Pad1)*
X123370000Y-80500000D03*
G04 #@! TO.P,D9,2*
G04 #@! TO.N,GND*
X125130000Y-80500000D03*
G04 #@! TD*
G04 #@! TO.P,D10,2*
G04 #@! TO.N,GND*
X125380000Y-77250000D03*
G04 #@! TO.P,D10,1*
G04 #@! TO.N,Net-(D10-Pad1)*
X123620000Y-77250000D03*
G04 #@! TD*
D12*
G04 #@! TO.P,P1,1*
G04 #@! TO.N,GND*
X155500000Y-85500000D03*
G04 #@! TO.P,P1,2*
G04 #@! TO.N,Net-(JP1-Pad2)*
X155500000Y-87000000D03*
G04 #@! TO.P,P1,3*
G04 #@! TO.N,/SWCLK*
X155500000Y-88500000D03*
G04 #@! TO.P,P1,4*
G04 #@! TO.N,/SWDIO*
X155500000Y-90000000D03*
G04 #@! TO.P,P1,5*
G04 #@! TO.N,/~NRST*
X155500000Y-91500000D03*
G04 #@! TO.P,P1,6*
G04 #@! TO.N,Net-(P1-Pad6)*
X155500000Y-93000000D03*
G04 #@! TD*
D11*
G04 #@! TO.P,R3,2*
G04 #@! TO.N,/1cell_batt*
X116500000Y-83470000D03*
G04 #@! TO.P,R3,1*
G04 #@! TO.N,/ADC12_IN10*
X116500000Y-85030000D03*
G04 #@! TD*
D10*
G04 #@! TO.P,R4,1*
G04 #@! TO.N,GND*
X120780000Y-85000000D03*
G04 #@! TO.P,R4,2*
G04 #@! TO.N,/ADC12_IN10*
X119220000Y-85000000D03*
G04 #@! TD*
D11*
G04 #@! TO.P,R7,2*
G04 #@! TO.N,/2cell_batt*
X116500000Y-86720000D03*
G04 #@! TO.P,R7,1*
G04 #@! TO.N,/ADC12_IN11*
X116500000Y-88280000D03*
G04 #@! TD*
D10*
G04 #@! TO.P,R8,1*
G04 #@! TO.N,GND*
X120780000Y-88250000D03*
G04 #@! TO.P,R8,2*
G04 #@! TO.N,/ADC12_IN11*
X119220000Y-88250000D03*
G04 #@! TD*
D11*
G04 #@! TO.P,R10,1*
G04 #@! TO.N,/ADC12_IN12*
X116500000Y-91280000D03*
G04 #@! TO.P,R10,2*
G04 #@! TO.N,/3cell_batt*
X116500000Y-89720000D03*
G04 #@! TD*
D10*
G04 #@! TO.P,R11,2*
G04 #@! TO.N,/ADC12_IN12*
X119220000Y-91250000D03*
G04 #@! TO.P,R11,1*
G04 #@! TO.N,GND*
X120780000Y-91250000D03*
G04 #@! TD*
D11*
G04 #@! TO.P,R12,1*
G04 #@! TO.N,/ADC12_IN13*
X116500000Y-94280000D03*
G04 #@! TO.P,R12,2*
G04 #@! TO.N,/4cell_batt*
X116500000Y-92720000D03*
G04 #@! TD*
D10*
G04 #@! TO.P,R13,2*
G04 #@! TO.N,/ADC12_IN13*
X119220000Y-94250000D03*
G04 #@! TO.P,R13,1*
G04 #@! TO.N,GND*
X120780000Y-94250000D03*
G04 #@! TD*
G04 #@! TO.P,R16,2*
G04 #@! TO.N,+BATT*
X120970000Y-80500000D03*
G04 #@! TO.P,R16,1*
G04 #@! TO.N,Net-(D9-Pad1)*
X122530000Y-80500000D03*
G04 #@! TD*
G04 #@! TO.P,R17,1*
G04 #@! TO.N,Net-(D10-Pad1)*
X122780000Y-77250000D03*
G04 #@! TO.P,R17,2*
G04 #@! TO.N,+3.3V*
X121220000Y-77250000D03*
G04 #@! TD*
D11*
G04 #@! TO.P,R18,2*
G04 #@! TO.N,/5cell_batt*
X116500000Y-95720000D03*
G04 #@! TO.P,R18,1*
G04 #@! TO.N,/ADC12_IN0*
X116500000Y-97280000D03*
G04 #@! TD*
D10*
G04 #@! TO.P,R19,1*
G04 #@! TO.N,GND*
X120780000Y-97250000D03*
G04 #@! TO.P,R19,2*
G04 #@! TO.N,/ADC12_IN0*
X119220000Y-97250000D03*
G04 #@! TD*
G04 #@! TO.P,R20,2*
G04 #@! TO.N,Net-(D8-Pad1)*
X142780000Y-80500000D03*
G04 #@! TO.P,R20,1*
G04 #@! TO.N,/PB8*
X141220000Y-80500000D03*
G04 #@! TD*
D11*
G04 #@! TO.P,R21,1*
G04 #@! TO.N,/ADC12_IN1*
X116500000Y-100280000D03*
G04 #@! TO.P,R21,2*
G04 #@! TO.N,+BATT*
X116500000Y-98720000D03*
G04 #@! TD*
D10*
G04 #@! TO.P,R22,1*
G04 #@! TO.N,GND*
X120780000Y-100250000D03*
G04 #@! TO.P,R22,2*
G04 #@! TO.N,/ADC12_IN1*
X119220000Y-100250000D03*
G04 #@! TD*
D13*
G04 #@! TO.P,SW2,2*
G04 #@! TO.N,GND*
X155050000Y-75750000D03*
G04 #@! TO.P,SW2,1*
G04 #@! TO.N,/PB5*
X149450000Y-75750000D03*
G04 #@! TD*
G04 #@! TO.P,SW3,1*
G04 #@! TO.N,/PB4*
X149450000Y-79500000D03*
G04 #@! TO.P,SW3,2*
G04 #@! TO.N,GND*
X155050000Y-79500000D03*
G04 #@! TD*
D14*
G04 #@! TO.P,U2,9*
G04 #@! TO.N,+3.3V*
X148160000Y-82965000D03*
G04 #@! TO.P,U2,8*
G04 #@! TO.N,/I2C1_SCL*
X145620000Y-82965000D03*
G04 #@! TO.P,U2,7*
G04 #@! TO.N,/I2C1_SDA*
X143080000Y-82965000D03*
G04 #@! TO.P,U2,6*
G04 #@! TO.N,GND*
X140540000Y-82965000D03*
G04 #@! TO.P,U2,5*
G04 #@! TO.N,+3.3V*
X138000000Y-82965000D03*
G04 #@! TO.P,U2,4*
G04 #@! TO.N,Net-(C13-Pad2)*
X135460000Y-82965000D03*
G04 #@! TO.P,U2,3*
G04 #@! TO.N,Net-(C13-Pad1)*
X132920000Y-82965000D03*
G04 #@! TO.P,U2,2*
G04 #@! TO.N,Net-(C12-Pad1)*
X130380000Y-82965000D03*
G04 #@! TO.P,U2,1*
G04 #@! TO.N,Net-(U2-Pad1)*
X127840000Y-82965000D03*
G04 #@! TD*
D11*
G04 #@! TO.P,C15,1*
G04 #@! TO.N,GND*
X129250000Y-92550000D03*
G04 #@! TO.P,C15,2*
G04 #@! TO.N,Net-(C15-Pad2)*
X129250000Y-94430000D03*
G04 #@! TD*
D10*
G04 #@! TO.P,D12,2*
G04 #@! TO.N,GND*
X145380000Y-77500000D03*
G04 #@! TO.P,D12,1*
G04 #@! TO.N,Net-(D12-Pad1)*
X143620000Y-77500000D03*
G04 #@! TD*
D11*
G04 #@! TO.P,R23,1*
G04 #@! TO.N,Net-(R23-Pad1)*
X124500000Y-91530000D03*
G04 #@! TO.P,R23,2*
G04 #@! TO.N,GND*
X124500000Y-89970000D03*
G04 #@! TD*
D10*
G04 #@! TO.P,R25,2*
G04 #@! TO.N,Net-(R23-Pad1)*
X124470000Y-93000000D03*
G04 #@! TO.P,R25,1*
G04 #@! TO.N,+3.3V*
X126030000Y-93000000D03*
G04 #@! TD*
G04 #@! TO.P,R26,2*
G04 #@! TO.N,Net-(D12-Pad1)*
X142780000Y-77500000D03*
G04 #@! TO.P,R26,1*
G04 #@! TO.N,/PB9*
X141220000Y-77500000D03*
G04 #@! TD*
D15*
G04 #@! TO.P,P2,7*
G04 #@! TO.N,+BATT*
X112250000Y-97740000D03*
G04 #@! TO.P,P2,6*
G04 #@! TO.N,/5cell_batt*
X112250000Y-95200000D03*
G04 #@! TO.P,P2,5*
G04 #@! TO.N,/4cell_batt*
X112250000Y-92660000D03*
G04 #@! TO.P,P2,4*
G04 #@! TO.N,/3cell_batt*
X112250000Y-90120000D03*
G04 #@! TO.P,P2,3*
G04 #@! TO.N,/2cell_batt*
X112250000Y-87580000D03*
G04 #@! TO.P,P2,2*
G04 #@! TO.N,/1cell_batt*
X112250000Y-85040000D03*
D16*
G04 #@! TO.P,P2,1*
G04 #@! TO.N,GND*
X112250000Y-82500000D03*
G04 #@! TD*
D10*
G04 #@! TO.P,D13,1*
G04 #@! TO.N,+3.3V*
X115630000Y-74500000D03*
G04 #@! TO.P,D13,2*
G04 #@! TO.N,Net-(D13-Pad2)*
X113870000Y-74500000D03*
G04 #@! TD*
G04 #@! TO.P,D14,2*
G04 #@! TO.N,Net-(D14-Pad2)*
X113870000Y-76500000D03*
G04 #@! TO.P,D14,1*
G04 #@! TO.N,+3.3V*
X115630000Y-76500000D03*
G04 #@! TD*
G04 #@! TO.P,D15,2*
G04 #@! TO.N,Net-(D15-Pad2)*
X113870000Y-78500000D03*
G04 #@! TO.P,D15,1*
G04 #@! TO.N,+3.3V*
X115630000Y-78500000D03*
G04 #@! TD*
D17*
G04 #@! TO.P,P3,6*
G04 #@! TO.N,Net-(P3-Pad6)*
X138999100Y-75362540D03*
X131999100Y-75362540D03*
D18*
X137999100Y-78062540D03*
X132999100Y-78062540D03*
D19*
G04 #@! TO.P,P3,5*
G04 #@! TO.N,GND*
X136799100Y-78062540D03*
G04 #@! TO.P,P3,4*
G04 #@! TO.N,Net-(P3-Pad4)*
X136149100Y-78062540D03*
G04 #@! TO.P,P3,3*
G04 #@! TO.N,/D+*
X135499100Y-78062540D03*
G04 #@! TO.P,P3,2*
G04 #@! TO.N,/D-*
X134849100Y-78062540D03*
G04 #@! TO.P,P3,1*
G04 #@! TO.N,Net-(P3-Pad1)*
X134199100Y-78062540D03*
G04 #@! TD*
D20*
G04 #@! TO.N,GND*
X125000000Y-90000000D03*
X117070000Y-73500000D03*
X139700000Y-80750000D03*
X120780000Y-100480002D03*
X120780000Y-97019998D03*
X118000000Y-92750000D03*
X113500000Y-96750000D03*
X114250000Y-94500000D03*
X113500000Y-91250000D03*
X113500000Y-88750000D03*
X113750000Y-85750000D03*
X114500000Y-100250000D03*
X146250000Y-89000000D03*
X146750000Y-86250000D03*
X144250000Y-84500000D03*
X141750000Y-84250000D03*
X139250000Y-77000000D03*
X134000000Y-79500000D03*
X131000000Y-78000000D03*
X129250000Y-77750000D03*
X130750000Y-75750000D03*
X128750000Y-74000000D03*
X114250000Y-81750000D03*
X125000000Y-96750000D03*
X125000000Y-94500000D03*
X127000000Y-94250000D03*
X127000000Y-97750000D03*
X121750000Y-102500000D03*
X124750000Y-100000000D03*
X118000000Y-95750000D03*
X118000000Y-101750000D03*
X118000000Y-86750000D03*
X118000000Y-89750000D03*
X118000000Y-83500000D03*
X122250000Y-85000000D03*
X150250000Y-84750000D03*
X153750000Y-88250000D03*
X153250000Y-84750000D03*
X153750000Y-92500000D03*
X152500000Y-94500000D03*
X150500000Y-96500000D03*
X146500000Y-95750000D03*
X146750000Y-99750000D03*
X146500000Y-103000000D03*
X134000000Y-100500000D03*
X135250000Y-98000000D03*
X137250000Y-96500000D03*
X137250000Y-93750000D03*
X141000000Y-91000000D03*
X144000000Y-91750000D03*
X141750000Y-98250000D03*
X138250000Y-98250000D03*
X140000000Y-96500000D03*
X125500000Y-87750000D03*
X122000000Y-88250000D03*
X122000000Y-90750000D03*
X121250000Y-83250000D03*
X111750000Y-73500000D03*
X109500000Y-75250000D03*
X109500000Y-77500000D03*
X109500000Y-79750000D03*
X109500000Y-81750000D03*
X109500000Y-84000000D03*
X109500000Y-86250000D03*
X109500000Y-88500000D03*
X109500000Y-90750000D03*
X109500000Y-93000000D03*
X109500000Y-95500000D03*
X109500000Y-98000000D03*
X111750000Y-99500000D03*
X109500000Y-100750000D03*
X109500000Y-103500000D03*
X111500000Y-105500000D03*
X114250000Y-105500000D03*
X114250000Y-105500000D03*
X114250000Y-105500000D03*
X117000000Y-105500000D03*
X120000000Y-105500000D03*
X122000000Y-105500000D03*
X112750000Y-102750000D03*
X116500000Y-103500000D03*
X120000000Y-103750000D03*
X112250000Y-80250000D03*
X116750000Y-81750000D03*
X124000000Y-79000000D03*
X122250000Y-78500000D03*
X124250000Y-75750000D03*
X124000000Y-73750000D03*
X126250000Y-82500000D03*
X131750000Y-81750000D03*
X134250000Y-82000000D03*
X141750000Y-81750000D03*
X127500000Y-73250000D03*
X132000000Y-73250000D03*
X133500000Y-76000000D03*
X136250000Y-76500000D03*
X135500000Y-73250000D03*
X141000000Y-73250000D03*
X146000000Y-73250000D03*
X148750000Y-73250000D03*
X153250000Y-73250000D03*
X155250000Y-73250000D03*
X157750000Y-74500000D03*
X158250000Y-76750000D03*
X158250000Y-79000000D03*
X158250000Y-81500000D03*
X158250000Y-84500000D03*
X158250000Y-88000000D03*
X158250000Y-90500000D03*
X158250000Y-92750000D03*
X158250000Y-94750000D03*
X158250000Y-96750000D03*
X157000000Y-96750000D03*
X158250000Y-98000000D03*
X156750000Y-94500000D03*
X156750000Y-90750000D03*
X156750000Y-89250000D03*
X156750000Y-87750000D03*
X155500000Y-84000000D03*
X151000000Y-81250000D03*
X152250000Y-83250000D03*
X149000000Y-87000000D03*
X149000000Y-89500000D03*
X144250000Y-88250000D03*
X158250000Y-103250000D03*
X157250000Y-105500000D03*
X153750000Y-105750000D03*
X153000000Y-103750000D03*
X150250000Y-105750000D03*
X150250000Y-103750000D03*
X148000000Y-103750000D03*
X148000000Y-105750000D03*
X145500000Y-105750000D03*
X144500000Y-102750000D03*
X141500000Y-102750000D03*
X141250000Y-101000000D03*
X138750000Y-101000000D03*
X136250000Y-101000000D03*
X133500000Y-98750000D03*
X131250000Y-101250000D03*
X129500000Y-100750000D03*
X130750000Y-105500000D03*
X133250000Y-105750000D03*
X132250000Y-104000000D03*
X136000000Y-105750000D03*
X136000000Y-104000000D03*
X139000000Y-105750000D03*
X140000000Y-104000000D03*
X142250000Y-105750000D03*
X155000000Y-81250000D03*
X149250000Y-78000000D03*
X146750000Y-78250000D03*
X146500000Y-75250000D03*
X144750000Y-76250000D03*
X141500000Y-76250000D03*
X138000000Y-73250000D03*
X137500000Y-76750000D03*
X131750000Y-79750000D03*
X129500000Y-79250000D03*
X127250000Y-77250000D03*
X127000000Y-80750000D03*
X117000000Y-79750000D03*
X133500000Y-88750000D03*
X132500000Y-90500000D03*
X130500000Y-102750000D03*
X131250000Y-95500000D03*
X153000000Y-97750000D03*
X148500000Y-98500000D03*
X155750000Y-101000000D03*
X155750000Y-98500000D03*
X157250000Y-100500000D03*
X148250000Y-101250000D03*
X153000000Y-101750000D03*
X146500000Y-97750000D03*
X156750000Y-82500000D03*
X153500000Y-82000000D03*
X148750000Y-85000000D03*
X152000000Y-86250000D03*
X124000000Y-85750000D03*
X121500000Y-86250000D03*
X115000000Y-80000000D03*
X112500000Y-77750000D03*
X112500000Y-75500000D03*
X111000000Y-84000000D03*
X111000000Y-86250000D03*
X111000000Y-88750000D03*
X111000000Y-91500000D03*
X111000000Y-94000000D03*
X111000000Y-96500000D03*
X139000000Y-95250000D03*
X145250000Y-98500000D03*
X124000000Y-88750000D03*
X140000000Y-98250000D03*
X136750000Y-95000000D03*
X136500000Y-92000000D03*
X136500000Y-79500000D03*
X147500000Y-87750000D03*
X145750000Y-87750000D03*
X124250000Y-82750000D03*
X125750000Y-84000000D03*
X124250000Y-86750000D03*
X125750000Y-86250000D03*
X122000000Y-82000000D03*
X154500000Y-99750000D03*
X150000000Y-102000000D03*
X121750000Y-75000000D03*
X129100000Y-83850000D03*
X143750000Y-96750000D03*
X142750000Y-96250000D03*
X142750000Y-92250000D03*
X144000000Y-94250000D03*
X144000000Y-95500000D03*
X142750000Y-94500000D03*
X141000000Y-94500000D03*
X138500000Y-92000000D03*
X137000000Y-89500000D03*
X140250000Y-89500000D03*
X139250000Y-90500000D03*
X140000000Y-93750000D03*
X141000000Y-92250000D03*
X135000000Y-94500000D03*
X134750000Y-99250000D03*
X133500000Y-86500000D03*
X127250000Y-79750000D03*
X124250000Y-81750000D03*
X123000000Y-79250000D03*
X122500000Y-73250000D03*
X115250000Y-73250000D03*
X113250000Y-73250000D03*
X111000000Y-75500000D03*
X111000000Y-77500000D03*
X111000000Y-80000000D03*
X113500000Y-80750000D03*
X110500000Y-82500000D03*
X115000000Y-82500000D03*
X119000000Y-82000000D03*
X111500000Y-101750000D03*
X114750000Y-103750000D03*
X116000000Y-101500000D03*
X119750000Y-102250000D03*
X155000000Y-94500000D03*
X156750000Y-92250000D03*
X156750000Y-86250000D03*
X150000000Y-94500000D03*
X151250000Y-93500000D03*
X135000000Y-76000000D03*
X143500000Y-75000000D03*
X141000000Y-75000000D03*
X152250000Y-75250000D03*
X152250000Y-80250000D03*
X137250000Y-74250000D03*
X134500000Y-74500000D03*
X130000000Y-74500000D03*
X144330000Y-81780000D03*
X149110000Y-81220000D03*
X151670000Y-84540000D03*
X140200000Y-78420000D03*
X148750000Y-92500000D03*
X153250000Y-95500000D03*
X147750000Y-85000000D03*
X154000000Y-86000000D03*
X150250000Y-77250000D03*
X151000000Y-78000000D03*
X151500000Y-79500000D03*
X151500000Y-75750000D03*
X150750000Y-74250000D03*
X148250000Y-74250000D03*
X143000000Y-76250000D03*
X131750000Y-78500000D03*
X128250000Y-78500000D03*
X124250000Y-97750000D03*
X130500000Y-94250000D03*
X115250000Y-97750000D03*
X114000000Y-97750000D03*
X115250000Y-96750000D03*
X113500000Y-93750000D03*
X115250000Y-93750000D03*
X114750000Y-91750000D03*
X115000000Y-89250000D03*
X114750000Y-87500000D03*
X115000000Y-91000000D03*
X114250000Y-84500000D03*
X115000000Y-85750000D03*
X117500000Y-82500000D03*
X116000000Y-82250000D03*
X113250000Y-79750000D03*
X112500000Y-79000000D03*
X135750000Y-93750000D03*
X135000000Y-92000000D03*
X142500000Y-90250000D03*
X137750000Y-90750000D03*
X138500000Y-89750000D03*
X145000000Y-88750000D03*
X148500000Y-90250000D03*
X151750000Y-82250000D03*
X148250000Y-86250000D03*
X149750000Y-81750000D03*
X146750000Y-77000000D03*
X140250000Y-76250000D03*
X140250000Y-74250000D03*
X130750000Y-79250000D03*
X121750000Y-76000000D03*
X122750000Y-86250000D03*
X113000000Y-100500000D03*
X111250000Y-103750000D03*
X113000000Y-104500000D03*
X114500000Y-102000000D03*
X118500000Y-104250000D03*
X118250000Y-103000000D03*
X121250000Y-103750000D03*
X110500000Y-99750000D03*
X110000000Y-96750000D03*
X110000000Y-94250000D03*
X110000000Y-91500000D03*
X110000000Y-89750000D03*
X110000000Y-87500000D03*
X110000000Y-85250000D03*
X145250000Y-74750000D03*
X143250000Y-73250000D03*
X139250000Y-73750000D03*
X135500000Y-75250000D03*
X133250000Y-74750000D03*
X137000000Y-75750000D03*
X129750000Y-73250000D03*
D21*
G04 #@! TO.N,/~NRST*
X132820000Y-102750000D03*
D20*
X143840000Y-92960000D03*
X134930000Y-93250000D03*
D21*
G04 #@! TO.N,+3.3V*
X120300000Y-73690000D03*
X118250000Y-79530000D03*
D20*
X143570000Y-90250000D03*
X143250000Y-98070000D03*
X136750000Y-98070000D03*
X135430000Y-96250000D03*
X135680000Y-90000000D03*
D21*
X137820000Y-80750000D03*
X128320000Y-80750000D03*
X155000000Y-103000000D03*
X126030000Y-93000000D03*
G04 #@! TO.N,+BATT*
X116500000Y-98720000D03*
X119380000Y-83310000D03*
G04 #@! TO.N,/1cell_batt*
X116500000Y-83470000D03*
G04 #@! TO.N,/2cell_batt*
X116500000Y-86720000D03*
G04 #@! TO.N,/3cell_batt*
X116500000Y-89720000D03*
G04 #@! TO.N,/4cell_batt*
X116500000Y-92720000D03*
G04 #@! TO.N,/5cell_batt*
X116500000Y-95720000D03*
D20*
G04 #@! TO.N,/I2C1_SCL*
X139150000Y-86530000D03*
G04 #@! TO.N,/ADC12_IN10*
X123260000Y-87000000D03*
G04 #@! TO.N,/I2C1_SDA*
X138343604Y-86461388D03*
G04 #@! TO.N,/ADC12_IN11*
X122930000Y-89400000D03*
G04 #@! TO.N,/ADC12_IN12*
X122620000Y-91310000D03*
G04 #@! TO.N,/ADC12_IN13*
X121040000Y-93055000D03*
G04 #@! TO.N,/ADC12_IN0*
X131300000Y-98260000D03*
X131110000Y-98440000D03*
G04 #@! TO.N,/ADC12_IN1*
X131900000Y-99040000D03*
D21*
G04 #@! TO.N,Net-(C15-Pad2)*
X128950000Y-94365000D03*
G04 #@! TO.N,Net-(R23-Pad1)*
X124470000Y-93000000D03*
G04 #@! TO.N,Net-(R24-Pad2)*
X123050000Y-95635000D03*
X128450000Y-96905000D03*
D20*
G04 #@! TO.N,/PB4*
X146890000Y-84640000D03*
X149280000Y-79500000D03*
G04 #@! TO.N,/PB8*
X137250000Y-85570000D03*
G04 #@! TO.N,/PB9*
X136610000Y-81580000D03*
G04 #@! TO.N,Net-(D13-Pad2)*
X113970000Y-74500000D03*
G04 #@! TO.N,Net-(D14-Pad2)*
X113970000Y-76500000D03*
G04 #@! TO.N,Net-(D15-Pad2)*
X113870000Y-78500000D03*
G04 #@! TO.N,/D+*
X135500000Y-76970000D03*
G04 #@! TO.N,/D-*
X128140000Y-76780000D03*
G04 #@! TO.N,/PB5*
X146780000Y-80770000D03*
X149280000Y-75750000D03*
G04 #@! TO.N,/USART3_TX*
X142240000Y-87280000D03*
X136150000Y-86150000D03*
X134860000Y-84840000D03*
X125130000Y-84840000D03*
G04 #@! TO.N,/USART3_RX*
X141570000Y-89290000D03*
X135650000Y-86710000D03*
X134582525Y-85642525D03*
X124830000Y-85640000D03*
G04 #@! TD*
D22*
G04 #@! TO.N,GND*
X120780000Y-100250000D02*
X120780000Y-100480002D01*
X120780000Y-97250000D02*
X120780000Y-97019998D01*
G04 #@! TO.N,/~NRST*
X134576447Y-93250000D02*
X132510000Y-95316447D01*
X132820000Y-101900000D02*
X132820000Y-102750000D01*
X132510000Y-101590000D02*
X132820000Y-101900000D01*
X132510000Y-95316447D02*
X132510000Y-101590000D01*
X154488000Y-91500000D02*
X153938000Y-90950000D01*
X155500000Y-91500000D02*
X154488000Y-91500000D01*
X153938000Y-90950000D02*
X147490000Y-90950000D01*
X147490000Y-90950000D02*
X145480000Y-92960000D01*
X145480000Y-92960000D02*
X143840000Y-92960000D01*
X134930000Y-93250000D02*
X134576447Y-93250000D01*
D23*
G04 #@! TO.N,+3.3V*
X120220000Y-73770000D02*
X120300000Y-73690000D01*
X120300000Y-73690000D02*
X120290000Y-73690000D01*
X119480000Y-74500000D02*
X115630000Y-74500000D01*
X120290000Y-73690000D02*
X119480000Y-74500000D01*
X115630000Y-76500000D02*
X117480000Y-76500000D01*
X115630000Y-78350000D02*
X115630000Y-78500000D01*
X117480000Y-76500000D02*
X115630000Y-78350000D01*
X120300000Y-76330000D02*
X121220000Y-77250000D01*
X120300000Y-73690000D02*
X120300000Y-76330000D01*
X118250000Y-75730000D02*
X118810000Y-75170000D01*
X118250000Y-79530000D02*
X118250000Y-75730000D01*
X117480000Y-76500000D02*
X118810000Y-75170000D01*
X118810000Y-75170000D02*
X119480000Y-74500000D01*
X126030000Y-93000000D02*
X126030000Y-92900000D01*
X138000000Y-83215000D02*
X138000000Y-82965000D01*
X135430000Y-96750000D02*
X136750000Y-98070000D01*
X135430000Y-96250000D02*
X135430000Y-96750000D01*
X135680000Y-90600000D02*
X135680000Y-90000000D01*
X143250000Y-98070000D02*
X143150000Y-98070000D01*
X137820000Y-80750000D02*
X136820000Y-80750000D01*
X136820000Y-80750000D02*
X128320000Y-80750000D01*
X143250000Y-98070000D02*
X143250000Y-98120000D01*
X143250000Y-98120000D02*
X148130000Y-103000000D01*
X148130000Y-103000000D02*
X155000000Y-103000000D01*
X126030000Y-91900000D02*
X126030000Y-93000000D01*
X126729999Y-91200001D02*
X126030000Y-91900000D01*
X134010001Y-91200001D02*
X126729999Y-91200001D01*
X134805000Y-88025000D02*
X134805000Y-86410000D01*
X135680000Y-88900000D02*
X134805000Y-88025000D01*
X135680000Y-90000000D02*
X135680000Y-88900000D01*
X134805000Y-86410000D02*
X138000000Y-83215000D01*
X135680000Y-90100000D02*
X135680000Y-90000000D01*
X137440000Y-91860000D02*
X135680000Y-90100000D01*
X137440000Y-92360000D02*
X137440000Y-91860000D01*
X137396002Y-91860000D02*
X137440000Y-91860000D01*
X136736003Y-91200001D02*
X137396002Y-91860000D01*
X134010001Y-91200001D02*
X136736003Y-91200001D01*
X143570000Y-90350000D02*
X143570000Y-90250000D01*
X141850000Y-92070000D02*
X143570000Y-90350000D01*
X141850000Y-96770000D02*
X141850000Y-92070000D01*
X141850000Y-96770000D02*
X137440000Y-92360000D01*
X143150000Y-98070000D02*
X141850000Y-96770000D01*
X143150000Y-98070000D02*
X142570000Y-97490000D01*
X137330000Y-97490000D02*
X136750000Y-98070000D01*
X142570000Y-97490000D02*
X137330000Y-97490000D01*
G04 #@! TO.N,+BATT*
X113230000Y-98720000D02*
X116500000Y-98720000D01*
X112250000Y-97740000D02*
X113230000Y-98720000D01*
X119380000Y-83310000D02*
X119970000Y-82720000D01*
X120970000Y-81720000D02*
X119380000Y-83310000D01*
X120970000Y-80500000D02*
X120970000Y-81720000D01*
G04 #@! TO.N,/1cell_batt*
X113820000Y-83470000D02*
X116500000Y-83470000D01*
X112250000Y-85040000D02*
X113820000Y-83470000D01*
G04 #@! TO.N,/2cell_batt*
X113110000Y-86720000D02*
X116500000Y-86720000D01*
X112250000Y-87580000D02*
X113110000Y-86720000D01*
G04 #@! TO.N,/3cell_batt*
X116100000Y-90120000D02*
X116500000Y-89720000D01*
X112250000Y-90120000D02*
X116100000Y-90120000D01*
G04 #@! TO.N,/4cell_batt*
X112310000Y-92720000D02*
X112250000Y-92660000D01*
X116500000Y-92720000D02*
X112310000Y-92720000D01*
G04 #@! TO.N,/5cell_batt*
X112770000Y-95720000D02*
X116500000Y-95720000D01*
X112250000Y-95200000D02*
X112770000Y-95720000D01*
D24*
G04 #@! TO.N,Net-(D8-Pad1)*
X142780000Y-80500000D02*
X143620000Y-80500000D01*
D23*
G04 #@! TO.N,Net-(D9-Pad1)*
X123370000Y-80500000D02*
X122530000Y-80500000D01*
G04 #@! TO.N,Net-(D10-Pad1)*
X122780000Y-77250000D02*
X123620000Y-77250000D01*
D22*
G04 #@! TO.N,/I2C1_SCL*
X145620000Y-84580000D02*
X145620000Y-82965000D01*
X144710000Y-85490000D02*
X145620000Y-84580000D01*
X139836447Y-85490000D02*
X144710000Y-85490000D01*
X139150000Y-86530000D02*
X139150000Y-86176447D01*
X139150000Y-86176447D02*
X139836447Y-85490000D01*
D23*
G04 #@! TO.N,/ADC12_IN10*
X119190000Y-85030000D02*
X119220000Y-85000000D01*
X116500000Y-85030000D02*
X119190000Y-85030000D01*
D22*
X119220000Y-85000000D02*
X119220000Y-85180000D01*
X121040000Y-87000000D02*
X121330000Y-87000000D01*
X119220000Y-85180000D02*
X121040000Y-87000000D01*
X123260000Y-87000000D02*
X121330000Y-87000000D01*
G04 #@! TO.N,/I2C1_SDA*
X143080000Y-84250000D02*
X143080000Y-82965000D01*
X142370000Y-84960000D02*
X143080000Y-84250000D01*
X139360000Y-84960000D02*
X142370000Y-84960000D01*
X138593603Y-85726397D02*
X139360000Y-84960000D01*
X138343604Y-86461388D02*
X138593603Y-86211389D01*
X138593603Y-86211389D02*
X138593603Y-85726397D01*
D23*
G04 #@! TO.N,/ADC12_IN11*
X116530000Y-88250000D02*
X116500000Y-88280000D01*
X119220000Y-88250000D02*
X116530000Y-88250000D01*
D22*
X119220000Y-88350000D02*
X119220000Y-88250000D01*
X120270000Y-89400000D02*
X119220000Y-88350000D01*
X122930000Y-89400000D02*
X120270000Y-89400000D01*
D23*
G04 #@! TO.N,/ADC12_IN12*
X119190000Y-91280000D02*
X119220000Y-91250000D01*
X116500000Y-91280000D02*
X119190000Y-91280000D01*
D22*
X122620000Y-91310000D02*
X121450000Y-92480000D01*
X119220000Y-91350000D02*
X119220000Y-91250000D01*
X120350000Y-92480000D02*
X119220000Y-91350000D01*
X121450000Y-92480000D02*
X120350000Y-92480000D01*
D23*
G04 #@! TO.N,/ADC12_IN13*
X119190000Y-94280000D02*
X119220000Y-94250000D01*
X116500000Y-94280000D02*
X119190000Y-94280000D01*
D22*
X120415000Y-93055000D02*
X119220000Y-94250000D01*
X121040000Y-93055000D02*
X120415000Y-93055000D01*
D23*
G04 #@! TO.N,/ADC12_IN0*
X116530000Y-97250000D02*
X116500000Y-97280000D01*
X119220000Y-97250000D02*
X116530000Y-97250000D01*
D22*
X119220000Y-97250000D02*
X119220000Y-97260000D01*
X119220000Y-97375002D02*
X120104998Y-98260000D01*
X119220000Y-97260000D02*
X119220000Y-97375002D01*
X130820000Y-98260000D02*
X131300000Y-98260000D01*
X120284998Y-98440000D02*
X120104998Y-98260000D01*
X131110000Y-98440000D02*
X120284998Y-98440000D01*
D23*
G04 #@! TO.N,/ADC12_IN1*
X119190000Y-100280000D02*
X119220000Y-100250000D01*
X116500000Y-100280000D02*
X119190000Y-100280000D01*
D22*
X130906447Y-99040000D02*
X124460000Y-99040000D01*
X124460000Y-99040000D02*
X121770000Y-101730000D01*
X119220000Y-100350000D02*
X119220000Y-100250000D01*
X120600000Y-101730000D02*
X119220000Y-100350000D01*
X121770000Y-101730000D02*
X120600000Y-101730000D01*
X130906447Y-99040000D02*
X131900000Y-99040000D01*
D24*
G04 #@! TO.N,Net-(D12-Pad1)*
X142780000Y-77500000D02*
X143620000Y-77500000D01*
D23*
G04 #@! TO.N,Net-(R23-Pad1)*
X124470000Y-91560000D02*
X124500000Y-91530000D01*
X124470000Y-93000000D02*
X124470000Y-91560000D01*
G04 #@! TO.N,Net-(R24-Pad2)*
X127975000Y-96905000D02*
X128450000Y-96905000D01*
X126705000Y-95635000D02*
X127975000Y-96905000D01*
X123050000Y-95635000D02*
X126705000Y-95635000D01*
D22*
G04 #@! TO.N,/PB4*
X147900000Y-79500000D02*
X149450000Y-79500000D01*
X147400000Y-80000000D02*
X147900000Y-79500000D01*
X147400000Y-81000000D02*
X147400000Y-80000000D01*
X146890000Y-81510000D02*
X147400000Y-81000000D01*
X146890000Y-84640000D02*
X146890000Y-81510000D01*
G04 #@! TO.N,/PB8*
X141220000Y-80600000D02*
X141220000Y-80500000D01*
X140470000Y-81350000D02*
X141220000Y-80600000D01*
X140060000Y-81350000D02*
X140470000Y-81350000D01*
X139260000Y-82150000D02*
X140060000Y-81350000D01*
X139260000Y-83560000D02*
X139260000Y-82150000D01*
X137250000Y-85570000D02*
X139260000Y-83560000D01*
G04 #@! TO.N,/PB9*
X140090000Y-77500000D02*
X141220000Y-77500000D01*
X136963553Y-81580000D02*
X137068552Y-81475001D01*
X137068552Y-81475001D02*
X138344999Y-81475001D01*
X138344999Y-81475001D02*
X139060000Y-80760000D01*
X139060000Y-80760000D02*
X139060000Y-78530000D01*
X136610000Y-81580000D02*
X136963553Y-81580000D01*
X139060000Y-78530000D02*
X140090000Y-77500000D01*
G04 #@! TO.N,/D+*
X135499100Y-78062540D02*
X135499100Y-76970900D01*
X135499100Y-76970900D02*
X135500000Y-76970000D01*
G04 #@! TO.N,/D-*
X134849100Y-77137540D02*
X134850000Y-77136640D01*
X134849100Y-78062540D02*
X134849100Y-77137540D01*
X134849100Y-77137540D02*
X134849100Y-77089100D01*
X134849100Y-77089100D02*
X134540000Y-76780000D01*
X134540000Y-76780000D02*
X128140000Y-76780000D01*
G04 #@! TO.N,/PB5*
X146780000Y-79420000D02*
X146780000Y-80770000D01*
X149450000Y-75750000D02*
X149450000Y-76750000D01*
X149450000Y-76750000D02*
X146780000Y-79420000D01*
G04 #@! TO.N,/USART3_TX*
X142240000Y-87280000D02*
X137280000Y-87280000D01*
X137280000Y-87280000D02*
X136150000Y-86150000D01*
X134860000Y-84840000D02*
X134506447Y-84840000D01*
X134506447Y-84840000D02*
X125130000Y-84840000D01*
G04 #@! TO.N,/USART3_RX*
X141570000Y-88936447D02*
X140453553Y-87820000D01*
X141570000Y-89290000D02*
X141570000Y-88936447D01*
X140453553Y-87820000D02*
X136760000Y-87820000D01*
X136760000Y-87820000D02*
X135650000Y-86710000D01*
X125172525Y-85642525D02*
X125170000Y-85640000D01*
X124832525Y-85642525D02*
X124830000Y-85640000D01*
X125520000Y-85642525D02*
X124832525Y-85642525D01*
X125520000Y-85642525D02*
X125172525Y-85642525D01*
X134582525Y-85642525D02*
X125520000Y-85642525D01*
G04 #@! TD*
D25*
G04 #@! TO.N,GND*
G36*
X119598903Y-73221542D02*
X119473000Y-73525499D01*
X119473000Y-73549578D01*
X119199579Y-73823000D01*
X116550049Y-73823000D01*
X116532225Y-73733393D01*
X116437850Y-73592150D01*
X116296607Y-73497775D01*
X116130000Y-73464635D01*
X115130000Y-73464635D01*
X114963393Y-73497775D01*
X114822150Y-73592150D01*
X114750000Y-73700131D01*
X114677850Y-73592150D01*
X114536607Y-73497775D01*
X114370000Y-73464635D01*
X113370000Y-73464635D01*
X113203393Y-73497775D01*
X113062150Y-73592150D01*
X112967775Y-73733393D01*
X112934635Y-73900000D01*
X112934635Y-75100000D01*
X112967775Y-75266607D01*
X113062150Y-75407850D01*
X113200063Y-75500000D01*
X113062150Y-75592150D01*
X112967775Y-75733393D01*
X112934635Y-75900000D01*
X112934635Y-77100000D01*
X112967775Y-77266607D01*
X113062150Y-77407850D01*
X113200063Y-77500000D01*
X113062150Y-77592150D01*
X112967775Y-77733393D01*
X112934635Y-77900000D01*
X112934635Y-79100000D01*
X112967775Y-79266607D01*
X113062150Y-79407850D01*
X113203393Y-79502225D01*
X113370000Y-79535365D01*
X114370000Y-79535365D01*
X114536607Y-79502225D01*
X114677850Y-79407850D01*
X114750000Y-79299869D01*
X114822150Y-79407850D01*
X114963393Y-79502225D01*
X115130000Y-79535365D01*
X116130000Y-79535365D01*
X116296607Y-79502225D01*
X116437850Y-79407850D01*
X116532225Y-79266607D01*
X116565365Y-79100000D01*
X116565365Y-78372056D01*
X117573001Y-77364421D01*
X117573000Y-79037445D01*
X117548903Y-79061542D01*
X117423000Y-79365499D01*
X117423000Y-79694501D01*
X117548903Y-79998458D01*
X117781542Y-80231097D01*
X118085499Y-80357000D01*
X118414501Y-80357000D01*
X118718458Y-80231097D01*
X118951097Y-79998458D01*
X119077000Y-79694501D01*
X119077000Y-79365499D01*
X118951097Y-79061542D01*
X118927000Y-79037445D01*
X118927000Y-76010422D01*
X119160498Y-75776924D01*
X119335860Y-75601563D01*
X119335864Y-75601557D01*
X119623001Y-75314421D01*
X119623001Y-76263319D01*
X119609737Y-76330000D01*
X119650440Y-76534622D01*
X119662281Y-76594152D01*
X119811911Y-76818090D01*
X119868440Y-76855862D01*
X120284635Y-77272057D01*
X120284635Y-77850000D01*
X120317775Y-78016607D01*
X120412150Y-78157850D01*
X120553393Y-78252225D01*
X120720000Y-78285365D01*
X121720000Y-78285365D01*
X121886607Y-78252225D01*
X122000000Y-78176459D01*
X122113393Y-78252225D01*
X122280000Y-78285365D01*
X124120000Y-78285365D01*
X124286607Y-78252225D01*
X124345109Y-78213135D01*
X124520302Y-78388327D01*
X124753691Y-78485000D01*
X125094250Y-78485000D01*
X125253000Y-78326250D01*
X125253000Y-77377000D01*
X125507000Y-77377000D01*
X125507000Y-78326250D01*
X125665750Y-78485000D01*
X126006309Y-78485000D01*
X126239698Y-78388327D01*
X126418327Y-78209699D01*
X126515000Y-77976310D01*
X126515000Y-77535750D01*
X126356250Y-77377000D01*
X125507000Y-77377000D01*
X125253000Y-77377000D01*
X125233000Y-77377000D01*
X125233000Y-77123000D01*
X125253000Y-77123000D01*
X125253000Y-76173750D01*
X125507000Y-76173750D01*
X125507000Y-77123000D01*
X126356250Y-77123000D01*
X126515000Y-76964250D01*
X126515000Y-76645336D01*
X127463000Y-76645336D01*
X127463000Y-76914664D01*
X127566067Y-77163490D01*
X127756510Y-77353933D01*
X128005336Y-77457000D01*
X128274664Y-77457000D01*
X128523490Y-77353933D01*
X128545423Y-77332000D01*
X132318873Y-77332000D01*
X132198794Y-77412234D01*
X131999435Y-77710597D01*
X131929429Y-78062540D01*
X131999435Y-78414483D01*
X132198794Y-78712846D01*
X132497157Y-78912205D01*
X132760262Y-78964540D01*
X133237938Y-78964540D01*
X133501043Y-78912205D01*
X133587047Y-78854739D01*
X133596875Y-78904147D01*
X133691250Y-79045390D01*
X133832493Y-79139765D01*
X133999100Y-79172905D01*
X134399100Y-79172905D01*
X134524100Y-79148041D01*
X134649100Y-79172905D01*
X135049100Y-79172905D01*
X135174100Y-79148041D01*
X135299100Y-79172905D01*
X135699100Y-79172905D01*
X135824100Y-79148041D01*
X135949100Y-79172905D01*
X136136440Y-79172905D01*
X136239401Y-79275867D01*
X136472790Y-79372540D01*
X136540350Y-79372540D01*
X136699100Y-79213790D01*
X136699100Y-78982308D01*
X136751325Y-78904147D01*
X136784465Y-78737540D01*
X136784465Y-77387540D01*
X136751325Y-77220933D01*
X136699100Y-77142772D01*
X136699100Y-76911290D01*
X136540350Y-76752540D01*
X136472790Y-76752540D01*
X136239401Y-76849213D01*
X136177000Y-76911614D01*
X136177000Y-76835336D01*
X136073933Y-76586510D01*
X135883490Y-76396067D01*
X135634664Y-76293000D01*
X135365336Y-76293000D01*
X135116510Y-76396067D01*
X135026611Y-76485966D01*
X134968769Y-76428124D01*
X134937970Y-76382030D01*
X134755380Y-76260028D01*
X134594365Y-76228000D01*
X134540000Y-76217186D01*
X134485635Y-76228000D01*
X132719461Y-76228000D01*
X132872315Y-75999237D01*
X132926100Y-75728842D01*
X132926100Y-74996238D01*
X138072100Y-74996238D01*
X138072100Y-75728841D01*
X138125885Y-75999236D01*
X138330770Y-76305870D01*
X138637403Y-76510755D01*
X138999100Y-76582701D01*
X139360796Y-76510755D01*
X139667430Y-76305870D01*
X139872315Y-75999237D01*
X139926100Y-75728842D01*
X139926100Y-74996238D01*
X139872315Y-74725843D01*
X139667430Y-74419210D01*
X139360797Y-74214325D01*
X138999100Y-74142379D01*
X138637404Y-74214325D01*
X138330771Y-74419210D01*
X138125885Y-74725843D01*
X138072100Y-74996238D01*
X132926100Y-74996238D01*
X132872315Y-74725843D01*
X132667430Y-74419210D01*
X132360797Y-74214325D01*
X131999100Y-74142379D01*
X131637404Y-74214325D01*
X131330771Y-74419210D01*
X131125885Y-74725843D01*
X131072100Y-74996238D01*
X131072100Y-75728841D01*
X131125885Y-75999236D01*
X131278739Y-76228000D01*
X128545423Y-76228000D01*
X128523490Y-76206067D01*
X128274664Y-76103000D01*
X128005336Y-76103000D01*
X127756510Y-76206067D01*
X127566067Y-76396510D01*
X127463000Y-76645336D01*
X126515000Y-76645336D01*
X126515000Y-76523690D01*
X126418327Y-76290301D01*
X126239698Y-76111673D01*
X126006309Y-76015000D01*
X125665750Y-76015000D01*
X125507000Y-76173750D01*
X125253000Y-76173750D01*
X125094250Y-76015000D01*
X124753691Y-76015000D01*
X124520302Y-76111673D01*
X124345109Y-76286865D01*
X124286607Y-76247775D01*
X124120000Y-76214635D01*
X122280000Y-76214635D01*
X122113393Y-76247775D01*
X122000000Y-76323541D01*
X121886607Y-76247775D01*
X121720000Y-76214635D01*
X121142057Y-76214635D01*
X120977000Y-76049579D01*
X120977000Y-74182555D01*
X121001097Y-74158458D01*
X121127000Y-73854501D01*
X121127000Y-73525499D01*
X121001097Y-73221542D01*
X120781555Y-73002000D01*
X155848127Y-73002000D01*
X155874740Y-73011897D01*
X155938972Y-73023454D01*
X156568091Y-73096802D01*
X157105707Y-73291947D01*
X157584016Y-73605541D01*
X157977350Y-74020753D01*
X158264616Y-74515318D01*
X158432493Y-75069604D01*
X158475086Y-75546848D01*
X158498000Y-75657006D01*
X158498001Y-103348124D01*
X158488103Y-103374739D01*
X158476546Y-103438971D01*
X158403199Y-104068090D01*
X158208052Y-104605710D01*
X157894460Y-105084016D01*
X157479247Y-105477350D01*
X156984682Y-105764616D01*
X156430396Y-105932493D01*
X155953153Y-105975086D01*
X155842994Y-105998000D01*
X111651873Y-105998000D01*
X111625261Y-105988103D01*
X111561029Y-105976546D01*
X110931910Y-105903199D01*
X110394290Y-105708052D01*
X109915984Y-105394460D01*
X109522650Y-104979247D01*
X109235384Y-104484682D01*
X109067507Y-103930396D01*
X109024914Y-103453153D01*
X109002000Y-103342994D01*
X109002000Y-82785750D01*
X110599000Y-82785750D01*
X110599000Y-83489910D01*
X110695673Y-83723299D01*
X110874302Y-83901927D01*
X111107691Y-83998600D01*
X111333148Y-83998600D01*
X111167130Y-84109530D01*
X110881882Y-84536433D01*
X110781716Y-85040000D01*
X110881882Y-85543567D01*
X111167130Y-85970470D01*
X111594033Y-86255718D01*
X111866926Y-86310000D01*
X111594033Y-86364282D01*
X111167130Y-86649530D01*
X110881882Y-87076433D01*
X110781716Y-87580000D01*
X110881882Y-88083567D01*
X111167130Y-88510470D01*
X111594033Y-88795718D01*
X111866926Y-88850000D01*
X111594033Y-88904282D01*
X111167130Y-89189530D01*
X110881882Y-89616433D01*
X110781716Y-90120000D01*
X110881882Y-90623567D01*
X111167130Y-91050470D01*
X111594033Y-91335718D01*
X111866926Y-91390000D01*
X111594033Y-91444282D01*
X111167130Y-91729530D01*
X110881882Y-92156433D01*
X110781716Y-92660000D01*
X110881882Y-93163567D01*
X111167130Y-93590470D01*
X111594033Y-93875718D01*
X111866926Y-93930000D01*
X111594033Y-93984282D01*
X111167130Y-94269530D01*
X110881882Y-94696433D01*
X110781716Y-95200000D01*
X110881882Y-95703567D01*
X111167130Y-96130470D01*
X111594033Y-96415718D01*
X111866926Y-96470000D01*
X111594033Y-96524282D01*
X111167130Y-96809530D01*
X110881882Y-97236433D01*
X110781716Y-97740000D01*
X110881882Y-98243567D01*
X111167130Y-98670470D01*
X111594033Y-98955718D01*
X111970489Y-99030600D01*
X112529511Y-99030600D01*
X112574274Y-99021696D01*
X112704140Y-99151563D01*
X112741910Y-99208090D01*
X112965848Y-99357720D01*
X113163322Y-99397000D01*
X113163323Y-99397000D01*
X113229999Y-99410263D01*
X113296676Y-99397000D01*
X115504719Y-99397000D01*
X115573541Y-99500000D01*
X115497775Y-99613393D01*
X115464635Y-99780000D01*
X115464635Y-100780000D01*
X115497775Y-100946607D01*
X115592150Y-101087850D01*
X115733393Y-101182225D01*
X115900000Y-101215365D01*
X117100000Y-101215365D01*
X117266607Y-101182225D01*
X117407850Y-101087850D01*
X117495281Y-100957000D01*
X118305918Y-100957000D01*
X118317775Y-101016607D01*
X118412150Y-101157850D01*
X118553393Y-101252225D01*
X118720000Y-101285365D01*
X119374720Y-101285365D01*
X120171233Y-102081879D01*
X120202030Y-102127970D01*
X120384620Y-102249972D01*
X120545635Y-102282000D01*
X120600000Y-102292814D01*
X120654365Y-102282000D01*
X121715635Y-102282000D01*
X121770000Y-102292814D01*
X121824365Y-102282000D01*
X121985380Y-102249972D01*
X122167970Y-102127970D01*
X122198768Y-102081877D01*
X124688646Y-99592000D01*
X131494577Y-99592000D01*
X131516510Y-99613933D01*
X131765336Y-99717000D01*
X131958001Y-99717000D01*
X131958001Y-101535630D01*
X131947186Y-101590000D01*
X131990028Y-101805379D01*
X131990029Y-101805380D01*
X132013842Y-101841019D01*
X132012150Y-101842150D01*
X131917775Y-101983393D01*
X131884635Y-102150000D01*
X131884635Y-103350000D01*
X131917775Y-103516607D01*
X132012150Y-103657850D01*
X132153393Y-103752225D01*
X132320000Y-103785365D01*
X133320000Y-103785365D01*
X133486607Y-103752225D01*
X133627850Y-103657850D01*
X133635472Y-103646443D01*
X133661673Y-103709699D01*
X133840302Y-103888327D01*
X134073691Y-103985000D01*
X134414250Y-103985000D01*
X134573000Y-103826250D01*
X134573000Y-102877000D01*
X134827000Y-102877000D01*
X134827000Y-103826250D01*
X134985750Y-103985000D01*
X135326309Y-103985000D01*
X135559698Y-103888327D01*
X135738327Y-103709699D01*
X135835000Y-103476310D01*
X135835000Y-103035750D01*
X135676250Y-102877000D01*
X134827000Y-102877000D01*
X134573000Y-102877000D01*
X134553000Y-102877000D01*
X134553000Y-102623000D01*
X134573000Y-102623000D01*
X134573000Y-101673750D01*
X134827000Y-101673750D01*
X134827000Y-102623000D01*
X135676250Y-102623000D01*
X135835000Y-102464250D01*
X135835000Y-102023690D01*
X135738327Y-101790301D01*
X135559698Y-101611673D01*
X135326309Y-101515000D01*
X134985750Y-101515000D01*
X134827000Y-101673750D01*
X134573000Y-101673750D01*
X134414250Y-101515000D01*
X134073691Y-101515000D01*
X133840302Y-101611673D01*
X133661673Y-101790301D01*
X133635472Y-101853557D01*
X133627850Y-101842150D01*
X133486607Y-101747775D01*
X133347011Y-101720008D01*
X133339972Y-101684620D01*
X133332709Y-101673750D01*
X133217970Y-101502030D01*
X133171877Y-101471232D01*
X133062000Y-101361355D01*
X133062000Y-100235750D01*
X135515000Y-100235750D01*
X135515000Y-100576309D01*
X135611673Y-100809698D01*
X135790301Y-100988327D01*
X136023690Y-101085000D01*
X136464250Y-101085000D01*
X136623000Y-100926250D01*
X136623000Y-100077000D01*
X136877000Y-100077000D01*
X136877000Y-100926250D01*
X137035750Y-101085000D01*
X137476310Y-101085000D01*
X137709699Y-100988327D01*
X137888327Y-100809698D01*
X137985000Y-100576309D01*
X137985000Y-100235750D01*
X142015000Y-100235750D01*
X142015000Y-100576309D01*
X142111673Y-100809698D01*
X142290301Y-100988327D01*
X142523690Y-101085000D01*
X142964250Y-101085000D01*
X143123000Y-100926250D01*
X143123000Y-100077000D01*
X142173750Y-100077000D01*
X142015000Y-100235750D01*
X137985000Y-100235750D01*
X137826250Y-100077000D01*
X136877000Y-100077000D01*
X136623000Y-100077000D01*
X135673750Y-100077000D01*
X135515000Y-100235750D01*
X133062000Y-100235750D01*
X133062000Y-97485000D01*
X133264250Y-97485000D01*
X133423000Y-97326250D01*
X133423000Y-96377000D01*
X133403000Y-96377000D01*
X133403000Y-96123000D01*
X133423000Y-96123000D01*
X133423000Y-96103000D01*
X133677000Y-96103000D01*
X133677000Y-96123000D01*
X133697000Y-96123000D01*
X133697000Y-96377000D01*
X133677000Y-96377000D01*
X133677000Y-97326250D01*
X133835750Y-97485000D01*
X134176309Y-97485000D01*
X134409698Y-97388327D01*
X134588327Y-97209699D01*
X134614528Y-97146443D01*
X134622150Y-97157850D01*
X134763393Y-97252225D01*
X134930000Y-97285365D01*
X135007944Y-97285365D01*
X135714635Y-97992057D01*
X135714635Y-98570000D01*
X135747775Y-98736607D01*
X135842150Y-98877850D01*
X135853557Y-98885472D01*
X135790301Y-98911673D01*
X135611673Y-99090302D01*
X135515000Y-99323691D01*
X135515000Y-99664250D01*
X135673750Y-99823000D01*
X136623000Y-99823000D01*
X136623000Y-99803000D01*
X136877000Y-99803000D01*
X136877000Y-99823000D01*
X137826250Y-99823000D01*
X137985000Y-99664250D01*
X137985000Y-99323691D01*
X137888327Y-99090302D01*
X137709699Y-98911673D01*
X137646443Y-98885472D01*
X137657850Y-98877850D01*
X137752225Y-98736607D01*
X137785365Y-98570000D01*
X137785365Y-98167000D01*
X142214635Y-98167000D01*
X142214635Y-98570000D01*
X142247775Y-98736607D01*
X142342150Y-98877850D01*
X142353557Y-98885472D01*
X142290301Y-98911673D01*
X142111673Y-99090302D01*
X142015000Y-99323691D01*
X142015000Y-99664250D01*
X142173750Y-99823000D01*
X143123000Y-99823000D01*
X143123000Y-99803000D01*
X143377000Y-99803000D01*
X143377000Y-99823000D01*
X143397000Y-99823000D01*
X143397000Y-100077000D01*
X143377000Y-100077000D01*
X143377000Y-100926250D01*
X143535750Y-101085000D01*
X143976310Y-101085000D01*
X144209699Y-100988327D01*
X144388327Y-100809698D01*
X144485000Y-100576309D01*
X144485000Y-100312421D01*
X147604138Y-103431560D01*
X147641910Y-103488090D01*
X147865848Y-103637720D01*
X148063322Y-103677000D01*
X148063323Y-103677000D01*
X148129999Y-103690263D01*
X148196676Y-103677000D01*
X154507445Y-103677000D01*
X154531542Y-103701097D01*
X154835499Y-103827000D01*
X155164501Y-103827000D01*
X155468458Y-103701097D01*
X155701097Y-103468458D01*
X155827000Y-103164501D01*
X155827000Y-102835499D01*
X155701097Y-102531542D01*
X155468458Y-102298903D01*
X155164501Y-102173000D01*
X154835499Y-102173000D01*
X154531542Y-102298903D01*
X154507445Y-102323000D01*
X148410422Y-102323000D01*
X144285365Y-98197944D01*
X144285365Y-97570000D01*
X144252225Y-97403393D01*
X144157850Y-97262150D01*
X144016607Y-97167775D01*
X143850000Y-97134635D01*
X143172057Y-97134635D01*
X143095862Y-97058439D01*
X143058090Y-97001910D01*
X143001560Y-96964138D01*
X142527000Y-96489579D01*
X142527000Y-92825336D01*
X143163000Y-92825336D01*
X143163000Y-93094664D01*
X143266067Y-93343490D01*
X143456510Y-93533933D01*
X143705336Y-93637000D01*
X143974664Y-93637000D01*
X144223490Y-93533933D01*
X144245423Y-93512000D01*
X145425635Y-93512000D01*
X145480000Y-93522814D01*
X145534365Y-93512000D01*
X145695380Y-93479972D01*
X145877970Y-93357970D01*
X145908768Y-93311877D01*
X147718646Y-91502000D01*
X153709355Y-91502000D01*
X154059233Y-91851879D01*
X154090030Y-91897970D01*
X154267584Y-92016607D01*
X154272620Y-92019972D01*
X154487999Y-92062814D01*
X154497857Y-92060853D01*
X154569670Y-92168330D01*
X154691898Y-92250000D01*
X154569670Y-92331670D01*
X154364785Y-92638303D01*
X154292839Y-93000000D01*
X154364785Y-93361697D01*
X154569670Y-93668330D01*
X154876303Y-93873215D01*
X155146698Y-93927000D01*
X155853302Y-93927000D01*
X156123697Y-93873215D01*
X156430330Y-93668330D01*
X156635215Y-93361697D01*
X156707161Y-93000000D01*
X156635215Y-92638303D01*
X156430330Y-92331670D01*
X156308102Y-92250000D01*
X156430330Y-92168330D01*
X156635215Y-91861697D01*
X156707161Y-91500000D01*
X156635215Y-91138303D01*
X156430330Y-90831670D01*
X156308102Y-90750000D01*
X156430330Y-90668330D01*
X156635215Y-90361697D01*
X156707161Y-90000000D01*
X156635215Y-89638303D01*
X156430330Y-89331670D01*
X156308102Y-89250000D01*
X156430330Y-89168330D01*
X156635215Y-88861697D01*
X156707161Y-88500000D01*
X156635215Y-88138303D01*
X156430330Y-87831670D01*
X156308102Y-87750000D01*
X156430330Y-87668330D01*
X156635215Y-87361697D01*
X156707161Y-87000000D01*
X156635215Y-86638303D01*
X156460240Y-86376434D01*
X156654368Y-86212763D01*
X156856119Y-85801874D01*
X156729954Y-85627000D01*
X155627000Y-85627000D01*
X155627000Y-85647000D01*
X155373000Y-85647000D01*
X155373000Y-85627000D01*
X154270046Y-85627000D01*
X154143881Y-85801874D01*
X154345632Y-86212763D01*
X154539760Y-86376434D01*
X154364785Y-86638303D01*
X154292839Y-87000000D01*
X154364785Y-87361697D01*
X154569670Y-87668330D01*
X154691898Y-87750000D01*
X154569670Y-87831670D01*
X154364785Y-88138303D01*
X154292839Y-88500000D01*
X154364785Y-88861697D01*
X154569670Y-89168330D01*
X154691898Y-89250000D01*
X154569670Y-89331670D01*
X154364785Y-89638303D01*
X154292839Y-90000000D01*
X154364785Y-90361697D01*
X154569670Y-90668330D01*
X154691898Y-90750000D01*
X154588041Y-90819395D01*
X154366768Y-90598123D01*
X154335970Y-90552030D01*
X154153380Y-90430028D01*
X153992365Y-90398000D01*
X153938000Y-90387186D01*
X153883635Y-90398000D01*
X147544364Y-90398000D01*
X147489999Y-90387186D01*
X147319519Y-90421097D01*
X147274620Y-90430028D01*
X147092030Y-90552030D01*
X147061233Y-90598121D01*
X146515672Y-91143682D01*
X146585000Y-90976310D01*
X146585000Y-90535750D01*
X146426250Y-90377000D01*
X145577000Y-90377000D01*
X145577000Y-91326250D01*
X145735750Y-91485000D01*
X146076309Y-91485000D01*
X146243683Y-91415671D01*
X145251355Y-92408000D01*
X144245423Y-92408000D01*
X144223490Y-92386067D01*
X143974664Y-92283000D01*
X143705336Y-92283000D01*
X143456510Y-92386067D01*
X143266067Y-92576510D01*
X143163000Y-92825336D01*
X142527000Y-92825336D01*
X142527000Y-92350421D01*
X143592057Y-91285365D01*
X144070000Y-91285365D01*
X144236607Y-91252225D01*
X144377850Y-91157850D01*
X144385472Y-91146443D01*
X144411673Y-91209699D01*
X144590302Y-91388327D01*
X144823691Y-91485000D01*
X145164250Y-91485000D01*
X145323000Y-91326250D01*
X145323000Y-90377000D01*
X145303000Y-90377000D01*
X145303000Y-90123000D01*
X145323000Y-90123000D01*
X145323000Y-89173750D01*
X145577000Y-89173750D01*
X145577000Y-90123000D01*
X146426250Y-90123000D01*
X146585000Y-89964250D01*
X146585000Y-89523690D01*
X146488327Y-89290301D01*
X146309698Y-89111673D01*
X146076309Y-89015000D01*
X145735750Y-89015000D01*
X145577000Y-89173750D01*
X145323000Y-89173750D01*
X145164250Y-89015000D01*
X144823691Y-89015000D01*
X144590302Y-89111673D01*
X144411673Y-89290301D01*
X144385472Y-89353557D01*
X144377850Y-89342150D01*
X144236607Y-89247775D01*
X144070000Y-89214635D01*
X143070000Y-89214635D01*
X142903393Y-89247775D01*
X142762150Y-89342150D01*
X142667775Y-89483393D01*
X142634635Y-89650000D01*
X142634635Y-90327943D01*
X141418441Y-91544138D01*
X141361911Y-91581910D01*
X141263275Y-91729530D01*
X141212281Y-91805848D01*
X141159737Y-92070000D01*
X141173001Y-92136681D01*
X141173000Y-95135579D01*
X138117000Y-92079579D01*
X138117000Y-91926678D01*
X138130263Y-91860000D01*
X138077720Y-91595848D01*
X137928090Y-91371910D01*
X137871560Y-91334138D01*
X136615365Y-90077944D01*
X136615365Y-89400000D01*
X136582225Y-89233393D01*
X136487850Y-89092150D01*
X136357000Y-89004719D01*
X136357000Y-88966676D01*
X136370263Y-88900000D01*
X136355557Y-88826067D01*
X136317720Y-88635848D01*
X136168090Y-88411910D01*
X136111560Y-88374138D01*
X135482000Y-87744579D01*
X135482000Y-87373192D01*
X135515336Y-87387000D01*
X135546355Y-87387000D01*
X136331233Y-88171879D01*
X136362030Y-88217970D01*
X136544620Y-88339972D01*
X136759999Y-88382814D01*
X136814364Y-88372000D01*
X140224908Y-88372000D01*
X140926754Y-89073847D01*
X140893000Y-89155336D01*
X140893000Y-89424664D01*
X140996067Y-89673490D01*
X141186510Y-89863933D01*
X141435336Y-89967000D01*
X141704664Y-89967000D01*
X141953490Y-89863933D01*
X142143933Y-89673490D01*
X142247000Y-89424664D01*
X142247000Y-89155336D01*
X142143933Y-88906510D01*
X142122620Y-88885197D01*
X142089972Y-88721067D01*
X142050986Y-88662720D01*
X141967970Y-88538477D01*
X141921879Y-88507680D01*
X141246198Y-87832000D01*
X141834577Y-87832000D01*
X141856510Y-87853933D01*
X142105336Y-87957000D01*
X142374664Y-87957000D01*
X142623490Y-87853933D01*
X142813933Y-87663490D01*
X142917000Y-87414664D01*
X142917000Y-87145336D01*
X142813933Y-86896510D01*
X142623490Y-86706067D01*
X142374664Y-86603000D01*
X142105336Y-86603000D01*
X141856510Y-86706067D01*
X141834577Y-86728000D01*
X139800765Y-86728000D01*
X139827000Y-86664664D01*
X139827000Y-86395336D01*
X139793246Y-86313846D01*
X140065093Y-86042000D01*
X144655635Y-86042000D01*
X144710000Y-86052814D01*
X144764365Y-86042000D01*
X144925380Y-86009972D01*
X145107970Y-85887970D01*
X145138768Y-85841877D01*
X145971880Y-85008766D01*
X146017970Y-84977970D01*
X146139972Y-84795380D01*
X146160065Y-84694365D01*
X146182814Y-84580001D01*
X146172000Y-84525636D01*
X146172000Y-84261730D01*
X146338000Y-84150812D01*
X146338000Y-84234577D01*
X146316067Y-84256510D01*
X146213000Y-84505336D01*
X146213000Y-84774664D01*
X146316067Y-85023490D01*
X146506510Y-85213933D01*
X146755336Y-85317000D01*
X147024664Y-85317000D01*
X147273490Y-85213933D01*
X147289297Y-85198126D01*
X154143881Y-85198126D01*
X154270046Y-85373000D01*
X155373000Y-85373000D01*
X155373000Y-84365000D01*
X155627000Y-84365000D01*
X155627000Y-85373000D01*
X156729954Y-85373000D01*
X156856119Y-85198126D01*
X156654368Y-84787237D01*
X156313678Y-84499998D01*
X155889000Y-84365000D01*
X155627000Y-84365000D01*
X155373000Y-84365000D01*
X155111000Y-84365000D01*
X154686322Y-84499998D01*
X154345632Y-84787237D01*
X154143881Y-85198126D01*
X147289297Y-85198126D01*
X147463933Y-85023490D01*
X147567000Y-84774664D01*
X147567000Y-84505336D01*
X147463933Y-84256510D01*
X147442000Y-84234577D01*
X147442000Y-84150812D01*
X147700759Y-84323709D01*
X148160000Y-84415058D01*
X148619242Y-84323709D01*
X149008569Y-84063569D01*
X149268709Y-83674241D01*
X149337000Y-83330919D01*
X149337000Y-82599080D01*
X149268709Y-82255758D01*
X149008569Y-81866431D01*
X148619241Y-81606291D01*
X148160000Y-81514942D01*
X147700758Y-81606291D01*
X147442000Y-81779188D01*
X147442000Y-81738645D01*
X147751880Y-81428766D01*
X147797970Y-81397970D01*
X147919972Y-81215380D01*
X147952000Y-81054365D01*
X147952000Y-81054364D01*
X147962814Y-81000000D01*
X147952000Y-80945635D01*
X147952000Y-80631249D01*
X147983393Y-80652225D01*
X148150000Y-80685365D01*
X150750000Y-80685365D01*
X150916607Y-80652225D01*
X151057850Y-80557850D01*
X151152225Y-80416607D01*
X151185365Y-80250000D01*
X151185365Y-79785750D01*
X153115000Y-79785750D01*
X153115000Y-80376310D01*
X153211673Y-80609699D01*
X153390302Y-80788327D01*
X153623691Y-80885000D01*
X154764250Y-80885000D01*
X154923000Y-80726250D01*
X154923000Y-79627000D01*
X155177000Y-79627000D01*
X155177000Y-80726250D01*
X155335750Y-80885000D01*
X156476309Y-80885000D01*
X156709698Y-80788327D01*
X156888327Y-80609699D01*
X156985000Y-80376310D01*
X156985000Y-79785750D01*
X156826250Y-79627000D01*
X155177000Y-79627000D01*
X154923000Y-79627000D01*
X153273750Y-79627000D01*
X153115000Y-79785750D01*
X151185365Y-79785750D01*
X151185365Y-78750000D01*
X151160241Y-78623690D01*
X153115000Y-78623690D01*
X153115000Y-79214250D01*
X153273750Y-79373000D01*
X154923000Y-79373000D01*
X154923000Y-78273750D01*
X155177000Y-78273750D01*
X155177000Y-79373000D01*
X156826250Y-79373000D01*
X156985000Y-79214250D01*
X156985000Y-78623690D01*
X156888327Y-78390301D01*
X156709698Y-78211673D01*
X156476309Y-78115000D01*
X155335750Y-78115000D01*
X155177000Y-78273750D01*
X154923000Y-78273750D01*
X154764250Y-78115000D01*
X153623691Y-78115000D01*
X153390302Y-78211673D01*
X153211673Y-78390301D01*
X153115000Y-78623690D01*
X151160241Y-78623690D01*
X151152225Y-78583393D01*
X151057850Y-78442150D01*
X150916607Y-78347775D01*
X150750000Y-78314635D01*
X148666011Y-78314635D01*
X149801879Y-77178767D01*
X149847970Y-77147970D01*
X149969972Y-76965380D01*
X149975942Y-76935365D01*
X150750000Y-76935365D01*
X150916607Y-76902225D01*
X151057850Y-76807850D01*
X151152225Y-76666607D01*
X151185365Y-76500000D01*
X151185365Y-76035750D01*
X153115000Y-76035750D01*
X153115000Y-76626310D01*
X153211673Y-76859699D01*
X153390302Y-77038327D01*
X153623691Y-77135000D01*
X154764250Y-77135000D01*
X154923000Y-76976250D01*
X154923000Y-75877000D01*
X155177000Y-75877000D01*
X155177000Y-76976250D01*
X155335750Y-77135000D01*
X156476309Y-77135000D01*
X156709698Y-77038327D01*
X156888327Y-76859699D01*
X156985000Y-76626310D01*
X156985000Y-76035750D01*
X156826250Y-75877000D01*
X155177000Y-75877000D01*
X154923000Y-75877000D01*
X153273750Y-75877000D01*
X153115000Y-76035750D01*
X151185365Y-76035750D01*
X151185365Y-75000000D01*
X151160241Y-74873690D01*
X153115000Y-74873690D01*
X153115000Y-75464250D01*
X153273750Y-75623000D01*
X154923000Y-75623000D01*
X154923000Y-74523750D01*
X155177000Y-74523750D01*
X155177000Y-75623000D01*
X156826250Y-75623000D01*
X156985000Y-75464250D01*
X156985000Y-74873690D01*
X156888327Y-74640301D01*
X156709698Y-74461673D01*
X156476309Y-74365000D01*
X155335750Y-74365000D01*
X155177000Y-74523750D01*
X154923000Y-74523750D01*
X154764250Y-74365000D01*
X153623691Y-74365000D01*
X153390302Y-74461673D01*
X153211673Y-74640301D01*
X153115000Y-74873690D01*
X151160241Y-74873690D01*
X151152225Y-74833393D01*
X151057850Y-74692150D01*
X150916607Y-74597775D01*
X150750000Y-74564635D01*
X148150000Y-74564635D01*
X147983393Y-74597775D01*
X147842150Y-74692150D01*
X147747775Y-74833393D01*
X147714635Y-75000000D01*
X147714635Y-76500000D01*
X147747775Y-76666607D01*
X147842150Y-76807850D01*
X147983393Y-76902225D01*
X148150000Y-76935365D01*
X148483989Y-76935365D01*
X146428123Y-78991232D01*
X146382030Y-79022030D01*
X146281220Y-79172905D01*
X146260028Y-79204621D01*
X146229619Y-79357498D01*
X146006309Y-79265000D01*
X145665750Y-79265000D01*
X145507000Y-79423750D01*
X145507000Y-80373000D01*
X145527000Y-80373000D01*
X145527000Y-80627000D01*
X145507000Y-80627000D01*
X145507000Y-80647000D01*
X145253000Y-80647000D01*
X145253000Y-80627000D01*
X145233000Y-80627000D01*
X145233000Y-80373000D01*
X145253000Y-80373000D01*
X145253000Y-79423750D01*
X145094250Y-79265000D01*
X144753691Y-79265000D01*
X144520302Y-79361673D01*
X144345109Y-79536865D01*
X144286607Y-79497775D01*
X144120000Y-79464635D01*
X142280000Y-79464635D01*
X142113393Y-79497775D01*
X142000000Y-79573541D01*
X141886607Y-79497775D01*
X141720000Y-79464635D01*
X140720000Y-79464635D01*
X140553393Y-79497775D01*
X140412150Y-79592150D01*
X140317775Y-79733393D01*
X140284635Y-79900000D01*
X140284635Y-80754720D01*
X140241355Y-80798000D01*
X140114365Y-80798000D01*
X140060000Y-80787186D01*
X140005635Y-80798000D01*
X139844620Y-80830028D01*
X139662030Y-80952030D01*
X139631231Y-80998124D01*
X138908122Y-81721233D01*
X138862031Y-81752030D01*
X138831236Y-81798119D01*
X138805030Y-81837339D01*
X138780018Y-81820627D01*
X139411880Y-81188766D01*
X139457970Y-81157970D01*
X139579972Y-80975380D01*
X139597950Y-80885000D01*
X139622814Y-80760001D01*
X139612000Y-80705636D01*
X139612000Y-78758645D01*
X140284635Y-78086011D01*
X140284635Y-78100000D01*
X140317775Y-78266607D01*
X140412150Y-78407850D01*
X140553393Y-78502225D01*
X140720000Y-78535365D01*
X141720000Y-78535365D01*
X141886607Y-78502225D01*
X142000000Y-78426459D01*
X142113393Y-78502225D01*
X142280000Y-78535365D01*
X144120000Y-78535365D01*
X144286607Y-78502225D01*
X144345109Y-78463135D01*
X144520302Y-78638327D01*
X144753691Y-78735000D01*
X145094250Y-78735000D01*
X145253000Y-78576250D01*
X145253000Y-77627000D01*
X145507000Y-77627000D01*
X145507000Y-78576250D01*
X145665750Y-78735000D01*
X146006309Y-78735000D01*
X146239698Y-78638327D01*
X146418327Y-78459699D01*
X146515000Y-78226310D01*
X146515000Y-77785750D01*
X146356250Y-77627000D01*
X145507000Y-77627000D01*
X145253000Y-77627000D01*
X145233000Y-77627000D01*
X145233000Y-77373000D01*
X145253000Y-77373000D01*
X145253000Y-76423750D01*
X145507000Y-76423750D01*
X145507000Y-77373000D01*
X146356250Y-77373000D01*
X146515000Y-77214250D01*
X146515000Y-76773690D01*
X146418327Y-76540301D01*
X146239698Y-76361673D01*
X146006309Y-76265000D01*
X145665750Y-76265000D01*
X145507000Y-76423750D01*
X145253000Y-76423750D01*
X145094250Y-76265000D01*
X144753691Y-76265000D01*
X144520302Y-76361673D01*
X144345109Y-76536865D01*
X144286607Y-76497775D01*
X144120000Y-76464635D01*
X142280000Y-76464635D01*
X142113393Y-76497775D01*
X142000000Y-76573541D01*
X141886607Y-76497775D01*
X141720000Y-76464635D01*
X140720000Y-76464635D01*
X140553393Y-76497775D01*
X140412150Y-76592150D01*
X140317775Y-76733393D01*
X140284635Y-76900000D01*
X140284635Y-76948000D01*
X140144365Y-76948000D01*
X140090000Y-76937186D01*
X140035635Y-76948000D01*
X139874620Y-76980028D01*
X139692030Y-77102030D01*
X139661233Y-77148121D01*
X139015355Y-77794000D01*
X138998765Y-77710597D01*
X138799406Y-77412234D01*
X138501043Y-77212875D01*
X138237938Y-77160540D01*
X137760262Y-77160540D01*
X137605171Y-77191390D01*
X137537427Y-77027842D01*
X137358799Y-76849213D01*
X137125410Y-76752540D01*
X137057850Y-76752540D01*
X136899100Y-76911290D01*
X136899100Y-77935540D01*
X136946100Y-77935540D01*
X136946100Y-77978730D01*
X136929429Y-78062540D01*
X136946100Y-78146350D01*
X136946100Y-78189540D01*
X136899100Y-78189540D01*
X136899100Y-79213790D01*
X137057850Y-79372540D01*
X137125410Y-79372540D01*
X137358799Y-79275867D01*
X137537427Y-79097238D01*
X137605171Y-78933690D01*
X137760262Y-78964540D01*
X138237938Y-78964540D01*
X138501043Y-78912205D01*
X138508001Y-78907556D01*
X138508000Y-80268445D01*
X138288458Y-80048903D01*
X137984501Y-79923000D01*
X137655499Y-79923000D01*
X137351542Y-80048903D01*
X137327445Y-80073000D01*
X128812555Y-80073000D01*
X128788458Y-80048903D01*
X128484501Y-79923000D01*
X128155499Y-79923000D01*
X127851542Y-80048903D01*
X127618903Y-80281542D01*
X127493000Y-80585499D01*
X127493000Y-80914501D01*
X127618903Y-81218458D01*
X127851542Y-81451097D01*
X128155499Y-81577000D01*
X128484501Y-81577000D01*
X128788458Y-81451097D01*
X128812555Y-81427000D01*
X135940595Y-81427000D01*
X135933000Y-81445336D01*
X135933000Y-81615484D01*
X135919241Y-81606291D01*
X135460000Y-81514942D01*
X135000758Y-81606291D01*
X134611431Y-81866431D01*
X134351291Y-82255759D01*
X134283000Y-82599081D01*
X134283000Y-83330920D01*
X134351291Y-83674242D01*
X134611432Y-84063569D01*
X134760241Y-84163000D01*
X134725336Y-84163000D01*
X134476510Y-84266067D01*
X134454577Y-84288000D01*
X133432684Y-84288000D01*
X133768569Y-84063569D01*
X134028709Y-83674241D01*
X134097000Y-83330919D01*
X134097000Y-82599080D01*
X134028709Y-82255758D01*
X133768569Y-81866431D01*
X133379241Y-81606291D01*
X132920000Y-81514942D01*
X132460758Y-81606291D01*
X132071431Y-81866431D01*
X131811291Y-82255759D01*
X131743000Y-82599081D01*
X131743000Y-83330920D01*
X131811291Y-83674242D01*
X132071432Y-84063569D01*
X132407317Y-84288000D01*
X130892684Y-84288000D01*
X131228569Y-84063569D01*
X131488709Y-83674241D01*
X131557000Y-83330919D01*
X131557000Y-82599080D01*
X131488709Y-82255758D01*
X131228569Y-81866431D01*
X130839241Y-81606291D01*
X130380000Y-81514942D01*
X129920758Y-81606291D01*
X129531431Y-81866431D01*
X129271291Y-82255759D01*
X129203000Y-82599081D01*
X129203000Y-83330920D01*
X129271291Y-83674242D01*
X129531432Y-84063569D01*
X129867317Y-84288000D01*
X128352684Y-84288000D01*
X128688569Y-84063569D01*
X128948709Y-83674241D01*
X129017000Y-83330919D01*
X129017000Y-82599080D01*
X128948709Y-82255758D01*
X128688569Y-81866431D01*
X128299241Y-81606291D01*
X127840000Y-81514942D01*
X127380758Y-81606291D01*
X126991431Y-81866431D01*
X126731291Y-82255759D01*
X126663000Y-82599081D01*
X126663000Y-83330920D01*
X126731291Y-83674242D01*
X126991432Y-84063569D01*
X127327317Y-84288000D01*
X125535423Y-84288000D01*
X125513490Y-84266067D01*
X125264664Y-84163000D01*
X124995336Y-84163000D01*
X124746510Y-84266067D01*
X124556067Y-84456510D01*
X124453000Y-84705336D01*
X124453000Y-84974664D01*
X124484365Y-85050387D01*
X124446510Y-85066067D01*
X124256067Y-85256510D01*
X124153000Y-85505336D01*
X124153000Y-85774664D01*
X124256067Y-86023490D01*
X124446510Y-86213933D01*
X124695336Y-86317000D01*
X124964664Y-86317000D01*
X125213490Y-86213933D01*
X125232898Y-86194525D01*
X134157598Y-86194525D01*
X134114737Y-86410000D01*
X134128001Y-86476681D01*
X134128000Y-87958323D01*
X134114737Y-88025000D01*
X134128000Y-88091676D01*
X134128000Y-88091677D01*
X134167280Y-88289151D01*
X134316910Y-88513089D01*
X134373440Y-88550862D01*
X134897674Y-89075096D01*
X134872150Y-89092150D01*
X134864528Y-89103557D01*
X134838327Y-89040301D01*
X134659698Y-88861673D01*
X134426309Y-88765000D01*
X134085750Y-88765000D01*
X133927000Y-88923750D01*
X133927000Y-89873000D01*
X133947000Y-89873000D01*
X133947000Y-90127000D01*
X133927000Y-90127000D01*
X133927000Y-90147000D01*
X133673000Y-90147000D01*
X133673000Y-90127000D01*
X132823750Y-90127000D01*
X132665000Y-90285750D01*
X132665000Y-90523001D01*
X126796675Y-90523001D01*
X126729998Y-90509738D01*
X126663322Y-90523001D01*
X126663321Y-90523001D01*
X126465847Y-90562281D01*
X126241909Y-90711911D01*
X126204137Y-90768441D01*
X125598440Y-91374139D01*
X125541910Y-91411911D01*
X125535365Y-91421706D01*
X125535365Y-91030000D01*
X125519215Y-90948810D01*
X125638327Y-90829698D01*
X125735000Y-90596309D01*
X125735000Y-90255750D01*
X125576250Y-90097000D01*
X124627000Y-90097000D01*
X124627000Y-90117000D01*
X124373000Y-90117000D01*
X124373000Y-90097000D01*
X124353000Y-90097000D01*
X124353000Y-89843000D01*
X124373000Y-89843000D01*
X124373000Y-88993750D01*
X124627000Y-88993750D01*
X124627000Y-89843000D01*
X125576250Y-89843000D01*
X125735000Y-89684250D01*
X125735000Y-89343691D01*
X125706005Y-89273690D01*
X132665000Y-89273690D01*
X132665000Y-89714250D01*
X132823750Y-89873000D01*
X133673000Y-89873000D01*
X133673000Y-88923750D01*
X133514250Y-88765000D01*
X133173691Y-88765000D01*
X132940302Y-88861673D01*
X132761673Y-89040301D01*
X132665000Y-89273690D01*
X125706005Y-89273690D01*
X125638327Y-89110302D01*
X125459699Y-88931673D01*
X125226310Y-88835000D01*
X124785750Y-88835000D01*
X124627000Y-88993750D01*
X124373000Y-88993750D01*
X124214250Y-88835000D01*
X123773690Y-88835000D01*
X123540301Y-88931673D01*
X123479699Y-88992276D01*
X123313490Y-88826067D01*
X123064664Y-88723000D01*
X122795336Y-88723000D01*
X122546510Y-88826067D01*
X122524577Y-88848000D01*
X121915000Y-88848000D01*
X121915000Y-88535750D01*
X121756250Y-88377000D01*
X120907000Y-88377000D01*
X120907000Y-88397000D01*
X120653000Y-88397000D01*
X120653000Y-88377000D01*
X120633000Y-88377000D01*
X120633000Y-88123000D01*
X120653000Y-88123000D01*
X120653000Y-88103000D01*
X120907000Y-88103000D01*
X120907000Y-88123000D01*
X121756250Y-88123000D01*
X121915000Y-87964250D01*
X121915000Y-87552000D01*
X122854577Y-87552000D01*
X122876510Y-87573933D01*
X123125336Y-87677000D01*
X123394664Y-87677000D01*
X123643490Y-87573933D01*
X123833933Y-87383490D01*
X123937000Y-87134664D01*
X123937000Y-86865336D01*
X123833933Y-86616510D01*
X123643490Y-86426067D01*
X123394664Y-86323000D01*
X123125336Y-86323000D01*
X122876510Y-86426067D01*
X122854577Y-86448000D01*
X121268646Y-86448000D01*
X120907002Y-86086356D01*
X120907002Y-86076252D01*
X121065750Y-86235000D01*
X121406309Y-86235000D01*
X121639698Y-86138327D01*
X121818327Y-85959699D01*
X121915000Y-85726310D01*
X121915000Y-85285750D01*
X121756250Y-85127000D01*
X120907000Y-85127000D01*
X120907000Y-85147000D01*
X120653000Y-85147000D01*
X120653000Y-85127000D01*
X120633000Y-85127000D01*
X120633000Y-84873000D01*
X120653000Y-84873000D01*
X120653000Y-83923750D01*
X120907000Y-83923750D01*
X120907000Y-84873000D01*
X121756250Y-84873000D01*
X121915000Y-84714250D01*
X121915000Y-84273690D01*
X121818327Y-84040301D01*
X121639698Y-83861673D01*
X121406309Y-83765000D01*
X121065750Y-83765000D01*
X120907000Y-83923750D01*
X120653000Y-83923750D01*
X120494250Y-83765000D01*
X120153691Y-83765000D01*
X120052739Y-83806816D01*
X120081097Y-83778458D01*
X120207000Y-83474501D01*
X120207000Y-83440422D01*
X120495859Y-83151563D01*
X120495859Y-83151562D01*
X121401563Y-82245860D01*
X121458090Y-82208090D01*
X121542153Y-82082281D01*
X121607720Y-81984153D01*
X121660263Y-81720000D01*
X121647000Y-81653322D01*
X121647000Y-81495281D01*
X121750000Y-81426459D01*
X121863393Y-81502225D01*
X122030000Y-81535365D01*
X123870000Y-81535365D01*
X124036607Y-81502225D01*
X124095109Y-81463135D01*
X124270302Y-81638327D01*
X124503691Y-81735000D01*
X124844250Y-81735000D01*
X125003000Y-81576250D01*
X125003000Y-80627000D01*
X125257000Y-80627000D01*
X125257000Y-81576250D01*
X125415750Y-81735000D01*
X125756309Y-81735000D01*
X125989698Y-81638327D01*
X126168327Y-81459699D01*
X126265000Y-81226310D01*
X126265000Y-80785750D01*
X126106250Y-80627000D01*
X125257000Y-80627000D01*
X125003000Y-80627000D01*
X124983000Y-80627000D01*
X124983000Y-80373000D01*
X125003000Y-80373000D01*
X125003000Y-79423750D01*
X125257000Y-79423750D01*
X125257000Y-80373000D01*
X126106250Y-80373000D01*
X126265000Y-80214250D01*
X126265000Y-79773690D01*
X126168327Y-79540301D01*
X125989698Y-79361673D01*
X125756309Y-79265000D01*
X125415750Y-79265000D01*
X125257000Y-79423750D01*
X125003000Y-79423750D01*
X124844250Y-79265000D01*
X124503691Y-79265000D01*
X124270302Y-79361673D01*
X124095109Y-79536865D01*
X124036607Y-79497775D01*
X123870000Y-79464635D01*
X122030000Y-79464635D01*
X121863393Y-79497775D01*
X121750000Y-79573541D01*
X121636607Y-79497775D01*
X121470000Y-79464635D01*
X120470000Y-79464635D01*
X120303393Y-79497775D01*
X120162150Y-79592150D01*
X120067775Y-79733393D01*
X120034635Y-79900000D01*
X120034635Y-81100000D01*
X120067775Y-81266607D01*
X120162150Y-81407850D01*
X120259608Y-81472969D01*
X119538438Y-82194141D01*
X119538437Y-82194141D01*
X119249578Y-82483000D01*
X119215499Y-82483000D01*
X118911542Y-82608903D01*
X118678903Y-82841542D01*
X118553000Y-83145499D01*
X118553000Y-83474501D01*
X118678903Y-83778458D01*
X118865080Y-83964635D01*
X118720000Y-83964635D01*
X118553393Y-83997775D01*
X118412150Y-84092150D01*
X118317775Y-84233393D01*
X118293984Y-84353000D01*
X117495281Y-84353000D01*
X117426459Y-84250000D01*
X117502225Y-84136607D01*
X117535365Y-83970000D01*
X117535365Y-82970000D01*
X117502225Y-82803393D01*
X117407850Y-82662150D01*
X117266607Y-82567775D01*
X117100000Y-82534635D01*
X115900000Y-82534635D01*
X115733393Y-82567775D01*
X115592150Y-82662150D01*
X115504719Y-82793000D01*
X113901000Y-82793000D01*
X113901000Y-82785750D01*
X113742250Y-82627000D01*
X112377000Y-82627000D01*
X112377000Y-82647000D01*
X112123000Y-82647000D01*
X112123000Y-82627000D01*
X110757750Y-82627000D01*
X110599000Y-82785750D01*
X109002000Y-82785750D01*
X109002000Y-81510090D01*
X110599000Y-81510090D01*
X110599000Y-82214250D01*
X110757750Y-82373000D01*
X112123000Y-82373000D01*
X112123000Y-81160150D01*
X112377000Y-81160150D01*
X112377000Y-82373000D01*
X113742250Y-82373000D01*
X113901000Y-82214250D01*
X113901000Y-81510090D01*
X113804327Y-81276701D01*
X113625698Y-81098073D01*
X113392309Y-81001400D01*
X112535750Y-81001400D01*
X112377000Y-81160150D01*
X112123000Y-81160150D01*
X111964250Y-81001400D01*
X111107691Y-81001400D01*
X110874302Y-81098073D01*
X110695673Y-81276701D01*
X110599000Y-81510090D01*
X109002000Y-81510090D01*
X109002000Y-75651873D01*
X109011897Y-75625260D01*
X109023454Y-75561028D01*
X109096802Y-74931909D01*
X109291947Y-74394293D01*
X109605541Y-73915984D01*
X110020753Y-73522650D01*
X110515318Y-73235384D01*
X111069604Y-73067507D01*
X111546848Y-73024914D01*
X111657006Y-73002000D01*
X119818445Y-73002000D01*
X119598903Y-73221542D01*
X119598903Y-73221542D01*
G37*
X119598903Y-73221542D02*
X119473000Y-73525499D01*
X119473000Y-73549578D01*
X119199579Y-73823000D01*
X116550049Y-73823000D01*
X116532225Y-73733393D01*
X116437850Y-73592150D01*
X116296607Y-73497775D01*
X116130000Y-73464635D01*
X115130000Y-73464635D01*
X114963393Y-73497775D01*
X114822150Y-73592150D01*
X114750000Y-73700131D01*
X114677850Y-73592150D01*
X114536607Y-73497775D01*
X114370000Y-73464635D01*
X113370000Y-73464635D01*
X113203393Y-73497775D01*
X113062150Y-73592150D01*
X112967775Y-73733393D01*
X112934635Y-73900000D01*
X112934635Y-75100000D01*
X112967775Y-75266607D01*
X113062150Y-75407850D01*
X113200063Y-75500000D01*
X113062150Y-75592150D01*
X112967775Y-75733393D01*
X112934635Y-75900000D01*
X112934635Y-77100000D01*
X112967775Y-77266607D01*
X113062150Y-77407850D01*
X113200063Y-77500000D01*
X113062150Y-77592150D01*
X112967775Y-77733393D01*
X112934635Y-77900000D01*
X112934635Y-79100000D01*
X112967775Y-79266607D01*
X113062150Y-79407850D01*
X113203393Y-79502225D01*
X113370000Y-79535365D01*
X114370000Y-79535365D01*
X114536607Y-79502225D01*
X114677850Y-79407850D01*
X114750000Y-79299869D01*
X114822150Y-79407850D01*
X114963393Y-79502225D01*
X115130000Y-79535365D01*
X116130000Y-79535365D01*
X116296607Y-79502225D01*
X116437850Y-79407850D01*
X116532225Y-79266607D01*
X116565365Y-79100000D01*
X116565365Y-78372056D01*
X117573001Y-77364421D01*
X117573000Y-79037445D01*
X117548903Y-79061542D01*
X117423000Y-79365499D01*
X117423000Y-79694501D01*
X117548903Y-79998458D01*
X117781542Y-80231097D01*
X118085499Y-80357000D01*
X118414501Y-80357000D01*
X118718458Y-80231097D01*
X118951097Y-79998458D01*
X119077000Y-79694501D01*
X119077000Y-79365499D01*
X118951097Y-79061542D01*
X118927000Y-79037445D01*
X118927000Y-76010422D01*
X119160498Y-75776924D01*
X119335860Y-75601563D01*
X119335864Y-75601557D01*
X119623001Y-75314421D01*
X119623001Y-76263319D01*
X119609737Y-76330000D01*
X119650440Y-76534622D01*
X119662281Y-76594152D01*
X119811911Y-76818090D01*
X119868440Y-76855862D01*
X120284635Y-77272057D01*
X120284635Y-77850000D01*
X120317775Y-78016607D01*
X120412150Y-78157850D01*
X120553393Y-78252225D01*
X120720000Y-78285365D01*
X121720000Y-78285365D01*
X121886607Y-78252225D01*
X122000000Y-78176459D01*
X122113393Y-78252225D01*
X122280000Y-78285365D01*
X124120000Y-78285365D01*
X124286607Y-78252225D01*
X124345109Y-78213135D01*
X124520302Y-78388327D01*
X124753691Y-78485000D01*
X125094250Y-78485000D01*
X125253000Y-78326250D01*
X125253000Y-77377000D01*
X125507000Y-77377000D01*
X125507000Y-78326250D01*
X125665750Y-78485000D01*
X126006309Y-78485000D01*
X126239698Y-78388327D01*
X126418327Y-78209699D01*
X126515000Y-77976310D01*
X126515000Y-77535750D01*
X126356250Y-77377000D01*
X125507000Y-77377000D01*
X125253000Y-77377000D01*
X125233000Y-77377000D01*
X125233000Y-77123000D01*
X125253000Y-77123000D01*
X125253000Y-76173750D01*
X125507000Y-76173750D01*
X125507000Y-77123000D01*
X126356250Y-77123000D01*
X126515000Y-76964250D01*
X126515000Y-76645336D01*
X127463000Y-76645336D01*
X127463000Y-76914664D01*
X127566067Y-77163490D01*
X127756510Y-77353933D01*
X128005336Y-77457000D01*
X128274664Y-77457000D01*
X128523490Y-77353933D01*
X128545423Y-77332000D01*
X132318873Y-77332000D01*
X132198794Y-77412234D01*
X131999435Y-77710597D01*
X131929429Y-78062540D01*
X131999435Y-78414483D01*
X132198794Y-78712846D01*
X132497157Y-78912205D01*
X132760262Y-78964540D01*
X133237938Y-78964540D01*
X133501043Y-78912205D01*
X133587047Y-78854739D01*
X133596875Y-78904147D01*
X133691250Y-79045390D01*
X133832493Y-79139765D01*
X133999100Y-79172905D01*
X134399100Y-79172905D01*
X134524100Y-79148041D01*
X134649100Y-79172905D01*
X135049100Y-79172905D01*
X135174100Y-79148041D01*
X135299100Y-79172905D01*
X135699100Y-79172905D01*
X135824100Y-79148041D01*
X135949100Y-79172905D01*
X136136440Y-79172905D01*
X136239401Y-79275867D01*
X136472790Y-79372540D01*
X136540350Y-79372540D01*
X136699100Y-79213790D01*
X136699100Y-78982308D01*
X136751325Y-78904147D01*
X136784465Y-78737540D01*
X136784465Y-77387540D01*
X136751325Y-77220933D01*
X136699100Y-77142772D01*
X136699100Y-76911290D01*
X136540350Y-76752540D01*
X136472790Y-76752540D01*
X136239401Y-76849213D01*
X136177000Y-76911614D01*
X136177000Y-76835336D01*
X136073933Y-76586510D01*
X135883490Y-76396067D01*
X135634664Y-76293000D01*
X135365336Y-76293000D01*
X135116510Y-76396067D01*
X135026611Y-76485966D01*
X134968769Y-76428124D01*
X134937970Y-76382030D01*
X134755380Y-76260028D01*
X134594365Y-76228000D01*
X134540000Y-76217186D01*
X134485635Y-76228000D01*
X132719461Y-76228000D01*
X132872315Y-75999237D01*
X132926100Y-75728842D01*
X132926100Y-74996238D01*
X138072100Y-74996238D01*
X138072100Y-75728841D01*
X138125885Y-75999236D01*
X138330770Y-76305870D01*
X138637403Y-76510755D01*
X138999100Y-76582701D01*
X139360796Y-76510755D01*
X139667430Y-76305870D01*
X139872315Y-75999237D01*
X139926100Y-75728842D01*
X139926100Y-74996238D01*
X139872315Y-74725843D01*
X139667430Y-74419210D01*
X139360797Y-74214325D01*
X138999100Y-74142379D01*
X138637404Y-74214325D01*
X138330771Y-74419210D01*
X138125885Y-74725843D01*
X138072100Y-74996238D01*
X132926100Y-74996238D01*
X132872315Y-74725843D01*
X132667430Y-74419210D01*
X132360797Y-74214325D01*
X131999100Y-74142379D01*
X131637404Y-74214325D01*
X131330771Y-74419210D01*
X131125885Y-74725843D01*
X131072100Y-74996238D01*
X131072100Y-75728841D01*
X131125885Y-75999236D01*
X131278739Y-76228000D01*
X128545423Y-76228000D01*
X128523490Y-76206067D01*
X128274664Y-76103000D01*
X128005336Y-76103000D01*
X127756510Y-76206067D01*
X127566067Y-76396510D01*
X127463000Y-76645336D01*
X126515000Y-76645336D01*
X126515000Y-76523690D01*
X126418327Y-76290301D01*
X126239698Y-76111673D01*
X126006309Y-76015000D01*
X125665750Y-76015000D01*
X125507000Y-76173750D01*
X125253000Y-76173750D01*
X125094250Y-76015000D01*
X124753691Y-76015000D01*
X124520302Y-76111673D01*
X124345109Y-76286865D01*
X124286607Y-76247775D01*
X124120000Y-76214635D01*
X122280000Y-76214635D01*
X122113393Y-76247775D01*
X122000000Y-76323541D01*
X121886607Y-76247775D01*
X121720000Y-76214635D01*
X121142057Y-76214635D01*
X120977000Y-76049579D01*
X120977000Y-74182555D01*
X121001097Y-74158458D01*
X121127000Y-73854501D01*
X121127000Y-73525499D01*
X121001097Y-73221542D01*
X120781555Y-73002000D01*
X155848127Y-73002000D01*
X155874740Y-73011897D01*
X155938972Y-73023454D01*
X156568091Y-73096802D01*
X157105707Y-73291947D01*
X157584016Y-73605541D01*
X157977350Y-74020753D01*
X158264616Y-74515318D01*
X158432493Y-75069604D01*
X158475086Y-75546848D01*
X158498000Y-75657006D01*
X158498001Y-103348124D01*
X158488103Y-103374739D01*
X158476546Y-103438971D01*
X158403199Y-104068090D01*
X158208052Y-104605710D01*
X157894460Y-105084016D01*
X157479247Y-105477350D01*
X156984682Y-105764616D01*
X156430396Y-105932493D01*
X155953153Y-105975086D01*
X155842994Y-105998000D01*
X111651873Y-105998000D01*
X111625261Y-105988103D01*
X111561029Y-105976546D01*
X110931910Y-105903199D01*
X110394290Y-105708052D01*
X109915984Y-105394460D01*
X109522650Y-104979247D01*
X109235384Y-104484682D01*
X109067507Y-103930396D01*
X109024914Y-103453153D01*
X109002000Y-103342994D01*
X109002000Y-82785750D01*
X110599000Y-82785750D01*
X110599000Y-83489910D01*
X110695673Y-83723299D01*
X110874302Y-83901927D01*
X111107691Y-83998600D01*
X111333148Y-83998600D01*
X111167130Y-84109530D01*
X110881882Y-84536433D01*
X110781716Y-85040000D01*
X110881882Y-85543567D01*
X111167130Y-85970470D01*
X111594033Y-86255718D01*
X111866926Y-86310000D01*
X111594033Y-86364282D01*
X111167130Y-86649530D01*
X110881882Y-87076433D01*
X110781716Y-87580000D01*
X110881882Y-88083567D01*
X111167130Y-88510470D01*
X111594033Y-88795718D01*
X111866926Y-88850000D01*
X111594033Y-88904282D01*
X111167130Y-89189530D01*
X110881882Y-89616433D01*
X110781716Y-90120000D01*
X110881882Y-90623567D01*
X111167130Y-91050470D01*
X111594033Y-91335718D01*
X111866926Y-91390000D01*
X111594033Y-91444282D01*
X111167130Y-91729530D01*
X110881882Y-92156433D01*
X110781716Y-92660000D01*
X110881882Y-93163567D01*
X111167130Y-93590470D01*
X111594033Y-93875718D01*
X111866926Y-93930000D01*
X111594033Y-93984282D01*
X111167130Y-94269530D01*
X110881882Y-94696433D01*
X110781716Y-95200000D01*
X110881882Y-95703567D01*
X111167130Y-96130470D01*
X111594033Y-96415718D01*
X111866926Y-96470000D01*
X111594033Y-96524282D01*
X111167130Y-96809530D01*
X110881882Y-97236433D01*
X110781716Y-97740000D01*
X110881882Y-98243567D01*
X111167130Y-98670470D01*
X111594033Y-98955718D01*
X111970489Y-99030600D01*
X112529511Y-99030600D01*
X112574274Y-99021696D01*
X112704140Y-99151563D01*
X112741910Y-99208090D01*
X112965848Y-99357720D01*
X113163322Y-99397000D01*
X113163323Y-99397000D01*
X113229999Y-99410263D01*
X113296676Y-99397000D01*
X115504719Y-99397000D01*
X115573541Y-99500000D01*
X115497775Y-99613393D01*
X115464635Y-99780000D01*
X115464635Y-100780000D01*
X115497775Y-100946607D01*
X115592150Y-101087850D01*
X115733393Y-101182225D01*
X115900000Y-101215365D01*
X117100000Y-101215365D01*
X117266607Y-101182225D01*
X117407850Y-101087850D01*
X117495281Y-100957000D01*
X118305918Y-100957000D01*
X118317775Y-101016607D01*
X118412150Y-101157850D01*
X118553393Y-101252225D01*
X118720000Y-101285365D01*
X119374720Y-101285365D01*
X120171233Y-102081879D01*
X120202030Y-102127970D01*
X120384620Y-102249972D01*
X120545635Y-102282000D01*
X120600000Y-102292814D01*
X120654365Y-102282000D01*
X121715635Y-102282000D01*
X121770000Y-102292814D01*
X121824365Y-102282000D01*
X121985380Y-102249972D01*
X122167970Y-102127970D01*
X122198768Y-102081877D01*
X124688646Y-99592000D01*
X131494577Y-99592000D01*
X131516510Y-99613933D01*
X131765336Y-99717000D01*
X131958001Y-99717000D01*
X131958001Y-101535630D01*
X131947186Y-101590000D01*
X131990028Y-101805379D01*
X131990029Y-101805380D01*
X132013842Y-101841019D01*
X132012150Y-101842150D01*
X131917775Y-101983393D01*
X131884635Y-102150000D01*
X131884635Y-103350000D01*
X131917775Y-103516607D01*
X132012150Y-103657850D01*
X132153393Y-103752225D01*
X132320000Y-103785365D01*
X133320000Y-103785365D01*
X133486607Y-103752225D01*
X133627850Y-103657850D01*
X133635472Y-103646443D01*
X133661673Y-103709699D01*
X133840302Y-103888327D01*
X134073691Y-103985000D01*
X134414250Y-103985000D01*
X134573000Y-103826250D01*
X134573000Y-102877000D01*
X134827000Y-102877000D01*
X134827000Y-103826250D01*
X134985750Y-103985000D01*
X135326309Y-103985000D01*
X135559698Y-103888327D01*
X135738327Y-103709699D01*
X135835000Y-103476310D01*
X135835000Y-103035750D01*
X135676250Y-102877000D01*
X134827000Y-102877000D01*
X134573000Y-102877000D01*
X134553000Y-102877000D01*
X134553000Y-102623000D01*
X134573000Y-102623000D01*
X134573000Y-101673750D01*
X134827000Y-101673750D01*
X134827000Y-102623000D01*
X135676250Y-102623000D01*
X135835000Y-102464250D01*
X135835000Y-102023690D01*
X135738327Y-101790301D01*
X135559698Y-101611673D01*
X135326309Y-101515000D01*
X134985750Y-101515000D01*
X134827000Y-101673750D01*
X134573000Y-101673750D01*
X134414250Y-101515000D01*
X134073691Y-101515000D01*
X133840302Y-101611673D01*
X133661673Y-101790301D01*
X133635472Y-101853557D01*
X133627850Y-101842150D01*
X133486607Y-101747775D01*
X133347011Y-101720008D01*
X133339972Y-101684620D01*
X133332709Y-101673750D01*
X133217970Y-101502030D01*
X133171877Y-101471232D01*
X133062000Y-101361355D01*
X133062000Y-100235750D01*
X135515000Y-100235750D01*
X135515000Y-100576309D01*
X135611673Y-100809698D01*
X135790301Y-100988327D01*
X136023690Y-101085000D01*
X136464250Y-101085000D01*
X136623000Y-100926250D01*
X136623000Y-100077000D01*
X136877000Y-100077000D01*
X136877000Y-100926250D01*
X137035750Y-101085000D01*
X137476310Y-101085000D01*
X137709699Y-100988327D01*
X137888327Y-100809698D01*
X137985000Y-100576309D01*
X137985000Y-100235750D01*
X142015000Y-100235750D01*
X142015000Y-100576309D01*
X142111673Y-100809698D01*
X142290301Y-100988327D01*
X142523690Y-101085000D01*
X142964250Y-101085000D01*
X143123000Y-100926250D01*
X143123000Y-100077000D01*
X142173750Y-100077000D01*
X142015000Y-100235750D01*
X137985000Y-100235750D01*
X137826250Y-100077000D01*
X136877000Y-100077000D01*
X136623000Y-100077000D01*
X135673750Y-100077000D01*
X135515000Y-100235750D01*
X133062000Y-100235750D01*
X133062000Y-97485000D01*
X133264250Y-97485000D01*
X133423000Y-97326250D01*
X133423000Y-96377000D01*
X133403000Y-96377000D01*
X133403000Y-96123000D01*
X133423000Y-96123000D01*
X133423000Y-96103000D01*
X133677000Y-96103000D01*
X133677000Y-96123000D01*
X133697000Y-96123000D01*
X133697000Y-96377000D01*
X133677000Y-96377000D01*
X133677000Y-97326250D01*
X133835750Y-97485000D01*
X134176309Y-97485000D01*
X134409698Y-97388327D01*
X134588327Y-97209699D01*
X134614528Y-97146443D01*
X134622150Y-97157850D01*
X134763393Y-97252225D01*
X134930000Y-97285365D01*
X135007944Y-97285365D01*
X135714635Y-97992057D01*
X135714635Y-98570000D01*
X135747775Y-98736607D01*
X135842150Y-98877850D01*
X135853557Y-98885472D01*
X135790301Y-98911673D01*
X135611673Y-99090302D01*
X135515000Y-99323691D01*
X135515000Y-99664250D01*
X135673750Y-99823000D01*
X136623000Y-99823000D01*
X136623000Y-99803000D01*
X136877000Y-99803000D01*
X136877000Y-99823000D01*
X137826250Y-99823000D01*
X137985000Y-99664250D01*
X137985000Y-99323691D01*
X137888327Y-99090302D01*
X137709699Y-98911673D01*
X137646443Y-98885472D01*
X137657850Y-98877850D01*
X137752225Y-98736607D01*
X137785365Y-98570000D01*
X137785365Y-98167000D01*
X142214635Y-98167000D01*
X142214635Y-98570000D01*
X142247775Y-98736607D01*
X142342150Y-98877850D01*
X142353557Y-98885472D01*
X142290301Y-98911673D01*
X142111673Y-99090302D01*
X142015000Y-99323691D01*
X142015000Y-99664250D01*
X142173750Y-99823000D01*
X143123000Y-99823000D01*
X143123000Y-99803000D01*
X143377000Y-99803000D01*
X143377000Y-99823000D01*
X143397000Y-99823000D01*
X143397000Y-100077000D01*
X143377000Y-100077000D01*
X143377000Y-100926250D01*
X143535750Y-101085000D01*
X143976310Y-101085000D01*
X144209699Y-100988327D01*
X144388327Y-100809698D01*
X144485000Y-100576309D01*
X144485000Y-100312421D01*
X147604138Y-103431560D01*
X147641910Y-103488090D01*
X147865848Y-103637720D01*
X148063322Y-103677000D01*
X148063323Y-103677000D01*
X148129999Y-103690263D01*
X148196676Y-103677000D01*
X154507445Y-103677000D01*
X154531542Y-103701097D01*
X154835499Y-103827000D01*
X155164501Y-103827000D01*
X155468458Y-103701097D01*
X155701097Y-103468458D01*
X155827000Y-103164501D01*
X155827000Y-102835499D01*
X155701097Y-102531542D01*
X155468458Y-102298903D01*
X155164501Y-102173000D01*
X154835499Y-102173000D01*
X154531542Y-102298903D01*
X154507445Y-102323000D01*
X148410422Y-102323000D01*
X144285365Y-98197944D01*
X144285365Y-97570000D01*
X144252225Y-97403393D01*
X144157850Y-97262150D01*
X144016607Y-97167775D01*
X143850000Y-97134635D01*
X143172057Y-97134635D01*
X143095862Y-97058439D01*
X143058090Y-97001910D01*
X143001560Y-96964138D01*
X142527000Y-96489579D01*
X142527000Y-92825336D01*
X143163000Y-92825336D01*
X143163000Y-93094664D01*
X143266067Y-93343490D01*
X143456510Y-93533933D01*
X143705336Y-93637000D01*
X143974664Y-93637000D01*
X144223490Y-93533933D01*
X144245423Y-93512000D01*
X145425635Y-93512000D01*
X145480000Y-93522814D01*
X145534365Y-93512000D01*
X145695380Y-93479972D01*
X145877970Y-93357970D01*
X145908768Y-93311877D01*
X147718646Y-91502000D01*
X153709355Y-91502000D01*
X154059233Y-91851879D01*
X154090030Y-91897970D01*
X154267584Y-92016607D01*
X154272620Y-92019972D01*
X154487999Y-92062814D01*
X154497857Y-92060853D01*
X154569670Y-92168330D01*
X154691898Y-92250000D01*
X154569670Y-92331670D01*
X154364785Y-92638303D01*
X154292839Y-93000000D01*
X154364785Y-93361697D01*
X154569670Y-93668330D01*
X154876303Y-93873215D01*
X155146698Y-93927000D01*
X155853302Y-93927000D01*
X156123697Y-93873215D01*
X156430330Y-93668330D01*
X156635215Y-93361697D01*
X156707161Y-93000000D01*
X156635215Y-92638303D01*
X156430330Y-92331670D01*
X156308102Y-92250000D01*
X156430330Y-92168330D01*
X156635215Y-91861697D01*
X156707161Y-91500000D01*
X156635215Y-91138303D01*
X156430330Y-90831670D01*
X156308102Y-90750000D01*
X156430330Y-90668330D01*
X156635215Y-90361697D01*
X156707161Y-90000000D01*
X156635215Y-89638303D01*
X156430330Y-89331670D01*
X156308102Y-89250000D01*
X156430330Y-89168330D01*
X156635215Y-88861697D01*
X156707161Y-88500000D01*
X156635215Y-88138303D01*
X156430330Y-87831670D01*
X156308102Y-87750000D01*
X156430330Y-87668330D01*
X156635215Y-87361697D01*
X156707161Y-87000000D01*
X156635215Y-86638303D01*
X156460240Y-86376434D01*
X156654368Y-86212763D01*
X156856119Y-85801874D01*
X156729954Y-85627000D01*
X155627000Y-85627000D01*
X155627000Y-85647000D01*
X155373000Y-85647000D01*
X155373000Y-85627000D01*
X154270046Y-85627000D01*
X154143881Y-85801874D01*
X154345632Y-86212763D01*
X154539760Y-86376434D01*
X154364785Y-86638303D01*
X154292839Y-87000000D01*
X154364785Y-87361697D01*
X154569670Y-87668330D01*
X154691898Y-87750000D01*
X154569670Y-87831670D01*
X154364785Y-88138303D01*
X154292839Y-88500000D01*
X154364785Y-88861697D01*
X154569670Y-89168330D01*
X154691898Y-89250000D01*
X154569670Y-89331670D01*
X154364785Y-89638303D01*
X154292839Y-90000000D01*
X154364785Y-90361697D01*
X154569670Y-90668330D01*
X154691898Y-90750000D01*
X154588041Y-90819395D01*
X154366768Y-90598123D01*
X154335970Y-90552030D01*
X154153380Y-90430028D01*
X153992365Y-90398000D01*
X153938000Y-90387186D01*
X153883635Y-90398000D01*
X147544364Y-90398000D01*
X147489999Y-90387186D01*
X147319519Y-90421097D01*
X147274620Y-90430028D01*
X147092030Y-90552030D01*
X147061233Y-90598121D01*
X146515672Y-91143682D01*
X146585000Y-90976310D01*
X146585000Y-90535750D01*
X146426250Y-90377000D01*
X145577000Y-90377000D01*
X145577000Y-91326250D01*
X145735750Y-91485000D01*
X146076309Y-91485000D01*
X146243683Y-91415671D01*
X145251355Y-92408000D01*
X144245423Y-92408000D01*
X144223490Y-92386067D01*
X143974664Y-92283000D01*
X143705336Y-92283000D01*
X143456510Y-92386067D01*
X143266067Y-92576510D01*
X143163000Y-92825336D01*
X142527000Y-92825336D01*
X142527000Y-92350421D01*
X143592057Y-91285365D01*
X144070000Y-91285365D01*
X144236607Y-91252225D01*
X144377850Y-91157850D01*
X144385472Y-91146443D01*
X144411673Y-91209699D01*
X144590302Y-91388327D01*
X144823691Y-91485000D01*
X145164250Y-91485000D01*
X145323000Y-91326250D01*
X145323000Y-90377000D01*
X145303000Y-90377000D01*
X145303000Y-90123000D01*
X145323000Y-90123000D01*
X145323000Y-89173750D01*
X145577000Y-89173750D01*
X145577000Y-90123000D01*
X146426250Y-90123000D01*
X146585000Y-89964250D01*
X146585000Y-89523690D01*
X146488327Y-89290301D01*
X146309698Y-89111673D01*
X146076309Y-89015000D01*
X145735750Y-89015000D01*
X145577000Y-89173750D01*
X145323000Y-89173750D01*
X145164250Y-89015000D01*
X144823691Y-89015000D01*
X144590302Y-89111673D01*
X144411673Y-89290301D01*
X144385472Y-89353557D01*
X144377850Y-89342150D01*
X144236607Y-89247775D01*
X144070000Y-89214635D01*
X143070000Y-89214635D01*
X142903393Y-89247775D01*
X142762150Y-89342150D01*
X142667775Y-89483393D01*
X142634635Y-89650000D01*
X142634635Y-90327943D01*
X141418441Y-91544138D01*
X141361911Y-91581910D01*
X141263275Y-91729530D01*
X141212281Y-91805848D01*
X141159737Y-92070000D01*
X141173001Y-92136681D01*
X141173000Y-95135579D01*
X138117000Y-92079579D01*
X138117000Y-91926678D01*
X138130263Y-91860000D01*
X138077720Y-91595848D01*
X137928090Y-91371910D01*
X137871560Y-91334138D01*
X136615365Y-90077944D01*
X136615365Y-89400000D01*
X136582225Y-89233393D01*
X136487850Y-89092150D01*
X136357000Y-89004719D01*
X136357000Y-88966676D01*
X136370263Y-88900000D01*
X136355557Y-88826067D01*
X136317720Y-88635848D01*
X136168090Y-88411910D01*
X136111560Y-88374138D01*
X135482000Y-87744579D01*
X135482000Y-87373192D01*
X135515336Y-87387000D01*
X135546355Y-87387000D01*
X136331233Y-88171879D01*
X136362030Y-88217970D01*
X136544620Y-88339972D01*
X136759999Y-88382814D01*
X136814364Y-88372000D01*
X140224908Y-88372000D01*
X140926754Y-89073847D01*
X140893000Y-89155336D01*
X140893000Y-89424664D01*
X140996067Y-89673490D01*
X141186510Y-89863933D01*
X141435336Y-89967000D01*
X141704664Y-89967000D01*
X141953490Y-89863933D01*
X142143933Y-89673490D01*
X142247000Y-89424664D01*
X142247000Y-89155336D01*
X142143933Y-88906510D01*
X142122620Y-88885197D01*
X142089972Y-88721067D01*
X142050986Y-88662720D01*
X141967970Y-88538477D01*
X141921879Y-88507680D01*
X141246198Y-87832000D01*
X141834577Y-87832000D01*
X141856510Y-87853933D01*
X142105336Y-87957000D01*
X142374664Y-87957000D01*
X142623490Y-87853933D01*
X142813933Y-87663490D01*
X142917000Y-87414664D01*
X142917000Y-87145336D01*
X142813933Y-86896510D01*
X142623490Y-86706067D01*
X142374664Y-86603000D01*
X142105336Y-86603000D01*
X141856510Y-86706067D01*
X141834577Y-86728000D01*
X139800765Y-86728000D01*
X139827000Y-86664664D01*
X139827000Y-86395336D01*
X139793246Y-86313846D01*
X140065093Y-86042000D01*
X144655635Y-86042000D01*
X144710000Y-86052814D01*
X144764365Y-86042000D01*
X144925380Y-86009972D01*
X145107970Y-85887970D01*
X145138768Y-85841877D01*
X145971880Y-85008766D01*
X146017970Y-84977970D01*
X146139972Y-84795380D01*
X146160065Y-84694365D01*
X146182814Y-84580001D01*
X146172000Y-84525636D01*
X146172000Y-84261730D01*
X146338000Y-84150812D01*
X146338000Y-84234577D01*
X146316067Y-84256510D01*
X146213000Y-84505336D01*
X146213000Y-84774664D01*
X146316067Y-85023490D01*
X146506510Y-85213933D01*
X146755336Y-85317000D01*
X147024664Y-85317000D01*
X147273490Y-85213933D01*
X147289297Y-85198126D01*
X154143881Y-85198126D01*
X154270046Y-85373000D01*
X155373000Y-85373000D01*
X155373000Y-84365000D01*
X155627000Y-84365000D01*
X155627000Y-85373000D01*
X156729954Y-85373000D01*
X156856119Y-85198126D01*
X156654368Y-84787237D01*
X156313678Y-84499998D01*
X155889000Y-84365000D01*
X155627000Y-84365000D01*
X155373000Y-84365000D01*
X155111000Y-84365000D01*
X154686322Y-84499998D01*
X154345632Y-84787237D01*
X154143881Y-85198126D01*
X147289297Y-85198126D01*
X147463933Y-85023490D01*
X147567000Y-84774664D01*
X147567000Y-84505336D01*
X147463933Y-84256510D01*
X147442000Y-84234577D01*
X147442000Y-84150812D01*
X147700759Y-84323709D01*
X148160000Y-84415058D01*
X148619242Y-84323709D01*
X149008569Y-84063569D01*
X149268709Y-83674241D01*
X149337000Y-83330919D01*
X149337000Y-82599080D01*
X149268709Y-82255758D01*
X149008569Y-81866431D01*
X148619241Y-81606291D01*
X148160000Y-81514942D01*
X147700758Y-81606291D01*
X147442000Y-81779188D01*
X147442000Y-81738645D01*
X147751880Y-81428766D01*
X147797970Y-81397970D01*
X147919972Y-81215380D01*
X147952000Y-81054365D01*
X147952000Y-81054364D01*
X147962814Y-81000000D01*
X147952000Y-80945635D01*
X147952000Y-80631249D01*
X147983393Y-80652225D01*
X148150000Y-80685365D01*
X150750000Y-80685365D01*
X150916607Y-80652225D01*
X151057850Y-80557850D01*
X151152225Y-80416607D01*
X151185365Y-80250000D01*
X151185365Y-79785750D01*
X153115000Y-79785750D01*
X153115000Y-80376310D01*
X153211673Y-80609699D01*
X153390302Y-80788327D01*
X153623691Y-80885000D01*
X154764250Y-80885000D01*
X154923000Y-80726250D01*
X154923000Y-79627000D01*
X155177000Y-79627000D01*
X155177000Y-80726250D01*
X155335750Y-80885000D01*
X156476309Y-80885000D01*
X156709698Y-80788327D01*
X156888327Y-80609699D01*
X156985000Y-80376310D01*
X156985000Y-79785750D01*
X156826250Y-79627000D01*
X155177000Y-79627000D01*
X154923000Y-79627000D01*
X153273750Y-79627000D01*
X153115000Y-79785750D01*
X151185365Y-79785750D01*
X151185365Y-78750000D01*
X151160241Y-78623690D01*
X153115000Y-78623690D01*
X153115000Y-79214250D01*
X153273750Y-79373000D01*
X154923000Y-79373000D01*
X154923000Y-78273750D01*
X155177000Y-78273750D01*
X155177000Y-79373000D01*
X156826250Y-79373000D01*
X156985000Y-79214250D01*
X156985000Y-78623690D01*
X156888327Y-78390301D01*
X156709698Y-78211673D01*
X156476309Y-78115000D01*
X155335750Y-78115000D01*
X155177000Y-78273750D01*
X154923000Y-78273750D01*
X154764250Y-78115000D01*
X153623691Y-78115000D01*
X153390302Y-78211673D01*
X153211673Y-78390301D01*
X153115000Y-78623690D01*
X151160241Y-78623690D01*
X151152225Y-78583393D01*
X151057850Y-78442150D01*
X150916607Y-78347775D01*
X150750000Y-78314635D01*
X148666011Y-78314635D01*
X149801879Y-77178767D01*
X149847970Y-77147970D01*
X149969972Y-76965380D01*
X149975942Y-76935365D01*
X150750000Y-76935365D01*
X150916607Y-76902225D01*
X151057850Y-76807850D01*
X151152225Y-76666607D01*
X151185365Y-76500000D01*
X151185365Y-76035750D01*
X153115000Y-76035750D01*
X153115000Y-76626310D01*
X153211673Y-76859699D01*
X153390302Y-77038327D01*
X153623691Y-77135000D01*
X154764250Y-77135000D01*
X154923000Y-76976250D01*
X154923000Y-75877000D01*
X155177000Y-75877000D01*
X155177000Y-76976250D01*
X155335750Y-77135000D01*
X156476309Y-77135000D01*
X156709698Y-77038327D01*
X156888327Y-76859699D01*
X156985000Y-76626310D01*
X156985000Y-76035750D01*
X156826250Y-75877000D01*
X155177000Y-75877000D01*
X154923000Y-75877000D01*
X153273750Y-75877000D01*
X153115000Y-76035750D01*
X151185365Y-76035750D01*
X151185365Y-75000000D01*
X151160241Y-74873690D01*
X153115000Y-74873690D01*
X153115000Y-75464250D01*
X153273750Y-75623000D01*
X154923000Y-75623000D01*
X154923000Y-74523750D01*
X155177000Y-74523750D01*
X155177000Y-75623000D01*
X156826250Y-75623000D01*
X156985000Y-75464250D01*
X156985000Y-74873690D01*
X156888327Y-74640301D01*
X156709698Y-74461673D01*
X156476309Y-74365000D01*
X155335750Y-74365000D01*
X155177000Y-74523750D01*
X154923000Y-74523750D01*
X154764250Y-74365000D01*
X153623691Y-74365000D01*
X153390302Y-74461673D01*
X153211673Y-74640301D01*
X153115000Y-74873690D01*
X151160241Y-74873690D01*
X151152225Y-74833393D01*
X151057850Y-74692150D01*
X150916607Y-74597775D01*
X150750000Y-74564635D01*
X148150000Y-74564635D01*
X147983393Y-74597775D01*
X147842150Y-74692150D01*
X147747775Y-74833393D01*
X147714635Y-75000000D01*
X147714635Y-76500000D01*
X147747775Y-76666607D01*
X147842150Y-76807850D01*
X147983393Y-76902225D01*
X148150000Y-76935365D01*
X148483989Y-76935365D01*
X146428123Y-78991232D01*
X146382030Y-79022030D01*
X146281220Y-79172905D01*
X146260028Y-79204621D01*
X146229619Y-79357498D01*
X146006309Y-79265000D01*
X145665750Y-79265000D01*
X145507000Y-79423750D01*
X145507000Y-80373000D01*
X145527000Y-80373000D01*
X145527000Y-80627000D01*
X145507000Y-80627000D01*
X145507000Y-80647000D01*
X145253000Y-80647000D01*
X145253000Y-80627000D01*
X145233000Y-80627000D01*
X145233000Y-80373000D01*
X145253000Y-80373000D01*
X145253000Y-79423750D01*
X145094250Y-79265000D01*
X144753691Y-79265000D01*
X144520302Y-79361673D01*
X144345109Y-79536865D01*
X144286607Y-79497775D01*
X144120000Y-79464635D01*
X142280000Y-79464635D01*
X142113393Y-79497775D01*
X142000000Y-79573541D01*
X141886607Y-79497775D01*
X141720000Y-79464635D01*
X140720000Y-79464635D01*
X140553393Y-79497775D01*
X140412150Y-79592150D01*
X140317775Y-79733393D01*
X140284635Y-79900000D01*
X140284635Y-80754720D01*
X140241355Y-80798000D01*
X140114365Y-80798000D01*
X140060000Y-80787186D01*
X140005635Y-80798000D01*
X139844620Y-80830028D01*
X139662030Y-80952030D01*
X139631231Y-80998124D01*
X138908122Y-81721233D01*
X138862031Y-81752030D01*
X138831236Y-81798119D01*
X138805030Y-81837339D01*
X138780018Y-81820627D01*
X139411880Y-81188766D01*
X139457970Y-81157970D01*
X139579972Y-80975380D01*
X139597950Y-80885000D01*
X139622814Y-80760001D01*
X139612000Y-80705636D01*
X139612000Y-78758645D01*
X140284635Y-78086011D01*
X140284635Y-78100000D01*
X140317775Y-78266607D01*
X140412150Y-78407850D01*
X140553393Y-78502225D01*
X140720000Y-78535365D01*
X141720000Y-78535365D01*
X141886607Y-78502225D01*
X142000000Y-78426459D01*
X142113393Y-78502225D01*
X142280000Y-78535365D01*
X144120000Y-78535365D01*
X144286607Y-78502225D01*
X144345109Y-78463135D01*
X144520302Y-78638327D01*
X144753691Y-78735000D01*
X145094250Y-78735000D01*
X145253000Y-78576250D01*
X145253000Y-77627000D01*
X145507000Y-77627000D01*
X145507000Y-78576250D01*
X145665750Y-78735000D01*
X146006309Y-78735000D01*
X146239698Y-78638327D01*
X146418327Y-78459699D01*
X146515000Y-78226310D01*
X146515000Y-77785750D01*
X146356250Y-77627000D01*
X145507000Y-77627000D01*
X145253000Y-77627000D01*
X145233000Y-77627000D01*
X145233000Y-77373000D01*
X145253000Y-77373000D01*
X145253000Y-76423750D01*
X145507000Y-76423750D01*
X145507000Y-77373000D01*
X146356250Y-77373000D01*
X146515000Y-77214250D01*
X146515000Y-76773690D01*
X146418327Y-76540301D01*
X146239698Y-76361673D01*
X146006309Y-76265000D01*
X145665750Y-76265000D01*
X145507000Y-76423750D01*
X145253000Y-76423750D01*
X145094250Y-76265000D01*
X144753691Y-76265000D01*
X144520302Y-76361673D01*
X144345109Y-76536865D01*
X144286607Y-76497775D01*
X144120000Y-76464635D01*
X142280000Y-76464635D01*
X142113393Y-76497775D01*
X142000000Y-76573541D01*
X141886607Y-76497775D01*
X141720000Y-76464635D01*
X140720000Y-76464635D01*
X140553393Y-76497775D01*
X140412150Y-76592150D01*
X140317775Y-76733393D01*
X140284635Y-76900000D01*
X140284635Y-76948000D01*
X140144365Y-76948000D01*
X140090000Y-76937186D01*
X140035635Y-76948000D01*
X139874620Y-76980028D01*
X139692030Y-77102030D01*
X139661233Y-77148121D01*
X139015355Y-77794000D01*
X138998765Y-77710597D01*
X138799406Y-77412234D01*
X138501043Y-77212875D01*
X138237938Y-77160540D01*
X137760262Y-77160540D01*
X137605171Y-77191390D01*
X137537427Y-77027842D01*
X137358799Y-76849213D01*
X137125410Y-76752540D01*
X137057850Y-76752540D01*
X136899100Y-76911290D01*
X136899100Y-77935540D01*
X136946100Y-77935540D01*
X136946100Y-77978730D01*
X136929429Y-78062540D01*
X136946100Y-78146350D01*
X136946100Y-78189540D01*
X136899100Y-78189540D01*
X136899100Y-79213790D01*
X137057850Y-79372540D01*
X137125410Y-79372540D01*
X137358799Y-79275867D01*
X137537427Y-79097238D01*
X137605171Y-78933690D01*
X137760262Y-78964540D01*
X138237938Y-78964540D01*
X138501043Y-78912205D01*
X138508001Y-78907556D01*
X138508000Y-80268445D01*
X138288458Y-80048903D01*
X137984501Y-79923000D01*
X137655499Y-79923000D01*
X137351542Y-80048903D01*
X137327445Y-80073000D01*
X128812555Y-80073000D01*
X128788458Y-80048903D01*
X128484501Y-79923000D01*
X128155499Y-79923000D01*
X127851542Y-80048903D01*
X127618903Y-80281542D01*
X127493000Y-80585499D01*
X127493000Y-80914501D01*
X127618903Y-81218458D01*
X127851542Y-81451097D01*
X128155499Y-81577000D01*
X128484501Y-81577000D01*
X128788458Y-81451097D01*
X128812555Y-81427000D01*
X135940595Y-81427000D01*
X135933000Y-81445336D01*
X135933000Y-81615484D01*
X135919241Y-81606291D01*
X135460000Y-81514942D01*
X135000758Y-81606291D01*
X134611431Y-81866431D01*
X134351291Y-82255759D01*
X134283000Y-82599081D01*
X134283000Y-83330920D01*
X134351291Y-83674242D01*
X134611432Y-84063569D01*
X134760241Y-84163000D01*
X134725336Y-84163000D01*
X134476510Y-84266067D01*
X134454577Y-84288000D01*
X133432684Y-84288000D01*
X133768569Y-84063569D01*
X134028709Y-83674241D01*
X134097000Y-83330919D01*
X134097000Y-82599080D01*
X134028709Y-82255758D01*
X133768569Y-81866431D01*
X133379241Y-81606291D01*
X132920000Y-81514942D01*
X132460758Y-81606291D01*
X132071431Y-81866431D01*
X131811291Y-82255759D01*
X131743000Y-82599081D01*
X131743000Y-83330920D01*
X131811291Y-83674242D01*
X132071432Y-84063569D01*
X132407317Y-84288000D01*
X130892684Y-84288000D01*
X131228569Y-84063569D01*
X131488709Y-83674241D01*
X131557000Y-83330919D01*
X131557000Y-82599080D01*
X131488709Y-82255758D01*
X131228569Y-81866431D01*
X130839241Y-81606291D01*
X130380000Y-81514942D01*
X129920758Y-81606291D01*
X129531431Y-81866431D01*
X129271291Y-82255759D01*
X129203000Y-82599081D01*
X129203000Y-83330920D01*
X129271291Y-83674242D01*
X129531432Y-84063569D01*
X129867317Y-84288000D01*
X128352684Y-84288000D01*
X128688569Y-84063569D01*
X128948709Y-83674241D01*
X129017000Y-83330919D01*
X129017000Y-82599080D01*
X128948709Y-82255758D01*
X128688569Y-81866431D01*
X128299241Y-81606291D01*
X127840000Y-81514942D01*
X127380758Y-81606291D01*
X126991431Y-81866431D01*
X126731291Y-82255759D01*
X126663000Y-82599081D01*
X126663000Y-83330920D01*
X126731291Y-83674242D01*
X126991432Y-84063569D01*
X127327317Y-84288000D01*
X125535423Y-84288000D01*
X125513490Y-84266067D01*
X125264664Y-84163000D01*
X124995336Y-84163000D01*
X124746510Y-84266067D01*
X124556067Y-84456510D01*
X124453000Y-84705336D01*
X124453000Y-84974664D01*
X124484365Y-85050387D01*
X124446510Y-85066067D01*
X124256067Y-85256510D01*
X124153000Y-85505336D01*
X124153000Y-85774664D01*
X124256067Y-86023490D01*
X124446510Y-86213933D01*
X124695336Y-86317000D01*
X124964664Y-86317000D01*
X125213490Y-86213933D01*
X125232898Y-86194525D01*
X134157598Y-86194525D01*
X134114737Y-86410000D01*
X134128001Y-86476681D01*
X134128000Y-87958323D01*
X134114737Y-88025000D01*
X134128000Y-88091676D01*
X134128000Y-88091677D01*
X134167280Y-88289151D01*
X134316910Y-88513089D01*
X134373440Y-88550862D01*
X134897674Y-89075096D01*
X134872150Y-89092150D01*
X134864528Y-89103557D01*
X134838327Y-89040301D01*
X134659698Y-88861673D01*
X134426309Y-88765000D01*
X134085750Y-88765000D01*
X133927000Y-88923750D01*
X133927000Y-89873000D01*
X133947000Y-89873000D01*
X133947000Y-90127000D01*
X133927000Y-90127000D01*
X133927000Y-90147000D01*
X133673000Y-90147000D01*
X133673000Y-90127000D01*
X132823750Y-90127000D01*
X132665000Y-90285750D01*
X132665000Y-90523001D01*
X126796675Y-90523001D01*
X126729998Y-90509738D01*
X126663322Y-90523001D01*
X126663321Y-90523001D01*
X126465847Y-90562281D01*
X126241909Y-90711911D01*
X126204137Y-90768441D01*
X125598440Y-91374139D01*
X125541910Y-91411911D01*
X125535365Y-91421706D01*
X125535365Y-91030000D01*
X125519215Y-90948810D01*
X125638327Y-90829698D01*
X125735000Y-90596309D01*
X125735000Y-90255750D01*
X125576250Y-90097000D01*
X124627000Y-90097000D01*
X124627000Y-90117000D01*
X124373000Y-90117000D01*
X124373000Y-90097000D01*
X124353000Y-90097000D01*
X124353000Y-89843000D01*
X124373000Y-89843000D01*
X124373000Y-88993750D01*
X124627000Y-88993750D01*
X124627000Y-89843000D01*
X125576250Y-89843000D01*
X125735000Y-89684250D01*
X125735000Y-89343691D01*
X125706005Y-89273690D01*
X132665000Y-89273690D01*
X132665000Y-89714250D01*
X132823750Y-89873000D01*
X133673000Y-89873000D01*
X133673000Y-88923750D01*
X133514250Y-88765000D01*
X133173691Y-88765000D01*
X132940302Y-88861673D01*
X132761673Y-89040301D01*
X132665000Y-89273690D01*
X125706005Y-89273690D01*
X125638327Y-89110302D01*
X125459699Y-88931673D01*
X125226310Y-88835000D01*
X124785750Y-88835000D01*
X124627000Y-88993750D01*
X124373000Y-88993750D01*
X124214250Y-88835000D01*
X123773690Y-88835000D01*
X123540301Y-88931673D01*
X123479699Y-88992276D01*
X123313490Y-88826067D01*
X123064664Y-88723000D01*
X122795336Y-88723000D01*
X122546510Y-88826067D01*
X122524577Y-88848000D01*
X121915000Y-88848000D01*
X121915000Y-88535750D01*
X121756250Y-88377000D01*
X120907000Y-88377000D01*
X120907000Y-88397000D01*
X120653000Y-88397000D01*
X120653000Y-88377000D01*
X120633000Y-88377000D01*
X120633000Y-88123000D01*
X120653000Y-88123000D01*
X120653000Y-88103000D01*
X120907000Y-88103000D01*
X120907000Y-88123000D01*
X121756250Y-88123000D01*
X121915000Y-87964250D01*
X121915000Y-87552000D01*
X122854577Y-87552000D01*
X122876510Y-87573933D01*
X123125336Y-87677000D01*
X123394664Y-87677000D01*
X123643490Y-87573933D01*
X123833933Y-87383490D01*
X123937000Y-87134664D01*
X123937000Y-86865336D01*
X123833933Y-86616510D01*
X123643490Y-86426067D01*
X123394664Y-86323000D01*
X123125336Y-86323000D01*
X122876510Y-86426067D01*
X122854577Y-86448000D01*
X121268646Y-86448000D01*
X120907002Y-86086356D01*
X120907002Y-86076252D01*
X121065750Y-86235000D01*
X121406309Y-86235000D01*
X121639698Y-86138327D01*
X121818327Y-85959699D01*
X121915000Y-85726310D01*
X121915000Y-85285750D01*
X121756250Y-85127000D01*
X120907000Y-85127000D01*
X120907000Y-85147000D01*
X120653000Y-85147000D01*
X120653000Y-85127000D01*
X120633000Y-85127000D01*
X120633000Y-84873000D01*
X120653000Y-84873000D01*
X120653000Y-83923750D01*
X120907000Y-83923750D01*
X120907000Y-84873000D01*
X121756250Y-84873000D01*
X121915000Y-84714250D01*
X121915000Y-84273690D01*
X121818327Y-84040301D01*
X121639698Y-83861673D01*
X121406309Y-83765000D01*
X121065750Y-83765000D01*
X120907000Y-83923750D01*
X120653000Y-83923750D01*
X120494250Y-83765000D01*
X120153691Y-83765000D01*
X120052739Y-83806816D01*
X120081097Y-83778458D01*
X120207000Y-83474501D01*
X120207000Y-83440422D01*
X120495859Y-83151563D01*
X120495859Y-83151562D01*
X121401563Y-82245860D01*
X121458090Y-82208090D01*
X121542153Y-82082281D01*
X121607720Y-81984153D01*
X121660263Y-81720000D01*
X121647000Y-81653322D01*
X121647000Y-81495281D01*
X121750000Y-81426459D01*
X121863393Y-81502225D01*
X122030000Y-81535365D01*
X123870000Y-81535365D01*
X124036607Y-81502225D01*
X124095109Y-81463135D01*
X124270302Y-81638327D01*
X124503691Y-81735000D01*
X124844250Y-81735000D01*
X125003000Y-81576250D01*
X125003000Y-80627000D01*
X125257000Y-80627000D01*
X125257000Y-81576250D01*
X125415750Y-81735000D01*
X125756309Y-81735000D01*
X125989698Y-81638327D01*
X126168327Y-81459699D01*
X126265000Y-81226310D01*
X126265000Y-80785750D01*
X126106250Y-80627000D01*
X125257000Y-80627000D01*
X125003000Y-80627000D01*
X124983000Y-80627000D01*
X124983000Y-80373000D01*
X125003000Y-80373000D01*
X125003000Y-79423750D01*
X125257000Y-79423750D01*
X125257000Y-80373000D01*
X126106250Y-80373000D01*
X126265000Y-80214250D01*
X126265000Y-79773690D01*
X126168327Y-79540301D01*
X125989698Y-79361673D01*
X125756309Y-79265000D01*
X125415750Y-79265000D01*
X125257000Y-79423750D01*
X125003000Y-79423750D01*
X124844250Y-79265000D01*
X124503691Y-79265000D01*
X124270302Y-79361673D01*
X124095109Y-79536865D01*
X124036607Y-79497775D01*
X123870000Y-79464635D01*
X122030000Y-79464635D01*
X121863393Y-79497775D01*
X121750000Y-79573541D01*
X121636607Y-79497775D01*
X121470000Y-79464635D01*
X120470000Y-79464635D01*
X120303393Y-79497775D01*
X120162150Y-79592150D01*
X120067775Y-79733393D01*
X120034635Y-79900000D01*
X120034635Y-81100000D01*
X120067775Y-81266607D01*
X120162150Y-81407850D01*
X120259608Y-81472969D01*
X119538438Y-82194141D01*
X119538437Y-82194141D01*
X119249578Y-82483000D01*
X119215499Y-82483000D01*
X118911542Y-82608903D01*
X118678903Y-82841542D01*
X118553000Y-83145499D01*
X118553000Y-83474501D01*
X118678903Y-83778458D01*
X118865080Y-83964635D01*
X118720000Y-83964635D01*
X118553393Y-83997775D01*
X118412150Y-84092150D01*
X118317775Y-84233393D01*
X118293984Y-84353000D01*
X117495281Y-84353000D01*
X117426459Y-84250000D01*
X117502225Y-84136607D01*
X117535365Y-83970000D01*
X117535365Y-82970000D01*
X117502225Y-82803393D01*
X117407850Y-82662150D01*
X117266607Y-82567775D01*
X117100000Y-82534635D01*
X115900000Y-82534635D01*
X115733393Y-82567775D01*
X115592150Y-82662150D01*
X115504719Y-82793000D01*
X113901000Y-82793000D01*
X113901000Y-82785750D01*
X113742250Y-82627000D01*
X112377000Y-82627000D01*
X112377000Y-82647000D01*
X112123000Y-82647000D01*
X112123000Y-82627000D01*
X110757750Y-82627000D01*
X110599000Y-82785750D01*
X109002000Y-82785750D01*
X109002000Y-81510090D01*
X110599000Y-81510090D01*
X110599000Y-82214250D01*
X110757750Y-82373000D01*
X112123000Y-82373000D01*
X112123000Y-81160150D01*
X112377000Y-81160150D01*
X112377000Y-82373000D01*
X113742250Y-82373000D01*
X113901000Y-82214250D01*
X113901000Y-81510090D01*
X113804327Y-81276701D01*
X113625698Y-81098073D01*
X113392309Y-81001400D01*
X112535750Y-81001400D01*
X112377000Y-81160150D01*
X112123000Y-81160150D01*
X111964250Y-81001400D01*
X111107691Y-81001400D01*
X110874302Y-81098073D01*
X110695673Y-81276701D01*
X110599000Y-81510090D01*
X109002000Y-81510090D01*
X109002000Y-75651873D01*
X109011897Y-75625260D01*
X109023454Y-75561028D01*
X109096802Y-74931909D01*
X109291947Y-74394293D01*
X109605541Y-73915984D01*
X110020753Y-73522650D01*
X110515318Y-73235384D01*
X111069604Y-73067507D01*
X111546848Y-73024914D01*
X111657006Y-73002000D01*
X119818445Y-73002000D01*
X119598903Y-73221542D01*
G36*
X118317775Y-98016607D02*
X118412150Y-98157850D01*
X118553393Y-98252225D01*
X118720000Y-98285365D01*
X119349717Y-98285365D01*
X119753116Y-98688764D01*
X119753119Y-98688766D01*
X119856229Y-98791876D01*
X119887028Y-98837970D01*
X120069618Y-98959972D01*
X120158004Y-98977553D01*
X120284997Y-99002814D01*
X120339362Y-98992000D01*
X123727354Y-98992000D01*
X121915000Y-100804355D01*
X121915000Y-100535750D01*
X121756250Y-100377000D01*
X120907000Y-100377000D01*
X120907000Y-100397000D01*
X120653000Y-100397000D01*
X120653000Y-100377000D01*
X120633000Y-100377000D01*
X120633000Y-100123000D01*
X120653000Y-100123000D01*
X120653000Y-99173750D01*
X120907000Y-99173750D01*
X120907000Y-100123000D01*
X121756250Y-100123000D01*
X121915000Y-99964250D01*
X121915000Y-99523690D01*
X121818327Y-99290301D01*
X121639698Y-99111673D01*
X121406309Y-99015000D01*
X121065750Y-99015000D01*
X120907000Y-99173750D01*
X120653000Y-99173750D01*
X120494250Y-99015000D01*
X120153691Y-99015000D01*
X119920302Y-99111673D01*
X119801190Y-99230785D01*
X119720000Y-99214635D01*
X118720000Y-99214635D01*
X118553393Y-99247775D01*
X118412150Y-99342150D01*
X118317775Y-99483393D01*
X118293984Y-99603000D01*
X117495281Y-99603000D01*
X117426459Y-99500000D01*
X117502225Y-99386607D01*
X117535365Y-99220000D01*
X117535365Y-98220000D01*
X117502225Y-98053393D01*
X117466549Y-98000000D01*
X117502225Y-97946607D01*
X117506125Y-97927000D01*
X118299951Y-97927000D01*
X118317775Y-98016607D01*
X118317775Y-98016607D01*
G37*
X118317775Y-98016607D02*
X118412150Y-98157850D01*
X118553393Y-98252225D01*
X118720000Y-98285365D01*
X119349717Y-98285365D01*
X119753116Y-98688764D01*
X119753119Y-98688766D01*
X119856229Y-98791876D01*
X119887028Y-98837970D01*
X120069618Y-98959972D01*
X120158004Y-98977553D01*
X120284997Y-99002814D01*
X120339362Y-98992000D01*
X123727354Y-98992000D01*
X121915000Y-100804355D01*
X121915000Y-100535750D01*
X121756250Y-100377000D01*
X120907000Y-100377000D01*
X120907000Y-100397000D01*
X120653000Y-100397000D01*
X120653000Y-100377000D01*
X120633000Y-100377000D01*
X120633000Y-100123000D01*
X120653000Y-100123000D01*
X120653000Y-99173750D01*
X120907000Y-99173750D01*
X120907000Y-100123000D01*
X121756250Y-100123000D01*
X121915000Y-99964250D01*
X121915000Y-99523690D01*
X121818327Y-99290301D01*
X121639698Y-99111673D01*
X121406309Y-99015000D01*
X121065750Y-99015000D01*
X120907000Y-99173750D01*
X120653000Y-99173750D01*
X120494250Y-99015000D01*
X120153691Y-99015000D01*
X119920302Y-99111673D01*
X119801190Y-99230785D01*
X119720000Y-99214635D01*
X118720000Y-99214635D01*
X118553393Y-99247775D01*
X118412150Y-99342150D01*
X118317775Y-99483393D01*
X118293984Y-99603000D01*
X117495281Y-99603000D01*
X117426459Y-99500000D01*
X117502225Y-99386607D01*
X117535365Y-99220000D01*
X117535365Y-98220000D01*
X117502225Y-98053393D01*
X117466549Y-98000000D01*
X117502225Y-97946607D01*
X117506125Y-97927000D01*
X118299951Y-97927000D01*
X118317775Y-98016607D01*
G36*
X118317775Y-89016607D02*
X118412150Y-89157850D01*
X118553393Y-89252225D01*
X118720000Y-89285365D01*
X119374719Y-89285365D01*
X119841233Y-89751879D01*
X119872030Y-89797970D01*
X120001534Y-89884501D01*
X120054620Y-89919972D01*
X120269999Y-89962814D01*
X120324364Y-89952000D01*
X122524577Y-89952000D01*
X122546510Y-89973933D01*
X122795336Y-90077000D01*
X123064664Y-90077000D01*
X123265000Y-89994018D01*
X123265000Y-90097002D01*
X123423748Y-90097002D01*
X123265000Y-90255750D01*
X123265000Y-90596309D01*
X123361673Y-90829698D01*
X123480785Y-90948810D01*
X123464635Y-91030000D01*
X123464635Y-92030000D01*
X123497775Y-92196607D01*
X123557355Y-92285776D01*
X123534635Y-92400000D01*
X123534635Y-93600000D01*
X123567775Y-93766607D01*
X123662150Y-93907850D01*
X123803393Y-94002225D01*
X123970000Y-94035365D01*
X124970000Y-94035365D01*
X125136607Y-94002225D01*
X125250000Y-93926459D01*
X125363393Y-94002225D01*
X125530000Y-94035365D01*
X126530000Y-94035365D01*
X126696607Y-94002225D01*
X126837850Y-93907850D01*
X126932225Y-93766607D01*
X126965365Y-93600000D01*
X126965365Y-92835750D01*
X128015000Y-92835750D01*
X128015000Y-93176309D01*
X128111673Y-93409698D01*
X128290301Y-93588327D01*
X128353557Y-93614528D01*
X128342150Y-93622150D01*
X128247775Y-93763393D01*
X128214635Y-93930000D01*
X128214635Y-93979272D01*
X128123000Y-94200499D01*
X128123000Y-94529501D01*
X128214635Y-94750728D01*
X128214635Y-94930000D01*
X128247775Y-95096607D01*
X128342150Y-95237850D01*
X128483393Y-95332225D01*
X128650000Y-95365365D01*
X129850000Y-95365365D01*
X130016607Y-95332225D01*
X130157850Y-95237850D01*
X130252225Y-95096607D01*
X130285365Y-94930000D01*
X130285365Y-93930000D01*
X130252225Y-93763393D01*
X130157850Y-93622150D01*
X130146443Y-93614528D01*
X130209699Y-93588327D01*
X130388327Y-93409698D01*
X130485000Y-93176309D01*
X130485000Y-92835750D01*
X130326250Y-92677000D01*
X129377000Y-92677000D01*
X129377000Y-92697000D01*
X129123000Y-92697000D01*
X129123000Y-92677000D01*
X128173750Y-92677000D01*
X128015000Y-92835750D01*
X126965365Y-92835750D01*
X126965365Y-92400000D01*
X126932225Y-92233393D01*
X126837850Y-92092150D01*
X126812326Y-92075095D01*
X127010421Y-91877001D01*
X128034340Y-91877001D01*
X128015000Y-91923691D01*
X128015000Y-92264250D01*
X128173750Y-92423000D01*
X129123000Y-92423000D01*
X129123000Y-92403000D01*
X129377000Y-92403000D01*
X129377000Y-92423000D01*
X130326250Y-92423000D01*
X130485000Y-92264250D01*
X130485000Y-91923691D01*
X130465660Y-91877001D01*
X136455581Y-91877001D01*
X136763000Y-92184420D01*
X136763000Y-92293324D01*
X136749737Y-92360000D01*
X136763000Y-92426676D01*
X136763000Y-92426677D01*
X136802280Y-92624151D01*
X136951910Y-92848089D01*
X137008441Y-92885862D01*
X140935578Y-96813000D01*
X137396676Y-96813000D01*
X137330000Y-96799737D01*
X137263323Y-96813000D01*
X137263322Y-96813000D01*
X137065848Y-96852280D01*
X136841910Y-97001910D01*
X136804138Y-97058440D01*
X136750000Y-97112578D01*
X136365365Y-96727944D01*
X136365365Y-95650000D01*
X136332225Y-95483393D01*
X136237850Y-95342150D01*
X136096607Y-95247775D01*
X135930000Y-95214635D01*
X134930000Y-95214635D01*
X134763393Y-95247775D01*
X134622150Y-95342150D01*
X134614528Y-95353557D01*
X134588327Y-95290301D01*
X134409698Y-95111673D01*
X134176309Y-95015000D01*
X133835750Y-95015000D01*
X133677002Y-95173748D01*
X133677002Y-95015000D01*
X133592092Y-95015000D01*
X134713847Y-93893246D01*
X134795336Y-93927000D01*
X135064664Y-93927000D01*
X135313490Y-93823933D01*
X135503933Y-93633490D01*
X135607000Y-93384664D01*
X135607000Y-93115336D01*
X135503933Y-92866510D01*
X135313490Y-92676067D01*
X135064664Y-92573000D01*
X134795336Y-92573000D01*
X134546510Y-92676067D01*
X134525197Y-92697380D01*
X134473221Y-92707719D01*
X134361067Y-92730028D01*
X134178477Y-92852030D01*
X134147680Y-92898121D01*
X132158123Y-94887679D01*
X132112030Y-94918477D01*
X132013395Y-95066097D01*
X131990028Y-95101068D01*
X131947186Y-95316447D01*
X131958000Y-95370812D01*
X131958000Y-98079467D01*
X131873933Y-97876510D01*
X131683490Y-97686067D01*
X131434664Y-97583000D01*
X131165336Y-97583000D01*
X130916510Y-97686067D01*
X130894577Y-97708000D01*
X130765635Y-97708000D01*
X130604620Y-97740028D01*
X130422030Y-97862030D01*
X130404678Y-97888000D01*
X121915000Y-97888000D01*
X121915000Y-97535750D01*
X121756250Y-97377000D01*
X120907000Y-97377000D01*
X120907000Y-97397000D01*
X120653000Y-97397000D01*
X120653000Y-97377000D01*
X120633000Y-97377000D01*
X120633000Y-97123000D01*
X120653000Y-97123000D01*
X120653000Y-96173750D01*
X120907000Y-96173750D01*
X120907000Y-97123000D01*
X121756250Y-97123000D01*
X121915000Y-96964250D01*
X121915000Y-96523690D01*
X121818327Y-96290301D01*
X121639698Y-96111673D01*
X121406309Y-96015000D01*
X121065750Y-96015000D01*
X120907000Y-96173750D01*
X120653000Y-96173750D01*
X120494250Y-96015000D01*
X120153691Y-96015000D01*
X119920302Y-96111673D01*
X119801190Y-96230785D01*
X119720000Y-96214635D01*
X118720000Y-96214635D01*
X118553393Y-96247775D01*
X118412150Y-96342150D01*
X118317775Y-96483393D01*
X118299951Y-96573000D01*
X117475235Y-96573000D01*
X117426459Y-96500000D01*
X117502225Y-96386607D01*
X117535365Y-96220000D01*
X117535365Y-95220000D01*
X117502225Y-95053393D01*
X117466549Y-95000000D01*
X117495281Y-94957000D01*
X118305918Y-94957000D01*
X118317775Y-95016607D01*
X118412150Y-95157850D01*
X118553393Y-95252225D01*
X118720000Y-95285365D01*
X119720000Y-95285365D01*
X119801190Y-95269215D01*
X119920302Y-95388327D01*
X120153691Y-95485000D01*
X120494250Y-95485000D01*
X120653000Y-95326250D01*
X120653000Y-94377000D01*
X120907000Y-94377000D01*
X120907000Y-95326250D01*
X121065750Y-95485000D01*
X121406309Y-95485000D01*
X121441317Y-95470499D01*
X122223000Y-95470499D01*
X122223000Y-95799501D01*
X122348903Y-96103458D01*
X122581542Y-96336097D01*
X122885499Y-96462000D01*
X123214501Y-96462000D01*
X123518458Y-96336097D01*
X123542555Y-96312000D01*
X126424579Y-96312000D01*
X127449138Y-97336560D01*
X127486910Y-97393090D01*
X127710848Y-97542720D01*
X127908322Y-97582000D01*
X127908323Y-97582000D01*
X127969643Y-97594198D01*
X127981542Y-97606097D01*
X128285499Y-97732000D01*
X128614501Y-97732000D01*
X128918458Y-97606097D01*
X129151097Y-97373458D01*
X129277000Y-97069501D01*
X129277000Y-96740499D01*
X129151097Y-96436542D01*
X128918458Y-96203903D01*
X128614501Y-96078000D01*
X128285499Y-96078000D01*
X128158165Y-96130743D01*
X127230864Y-95203443D01*
X127193090Y-95146910D01*
X126969152Y-94997280D01*
X126771678Y-94958000D01*
X126771676Y-94958000D01*
X126705000Y-94944737D01*
X126638324Y-94958000D01*
X123542555Y-94958000D01*
X123518458Y-94933903D01*
X123214501Y-94808000D01*
X122885499Y-94808000D01*
X122581542Y-94933903D01*
X122348903Y-95166542D01*
X122223000Y-95470499D01*
X121441317Y-95470499D01*
X121639698Y-95388327D01*
X121818327Y-95209699D01*
X121915000Y-94976310D01*
X121915000Y-94535750D01*
X121756250Y-94377000D01*
X120907000Y-94377000D01*
X120653000Y-94377000D01*
X120633000Y-94377000D01*
X120633000Y-94123000D01*
X120653000Y-94123000D01*
X120653000Y-94103000D01*
X120907000Y-94103000D01*
X120907000Y-94123000D01*
X121756250Y-94123000D01*
X121915000Y-93964250D01*
X121915000Y-93523690D01*
X121818327Y-93290301D01*
X121717000Y-93188975D01*
X121717000Y-92965481D01*
X121847970Y-92877970D01*
X121878769Y-92831876D01*
X122723645Y-91987000D01*
X122754664Y-91987000D01*
X123003490Y-91883933D01*
X123193933Y-91693490D01*
X123297000Y-91444664D01*
X123297000Y-91175336D01*
X123193933Y-90926510D01*
X123003490Y-90736067D01*
X122754664Y-90633000D01*
X122485336Y-90633000D01*
X122236510Y-90736067D01*
X122046067Y-90926510D01*
X121943000Y-91175336D01*
X121943000Y-91206355D01*
X121915000Y-91234355D01*
X121915000Y-91122998D01*
X121756252Y-91122998D01*
X121915000Y-90964250D01*
X121915000Y-90523690D01*
X121818327Y-90290301D01*
X121639698Y-90111673D01*
X121406309Y-90015000D01*
X121065750Y-90015000D01*
X120907000Y-90173750D01*
X120907000Y-91123000D01*
X120927000Y-91123000D01*
X120927000Y-91377000D01*
X120907000Y-91377000D01*
X120907000Y-91397000D01*
X120653000Y-91397000D01*
X120653000Y-91377000D01*
X120633000Y-91377000D01*
X120633000Y-91123000D01*
X120653000Y-91123000D01*
X120653000Y-90173750D01*
X120494250Y-90015000D01*
X120153691Y-90015000D01*
X119920302Y-90111673D01*
X119801190Y-90230785D01*
X119720000Y-90214635D01*
X118720000Y-90214635D01*
X118553393Y-90247775D01*
X118412150Y-90342150D01*
X118317775Y-90483393D01*
X118293984Y-90603000D01*
X117495281Y-90603000D01*
X117426459Y-90500000D01*
X117502225Y-90386607D01*
X117535365Y-90220000D01*
X117535365Y-89220000D01*
X117502225Y-89053393D01*
X117466549Y-89000000D01*
X117502225Y-88946607D01*
X117506125Y-88927000D01*
X118299951Y-88927000D01*
X118317775Y-89016607D01*
X118317775Y-89016607D01*
G37*
X118317775Y-89016607D02*
X118412150Y-89157850D01*
X118553393Y-89252225D01*
X118720000Y-89285365D01*
X119374719Y-89285365D01*
X119841233Y-89751879D01*
X119872030Y-89797970D01*
X120001534Y-89884501D01*
X120054620Y-89919972D01*
X120269999Y-89962814D01*
X120324364Y-89952000D01*
X122524577Y-89952000D01*
X122546510Y-89973933D01*
X122795336Y-90077000D01*
X123064664Y-90077000D01*
X123265000Y-89994018D01*
X123265000Y-90097002D01*
X123423748Y-90097002D01*
X123265000Y-90255750D01*
X123265000Y-90596309D01*
X123361673Y-90829698D01*
X123480785Y-90948810D01*
X123464635Y-91030000D01*
X123464635Y-92030000D01*
X123497775Y-92196607D01*
X123557355Y-92285776D01*
X123534635Y-92400000D01*
X123534635Y-93600000D01*
X123567775Y-93766607D01*
X123662150Y-93907850D01*
X123803393Y-94002225D01*
X123970000Y-94035365D01*
X124970000Y-94035365D01*
X125136607Y-94002225D01*
X125250000Y-93926459D01*
X125363393Y-94002225D01*
X125530000Y-94035365D01*
X126530000Y-94035365D01*
X126696607Y-94002225D01*
X126837850Y-93907850D01*
X126932225Y-93766607D01*
X126965365Y-93600000D01*
X126965365Y-92835750D01*
X128015000Y-92835750D01*
X128015000Y-93176309D01*
X128111673Y-93409698D01*
X128290301Y-93588327D01*
X128353557Y-93614528D01*
X128342150Y-93622150D01*
X128247775Y-93763393D01*
X128214635Y-93930000D01*
X128214635Y-93979272D01*
X128123000Y-94200499D01*
X128123000Y-94529501D01*
X128214635Y-94750728D01*
X128214635Y-94930000D01*
X128247775Y-95096607D01*
X128342150Y-95237850D01*
X128483393Y-95332225D01*
X128650000Y-95365365D01*
X129850000Y-95365365D01*
X130016607Y-95332225D01*
X130157850Y-95237850D01*
X130252225Y-95096607D01*
X130285365Y-94930000D01*
X130285365Y-93930000D01*
X130252225Y-93763393D01*
X130157850Y-93622150D01*
X130146443Y-93614528D01*
X130209699Y-93588327D01*
X130388327Y-93409698D01*
X130485000Y-93176309D01*
X130485000Y-92835750D01*
X130326250Y-92677000D01*
X129377000Y-92677000D01*
X129377000Y-92697000D01*
X129123000Y-92697000D01*
X129123000Y-92677000D01*
X128173750Y-92677000D01*
X128015000Y-92835750D01*
X126965365Y-92835750D01*
X126965365Y-92400000D01*
X126932225Y-92233393D01*
X126837850Y-92092150D01*
X126812326Y-92075095D01*
X127010421Y-91877001D01*
X128034340Y-91877001D01*
X128015000Y-91923691D01*
X128015000Y-92264250D01*
X128173750Y-92423000D01*
X129123000Y-92423000D01*
X129123000Y-92403000D01*
X129377000Y-92403000D01*
X129377000Y-92423000D01*
X130326250Y-92423000D01*
X130485000Y-92264250D01*
X130485000Y-91923691D01*
X130465660Y-91877001D01*
X136455581Y-91877001D01*
X136763000Y-92184420D01*
X136763000Y-92293324D01*
X136749737Y-92360000D01*
X136763000Y-92426676D01*
X136763000Y-92426677D01*
X136802280Y-92624151D01*
X136951910Y-92848089D01*
X137008441Y-92885862D01*
X140935578Y-96813000D01*
X137396676Y-96813000D01*
X137330000Y-96799737D01*
X137263323Y-96813000D01*
X137263322Y-96813000D01*
X137065848Y-96852280D01*
X136841910Y-97001910D01*
X136804138Y-97058440D01*
X136750000Y-97112578D01*
X136365365Y-96727944D01*
X136365365Y-95650000D01*
X136332225Y-95483393D01*
X136237850Y-95342150D01*
X136096607Y-95247775D01*
X135930000Y-95214635D01*
X134930000Y-95214635D01*
X134763393Y-95247775D01*
X134622150Y-95342150D01*
X134614528Y-95353557D01*
X134588327Y-95290301D01*
X134409698Y-95111673D01*
X134176309Y-95015000D01*
X133835750Y-95015000D01*
X133677002Y-95173748D01*
X133677002Y-95015000D01*
X133592092Y-95015000D01*
X134713847Y-93893246D01*
X134795336Y-93927000D01*
X135064664Y-93927000D01*
X135313490Y-93823933D01*
X135503933Y-93633490D01*
X135607000Y-93384664D01*
X135607000Y-93115336D01*
X135503933Y-92866510D01*
X135313490Y-92676067D01*
X135064664Y-92573000D01*
X134795336Y-92573000D01*
X134546510Y-92676067D01*
X134525197Y-92697380D01*
X134473221Y-92707719D01*
X134361067Y-92730028D01*
X134178477Y-92852030D01*
X134147680Y-92898121D01*
X132158123Y-94887679D01*
X132112030Y-94918477D01*
X132013395Y-95066097D01*
X131990028Y-95101068D01*
X131947186Y-95316447D01*
X131958000Y-95370812D01*
X131958000Y-98079467D01*
X131873933Y-97876510D01*
X131683490Y-97686067D01*
X131434664Y-97583000D01*
X131165336Y-97583000D01*
X130916510Y-97686067D01*
X130894577Y-97708000D01*
X130765635Y-97708000D01*
X130604620Y-97740028D01*
X130422030Y-97862030D01*
X130404678Y-97888000D01*
X121915000Y-97888000D01*
X121915000Y-97535750D01*
X121756250Y-97377000D01*
X120907000Y-97377000D01*
X120907000Y-97397000D01*
X120653000Y-97397000D01*
X120653000Y-97377000D01*
X120633000Y-97377000D01*
X120633000Y-97123000D01*
X120653000Y-97123000D01*
X120653000Y-96173750D01*
X120907000Y-96173750D01*
X120907000Y-97123000D01*
X121756250Y-97123000D01*
X121915000Y-96964250D01*
X121915000Y-96523690D01*
X121818327Y-96290301D01*
X121639698Y-96111673D01*
X121406309Y-96015000D01*
X121065750Y-96015000D01*
X120907000Y-96173750D01*
X120653000Y-96173750D01*
X120494250Y-96015000D01*
X120153691Y-96015000D01*
X119920302Y-96111673D01*
X119801190Y-96230785D01*
X119720000Y-96214635D01*
X118720000Y-96214635D01*
X118553393Y-96247775D01*
X118412150Y-96342150D01*
X118317775Y-96483393D01*
X118299951Y-96573000D01*
X117475235Y-96573000D01*
X117426459Y-96500000D01*
X117502225Y-96386607D01*
X117535365Y-96220000D01*
X117535365Y-95220000D01*
X117502225Y-95053393D01*
X117466549Y-95000000D01*
X117495281Y-94957000D01*
X118305918Y-94957000D01*
X118317775Y-95016607D01*
X118412150Y-95157850D01*
X118553393Y-95252225D01*
X118720000Y-95285365D01*
X119720000Y-95285365D01*
X119801190Y-95269215D01*
X119920302Y-95388327D01*
X120153691Y-95485000D01*
X120494250Y-95485000D01*
X120653000Y-95326250D01*
X120653000Y-94377000D01*
X120907000Y-94377000D01*
X120907000Y-95326250D01*
X121065750Y-95485000D01*
X121406309Y-95485000D01*
X121441317Y-95470499D01*
X122223000Y-95470499D01*
X122223000Y-95799501D01*
X122348903Y-96103458D01*
X122581542Y-96336097D01*
X122885499Y-96462000D01*
X123214501Y-96462000D01*
X123518458Y-96336097D01*
X123542555Y-96312000D01*
X126424579Y-96312000D01*
X127449138Y-97336560D01*
X127486910Y-97393090D01*
X127710848Y-97542720D01*
X127908322Y-97582000D01*
X127908323Y-97582000D01*
X127969643Y-97594198D01*
X127981542Y-97606097D01*
X128285499Y-97732000D01*
X128614501Y-97732000D01*
X128918458Y-97606097D01*
X129151097Y-97373458D01*
X129277000Y-97069501D01*
X129277000Y-96740499D01*
X129151097Y-96436542D01*
X128918458Y-96203903D01*
X128614501Y-96078000D01*
X128285499Y-96078000D01*
X128158165Y-96130743D01*
X127230864Y-95203443D01*
X127193090Y-95146910D01*
X126969152Y-94997280D01*
X126771678Y-94958000D01*
X126771676Y-94958000D01*
X126705000Y-94944737D01*
X126638324Y-94958000D01*
X123542555Y-94958000D01*
X123518458Y-94933903D01*
X123214501Y-94808000D01*
X122885499Y-94808000D01*
X122581542Y-94933903D01*
X122348903Y-95166542D01*
X122223000Y-95470499D01*
X121441317Y-95470499D01*
X121639698Y-95388327D01*
X121818327Y-95209699D01*
X121915000Y-94976310D01*
X121915000Y-94535750D01*
X121756250Y-94377000D01*
X120907000Y-94377000D01*
X120653000Y-94377000D01*
X120633000Y-94377000D01*
X120633000Y-94123000D01*
X120653000Y-94123000D01*
X120653000Y-94103000D01*
X120907000Y-94103000D01*
X120907000Y-94123000D01*
X121756250Y-94123000D01*
X121915000Y-93964250D01*
X121915000Y-93523690D01*
X121818327Y-93290301D01*
X121717000Y-93188975D01*
X121717000Y-92965481D01*
X121847970Y-92877970D01*
X121878769Y-92831876D01*
X122723645Y-91987000D01*
X122754664Y-91987000D01*
X123003490Y-91883933D01*
X123193933Y-91693490D01*
X123297000Y-91444664D01*
X123297000Y-91175336D01*
X123193933Y-90926510D01*
X123003490Y-90736067D01*
X122754664Y-90633000D01*
X122485336Y-90633000D01*
X122236510Y-90736067D01*
X122046067Y-90926510D01*
X121943000Y-91175336D01*
X121943000Y-91206355D01*
X121915000Y-91234355D01*
X121915000Y-91122998D01*
X121756252Y-91122998D01*
X121915000Y-90964250D01*
X121915000Y-90523690D01*
X121818327Y-90290301D01*
X121639698Y-90111673D01*
X121406309Y-90015000D01*
X121065750Y-90015000D01*
X120907000Y-90173750D01*
X120907000Y-91123000D01*
X120927000Y-91123000D01*
X120927000Y-91377000D01*
X120907000Y-91377000D01*
X120907000Y-91397000D01*
X120653000Y-91397000D01*
X120653000Y-91377000D01*
X120633000Y-91377000D01*
X120633000Y-91123000D01*
X120653000Y-91123000D01*
X120653000Y-90173750D01*
X120494250Y-90015000D01*
X120153691Y-90015000D01*
X119920302Y-90111673D01*
X119801190Y-90230785D01*
X119720000Y-90214635D01*
X118720000Y-90214635D01*
X118553393Y-90247775D01*
X118412150Y-90342150D01*
X118317775Y-90483393D01*
X118293984Y-90603000D01*
X117495281Y-90603000D01*
X117426459Y-90500000D01*
X117502225Y-90386607D01*
X117535365Y-90220000D01*
X117535365Y-89220000D01*
X117502225Y-89053393D01*
X117466549Y-89000000D01*
X117502225Y-88946607D01*
X117506125Y-88927000D01*
X118299951Y-88927000D01*
X118317775Y-89016607D01*
G36*
X115573541Y-96500000D02*
X115497775Y-96613393D01*
X115464635Y-96780000D01*
X115464635Y-97780000D01*
X115497775Y-97946607D01*
X115533451Y-98000000D01*
X115504719Y-98043000D01*
X113658013Y-98043000D01*
X113718284Y-97740000D01*
X113618118Y-97236433D01*
X113332870Y-96809530D01*
X112905967Y-96524282D01*
X112633074Y-96470000D01*
X112905967Y-96415718D01*
X112933980Y-96397000D01*
X115504719Y-96397000D01*
X115573541Y-96500000D01*
X115573541Y-96500000D01*
G37*
X115573541Y-96500000D02*
X115497775Y-96613393D01*
X115464635Y-96780000D01*
X115464635Y-97780000D01*
X115497775Y-97946607D01*
X115533451Y-98000000D01*
X115504719Y-98043000D01*
X113658013Y-98043000D01*
X113718284Y-97740000D01*
X113618118Y-97236433D01*
X113332870Y-96809530D01*
X112905967Y-96524282D01*
X112633074Y-96470000D01*
X112905967Y-96415718D01*
X112933980Y-96397000D01*
X115504719Y-96397000D01*
X115573541Y-96500000D01*
G36*
X115573541Y-93500000D02*
X115497775Y-93613393D01*
X115464635Y-93780000D01*
X115464635Y-94780000D01*
X115497775Y-94946607D01*
X115533451Y-95000000D01*
X115504719Y-95043000D01*
X113687055Y-95043000D01*
X113618118Y-94696433D01*
X113332870Y-94269530D01*
X112905967Y-93984282D01*
X112633074Y-93930000D01*
X112905967Y-93875718D01*
X113332870Y-93590470D01*
X113462143Y-93397000D01*
X115504719Y-93397000D01*
X115573541Y-93500000D01*
X115573541Y-93500000D01*
G37*
X115573541Y-93500000D02*
X115497775Y-93613393D01*
X115464635Y-93780000D01*
X115464635Y-94780000D01*
X115497775Y-94946607D01*
X115533451Y-95000000D01*
X115504719Y-95043000D01*
X113687055Y-95043000D01*
X113618118Y-94696433D01*
X113332870Y-94269530D01*
X112905967Y-93984282D01*
X112633074Y-93930000D01*
X112905967Y-93875718D01*
X113332870Y-93590470D01*
X113462143Y-93397000D01*
X115504719Y-93397000D01*
X115573541Y-93500000D01*
G36*
X118317775Y-92016607D02*
X118412150Y-92157850D01*
X118553393Y-92252225D01*
X118720000Y-92285365D01*
X119374720Y-92285365D01*
X119889354Y-92800000D01*
X119474719Y-93214635D01*
X118720000Y-93214635D01*
X118553393Y-93247775D01*
X118412150Y-93342150D01*
X118317775Y-93483393D01*
X118293984Y-93603000D01*
X117495281Y-93603000D01*
X117426459Y-93500000D01*
X117502225Y-93386607D01*
X117535365Y-93220000D01*
X117535365Y-92220000D01*
X117502225Y-92053393D01*
X117466549Y-92000000D01*
X117495281Y-91957000D01*
X118305918Y-91957000D01*
X118317775Y-92016607D01*
X118317775Y-92016607D01*
G37*
X118317775Y-92016607D02*
X118412150Y-92157850D01*
X118553393Y-92252225D01*
X118720000Y-92285365D01*
X119374720Y-92285365D01*
X119889354Y-92800000D01*
X119474719Y-93214635D01*
X118720000Y-93214635D01*
X118553393Y-93247775D01*
X118412150Y-93342150D01*
X118317775Y-93483393D01*
X118293984Y-93603000D01*
X117495281Y-93603000D01*
X117426459Y-93500000D01*
X117502225Y-93386607D01*
X117535365Y-93220000D01*
X117535365Y-92220000D01*
X117502225Y-92053393D01*
X117466549Y-92000000D01*
X117495281Y-91957000D01*
X118305918Y-91957000D01*
X118317775Y-92016607D01*
G36*
X115464635Y-91780000D02*
X115497775Y-91946607D01*
X115533451Y-92000000D01*
X115504719Y-92043000D01*
X113542324Y-92043000D01*
X113332870Y-91729530D01*
X112905967Y-91444282D01*
X112633074Y-91390000D01*
X112905967Y-91335718D01*
X113332870Y-91050470D01*
X113502234Y-90797000D01*
X115464635Y-90797000D01*
X115464635Y-91780000D01*
X115464635Y-91780000D01*
G37*
X115464635Y-91780000D02*
X115497775Y-91946607D01*
X115533451Y-92000000D01*
X115504719Y-92043000D01*
X113542324Y-92043000D01*
X113332870Y-91729530D01*
X112905967Y-91444282D01*
X112633074Y-91390000D01*
X112905967Y-91335718D01*
X113332870Y-91050470D01*
X113502234Y-90797000D01*
X115464635Y-90797000D01*
X115464635Y-91780000D01*
G36*
X115573541Y-87500000D02*
X115497775Y-87613393D01*
X115464635Y-87780000D01*
X115464635Y-88780000D01*
X115497775Y-88946607D01*
X115533451Y-89000000D01*
X115497775Y-89053393D01*
X115464635Y-89220000D01*
X115464635Y-89443000D01*
X113502234Y-89443000D01*
X113332870Y-89189530D01*
X112905967Y-88904282D01*
X112633074Y-88850000D01*
X112905967Y-88795718D01*
X113332870Y-88510470D01*
X113618118Y-88083567D01*
X113718284Y-87580000D01*
X113681883Y-87397000D01*
X115504719Y-87397000D01*
X115573541Y-87500000D01*
X115573541Y-87500000D01*
G37*
X115573541Y-87500000D02*
X115497775Y-87613393D01*
X115464635Y-87780000D01*
X115464635Y-88780000D01*
X115497775Y-88946607D01*
X115533451Y-89000000D01*
X115497775Y-89053393D01*
X115464635Y-89220000D01*
X115464635Y-89443000D01*
X113502234Y-89443000D01*
X113332870Y-89189530D01*
X112905967Y-88904282D01*
X112633074Y-88850000D01*
X112905967Y-88795718D01*
X113332870Y-88510470D01*
X113618118Y-88083567D01*
X113718284Y-87580000D01*
X113681883Y-87397000D01*
X115504719Y-87397000D01*
X115573541Y-87500000D01*
G36*
X118317775Y-85766607D02*
X118412150Y-85907850D01*
X118553393Y-86002225D01*
X118720000Y-86035365D01*
X119294720Y-86035365D01*
X120274354Y-87015000D01*
X120153691Y-87015000D01*
X119920302Y-87111673D01*
X119801190Y-87230785D01*
X119720000Y-87214635D01*
X118720000Y-87214635D01*
X118553393Y-87247775D01*
X118412150Y-87342150D01*
X118317775Y-87483393D01*
X118299951Y-87573000D01*
X117475235Y-87573000D01*
X117426459Y-87500000D01*
X117502225Y-87386607D01*
X117535365Y-87220000D01*
X117535365Y-86220000D01*
X117502225Y-86053393D01*
X117407850Y-85912150D01*
X117352251Y-85875000D01*
X117407850Y-85837850D01*
X117495281Y-85707000D01*
X118305918Y-85707000D01*
X118317775Y-85766607D01*
X118317775Y-85766607D01*
G37*
X118317775Y-85766607D02*
X118412150Y-85907850D01*
X118553393Y-86002225D01*
X118720000Y-86035365D01*
X119294720Y-86035365D01*
X120274354Y-87015000D01*
X120153691Y-87015000D01*
X119920302Y-87111673D01*
X119801190Y-87230785D01*
X119720000Y-87214635D01*
X118720000Y-87214635D01*
X118553393Y-87247775D01*
X118412150Y-87342150D01*
X118317775Y-87483393D01*
X118299951Y-87573000D01*
X117475235Y-87573000D01*
X117426459Y-87500000D01*
X117502225Y-87386607D01*
X117535365Y-87220000D01*
X117535365Y-86220000D01*
X117502225Y-86053393D01*
X117407850Y-85912150D01*
X117352251Y-85875000D01*
X117407850Y-85837850D01*
X117495281Y-85707000D01*
X118305918Y-85707000D01*
X118317775Y-85766607D01*
G36*
X115573541Y-84250000D02*
X115497775Y-84363393D01*
X115464635Y-84530000D01*
X115464635Y-85530000D01*
X115497775Y-85696607D01*
X115592150Y-85837850D01*
X115647749Y-85875000D01*
X115592150Y-85912150D01*
X115504719Y-86043000D01*
X113224321Y-86043000D01*
X113332870Y-85970470D01*
X113618118Y-85543567D01*
X113718284Y-85040000D01*
X113633526Y-84613896D01*
X114100423Y-84147000D01*
X115504719Y-84147000D01*
X115573541Y-84250000D01*
X115573541Y-84250000D01*
G37*
X115573541Y-84250000D02*
X115497775Y-84363393D01*
X115464635Y-84530000D01*
X115464635Y-85530000D01*
X115497775Y-85696607D01*
X115592150Y-85837850D01*
X115647749Y-85875000D01*
X115592150Y-85912150D01*
X115504719Y-86043000D01*
X113224321Y-86043000D01*
X113332870Y-85970470D01*
X113618118Y-85543567D01*
X113718284Y-85040000D01*
X113633526Y-84613896D01*
X114100423Y-84147000D01*
X115504719Y-84147000D01*
X115573541Y-84250000D01*
G36*
X144520302Y-81638327D02*
X144753691Y-81735000D01*
X144968131Y-81735000D01*
X144771431Y-81866431D01*
X144511291Y-82255759D01*
X144443000Y-82599081D01*
X144443000Y-83330920D01*
X144511291Y-83674242D01*
X144771432Y-84063569D01*
X145068000Y-84261730D01*
X145068000Y-84351354D01*
X144481355Y-84938000D01*
X143172646Y-84938000D01*
X143431880Y-84678766D01*
X143477970Y-84647970D01*
X143599972Y-84465380D01*
X143632000Y-84304365D01*
X143632000Y-84304364D01*
X143641781Y-84255195D01*
X143928569Y-84063569D01*
X144188709Y-83674241D01*
X144257000Y-83330919D01*
X144257000Y-82599080D01*
X144188709Y-82255758D01*
X143928569Y-81866431D01*
X143539241Y-81606291D01*
X143182673Y-81535365D01*
X144120000Y-81535365D01*
X144286607Y-81502225D01*
X144345109Y-81463135D01*
X144520302Y-81638327D01*
X144520302Y-81638327D01*
G37*
X144520302Y-81638327D02*
X144753691Y-81735000D01*
X144968131Y-81735000D01*
X144771431Y-81866431D01*
X144511291Y-82255759D01*
X144443000Y-82599081D01*
X144443000Y-83330920D01*
X144511291Y-83674242D01*
X144771432Y-84063569D01*
X145068000Y-84261730D01*
X145068000Y-84351354D01*
X144481355Y-84938000D01*
X143172646Y-84938000D01*
X143431880Y-84678766D01*
X143477970Y-84647970D01*
X143599972Y-84465380D01*
X143632000Y-84304365D01*
X143632000Y-84304364D01*
X143641781Y-84255195D01*
X143928569Y-84063569D01*
X144188709Y-83674241D01*
X144257000Y-83330919D01*
X144257000Y-82599080D01*
X144188709Y-82255758D01*
X143928569Y-81866431D01*
X143539241Y-81606291D01*
X143182673Y-81535365D01*
X144120000Y-81535365D01*
X144286607Y-81502225D01*
X144345109Y-81463135D01*
X144520302Y-81638327D01*
G36*
X141971291Y-83674242D02*
X142231432Y-84063569D01*
X142383906Y-84165449D01*
X142141355Y-84408000D01*
X141212025Y-84408000D01*
X141456894Y-84267736D01*
X141789964Y-83836721D01*
X141913291Y-83382657D01*
X141971291Y-83674242D01*
X141971291Y-83674242D01*
G37*
X141971291Y-83674242D02*
X142231432Y-84063569D01*
X142383906Y-84165449D01*
X142141355Y-84408000D01*
X141212025Y-84408000D01*
X141456894Y-84267736D01*
X141789964Y-83836721D01*
X141913291Y-83382657D01*
X141971291Y-83674242D01*
G36*
X140667000Y-82838000D02*
X140687000Y-82838000D01*
X140687000Y-83092000D01*
X140667000Y-83092000D01*
X140667000Y-83112000D01*
X140413000Y-83112000D01*
X140413000Y-83092000D01*
X140393000Y-83092000D01*
X140393000Y-82838000D01*
X140413000Y-82838000D01*
X140413000Y-82818000D01*
X140667000Y-82818000D01*
X140667000Y-82838000D01*
X140667000Y-82838000D01*
G37*
X140667000Y-82838000D02*
X140687000Y-82838000D01*
X140687000Y-83092000D01*
X140667000Y-83092000D01*
X140667000Y-83112000D01*
X140413000Y-83112000D01*
X140413000Y-83092000D01*
X140393000Y-83092000D01*
X140393000Y-82838000D01*
X140413000Y-82838000D01*
X140413000Y-82818000D01*
X140667000Y-82818000D01*
X140667000Y-82838000D01*
G36*
X142113393Y-81502225D02*
X142280000Y-81535365D01*
X142977327Y-81535365D01*
X142620758Y-81606291D01*
X142231431Y-81866431D01*
X141971291Y-82255759D01*
X141913291Y-82547343D01*
X141789964Y-82093279D01*
X141456894Y-81662264D01*
X141235357Y-81535365D01*
X141720000Y-81535365D01*
X141886607Y-81502225D01*
X142000000Y-81426459D01*
X142113393Y-81502225D01*
X142113393Y-81502225D01*
G37*
X142113393Y-81502225D02*
X142280000Y-81535365D01*
X142977327Y-81535365D01*
X142620758Y-81606291D01*
X142231431Y-81866431D01*
X141971291Y-82255759D01*
X141913291Y-82547343D01*
X141789964Y-82093279D01*
X141456894Y-81662264D01*
X141235357Y-81535365D01*
X141720000Y-81535365D01*
X141886607Y-81502225D01*
X142000000Y-81426459D01*
X142113393Y-81502225D01*
G04 #@! TD*
M02*
