M48
;DRILL file {KiCad (5.0.2)-1} date 2019/04/15 13:35:07
;FORMAT={-:-/ absolute / metric / decimal}
FMAT,2
METRIC,TZ
T1C0.800
T2C1.000
T3C1.001
T4C1.016
T5C1.500
T6C3.000
T7C0.899
%
G90
G05
T1
X115.Y-120.44
X118.75Y-120.47
X123.85Y-109.95
X126.75Y-97.25
X133.63Y-115.96
X147.67Y-120.6
X151.17Y-120.6
T2
X161.58Y-96.81
X161.58Y-99.31
X161.58Y-101.81
X161.58Y-104.31
X111.Y-125.25
X113.5Y-125.25
X116.Y-125.25
X118.5Y-125.25
X104.75Y-115.
X104.75Y-117.5
X104.75Y-120.
X104.75Y-122.5
X149.25Y-75.4
X151.75Y-75.4
X108.06Y-101.99
X108.06Y-104.53
X108.06Y-107.07
X108.06Y-109.61
X154.46Y-96.74
X154.46Y-99.24
X154.46Y-101.74
X154.46Y-104.24
X104.75Y-89.
X104.75Y-91.5
X104.75Y-94.
X104.75Y-96.5
X161.64Y-78.41
X161.64Y-80.91
X161.64Y-83.41
X161.64Y-85.91
X134.Y-124.75
X136.5Y-124.75
X139.Y-124.75
X141.5Y-124.75
X147.Y-124.75
X149.5Y-124.75
X152.Y-124.75
X154.5Y-124.75
X102.77Y-101.91
X102.77Y-104.45
X102.77Y-106.99
X102.77Y-109.53
X105.31Y-101.91
X105.31Y-104.45
X105.31Y-106.99
X105.31Y-109.53
T3
X149.5Y-94.21
X149.5Y-96.75
X156.92Y-113.63
X159.46Y-113.63
X120.9Y-71.46
X120.9Y-74.
X150.42Y-113.63
X152.96Y-113.63
X125.4Y-71.46
X125.4Y-74.
X156.92Y-109.13
X159.46Y-109.13
X150.42Y-109.13
X152.96Y-109.13
T4
X120.215Y-81.535
X122.755Y-81.535
X125.295Y-81.535
X127.835Y-81.535
X130.375Y-81.535
X132.915Y-81.535
X158.5Y-118.4
X158.5Y-120.94
X158.5Y-123.48
X158.5Y-126.02
X103.25Y-77.25
X103.25Y-79.79
X103.25Y-82.33
X103.25Y-84.87
X105.79Y-77.25
X105.79Y-79.79
X105.79Y-82.33
X105.79Y-84.87
X113.175Y-82.035
X113.175Y-84.575
X113.175Y-87.115
X113.175Y-89.655
X113.175Y-92.195
X113.175Y-94.735
X113.175Y-97.275
X113.175Y-99.815
X113.175Y-102.355
X113.175Y-104.895
X113.175Y-107.435
X113.175Y-109.975
X113.175Y-112.515
X113.175Y-115.055
X113.175Y-117.595
X115.715Y-82.035
X115.715Y-84.575
X115.715Y-87.115
X115.715Y-89.655
X115.715Y-92.195
X115.715Y-94.735
X115.715Y-97.275
X115.715Y-99.815
X115.715Y-102.355
X115.715Y-104.895
X115.715Y-107.435
X115.715Y-109.975
X115.715Y-112.515
X115.715Y-115.055
X115.715Y-117.595
X141.175Y-82.035
X141.175Y-84.575
X141.175Y-87.115
X141.175Y-89.655
X141.175Y-92.195
X141.175Y-94.735
X141.175Y-97.275
X141.175Y-99.815
X141.175Y-102.355
X141.175Y-104.895
X141.175Y-107.435
X141.175Y-109.975
X141.175Y-112.515
X141.175Y-115.055
X141.175Y-117.595
X143.715Y-82.035
X143.715Y-84.575
X143.715Y-87.115
X143.715Y-89.655
X143.715Y-92.195
X143.715Y-94.735
X143.715Y-97.275
X143.715Y-99.815
X143.715Y-102.355
X143.715Y-104.895
X143.715Y-107.435
X143.715Y-109.975
X143.715Y-112.515
X143.715Y-115.055
X143.715Y-117.595
X108.5Y-77.25
X108.5Y-79.79
X108.5Y-82.33
X108.5Y-84.87
X161.25Y-118.42
X161.25Y-120.96
X161.25Y-123.5
X161.25Y-126.04
X163.79Y-118.42
X163.79Y-120.96
X163.79Y-123.5
X163.79Y-126.04
X158.96Y-92.
X161.5Y-92.
T5
X151.1Y-80.95
X157.1Y-80.95
X151.1Y-85.1
X157.1Y-85.1
T6
X104.09Y-72.66
X104.09Y-126.66
X168.09Y-72.66
X168.09Y-126.66
X168.14Y-82.16
X168.08Y-100.56
T7
X123.8Y-125.149
X128.2Y-125.149
T0
M30
