M48
;DRILL file {KiCad (5.0.2)-1} date 2019/03/18 19:52:14
;FORMAT={-:-/ absolute / metric / decimal}
FMAT,2
METRIC,TZ
T1C0.300
T2C0.400
T3C0.700
T4C0.762
T5C0.800
T6C0.813
T7C1.000
T8C1.001
T9C1.016
T10C1.100
T11C2.301
T12C3.000
%
G90
G05
T1
X53.75Y-80.25
X53.75Y-83.5
X53.75Y-93.
X53.75Y-96.
X53.75Y-101.25
X53.75Y-107.25
X53.75Y-109.25
X53.75Y-112.
X53.75Y-115.
X53.75Y-117.25
X53.75Y-129.75
X53.75Y-132.
X54.Y-65.5
X54.Y-68.25
X54.Y-70.25
X54.Y-74.25
X54.Y-104.75
X54.25Y-120.75
X54.25Y-123.5
X54.25Y-126.
X54.5Y-100.
X55.Y-115.5
X55.5Y-76.
X55.5Y-131.25
X55.75Y-98.75
X56.25Y-70.5
X56.25Y-73.75
X56.25Y-104.75
X56.25Y-128.75
X56.44Y-101.38
X56.75Y-65.5
X56.75Y-84.
X56.75Y-107.5
X56.81Y-119.77
X56.82Y-111.19
X57.Y-97.75
X57.Y-122.75
X57.25Y-75.
X57.25Y-77.5
X57.25Y-80.5
X57.67Y-99.85
X57.75Y-94.75
X57.75Y-101.
X57.75Y-131.5
X58.5Y-64.75
X58.75Y-124.25
X58.98Y-107.42
X59.Y-59.75
X59.Y-72.
X59.Y-93.25
X59.Y-103.25
X59.Y-105.
X59.Y-125.75
X59.01Y-84.78
X59.25Y-74.25
X59.25Y-127.25
X59.25Y-130.
X59.33Y-119.
X59.5Y-122.25
X59.5Y-133.25
X59.75Y-117.
X59.75Y-137.25
X59.88Y-98.81
X59.99Y-96.93
X60.Y-63.
X60.Y-65.5
X60.Y-101.75
X60.12Y-94.8
X60.14Y-81.97
X60.25Y-92.25
X60.25Y-109.5
X60.5Y-76.
X60.75Y-68.5
X60.75Y-70.5
X60.75Y-100.75
X60.75Y-113.5
X60.75Y-131.75
X61.Y-105.5
X61.48Y-124.55
X61.5Y-108.25
X61.75Y-99.75
X62.Y-72.
X62.Y-130.5
X62.Y-136.25
X62.33Y-133.15
X62.5Y-70.
X62.5Y-137.25
X62.67Y-97.03
X62.75Y-123.75
X62.93Y-126.29
X63.Y-107.75
X63.16Y-65.52
X63.19Y-68.14
X63.25Y-73.
X63.25Y-104.5
X63.45Y-99.38
X63.5Y-82.
X63.61Y-84.51
X63.66Y-86.64
X63.75Y-116.
X64.Y-110.5
X64.24Y-94.61
X64.36Y-96.3
X64.58Y-72.1
X64.75Y-100.5
X64.75Y-101.75
X64.75Y-107.
X64.9Y-130.56
X65.Y-70.5
X65.Y-121.
X65.06Y-82.09
X65.25Y-137.25
X65.5Y-115.75
X65.5Y-129.
X65.58Y-65.48
X65.73Y-67.94
X65.75Y-73.5
X66.25Y-104.5
X66.5Y-79.75
X66.5Y-113.75
X66.75Y-100.25
X67.Y-92.
X67.Y-99.5
X67.Y-101.75
X67.Y-112.5
X67.25Y-130.5
X67.3Y-94.79
X67.36Y-84.57
X67.5Y-121.
X67.54Y-71.72
X67.75Y-69.75
X67.94Y-132.78
X68.Y-129.
X68.1Y-67.99
X68.18Y-65.48
X68.25Y-97.03
X68.5Y-137.25
X68.74Y-113.62
X68.75Y-73.5
X68.75Y-112.5
X68.75Y-116.
X68.75Y-118.5
X69.Y-121.
X69.25Y-134.75
X69.5Y-107.5
X69.68Y-87.33
X69.75Y-130.5
X70.22Y-71.27
X70.25Y-69.
X70.5Y-82.
X70.5Y-94.5
X70.5Y-104.75
X70.55Y-112.85
X70.67Y-67.96
X70.71Y-65.44
X70.75Y-92.
X70.88Y-95.61
X70.88Y-98.58
X71.25Y-109.25
X71.25Y-111.5
X71.47Y-118.5
X71.75Y-137.25
X71.89Y-84.31
X71.99Y-133.64
X72.25Y-82.75
X72.25Y-93.25
X72.25Y-101.75
X72.25Y-104.5
X72.25Y-107.25
X72.29Y-70.68
X73.05Y-126.35
X73.14Y-68.01
X73.19Y-65.49
X73.73Y-129.58
X73.74Y-69.94
X73.75Y-73.75
X73.75Y-81.5
X73.75Y-91.75
X74.Y-117.5
X74.5Y-107.25
X74.5Y-119.5
X74.55Y-135.87
X74.75Y-137.25
X75.Y-85.5
X75.Y-86.75
X75.Y-88.
X75.Y-89.25
X75.Y-94.75
X75.Y-95.75
X75.Y-97.
X75.Y-98.25
X75.Y-99.5
X75.Y-102.5
X75.Y-104.75
X75.14Y-131.15
X75.25Y-69.75
X75.25Y-109.5
X75.25Y-111.5
X75.5Y-75.5
X75.71Y-65.46
X75.75Y-67.94
X75.75Y-121.25
X76.5Y-69.75
X76.5Y-93.
X76.75Y-131.25
X77.Y-71.25
X77.12Y-135.57
X77.16Y-133.31
X77.25Y-128.5
X77.5Y-85.5
X77.5Y-86.75
X77.5Y-88.
X77.5Y-89.25
X77.5Y-94.5
X77.5Y-95.75
X77.5Y-97.
X77.5Y-98.25
X77.5Y-103.25
X78.Y-78.
X78.Y-124.75
X78.25Y-65.45
X78.25Y-67.88
X78.5Y-71.25
X78.5Y-83.75
X78.5Y-131.25
X78.75Y-73.25
X78.82Y-120.74
X78.95Y-88.655
X78.95Y-95.095
X79.Y-69.75
X79.Y-122.25
X79.Y-128.5
X79.32Y-133.2
X79.7Y-89.71
X79.75Y-93.75
X79.75Y-109.25
X79.75Y-125.11
X79.75Y-135.75
X80.Y-102.25
X80.19Y-121.2
X80.25Y-74.75
X80.25Y-100.5
X80.35Y-86.4
X80.5Y-106.5
X80.56Y-98.91
X80.7Y-117.65
X80.75Y-80.75
X80.75Y-84.25
X80.75Y-131.25
X80.82Y-65.42
X80.87Y-67.84
X80.99Y-92.38
X81.25Y-75.75
X81.25Y-127.
X81.37Y-133.28
X81.5Y-69.25
X81.5Y-73.
X81.5Y-124.5
X81.69Y-96.18
X81.75Y-98.75
X81.75Y-102.
X81.75Y-113.
X81.75Y-115.5
X82.Y-71.25
X82.Y-85.5
X82.44Y-89.89
X82.5Y-117.5
X82.5Y-131.21
X82.75Y-77.
X82.75Y-107.75
X83.Y-83.
X83.Y-99.5
X83.08Y-86.59
X83.23Y-124.57
X83.24Y-127.15
X83.25Y-74.75
X83.25Y-102.
X83.26Y-115.09
X83.34Y-67.86
X83.39Y-65.43
X83.4Y-129.68
X83.47Y-119.77
X83.5Y-93.25
X83.5Y-95.
X83.5Y-105.25
X83.51Y-90.32
X83.75Y-78.
X83.75Y-114.25
X83.75Y-117.5
X84.Y-68.5
X84.Y-71.25
X84.Y-98.75
X84.Y-111.5
X84.Y-128.45
X84.25Y-115.75
X84.25Y-130.75
X84.3Y-92.42
X84.5Y-73.25
X84.5Y-79.
X84.5Y-84.5
X84.79Y-126.01
X84.9Y-98.475
X85.Y-127.
X85.25Y-81.
X85.25Y-88.25
X85.25Y-118.
X85.27Y-125.15
X85.75Y-68.
X86.Y-60.
X86.Y-62.75
X86.Y-85.75
X86.25Y-71.25
X86.25Y-77.25
X86.25Y-92.5
X86.25Y-96.
X86.25Y-105.
X86.5Y-65.25
X86.5Y-101.
X86.5Y-114.25
X86.91Y-90.01
X86.94Y-127.01
X87.Y-75.25
X87.Y-79.
X87.Y-106.75
X87.15Y-131.26
X87.18Y-100.41
X87.19Y-121.86
X87.25Y-82.75
X87.25Y-129.75
X87.5Y-61.5
X87.5Y-81.
X87.5Y-88.
X87.5Y-99.
X87.5Y-111.25
X87.5Y-113.
X87.5Y-118.
X87.75Y-68.
X88.Y-101.
X88.Y-105.
X88.25Y-64.
X88.25Y-73.75
X88.46Y-115.09
X88.5Y-60.25
X88.75Y-71.25
X88.75Y-116.5
X88.75Y-129.75
X89.Y-96.25
X89.Y-99.5
X89.Y-114.
X89.24Y-65.49
X89.25Y-63.
X89.25Y-81.
X89.25Y-92.31
X89.25Y-93.5
X89.25Y-115.5
X89.34Y-133.23
X89.37Y-124.14
X89.37Y-127.09
X89.49Y-68.11
X89.75Y-86.
X89.86Y-125.62
X90.Y-77.
X90.Y-79.
X90.Y-90.
X90.Y-131.25
X90.25Y-120.06
X90.5Y-74.5
X90.5Y-111.25
X90.5Y-113.
X90.5Y-114.
X90.5Y-115.5
X90.75Y-71.25
X90.98Y-135.58
X91.Y-82.75
X91.Y-99.5
X91.Y-102.75
X91.Y-133.
X91.23Y-129.85
X91.25Y-117.75
X91.5Y-88.
X91.5Y-94.
X91.5Y-96.
X91.5Y-101.
X91.75Y-106.
X92.Y-81.
X92.04Y-113.1
X92.04Y-116.1
X92.32Y-65.46
X92.34Y-68.14
X92.5Y-131.5
X92.75Y-73.25
X92.75Y-79.
X92.75Y-102.75
X92.75Y-104.75
X92.75Y-132.54
X92.98Y-71.4
X93.Y-75.5
X93.Y-77.
X93.Y-86.
X93.25Y-101.25
X93.37Y-104.04
X93.5Y-90.
X93.5Y-130.5
X93.75Y-74.25
X93.75Y-102.25
X93.77Y-135.76
X93.78Y-113.
X94.Y-81.
X94.Y-93.75
X94.Y-96.25
X94.02Y-92.24
X94.5Y-101.25
X94.5Y-117.75
X94.72Y-67.97
X94.75Y-71.79
X94.75Y-82.75
X94.75Y-103.75
X94.76Y-65.43
X94.81Y-120.04
X95.Y-79.
X95.Y-88.
X95.12Y-130.28
X95.35Y-128.11
X95.5Y-77.75
X95.5Y-132.33
X95.59Y-116.68
X95.75Y-74.5
X95.75Y-75.75
X95.75Y-81.
X95.75Y-86.
X95.92Y-72.47
X96.Y-90.
X96.1Y-113.75
X96.146Y-99.406
X96.29Y-135.74
X96.5Y-94.
X96.75Y-96.25
X96.79Y-71.215
X96.96Y-99.405
X97.Y-82.75
X97.Y-111.5
X97.24Y-65.44
X97.24Y-68.09
X97.25Y-79.
X97.25Y-125.5
X97.3Y-114.9
X97.4Y-128.09
X97.43Y-123.47
X97.47Y-118.55
X97.68Y-116.52
X97.75Y-87.75
X98.Y-72.5
X98.Y-74.5
X98.Y-110.5
X98.03Y-83.6
X98.25Y-76.
X98.25Y-78.
X98.25Y-81.
X98.31Y-89.96
X98.58Y-88.37
X98.66Y-132.32
X98.75Y-92.82
X98.75Y-100.75
X98.75Y-131.25
X98.84Y-135.64
X98.85Y-104.65
X98.97Y-117.91
X99.Y-79.
X99.Y-94.25
X99.Y-96.
X99.Y-106.
X99.21Y-90.17
X99.28Y-114.94
X99.74Y-65.47
X99.76Y-68.02
X99.95Y-112.25
X100.Y-74.5
X100.Y-84.5
X100.01Y-85.82
X100.2Y-104.65
X100.25Y-72.5
X100.25Y-93.28
X100.25Y-100.75
X100.25Y-102.75
X100.25Y-106.
X100.25Y-123.5
X100.5Y-77.75
X100.5Y-81.
X100.5Y-128.5
X100.72Y-115.2
X100.75Y-119.75
X100.76Y-116.18
X100.88Y-101.69
X100.9Y-100.04
X101.Y-79.
X101.Y-131.25
X101.25Y-75.75
X101.46Y-111.37
X101.49Y-92.81
X101.5Y-102.24
X101.5Y-135.5
X101.75Y-82.75
X101.75Y-96.
X101.75Y-100.75
X101.85Y-87.38
X101.989Y-115.63
X101.99Y-112.79
X102.075Y-102.965
X102.25Y-119.75
X102.3Y-65.44
X102.36Y-68.02
X102.5Y-128.5
X102.75Y-73.25
X102.75Y-75.
X102.75Y-79.
X102.75Y-85.5
X102.75Y-93.28
X102.8Y-112.9
X103.Y-122.25
X103.05Y-102.37
X103.38Y-117.66
X103.44Y-105.64
X103.5Y-78.
X103.5Y-81.25
X103.5Y-131.25
X103.62Y-135.68
X103.75Y-88.
X103.75Y-119.47
X104.09Y-98.26
X104.21Y-112.11
X104.25Y-91.98
X104.25Y-94.
X104.25Y-96.25
X104.5Y-76.75
X104.5Y-87.
X104.52Y-88.65
X104.62Y-132.55
X104.75Y-83.75
X104.84Y-65.38
X104.87Y-68.03
X105.Y-112.8
X105.Y-115.63
X105.1Y-81.66
X105.182Y-80.928
X105.36Y-98.16
X105.5Y-73.25
X105.5Y-103.5
X105.75Y-82.25
X105.77Y-88.48
X105.78Y-83.13
X106.Y-75.5
X106.Y-78.25
X106.Y-90.5
X106.Y-131.25
X106.24Y-135.74
X106.29Y-98.29
X106.51Y-116.16
X106.52Y-117.39
X106.54Y-83.49
X106.54Y-88.62
X106.63Y-112.65
X106.703Y-96.003
X106.74Y-132.75
X107.Y-122.
X107.Y-127.
X107.2Y-101.8
X107.4Y-95.78
X107.41Y-81.66
X107.42Y-65.49
X107.49Y-67.9
X107.5Y-85.75
X107.5Y-119.
X107.55Y-78.83
X107.56Y-80.95
X107.61Y-79.53
X107.75Y-105.9
X107.77Y-119.89
X107.77Y-127.54
X108.Y-112.36
X108.Y-115.63
X108.041Y-97.686
X108.25Y-74.75
X108.25Y-76.25
X108.25Y-78.
X108.25Y-90.5
X108.25Y-92.5
X108.25Y-129.25
X108.35Y-127.94
X108.36Y-118.46
X108.4Y-108.85
X108.5Y-73.25
X108.83Y-135.72
X108.88Y-132.94
X108.912Y-75.718
X109.Y-122.
X109.Y-126.
X109.25Y-101.75
X109.52Y-108.8
X109.54Y-112.71
X109.55Y-76.52
X109.89Y-65.49
X109.93Y-67.91
X110.Y-75.
X110.Y-83.25
X110.Y-90.5
X110.Y-94.5
X110.Y-129.25
X110.17Y-99.599
X110.25Y-119.47
X110.4Y-92.16
X110.6Y-107.65
X110.96Y-101.82
X111.Y-112.73
X111.Y-115.63
X111.09Y-99.599
X111.27Y-83.41
X111.31Y-89.04
X111.38Y-135.6
X111.5Y-73.25
X111.5Y-132.25
X111.75Y-94.5
X111.8Y-98.95
X112.Y-93.
X112.035Y-82.835
X112.25Y-74.25
X112.25Y-78.
X112.25Y-80.25
X112.25Y-81.5
X112.26Y-85.74
X112.3Y-105.9
X112.5Y-65.5
X112.5Y-67.75
X112.5Y-129.25
X112.75Y-75.
X113.Y-73.25
X113.Y-122.
X113.Y-125.75
X113.05Y-103.42
X113.05Y-105.15
X113.128Y-75.718
X113.14Y-76.52
X113.14Y-93.78
X113.14Y-101.29
X113.15Y-79.53
X113.16Y-78.83
X113.5Y-77.25
X113.69Y-89.01
X113.71Y-119.52
X113.71Y-122.59
X113.78Y-87.
X114.Y-74.
X114.Y-99.195
X114.Y-101.245
X114.Y-103.325
X114.Y-115.63
X114.Y-118.25
X114.Y-132.5
X114.Y-135.5
X114.108Y-94.498
X114.25Y-81.25
X114.44Y-119.67
X114.44Y-122.42
X114.51Y-104.52
X114.592Y-89.148
X114.87Y-65.46
X114.9Y-88.52
X114.97Y-101.5
X115.Y-76.5
X115.Y-79.
X115.Y-130.25
X115.14Y-99.07
X115.18Y-67.77
X115.25Y-80.5
X115.25Y-120.
X115.25Y-125.75
X115.25Y-129.25
X115.4Y-103.91
X115.5Y-122.5
X115.6Y-109.37
X115.73Y-106.
X115.738Y-105.298
X115.87Y-106.72
X116.Y-61.25
X116.04Y-107.45
X116.12Y-135.61
X116.19Y-108.14
X116.21Y-111.55
X116.25Y-72.13
X116.55Y-95.81
X116.58Y-132.73
X116.75Y-101.5
X116.75Y-119.47
X116.86Y-110.84
X117.Y-63.
X117.Y-65.25
X117.Y-67.75
X117.Y-115.63
X117.25Y-110.21
X117.25Y-128.75
X117.5Y-100.25
X117.75Y-131.25
X118.Y-61.25
X118.Y-82.3
X118.Y-93.335
X118.Y-122.5
X118.Y-125.75
X118.06Y-81.18
X118.17Y-76.73
X118.25Y-113.
X118.31Y-110.87
X118.42Y-79.04
X118.5Y-116.
X118.69Y-111.49
X118.73Y-135.72
X118.75Y-67.83
X118.75Y-133.04
X118.78Y-73.25
X118.78Y-75.25
X118.83Y-65.41
X119.Y-100.75
X119.1Y-69.9
X119.25Y-129.75
X119.25Y-132.
X119.5Y-112.5
X119.72Y-100.21
X119.78Y-82.19
X119.84Y-96.33
X120.Y-129.4
X120.5Y-111.5
X120.5Y-114.25
X120.51Y-78.83
X120.66Y-98.
X120.68Y-71.98
X120.7Y-100.17
X121.Y-131.75
X121.1Y-79.64
X121.22Y-110.63
X121.22Y-118.15
X121.22Y-132.97
X121.25Y-73.
X121.25Y-74.75
X121.25Y-96.5
X121.27Y-135.73
X121.59Y-89.34
X121.7Y-65.43
X121.7Y-67.88
X121.76Y-85.51
X121.8Y-111.07
X121.85Y-93.74
X121.908Y-104.415
X121.91Y-108.11
X121.93Y-84.25
X121.93Y-95.25
X122.29Y-116.86
X122.38Y-111.51
X122.54Y-108.46
X122.542Y-103.84
X122.73Y-79.89
X122.75Y-72.5
X122.75Y-76.25
X122.75Y-122.25
X122.75Y-125.75
X122.75Y-128.75
X122.75Y-130.25
X122.75Y-131.75
X122.98Y-111.89
X123.08Y-84.62
X123.22Y-107.68
X123.25Y-119.47
X123.49Y-80.14
X123.5Y-83.43
X123.5Y-92.
X123.66Y-116.4
X123.75Y-132.83
X123.89Y-114.92
X123.91Y-135.67
X124.Y-95.58
X124.01Y-67.82
X124.04Y-65.46
X124.21Y-83.43
X124.34Y-94.27
X124.5Y-87.75
X124.5Y-90.25
X125.Y-121.5
X125.5Y-92.
X125.93Y-73.
X126.Y-84.5
X126.11Y-120.5
X126.38Y-98.235
X126.5Y-83.43
X126.5Y-95.57
X126.5Y-135.75
X126.55Y-65.39
X126.6Y-67.79
X126.76Y-112.16
X126.77Y-114.45
X126.82Y-116.87
X126.89Y-78.83
X127.Y-89.5
X127.Y-94.22
X127.07Y-73.
X127.08Y-119.39
X127.09Y-85.55
X127.17Y-92.12
X127.25Y-122.5
X127.844Y-103.998
X127.97Y-118.72
X128.5Y-110.5
X128.535Y-104.12
X128.707Y-104.799
X128.88Y-65.43
X128.89Y-67.9
X128.91Y-119.26
X128.92Y-114.67
X129.Y-83.43
X129.Y-135.5
X129.03Y-105.42
X129.13Y-84.64
X129.2Y-87.63
X129.25Y-61.5
X129.25Y-63.25
X129.25Y-90.25
X129.25Y-122.5
X129.29Y-93.52
X129.765Y-105.91
X129.77Y-119.45
X129.88Y-110.56
X130.1Y-116.29
X130.34Y-113.43
X130.34Y-107.073
X130.36Y-106.37
X130.5Y-83.
X130.52Y-69.26
X130.69Y-107.68
X130.73Y-68.52
X130.75Y-92.
X130.75Y-126.
X130.75Y-129.75
X130.75Y-133.75
X130.75Y-137.25
X130.77Y-95.04
X130.84Y-70.58
X131.Y-59.75
X131.Y-63.
X131.Y-64.75
X131.02Y-102.5
X131.06Y-118.12
X131.13Y-67.61
X131.25Y-85.75
X131.25Y-110.64
X131.5Y-71.24
X131.5Y-88.5
X131.75Y-122.25
X131.82Y-123.73
X131.887Y-102.447
X132.Y-83.25
X132.Y-119.05
X132.04Y-114.33
X132.29Y-92.58
X132.41Y-111.38
X132.47Y-84.36
X132.5Y-64.5
X132.5Y-65.75
X132.5Y-135.25
X132.505Y-93.865
X132.662Y-100.898
X132.75Y-61.5
X132.75Y-90.75
X132.77Y-101.82
X132.77Y-123.55
X132.95Y-67.94
X133.Y-137.25
X133.01Y-93.29
X133.25Y-126.25
X133.25Y-129.
X133.25Y-131.5
X133.27Y-124.66
X133.48Y-119.4
X133.58Y-118.03
X133.66Y-70.06
X133.675Y-68.52
X133.675Y-69.26
X134.Y-95.32
X134.07Y-83.25
X134.18Y-87.63
X134.21Y-89.2
X134.22Y-86.25
X134.25Y-112.25
X134.3Y-92.28
X134.39Y-84.73
X134.47Y-93.43
X134.5Y-133.5
X134.75Y-74.
X134.75Y-76.75
X134.93Y-97.87
X135.12Y-96.36
X135.22Y-118.05
X135.25Y-111.25
X135.39Y-112.71
X135.41Y-80.83
X135.49Y-122.17
X135.5Y-137.25
X135.7Y-68.17
X135.75Y-129.75
X135.75Y-132.
X135.76Y-104.12
X135.77Y-65.46
X135.788Y-101.928
X135.9Y-102.63
X135.99Y-110.22
X136.Y-70.75
X136.17Y-119.91
X136.25Y-75.25
X136.25Y-76.75
X136.25Y-96.5
X136.25Y-108.4
X136.3Y-104.64
X136.5Y-100.
X136.75Y-72.75
X137.Y-82.5
X137.05Y-123.83
X137.12Y-83.56
X137.308Y-94.063
X137.358Y-93.325
X137.5Y-97.75
X137.5Y-126.25
X137.52Y-109.77
X137.545Y-94.75
X138.08Y-65.46
X138.1Y-105.77
X138.12Y-68.12
X138.12Y-99.37
X138.131Y-104.936
X138.15Y-122.26
X138.25Y-74.5
X138.25Y-82.5
X138.25Y-132.
X138.49Y-106.37
X138.5Y-119.
X138.59Y-108.28
X138.68Y-107.06
X138.75Y-137.25
X138.755Y-80.192
X138.85Y-81.1
X138.855Y-99.256
X139.02Y-107.68
X139.09Y-85.95
X139.25Y-73.
X139.43Y-99.67
X139.5Y-70.5
X139.5Y-75.25
X139.5Y-76.75
X139.5Y-112.25
X139.5Y-129.75
X139.55Y-94.47
X139.58Y-85.05
X140.015Y-100.19
X140.34Y-100.9
X140.5Y-107.75
X140.5Y-109.25
X140.5Y-110.75
X140.5Y-124.
X140.5Y-132.
X140.56Y-65.38
X140.59Y-68.15
X140.87Y-86.77
X141.Y-115.75
X141.07Y-101.
X141.095Y-101.91
X141.095Y-101.91
X141.53Y-121.35
X141.55Y-69.75
X141.63Y-117.25
X141.63Y-120.25
X141.68Y-123.17
X141.75Y-129.75
X141.75Y-137.25
X142.097Y-103.633
X142.14Y-69.14
X142.75Y-68.25
X142.75Y-125.25
X142.78Y-81.3
X142.82Y-76.8
X142.85Y-95.05
X142.85Y-103.72
X142.9Y-79.45
X142.915Y-97.204
X143.Y-70.5
X143.Y-73.25
X143.Y-74.75
X143.25Y-59.75
X143.25Y-63.
X143.25Y-65.25
X143.25Y-85.5
X143.25Y-86.75
X143.25Y-88.25
X143.25Y-109.25
X143.25Y-110.75
X143.25Y-112.25
X143.25Y-113.75
X143.25Y-115.75
X143.25Y-123.25
X143.25Y-132.
X143.27Y-96.588
X143.27Y-107.62
X143.57Y-126.
X143.75Y-75.25
X143.88Y-107.07
X143.93Y-106.28
X144.07Y-95.18
X144.085Y-78.25
X144.24Y-124.71
X144.25Y-129.75
X144.5Y-76.5
X144.5Y-125.75
X144.5Y-127.5
X144.66Y-77.59
X144.67Y-94.64
X144.75Y-88.75
X145.Y-66.5
X145.Y-73.75
X145.Y-83.75
X145.Y-86.75
X145.Y-137.25
X145.5Y-77.
X145.75Y-132.
X146.Y-63.
X146.Y-135.75
X146.25Y-61.
X146.25Y-134.
X146.5Y-59.75
X146.5Y-82.5
X146.5Y-137.25
X146.75Y-70.25
X146.75Y-80.
X146.96Y-75.4
X147.Y-73.25
X147.Y-86.5
X147.Y-107.
X147.Y-119.25
X147.Y-129.75
X147.04Y-78.06
X147.25Y-65.25
X147.25Y-94.5
X147.25Y-99.
X147.25Y-111.25
X148.Y-132.
X148.75Y-105.75
X148.75Y-118.75
X149.Y-93.25
X150.25Y-65.75
X150.25Y-70.25
X150.25Y-72.75
X150.25Y-75.25
X150.25Y-77.75
X150.25Y-93.25
X150.25Y-105.75
X150.5Y-118.
X152.Y-68.
X152.25Y-65.5
X152.25Y-131.25
T2
X55.5Y-120.97
X55.54Y-127.555
X58.25Y-122.998
X58.74Y-99.19
X62.53Y-74.25
X62.62Y-103.
X62.75Y-127.47
X62.75Y-129.03
X65.75Y-87.635
X65.75Y-99.385
X65.81Y-112.
X66.115Y-106.
X68.998Y-132.5
X69.5Y-127.47
X70.001Y-123.95
X70.25Y-117.135
X71.25Y-130.28
X73.25Y-111.25
X74.05Y-100.75
X74.14Y-115.25
X76.07Y-136.75
X78.5Y-100.25
X78.5Y-105.135
X78.95Y-97.635
X80.14Y-136.75
X80.53Y-110.5
X80.53Y-119.5
X80.995Y-87.725
X81.28Y-130.33
X83.97Y-121.25
X87.75Y-91.32
X87.81Y-123.05
X94.441Y-122.595
X94.59Y-136.75
X96.29Y-118.7
X97.82Y-136.75
X110.32Y-136.75
X116.75Y-121.03
X122.82Y-136.75
X123.25Y-121.03
X123.72Y-117.36
X126.85Y-115.71
X135.49Y-115.21
X135.83Y-81.95
X137.35Y-74.98
X140.635Y-122.25
X145.89Y-87.96
X145.89Y-93.21
X145.89Y-100.46
X145.89Y-105.71
X145.89Y-112.71
X145.89Y-117.96
X145.89Y-122.96
X145.89Y-128.21
X151.5Y-86.43
X151.5Y-98.93
X151.5Y-123.93
X151.75Y-111.43
T3
X141.75Y-107.
X141.75Y-108.5
X141.75Y-110.
X141.75Y-111.5
X141.75Y-113.
X141.75Y-114.5
T4
X85.09Y-95.035
X87.63Y-95.035
X90.17Y-95.035
X92.71Y-95.035
X95.25Y-95.035
X97.79Y-95.035
X100.33Y-95.035
X102.87Y-95.035
X105.41Y-95.035
T5
X90.Y-101.5
X90.Y-104.04
X90.Y-106.58
X90.Y-109.12
X97.62Y-101.5
X97.62Y-104.04
X97.62Y-106.58
X97.62Y-109.12
T6
X60.71Y-135.25
X63.25Y-135.25
X65.79Y-135.25
T7
X149.5Y-96.75
X149.5Y-99.25
X149.5Y-101.75
X149.5Y-104.25
X149.42Y-109.21
X149.42Y-111.71
X149.42Y-114.21
X149.42Y-116.71
X69.Y-90.75
X69.Y-93.25
X69.Y-95.75
X69.Y-98.25
X149.5Y-84.25
X149.5Y-86.75
X149.5Y-89.25
X149.5Y-91.75
X62.Y-109.75
X62.Y-112.25
X62.Y-114.75
X62.Y-117.25
X71.75Y-125.
X74.25Y-125.
X69.Y-78.25
X69.Y-80.75
X69.Y-83.25
X69.Y-85.75
X149.42Y-121.71
X149.42Y-124.21
X149.42Y-126.71
X149.42Y-129.21
X70.75Y-134.5
X73.25Y-134.5
X75.75Y-134.5
X78.25Y-134.5
X117.5Y-134.5
X120.Y-134.5
X122.5Y-134.5
X125.Y-134.5
X92.5Y-134.5
X95.Y-134.5
X97.5Y-134.5
X100.Y-134.5
X64.25Y-125.
X66.75Y-125.
X62.Y-90.75
X62.Y-93.25
X62.Y-95.75
X62.Y-98.25
X105.Y-134.5
X107.5Y-134.5
X110.Y-134.5
X112.5Y-134.5
X62.Y-78.25
X62.Y-80.75
X62.Y-83.25
X62.Y-85.75
T8
X132.001Y-124.996
X134.541Y-124.996
X136.573Y-124.996
X139.113Y-124.996
T9
X90.89Y-66.75
X93.43Y-66.75
X95.97Y-66.75
X98.51Y-66.75
X101.05Y-66.75
X103.59Y-66.75
X106.13Y-66.75
X108.67Y-66.75
X111.21Y-66.75
X113.75Y-66.75
X61.75Y-61.71
X61.75Y-64.25
X64.29Y-61.71
X64.29Y-64.25
X66.83Y-61.71
X66.83Y-64.25
X69.37Y-61.71
X69.37Y-64.25
X71.91Y-61.71
X71.91Y-64.25
X74.45Y-61.71
X74.45Y-64.25
X76.99Y-61.71
X76.99Y-64.25
X79.53Y-61.71
X79.53Y-64.25
X82.07Y-61.71
X82.07Y-64.25
X84.61Y-61.71
X84.61Y-64.25
X134.25Y-61.71
X134.25Y-64.25
X136.79Y-61.71
X136.79Y-64.25
X139.33Y-61.71
X139.33Y-64.25
X141.87Y-61.71
X141.87Y-64.25
X54.75Y-103.
X57.29Y-103.
X148.5Y-69.
X148.5Y-71.54
X148.5Y-74.08
X148.5Y-76.62
X148.5Y-79.16
X90.89Y-61.71
X90.89Y-64.25
X93.43Y-61.71
X93.43Y-64.25
X95.97Y-61.71
X95.97Y-64.25
X98.51Y-61.71
X98.51Y-64.25
X101.05Y-61.71
X101.05Y-64.25
X103.59Y-61.71
X103.59Y-64.25
X106.13Y-61.71
X106.13Y-64.25
X108.67Y-61.71
X108.67Y-64.25
X111.21Y-61.71
X111.21Y-64.25
X113.75Y-61.71
X113.75Y-64.25
X120.25Y-61.71
X120.25Y-64.25
X122.79Y-61.71
X122.79Y-64.25
X125.33Y-61.71
X125.33Y-64.25
X127.87Y-61.71
X127.87Y-64.25
X54.75Y-72.25
X57.29Y-72.25
X134.25Y-66.75
X136.79Y-66.75
X139.33Y-66.75
X141.87Y-66.75
X61.75Y-66.75
X64.29Y-66.75
X66.83Y-66.75
X69.37Y-66.75
X71.91Y-66.75
X74.45Y-66.75
X76.99Y-66.75
X79.53Y-66.75
X82.07Y-66.75
X84.61Y-66.75
X120.25Y-66.75
X122.79Y-66.75
X125.33Y-66.75
X127.87Y-66.75
T11
X128.445Y-127.663
X142.161Y-127.663
T12
X56.Y-62.
X56.Y-135.
X150.Y-62.
X150.Y-135.
X55.5Y-82.
X55.5Y-113.5
X55.5Y-94.5
T10
X76.95Y-91.235G85X78.35Y-91.235
G05
X112.15Y-91.235G85X113.55Y-91.235
G05
T0
M30
