G04 #@! TF.GenerationSoftware,KiCad,Pcbnew,(5.0.0)*
G04 #@! TF.CreationDate,2019-02-12T21:24:03+09:00*
G04 #@! TF.ProjectId,Power_exp,506F7765725F6578702E6B696361645F,rev?*
G04 #@! TF.SameCoordinates,Original*
G04 #@! TF.FileFunction,Profile,NP*
%FSLAX46Y46*%
G04 Gerber Fmt 4.6, Leading zero omitted, Abs format (unit mm)*
G04 Created by KiCad (PCBNEW (5.0.0)) date 02/12/19 21:24:03*
%MOMM*%
%LPD*%
G01*
G04 APERTURE LIST*
%ADD10C,0.150000*%
%ADD11C,0.200000*%
G04 APERTURE END LIST*
D10*
X157500000Y-74000000D02*
G75*
G03X157500000Y-74000000I-200000J0D01*
G01*
X152900000Y-74000000D02*
G75*
G03X152900000Y-74000000I-200000J0D01*
G01*
X157300000Y-74200000D02*
X152700000Y-74200000D01*
X152700000Y-73800000D02*
X157350000Y-73800000D01*
X152900000Y-69500000D02*
G75*
G03X152900000Y-69500000I-200000J0D01*
G01*
X157500000Y-69500000D02*
G75*
G03X157500000Y-69500000I-200000J0D01*
G01*
X152700000Y-69700000D02*
X157300000Y-69700000D01*
X157300000Y-69300000D02*
X152700000Y-69300000D01*
X157500000Y-65000000D02*
G75*
G03X157500000Y-65000000I-200000J0D01*
G01*
X152900000Y-65000000D02*
G75*
G03X152900000Y-65000000I-200000J0D01*
G01*
X157300000Y-65200000D02*
X152700000Y-65200000D01*
X152700000Y-64800000D02*
X157300000Y-64800000D01*
X157500000Y-88500000D02*
G75*
G03X157500000Y-88500000I-200000J0D01*
G01*
X152900000Y-88500000D02*
G75*
G03X152900000Y-88500000I-200000J0D01*
G01*
X157300000Y-88300000D02*
X152700000Y-88300000D01*
X152700000Y-88700000D02*
X157300000Y-88700000D01*
X152800000Y-84000000D02*
G75*
G03X152800000Y-84000000I-150000J0D01*
G01*
X157500000Y-84000000D02*
G75*
G03X157500000Y-84000000I-200000J0D01*
G01*
X152650000Y-84200000D02*
X157300000Y-84200000D01*
X157300000Y-83800000D02*
X152650000Y-83800000D01*
X152700000Y-79700000D02*
X157300000Y-79700000D01*
X157300000Y-79300000D02*
X152700000Y-79300000D01*
X157500000Y-79500000D02*
G75*
G03X157500000Y-79500000I-200000J0D01*
G01*
X152900000Y-79500000D02*
G75*
G03X152900000Y-79500000I-200000J0D01*
G01*
X149500000Y-86750000D02*
G75*
G03X149500000Y-86750000I-500000J0D01*
G01*
X149500000Y-81250000D02*
G75*
G03X149500000Y-81250000I-500000J0D01*
G01*
X149500000Y-86750000D02*
X149500000Y-81250000D01*
X148500000Y-81250000D02*
X148500000Y-86750000D01*
X140500000Y-81250000D02*
X140500000Y-86700000D01*
X141500000Y-86700000D02*
X141500000Y-81250000D01*
X141550000Y-86700000D02*
G75*
G03X141550000Y-86700000I-550000J0D01*
G01*
X141500000Y-81250000D02*
G75*
G03X141500000Y-81250000I-500000J0D01*
G01*
X141450000Y-72300000D02*
G75*
G03X141450000Y-72300000I-450000J0D01*
G01*
X140500000Y-72300000D02*
X140500000Y-66750000D01*
X141500000Y-66750000D02*
X141500000Y-72300000D01*
X141502494Y-66750000D02*
G75*
G03X141502494Y-66750000I-502494J0D01*
G01*
X149450000Y-72300000D02*
G75*
G03X149450000Y-72300000I-450000J0D01*
G01*
X149452769Y-66650000D02*
G75*
G03X149452769Y-66650000I-452769J0D01*
G01*
D11*
X148500000Y-72300000D02*
X148500000Y-66700000D01*
X149500000Y-66700000D02*
X149500000Y-72300000D01*
D10*
X123000000Y-52000000D02*
X197000000Y-52000000D01*
X200000000Y-55000000D02*
X200000000Y-104000000D01*
X120000000Y-55000000D02*
X120000000Y-104000000D01*
X120000000Y-104000000D02*
G75*
G03X123000000Y-107000000I3000000J0D01*
G01*
X197000000Y-107000000D02*
X123000000Y-107000000D01*
X197000000Y-107000000D02*
G75*
G03X200000000Y-104000000I0J3000000D01*
G01*
X123000000Y-52000000D02*
G75*
G03X120000000Y-55000000I0J-3000000D01*
G01*
X200000000Y-55000000D02*
G75*
G03X197000000Y-52000000I-3000000J0D01*
G01*
M02*
