G04 #@! TF.GenerationSoftware,KiCad,Pcbnew,(5.0.0)*
G04 #@! TF.CreationDate,2019-02-23T04:43:29+09:00*
G04 #@! TF.ProjectId,Power_exp,506F7765725F6578702E6B696361645F,rev?*
G04 #@! TF.SameCoordinates,Original*
G04 #@! TF.FileFunction,Copper,L2,Bot,Signal*
G04 #@! TF.FilePolarity,Positive*
%FSLAX46Y46*%
G04 Gerber Fmt 4.6, Leading zero omitted, Abs format (unit mm)*
G04 Created by KiCad (PCBNEW (5.0.0)) date 02/23/19 04:43:29*
%MOMM*%
%LPD*%
G01*
G04 APERTURE LIST*
G04 #@! TA.AperFunction,SMDPad,CuDef*
%ADD10R,1.800860X0.800100*%
G04 #@! TD*
G04 #@! TA.AperFunction,ComponentPad*
%ADD11R,2.000000X2.000000*%
G04 #@! TD*
G04 #@! TA.AperFunction,ComponentPad*
%ADD12C,2.000000*%
G04 #@! TD*
G04 #@! TA.AperFunction,ComponentPad*
%ADD13C,6.500000*%
G04 #@! TD*
G04 #@! TA.AperFunction,SMDPad,CuDef*
%ADD14C,1.000000*%
G04 #@! TD*
G04 #@! TA.AperFunction,Conductor*
%ADD15C,0.100000*%
G04 #@! TD*
G04 #@! TA.AperFunction,SMDPad,CuDef*
%ADD16R,1.200000X1.000000*%
G04 #@! TD*
G04 #@! TA.AperFunction,ComponentPad*
%ADD17O,1.600000X1.600000*%
G04 #@! TD*
G04 #@! TA.AperFunction,ComponentPad*
%ADD18O,1.500000X2.500000*%
G04 #@! TD*
G04 #@! TA.AperFunction,ComponentPad*
%ADD19O,2.500000X1.500000*%
G04 #@! TD*
G04 #@! TA.AperFunction,SMDPad,CuDef*
%ADD20R,1.000000X1.200000*%
G04 #@! TD*
G04 #@! TA.AperFunction,ComponentPad*
%ADD21R,1.524000X6.000000*%
G04 #@! TD*
G04 #@! TA.AperFunction,ComponentPad*
%ADD22R,7.500000X2.000000*%
G04 #@! TD*
G04 #@! TA.AperFunction,ComponentPad*
%ADD23C,1.300000*%
G04 #@! TD*
G04 #@! TA.AperFunction,ComponentPad*
%ADD24R,1.300000X1.300000*%
G04 #@! TD*
G04 #@! TA.AperFunction,ComponentPad*
%ADD25O,2.032000X2.032000*%
G04 #@! TD*
G04 #@! TA.AperFunction,ComponentPad*
%ADD26R,2.032000X2.032000*%
G04 #@! TD*
G04 #@! TA.AperFunction,ComponentPad*
%ADD27C,4.500880*%
G04 #@! TD*
G04 #@! TA.AperFunction,SMDPad,CuDef*
%ADD28R,2.301240X3.500120*%
G04 #@! TD*
G04 #@! TA.AperFunction,ViaPad*
%ADD29C,6.000000*%
G04 #@! TD*
G04 #@! TA.AperFunction,Conductor*
%ADD30C,1.000000*%
G04 #@! TD*
G04 #@! TA.AperFunction,Conductor*
%ADD31C,0.250000*%
G04 #@! TD*
G04 #@! TA.AperFunction,Conductor*
%ADD32C,0.254000*%
G04 #@! TD*
G04 APERTURE END LIST*
D10*
G04 #@! TO.P,Q1,3*
G04 #@! TO.N,/Coil_Out*
X168001140Y-60500000D03*
G04 #@! TO.P,Q1,2*
G04 #@! TO.N,GNDPWR*
X164998860Y-59550000D03*
G04 #@! TO.P,Q1,1*
G04 #@! TO.N,Net-(IC1-Pad3)*
X164998860Y-61450000D03*
G04 #@! TD*
D11*
G04 #@! TO.P,D6,1*
G04 #@! TO.N,Net-(D6-Pad1)*
X128200000Y-72500000D03*
D12*
G04 #@! TO.P,D6,2*
G04 #@! TO.N,GNDPWR*
X125660000Y-72500000D03*
G04 #@! TD*
D13*
G04 #@! TO.P,P10,1*
G04 #@! TO.N,GNDPWR*
X123700000Y-78900000D03*
G04 #@! TO.P,P10,2*
G04 #@! TO.N,/Power_Out*
X130700000Y-78900000D03*
G04 #@! TD*
D14*
G04 #@! TO.P,R11,1*
G04 #@! TO.N,/Power_Out*
X130551543Y-75051543D03*
D15*
G04 #@! TD*
G04 #@! TO.N,/Power_Out*
G04 #@! TO.C,R11*
G36*
X131329360Y-74980832D02*
X130480832Y-75829360D01*
X129773726Y-75122254D01*
X130622254Y-74273726D01*
X131329360Y-74980832D01*
X131329360Y-74980832D01*
G37*
D14*
G04 #@! TO.P,R11,2*
G04 #@! TO.N,Net-(D6-Pad1)*
X129448457Y-73948457D03*
D15*
G04 #@! TD*
G04 #@! TO.N,Net-(D6-Pad1)*
G04 #@! TO.C,R11*
G36*
X130226274Y-73877746D02*
X129377746Y-74726274D01*
X128670640Y-74019168D01*
X129519168Y-73170640D01*
X130226274Y-73877746D01*
X130226274Y-73877746D01*
G37*
D16*
G04 #@! TO.P,C1,1*
G04 #@! TO.N,+12V*
X192050000Y-85750000D03*
G04 #@! TO.P,C1,2*
G04 #@! TO.N,GND*
X192050000Y-83870000D03*
G04 #@! TD*
G04 #@! TO.P,C2,2*
G04 #@! TO.N,GND*
X196500000Y-76270000D03*
G04 #@! TO.P,C2,1*
G04 #@! TO.N,+12V*
X196500000Y-78150000D03*
G04 #@! TD*
G04 #@! TO.P,C4,2*
G04 #@! TO.N,+12V*
X186000000Y-66570000D03*
G04 #@! TO.P,C4,1*
G04 #@! TO.N,GND*
X186000000Y-68450000D03*
G04 #@! TD*
G04 #@! TO.P,C5,1*
G04 #@! TO.N,GND*
X193000000Y-68450000D03*
G04 #@! TO.P,C5,2*
G04 #@! TO.N,+12V*
X193000000Y-66570000D03*
G04 #@! TD*
D12*
G04 #@! TO.P,D2,2*
G04 #@! TO.N,GNDPWR*
X125660000Y-85200000D03*
D11*
G04 #@! TO.P,D2,1*
G04 #@! TO.N,Net-(D2-Pad1)*
X128200000Y-85200000D03*
G04 #@! TD*
D12*
G04 #@! TO.P,D3,2*
G04 #@! TO.N,GNDPWR*
X149550000Y-93750000D03*
D11*
G04 #@! TO.P,D3,1*
G04 #@! TO.N,Net-(D3-Pad1)*
X147010000Y-93750000D03*
G04 #@! TD*
G04 #@! TO.P,D4,1*
G04 #@! TO.N,Net-(D4-Pad1)*
X184500000Y-76250000D03*
D12*
G04 #@! TO.P,D4,2*
G04 #@! TO.N,GND*
X184500000Y-78790000D03*
G04 #@! TD*
G04 #@! TO.P,D5,2*
G04 #@! TO.N,GNDPWR*
X159790000Y-93750000D03*
D11*
G04 #@! TO.P,D5,1*
G04 #@! TO.N,Net-(D5-Pad1)*
X157250000Y-93750000D03*
G04 #@! TD*
G04 #@! TO.P,D7,1*
G04 #@! TO.N,Net-(D7-Pad1)*
X128200000Y-59800000D03*
D12*
G04 #@! TO.P,D7,2*
G04 #@! TO.N,GNDPWR*
X125660000Y-59800000D03*
G04 #@! TD*
D17*
G04 #@! TO.P,IC1,1*
G04 #@! TO.N,Net-(IC1-Pad1)*
X174600000Y-69050000D03*
G04 #@! TO.P,IC1,2*
G04 #@! TO.N,GND*
X174600000Y-66510000D03*
G04 #@! TO.P,IC1,3*
G04 #@! TO.N,Net-(IC1-Pad3)*
X166980000Y-66510000D03*
G04 #@! TO.P,IC1,4*
G04 #@! TO.N,Net-(IC1-Pad4)*
X166980000Y-69050000D03*
G04 #@! TD*
G04 #@! TO.P,IC2,1*
G04 #@! TO.N,Net-(IC2-Pad1)*
X166890000Y-76260000D03*
G04 #@! TO.P,IC2,2*
G04 #@! TO.N,GNDPWR*
X166890000Y-78800000D03*
G04 #@! TO.P,IC2,3*
G04 #@! TO.N,GND*
X174510000Y-78800000D03*
G04 #@! TO.P,IC2,4*
G04 #@! TO.N,/Relay_state*
X174510000Y-76260000D03*
G04 #@! TD*
D18*
G04 #@! TO.P,P1,2*
G04 #@! TO.N,/24v*
X138030000Y-100090000D03*
G04 #@! TO.P,P1,1*
G04 #@! TO.N,Net-(P1-Pad1)*
X140530000Y-100090000D03*
G04 #@! TD*
G04 #@! TO.P,P2,1*
G04 #@! TO.N,/Coil*
X148030000Y-100090000D03*
G04 #@! TO.P,P2,2*
G04 #@! TO.N,Net-(P1-Pad1)*
X145530000Y-100090000D03*
G04 #@! TD*
D19*
G04 #@! TO.P,P4,2*
G04 #@! TO.N,+12V*
X194200000Y-78500000D03*
G04 #@! TO.P,P4,1*
G04 #@! TO.N,GND*
X194200000Y-76000000D03*
G04 #@! TD*
G04 #@! TO.P,P5,1*
G04 #@! TO.N,GND*
X194200000Y-83500000D03*
G04 #@! TO.P,P5,2*
G04 #@! TO.N,+12V*
X194200000Y-86000000D03*
G04 #@! TD*
D13*
G04 #@! TO.P,P6,2*
G04 #@! TO.N,+BATT*
X130700000Y-91400000D03*
G04 #@! TO.P,P6,1*
G04 #@! TO.N,GNDPWR*
X123700000Y-91400000D03*
G04 #@! TD*
D19*
G04 #@! TO.P,P8,4*
G04 #@! TO.N,/Relay_state*
X183500000Y-61250000D03*
G04 #@! TO.P,P8,3*
G04 #@! TO.N,/Forced_shutdown*
X183500000Y-63750000D03*
G04 #@! TO.P,P8,2*
G04 #@! TO.N,+12V*
X183500000Y-66250000D03*
G04 #@! TO.P,P8,1*
G04 #@! TO.N,GND*
X183500000Y-68750000D03*
G04 #@! TD*
G04 #@! TO.P,P9,1*
G04 #@! TO.N,GND*
X190750000Y-68750000D03*
G04 #@! TO.P,P9,2*
G04 #@! TO.N,+12V*
X190750000Y-66250000D03*
G04 #@! TO.P,P9,3*
G04 #@! TO.N,/Forced_shutdown*
X190750000Y-63750000D03*
G04 #@! TO.P,P9,4*
G04 #@! TO.N,/Relay_state*
X190750000Y-61250000D03*
G04 #@! TD*
D16*
G04 #@! TO.P,R1,1*
G04 #@! TO.N,/24v*
X168850000Y-71050000D03*
G04 #@! TO.P,R1,2*
G04 #@! TO.N,Net-(IC1-Pad4)*
X168850000Y-69490000D03*
G04 #@! TD*
D20*
G04 #@! TO.P,R2,1*
G04 #@! TO.N,Net-(IC2-Pad1)*
X164920000Y-76260000D03*
G04 #@! TO.P,R2,2*
G04 #@! TO.N,/Coil*
X163360000Y-76260000D03*
G04 #@! TD*
G04 #@! TO.P,R3,2*
G04 #@! TO.N,GNDPWR*
X168500000Y-64500000D03*
G04 #@! TO.P,R3,1*
G04 #@! TO.N,Net-(IC1-Pad3)*
X166940000Y-64500000D03*
G04 #@! TD*
D16*
G04 #@! TO.P,R4,1*
G04 #@! TO.N,/Forced_shutdown*
X177000000Y-65720000D03*
G04 #@! TO.P,R4,2*
G04 #@! TO.N,Net-(IC1-Pad1)*
X177000000Y-67280000D03*
G04 #@! TD*
G04 #@! TO.P,R5,1*
G04 #@! TO.N,/Relay_state*
X172750000Y-76750000D03*
G04 #@! TO.P,R5,2*
G04 #@! TO.N,GND*
X172750000Y-78310000D03*
G04 #@! TD*
D20*
G04 #@! TO.P,R6,2*
G04 #@! TO.N,/Relay_state*
X177750000Y-76250000D03*
G04 #@! TO.P,R6,1*
G04 #@! TO.N,+12V*
X179310000Y-76250000D03*
G04 #@! TD*
D14*
G04 #@! TO.P,R7,1*
G04 #@! TO.N,+BATT*
X130551543Y-87351543D03*
D15*
G04 #@! TD*
G04 #@! TO.N,+BATT*
G04 #@! TO.C,R7*
G36*
X131329360Y-87280832D02*
X130480832Y-88129360D01*
X129773726Y-87422254D01*
X130622254Y-86573726D01*
X131329360Y-87280832D01*
X131329360Y-87280832D01*
G37*
D14*
G04 #@! TO.P,R7,2*
G04 #@! TO.N,Net-(D2-Pad1)*
X129448457Y-86248457D03*
D15*
G04 #@! TD*
G04 #@! TO.N,Net-(D2-Pad1)*
G04 #@! TO.C,R7*
G36*
X130226274Y-86177746D02*
X129377746Y-87026274D01*
X128670640Y-86319168D01*
X129519168Y-85470640D01*
X130226274Y-86177746D01*
X130226274Y-86177746D01*
G37*
D20*
G04 #@! TO.P,R8,2*
G04 #@! TO.N,Net-(D3-Pad1)*
X145330000Y-93750000D03*
G04 #@! TO.P,R8,1*
G04 #@! TO.N,/24v*
X143770000Y-93750000D03*
G04 #@! TD*
D16*
G04 #@! TO.P,R9,2*
G04 #@! TO.N,Net-(D4-Pad1)*
X184500000Y-75030000D03*
G04 #@! TO.P,R9,1*
G04 #@! TO.N,+12V*
X184500000Y-73470000D03*
G04 #@! TD*
D20*
G04 #@! TO.P,R10,1*
G04 #@! TO.N,/Coil*
X153720000Y-93750000D03*
G04 #@! TO.P,R10,2*
G04 #@! TO.N,Net-(D5-Pad1)*
X155280000Y-93750000D03*
G04 #@! TD*
D14*
G04 #@! TO.P,R12,2*
G04 #@! TO.N,Net-(D7-Pad1)*
X129248457Y-60848457D03*
D15*
G04 #@! TD*
G04 #@! TO.N,Net-(D7-Pad1)*
G04 #@! TO.C,R12*
G36*
X130026274Y-60777746D02*
X129177746Y-61626274D01*
X128470640Y-60919168D01*
X129319168Y-60070640D01*
X130026274Y-60777746D01*
X130026274Y-60777746D01*
G37*
D14*
G04 #@! TO.P,R12,1*
G04 #@! TO.N,/Fun_Out*
X130351543Y-61951543D03*
D15*
G04 #@! TD*
G04 #@! TO.N,/Fun_Out*
G04 #@! TO.C,R12*
G36*
X131129360Y-61880832D02*
X130280832Y-62729360D01*
X129573726Y-62022254D01*
X130422254Y-61173726D01*
X131129360Y-61880832D01*
X131129360Y-61880832D01*
G37*
D12*
G04 #@! TO.P,U1,1*
G04 #@! TO.N,GNDPWR*
X164040000Y-84840000D03*
G04 #@! TO.P,U1,2*
X164040000Y-92460000D03*
G04 #@! TO.P,U1,3*
G04 #@! TO.N,/24v*
X164040000Y-97540000D03*
G04 #@! TO.P,U1,4*
G04 #@! TO.N,GND*
X184360000Y-84840000D03*
G04 #@! TO.P,U1,5*
G04 #@! TO.N,Net-(U1-Pad5)*
X184360000Y-95000000D03*
G04 #@! TO.P,U1,6*
G04 #@! TO.N,+12V*
X184360000Y-105160000D03*
G04 #@! TD*
D21*
G04 #@! TO.P,U2,1*
G04 #@! TO.N,/Coil*
X145250000Y-65000000D03*
G04 #@! TO.P,U2,2*
G04 #@! TO.N,/Coil_Out*
X136250000Y-65000000D03*
G04 #@! TO.P,U2,4*
G04 #@! TO.N,Net-(U2-Pad4)*
X140750000Y-65000000D03*
D22*
G04 #@! TO.P,U2,5*
G04 #@! TO.N,/Fun_Out*
X140750000Y-71000000D03*
G04 #@! TO.P,U2,3*
G04 #@! TO.N,+BATT*
X140750000Y-79000000D03*
G04 #@! TD*
G04 #@! TO.P,U3,3*
G04 #@! TO.N,+BATT*
X156000000Y-79000000D03*
G04 #@! TO.P,U3,5*
G04 #@! TO.N,/Power_Out*
X156000000Y-71000000D03*
D21*
G04 #@! TO.P,U3,4*
G04 #@! TO.N,Net-(U3-Pad4)*
X156000000Y-65000000D03*
G04 #@! TO.P,U3,2*
G04 #@! TO.N,/Coil_Out*
X151500000Y-65000000D03*
G04 #@! TO.P,U3,1*
G04 #@! TO.N,/Coil*
X160500000Y-65000000D03*
G04 #@! TD*
D23*
G04 #@! TO.P,C3,2*
G04 #@! TO.N,/24v*
X156250000Y-99250000D03*
D24*
G04 #@! TO.P,C3,1*
G04 #@! TO.N,GNDPWR*
X156250000Y-104250000D03*
G04 #@! TD*
G04 #@! TO.P,C6,1*
G04 #@! TO.N,+12V*
X190000000Y-96750000D03*
D23*
G04 #@! TO.P,C6,2*
G04 #@! TO.N,GND*
X195000000Y-96750000D03*
G04 #@! TD*
D25*
G04 #@! TO.P,JP1,2*
G04 #@! TO.N,/Coil_Out*
X165460000Y-56500000D03*
D26*
G04 #@! TO.P,JP1,1*
G04 #@! TO.N,GNDPWR*
X168000000Y-56500000D03*
G04 #@! TD*
D19*
G04 #@! TO.P,P3,2*
G04 #@! TO.N,/24v*
X130750000Y-103250000D03*
G04 #@! TO.P,P3,1*
G04 #@! TO.N,Net-(D1-Pad2)*
X130750000Y-100750000D03*
G04 #@! TD*
D27*
G04 #@! TO.P,P7,1*
G04 #@! TO.N,GNDPWR*
X133500000Y-55250000D03*
G04 #@! TD*
D13*
G04 #@! TO.P,P11,1*
G04 #@! TO.N,GNDPWR*
X123500000Y-66200000D03*
G04 #@! TO.P,P11,2*
G04 #@! TO.N,/Fun_Out*
X130500000Y-66200000D03*
G04 #@! TD*
D28*
G04 #@! TO.P,D1,1*
G04 #@! TO.N,+BATT*
X134500000Y-93549980D03*
G04 #@! TO.P,D1,2*
G04 #@! TO.N,Net-(D1-Pad2)*
X134500000Y-98950020D03*
G04 #@! TD*
D29*
G04 #@! TO.N,*
X197000000Y-55000000D03*
X123000000Y-55000000D03*
X197000000Y-104000000D03*
X123000000Y-104000000D03*
G04 #@! TD*
D30*
G04 #@! TO.N,+12V*
X194200000Y-86000000D02*
X192300000Y-86000000D01*
X192300000Y-86000000D02*
X192050000Y-85750000D01*
X194200000Y-78500000D02*
X194870000Y-78500000D01*
X192680000Y-66250000D02*
X193000000Y-66570000D01*
X190750000Y-66250000D02*
X192680000Y-66250000D01*
X186320000Y-66250000D02*
X186000000Y-66570000D01*
X190750000Y-66250000D02*
X186320000Y-66250000D01*
X183820000Y-66570000D02*
X183500000Y-66250000D01*
X186000000Y-66570000D02*
X183820000Y-66570000D01*
X185409999Y-103660001D02*
X186329999Y-103660001D01*
X184410000Y-104660000D02*
X185409999Y-103660001D01*
X190000000Y-99990000D02*
X190000000Y-96750000D01*
X186329999Y-103660001D02*
X190000000Y-99990000D01*
X191950000Y-85750000D02*
X192050000Y-85750000D01*
X190000000Y-87700000D02*
X191950000Y-85750000D01*
X190000000Y-96750000D02*
X190000000Y-87700000D01*
X194700000Y-86000000D02*
X194200000Y-86000000D01*
X196500000Y-84200000D02*
X194700000Y-86000000D01*
X196500000Y-78150000D02*
X196500000Y-84200000D01*
X194550000Y-78150000D02*
X194200000Y-78500000D01*
X196500000Y-78150000D02*
X194550000Y-78150000D01*
X184400000Y-73470000D02*
X184500000Y-73470000D01*
X193000000Y-66570000D02*
X193670000Y-66570000D01*
X193670000Y-66570000D02*
X195620000Y-68520000D01*
X193700000Y-78500000D02*
X194200000Y-78500000D01*
X195620000Y-68520000D02*
X195620000Y-70720000D01*
X195620000Y-70720000D02*
X192110000Y-74230000D01*
X192110000Y-74230000D02*
X192110000Y-76910000D01*
X192110000Y-76910000D02*
X193700000Y-78500000D01*
X192110000Y-76910000D02*
X192070000Y-76910000D01*
X188630000Y-73470000D02*
X184500000Y-73470000D01*
X192070000Y-76910000D02*
X188630000Y-73470000D01*
X182090000Y-73470000D02*
X179310000Y-76250000D01*
X184500000Y-73470000D02*
X182090000Y-73470000D01*
G04 #@! TO.N,+BATT*
X130700000Y-87500000D02*
X130551543Y-87351543D01*
X130700000Y-91400000D02*
X130700000Y-87500000D01*
X128450000Y-93650000D02*
X130700000Y-91400000D01*
G04 #@! TO.N,Net-(D2-Pad1)*
X128400000Y-85200000D02*
X129448457Y-86248457D01*
G04 #@! TO.N,Net-(D3-Pad1)*
X147010000Y-93750000D02*
X145330000Y-93750000D01*
G04 #@! TO.N,Net-(D4-Pad1)*
X184500000Y-76250000D02*
X184500000Y-75030000D01*
G04 #@! TO.N,Net-(D5-Pad1)*
X157250000Y-93750000D02*
X155280000Y-93750000D01*
G04 #@! TO.N,Net-(D6-Pad1)*
X129448457Y-73748457D02*
X128200000Y-72500000D01*
X129448457Y-73948457D02*
X129448457Y-73748457D01*
G04 #@! TO.N,Net-(D7-Pad1)*
X129248457Y-60848457D02*
X128200000Y-59800000D01*
G04 #@! TO.N,Net-(IC1-Pad4)*
X168850000Y-69490000D02*
X167420000Y-69490000D01*
G04 #@! TO.N,Net-(IC1-Pad3)*
X164998860Y-62558860D02*
X166940000Y-64500000D01*
X164998860Y-61450000D02*
X164998860Y-62558860D01*
X166980000Y-64540000D02*
X166940000Y-64500000D01*
X166980000Y-66510000D02*
X166980000Y-64540000D01*
G04 #@! TO.N,Net-(IC1-Pad1)*
X175230000Y-69050000D02*
X177000000Y-67280000D01*
X174600000Y-69050000D02*
X175230000Y-69050000D01*
G04 #@! TO.N,Net-(IC2-Pad1)*
X164920000Y-76260000D02*
X166890000Y-76260000D01*
G04 #@! TO.N,/Relay_state*
X173240000Y-76260000D02*
X172750000Y-76750000D01*
X174510000Y-76260000D02*
X173240000Y-76260000D01*
X177740000Y-76260000D02*
X177750000Y-76250000D01*
X174510000Y-76260000D02*
X177740000Y-76260000D01*
X190750000Y-61250000D02*
X183500000Y-61250000D01*
X175270000Y-61250000D02*
X183500000Y-61250000D01*
X172750000Y-76750000D02*
X172750000Y-63770000D01*
X172750000Y-63770000D02*
X175270000Y-61250000D01*
G04 #@! TO.N,/24v*
X138030000Y-100090000D02*
X138030000Y-99380000D01*
X152250000Y-103250000D02*
X156250000Y-99250000D01*
X138940000Y-103250000D02*
X152250000Y-103250000D01*
X169590000Y-73730000D02*
X168850000Y-72990000D01*
X167440000Y-83760000D02*
X169590000Y-81610000D01*
X169590000Y-81610000D02*
X169590000Y-73730000D01*
X168850000Y-72990000D02*
X168850000Y-71050000D01*
X167440000Y-93690000D02*
X167440000Y-83760000D01*
X164090000Y-97040000D02*
X167440000Y-93690000D01*
X161880000Y-99250000D02*
X164090000Y-97040000D01*
X156250000Y-99250000D02*
X161880000Y-99250000D01*
X138030000Y-100590000D02*
X138030000Y-100090000D01*
X135370000Y-103250000D02*
X138030000Y-100590000D01*
X135250000Y-103250000D02*
X135370000Y-103250000D01*
X135250000Y-103250000D02*
X138940000Y-103250000D01*
X130750000Y-103250000D02*
X135250000Y-103250000D01*
X138030000Y-99490000D02*
X143770000Y-93750000D01*
X138030000Y-100090000D02*
X138030000Y-99490000D01*
G04 #@! TO.N,Net-(P1-Pad1)*
X145530000Y-100090000D02*
X140530000Y-100090000D01*
G04 #@! TO.N,/Coil*
X160250000Y-67238000D02*
X160250000Y-65000000D01*
X163360000Y-76260000D02*
X163360000Y-70348000D01*
X148030000Y-100090000D02*
X149900000Y-100090000D01*
X153720000Y-96270000D02*
X153720000Y-93750000D01*
X149900000Y-100090000D02*
X153720000Y-96270000D01*
X153720000Y-92880000D02*
X153720000Y-93750000D01*
X153720000Y-92690000D02*
X153720000Y-92880000D01*
X154600000Y-91810000D02*
X153720000Y-92690000D01*
X154600000Y-91800000D02*
X154600000Y-91810000D01*
X163360000Y-76260000D02*
X163360000Y-83040000D01*
X163360000Y-83040000D02*
X154600000Y-91800000D01*
X145250000Y-65000000D02*
X145250000Y-67490000D01*
X146460001Y-68700001D02*
X151629999Y-68700001D01*
X145250000Y-67490000D02*
X146460001Y-68700001D01*
X163360000Y-70348000D02*
X162482000Y-69470000D01*
X161712001Y-68700001D02*
X161830000Y-68818000D01*
X151629999Y-68700001D02*
X161712001Y-68700001D01*
X162482000Y-69470000D02*
X161830000Y-68818000D01*
X161830000Y-68818000D02*
X160250000Y-67238000D01*
G04 #@! TO.N,/Forced_shutdown*
X183500000Y-63750000D02*
X190750000Y-63750000D01*
X181250000Y-63750000D02*
X183500000Y-63750000D01*
X177000000Y-65720000D02*
X177000000Y-65500000D01*
X178750000Y-63750000D02*
X181250000Y-63750000D01*
X177000000Y-65500000D02*
X178750000Y-63750000D01*
G04 #@! TO.N,/Fun_Out*
X130500000Y-62100000D02*
X130351543Y-61951543D01*
X130500000Y-66200000D02*
X130500000Y-62100000D01*
G04 #@! TO.N,/Coil_Out*
X168001140Y-59793142D02*
X168001140Y-60500000D01*
X165460000Y-57252002D02*
X168001140Y-59793142D01*
X165460000Y-56500000D02*
X165460000Y-57252002D01*
X164023160Y-56500000D02*
X165460000Y-56500000D01*
X136250000Y-62762000D02*
X142512000Y-56500000D01*
X136250000Y-65000000D02*
X136250000Y-62762000D01*
X156000000Y-56500000D02*
X157930000Y-56500000D01*
X151500000Y-61000000D02*
X156000000Y-56500000D01*
X151500000Y-65000000D02*
X151500000Y-61000000D01*
X142512000Y-56500000D02*
X157930000Y-56500000D01*
X157930000Y-56500000D02*
X164023160Y-56500000D01*
G04 #@! TO.N,Net-(D1-Pad2)*
X132700020Y-100750000D02*
X134500000Y-98950020D01*
X130750000Y-100750000D02*
X132700020Y-100750000D01*
G04 #@! TD*
D31*
G04 #@! TO.N,GNDPWR*
G36*
X170375000Y-72969889D02*
X170365031Y-72954969D01*
X170275274Y-72894995D01*
X169925000Y-72544722D01*
X169925000Y-71874083D01*
X169991637Y-71774354D01*
X170036264Y-71550000D01*
X170036264Y-70550000D01*
X169991637Y-70325646D01*
X169954455Y-70270000D01*
X169991637Y-70214354D01*
X170036264Y-69990000D01*
X170036264Y-68990000D01*
X169991637Y-68765646D01*
X169864551Y-68575449D01*
X169674354Y-68448363D01*
X169450000Y-68403736D01*
X168250000Y-68403736D01*
X168207523Y-68412185D01*
X167971319Y-68058681D01*
X167554244Y-67780000D01*
X167971319Y-67501319D01*
X168275221Y-67046498D01*
X168381937Y-66510000D01*
X168275221Y-65973502D01*
X168055000Y-65643918D01*
X168055000Y-64645872D01*
X168076059Y-64540000D01*
X168055000Y-64434129D01*
X168055000Y-64434125D01*
X168026264Y-64289660D01*
X168026264Y-63900000D01*
X167981637Y-63675646D01*
X167854551Y-63485449D01*
X167664354Y-63358363D01*
X167440000Y-63313736D01*
X167274016Y-63313736D01*
X166260513Y-62300234D01*
X166313841Y-62264601D01*
X166440927Y-62074404D01*
X166485554Y-61850050D01*
X166485554Y-61049950D01*
X166440927Y-60825596D01*
X166313841Y-60635399D01*
X166123644Y-60508313D01*
X165899290Y-60463686D01*
X165457683Y-60463686D01*
X165418303Y-60437373D01*
X164998860Y-60353940D01*
X164579416Y-60437373D01*
X164540036Y-60463686D01*
X164098430Y-60463686D01*
X163874076Y-60508313D01*
X163683879Y-60635399D01*
X163556793Y-60825596D01*
X163512166Y-61049950D01*
X163512166Y-61850050D01*
X163556793Y-62074404D01*
X163683879Y-62264601D01*
X163874076Y-62391687D01*
X163923860Y-62401590D01*
X163923860Y-62452989D01*
X163902801Y-62558860D01*
X163923860Y-62664731D01*
X163923860Y-62664735D01*
X163928087Y-62685983D01*
X163986233Y-62978303D01*
X163986234Y-62978304D01*
X164223830Y-63333891D01*
X164313586Y-63393864D01*
X165853736Y-64934016D01*
X165853736Y-65100000D01*
X165898363Y-65324354D01*
X165905001Y-65334288D01*
X165905000Y-65643918D01*
X165684779Y-65973502D01*
X165578063Y-66510000D01*
X165684779Y-67046498D01*
X165988681Y-67501319D01*
X166405756Y-67780000D01*
X165988681Y-68058681D01*
X165684779Y-68513502D01*
X165578063Y-69050000D01*
X165684779Y-69586498D01*
X165988681Y-70041319D01*
X166443502Y-70345221D01*
X166844578Y-70425000D01*
X166884379Y-70425000D01*
X167000556Y-70502627D01*
X167314125Y-70565000D01*
X167663736Y-70565000D01*
X167663736Y-71550000D01*
X167708363Y-71774354D01*
X167775001Y-71874084D01*
X167775000Y-72884128D01*
X167753941Y-72990000D01*
X167775000Y-73095871D01*
X167775000Y-73095874D01*
X167837373Y-73409443D01*
X168074969Y-73765031D01*
X168164728Y-73825006D01*
X168515001Y-74175279D01*
X168515000Y-81164721D01*
X166754726Y-82924996D01*
X166664970Y-82984969D01*
X166604997Y-83074725D01*
X166604996Y-83074726D01*
X166427373Y-83340557D01*
X166343941Y-83760000D01*
X166365001Y-83865876D01*
X166365000Y-93244720D01*
X163586745Y-96022977D01*
X163147834Y-96204780D01*
X162704780Y-96647834D01*
X162522977Y-97086744D01*
X161434722Y-98175000D01*
X156855800Y-98175000D01*
X156493668Y-98025000D01*
X156006332Y-98025000D01*
X155556093Y-98211495D01*
X155211495Y-98556093D01*
X155061495Y-98918225D01*
X151804722Y-102175000D01*
X137965279Y-102175000D01*
X138241364Y-101898915D01*
X138546989Y-101838122D01*
X138985272Y-101545272D01*
X139278122Y-101106989D01*
X139280000Y-101097548D01*
X139281878Y-101106989D01*
X139574729Y-101545272D01*
X140013012Y-101838122D01*
X140530000Y-101940958D01*
X141046989Y-101838122D01*
X141485272Y-101545272D01*
X141739360Y-101165000D01*
X144320640Y-101165000D01*
X144574729Y-101545272D01*
X145013012Y-101838122D01*
X145530000Y-101940958D01*
X146046989Y-101838122D01*
X146485272Y-101545272D01*
X146778122Y-101106989D01*
X146780000Y-101097548D01*
X146781878Y-101106989D01*
X147074729Y-101545272D01*
X147513012Y-101838122D01*
X148030000Y-101940958D01*
X148546989Y-101838122D01*
X148985272Y-101545272D01*
X149239360Y-101165000D01*
X149794129Y-101165000D01*
X149900000Y-101186059D01*
X150005871Y-101165000D01*
X150005875Y-101165000D01*
X150319444Y-101102627D01*
X150675031Y-100865031D01*
X150735006Y-100775272D01*
X154405275Y-97105004D01*
X154495031Y-97045031D01*
X154732627Y-96689444D01*
X154795000Y-96375875D01*
X154795000Y-96375872D01*
X154816059Y-96270000D01*
X154795000Y-96164129D01*
X154795000Y-94936264D01*
X155700786Y-94936264D01*
X155708363Y-94974354D01*
X155835449Y-95164551D01*
X156025646Y-95291637D01*
X156250000Y-95336264D01*
X158250000Y-95336264D01*
X158474354Y-95291637D01*
X158664551Y-95164551D01*
X158791637Y-94974354D01*
X158836264Y-94750000D01*
X158836264Y-92750000D01*
X158791637Y-92525646D01*
X158664551Y-92335449D01*
X158474354Y-92208363D01*
X158250000Y-92163736D01*
X156250000Y-92163736D01*
X156025646Y-92208363D01*
X155835449Y-92335449D01*
X155708363Y-92525646D01*
X155700786Y-92563736D01*
X155389260Y-92563736D01*
X155455142Y-92465136D01*
X164045275Y-83875004D01*
X164135031Y-83815031D01*
X164372627Y-83459444D01*
X164435000Y-83145875D01*
X164435000Y-83145872D01*
X164456059Y-83040000D01*
X164435000Y-82934129D01*
X164435000Y-77446264D01*
X165420000Y-77446264D01*
X165644354Y-77401637D01*
X165744083Y-77335000D01*
X166023918Y-77335000D01*
X166353502Y-77555221D01*
X166754578Y-77635000D01*
X167025422Y-77635000D01*
X167426498Y-77555221D01*
X167881319Y-77251319D01*
X168185221Y-76796498D01*
X168291937Y-76260000D01*
X168185221Y-75723502D01*
X167881319Y-75268681D01*
X167426498Y-74964779D01*
X167025422Y-74885000D01*
X166754578Y-74885000D01*
X166353502Y-74964779D01*
X166023918Y-75185000D01*
X165744083Y-75185000D01*
X165644354Y-75118363D01*
X165420000Y-75073736D01*
X164435000Y-75073736D01*
X164435000Y-70453872D01*
X164456059Y-70348000D01*
X164435000Y-70242128D01*
X164435000Y-70242125D01*
X164372627Y-69928556D01*
X164359857Y-69909444D01*
X164195005Y-69662725D01*
X164195002Y-69662722D01*
X164135031Y-69572969D01*
X164045277Y-69512997D01*
X163317005Y-68784727D01*
X163317004Y-68784725D01*
X162665008Y-68132729D01*
X162665004Y-68132724D01*
X162547004Y-68014724D01*
X162487032Y-67924970D01*
X162397278Y-67864998D01*
X161848264Y-67315985D01*
X161848264Y-62000000D01*
X161803637Y-61775646D01*
X161676551Y-61585449D01*
X161486354Y-61458363D01*
X161262000Y-61413736D01*
X159738000Y-61413736D01*
X159513646Y-61458363D01*
X159323449Y-61585449D01*
X159196363Y-61775646D01*
X159151736Y-62000000D01*
X159151736Y-67625001D01*
X157348264Y-67625001D01*
X157348264Y-62000000D01*
X157303637Y-61775646D01*
X157176551Y-61585449D01*
X156986354Y-61458363D01*
X156762000Y-61413736D01*
X155238000Y-61413736D01*
X155013646Y-61458363D01*
X154823449Y-61585449D01*
X154696363Y-61775646D01*
X154651736Y-62000000D01*
X154651736Y-67625001D01*
X152848264Y-67625001D01*
X152848264Y-62000000D01*
X152803637Y-61775646D01*
X152676551Y-61585449D01*
X152575000Y-61517595D01*
X152575000Y-61445278D01*
X156445279Y-57575000D01*
X164264813Y-57575000D01*
X164312953Y-57647047D01*
X164526341Y-57789628D01*
X164684970Y-58027033D01*
X164774726Y-58087006D01*
X166560772Y-59873053D01*
X166559073Y-59875596D01*
X166514446Y-60099950D01*
X166514446Y-60900050D01*
X166559073Y-61124404D01*
X166686159Y-61314601D01*
X166876356Y-61441687D01*
X167100710Y-61486314D01*
X167542317Y-61486314D01*
X167581697Y-61512627D01*
X168001140Y-61596060D01*
X168420584Y-61512627D01*
X168459964Y-61486314D01*
X168901570Y-61486314D01*
X169125924Y-61441687D01*
X169316121Y-61314601D01*
X169443207Y-61124404D01*
X169487834Y-60900050D01*
X169487834Y-60099950D01*
X169443207Y-59875596D01*
X169316121Y-59685399D01*
X169125924Y-59558313D01*
X169047382Y-59542690D01*
X169013767Y-59373698D01*
X168776171Y-59018111D01*
X168686415Y-58958138D01*
X166914775Y-57186499D01*
X166958689Y-57120777D01*
X167082169Y-56500000D01*
X166958689Y-55879223D01*
X166607047Y-55352953D01*
X166080777Y-55001311D01*
X165616697Y-54909000D01*
X165303303Y-54909000D01*
X164839223Y-55001311D01*
X164312953Y-55352953D01*
X164264813Y-55425000D01*
X156105871Y-55425000D01*
X155999999Y-55403941D01*
X155894128Y-55425000D01*
X142617869Y-55425000D01*
X142511999Y-55403941D01*
X142406129Y-55425000D01*
X142406125Y-55425000D01*
X142092556Y-55487373D01*
X141926833Y-55598106D01*
X141826724Y-55664996D01*
X141826722Y-55664998D01*
X141736969Y-55724969D01*
X141676998Y-55814723D01*
X136077986Y-61413736D01*
X135488000Y-61413736D01*
X135263646Y-61458363D01*
X135073449Y-61585449D01*
X134946363Y-61775646D01*
X134901736Y-62000000D01*
X134901736Y-68000000D01*
X134946363Y-68224354D01*
X135073449Y-68414551D01*
X135263646Y-68541637D01*
X135488000Y-68586264D01*
X137012000Y-68586264D01*
X137236354Y-68541637D01*
X137426551Y-68414551D01*
X137553637Y-68224354D01*
X137598264Y-68000000D01*
X137598264Y-62934014D01*
X138532278Y-62000000D01*
X139401736Y-62000000D01*
X139401736Y-68000000D01*
X139446363Y-68224354D01*
X139573449Y-68414551D01*
X139763646Y-68541637D01*
X139988000Y-68586264D01*
X141512000Y-68586264D01*
X141736354Y-68541637D01*
X141926551Y-68414551D01*
X142053637Y-68224354D01*
X142098264Y-68000000D01*
X142098264Y-62000000D01*
X142053637Y-61775646D01*
X141926551Y-61585449D01*
X141736354Y-61458363D01*
X141512000Y-61413736D01*
X139988000Y-61413736D01*
X139763646Y-61458363D01*
X139573449Y-61585449D01*
X139446363Y-61775646D01*
X139401736Y-62000000D01*
X138532278Y-62000000D01*
X142957280Y-57575000D01*
X153404721Y-57575000D01*
X150814726Y-60164996D01*
X150724970Y-60224969D01*
X150664997Y-60314725D01*
X150664996Y-60314726D01*
X150487373Y-60580557D01*
X150403941Y-61000000D01*
X150425001Y-61105876D01*
X150425001Y-61517594D01*
X150323449Y-61585449D01*
X150196363Y-61775646D01*
X150151736Y-62000000D01*
X150151736Y-67625001D01*
X146905280Y-67625001D01*
X146598264Y-67317986D01*
X146598264Y-62000000D01*
X146553637Y-61775646D01*
X146426551Y-61585449D01*
X146236354Y-61458363D01*
X146012000Y-61413736D01*
X144488000Y-61413736D01*
X144263646Y-61458363D01*
X144073449Y-61585449D01*
X143946363Y-61775646D01*
X143901736Y-62000000D01*
X143901736Y-68000000D01*
X143946363Y-68224354D01*
X144073449Y-68414551D01*
X144263646Y-68541637D01*
X144488000Y-68586264D01*
X144825986Y-68586264D01*
X145393207Y-69153485D01*
X145250000Y-69125000D01*
X134375000Y-69125000D01*
X134375000Y-62750000D01*
X134327425Y-62510823D01*
X134191942Y-62308058D01*
X133989177Y-62172575D01*
X133750000Y-62125000D01*
X131657758Y-62125000D01*
X131670997Y-62105186D01*
X131715624Y-61880832D01*
X131670997Y-61656478D01*
X131543911Y-61466281D01*
X130836805Y-60759175D01*
X130646608Y-60632089D01*
X130580968Y-60619032D01*
X130567911Y-60553392D01*
X130440825Y-60363195D01*
X129786264Y-59708634D01*
X129786264Y-58800000D01*
X129741637Y-58575646D01*
X129614551Y-58385449D01*
X129424354Y-58258363D01*
X129200000Y-58213736D01*
X127200000Y-58213736D01*
X126975646Y-58258363D01*
X126785449Y-58385449D01*
X126658363Y-58575646D01*
X126613736Y-58800000D01*
X126613736Y-60800000D01*
X126658363Y-61024354D01*
X126785449Y-61214551D01*
X126975646Y-61341637D01*
X127200000Y-61386264D01*
X128108634Y-61386264D01*
X128763195Y-62040825D01*
X128889171Y-62125000D01*
X127000000Y-62125000D01*
X126760823Y-62172575D01*
X126558058Y-62308058D01*
X126422575Y-62510823D01*
X126375000Y-62750000D01*
X126375000Y-71000000D01*
X126422575Y-71239177D01*
X126558058Y-71441942D01*
X126617398Y-71481591D01*
X126613736Y-71500000D01*
X126613736Y-73500000D01*
X126658363Y-73724354D01*
X126785449Y-73914551D01*
X126975646Y-74041637D01*
X127200000Y-74086264D01*
X128097722Y-74086264D01*
X128129003Y-74243522D01*
X128216854Y-74375000D01*
X127250000Y-74375000D01*
X127010823Y-74422575D01*
X126808058Y-74558058D01*
X126672575Y-74760823D01*
X126625000Y-75000000D01*
X126625000Y-83000000D01*
X126672575Y-83239177D01*
X126808058Y-83441942D01*
X127010823Y-83577425D01*
X127196686Y-83614395D01*
X126975646Y-83658363D01*
X126785449Y-83785449D01*
X126658363Y-83975646D01*
X126613736Y-84200000D01*
X126613736Y-86200000D01*
X126658363Y-86424354D01*
X126785449Y-86614551D01*
X126975646Y-86741637D01*
X127200000Y-86786264D01*
X128308634Y-86786264D01*
X128397370Y-86875000D01*
X127250000Y-86875000D01*
X127010823Y-86922575D01*
X126808058Y-87058058D01*
X126672575Y-87260823D01*
X126625000Y-87500000D01*
X126625000Y-95250000D01*
X126672575Y-95489177D01*
X126808058Y-95691942D01*
X127010823Y-95827425D01*
X127250000Y-95875000D01*
X133292551Y-95875000D01*
X133349380Y-95886304D01*
X135650620Y-95886304D01*
X135707449Y-95875000D01*
X136750000Y-95875000D01*
X136989177Y-95827425D01*
X137191942Y-95691942D01*
X137327425Y-95489177D01*
X137375000Y-95250000D01*
X137375000Y-86866704D01*
X145412786Y-82375000D01*
X159750000Y-82375000D01*
X159989177Y-82327425D01*
X160191942Y-82191942D01*
X160327425Y-81989177D01*
X160375000Y-81750000D01*
X160375000Y-76500000D01*
X160327425Y-76260823D01*
X160320193Y-76250000D01*
X160327425Y-76239177D01*
X160375000Y-76000000D01*
X160375000Y-69775001D01*
X161266723Y-69775001D01*
X161796725Y-70305004D01*
X161796727Y-70305005D01*
X162285001Y-70793280D01*
X162285000Y-75603372D01*
X162273736Y-75660000D01*
X162273736Y-76860000D01*
X162285000Y-76916628D01*
X162285001Y-82594720D01*
X153914728Y-90964994D01*
X153824969Y-91024969D01*
X153744859Y-91144862D01*
X153034728Y-91854994D01*
X152944969Y-91914969D01*
X152707373Y-92270557D01*
X152645000Y-92584126D01*
X152645000Y-92584129D01*
X152623941Y-92690000D01*
X152645000Y-92795871D01*
X152645000Y-93093372D01*
X152633736Y-93150000D01*
X152633736Y-94350000D01*
X152645001Y-94406631D01*
X152645000Y-95824721D01*
X149454722Y-99015000D01*
X149239360Y-99015000D01*
X148985271Y-98634728D01*
X148546988Y-98341878D01*
X148030000Y-98239042D01*
X147513011Y-98341878D01*
X147074728Y-98634729D01*
X146781878Y-99073012D01*
X146780000Y-99082453D01*
X146778122Y-99073011D01*
X146485271Y-98634728D01*
X146046988Y-98341878D01*
X145530000Y-98239042D01*
X145013011Y-98341878D01*
X144574728Y-98634729D01*
X144320640Y-99015000D01*
X141739360Y-99015000D01*
X141485271Y-98634728D01*
X141046988Y-98341878D01*
X140756235Y-98284043D01*
X144104015Y-94936264D01*
X144270000Y-94936264D01*
X144494354Y-94891637D01*
X144550000Y-94854455D01*
X144605646Y-94891637D01*
X144830000Y-94936264D01*
X145460786Y-94936264D01*
X145468363Y-94974354D01*
X145595449Y-95164551D01*
X145785646Y-95291637D01*
X146010000Y-95336264D01*
X148010000Y-95336264D01*
X148234354Y-95291637D01*
X148424551Y-95164551D01*
X148551637Y-94974354D01*
X148596264Y-94750000D01*
X148596264Y-92750000D01*
X148551637Y-92525646D01*
X148424551Y-92335449D01*
X148234354Y-92208363D01*
X148010000Y-92163736D01*
X146010000Y-92163736D01*
X145785646Y-92208363D01*
X145595449Y-92335449D01*
X145468363Y-92525646D01*
X145460786Y-92563736D01*
X144830000Y-92563736D01*
X144605646Y-92608363D01*
X144550000Y-92645545D01*
X144494354Y-92608363D01*
X144270000Y-92563736D01*
X143270000Y-92563736D01*
X143045646Y-92608363D01*
X142855449Y-92735449D01*
X142728363Y-92925646D01*
X142683736Y-93150000D01*
X142683736Y-93315985D01*
X137693807Y-98305915D01*
X137513011Y-98341878D01*
X137074728Y-98634729D01*
X136781878Y-99073012D01*
X136705000Y-99459502D01*
X136705000Y-100394721D01*
X136196471Y-100903251D01*
X136236884Y-100700080D01*
X136236884Y-97199960D01*
X136192257Y-96975606D01*
X136065171Y-96785409D01*
X135874974Y-96658323D01*
X135650620Y-96613696D01*
X133349380Y-96613696D01*
X133125026Y-96658323D01*
X132934829Y-96785409D01*
X132807743Y-96975606D01*
X132763116Y-97199960D01*
X132763116Y-99166626D01*
X132254742Y-99675000D01*
X132026086Y-99675000D01*
X131766989Y-99501878D01*
X131380499Y-99425000D01*
X130119501Y-99425000D01*
X129733011Y-99501878D01*
X129294728Y-99794728D01*
X129001878Y-100233011D01*
X128899042Y-100750000D01*
X129001878Y-101266989D01*
X129294728Y-101705272D01*
X129733011Y-101998122D01*
X129742452Y-102000000D01*
X129733011Y-102001878D01*
X129294728Y-102294728D01*
X129001878Y-102733011D01*
X128899042Y-103250000D01*
X129001878Y-103766989D01*
X129294728Y-104205272D01*
X129733011Y-104498122D01*
X130119501Y-104575000D01*
X131380499Y-104575000D01*
X131766989Y-104498122D01*
X132026086Y-104325000D01*
X135264129Y-104325000D01*
X135370000Y-104346059D01*
X135475871Y-104325000D01*
X152144129Y-104325000D01*
X152250000Y-104346059D01*
X152355871Y-104325000D01*
X152355875Y-104325000D01*
X152669444Y-104262627D01*
X153025031Y-104025031D01*
X153085006Y-103935272D01*
X156581775Y-100438505D01*
X156855800Y-100325000D01*
X161774129Y-100325000D01*
X161880000Y-100346059D01*
X161985871Y-100325000D01*
X161985875Y-100325000D01*
X162299444Y-100262627D01*
X162655031Y-100025031D01*
X162715006Y-99935272D01*
X163591348Y-99058930D01*
X163726713Y-99115000D01*
X164353287Y-99115000D01*
X164932166Y-98875220D01*
X165375220Y-98432166D01*
X165615000Y-97853287D01*
X165615000Y-97226713D01*
X165558930Y-97091348D01*
X168125278Y-94525002D01*
X168215031Y-94465031D01*
X168275002Y-94375278D01*
X168275004Y-94375276D01*
X168452626Y-94109445D01*
X168452627Y-94109444D01*
X168515000Y-93795875D01*
X168515000Y-93795871D01*
X168536059Y-93690001D01*
X168515000Y-93584131D01*
X168515000Y-84205278D01*
X170275275Y-82445004D01*
X170365031Y-82385031D01*
X170375000Y-82370111D01*
X170375000Y-106350000D01*
X125705813Y-106350000D01*
X126030738Y-106025075D01*
X126575000Y-104711112D01*
X126575000Y-103288888D01*
X126030738Y-101974925D01*
X125025075Y-100969262D01*
X123711112Y-100425000D01*
X122288888Y-100425000D01*
X120974925Y-100969262D01*
X120650000Y-101294187D01*
X120650000Y-57705813D01*
X120974925Y-58030738D01*
X122288888Y-58575000D01*
X123711112Y-58575000D01*
X125025075Y-58030738D01*
X126030738Y-57025075D01*
X126575000Y-55711112D01*
X126575000Y-54288888D01*
X126030738Y-52974925D01*
X125705813Y-52650000D01*
X170375000Y-52650000D01*
X170375000Y-72969889D01*
X170375000Y-72969889D01*
G37*
X170375000Y-72969889D02*
X170365031Y-72954969D01*
X170275274Y-72894995D01*
X169925000Y-72544722D01*
X169925000Y-71874083D01*
X169991637Y-71774354D01*
X170036264Y-71550000D01*
X170036264Y-70550000D01*
X169991637Y-70325646D01*
X169954455Y-70270000D01*
X169991637Y-70214354D01*
X170036264Y-69990000D01*
X170036264Y-68990000D01*
X169991637Y-68765646D01*
X169864551Y-68575449D01*
X169674354Y-68448363D01*
X169450000Y-68403736D01*
X168250000Y-68403736D01*
X168207523Y-68412185D01*
X167971319Y-68058681D01*
X167554244Y-67780000D01*
X167971319Y-67501319D01*
X168275221Y-67046498D01*
X168381937Y-66510000D01*
X168275221Y-65973502D01*
X168055000Y-65643918D01*
X168055000Y-64645872D01*
X168076059Y-64540000D01*
X168055000Y-64434129D01*
X168055000Y-64434125D01*
X168026264Y-64289660D01*
X168026264Y-63900000D01*
X167981637Y-63675646D01*
X167854551Y-63485449D01*
X167664354Y-63358363D01*
X167440000Y-63313736D01*
X167274016Y-63313736D01*
X166260513Y-62300234D01*
X166313841Y-62264601D01*
X166440927Y-62074404D01*
X166485554Y-61850050D01*
X166485554Y-61049950D01*
X166440927Y-60825596D01*
X166313841Y-60635399D01*
X166123644Y-60508313D01*
X165899290Y-60463686D01*
X165457683Y-60463686D01*
X165418303Y-60437373D01*
X164998860Y-60353940D01*
X164579416Y-60437373D01*
X164540036Y-60463686D01*
X164098430Y-60463686D01*
X163874076Y-60508313D01*
X163683879Y-60635399D01*
X163556793Y-60825596D01*
X163512166Y-61049950D01*
X163512166Y-61850050D01*
X163556793Y-62074404D01*
X163683879Y-62264601D01*
X163874076Y-62391687D01*
X163923860Y-62401590D01*
X163923860Y-62452989D01*
X163902801Y-62558860D01*
X163923860Y-62664731D01*
X163923860Y-62664735D01*
X163928087Y-62685983D01*
X163986233Y-62978303D01*
X163986234Y-62978304D01*
X164223830Y-63333891D01*
X164313586Y-63393864D01*
X165853736Y-64934016D01*
X165853736Y-65100000D01*
X165898363Y-65324354D01*
X165905001Y-65334288D01*
X165905000Y-65643918D01*
X165684779Y-65973502D01*
X165578063Y-66510000D01*
X165684779Y-67046498D01*
X165988681Y-67501319D01*
X166405756Y-67780000D01*
X165988681Y-68058681D01*
X165684779Y-68513502D01*
X165578063Y-69050000D01*
X165684779Y-69586498D01*
X165988681Y-70041319D01*
X166443502Y-70345221D01*
X166844578Y-70425000D01*
X166884379Y-70425000D01*
X167000556Y-70502627D01*
X167314125Y-70565000D01*
X167663736Y-70565000D01*
X167663736Y-71550000D01*
X167708363Y-71774354D01*
X167775001Y-71874084D01*
X167775000Y-72884128D01*
X167753941Y-72990000D01*
X167775000Y-73095871D01*
X167775000Y-73095874D01*
X167837373Y-73409443D01*
X168074969Y-73765031D01*
X168164728Y-73825006D01*
X168515001Y-74175279D01*
X168515000Y-81164721D01*
X166754726Y-82924996D01*
X166664970Y-82984969D01*
X166604997Y-83074725D01*
X166604996Y-83074726D01*
X166427373Y-83340557D01*
X166343941Y-83760000D01*
X166365001Y-83865876D01*
X166365000Y-93244720D01*
X163586745Y-96022977D01*
X163147834Y-96204780D01*
X162704780Y-96647834D01*
X162522977Y-97086744D01*
X161434722Y-98175000D01*
X156855800Y-98175000D01*
X156493668Y-98025000D01*
X156006332Y-98025000D01*
X155556093Y-98211495D01*
X155211495Y-98556093D01*
X155061495Y-98918225D01*
X151804722Y-102175000D01*
X137965279Y-102175000D01*
X138241364Y-101898915D01*
X138546989Y-101838122D01*
X138985272Y-101545272D01*
X139278122Y-101106989D01*
X139280000Y-101097548D01*
X139281878Y-101106989D01*
X139574729Y-101545272D01*
X140013012Y-101838122D01*
X140530000Y-101940958D01*
X141046989Y-101838122D01*
X141485272Y-101545272D01*
X141739360Y-101165000D01*
X144320640Y-101165000D01*
X144574729Y-101545272D01*
X145013012Y-101838122D01*
X145530000Y-101940958D01*
X146046989Y-101838122D01*
X146485272Y-101545272D01*
X146778122Y-101106989D01*
X146780000Y-101097548D01*
X146781878Y-101106989D01*
X147074729Y-101545272D01*
X147513012Y-101838122D01*
X148030000Y-101940958D01*
X148546989Y-101838122D01*
X148985272Y-101545272D01*
X149239360Y-101165000D01*
X149794129Y-101165000D01*
X149900000Y-101186059D01*
X150005871Y-101165000D01*
X150005875Y-101165000D01*
X150319444Y-101102627D01*
X150675031Y-100865031D01*
X150735006Y-100775272D01*
X154405275Y-97105004D01*
X154495031Y-97045031D01*
X154732627Y-96689444D01*
X154795000Y-96375875D01*
X154795000Y-96375872D01*
X154816059Y-96270000D01*
X154795000Y-96164129D01*
X154795000Y-94936264D01*
X155700786Y-94936264D01*
X155708363Y-94974354D01*
X155835449Y-95164551D01*
X156025646Y-95291637D01*
X156250000Y-95336264D01*
X158250000Y-95336264D01*
X158474354Y-95291637D01*
X158664551Y-95164551D01*
X158791637Y-94974354D01*
X158836264Y-94750000D01*
X158836264Y-92750000D01*
X158791637Y-92525646D01*
X158664551Y-92335449D01*
X158474354Y-92208363D01*
X158250000Y-92163736D01*
X156250000Y-92163736D01*
X156025646Y-92208363D01*
X155835449Y-92335449D01*
X155708363Y-92525646D01*
X155700786Y-92563736D01*
X155389260Y-92563736D01*
X155455142Y-92465136D01*
X164045275Y-83875004D01*
X164135031Y-83815031D01*
X164372627Y-83459444D01*
X164435000Y-83145875D01*
X164435000Y-83145872D01*
X164456059Y-83040000D01*
X164435000Y-82934129D01*
X164435000Y-77446264D01*
X165420000Y-77446264D01*
X165644354Y-77401637D01*
X165744083Y-77335000D01*
X166023918Y-77335000D01*
X166353502Y-77555221D01*
X166754578Y-77635000D01*
X167025422Y-77635000D01*
X167426498Y-77555221D01*
X167881319Y-77251319D01*
X168185221Y-76796498D01*
X168291937Y-76260000D01*
X168185221Y-75723502D01*
X167881319Y-75268681D01*
X167426498Y-74964779D01*
X167025422Y-74885000D01*
X166754578Y-74885000D01*
X166353502Y-74964779D01*
X166023918Y-75185000D01*
X165744083Y-75185000D01*
X165644354Y-75118363D01*
X165420000Y-75073736D01*
X164435000Y-75073736D01*
X164435000Y-70453872D01*
X164456059Y-70348000D01*
X164435000Y-70242128D01*
X164435000Y-70242125D01*
X164372627Y-69928556D01*
X164359857Y-69909444D01*
X164195005Y-69662725D01*
X164195002Y-69662722D01*
X164135031Y-69572969D01*
X164045277Y-69512997D01*
X163317005Y-68784727D01*
X163317004Y-68784725D01*
X162665008Y-68132729D01*
X162665004Y-68132724D01*
X162547004Y-68014724D01*
X162487032Y-67924970D01*
X162397278Y-67864998D01*
X161848264Y-67315985D01*
X161848264Y-62000000D01*
X161803637Y-61775646D01*
X161676551Y-61585449D01*
X161486354Y-61458363D01*
X161262000Y-61413736D01*
X159738000Y-61413736D01*
X159513646Y-61458363D01*
X159323449Y-61585449D01*
X159196363Y-61775646D01*
X159151736Y-62000000D01*
X159151736Y-67625001D01*
X157348264Y-67625001D01*
X157348264Y-62000000D01*
X157303637Y-61775646D01*
X157176551Y-61585449D01*
X156986354Y-61458363D01*
X156762000Y-61413736D01*
X155238000Y-61413736D01*
X155013646Y-61458363D01*
X154823449Y-61585449D01*
X154696363Y-61775646D01*
X154651736Y-62000000D01*
X154651736Y-67625001D01*
X152848264Y-67625001D01*
X152848264Y-62000000D01*
X152803637Y-61775646D01*
X152676551Y-61585449D01*
X152575000Y-61517595D01*
X152575000Y-61445278D01*
X156445279Y-57575000D01*
X164264813Y-57575000D01*
X164312953Y-57647047D01*
X164526341Y-57789628D01*
X164684970Y-58027033D01*
X164774726Y-58087006D01*
X166560772Y-59873053D01*
X166559073Y-59875596D01*
X166514446Y-60099950D01*
X166514446Y-60900050D01*
X166559073Y-61124404D01*
X166686159Y-61314601D01*
X166876356Y-61441687D01*
X167100710Y-61486314D01*
X167542317Y-61486314D01*
X167581697Y-61512627D01*
X168001140Y-61596060D01*
X168420584Y-61512627D01*
X168459964Y-61486314D01*
X168901570Y-61486314D01*
X169125924Y-61441687D01*
X169316121Y-61314601D01*
X169443207Y-61124404D01*
X169487834Y-60900050D01*
X169487834Y-60099950D01*
X169443207Y-59875596D01*
X169316121Y-59685399D01*
X169125924Y-59558313D01*
X169047382Y-59542690D01*
X169013767Y-59373698D01*
X168776171Y-59018111D01*
X168686415Y-58958138D01*
X166914775Y-57186499D01*
X166958689Y-57120777D01*
X167082169Y-56500000D01*
X166958689Y-55879223D01*
X166607047Y-55352953D01*
X166080777Y-55001311D01*
X165616697Y-54909000D01*
X165303303Y-54909000D01*
X164839223Y-55001311D01*
X164312953Y-55352953D01*
X164264813Y-55425000D01*
X156105871Y-55425000D01*
X155999999Y-55403941D01*
X155894128Y-55425000D01*
X142617869Y-55425000D01*
X142511999Y-55403941D01*
X142406129Y-55425000D01*
X142406125Y-55425000D01*
X142092556Y-55487373D01*
X141926833Y-55598106D01*
X141826724Y-55664996D01*
X141826722Y-55664998D01*
X141736969Y-55724969D01*
X141676998Y-55814723D01*
X136077986Y-61413736D01*
X135488000Y-61413736D01*
X135263646Y-61458363D01*
X135073449Y-61585449D01*
X134946363Y-61775646D01*
X134901736Y-62000000D01*
X134901736Y-68000000D01*
X134946363Y-68224354D01*
X135073449Y-68414551D01*
X135263646Y-68541637D01*
X135488000Y-68586264D01*
X137012000Y-68586264D01*
X137236354Y-68541637D01*
X137426551Y-68414551D01*
X137553637Y-68224354D01*
X137598264Y-68000000D01*
X137598264Y-62934014D01*
X138532278Y-62000000D01*
X139401736Y-62000000D01*
X139401736Y-68000000D01*
X139446363Y-68224354D01*
X139573449Y-68414551D01*
X139763646Y-68541637D01*
X139988000Y-68586264D01*
X141512000Y-68586264D01*
X141736354Y-68541637D01*
X141926551Y-68414551D01*
X142053637Y-68224354D01*
X142098264Y-68000000D01*
X142098264Y-62000000D01*
X142053637Y-61775646D01*
X141926551Y-61585449D01*
X141736354Y-61458363D01*
X141512000Y-61413736D01*
X139988000Y-61413736D01*
X139763646Y-61458363D01*
X139573449Y-61585449D01*
X139446363Y-61775646D01*
X139401736Y-62000000D01*
X138532278Y-62000000D01*
X142957280Y-57575000D01*
X153404721Y-57575000D01*
X150814726Y-60164996D01*
X150724970Y-60224969D01*
X150664997Y-60314725D01*
X150664996Y-60314726D01*
X150487373Y-60580557D01*
X150403941Y-61000000D01*
X150425001Y-61105876D01*
X150425001Y-61517594D01*
X150323449Y-61585449D01*
X150196363Y-61775646D01*
X150151736Y-62000000D01*
X150151736Y-67625001D01*
X146905280Y-67625001D01*
X146598264Y-67317986D01*
X146598264Y-62000000D01*
X146553637Y-61775646D01*
X146426551Y-61585449D01*
X146236354Y-61458363D01*
X146012000Y-61413736D01*
X144488000Y-61413736D01*
X144263646Y-61458363D01*
X144073449Y-61585449D01*
X143946363Y-61775646D01*
X143901736Y-62000000D01*
X143901736Y-68000000D01*
X143946363Y-68224354D01*
X144073449Y-68414551D01*
X144263646Y-68541637D01*
X144488000Y-68586264D01*
X144825986Y-68586264D01*
X145393207Y-69153485D01*
X145250000Y-69125000D01*
X134375000Y-69125000D01*
X134375000Y-62750000D01*
X134327425Y-62510823D01*
X134191942Y-62308058D01*
X133989177Y-62172575D01*
X133750000Y-62125000D01*
X131657758Y-62125000D01*
X131670997Y-62105186D01*
X131715624Y-61880832D01*
X131670997Y-61656478D01*
X131543911Y-61466281D01*
X130836805Y-60759175D01*
X130646608Y-60632089D01*
X130580968Y-60619032D01*
X130567911Y-60553392D01*
X130440825Y-60363195D01*
X129786264Y-59708634D01*
X129786264Y-58800000D01*
X129741637Y-58575646D01*
X129614551Y-58385449D01*
X129424354Y-58258363D01*
X129200000Y-58213736D01*
X127200000Y-58213736D01*
X126975646Y-58258363D01*
X126785449Y-58385449D01*
X126658363Y-58575646D01*
X126613736Y-58800000D01*
X126613736Y-60800000D01*
X126658363Y-61024354D01*
X126785449Y-61214551D01*
X126975646Y-61341637D01*
X127200000Y-61386264D01*
X128108634Y-61386264D01*
X128763195Y-62040825D01*
X128889171Y-62125000D01*
X127000000Y-62125000D01*
X126760823Y-62172575D01*
X126558058Y-62308058D01*
X126422575Y-62510823D01*
X126375000Y-62750000D01*
X126375000Y-71000000D01*
X126422575Y-71239177D01*
X126558058Y-71441942D01*
X126617398Y-71481591D01*
X126613736Y-71500000D01*
X126613736Y-73500000D01*
X126658363Y-73724354D01*
X126785449Y-73914551D01*
X126975646Y-74041637D01*
X127200000Y-74086264D01*
X128097722Y-74086264D01*
X128129003Y-74243522D01*
X128216854Y-74375000D01*
X127250000Y-74375000D01*
X127010823Y-74422575D01*
X126808058Y-74558058D01*
X126672575Y-74760823D01*
X126625000Y-75000000D01*
X126625000Y-83000000D01*
X126672575Y-83239177D01*
X126808058Y-83441942D01*
X127010823Y-83577425D01*
X127196686Y-83614395D01*
X126975646Y-83658363D01*
X126785449Y-83785449D01*
X126658363Y-83975646D01*
X126613736Y-84200000D01*
X126613736Y-86200000D01*
X126658363Y-86424354D01*
X126785449Y-86614551D01*
X126975646Y-86741637D01*
X127200000Y-86786264D01*
X128308634Y-86786264D01*
X128397370Y-86875000D01*
X127250000Y-86875000D01*
X127010823Y-86922575D01*
X126808058Y-87058058D01*
X126672575Y-87260823D01*
X126625000Y-87500000D01*
X126625000Y-95250000D01*
X126672575Y-95489177D01*
X126808058Y-95691942D01*
X127010823Y-95827425D01*
X127250000Y-95875000D01*
X133292551Y-95875000D01*
X133349380Y-95886304D01*
X135650620Y-95886304D01*
X135707449Y-95875000D01*
X136750000Y-95875000D01*
X136989177Y-95827425D01*
X137191942Y-95691942D01*
X137327425Y-95489177D01*
X137375000Y-95250000D01*
X137375000Y-86866704D01*
X145412786Y-82375000D01*
X159750000Y-82375000D01*
X159989177Y-82327425D01*
X160191942Y-82191942D01*
X160327425Y-81989177D01*
X160375000Y-81750000D01*
X160375000Y-76500000D01*
X160327425Y-76260823D01*
X160320193Y-76250000D01*
X160327425Y-76239177D01*
X160375000Y-76000000D01*
X160375000Y-69775001D01*
X161266723Y-69775001D01*
X161796725Y-70305004D01*
X161796727Y-70305005D01*
X162285001Y-70793280D01*
X162285000Y-75603372D01*
X162273736Y-75660000D01*
X162273736Y-76860000D01*
X162285000Y-76916628D01*
X162285001Y-82594720D01*
X153914728Y-90964994D01*
X153824969Y-91024969D01*
X153744859Y-91144862D01*
X153034728Y-91854994D01*
X152944969Y-91914969D01*
X152707373Y-92270557D01*
X152645000Y-92584126D01*
X152645000Y-92584129D01*
X152623941Y-92690000D01*
X152645000Y-92795871D01*
X152645000Y-93093372D01*
X152633736Y-93150000D01*
X152633736Y-94350000D01*
X152645001Y-94406631D01*
X152645000Y-95824721D01*
X149454722Y-99015000D01*
X149239360Y-99015000D01*
X148985271Y-98634728D01*
X148546988Y-98341878D01*
X148030000Y-98239042D01*
X147513011Y-98341878D01*
X147074728Y-98634729D01*
X146781878Y-99073012D01*
X146780000Y-99082453D01*
X146778122Y-99073011D01*
X146485271Y-98634728D01*
X146046988Y-98341878D01*
X145530000Y-98239042D01*
X145013011Y-98341878D01*
X144574728Y-98634729D01*
X144320640Y-99015000D01*
X141739360Y-99015000D01*
X141485271Y-98634728D01*
X141046988Y-98341878D01*
X140756235Y-98284043D01*
X144104015Y-94936264D01*
X144270000Y-94936264D01*
X144494354Y-94891637D01*
X144550000Y-94854455D01*
X144605646Y-94891637D01*
X144830000Y-94936264D01*
X145460786Y-94936264D01*
X145468363Y-94974354D01*
X145595449Y-95164551D01*
X145785646Y-95291637D01*
X146010000Y-95336264D01*
X148010000Y-95336264D01*
X148234354Y-95291637D01*
X148424551Y-95164551D01*
X148551637Y-94974354D01*
X148596264Y-94750000D01*
X148596264Y-92750000D01*
X148551637Y-92525646D01*
X148424551Y-92335449D01*
X148234354Y-92208363D01*
X148010000Y-92163736D01*
X146010000Y-92163736D01*
X145785646Y-92208363D01*
X145595449Y-92335449D01*
X145468363Y-92525646D01*
X145460786Y-92563736D01*
X144830000Y-92563736D01*
X144605646Y-92608363D01*
X144550000Y-92645545D01*
X144494354Y-92608363D01*
X144270000Y-92563736D01*
X143270000Y-92563736D01*
X143045646Y-92608363D01*
X142855449Y-92735449D01*
X142728363Y-92925646D01*
X142683736Y-93150000D01*
X142683736Y-93315985D01*
X137693807Y-98305915D01*
X137513011Y-98341878D01*
X137074728Y-98634729D01*
X136781878Y-99073012D01*
X136705000Y-99459502D01*
X136705000Y-100394721D01*
X136196471Y-100903251D01*
X136236884Y-100700080D01*
X136236884Y-97199960D01*
X136192257Y-96975606D01*
X136065171Y-96785409D01*
X135874974Y-96658323D01*
X135650620Y-96613696D01*
X133349380Y-96613696D01*
X133125026Y-96658323D01*
X132934829Y-96785409D01*
X132807743Y-96975606D01*
X132763116Y-97199960D01*
X132763116Y-99166626D01*
X132254742Y-99675000D01*
X132026086Y-99675000D01*
X131766989Y-99501878D01*
X131380499Y-99425000D01*
X130119501Y-99425000D01*
X129733011Y-99501878D01*
X129294728Y-99794728D01*
X129001878Y-100233011D01*
X128899042Y-100750000D01*
X129001878Y-101266989D01*
X129294728Y-101705272D01*
X129733011Y-101998122D01*
X129742452Y-102000000D01*
X129733011Y-102001878D01*
X129294728Y-102294728D01*
X129001878Y-102733011D01*
X128899042Y-103250000D01*
X129001878Y-103766989D01*
X129294728Y-104205272D01*
X129733011Y-104498122D01*
X130119501Y-104575000D01*
X131380499Y-104575000D01*
X131766989Y-104498122D01*
X132026086Y-104325000D01*
X135264129Y-104325000D01*
X135370000Y-104346059D01*
X135475871Y-104325000D01*
X152144129Y-104325000D01*
X152250000Y-104346059D01*
X152355871Y-104325000D01*
X152355875Y-104325000D01*
X152669444Y-104262627D01*
X153025031Y-104025031D01*
X153085006Y-103935272D01*
X156581775Y-100438505D01*
X156855800Y-100325000D01*
X161774129Y-100325000D01*
X161880000Y-100346059D01*
X161985871Y-100325000D01*
X161985875Y-100325000D01*
X162299444Y-100262627D01*
X162655031Y-100025031D01*
X162715006Y-99935272D01*
X163591348Y-99058930D01*
X163726713Y-99115000D01*
X164353287Y-99115000D01*
X164932166Y-98875220D01*
X165375220Y-98432166D01*
X165615000Y-97853287D01*
X165615000Y-97226713D01*
X165558930Y-97091348D01*
X168125278Y-94525002D01*
X168215031Y-94465031D01*
X168275002Y-94375278D01*
X168275004Y-94375276D01*
X168452626Y-94109445D01*
X168452627Y-94109444D01*
X168515000Y-93795875D01*
X168515000Y-93795871D01*
X168536059Y-93690001D01*
X168515000Y-93584131D01*
X168515000Y-84205278D01*
X170275275Y-82445004D01*
X170365031Y-82385031D01*
X170375000Y-82370111D01*
X170375000Y-106350000D01*
X125705813Y-106350000D01*
X126030738Y-106025075D01*
X126575000Y-104711112D01*
X126575000Y-103288888D01*
X126030738Y-101974925D01*
X125025075Y-100969262D01*
X123711112Y-100425000D01*
X122288888Y-100425000D01*
X120974925Y-100969262D01*
X120650000Y-101294187D01*
X120650000Y-57705813D01*
X120974925Y-58030738D01*
X122288888Y-58575000D01*
X123711112Y-58575000D01*
X125025075Y-58030738D01*
X126030738Y-57025075D01*
X126575000Y-55711112D01*
X126575000Y-54288888D01*
X126030738Y-52974925D01*
X125705813Y-52650000D01*
X170375000Y-52650000D01*
X170375000Y-72969889D01*
G04 #@! TO.N,GND*
G36*
X194096425Y-53059893D02*
X193575000Y-54318725D01*
X193575000Y-55681275D01*
X194096425Y-56940107D01*
X195059893Y-57903575D01*
X196318725Y-58425000D01*
X197681275Y-58425000D01*
X198940107Y-57903575D01*
X199500000Y-57343682D01*
X199500001Y-101656319D01*
X198940107Y-101096425D01*
X197681275Y-100575000D01*
X196318725Y-100575000D01*
X195059893Y-101096425D01*
X194096425Y-102059893D01*
X193575000Y-103318725D01*
X193575000Y-104681275D01*
X194096425Y-105940107D01*
X194656318Y-106500000D01*
X184848657Y-106500000D01*
X185167197Y-106368056D01*
X185568056Y-105967197D01*
X185785000Y-105443450D01*
X185785000Y-104876550D01*
X185701993Y-104676154D01*
X185793147Y-104585001D01*
X186238903Y-104585001D01*
X186329999Y-104603121D01*
X186421095Y-104585001D01*
X186421099Y-104585001D01*
X186690916Y-104531331D01*
X186996886Y-104326888D01*
X187048491Y-104249656D01*
X190589659Y-100708489D01*
X190666887Y-100656887D01*
X190721603Y-100575000D01*
X190871330Y-100350917D01*
X190871330Y-100350916D01*
X190925000Y-100081100D01*
X190925000Y-100081097D01*
X190943120Y-99990001D01*
X190925000Y-99898905D01*
X190925000Y-97727394D01*
X190956408Y-97706408D01*
X191050341Y-97565827D01*
X191083326Y-97400000D01*
X191083326Y-96100000D01*
X191050341Y-95934173D01*
X190956408Y-95793592D01*
X190925000Y-95772606D01*
X190925000Y-88083147D01*
X192104011Y-86904136D01*
X192208900Y-86925000D01*
X192208904Y-86925000D01*
X192299999Y-86943120D01*
X192391094Y-86925000D01*
X192969418Y-86925000D01*
X193241538Y-87106825D01*
X193584276Y-87175000D01*
X194815724Y-87175000D01*
X195158462Y-87106825D01*
X195547127Y-86847127D01*
X195806825Y-86458462D01*
X195870674Y-86137473D01*
X197089655Y-84918492D01*
X197166887Y-84866887D01*
X197371330Y-84560917D01*
X197425000Y-84291100D01*
X197425000Y-84291096D01*
X197443120Y-84200001D01*
X197425000Y-84108906D01*
X197425000Y-78928583D01*
X197500341Y-78815827D01*
X197533326Y-78650000D01*
X197533326Y-77650000D01*
X197500341Y-77484173D01*
X197406408Y-77343592D01*
X197265827Y-77249659D01*
X197100000Y-77216674D01*
X196549243Y-77216674D01*
X196500000Y-77206879D01*
X196450757Y-77216674D01*
X195900000Y-77216674D01*
X195858142Y-77225000D01*
X194641096Y-77225000D01*
X194550000Y-77206880D01*
X194458904Y-77225000D01*
X194458900Y-77225000D01*
X194189083Y-77278670D01*
X194119745Y-77325000D01*
X193833148Y-77325000D01*
X193035000Y-76526853D01*
X193035000Y-74613147D01*
X196209658Y-71438490D01*
X196286887Y-71386887D01*
X196341663Y-71304910D01*
X196491330Y-71080917D01*
X196513196Y-70970989D01*
X196545000Y-70811100D01*
X196545000Y-70811096D01*
X196563120Y-70720000D01*
X196545000Y-70628904D01*
X196545000Y-68611094D01*
X196563120Y-68519999D01*
X196545000Y-68428904D01*
X196545000Y-68428900D01*
X196491330Y-68159083D01*
X196286887Y-67853113D01*
X196209656Y-67801509D01*
X194388491Y-65980344D01*
X194336887Y-65903113D01*
X194030917Y-65698670D01*
X193761100Y-65645000D01*
X193761096Y-65645000D01*
X193670000Y-65626880D01*
X193610381Y-65638739D01*
X193600000Y-65636674D01*
X193382675Y-65636674D01*
X193346887Y-65583113D01*
X193040917Y-65378670D01*
X192771100Y-65325000D01*
X192771096Y-65325000D01*
X192680000Y-65306880D01*
X192588904Y-65325000D01*
X191980582Y-65325000D01*
X191708462Y-65143175D01*
X191365724Y-65075000D01*
X190134276Y-65075000D01*
X189791538Y-65143175D01*
X189519418Y-65325000D01*
X186411094Y-65325000D01*
X186319999Y-65306880D01*
X186228904Y-65325000D01*
X186228900Y-65325000D01*
X185959083Y-65378670D01*
X185653113Y-65583113D01*
X185617325Y-65636674D01*
X185400000Y-65636674D01*
X185358142Y-65645000D01*
X185008911Y-65645000D01*
X184847127Y-65402873D01*
X184458462Y-65143175D01*
X184115724Y-65075000D01*
X182884276Y-65075000D01*
X182541538Y-65143175D01*
X182152873Y-65402873D01*
X181893175Y-65791538D01*
X181801981Y-66250000D01*
X181893175Y-66708462D01*
X182152873Y-67097127D01*
X182541538Y-67356825D01*
X182884276Y-67425000D01*
X183434643Y-67425000D01*
X183459083Y-67441330D01*
X183728900Y-67495000D01*
X183728904Y-67495000D01*
X183819999Y-67513120D01*
X183911094Y-67495000D01*
X185358142Y-67495000D01*
X185400000Y-67503326D01*
X185950762Y-67503326D01*
X186000000Y-67513120D01*
X186049238Y-67503326D01*
X186600000Y-67503326D01*
X186765827Y-67470341D01*
X186906408Y-67376408D01*
X187000341Y-67235827D01*
X187012440Y-67175000D01*
X189519418Y-67175000D01*
X189791538Y-67356825D01*
X190134276Y-67425000D01*
X191365724Y-67425000D01*
X191708462Y-67356825D01*
X191980582Y-67175000D01*
X191987560Y-67175000D01*
X191999659Y-67235827D01*
X192093592Y-67376408D01*
X192234173Y-67470341D01*
X192400000Y-67503326D01*
X192950762Y-67503326D01*
X192999999Y-67513120D01*
X193049237Y-67503326D01*
X193295179Y-67503326D01*
X194695000Y-68903147D01*
X194695001Y-70336851D01*
X191520344Y-73511508D01*
X191443113Y-73563113D01*
X191238670Y-73869084D01*
X191185000Y-74138901D01*
X191185000Y-74138904D01*
X191166880Y-74230000D01*
X191185000Y-74321097D01*
X191185000Y-74716853D01*
X189348492Y-72880344D01*
X189296887Y-72803113D01*
X188990917Y-72598670D01*
X188721100Y-72545000D01*
X188721096Y-72545000D01*
X188630000Y-72526880D01*
X188538904Y-72545000D01*
X185141858Y-72545000D01*
X185100000Y-72536674D01*
X183900000Y-72536674D01*
X183858142Y-72545000D01*
X182181096Y-72545000D01*
X182090000Y-72526880D01*
X181998904Y-72545000D01*
X181998900Y-72545000D01*
X181729083Y-72598670D01*
X181500343Y-72751509D01*
X181500342Y-72751510D01*
X181423113Y-72803113D01*
X181371510Y-72880342D01*
X179035179Y-75216674D01*
X178810000Y-75216674D01*
X178644173Y-75249659D01*
X178530000Y-75325947D01*
X178415827Y-75249659D01*
X178250000Y-75216674D01*
X177250000Y-75216674D01*
X177084173Y-75249659D01*
X176956451Y-75335000D01*
X175330582Y-75335000D01*
X174987971Y-75106075D01*
X174630652Y-75035000D01*
X174389348Y-75035000D01*
X174032029Y-75106075D01*
X173689418Y-75335000D01*
X173675000Y-75335000D01*
X173675000Y-69870582D01*
X173716824Y-69933176D01*
X174122029Y-70203925D01*
X174479348Y-70275000D01*
X174720652Y-70275000D01*
X175077971Y-70203925D01*
X175462750Y-69946824D01*
X175590917Y-69921330D01*
X175896887Y-69716887D01*
X175948491Y-69639656D01*
X177374822Y-68213326D01*
X177600000Y-68213326D01*
X177765827Y-68180341D01*
X177906408Y-68086408D01*
X178000341Y-67945827D01*
X178033326Y-67780000D01*
X178033326Y-66780000D01*
X178000341Y-66614173D01*
X177924053Y-66500000D01*
X178000341Y-66385827D01*
X178033326Y-66220000D01*
X178033326Y-65774821D01*
X179133148Y-64675000D01*
X182269418Y-64675000D01*
X182541538Y-64856825D01*
X182884276Y-64925000D01*
X184115724Y-64925000D01*
X184458462Y-64856825D01*
X184730582Y-64675000D01*
X189519418Y-64675000D01*
X189791538Y-64856825D01*
X190134276Y-64925000D01*
X191365724Y-64925000D01*
X191708462Y-64856825D01*
X191992821Y-64666822D01*
X195575000Y-64666822D01*
X195575000Y-65333178D01*
X195830004Y-65948811D01*
X196301189Y-66419996D01*
X196916822Y-66675000D01*
X197583178Y-66675000D01*
X198198811Y-66419996D01*
X198669996Y-65948811D01*
X198925000Y-65333178D01*
X198925000Y-64666822D01*
X198669996Y-64051189D01*
X198198811Y-63580004D01*
X197583178Y-63325000D01*
X196916822Y-63325000D01*
X196301189Y-63580004D01*
X195830004Y-64051189D01*
X195575000Y-64666822D01*
X191992821Y-64666822D01*
X192097127Y-64597127D01*
X192356825Y-64208462D01*
X192448019Y-63750000D01*
X192356825Y-63291538D01*
X192097127Y-62902873D01*
X191708462Y-62643175D01*
X191365724Y-62575000D01*
X190134276Y-62575000D01*
X189791538Y-62643175D01*
X189519418Y-62825000D01*
X184730582Y-62825000D01*
X184458462Y-62643175D01*
X184115724Y-62575000D01*
X182884276Y-62575000D01*
X182541538Y-62643175D01*
X182269418Y-62825000D01*
X178841096Y-62825000D01*
X178750000Y-62806880D01*
X178658904Y-62825000D01*
X178658900Y-62825000D01*
X178389083Y-62878670D01*
X178160343Y-63031509D01*
X178160342Y-63031510D01*
X178083113Y-63083113D01*
X178031510Y-63160342D01*
X176410344Y-64781509D01*
X176402614Y-64786674D01*
X176400000Y-64786674D01*
X176234173Y-64819659D01*
X176093592Y-64913592D01*
X175999659Y-65054173D01*
X175966674Y-65220000D01*
X175966674Y-66220000D01*
X175999659Y-66385827D01*
X176075947Y-66500000D01*
X175999659Y-66614173D01*
X175966674Y-66780000D01*
X175966674Y-67005178D01*
X175076142Y-67895711D01*
X174720652Y-67825000D01*
X174479348Y-67825000D01*
X174122029Y-67896075D01*
X173716824Y-68166824D01*
X173675000Y-68229418D01*
X173675000Y-64153147D01*
X175653148Y-62175000D01*
X182269418Y-62175000D01*
X182541538Y-62356825D01*
X182884276Y-62425000D01*
X184115724Y-62425000D01*
X184458462Y-62356825D01*
X184730582Y-62175000D01*
X189519418Y-62175000D01*
X189791538Y-62356825D01*
X190134276Y-62425000D01*
X191365724Y-62425000D01*
X191708462Y-62356825D01*
X192097127Y-62097127D01*
X192356825Y-61708462D01*
X192448019Y-61250000D01*
X192356825Y-60791538D01*
X192097127Y-60402873D01*
X191708462Y-60143175D01*
X191365724Y-60075000D01*
X190134276Y-60075000D01*
X189791538Y-60143175D01*
X189519418Y-60325000D01*
X184730582Y-60325000D01*
X184458462Y-60143175D01*
X184115724Y-60075000D01*
X182884276Y-60075000D01*
X182541538Y-60143175D01*
X182269418Y-60325000D01*
X175361095Y-60325000D01*
X175269999Y-60306880D01*
X175178903Y-60325000D01*
X175178900Y-60325000D01*
X174909083Y-60378670D01*
X174680343Y-60531509D01*
X174680342Y-60531510D01*
X174603113Y-60583113D01*
X174551510Y-60660342D01*
X172160342Y-63051511D01*
X172083114Y-63103113D01*
X172031511Y-63180342D01*
X172031509Y-63180344D01*
X171878670Y-63409084D01*
X171806880Y-63770000D01*
X171825001Y-63861101D01*
X171825000Y-75971417D01*
X171749659Y-76084173D01*
X171716674Y-76250000D01*
X171716674Y-77250000D01*
X171749659Y-77415827D01*
X171843592Y-77556408D01*
X171984173Y-77650341D01*
X172150000Y-77683326D01*
X172700757Y-77683326D01*
X172750000Y-77693121D01*
X172799243Y-77683326D01*
X173350000Y-77683326D01*
X173515827Y-77650341D01*
X173656408Y-77556408D01*
X173750341Y-77415827D01*
X173783326Y-77250000D01*
X173783326Y-77247747D01*
X174032029Y-77413925D01*
X174389348Y-77485000D01*
X174630652Y-77485000D01*
X174987971Y-77413925D01*
X175330582Y-77185000D01*
X176986383Y-77185000D01*
X177084173Y-77250341D01*
X177250000Y-77283326D01*
X178250000Y-77283326D01*
X178415827Y-77250341D01*
X178530000Y-77174053D01*
X178644173Y-77250341D01*
X178810000Y-77283326D01*
X179810000Y-77283326D01*
X179975827Y-77250341D01*
X180116408Y-77156408D01*
X180210341Y-77015827D01*
X180243326Y-76850000D01*
X180243326Y-76624821D01*
X182473148Y-74395000D01*
X183493527Y-74395000D01*
X183466674Y-74530000D01*
X183466674Y-74823303D01*
X183334173Y-74849659D01*
X183193592Y-74943592D01*
X183099659Y-75084173D01*
X183066674Y-75250000D01*
X183066674Y-77250000D01*
X183099659Y-77415827D01*
X183193592Y-77556408D01*
X183334173Y-77650341D01*
X183500000Y-77683326D01*
X185500000Y-77683326D01*
X185665827Y-77650341D01*
X185806408Y-77556408D01*
X185900341Y-77415827D01*
X185933326Y-77250000D01*
X185933326Y-75250000D01*
X185900341Y-75084173D01*
X185806408Y-74943592D01*
X185665827Y-74849659D01*
X185533326Y-74823303D01*
X185533326Y-74530000D01*
X185506473Y-74395000D01*
X188246853Y-74395000D01*
X191351510Y-77499658D01*
X191403113Y-77576887D01*
X191480342Y-77628490D01*
X191480343Y-77628491D01*
X191577069Y-77693121D01*
X191600891Y-77709039D01*
X192529326Y-78637474D01*
X192593175Y-78958462D01*
X192852873Y-79347127D01*
X193241538Y-79606825D01*
X193584276Y-79675000D01*
X194815724Y-79675000D01*
X195158462Y-79606825D01*
X195547127Y-79347127D01*
X195575000Y-79305412D01*
X195575001Y-83816852D01*
X194566853Y-84825000D01*
X193584276Y-84825000D01*
X193241538Y-84893175D01*
X193021126Y-85040450D01*
X192956408Y-84943592D01*
X192815827Y-84849659D01*
X192650000Y-84816674D01*
X192099238Y-84816674D01*
X192050000Y-84806880D01*
X192000762Y-84816674D01*
X191999237Y-84816674D01*
X191949999Y-84806880D01*
X191900761Y-84816674D01*
X191450000Y-84816674D01*
X191284173Y-84849659D01*
X191143592Y-84943592D01*
X191049659Y-85084173D01*
X191016674Y-85250000D01*
X191016674Y-85375179D01*
X189410343Y-86981510D01*
X189333114Y-87033113D01*
X189281511Y-87110342D01*
X189281509Y-87110344D01*
X189128670Y-87339084D01*
X189056880Y-87700000D01*
X189075001Y-87791101D01*
X189075000Y-95772606D01*
X189043592Y-95793592D01*
X188949659Y-95934173D01*
X188916674Y-96100000D01*
X188916674Y-97400000D01*
X188949659Y-97565827D01*
X189043592Y-97706408D01*
X189075001Y-97727395D01*
X189075000Y-99606852D01*
X185946852Y-102735001D01*
X185501094Y-102735001D01*
X185409998Y-102716881D01*
X185318902Y-102735001D01*
X185318899Y-102735001D01*
X185049082Y-102788671D01*
X184820342Y-102941510D01*
X184820341Y-102941511D01*
X184743112Y-102993114D01*
X184691509Y-103070343D01*
X183991711Y-103770142D01*
X183552803Y-103951944D01*
X183151944Y-104352803D01*
X182935000Y-104876550D01*
X182935000Y-105443450D01*
X183151944Y-105967197D01*
X183552803Y-106368056D01*
X183871343Y-106500000D01*
X171125000Y-106500000D01*
X171125000Y-94716550D01*
X182935000Y-94716550D01*
X182935000Y-95283450D01*
X183151944Y-95807197D01*
X183552803Y-96208056D01*
X184076550Y-96425000D01*
X184643450Y-96425000D01*
X185167197Y-96208056D01*
X185568056Y-95807197D01*
X185785000Y-95283450D01*
X185785000Y-94716550D01*
X185568056Y-94192803D01*
X185167197Y-93791944D01*
X184643450Y-93575000D01*
X184076550Y-93575000D01*
X183552803Y-93791944D01*
X183151944Y-94192803D01*
X182935000Y-94716550D01*
X171125000Y-94716550D01*
X171125000Y-52500000D01*
X194656318Y-52500000D01*
X194096425Y-53059893D01*
X194096425Y-53059893D01*
G37*
X194096425Y-53059893D02*
X193575000Y-54318725D01*
X193575000Y-55681275D01*
X194096425Y-56940107D01*
X195059893Y-57903575D01*
X196318725Y-58425000D01*
X197681275Y-58425000D01*
X198940107Y-57903575D01*
X199500000Y-57343682D01*
X199500001Y-101656319D01*
X198940107Y-101096425D01*
X197681275Y-100575000D01*
X196318725Y-100575000D01*
X195059893Y-101096425D01*
X194096425Y-102059893D01*
X193575000Y-103318725D01*
X193575000Y-104681275D01*
X194096425Y-105940107D01*
X194656318Y-106500000D01*
X184848657Y-106500000D01*
X185167197Y-106368056D01*
X185568056Y-105967197D01*
X185785000Y-105443450D01*
X185785000Y-104876550D01*
X185701993Y-104676154D01*
X185793147Y-104585001D01*
X186238903Y-104585001D01*
X186329999Y-104603121D01*
X186421095Y-104585001D01*
X186421099Y-104585001D01*
X186690916Y-104531331D01*
X186996886Y-104326888D01*
X187048491Y-104249656D01*
X190589659Y-100708489D01*
X190666887Y-100656887D01*
X190721603Y-100575000D01*
X190871330Y-100350917D01*
X190871330Y-100350916D01*
X190925000Y-100081100D01*
X190925000Y-100081097D01*
X190943120Y-99990001D01*
X190925000Y-99898905D01*
X190925000Y-97727394D01*
X190956408Y-97706408D01*
X191050341Y-97565827D01*
X191083326Y-97400000D01*
X191083326Y-96100000D01*
X191050341Y-95934173D01*
X190956408Y-95793592D01*
X190925000Y-95772606D01*
X190925000Y-88083147D01*
X192104011Y-86904136D01*
X192208900Y-86925000D01*
X192208904Y-86925000D01*
X192299999Y-86943120D01*
X192391094Y-86925000D01*
X192969418Y-86925000D01*
X193241538Y-87106825D01*
X193584276Y-87175000D01*
X194815724Y-87175000D01*
X195158462Y-87106825D01*
X195547127Y-86847127D01*
X195806825Y-86458462D01*
X195870674Y-86137473D01*
X197089655Y-84918492D01*
X197166887Y-84866887D01*
X197371330Y-84560917D01*
X197425000Y-84291100D01*
X197425000Y-84291096D01*
X197443120Y-84200001D01*
X197425000Y-84108906D01*
X197425000Y-78928583D01*
X197500341Y-78815827D01*
X197533326Y-78650000D01*
X197533326Y-77650000D01*
X197500341Y-77484173D01*
X197406408Y-77343592D01*
X197265827Y-77249659D01*
X197100000Y-77216674D01*
X196549243Y-77216674D01*
X196500000Y-77206879D01*
X196450757Y-77216674D01*
X195900000Y-77216674D01*
X195858142Y-77225000D01*
X194641096Y-77225000D01*
X194550000Y-77206880D01*
X194458904Y-77225000D01*
X194458900Y-77225000D01*
X194189083Y-77278670D01*
X194119745Y-77325000D01*
X193833148Y-77325000D01*
X193035000Y-76526853D01*
X193035000Y-74613147D01*
X196209658Y-71438490D01*
X196286887Y-71386887D01*
X196341663Y-71304910D01*
X196491330Y-71080917D01*
X196513196Y-70970989D01*
X196545000Y-70811100D01*
X196545000Y-70811096D01*
X196563120Y-70720000D01*
X196545000Y-70628904D01*
X196545000Y-68611094D01*
X196563120Y-68519999D01*
X196545000Y-68428904D01*
X196545000Y-68428900D01*
X196491330Y-68159083D01*
X196286887Y-67853113D01*
X196209656Y-67801509D01*
X194388491Y-65980344D01*
X194336887Y-65903113D01*
X194030917Y-65698670D01*
X193761100Y-65645000D01*
X193761096Y-65645000D01*
X193670000Y-65626880D01*
X193610381Y-65638739D01*
X193600000Y-65636674D01*
X193382675Y-65636674D01*
X193346887Y-65583113D01*
X193040917Y-65378670D01*
X192771100Y-65325000D01*
X192771096Y-65325000D01*
X192680000Y-65306880D01*
X192588904Y-65325000D01*
X191980582Y-65325000D01*
X191708462Y-65143175D01*
X191365724Y-65075000D01*
X190134276Y-65075000D01*
X189791538Y-65143175D01*
X189519418Y-65325000D01*
X186411094Y-65325000D01*
X186319999Y-65306880D01*
X186228904Y-65325000D01*
X186228900Y-65325000D01*
X185959083Y-65378670D01*
X185653113Y-65583113D01*
X185617325Y-65636674D01*
X185400000Y-65636674D01*
X185358142Y-65645000D01*
X185008911Y-65645000D01*
X184847127Y-65402873D01*
X184458462Y-65143175D01*
X184115724Y-65075000D01*
X182884276Y-65075000D01*
X182541538Y-65143175D01*
X182152873Y-65402873D01*
X181893175Y-65791538D01*
X181801981Y-66250000D01*
X181893175Y-66708462D01*
X182152873Y-67097127D01*
X182541538Y-67356825D01*
X182884276Y-67425000D01*
X183434643Y-67425000D01*
X183459083Y-67441330D01*
X183728900Y-67495000D01*
X183728904Y-67495000D01*
X183819999Y-67513120D01*
X183911094Y-67495000D01*
X185358142Y-67495000D01*
X185400000Y-67503326D01*
X185950762Y-67503326D01*
X186000000Y-67513120D01*
X186049238Y-67503326D01*
X186600000Y-67503326D01*
X186765827Y-67470341D01*
X186906408Y-67376408D01*
X187000341Y-67235827D01*
X187012440Y-67175000D01*
X189519418Y-67175000D01*
X189791538Y-67356825D01*
X190134276Y-67425000D01*
X191365724Y-67425000D01*
X191708462Y-67356825D01*
X191980582Y-67175000D01*
X191987560Y-67175000D01*
X191999659Y-67235827D01*
X192093592Y-67376408D01*
X192234173Y-67470341D01*
X192400000Y-67503326D01*
X192950762Y-67503326D01*
X192999999Y-67513120D01*
X193049237Y-67503326D01*
X193295179Y-67503326D01*
X194695000Y-68903147D01*
X194695001Y-70336851D01*
X191520344Y-73511508D01*
X191443113Y-73563113D01*
X191238670Y-73869084D01*
X191185000Y-74138901D01*
X191185000Y-74138904D01*
X191166880Y-74230000D01*
X191185000Y-74321097D01*
X191185000Y-74716853D01*
X189348492Y-72880344D01*
X189296887Y-72803113D01*
X188990917Y-72598670D01*
X188721100Y-72545000D01*
X188721096Y-72545000D01*
X188630000Y-72526880D01*
X188538904Y-72545000D01*
X185141858Y-72545000D01*
X185100000Y-72536674D01*
X183900000Y-72536674D01*
X183858142Y-72545000D01*
X182181096Y-72545000D01*
X182090000Y-72526880D01*
X181998904Y-72545000D01*
X181998900Y-72545000D01*
X181729083Y-72598670D01*
X181500343Y-72751509D01*
X181500342Y-72751510D01*
X181423113Y-72803113D01*
X181371510Y-72880342D01*
X179035179Y-75216674D01*
X178810000Y-75216674D01*
X178644173Y-75249659D01*
X178530000Y-75325947D01*
X178415827Y-75249659D01*
X178250000Y-75216674D01*
X177250000Y-75216674D01*
X177084173Y-75249659D01*
X176956451Y-75335000D01*
X175330582Y-75335000D01*
X174987971Y-75106075D01*
X174630652Y-75035000D01*
X174389348Y-75035000D01*
X174032029Y-75106075D01*
X173689418Y-75335000D01*
X173675000Y-75335000D01*
X173675000Y-69870582D01*
X173716824Y-69933176D01*
X174122029Y-70203925D01*
X174479348Y-70275000D01*
X174720652Y-70275000D01*
X175077971Y-70203925D01*
X175462750Y-69946824D01*
X175590917Y-69921330D01*
X175896887Y-69716887D01*
X175948491Y-69639656D01*
X177374822Y-68213326D01*
X177600000Y-68213326D01*
X177765827Y-68180341D01*
X177906408Y-68086408D01*
X178000341Y-67945827D01*
X178033326Y-67780000D01*
X178033326Y-66780000D01*
X178000341Y-66614173D01*
X177924053Y-66500000D01*
X178000341Y-66385827D01*
X178033326Y-66220000D01*
X178033326Y-65774821D01*
X179133148Y-64675000D01*
X182269418Y-64675000D01*
X182541538Y-64856825D01*
X182884276Y-64925000D01*
X184115724Y-64925000D01*
X184458462Y-64856825D01*
X184730582Y-64675000D01*
X189519418Y-64675000D01*
X189791538Y-64856825D01*
X190134276Y-64925000D01*
X191365724Y-64925000D01*
X191708462Y-64856825D01*
X191992821Y-64666822D01*
X195575000Y-64666822D01*
X195575000Y-65333178D01*
X195830004Y-65948811D01*
X196301189Y-66419996D01*
X196916822Y-66675000D01*
X197583178Y-66675000D01*
X198198811Y-66419996D01*
X198669996Y-65948811D01*
X198925000Y-65333178D01*
X198925000Y-64666822D01*
X198669996Y-64051189D01*
X198198811Y-63580004D01*
X197583178Y-63325000D01*
X196916822Y-63325000D01*
X196301189Y-63580004D01*
X195830004Y-64051189D01*
X195575000Y-64666822D01*
X191992821Y-64666822D01*
X192097127Y-64597127D01*
X192356825Y-64208462D01*
X192448019Y-63750000D01*
X192356825Y-63291538D01*
X192097127Y-62902873D01*
X191708462Y-62643175D01*
X191365724Y-62575000D01*
X190134276Y-62575000D01*
X189791538Y-62643175D01*
X189519418Y-62825000D01*
X184730582Y-62825000D01*
X184458462Y-62643175D01*
X184115724Y-62575000D01*
X182884276Y-62575000D01*
X182541538Y-62643175D01*
X182269418Y-62825000D01*
X178841096Y-62825000D01*
X178750000Y-62806880D01*
X178658904Y-62825000D01*
X178658900Y-62825000D01*
X178389083Y-62878670D01*
X178160343Y-63031509D01*
X178160342Y-63031510D01*
X178083113Y-63083113D01*
X178031510Y-63160342D01*
X176410344Y-64781509D01*
X176402614Y-64786674D01*
X176400000Y-64786674D01*
X176234173Y-64819659D01*
X176093592Y-64913592D01*
X175999659Y-65054173D01*
X175966674Y-65220000D01*
X175966674Y-66220000D01*
X175999659Y-66385827D01*
X176075947Y-66500000D01*
X175999659Y-66614173D01*
X175966674Y-66780000D01*
X175966674Y-67005178D01*
X175076142Y-67895711D01*
X174720652Y-67825000D01*
X174479348Y-67825000D01*
X174122029Y-67896075D01*
X173716824Y-68166824D01*
X173675000Y-68229418D01*
X173675000Y-64153147D01*
X175653148Y-62175000D01*
X182269418Y-62175000D01*
X182541538Y-62356825D01*
X182884276Y-62425000D01*
X184115724Y-62425000D01*
X184458462Y-62356825D01*
X184730582Y-62175000D01*
X189519418Y-62175000D01*
X189791538Y-62356825D01*
X190134276Y-62425000D01*
X191365724Y-62425000D01*
X191708462Y-62356825D01*
X192097127Y-62097127D01*
X192356825Y-61708462D01*
X192448019Y-61250000D01*
X192356825Y-60791538D01*
X192097127Y-60402873D01*
X191708462Y-60143175D01*
X191365724Y-60075000D01*
X190134276Y-60075000D01*
X189791538Y-60143175D01*
X189519418Y-60325000D01*
X184730582Y-60325000D01*
X184458462Y-60143175D01*
X184115724Y-60075000D01*
X182884276Y-60075000D01*
X182541538Y-60143175D01*
X182269418Y-60325000D01*
X175361095Y-60325000D01*
X175269999Y-60306880D01*
X175178903Y-60325000D01*
X175178900Y-60325000D01*
X174909083Y-60378670D01*
X174680343Y-60531509D01*
X174680342Y-60531510D01*
X174603113Y-60583113D01*
X174551510Y-60660342D01*
X172160342Y-63051511D01*
X172083114Y-63103113D01*
X172031511Y-63180342D01*
X172031509Y-63180344D01*
X171878670Y-63409084D01*
X171806880Y-63770000D01*
X171825001Y-63861101D01*
X171825000Y-75971417D01*
X171749659Y-76084173D01*
X171716674Y-76250000D01*
X171716674Y-77250000D01*
X171749659Y-77415827D01*
X171843592Y-77556408D01*
X171984173Y-77650341D01*
X172150000Y-77683326D01*
X172700757Y-77683326D01*
X172750000Y-77693121D01*
X172799243Y-77683326D01*
X173350000Y-77683326D01*
X173515827Y-77650341D01*
X173656408Y-77556408D01*
X173750341Y-77415827D01*
X173783326Y-77250000D01*
X173783326Y-77247747D01*
X174032029Y-77413925D01*
X174389348Y-77485000D01*
X174630652Y-77485000D01*
X174987971Y-77413925D01*
X175330582Y-77185000D01*
X176986383Y-77185000D01*
X177084173Y-77250341D01*
X177250000Y-77283326D01*
X178250000Y-77283326D01*
X178415827Y-77250341D01*
X178530000Y-77174053D01*
X178644173Y-77250341D01*
X178810000Y-77283326D01*
X179810000Y-77283326D01*
X179975827Y-77250341D01*
X180116408Y-77156408D01*
X180210341Y-77015827D01*
X180243326Y-76850000D01*
X180243326Y-76624821D01*
X182473148Y-74395000D01*
X183493527Y-74395000D01*
X183466674Y-74530000D01*
X183466674Y-74823303D01*
X183334173Y-74849659D01*
X183193592Y-74943592D01*
X183099659Y-75084173D01*
X183066674Y-75250000D01*
X183066674Y-77250000D01*
X183099659Y-77415827D01*
X183193592Y-77556408D01*
X183334173Y-77650341D01*
X183500000Y-77683326D01*
X185500000Y-77683326D01*
X185665827Y-77650341D01*
X185806408Y-77556408D01*
X185900341Y-77415827D01*
X185933326Y-77250000D01*
X185933326Y-75250000D01*
X185900341Y-75084173D01*
X185806408Y-74943592D01*
X185665827Y-74849659D01*
X185533326Y-74823303D01*
X185533326Y-74530000D01*
X185506473Y-74395000D01*
X188246853Y-74395000D01*
X191351510Y-77499658D01*
X191403113Y-77576887D01*
X191480342Y-77628490D01*
X191480343Y-77628491D01*
X191577069Y-77693121D01*
X191600891Y-77709039D01*
X192529326Y-78637474D01*
X192593175Y-78958462D01*
X192852873Y-79347127D01*
X193241538Y-79606825D01*
X193584276Y-79675000D01*
X194815724Y-79675000D01*
X195158462Y-79606825D01*
X195547127Y-79347127D01*
X195575000Y-79305412D01*
X195575001Y-83816852D01*
X194566853Y-84825000D01*
X193584276Y-84825000D01*
X193241538Y-84893175D01*
X193021126Y-85040450D01*
X192956408Y-84943592D01*
X192815827Y-84849659D01*
X192650000Y-84816674D01*
X192099238Y-84816674D01*
X192050000Y-84806880D01*
X192000762Y-84816674D01*
X191999237Y-84816674D01*
X191949999Y-84806880D01*
X191900761Y-84816674D01*
X191450000Y-84816674D01*
X191284173Y-84849659D01*
X191143592Y-84943592D01*
X191049659Y-85084173D01*
X191016674Y-85250000D01*
X191016674Y-85375179D01*
X189410343Y-86981510D01*
X189333114Y-87033113D01*
X189281511Y-87110342D01*
X189281509Y-87110344D01*
X189128670Y-87339084D01*
X189056880Y-87700000D01*
X189075001Y-87791101D01*
X189075000Y-95772606D01*
X189043592Y-95793592D01*
X188949659Y-95934173D01*
X188916674Y-96100000D01*
X188916674Y-97400000D01*
X188949659Y-97565827D01*
X189043592Y-97706408D01*
X189075001Y-97727395D01*
X189075000Y-99606852D01*
X185946852Y-102735001D01*
X185501094Y-102735001D01*
X185409998Y-102716881D01*
X185318902Y-102735001D01*
X185318899Y-102735001D01*
X185049082Y-102788671D01*
X184820342Y-102941510D01*
X184820341Y-102941511D01*
X184743112Y-102993114D01*
X184691509Y-103070343D01*
X183991711Y-103770142D01*
X183552803Y-103951944D01*
X183151944Y-104352803D01*
X182935000Y-104876550D01*
X182935000Y-105443450D01*
X183151944Y-105967197D01*
X183552803Y-106368056D01*
X183871343Y-106500000D01*
X171125000Y-106500000D01*
X171125000Y-94716550D01*
X182935000Y-94716550D01*
X182935000Y-95283450D01*
X183151944Y-95807197D01*
X183552803Y-96208056D01*
X184076550Y-96425000D01*
X184643450Y-96425000D01*
X185167197Y-96208056D01*
X185568056Y-95807197D01*
X185785000Y-95283450D01*
X185785000Y-94716550D01*
X185568056Y-94192803D01*
X185167197Y-93791944D01*
X184643450Y-93575000D01*
X184076550Y-93575000D01*
X183552803Y-93791944D01*
X183151944Y-94192803D01*
X182935000Y-94716550D01*
X171125000Y-94716550D01*
X171125000Y-52500000D01*
X194656318Y-52500000D01*
X194096425Y-53059893D01*
D32*
G04 #@! TO.N,+BATT*
G36*
X159623000Y-78571844D02*
X159507629Y-78293315D01*
X159156685Y-77942371D01*
X158698155Y-77752441D01*
X158201845Y-77752441D01*
X158091856Y-77798000D01*
X152930864Y-77798000D01*
X152913369Y-77801480D01*
X152761600Y-77801480D01*
X152321093Y-77983944D01*
X151983944Y-78321093D01*
X151801480Y-78761600D01*
X151801480Y-79238400D01*
X151983944Y-79678907D01*
X152321093Y-80016056D01*
X152761600Y-80198520D01*
X152913369Y-80198520D01*
X152930864Y-80202000D01*
X158091856Y-80202000D01*
X158201845Y-80247559D01*
X158698155Y-80247559D01*
X159156685Y-80057629D01*
X159507629Y-79706685D01*
X159623000Y-79428156D01*
X159623000Y-81623000D01*
X145250000Y-81623000D01*
X145188047Y-81639136D01*
X136688047Y-86389136D01*
X136650337Y-86421284D01*
X136627800Y-86465415D01*
X136623000Y-86500000D01*
X136623000Y-95123000D01*
X127377000Y-95123000D01*
X127377000Y-92654026D01*
X127577000Y-92171183D01*
X127577000Y-90628817D01*
X127377000Y-90145974D01*
X127377000Y-87627000D01*
X129183909Y-87627000D01*
X129377746Y-87665557D01*
X129571583Y-87627000D01*
X131500000Y-87627000D01*
X131548601Y-87617333D01*
X131589803Y-87589803D01*
X131617333Y-87548601D01*
X131627000Y-87500000D01*
X131627000Y-83578490D01*
X132553880Y-83115050D01*
X134188605Y-82399858D01*
X136232862Y-81582155D01*
X136443356Y-81443356D01*
X136471636Y-81401032D01*
X136550904Y-81366352D01*
X136591555Y-81338015D01*
X136618268Y-81296279D01*
X136627000Y-81250000D01*
X136627000Y-78756722D01*
X136776961Y-78756722D01*
X136776961Y-79243278D01*
X136963157Y-79692796D01*
X137307204Y-80036843D01*
X137756722Y-80223039D01*
X138243278Y-80223039D01*
X138294071Y-80202000D01*
X143205929Y-80202000D01*
X143256722Y-80223039D01*
X143743278Y-80223039D01*
X144192796Y-80036843D01*
X144536843Y-79692796D01*
X144723039Y-79243278D01*
X144723039Y-78756722D01*
X144536843Y-78307204D01*
X144192796Y-77963157D01*
X143743278Y-77776961D01*
X143256722Y-77776961D01*
X143205929Y-77798000D01*
X138294071Y-77798000D01*
X138243278Y-77776961D01*
X137756722Y-77776961D01*
X137307204Y-77963157D01*
X136963157Y-78307204D01*
X136776961Y-78756722D01*
X136627000Y-78756722D01*
X136627000Y-76627000D01*
X159623000Y-76627000D01*
X159623000Y-78571844D01*
X159623000Y-78571844D01*
G37*
X159623000Y-78571844D02*
X159507629Y-78293315D01*
X159156685Y-77942371D01*
X158698155Y-77752441D01*
X158201845Y-77752441D01*
X158091856Y-77798000D01*
X152930864Y-77798000D01*
X152913369Y-77801480D01*
X152761600Y-77801480D01*
X152321093Y-77983944D01*
X151983944Y-78321093D01*
X151801480Y-78761600D01*
X151801480Y-79238400D01*
X151983944Y-79678907D01*
X152321093Y-80016056D01*
X152761600Y-80198520D01*
X152913369Y-80198520D01*
X152930864Y-80202000D01*
X158091856Y-80202000D01*
X158201845Y-80247559D01*
X158698155Y-80247559D01*
X159156685Y-80057629D01*
X159507629Y-79706685D01*
X159623000Y-79428156D01*
X159623000Y-81623000D01*
X145250000Y-81623000D01*
X145188047Y-81639136D01*
X136688047Y-86389136D01*
X136650337Y-86421284D01*
X136627800Y-86465415D01*
X136623000Y-86500000D01*
X136623000Y-95123000D01*
X127377000Y-95123000D01*
X127377000Y-92654026D01*
X127577000Y-92171183D01*
X127577000Y-90628817D01*
X127377000Y-90145974D01*
X127377000Y-87627000D01*
X129183909Y-87627000D01*
X129377746Y-87665557D01*
X129571583Y-87627000D01*
X131500000Y-87627000D01*
X131548601Y-87617333D01*
X131589803Y-87589803D01*
X131617333Y-87548601D01*
X131627000Y-87500000D01*
X131627000Y-83578490D01*
X132553880Y-83115050D01*
X134188605Y-82399858D01*
X136232862Y-81582155D01*
X136443356Y-81443356D01*
X136471636Y-81401032D01*
X136550904Y-81366352D01*
X136591555Y-81338015D01*
X136618268Y-81296279D01*
X136627000Y-81250000D01*
X136627000Y-78756722D01*
X136776961Y-78756722D01*
X136776961Y-79243278D01*
X136963157Y-79692796D01*
X137307204Y-80036843D01*
X137756722Y-80223039D01*
X138243278Y-80223039D01*
X138294071Y-80202000D01*
X143205929Y-80202000D01*
X143256722Y-80223039D01*
X143743278Y-80223039D01*
X144192796Y-80036843D01*
X144536843Y-79692796D01*
X144723039Y-79243278D01*
X144723039Y-78756722D01*
X144536843Y-78307204D01*
X144192796Y-77963157D01*
X143743278Y-77776961D01*
X143256722Y-77776961D01*
X143205929Y-77798000D01*
X138294071Y-77798000D01*
X138243278Y-77776961D01*
X137756722Y-77776961D01*
X137307204Y-77963157D01*
X136963157Y-78307204D01*
X136776961Y-78756722D01*
X136627000Y-78756722D01*
X136627000Y-76627000D01*
X159623000Y-76627000D01*
X159623000Y-78571844D01*
G04 #@! TO.N,/Power_Out*
G36*
X152321093Y-69983944D02*
X151983944Y-70321093D01*
X151801480Y-70761600D01*
X151801480Y-71238400D01*
X151983944Y-71678907D01*
X152321093Y-72016056D01*
X152761600Y-72198520D01*
X152913369Y-72198520D01*
X152930864Y-72202000D01*
X158569136Y-72202000D01*
X158586631Y-72198520D01*
X158738400Y-72198520D01*
X159178907Y-72016056D01*
X159516056Y-71678907D01*
X159623000Y-71420721D01*
X159623000Y-75873000D01*
X136000000Y-75873000D01*
X135951399Y-75882667D01*
X135910197Y-75910197D01*
X135882667Y-75951399D01*
X135873000Y-76000000D01*
X135873000Y-80914016D01*
X130975541Y-82873000D01*
X127377000Y-82873000D01*
X127377000Y-80154026D01*
X127577000Y-79671183D01*
X127577000Y-78128817D01*
X127377000Y-77645974D01*
X127377000Y-75127000D01*
X128874390Y-75127000D01*
X128925705Y-75178315D01*
X129133103Y-75316894D01*
X129377746Y-75365557D01*
X129622389Y-75316894D01*
X129829787Y-75178315D01*
X129881102Y-75127000D01*
X130250000Y-75127000D01*
X130316560Y-75108161D01*
X132723447Y-73627000D01*
X145250000Y-73627000D01*
X145489943Y-73579272D01*
X145693356Y-73443356D01*
X145829272Y-73239943D01*
X145851738Y-73127000D01*
X148000000Y-73127000D01*
X148048601Y-73117333D01*
X148089803Y-73089803D01*
X148117333Y-73048601D01*
X148127000Y-73000000D01*
X148127000Y-69877000D01*
X152579279Y-69877000D01*
X152321093Y-69983944D01*
X152321093Y-69983944D01*
G37*
X152321093Y-69983944D02*
X151983944Y-70321093D01*
X151801480Y-70761600D01*
X151801480Y-71238400D01*
X151983944Y-71678907D01*
X152321093Y-72016056D01*
X152761600Y-72198520D01*
X152913369Y-72198520D01*
X152930864Y-72202000D01*
X158569136Y-72202000D01*
X158586631Y-72198520D01*
X158738400Y-72198520D01*
X159178907Y-72016056D01*
X159516056Y-71678907D01*
X159623000Y-71420721D01*
X159623000Y-75873000D01*
X136000000Y-75873000D01*
X135951399Y-75882667D01*
X135910197Y-75910197D01*
X135882667Y-75951399D01*
X135873000Y-76000000D01*
X135873000Y-80914016D01*
X130975541Y-82873000D01*
X127377000Y-82873000D01*
X127377000Y-80154026D01*
X127577000Y-79671183D01*
X127577000Y-78128817D01*
X127377000Y-77645974D01*
X127377000Y-75127000D01*
X128874390Y-75127000D01*
X128925705Y-75178315D01*
X129133103Y-75316894D01*
X129377746Y-75365557D01*
X129622389Y-75316894D01*
X129829787Y-75178315D01*
X129881102Y-75127000D01*
X130250000Y-75127000D01*
X130316560Y-75108161D01*
X132723447Y-73627000D01*
X145250000Y-73627000D01*
X145489943Y-73579272D01*
X145693356Y-73443356D01*
X145829272Y-73239943D01*
X145851738Y-73127000D01*
X148000000Y-73127000D01*
X148048601Y-73117333D01*
X148089803Y-73089803D01*
X148117333Y-73048601D01*
X148127000Y-73000000D01*
X148127000Y-69877000D01*
X152579279Y-69877000D01*
X152321093Y-69983944D01*
G04 #@! TO.N,/Fun_Out*
G36*
X133623000Y-69750000D02*
X133632667Y-69798601D01*
X133660197Y-69839803D01*
X133701399Y-69867333D01*
X133750000Y-69877000D01*
X137515206Y-69877000D01*
X137307204Y-69963157D01*
X136963157Y-70307204D01*
X136776961Y-70756722D01*
X136776961Y-71243278D01*
X136963157Y-71692796D01*
X137307204Y-72036843D01*
X137756722Y-72223039D01*
X138243278Y-72223039D01*
X138294071Y-72202000D01*
X143205929Y-72202000D01*
X143256722Y-72223039D01*
X143743278Y-72223039D01*
X144192796Y-72036843D01*
X144536843Y-71692796D01*
X144723039Y-71243278D01*
X144723039Y-70756722D01*
X144536843Y-70307204D01*
X144192796Y-69963157D01*
X143984794Y-69877000D01*
X145123000Y-69877000D01*
X145123000Y-72873000D01*
X130166819Y-72873000D01*
X129877000Y-72583181D01*
X129877000Y-71000000D01*
X129867333Y-70951399D01*
X129839803Y-70910197D01*
X129798601Y-70882667D01*
X129750000Y-70873000D01*
X129261750Y-70873000D01*
X129200000Y-70860717D01*
X127200000Y-70860717D01*
X127138250Y-70873000D01*
X127127000Y-70873000D01*
X127127000Y-67574737D01*
X127377000Y-66971183D01*
X127377000Y-65428817D01*
X127127000Y-64825263D01*
X127127000Y-62877000D01*
X133623000Y-62877000D01*
X133623000Y-69750000D01*
X133623000Y-69750000D01*
G37*
X133623000Y-69750000D02*
X133632667Y-69798601D01*
X133660197Y-69839803D01*
X133701399Y-69867333D01*
X133750000Y-69877000D01*
X137515206Y-69877000D01*
X137307204Y-69963157D01*
X136963157Y-70307204D01*
X136776961Y-70756722D01*
X136776961Y-71243278D01*
X136963157Y-71692796D01*
X137307204Y-72036843D01*
X137756722Y-72223039D01*
X138243278Y-72223039D01*
X138294071Y-72202000D01*
X143205929Y-72202000D01*
X143256722Y-72223039D01*
X143743278Y-72223039D01*
X144192796Y-72036843D01*
X144536843Y-71692796D01*
X144723039Y-71243278D01*
X144723039Y-70756722D01*
X144536843Y-70307204D01*
X144192796Y-69963157D01*
X143984794Y-69877000D01*
X145123000Y-69877000D01*
X145123000Y-72873000D01*
X130166819Y-72873000D01*
X129877000Y-72583181D01*
X129877000Y-71000000D01*
X129867333Y-70951399D01*
X129839803Y-70910197D01*
X129798601Y-70882667D01*
X129750000Y-70873000D01*
X129261750Y-70873000D01*
X129200000Y-70860717D01*
X127200000Y-70860717D01*
X127138250Y-70873000D01*
X127127000Y-70873000D01*
X127127000Y-67574737D01*
X127377000Y-66971183D01*
X127377000Y-65428817D01*
X127127000Y-64825263D01*
X127127000Y-62877000D01*
X133623000Y-62877000D01*
X133623000Y-69750000D01*
G04 #@! TD*
M02*
