M48
;DRILL file {KiCad (5.0.0)} date 02/23/19 04:40:50
;FORMAT={-:-/ absolute / metric / decimal}
FMAT,2
METRIC,TZ
T1C0.400
T2C0.800
T3C1.000
T4C1.001
T5C1.016
T6C1.400
T7C1.999
T8C3.000
T9C4.500
T10C2.500
%
G90
G05
M71
T2
X156.25Y-99.25
X156.25Y-104.25
X166.98Y-66.51
X166.98Y-69.05
X174.6Y-66.51
X174.6Y-69.05
X166.89Y-76.26
X166.89Y-78.8
X174.51Y-76.26
X174.51Y-78.8
X190.Y-96.75
X195.Y-96.75
T3
X190.75Y-61.25
X190.75Y-63.75
X190.75Y-66.25
X190.75Y-68.75
X138.03Y-100.09
X140.53Y-100.09
X194.2Y-83.5
X194.2Y-86.
X194.2Y-76.
X194.2Y-78.5
X130.75Y-100.75
X130.75Y-103.25
X145.53Y-100.09
X148.03Y-100.09
X183.5Y-61.25
X183.5Y-63.75
X183.5Y-66.25
X183.5Y-68.75
T4
X125.66Y-85.2
X128.2Y-85.2
X125.66Y-59.8
X128.2Y-59.8
X147.01Y-93.75
X149.55Y-93.75
X157.25Y-93.75
X159.79Y-93.75
X184.5Y-76.25
X184.5Y-78.79
X125.66Y-72.5
X128.2Y-72.5
T5
X165.46Y-56.5
X168.Y-56.5
T6
X164.04Y-84.84
X164.04Y-92.46
X164.04Y-97.54
X184.36Y-84.84
X184.36Y-95.
X184.36Y-105.16
T7
X133.5Y-55.25
T8
X123.Y-55.
X123.Y-104.
X197.Y-55.
X197.Y-104.
T9
X123.5Y-66.2
X130.5Y-66.2
X123.7Y-78.9
X130.7Y-78.9
X123.7Y-91.4
X130.7Y-91.4
T10
X197.25Y-65.
T1
X151.5Y-67.3G85X151.5Y-62.7
G05
X156.Y-67.3G85X156.Y-62.7
G05
X160.5Y-67.3G85X160.5Y-62.7
G05
X136.25Y-67.3G85X136.25Y-62.7
G05
X140.75Y-67.3G85X140.75Y-62.7
G05
X145.25Y-67.3G85X145.25Y-62.7
G05
T3
X158.75Y-71.G85X153.25Y-71.
G05
X158.75Y-79.G85X153.25Y-79.
G05
X143.5Y-71.G85X138.Y-71.
G05
X143.5Y-79.G85X138.Y-79.
G05
T0
M30
