G04 #@! TF.GenerationSoftware,KiCad,Pcbnew,(5.0.0)*
G04 #@! TF.CreationDate,2019-02-12T21:24:03+09:00*
G04 #@! TF.ProjectId,Power_exp,506F7765725F6578702E6B696361645F,rev?*
G04 #@! TF.SameCoordinates,Original*
G04 #@! TF.FileFunction,Copper,L2,Bot,Signal*
G04 #@! TF.FilePolarity,Positive*
%FSLAX46Y46*%
G04 Gerber Fmt 4.6, Leading zero omitted, Abs format (unit mm)*
G04 Created by KiCad (PCBNEW (5.0.0)) date 02/12/19 21:24:03*
%MOMM*%
%LPD*%
G01*
G04 APERTURE LIST*
G04 #@! TA.AperFunction,SMDPad,CuDef*
%ADD10R,0.800100X1.800860*%
G04 #@! TD*
G04 #@! TA.AperFunction,ComponentPad*
%ADD11R,2.000000X2.000000*%
G04 #@! TD*
G04 #@! TA.AperFunction,ComponentPad*
%ADD12C,2.000000*%
G04 #@! TD*
G04 #@! TA.AperFunction,ComponentPad*
%ADD13C,6.500000*%
G04 #@! TD*
G04 #@! TA.AperFunction,SMDPad,CuDef*
%ADD14C,1.000000*%
G04 #@! TD*
G04 #@! TA.AperFunction,Conductor*
%ADD15C,0.100000*%
G04 #@! TD*
G04 #@! TA.AperFunction,SMDPad,CuDef*
%ADD16R,1.200000X1.000000*%
G04 #@! TD*
G04 #@! TA.AperFunction,SMDPad,CuDef*
%ADD17R,1.220000X0.910000*%
G04 #@! TD*
G04 #@! TA.AperFunction,ComponentPad*
%ADD18O,1.600000X1.600000*%
G04 #@! TD*
G04 #@! TA.AperFunction,ComponentPad*
%ADD19O,1.500000X2.500000*%
G04 #@! TD*
G04 #@! TA.AperFunction,ComponentPad*
%ADD20O,2.500000X1.500000*%
G04 #@! TD*
G04 #@! TA.AperFunction,SMDPad,CuDef*
%ADD21R,1.000000X1.200000*%
G04 #@! TD*
G04 #@! TA.AperFunction,ComponentPad*
%ADD22R,6.000000X1.524000*%
G04 #@! TD*
G04 #@! TA.AperFunction,ComponentPad*
%ADD23R,2.000000X7.500000*%
G04 #@! TD*
G04 #@! TA.AperFunction,ComponentPad*
%ADD24C,1.300000*%
G04 #@! TD*
G04 #@! TA.AperFunction,ComponentPad*
%ADD25R,1.300000X1.300000*%
G04 #@! TD*
G04 #@! TA.AperFunction,ComponentPad*
%ADD26O,2.032000X2.032000*%
G04 #@! TD*
G04 #@! TA.AperFunction,ComponentPad*
%ADD27R,2.032000X2.032000*%
G04 #@! TD*
G04 #@! TA.AperFunction,ComponentPad*
%ADD28C,4.500880*%
G04 #@! TD*
G04 #@! TA.AperFunction,ViaPad*
%ADD29C,6.000000*%
G04 #@! TD*
G04 #@! TA.AperFunction,Conductor*
%ADD30C,1.000000*%
G04 #@! TD*
G04 #@! TA.AperFunction,Conductor*
%ADD31C,0.250000*%
G04 #@! TD*
G04 APERTURE END LIST*
D10*
G04 #@! TO.P,Q1,3*
G04 #@! TO.N,Net-(JP1-Pad1)*
X164600000Y-62051140D03*
G04 #@! TO.P,Q1,2*
G04 #@! TO.N,/Coil_Out*
X165550000Y-59048860D03*
G04 #@! TO.P,Q1,1*
G04 #@! TO.N,Net-(IC1-Pad3)*
X163650000Y-59048860D03*
G04 #@! TD*
D11*
G04 #@! TO.P,D6,1*
G04 #@! TO.N,Net-(D6-Pad1)*
X130950000Y-88000000D03*
D12*
G04 #@! TO.P,D6,2*
G04 #@! TO.N,GNDPWR*
X128410000Y-88000000D03*
G04 #@! TD*
D13*
G04 #@! TO.P,P10,1*
G04 #@! TO.N,GNDPWR*
X126450000Y-94400000D03*
G04 #@! TO.P,P10,2*
G04 #@! TO.N,/Power_Out*
X133450000Y-94400000D03*
G04 #@! TD*
D14*
G04 #@! TO.P,R11,1*
G04 #@! TO.N,/Power_Out*
X133301543Y-90551543D03*
D15*
G04 #@! TD*
G04 #@! TO.N,/Power_Out*
G04 #@! TO.C,R11*
G36*
X134079360Y-90480832D02*
X133230832Y-91329360D01*
X132523726Y-90622254D01*
X133372254Y-89773726D01*
X134079360Y-90480832D01*
X134079360Y-90480832D01*
G37*
D14*
G04 #@! TO.P,R11,2*
G04 #@! TO.N,Net-(D6-Pad1)*
X132198457Y-89448457D03*
D15*
G04 #@! TD*
G04 #@! TO.N,Net-(D6-Pad1)*
G04 #@! TO.C,R11*
G36*
X132976274Y-89377746D02*
X132127746Y-90226274D01*
X131420640Y-89519168D01*
X132269168Y-88670640D01*
X132976274Y-89377746D01*
X132976274Y-89377746D01*
G37*
D16*
G04 #@! TO.P,C1,1*
G04 #@! TO.N,+12V*
X192050000Y-85750000D03*
G04 #@! TO.P,C1,2*
G04 #@! TO.N,GND*
X192050000Y-83870000D03*
G04 #@! TD*
G04 #@! TO.P,C2,2*
G04 #@! TO.N,GND*
X196500000Y-76270000D03*
G04 #@! TO.P,C2,1*
G04 #@! TO.N,+12V*
X196500000Y-78150000D03*
G04 #@! TD*
G04 #@! TO.P,C4,2*
G04 #@! TO.N,+12V*
X186000000Y-66570000D03*
G04 #@! TO.P,C4,1*
G04 #@! TO.N,GND*
X186000000Y-68450000D03*
G04 #@! TD*
G04 #@! TO.P,C5,1*
G04 #@! TO.N,GND*
X193000000Y-68450000D03*
G04 #@! TO.P,C5,2*
G04 #@! TO.N,+12V*
X193000000Y-66570000D03*
G04 #@! TD*
D17*
G04 #@! TO.P,D1,1*
G04 #@! TO.N,+BATT*
X128000000Y-99000000D03*
G04 #@! TO.P,D1,2*
G04 #@! TO.N,Net-(D1-Pad2)*
X128000000Y-102270000D03*
G04 #@! TD*
D12*
G04 #@! TO.P,D2,2*
G04 #@! TO.N,GNDPWR*
X128410000Y-70700000D03*
D11*
G04 #@! TO.P,D2,1*
G04 #@! TO.N,Net-(D2-Pad1)*
X130950000Y-70700000D03*
G04 #@! TD*
D12*
G04 #@! TO.P,D3,2*
G04 #@! TO.N,GNDPWR*
X147190000Y-93750000D03*
D11*
G04 #@! TO.P,D3,1*
G04 #@! TO.N,Net-(D3-Pad1)*
X144650000Y-93750000D03*
G04 #@! TD*
G04 #@! TO.P,D4,1*
G04 #@! TO.N,Net-(D4-Pad1)*
X184500000Y-76250000D03*
D12*
G04 #@! TO.P,D4,2*
G04 #@! TO.N,GND*
X184500000Y-78790000D03*
G04 #@! TD*
G04 #@! TO.P,D5,2*
G04 #@! TO.N,GNDPWR*
X159790000Y-93750000D03*
D11*
G04 #@! TO.P,D5,1*
G04 #@! TO.N,Net-(D5-Pad1)*
X157250000Y-93750000D03*
G04 #@! TD*
G04 #@! TO.P,D7,1*
G04 #@! TO.N,Net-(D7-Pad1)*
X131200000Y-55550000D03*
D12*
G04 #@! TO.P,D7,2*
G04 #@! TO.N,GNDPWR*
X128660000Y-55550000D03*
G04 #@! TD*
D18*
G04 #@! TO.P,IC1,1*
G04 #@! TO.N,Net-(IC1-Pad1)*
X174600000Y-69050000D03*
G04 #@! TO.P,IC1,2*
G04 #@! TO.N,GND*
X174600000Y-66510000D03*
G04 #@! TO.P,IC1,3*
G04 #@! TO.N,Net-(IC1-Pad3)*
X166980000Y-66510000D03*
G04 #@! TO.P,IC1,4*
G04 #@! TO.N,Net-(IC1-Pad4)*
X166980000Y-69050000D03*
G04 #@! TD*
G04 #@! TO.P,IC2,1*
G04 #@! TO.N,Net-(IC2-Pad1)*
X166890000Y-76260000D03*
G04 #@! TO.P,IC2,2*
G04 #@! TO.N,GNDPWR*
X166890000Y-78800000D03*
G04 #@! TO.P,IC2,3*
G04 #@! TO.N,GND*
X174510000Y-78800000D03*
G04 #@! TO.P,IC2,4*
G04 #@! TO.N,/Relay_state*
X174510000Y-76260000D03*
G04 #@! TD*
D19*
G04 #@! TO.P,P1,2*
G04 #@! TO.N,/24v*
X138030000Y-102090000D03*
G04 #@! TO.P,P1,1*
G04 #@! TO.N,Net-(P1-Pad1)*
X140530000Y-102090000D03*
G04 #@! TD*
G04 #@! TO.P,P2,1*
G04 #@! TO.N,/Coil*
X148030000Y-102090000D03*
G04 #@! TO.P,P2,2*
G04 #@! TO.N,Net-(P1-Pad1)*
X145530000Y-102090000D03*
G04 #@! TD*
D20*
G04 #@! TO.P,P4,2*
G04 #@! TO.N,+12V*
X194200000Y-78500000D03*
G04 #@! TO.P,P4,1*
G04 #@! TO.N,GND*
X194200000Y-76000000D03*
G04 #@! TD*
G04 #@! TO.P,P5,1*
G04 #@! TO.N,GND*
X194200000Y-83500000D03*
G04 #@! TO.P,P5,2*
G04 #@! TO.N,+12V*
X194200000Y-86000000D03*
G04 #@! TD*
D13*
G04 #@! TO.P,P6,2*
G04 #@! TO.N,+BATT*
X133450000Y-76900000D03*
G04 #@! TO.P,P6,1*
G04 #@! TO.N,GNDPWR*
X126450000Y-76900000D03*
G04 #@! TD*
D20*
G04 #@! TO.P,P8,4*
G04 #@! TO.N,/Relay_state*
X183500000Y-61250000D03*
G04 #@! TO.P,P8,3*
G04 #@! TO.N,/Forced_shutdown*
X183500000Y-63750000D03*
G04 #@! TO.P,P8,2*
G04 #@! TO.N,+12V*
X183500000Y-66250000D03*
G04 #@! TO.P,P8,1*
G04 #@! TO.N,GND*
X183500000Y-68750000D03*
G04 #@! TD*
G04 #@! TO.P,P9,1*
G04 #@! TO.N,GND*
X190750000Y-68750000D03*
G04 #@! TO.P,P9,2*
G04 #@! TO.N,+12V*
X190750000Y-66250000D03*
G04 #@! TO.P,P9,3*
G04 #@! TO.N,/Forced_shutdown*
X190750000Y-63750000D03*
G04 #@! TO.P,P9,4*
G04 #@! TO.N,/Relay_state*
X190750000Y-61250000D03*
G04 #@! TD*
D16*
G04 #@! TO.P,R1,1*
G04 #@! TO.N,/24v*
X168850000Y-71050000D03*
G04 #@! TO.P,R1,2*
G04 #@! TO.N,Net-(IC1-Pad4)*
X168850000Y-69490000D03*
G04 #@! TD*
D21*
G04 #@! TO.P,R2,1*
G04 #@! TO.N,Net-(IC2-Pad1)*
X164920000Y-76260000D03*
G04 #@! TO.P,R2,2*
G04 #@! TO.N,/Coil*
X163360000Y-76260000D03*
G04 #@! TD*
D16*
G04 #@! TO.P,R3,2*
G04 #@! TO.N,Net-(JP1-Pad1)*
X164600000Y-64240000D03*
G04 #@! TO.P,R3,1*
G04 #@! TO.N,Net-(IC1-Pad3)*
X164600000Y-65800000D03*
G04 #@! TD*
D21*
G04 #@! TO.P,R4,1*
G04 #@! TO.N,/Forced_shutdown*
X178250000Y-69000000D03*
G04 #@! TO.P,R4,2*
G04 #@! TO.N,Net-(IC1-Pad1)*
X176690000Y-69000000D03*
G04 #@! TD*
D16*
G04 #@! TO.P,R5,1*
G04 #@! TO.N,/Relay_state*
X172750000Y-76750000D03*
G04 #@! TO.P,R5,2*
G04 #@! TO.N,GND*
X172750000Y-78310000D03*
G04 #@! TD*
D21*
G04 #@! TO.P,R6,2*
G04 #@! TO.N,/Relay_state*
X177750000Y-76250000D03*
G04 #@! TO.P,R6,1*
G04 #@! TO.N,+12V*
X179310000Y-76250000D03*
G04 #@! TD*
D14*
G04 #@! TO.P,R7,1*
G04 #@! TO.N,+BATT*
X133301543Y-72851543D03*
D15*
G04 #@! TD*
G04 #@! TO.N,+BATT*
G04 #@! TO.C,R7*
G36*
X134079360Y-72780832D02*
X133230832Y-73629360D01*
X132523726Y-72922254D01*
X133372254Y-72073726D01*
X134079360Y-72780832D01*
X134079360Y-72780832D01*
G37*
D14*
G04 #@! TO.P,R7,2*
G04 #@! TO.N,Net-(D2-Pad1)*
X132198457Y-71748457D03*
D15*
G04 #@! TD*
G04 #@! TO.N,Net-(D2-Pad1)*
G04 #@! TO.C,R7*
G36*
X132976274Y-71677746D02*
X132127746Y-72526274D01*
X131420640Y-71819168D01*
X132269168Y-70970640D01*
X132976274Y-71677746D01*
X132976274Y-71677746D01*
G37*
D21*
G04 #@! TO.P,R8,2*
G04 #@! TO.N,Net-(D3-Pad1)*
X142430000Y-93750000D03*
G04 #@! TO.P,R8,1*
G04 #@! TO.N,/24v*
X140870000Y-93750000D03*
G04 #@! TD*
D16*
G04 #@! TO.P,R9,2*
G04 #@! TO.N,Net-(D4-Pad1)*
X184500000Y-75030000D03*
G04 #@! TO.P,R9,1*
G04 #@! TO.N,+12V*
X184500000Y-73470000D03*
G04 #@! TD*
D21*
G04 #@! TO.P,R10,1*
G04 #@! TO.N,/Coil*
X153720000Y-93750000D03*
G04 #@! TO.P,R10,2*
G04 #@! TO.N,Net-(D5-Pad1)*
X155280000Y-93750000D03*
G04 #@! TD*
D14*
G04 #@! TO.P,R12,2*
G04 #@! TO.N,Net-(D7-Pad1)*
X132248457Y-56598457D03*
D15*
G04 #@! TD*
G04 #@! TO.N,Net-(D7-Pad1)*
G04 #@! TO.C,R12*
G36*
X133026274Y-56527746D02*
X132177746Y-57376274D01*
X131470640Y-56669168D01*
X132319168Y-55820640D01*
X133026274Y-56527746D01*
X133026274Y-56527746D01*
G37*
D14*
G04 #@! TO.P,R12,1*
G04 #@! TO.N,/Fun_Out*
X133351543Y-57701543D03*
D15*
G04 #@! TD*
G04 #@! TO.N,/Fun_Out*
G04 #@! TO.C,R12*
G36*
X134129360Y-57630832D02*
X133280832Y-58479360D01*
X132573726Y-57772254D01*
X133422254Y-56923726D01*
X134129360Y-57630832D01*
X134129360Y-57630832D01*
G37*
D12*
G04 #@! TO.P,U1,1*
G04 #@! TO.N,GNDPWR*
X164090000Y-84340000D03*
G04 #@! TO.P,U1,2*
X164090000Y-91960000D03*
G04 #@! TO.P,U1,3*
G04 #@! TO.N,/24v*
X164090000Y-97040000D03*
G04 #@! TO.P,U1,4*
G04 #@! TO.N,GND*
X184410000Y-84340000D03*
G04 #@! TO.P,U1,5*
G04 #@! TO.N,Net-(U1-Pad5)*
X184410000Y-94500000D03*
G04 #@! TO.P,U1,6*
G04 #@! TO.N,+12V*
X184410000Y-104660000D03*
G04 #@! TD*
D22*
G04 #@! TO.P,U2,1*
G04 #@! TO.N,/RelayA_Coil_In*
X155000000Y-74000000D03*
G04 #@! TO.P,U2,2*
G04 #@! TO.N,/Coil_Out*
X155000000Y-65000000D03*
G04 #@! TO.P,U2,4*
G04 #@! TO.N,Net-(U2-Pad4)*
X155000000Y-69500000D03*
D23*
G04 #@! TO.P,U2,5*
G04 #@! TO.N,/Fun_Out*
X149000000Y-69500000D03*
G04 #@! TO.P,U2,3*
G04 #@! TO.N,+BATT*
X141000000Y-69500000D03*
G04 #@! TD*
G04 #@! TO.P,U3,3*
G04 #@! TO.N,+BATT*
X141000000Y-84000000D03*
G04 #@! TO.P,U3,5*
G04 #@! TO.N,/Power_Out*
X149000000Y-84000000D03*
D22*
G04 #@! TO.P,U3,4*
G04 #@! TO.N,Net-(U3-Pad4)*
X155000000Y-84000000D03*
G04 #@! TO.P,U3,2*
G04 #@! TO.N,/RelayA_Coil_In*
X155000000Y-79500000D03*
G04 #@! TO.P,U3,1*
G04 #@! TO.N,/Coil*
X155000000Y-88500000D03*
G04 #@! TD*
D24*
G04 #@! TO.P,C3,2*
G04 #@! TO.N,/24v*
X156250000Y-99250000D03*
D25*
G04 #@! TO.P,C3,1*
G04 #@! TO.N,GNDPWR*
X156250000Y-104250000D03*
G04 #@! TD*
G04 #@! TO.P,C6,1*
G04 #@! TO.N,+12V*
X190000000Y-96750000D03*
D24*
G04 #@! TO.P,C6,2*
G04 #@! TO.N,GND*
X195000000Y-96750000D03*
G04 #@! TD*
D26*
G04 #@! TO.P,JP1,2*
G04 #@! TO.N,/Coil_Out*
X167850000Y-59510000D03*
D27*
G04 #@! TO.P,JP1,1*
G04 #@! TO.N,Net-(JP1-Pad1)*
X167850000Y-62050000D03*
G04 #@! TD*
D20*
G04 #@! TO.P,P3,2*
G04 #@! TO.N,/24v*
X131500000Y-101500000D03*
G04 #@! TO.P,P3,1*
G04 #@! TO.N,Net-(D1-Pad2)*
X131500000Y-104000000D03*
G04 #@! TD*
D28*
G04 #@! TO.P,P7,1*
G04 #@! TO.N,GNDPWR*
X147750000Y-55250000D03*
G04 #@! TD*
D13*
G04 #@! TO.P,P11,1*
G04 #@! TO.N,GNDPWR*
X126500000Y-61950000D03*
G04 #@! TO.P,P11,2*
G04 #@! TO.N,/Fun_Out*
X133500000Y-61950000D03*
G04 #@! TD*
D29*
G04 #@! TO.N,*
X197000000Y-55000000D03*
X123000000Y-55000000D03*
X197000000Y-104000000D03*
X123000000Y-104000000D03*
G04 #@! TD*
D30*
G04 #@! TO.N,+12V*
X194200000Y-86000000D02*
X192300000Y-86000000D01*
X192300000Y-86000000D02*
X192050000Y-85750000D01*
X194200000Y-78500000D02*
X194870000Y-78500000D01*
X192680000Y-66250000D02*
X193000000Y-66570000D01*
X190750000Y-66250000D02*
X192680000Y-66250000D01*
X186320000Y-66250000D02*
X186000000Y-66570000D01*
X190750000Y-66250000D02*
X186320000Y-66250000D01*
X183820000Y-66570000D02*
X183500000Y-66250000D01*
X186000000Y-66570000D02*
X183820000Y-66570000D01*
X185409999Y-103660001D02*
X186329999Y-103660001D01*
X184410000Y-104660000D02*
X185409999Y-103660001D01*
X190000000Y-99990000D02*
X190000000Y-96750000D01*
X186329999Y-103660001D02*
X190000000Y-99990000D01*
X191950000Y-85750000D02*
X192050000Y-85750000D01*
X190000000Y-87700000D02*
X191950000Y-85750000D01*
X190000000Y-96750000D02*
X190000000Y-87700000D01*
X194700000Y-86000000D02*
X194200000Y-86000000D01*
X196500000Y-84200000D02*
X194700000Y-86000000D01*
X196500000Y-78150000D02*
X196500000Y-84200000D01*
X194550000Y-78150000D02*
X194200000Y-78500000D01*
X196500000Y-78150000D02*
X194550000Y-78150000D01*
X181250000Y-66250000D02*
X183500000Y-66250000D01*
X180210000Y-67290000D02*
X181250000Y-66250000D01*
X179310000Y-76030000D02*
X180210000Y-75130000D01*
X179310000Y-76250000D02*
X179310000Y-76030000D01*
X184400000Y-73470000D02*
X184500000Y-73470000D01*
X180210000Y-69280000D02*
X184400000Y-73470000D01*
X180210000Y-67960000D02*
X180210000Y-69280000D01*
X180210000Y-67960000D02*
X180210000Y-67290000D01*
X180210000Y-75130000D02*
X180210000Y-67960000D01*
X193000000Y-66570000D02*
X193670000Y-66570000D01*
X193670000Y-66570000D02*
X195620000Y-68520000D01*
X193700000Y-78500000D02*
X194200000Y-78500000D01*
X195620000Y-68520000D02*
X195620000Y-70720000D01*
X195620000Y-70720000D02*
X192110000Y-74230000D01*
X192110000Y-74230000D02*
X192110000Y-76910000D01*
X192110000Y-76910000D02*
X193700000Y-78500000D01*
G04 #@! TO.N,+BATT*
X133450000Y-73000000D02*
X133301543Y-72851543D01*
X133450000Y-76900000D02*
X133450000Y-73000000D01*
X124170000Y-99000000D02*
X128000000Y-99000000D01*
X122499999Y-97329999D02*
X124170000Y-99000000D01*
X133450000Y-76900000D02*
X122499999Y-87850001D01*
X122499999Y-87850001D02*
X122499999Y-97329999D01*
G04 #@! TO.N,Net-(D1-Pad2)*
X129730000Y-104000000D02*
X131500000Y-104000000D01*
X128000000Y-102270000D02*
X129730000Y-104000000D01*
G04 #@! TO.N,Net-(D2-Pad1)*
X131150000Y-70700000D02*
X132198457Y-71748457D01*
G04 #@! TO.N,Net-(D3-Pad1)*
X142430000Y-93750000D02*
X144650000Y-93750000D01*
G04 #@! TO.N,Net-(D4-Pad1)*
X184500000Y-76250000D02*
X184500000Y-75030000D01*
G04 #@! TO.N,Net-(D5-Pad1)*
X157250000Y-93750000D02*
X155280000Y-93750000D01*
G04 #@! TO.N,Net-(D6-Pad1)*
X132198457Y-89248457D02*
X130950000Y-88000000D01*
X132198457Y-89448457D02*
X132198457Y-89248457D01*
G04 #@! TO.N,Net-(D7-Pad1)*
X132248457Y-56598457D02*
X131200000Y-55550000D01*
G04 #@! TO.N,Net-(IC1-Pad4)*
X168850000Y-69490000D02*
X167420000Y-69490000D01*
G04 #@! TO.N,Net-(IC1-Pad3)*
X165310000Y-66510000D02*
X164600000Y-65800000D01*
X166980000Y-66510000D02*
X165310000Y-66510000D01*
X163650000Y-59549240D02*
X163650000Y-59048860D01*
X162249950Y-60949290D02*
X163650000Y-59549240D01*
X162249950Y-65049950D02*
X162249950Y-60949290D01*
X163000000Y-65800000D02*
X162249950Y-65049950D01*
X164600000Y-65800000D02*
X163000000Y-65800000D01*
G04 #@! TO.N,Net-(IC1-Pad1)*
X176640000Y-69050000D02*
X176690000Y-69000000D01*
X174600000Y-69050000D02*
X176640000Y-69050000D01*
G04 #@! TO.N,Net-(IC2-Pad1)*
X164920000Y-76260000D02*
X166890000Y-76260000D01*
G04 #@! TO.N,/Relay_state*
X173240000Y-76260000D02*
X172750000Y-76750000D01*
X174510000Y-76260000D02*
X173240000Y-76260000D01*
X177740000Y-76260000D02*
X177750000Y-76250000D01*
X174510000Y-76260000D02*
X177740000Y-76260000D01*
X190750000Y-61250000D02*
X183500000Y-61250000D01*
X172750000Y-76750000D02*
X172750000Y-75250000D01*
X172750000Y-75250000D02*
X173100000Y-74900000D01*
X173100000Y-63420000D02*
X175270000Y-61250000D01*
X173100000Y-74900000D02*
X173100000Y-63420000D01*
X175270000Y-61250000D02*
X183500000Y-61250000D01*
G04 #@! TO.N,/24v*
X137440000Y-101500000D02*
X138030000Y-102090000D01*
X131500000Y-101500000D02*
X137440000Y-101500000D01*
X138030000Y-102090000D02*
X138030000Y-101380000D01*
X140870000Y-98540000D02*
X140870000Y-93750000D01*
X138030000Y-101380000D02*
X140870000Y-98540000D01*
X138030000Y-102090000D02*
X138030000Y-103110000D01*
X138030000Y-103110000D02*
X139270000Y-104350000D01*
X151150000Y-104350000D02*
X156250000Y-99250000D01*
X139270000Y-104350000D02*
X151150000Y-104350000D01*
X156250000Y-99250000D02*
X158480000Y-97020000D01*
X158500000Y-97040000D02*
X164090000Y-97040000D01*
X158480000Y-97020000D02*
X158500000Y-97040000D01*
X169590000Y-81610000D02*
X169590000Y-73730000D01*
X167440000Y-83760000D02*
X169590000Y-81610000D01*
X169590000Y-73730000D02*
X168850000Y-72990000D01*
X168850000Y-72990000D02*
X168850000Y-71050000D01*
X167440000Y-93690000D02*
X167440000Y-83760000D01*
X164090000Y-97040000D02*
X167440000Y-93690000D01*
G04 #@! TO.N,Net-(P1-Pad1)*
X145530000Y-102090000D02*
X140530000Y-102090000D01*
G04 #@! TO.N,/Coil*
X153720000Y-89780000D02*
X155000000Y-88500000D01*
X153720000Y-93750000D02*
X153720000Y-89780000D01*
X153720000Y-95350000D02*
X153720000Y-93750000D01*
X153720000Y-98150000D02*
X153720000Y-95350000D01*
X149780000Y-102090000D02*
X153720000Y-98150000D01*
X148030000Y-102090000D02*
X149780000Y-102090000D01*
X159000000Y-88500000D02*
X160300000Y-87200000D01*
X155000000Y-88500000D02*
X159000000Y-88500000D01*
X160300000Y-87200000D02*
X160300000Y-82780000D01*
X163360000Y-79720000D02*
X163360000Y-76260000D01*
X160300000Y-82780000D02*
X163360000Y-79720000D01*
G04 #@! TO.N,/Forced_shutdown*
X183500000Y-63750000D02*
X190750000Y-63750000D01*
X181250000Y-63750000D02*
X183500000Y-63750000D01*
X178250000Y-66750000D02*
X181250000Y-63750000D01*
X178250000Y-69000000D02*
X178250000Y-66750000D01*
G04 #@! TO.N,Net-(JP1-Pad1)*
X164600000Y-64240000D02*
X164600000Y-62051140D01*
X164601140Y-62050000D02*
X164600000Y-62051140D01*
X167850000Y-62050000D02*
X164601140Y-62050000D01*
G04 #@! TO.N,/Fun_Out*
X133500000Y-57850000D02*
X133351543Y-57701543D01*
X133500000Y-61950000D02*
X133500000Y-57850000D01*
G04 #@! TO.N,/RelayA_Coil_In*
X155000000Y-79500000D02*
X155000000Y-74000000D01*
G04 #@! TO.N,/Coil_Out*
X166011140Y-59510000D02*
X165550000Y-59048860D01*
X167850000Y-59510000D02*
X166011140Y-59510000D01*
X159000000Y-65000000D02*
X159430000Y-64570000D01*
X155000000Y-65000000D02*
X159000000Y-65000000D01*
X159430000Y-64570000D02*
X159430000Y-58310000D01*
X159430000Y-58310000D02*
X161200000Y-56540000D01*
X161200000Y-56540000D02*
X165010000Y-56540000D01*
X165550000Y-57080000D02*
X165550000Y-59048860D01*
X165010000Y-56540000D02*
X165550000Y-57080000D01*
G04 #@! TD*
D31*
G04 #@! TO.N,+BATT*
G36*
X140320819Y-65733533D02*
X139983533Y-66070819D01*
X139800996Y-66511503D01*
X139800996Y-66676058D01*
X139800001Y-66681060D01*
X139800000Y-72368939D01*
X139840615Y-72573125D01*
X139920732Y-72693029D01*
X140027181Y-72950017D01*
X140349983Y-73272819D01*
X140771744Y-73447519D01*
X141228256Y-73447519D01*
X141650017Y-73272819D01*
X141972819Y-72950017D01*
X142079266Y-72693031D01*
X142159385Y-72573126D01*
X142200000Y-72368940D01*
X142200000Y-66681060D01*
X142199004Y-66676053D01*
X142199004Y-66511503D01*
X142016467Y-66070819D01*
X141679181Y-65733533D01*
X141417159Y-65625000D01*
X144375000Y-65625000D01*
X144375000Y-88875000D01*
X138625000Y-88875000D01*
X138625000Y-86452235D01*
X139754403Y-86452235D01*
X139754403Y-86947765D01*
X139944034Y-87405574D01*
X140294426Y-87755966D01*
X140752235Y-87945597D01*
X141247765Y-87945597D01*
X141705574Y-87755966D01*
X142055966Y-87405574D01*
X142245597Y-86947765D01*
X142245597Y-86452235D01*
X142200000Y-86342154D01*
X142200000Y-81181060D01*
X142196558Y-81163756D01*
X142196558Y-81011990D01*
X142014393Y-80572204D01*
X141677796Y-80235607D01*
X141238010Y-80053442D01*
X140761990Y-80053442D01*
X140322204Y-80235607D01*
X139985607Y-80572204D01*
X139803442Y-81011990D01*
X139803442Y-81163757D01*
X139800000Y-81181061D01*
X139800001Y-86342152D01*
X139754403Y-86452235D01*
X138625000Y-86452235D01*
X138625000Y-81500000D01*
X138615485Y-81452165D01*
X138588388Y-81411612D01*
X138547835Y-81384515D01*
X138500000Y-81375000D01*
X131125000Y-81375000D01*
X131125000Y-73125000D01*
X131934101Y-73125000D01*
X132127746Y-73163518D01*
X132321391Y-73125000D01*
X138500000Y-73125000D01*
X138547835Y-73115485D01*
X138588388Y-73088388D01*
X138615485Y-73047835D01*
X138625000Y-73000000D01*
X138625000Y-65986671D01*
X138691942Y-65941942D01*
X138827425Y-65739177D01*
X138850136Y-65625000D01*
X140582841Y-65625000D01*
X140320819Y-65733533D01*
X140320819Y-65733533D01*
G37*
X140320819Y-65733533D02*
X139983533Y-66070819D01*
X139800996Y-66511503D01*
X139800996Y-66676058D01*
X139800001Y-66681060D01*
X139800000Y-72368939D01*
X139840615Y-72573125D01*
X139920732Y-72693029D01*
X140027181Y-72950017D01*
X140349983Y-73272819D01*
X140771744Y-73447519D01*
X141228256Y-73447519D01*
X141650017Y-73272819D01*
X141972819Y-72950017D01*
X142079266Y-72693031D01*
X142159385Y-72573126D01*
X142200000Y-72368940D01*
X142200000Y-66681060D01*
X142199004Y-66676053D01*
X142199004Y-66511503D01*
X142016467Y-66070819D01*
X141679181Y-65733533D01*
X141417159Y-65625000D01*
X144375000Y-65625000D01*
X144375000Y-88875000D01*
X138625000Y-88875000D01*
X138625000Y-86452235D01*
X139754403Y-86452235D01*
X139754403Y-86947765D01*
X139944034Y-87405574D01*
X140294426Y-87755966D01*
X140752235Y-87945597D01*
X141247765Y-87945597D01*
X141705574Y-87755966D01*
X142055966Y-87405574D01*
X142245597Y-86947765D01*
X142245597Y-86452235D01*
X142200000Y-86342154D01*
X142200000Y-81181060D01*
X142196558Y-81163756D01*
X142196558Y-81011990D01*
X142014393Y-80572204D01*
X141677796Y-80235607D01*
X141238010Y-80053442D01*
X140761990Y-80053442D01*
X140322204Y-80235607D01*
X139985607Y-80572204D01*
X139803442Y-81011990D01*
X139803442Y-81163757D01*
X139800000Y-81181061D01*
X139800001Y-86342152D01*
X139754403Y-86452235D01*
X138625000Y-86452235D01*
X138625000Y-81500000D01*
X138615485Y-81452165D01*
X138588388Y-81411612D01*
X138547835Y-81384515D01*
X138500000Y-81375000D01*
X131125000Y-81375000D01*
X131125000Y-73125000D01*
X131934101Y-73125000D01*
X132127746Y-73163518D01*
X132321391Y-73125000D01*
X138500000Y-73125000D01*
X138547835Y-73115485D01*
X138588388Y-73088388D01*
X138615485Y-73047835D01*
X138625000Y-73000000D01*
X138625000Y-65986671D01*
X138691942Y-65941942D01*
X138827425Y-65739177D01*
X138850136Y-65625000D01*
X140582841Y-65625000D01*
X140320819Y-65733533D01*
G04 #@! TO.N,/Power_Out*
G36*
X150125000Y-80839233D02*
X150014393Y-80572204D01*
X149677796Y-80235607D01*
X149238010Y-80053442D01*
X148761990Y-80053442D01*
X148322204Y-80235607D01*
X147985607Y-80572204D01*
X147803442Y-81011990D01*
X147803442Y-81163757D01*
X147800000Y-81181061D01*
X147800001Y-86818940D01*
X147803442Y-86836239D01*
X147803442Y-86988010D01*
X147985607Y-87427796D01*
X148322204Y-87764393D01*
X148761990Y-87946558D01*
X149238010Y-87946558D01*
X149677796Y-87764393D01*
X150014393Y-87427796D01*
X150125000Y-87160767D01*
X150125000Y-92125000D01*
X145711555Y-92125000D01*
X145650000Y-92112756D01*
X143650000Y-92112756D01*
X143588445Y-92125000D01*
X139500000Y-92125000D01*
X139452165Y-92134515D01*
X139411612Y-92161612D01*
X139384515Y-92202165D01*
X139375000Y-92250000D01*
X139375000Y-97875000D01*
X130125000Y-97875000D01*
X130125000Y-95653628D01*
X130325000Y-95170785D01*
X130325000Y-93629215D01*
X130125000Y-93146372D01*
X130125000Y-92566898D01*
X131561620Y-91609152D01*
X135777942Y-89625000D01*
X145000000Y-89625000D01*
X145047835Y-89615485D01*
X145088388Y-89588388D01*
X145115485Y-89547835D01*
X145125000Y-89500000D01*
X145125000Y-79875000D01*
X150125000Y-79875000D01*
X150125000Y-80839233D01*
X150125000Y-80839233D01*
G37*
X150125000Y-80839233D02*
X150014393Y-80572204D01*
X149677796Y-80235607D01*
X149238010Y-80053442D01*
X148761990Y-80053442D01*
X148322204Y-80235607D01*
X147985607Y-80572204D01*
X147803442Y-81011990D01*
X147803442Y-81163757D01*
X147800000Y-81181061D01*
X147800001Y-86818940D01*
X147803442Y-86836239D01*
X147803442Y-86988010D01*
X147985607Y-87427796D01*
X148322204Y-87764393D01*
X148761990Y-87946558D01*
X149238010Y-87946558D01*
X149677796Y-87764393D01*
X150014393Y-87427796D01*
X150125000Y-87160767D01*
X150125000Y-92125000D01*
X145711555Y-92125000D01*
X145650000Y-92112756D01*
X143650000Y-92112756D01*
X143588445Y-92125000D01*
X139500000Y-92125000D01*
X139452165Y-92134515D01*
X139411612Y-92161612D01*
X139384515Y-92202165D01*
X139375000Y-92250000D01*
X139375000Y-97875000D01*
X130125000Y-97875000D01*
X130125000Y-95653628D01*
X130325000Y-95170785D01*
X130325000Y-93629215D01*
X130125000Y-93146372D01*
X130125000Y-92566898D01*
X131561620Y-91609152D01*
X135777942Y-89625000D01*
X145000000Y-89625000D01*
X145047835Y-89615485D01*
X145088388Y-89588388D01*
X145115485Y-89547835D01*
X145125000Y-89500000D01*
X145125000Y-79875000D01*
X150125000Y-79875000D01*
X150125000Y-80839233D01*
G04 #@! TO.N,/Fun_Out*
G36*
X150125000Y-66330415D02*
X150092452Y-66281704D01*
X149975122Y-65998444D01*
X149651556Y-65674878D01*
X149228796Y-65499765D01*
X148771204Y-65499765D01*
X148348444Y-65674878D01*
X148024878Y-65998444D01*
X147907547Y-66281706D01*
X147817066Y-66417119D01*
X147775001Y-66628596D01*
X147775000Y-72371403D01*
X147817065Y-72582880D01*
X147969772Y-72811420D01*
X148027181Y-72950017D01*
X148349983Y-73272819D01*
X148771744Y-73447519D01*
X149228256Y-73447519D01*
X149650017Y-73272819D01*
X149972819Y-72950017D01*
X150030227Y-72811423D01*
X150125000Y-72669586D01*
X150125000Y-73625000D01*
X145125000Y-73625000D01*
X145125000Y-65000000D01*
X145115485Y-64952165D01*
X145088388Y-64911612D01*
X145047835Y-64884515D01*
X145000000Y-64875000D01*
X138250000Y-64875000D01*
X138202165Y-64884515D01*
X138161612Y-64911612D01*
X138134515Y-64952165D01*
X138125000Y-65000000D01*
X138125000Y-65375000D01*
X130375000Y-65375000D01*
X130375000Y-58875000D01*
X150125000Y-58875000D01*
X150125000Y-66330415D01*
X150125000Y-66330415D01*
G37*
X150125000Y-66330415D02*
X150092452Y-66281704D01*
X149975122Y-65998444D01*
X149651556Y-65674878D01*
X149228796Y-65499765D01*
X148771204Y-65499765D01*
X148348444Y-65674878D01*
X148024878Y-65998444D01*
X147907547Y-66281706D01*
X147817066Y-66417119D01*
X147775001Y-66628596D01*
X147775000Y-72371403D01*
X147817065Y-72582880D01*
X147969772Y-72811420D01*
X148027181Y-72950017D01*
X148349983Y-73272819D01*
X148771744Y-73447519D01*
X149228256Y-73447519D01*
X149650017Y-73272819D01*
X149972819Y-72950017D01*
X150030227Y-72811423D01*
X150125000Y-72669586D01*
X150125000Y-73625000D01*
X145125000Y-73625000D01*
X145125000Y-65000000D01*
X145115485Y-64952165D01*
X145088388Y-64911612D01*
X145047835Y-64884515D01*
X145000000Y-64875000D01*
X138250000Y-64875000D01*
X138202165Y-64884515D01*
X138161612Y-64911612D01*
X138134515Y-64952165D01*
X138125000Y-65000000D01*
X138125000Y-65375000D01*
X130375000Y-65375000D01*
X130375000Y-58875000D01*
X150125000Y-58875000D01*
X150125000Y-66330415D01*
G04 #@! TO.N,GNDPWR*
G36*
X170375000Y-72901494D02*
X170307144Y-72856154D01*
X169975000Y-72524011D01*
X169975000Y-71889252D01*
X170038737Y-71793863D01*
X170087244Y-71550000D01*
X170087244Y-70550000D01*
X170038737Y-70306137D01*
X170014591Y-70270000D01*
X170038737Y-70233863D01*
X170087244Y-69990000D01*
X170087244Y-68990000D01*
X170038737Y-68746137D01*
X169900600Y-68539400D01*
X169693863Y-68401263D01*
X169450000Y-68352756D01*
X168250000Y-68352756D01*
X168230535Y-68356628D01*
X168007367Y-68022633D01*
X167644241Y-67780000D01*
X168007367Y-67537367D01*
X168322320Y-67066007D01*
X168432917Y-66510000D01*
X168322320Y-65953993D01*
X168007367Y-65482633D01*
X167536007Y-65167680D01*
X167120348Y-65085000D01*
X166839652Y-65085000D01*
X166423993Y-65167680D01*
X166098751Y-65385000D01*
X165837244Y-65385000D01*
X165837244Y-65300000D01*
X165788737Y-65056137D01*
X165764591Y-65020000D01*
X165788737Y-64983863D01*
X165837244Y-64740000D01*
X165837244Y-63740000D01*
X165788737Y-63496137D01*
X165725000Y-63400748D01*
X165725000Y-63175000D01*
X166218437Y-63175000D01*
X166245263Y-63309863D01*
X166383400Y-63516600D01*
X166590137Y-63654737D01*
X166834000Y-63703244D01*
X168866000Y-63703244D01*
X169109863Y-63654737D01*
X169316600Y-63516600D01*
X169454737Y-63309863D01*
X169503244Y-63066000D01*
X169503244Y-61034000D01*
X169454737Y-60790137D01*
X169316600Y-60583400D01*
X169171273Y-60486296D01*
X169395788Y-60150286D01*
X169523149Y-59510000D01*
X169395788Y-58869714D01*
X169033095Y-58326905D01*
X168490286Y-57964212D01*
X168011624Y-57869000D01*
X167688376Y-57869000D01*
X167209714Y-57964212D01*
X166675000Y-58321496D01*
X166675000Y-57190801D01*
X166697040Y-57079999D01*
X166646854Y-56827699D01*
X166609727Y-56641047D01*
X166361080Y-56268920D01*
X166267142Y-56206153D01*
X165883848Y-55822859D01*
X165821080Y-55728920D01*
X165448953Y-55480273D01*
X165120803Y-55415000D01*
X165120802Y-55415000D01*
X165010000Y-55392960D01*
X164899198Y-55415000D01*
X161310801Y-55415000D01*
X161199999Y-55392960D01*
X161089197Y-55415000D01*
X160761047Y-55480273D01*
X160388920Y-55728920D01*
X160326154Y-55822856D01*
X158712857Y-57436154D01*
X158618921Y-57498920D01*
X158512505Y-57658183D01*
X158370274Y-57871047D01*
X158282960Y-58310000D01*
X158305001Y-58420806D01*
X158305000Y-63690113D01*
X158243863Y-63649263D01*
X158000000Y-63600756D01*
X152000000Y-63600756D01*
X151756137Y-63649263D01*
X151549400Y-63787400D01*
X151411263Y-63994137D01*
X151362756Y-64238000D01*
X151362756Y-65762000D01*
X151411263Y-66005863D01*
X151549400Y-66212600D01*
X151756137Y-66350737D01*
X152000000Y-66399244D01*
X158000000Y-66399244D01*
X158243863Y-66350737D01*
X158450600Y-66212600D01*
X158509132Y-66125000D01*
X158889198Y-66125000D01*
X159000000Y-66147040D01*
X159110802Y-66125000D01*
X159110803Y-66125000D01*
X159438953Y-66059727D01*
X159811080Y-65811080D01*
X159873848Y-65717141D01*
X160147142Y-65443847D01*
X160241080Y-65381080D01*
X160489727Y-65008953D01*
X160555000Y-64680803D01*
X160555000Y-64680802D01*
X160577040Y-64570000D01*
X160555000Y-64459198D01*
X160555000Y-58775989D01*
X161665990Y-57665000D01*
X162848484Y-57665000D01*
X162799350Y-57697830D01*
X162661213Y-57904567D01*
X162612706Y-58148430D01*
X162612706Y-58576334D01*
X162590273Y-58609907D01*
X162525000Y-58938057D01*
X162525000Y-59083250D01*
X161532807Y-60075444D01*
X161438871Y-60138210D01*
X161290462Y-60360320D01*
X161190224Y-60510337D01*
X161102910Y-60949290D01*
X161124951Y-61060096D01*
X161124950Y-64939148D01*
X161102910Y-65049950D01*
X161124950Y-65160752D01*
X161190223Y-65488902D01*
X161438870Y-65861030D01*
X161532808Y-65923798D01*
X162126154Y-66517144D01*
X162188920Y-66611080D01*
X162561047Y-66859727D01*
X162889197Y-66925000D01*
X162889198Y-66925000D01*
X163000000Y-66947040D01*
X163110802Y-66925000D01*
X163938445Y-66925000D01*
X164000000Y-66937244D01*
X164146255Y-66937244D01*
X164436152Y-67227141D01*
X164498920Y-67321080D01*
X164775711Y-67506026D01*
X164871046Y-67569727D01*
X165310000Y-67657040D01*
X165420803Y-67635000D01*
X166098751Y-67635000D01*
X166315759Y-67780000D01*
X165952633Y-68022633D01*
X165637680Y-68493993D01*
X165527083Y-69050000D01*
X165637680Y-69606007D01*
X165952633Y-70077367D01*
X166423993Y-70392320D01*
X166839652Y-70475000D01*
X166869210Y-70475000D01*
X166981047Y-70549727D01*
X167309197Y-70615000D01*
X167612756Y-70615000D01*
X167612756Y-71550000D01*
X167661263Y-71793863D01*
X167725001Y-71889253D01*
X167725000Y-72879198D01*
X167702960Y-72990000D01*
X167725000Y-73100802D01*
X167790273Y-73428952D01*
X168038920Y-73801080D01*
X168132858Y-73863848D01*
X168465001Y-74195990D01*
X168465000Y-81144010D01*
X166722857Y-82886154D01*
X166628921Y-82948920D01*
X166397458Y-83295329D01*
X166380274Y-83321047D01*
X166292960Y-83760000D01*
X166315001Y-83870806D01*
X166315000Y-93224010D01*
X164124011Y-95415000D01*
X163766767Y-95415000D01*
X163169511Y-95662391D01*
X162916902Y-95915000D01*
X158691347Y-95915000D01*
X158480000Y-95872960D01*
X158479999Y-95872960D01*
X158041046Y-95960274D01*
X157762854Y-96146156D01*
X157762851Y-96146159D01*
X157668921Y-96208921D01*
X157606159Y-96302852D01*
X155889904Y-98019106D01*
X155527770Y-98169107D01*
X155169107Y-98527770D01*
X155019107Y-98889903D01*
X150684011Y-103225000D01*
X149840529Y-103225000D01*
X149890802Y-103215000D01*
X149890803Y-103215000D01*
X150218953Y-103149727D01*
X150591080Y-102901080D01*
X150653848Y-102807141D01*
X154437145Y-99023845D01*
X154531080Y-98961080D01*
X154779727Y-98588953D01*
X154845000Y-98260803D01*
X154845000Y-98260802D01*
X154867040Y-98150001D01*
X154845000Y-98039199D01*
X154845000Y-94987244D01*
X155659946Y-94987244D01*
X155661263Y-94993863D01*
X155799400Y-95200600D01*
X156006137Y-95338737D01*
X156250000Y-95387244D01*
X158250000Y-95387244D01*
X158493863Y-95338737D01*
X158700600Y-95200600D01*
X158838737Y-94993863D01*
X158887244Y-94750000D01*
X158887244Y-92750000D01*
X158838737Y-92506137D01*
X158700600Y-92299400D01*
X158493863Y-92161263D01*
X158250000Y-92112756D01*
X156250000Y-92112756D01*
X156006137Y-92161263D01*
X155799400Y-92299400D01*
X155661263Y-92506137D01*
X155659946Y-92512756D01*
X154845000Y-92512756D01*
X154845000Y-90245989D01*
X155191746Y-89899244D01*
X158000000Y-89899244D01*
X158243863Y-89850737D01*
X158450600Y-89712600D01*
X158509132Y-89625000D01*
X158889198Y-89625000D01*
X159000000Y-89647040D01*
X159110802Y-89625000D01*
X159110803Y-89625000D01*
X159438953Y-89559727D01*
X159811080Y-89311080D01*
X159873848Y-89217141D01*
X161017144Y-88073846D01*
X161111080Y-88011080D01*
X161293546Y-87738000D01*
X161359727Y-87638954D01*
X161447040Y-87200000D01*
X161425000Y-87089197D01*
X161425000Y-83245989D01*
X164077147Y-80593844D01*
X164171080Y-80531080D01*
X164233845Y-80437146D01*
X164419727Y-80158954D01*
X164507040Y-79720000D01*
X164485000Y-79609197D01*
X164485000Y-77497244D01*
X165420000Y-77497244D01*
X165663863Y-77448737D01*
X165759252Y-77385000D01*
X166008751Y-77385000D01*
X166333993Y-77602320D01*
X166749652Y-77685000D01*
X167030348Y-77685000D01*
X167446007Y-77602320D01*
X167917367Y-77287367D01*
X168232320Y-76816007D01*
X168342917Y-76260000D01*
X168232320Y-75703993D01*
X167917367Y-75232633D01*
X167446007Y-74917680D01*
X167030348Y-74835000D01*
X166749652Y-74835000D01*
X166333993Y-74917680D01*
X166008751Y-75135000D01*
X165759252Y-75135000D01*
X165663863Y-75071263D01*
X165420000Y-75022756D01*
X164420000Y-75022756D01*
X164176137Y-75071263D01*
X164140000Y-75095409D01*
X164103863Y-75071263D01*
X163860000Y-75022756D01*
X162860000Y-75022756D01*
X162616137Y-75071263D01*
X162409400Y-75209400D01*
X162271263Y-75416137D01*
X162222756Y-75660000D01*
X162222756Y-76860000D01*
X162235001Y-76921559D01*
X162235000Y-79254009D01*
X159582857Y-81906154D01*
X159488921Y-81968920D01*
X159384632Y-82125000D01*
X159240274Y-82341047D01*
X159152960Y-82780000D01*
X159175001Y-82890806D01*
X159175000Y-86734010D01*
X158534011Y-87375000D01*
X158509132Y-87375000D01*
X158450600Y-87287400D01*
X158243863Y-87149263D01*
X158000000Y-87100756D01*
X152000000Y-87100756D01*
X151756137Y-87149263D01*
X151549400Y-87287400D01*
X151411263Y-87494137D01*
X151362756Y-87738000D01*
X151362756Y-89262000D01*
X151411263Y-89505863D01*
X151549400Y-89712600D01*
X151756137Y-89850737D01*
X152000000Y-89899244D01*
X152595001Y-89899244D01*
X152595000Y-93088444D01*
X152582756Y-93150000D01*
X152582756Y-94350000D01*
X152595000Y-94411555D01*
X152595000Y-95460802D01*
X152595001Y-95460807D01*
X152595000Y-97684010D01*
X149314011Y-100965000D01*
X149266086Y-100965000D01*
X149021318Y-100598681D01*
X148566497Y-100294779D01*
X148030000Y-100188063D01*
X147493502Y-100294779D01*
X147038681Y-100598682D01*
X146780000Y-100985825D01*
X146521318Y-100598681D01*
X146066497Y-100294779D01*
X145530000Y-100188063D01*
X144993502Y-100294779D01*
X144538681Y-100598682D01*
X144293915Y-100965000D01*
X141766086Y-100965000D01*
X141521318Y-100598681D01*
X141066497Y-100294779D01*
X140765987Y-100235004D01*
X141587147Y-99413844D01*
X141681080Y-99351080D01*
X141748619Y-99250001D01*
X141929727Y-98978954D01*
X142017040Y-98540000D01*
X141995000Y-98429197D01*
X141995000Y-94987244D01*
X142930000Y-94987244D01*
X143055001Y-94962380D01*
X143061263Y-94993863D01*
X143199400Y-95200600D01*
X143406137Y-95338737D01*
X143650000Y-95387244D01*
X145650000Y-95387244D01*
X145893863Y-95338737D01*
X146100600Y-95200600D01*
X146238737Y-94993863D01*
X146287244Y-94750000D01*
X146287244Y-92875000D01*
X150250000Y-92875000D01*
X150489177Y-92827425D01*
X150691942Y-92691942D01*
X150827425Y-92489177D01*
X150875000Y-92250000D01*
X150875000Y-83238000D01*
X151362756Y-83238000D01*
X151362756Y-84762000D01*
X151411263Y-85005863D01*
X151549400Y-85212600D01*
X151756137Y-85350737D01*
X152000000Y-85399244D01*
X158000000Y-85399244D01*
X158243863Y-85350737D01*
X158450600Y-85212600D01*
X158588737Y-85005863D01*
X158637244Y-84762000D01*
X158637244Y-83238000D01*
X158588737Y-82994137D01*
X158450600Y-82787400D01*
X158243863Y-82649263D01*
X158000000Y-82600756D01*
X152000000Y-82600756D01*
X151756137Y-82649263D01*
X151549400Y-82787400D01*
X151411263Y-82994137D01*
X151362756Y-83238000D01*
X150875000Y-83238000D01*
X150875000Y-79750000D01*
X150827425Y-79510823D01*
X150691942Y-79308058D01*
X150489177Y-79172575D01*
X150250000Y-79125000D01*
X145125000Y-79125000D01*
X145125000Y-74375000D01*
X150250000Y-74375000D01*
X150489177Y-74327425D01*
X150691942Y-74191942D01*
X150827425Y-73989177D01*
X150875000Y-73750000D01*
X150875000Y-73238000D01*
X151362756Y-73238000D01*
X151362756Y-74762000D01*
X151411263Y-75005863D01*
X151549400Y-75212600D01*
X151756137Y-75350737D01*
X152000000Y-75399244D01*
X153875001Y-75399244D01*
X153875000Y-78100756D01*
X152000000Y-78100756D01*
X151756137Y-78149263D01*
X151549400Y-78287400D01*
X151411263Y-78494137D01*
X151362756Y-78738000D01*
X151362756Y-80262000D01*
X151411263Y-80505863D01*
X151549400Y-80712600D01*
X151756137Y-80850737D01*
X152000000Y-80899244D01*
X158000000Y-80899244D01*
X158243863Y-80850737D01*
X158450600Y-80712600D01*
X158588737Y-80505863D01*
X158637244Y-80262000D01*
X158637244Y-78738000D01*
X158588737Y-78494137D01*
X158450600Y-78287400D01*
X158243863Y-78149263D01*
X158000000Y-78100756D01*
X156125000Y-78100756D01*
X156125000Y-75399244D01*
X158000000Y-75399244D01*
X158243863Y-75350737D01*
X158450600Y-75212600D01*
X158588737Y-75005863D01*
X158637244Y-74762000D01*
X158637244Y-73238000D01*
X158588737Y-72994137D01*
X158450600Y-72787400D01*
X158243863Y-72649263D01*
X158000000Y-72600756D01*
X152000000Y-72600756D01*
X151756137Y-72649263D01*
X151549400Y-72787400D01*
X151411263Y-72994137D01*
X151362756Y-73238000D01*
X150875000Y-73238000D01*
X150875000Y-68738000D01*
X151362756Y-68738000D01*
X151362756Y-70262000D01*
X151411263Y-70505863D01*
X151549400Y-70712600D01*
X151756137Y-70850737D01*
X152000000Y-70899244D01*
X158000000Y-70899244D01*
X158243863Y-70850737D01*
X158450600Y-70712600D01*
X158588737Y-70505863D01*
X158637244Y-70262000D01*
X158637244Y-68738000D01*
X158588737Y-68494137D01*
X158450600Y-68287400D01*
X158243863Y-68149263D01*
X158000000Y-68100756D01*
X152000000Y-68100756D01*
X151756137Y-68149263D01*
X151549400Y-68287400D01*
X151411263Y-68494137D01*
X151362756Y-68738000D01*
X150875000Y-68738000D01*
X150875000Y-58750000D01*
X150827425Y-58510823D01*
X150691942Y-58308058D01*
X150489177Y-58172575D01*
X150250000Y-58125000D01*
X134625000Y-58125000D01*
X134625000Y-58014025D01*
X134718097Y-57874695D01*
X134766604Y-57630832D01*
X134718097Y-57386969D01*
X134579960Y-57180232D01*
X133872854Y-56473126D01*
X133666117Y-56334989D01*
X133623490Y-56326510D01*
X133615011Y-56283883D01*
X133476874Y-56077146D01*
X132837244Y-55437516D01*
X132837244Y-54550000D01*
X132788737Y-54306137D01*
X132650600Y-54099400D01*
X132443863Y-53961263D01*
X132200000Y-53912756D01*
X130200000Y-53912756D01*
X129956137Y-53961263D01*
X129749400Y-54099400D01*
X129611263Y-54306137D01*
X129562756Y-54550000D01*
X129562756Y-56550000D01*
X129611263Y-56793863D01*
X129749400Y-57000600D01*
X129956137Y-57138737D01*
X130200000Y-57187244D01*
X131087516Y-57187244D01*
X131727146Y-57826874D01*
X131933883Y-57965011D01*
X131976510Y-57973490D01*
X131984989Y-58016117D01*
X132057742Y-58125000D01*
X130250000Y-58125000D01*
X130010823Y-58172575D01*
X129808058Y-58308058D01*
X129672575Y-58510823D01*
X129625000Y-58750000D01*
X129625000Y-65500000D01*
X129672575Y-65739177D01*
X129808058Y-65941942D01*
X130010823Y-66077425D01*
X130250000Y-66125000D01*
X137875000Y-66125000D01*
X137875000Y-72375000D01*
X134559873Y-72375000D01*
X134529960Y-72330232D01*
X133822854Y-71623126D01*
X133616117Y-71484989D01*
X133573490Y-71476510D01*
X133565011Y-71433883D01*
X133426874Y-71227146D01*
X132719768Y-70520040D01*
X132587244Y-70431490D01*
X132587244Y-69700000D01*
X132538737Y-69456137D01*
X132400600Y-69249400D01*
X132193863Y-69111263D01*
X131950000Y-69062756D01*
X129950000Y-69062756D01*
X129706137Y-69111263D01*
X129499400Y-69249400D01*
X129361263Y-69456137D01*
X129312756Y-69700000D01*
X129312756Y-71700000D01*
X129361263Y-71943863D01*
X129499400Y-72150600D01*
X129706137Y-72288737D01*
X129950000Y-72337244D01*
X131037516Y-72337244D01*
X131075272Y-72375000D01*
X131000000Y-72375000D01*
X130760823Y-72422575D01*
X130558058Y-72558058D01*
X130422575Y-72760823D01*
X130375000Y-73000000D01*
X130375000Y-74494922D01*
X130164933Y-74704989D01*
X129575000Y-76129215D01*
X129575000Y-77670785D01*
X130018213Y-78740797D01*
X121782858Y-86976153D01*
X121688919Y-87038921D01*
X121440272Y-87411049D01*
X121374999Y-87739198D01*
X121352959Y-87850001D01*
X121374999Y-87960803D01*
X121375000Y-97219193D01*
X121352959Y-97329999D01*
X121382851Y-97480273D01*
X121440273Y-97768952D01*
X121688920Y-98141079D01*
X121782856Y-98203845D01*
X123296154Y-99717144D01*
X123358920Y-99811080D01*
X123731047Y-100059727D01*
X124059197Y-100125000D01*
X124169999Y-100147040D01*
X124280801Y-100125000D01*
X128110803Y-100125000D01*
X128275479Y-100092244D01*
X128610000Y-100092244D01*
X128853863Y-100043737D01*
X129060600Y-99905600D01*
X129198737Y-99698863D01*
X129247244Y-99455000D01*
X129247244Y-98545000D01*
X129198737Y-98301137D01*
X129060600Y-98094400D01*
X128853863Y-97956263D01*
X128610000Y-97907756D01*
X128275479Y-97907756D01*
X128110803Y-97875000D01*
X124635990Y-97875000D01*
X123624999Y-96864010D01*
X123624999Y-88315990D01*
X130385948Y-81555041D01*
X130422575Y-81739177D01*
X130558058Y-81941942D01*
X130760823Y-82077425D01*
X131000000Y-82125000D01*
X137875000Y-82125000D01*
X137875000Y-88875000D01*
X135750000Y-88875000D01*
X135483877Y-88934488D01*
X134090108Y-89590380D01*
X133822854Y-89323126D01*
X133616117Y-89184989D01*
X133573490Y-89176510D01*
X133565011Y-89133883D01*
X133426874Y-88927146D01*
X133155389Y-88655661D01*
X133009537Y-88437377D01*
X132915601Y-88374611D01*
X132587244Y-88046254D01*
X132587244Y-87000000D01*
X132538737Y-86756137D01*
X132400600Y-86549400D01*
X132193863Y-86411263D01*
X131950000Y-86362756D01*
X129950000Y-86362756D01*
X129706137Y-86411263D01*
X129499400Y-86549400D01*
X129361263Y-86756137D01*
X129312756Y-87000000D01*
X129312756Y-89000000D01*
X129361263Y-89243863D01*
X129499400Y-89450600D01*
X129706137Y-89588737D01*
X129950000Y-89637244D01*
X130806883Y-89637244D01*
X130831903Y-89763031D01*
X130970040Y-89969768D01*
X131677146Y-90676874D01*
X131720190Y-90705635D01*
X131233877Y-90934488D01*
X131153312Y-90979969D01*
X129653312Y-91979969D01*
X129558058Y-92058058D01*
X129422575Y-92260823D01*
X129375000Y-92500000D01*
X129375000Y-98000000D01*
X129422575Y-98239177D01*
X129558058Y-98441942D01*
X129760823Y-98577425D01*
X130000000Y-98625000D01*
X139194010Y-98625000D01*
X137531862Y-100287149D01*
X137493502Y-100294779D01*
X137392198Y-100362469D01*
X137329198Y-100375000D01*
X132791251Y-100375000D01*
X132536498Y-100204779D01*
X132135422Y-100125000D01*
X130864578Y-100125000D01*
X130463502Y-100204779D01*
X130008681Y-100508681D01*
X129704779Y-100963502D01*
X129598063Y-101500000D01*
X129704779Y-102036498D01*
X130008681Y-102491319D01*
X130395824Y-102750000D01*
X130208749Y-102875000D01*
X130195990Y-102875000D01*
X129247244Y-101926255D01*
X129247244Y-101815000D01*
X129198737Y-101571137D01*
X129060600Y-101364400D01*
X128853863Y-101226263D01*
X128610000Y-101177756D01*
X128275476Y-101177756D01*
X128000000Y-101122960D01*
X127724524Y-101177756D01*
X127390000Y-101177756D01*
X127146137Y-101226263D01*
X126939400Y-101364400D01*
X126801263Y-101571137D01*
X126752756Y-101815000D01*
X126752756Y-102725000D01*
X126801263Y-102968863D01*
X126939400Y-103175600D01*
X127146137Y-103313737D01*
X127390000Y-103362244D01*
X127501255Y-103362244D01*
X128856154Y-104717144D01*
X128918920Y-104811080D01*
X129291047Y-105059727D01*
X129619197Y-105125000D01*
X129729999Y-105147040D01*
X129840801Y-105125000D01*
X130208749Y-105125000D01*
X130463502Y-105295221D01*
X130864578Y-105375000D01*
X132135422Y-105375000D01*
X132536498Y-105295221D01*
X132991319Y-104991319D01*
X133295221Y-104536498D01*
X133401937Y-104000000D01*
X133295221Y-103463502D01*
X132991319Y-103008681D01*
X132604176Y-102750000D01*
X132791251Y-102625000D01*
X136655000Y-102625000D01*
X136655000Y-102725422D01*
X136734779Y-103126498D01*
X136950443Y-103449261D01*
X136970273Y-103548953D01*
X137218921Y-103921080D01*
X137312857Y-103983846D01*
X138396154Y-105067144D01*
X138458920Y-105161080D01*
X138831047Y-105409727D01*
X139159197Y-105475000D01*
X139159198Y-105475000D01*
X139270000Y-105497040D01*
X139380802Y-105475000D01*
X151039198Y-105475000D01*
X151150000Y-105497040D01*
X151260802Y-105475000D01*
X151260803Y-105475000D01*
X151588953Y-105409727D01*
X151961080Y-105161080D01*
X152023848Y-105067141D01*
X156610097Y-100480893D01*
X156972230Y-100330893D01*
X157330893Y-99972230D01*
X157480894Y-99610096D01*
X158925990Y-98165000D01*
X162916902Y-98165000D01*
X163169511Y-98417609D01*
X163766767Y-98665000D01*
X164413233Y-98665000D01*
X165010489Y-98417609D01*
X165467609Y-97960489D01*
X165715000Y-97363233D01*
X165715000Y-97005989D01*
X168157145Y-94563845D01*
X168251080Y-94501080D01*
X168499727Y-94128953D01*
X168565000Y-93800803D01*
X168565000Y-93800802D01*
X168587040Y-93690001D01*
X168565000Y-93579199D01*
X168565000Y-84225989D01*
X170307144Y-82483845D01*
X170375000Y-82438506D01*
X170375000Y-106300000D01*
X125826525Y-106300000D01*
X126073127Y-106053398D01*
X126625000Y-104721057D01*
X126625000Y-103278943D01*
X126073127Y-101946602D01*
X125053398Y-100926873D01*
X123721057Y-100375000D01*
X122278943Y-100375000D01*
X120946602Y-100926873D01*
X120700000Y-101173475D01*
X120700000Y-57826525D01*
X120946602Y-58073127D01*
X122278943Y-58625000D01*
X123721057Y-58625000D01*
X125053398Y-58073127D01*
X126073127Y-57053398D01*
X126625000Y-55721057D01*
X126625000Y-54278943D01*
X126073127Y-52946602D01*
X125826525Y-52700000D01*
X170375000Y-52700000D01*
X170375000Y-72901494D01*
X170375000Y-72901494D01*
G37*
X170375000Y-72901494D02*
X170307144Y-72856154D01*
X169975000Y-72524011D01*
X169975000Y-71889252D01*
X170038737Y-71793863D01*
X170087244Y-71550000D01*
X170087244Y-70550000D01*
X170038737Y-70306137D01*
X170014591Y-70270000D01*
X170038737Y-70233863D01*
X170087244Y-69990000D01*
X170087244Y-68990000D01*
X170038737Y-68746137D01*
X169900600Y-68539400D01*
X169693863Y-68401263D01*
X169450000Y-68352756D01*
X168250000Y-68352756D01*
X168230535Y-68356628D01*
X168007367Y-68022633D01*
X167644241Y-67780000D01*
X168007367Y-67537367D01*
X168322320Y-67066007D01*
X168432917Y-66510000D01*
X168322320Y-65953993D01*
X168007367Y-65482633D01*
X167536007Y-65167680D01*
X167120348Y-65085000D01*
X166839652Y-65085000D01*
X166423993Y-65167680D01*
X166098751Y-65385000D01*
X165837244Y-65385000D01*
X165837244Y-65300000D01*
X165788737Y-65056137D01*
X165764591Y-65020000D01*
X165788737Y-64983863D01*
X165837244Y-64740000D01*
X165837244Y-63740000D01*
X165788737Y-63496137D01*
X165725000Y-63400748D01*
X165725000Y-63175000D01*
X166218437Y-63175000D01*
X166245263Y-63309863D01*
X166383400Y-63516600D01*
X166590137Y-63654737D01*
X166834000Y-63703244D01*
X168866000Y-63703244D01*
X169109863Y-63654737D01*
X169316600Y-63516600D01*
X169454737Y-63309863D01*
X169503244Y-63066000D01*
X169503244Y-61034000D01*
X169454737Y-60790137D01*
X169316600Y-60583400D01*
X169171273Y-60486296D01*
X169395788Y-60150286D01*
X169523149Y-59510000D01*
X169395788Y-58869714D01*
X169033095Y-58326905D01*
X168490286Y-57964212D01*
X168011624Y-57869000D01*
X167688376Y-57869000D01*
X167209714Y-57964212D01*
X166675000Y-58321496D01*
X166675000Y-57190801D01*
X166697040Y-57079999D01*
X166646854Y-56827699D01*
X166609727Y-56641047D01*
X166361080Y-56268920D01*
X166267142Y-56206153D01*
X165883848Y-55822859D01*
X165821080Y-55728920D01*
X165448953Y-55480273D01*
X165120803Y-55415000D01*
X165120802Y-55415000D01*
X165010000Y-55392960D01*
X164899198Y-55415000D01*
X161310801Y-55415000D01*
X161199999Y-55392960D01*
X161089197Y-55415000D01*
X160761047Y-55480273D01*
X160388920Y-55728920D01*
X160326154Y-55822856D01*
X158712857Y-57436154D01*
X158618921Y-57498920D01*
X158512505Y-57658183D01*
X158370274Y-57871047D01*
X158282960Y-58310000D01*
X158305001Y-58420806D01*
X158305000Y-63690113D01*
X158243863Y-63649263D01*
X158000000Y-63600756D01*
X152000000Y-63600756D01*
X151756137Y-63649263D01*
X151549400Y-63787400D01*
X151411263Y-63994137D01*
X151362756Y-64238000D01*
X151362756Y-65762000D01*
X151411263Y-66005863D01*
X151549400Y-66212600D01*
X151756137Y-66350737D01*
X152000000Y-66399244D01*
X158000000Y-66399244D01*
X158243863Y-66350737D01*
X158450600Y-66212600D01*
X158509132Y-66125000D01*
X158889198Y-66125000D01*
X159000000Y-66147040D01*
X159110802Y-66125000D01*
X159110803Y-66125000D01*
X159438953Y-66059727D01*
X159811080Y-65811080D01*
X159873848Y-65717141D01*
X160147142Y-65443847D01*
X160241080Y-65381080D01*
X160489727Y-65008953D01*
X160555000Y-64680803D01*
X160555000Y-64680802D01*
X160577040Y-64570000D01*
X160555000Y-64459198D01*
X160555000Y-58775989D01*
X161665990Y-57665000D01*
X162848484Y-57665000D01*
X162799350Y-57697830D01*
X162661213Y-57904567D01*
X162612706Y-58148430D01*
X162612706Y-58576334D01*
X162590273Y-58609907D01*
X162525000Y-58938057D01*
X162525000Y-59083250D01*
X161532807Y-60075444D01*
X161438871Y-60138210D01*
X161290462Y-60360320D01*
X161190224Y-60510337D01*
X161102910Y-60949290D01*
X161124951Y-61060096D01*
X161124950Y-64939148D01*
X161102910Y-65049950D01*
X161124950Y-65160752D01*
X161190223Y-65488902D01*
X161438870Y-65861030D01*
X161532808Y-65923798D01*
X162126154Y-66517144D01*
X162188920Y-66611080D01*
X162561047Y-66859727D01*
X162889197Y-66925000D01*
X162889198Y-66925000D01*
X163000000Y-66947040D01*
X163110802Y-66925000D01*
X163938445Y-66925000D01*
X164000000Y-66937244D01*
X164146255Y-66937244D01*
X164436152Y-67227141D01*
X164498920Y-67321080D01*
X164775711Y-67506026D01*
X164871046Y-67569727D01*
X165310000Y-67657040D01*
X165420803Y-67635000D01*
X166098751Y-67635000D01*
X166315759Y-67780000D01*
X165952633Y-68022633D01*
X165637680Y-68493993D01*
X165527083Y-69050000D01*
X165637680Y-69606007D01*
X165952633Y-70077367D01*
X166423993Y-70392320D01*
X166839652Y-70475000D01*
X166869210Y-70475000D01*
X166981047Y-70549727D01*
X167309197Y-70615000D01*
X167612756Y-70615000D01*
X167612756Y-71550000D01*
X167661263Y-71793863D01*
X167725001Y-71889253D01*
X167725000Y-72879198D01*
X167702960Y-72990000D01*
X167725000Y-73100802D01*
X167790273Y-73428952D01*
X168038920Y-73801080D01*
X168132858Y-73863848D01*
X168465001Y-74195990D01*
X168465000Y-81144010D01*
X166722857Y-82886154D01*
X166628921Y-82948920D01*
X166397458Y-83295329D01*
X166380274Y-83321047D01*
X166292960Y-83760000D01*
X166315001Y-83870806D01*
X166315000Y-93224010D01*
X164124011Y-95415000D01*
X163766767Y-95415000D01*
X163169511Y-95662391D01*
X162916902Y-95915000D01*
X158691347Y-95915000D01*
X158480000Y-95872960D01*
X158479999Y-95872960D01*
X158041046Y-95960274D01*
X157762854Y-96146156D01*
X157762851Y-96146159D01*
X157668921Y-96208921D01*
X157606159Y-96302852D01*
X155889904Y-98019106D01*
X155527770Y-98169107D01*
X155169107Y-98527770D01*
X155019107Y-98889903D01*
X150684011Y-103225000D01*
X149840529Y-103225000D01*
X149890802Y-103215000D01*
X149890803Y-103215000D01*
X150218953Y-103149727D01*
X150591080Y-102901080D01*
X150653848Y-102807141D01*
X154437145Y-99023845D01*
X154531080Y-98961080D01*
X154779727Y-98588953D01*
X154845000Y-98260803D01*
X154845000Y-98260802D01*
X154867040Y-98150001D01*
X154845000Y-98039199D01*
X154845000Y-94987244D01*
X155659946Y-94987244D01*
X155661263Y-94993863D01*
X155799400Y-95200600D01*
X156006137Y-95338737D01*
X156250000Y-95387244D01*
X158250000Y-95387244D01*
X158493863Y-95338737D01*
X158700600Y-95200600D01*
X158838737Y-94993863D01*
X158887244Y-94750000D01*
X158887244Y-92750000D01*
X158838737Y-92506137D01*
X158700600Y-92299400D01*
X158493863Y-92161263D01*
X158250000Y-92112756D01*
X156250000Y-92112756D01*
X156006137Y-92161263D01*
X155799400Y-92299400D01*
X155661263Y-92506137D01*
X155659946Y-92512756D01*
X154845000Y-92512756D01*
X154845000Y-90245989D01*
X155191746Y-89899244D01*
X158000000Y-89899244D01*
X158243863Y-89850737D01*
X158450600Y-89712600D01*
X158509132Y-89625000D01*
X158889198Y-89625000D01*
X159000000Y-89647040D01*
X159110802Y-89625000D01*
X159110803Y-89625000D01*
X159438953Y-89559727D01*
X159811080Y-89311080D01*
X159873848Y-89217141D01*
X161017144Y-88073846D01*
X161111080Y-88011080D01*
X161293546Y-87738000D01*
X161359727Y-87638954D01*
X161447040Y-87200000D01*
X161425000Y-87089197D01*
X161425000Y-83245989D01*
X164077147Y-80593844D01*
X164171080Y-80531080D01*
X164233845Y-80437146D01*
X164419727Y-80158954D01*
X164507040Y-79720000D01*
X164485000Y-79609197D01*
X164485000Y-77497244D01*
X165420000Y-77497244D01*
X165663863Y-77448737D01*
X165759252Y-77385000D01*
X166008751Y-77385000D01*
X166333993Y-77602320D01*
X166749652Y-77685000D01*
X167030348Y-77685000D01*
X167446007Y-77602320D01*
X167917367Y-77287367D01*
X168232320Y-76816007D01*
X168342917Y-76260000D01*
X168232320Y-75703993D01*
X167917367Y-75232633D01*
X167446007Y-74917680D01*
X167030348Y-74835000D01*
X166749652Y-74835000D01*
X166333993Y-74917680D01*
X166008751Y-75135000D01*
X165759252Y-75135000D01*
X165663863Y-75071263D01*
X165420000Y-75022756D01*
X164420000Y-75022756D01*
X164176137Y-75071263D01*
X164140000Y-75095409D01*
X164103863Y-75071263D01*
X163860000Y-75022756D01*
X162860000Y-75022756D01*
X162616137Y-75071263D01*
X162409400Y-75209400D01*
X162271263Y-75416137D01*
X162222756Y-75660000D01*
X162222756Y-76860000D01*
X162235001Y-76921559D01*
X162235000Y-79254009D01*
X159582857Y-81906154D01*
X159488921Y-81968920D01*
X159384632Y-82125000D01*
X159240274Y-82341047D01*
X159152960Y-82780000D01*
X159175001Y-82890806D01*
X159175000Y-86734010D01*
X158534011Y-87375000D01*
X158509132Y-87375000D01*
X158450600Y-87287400D01*
X158243863Y-87149263D01*
X158000000Y-87100756D01*
X152000000Y-87100756D01*
X151756137Y-87149263D01*
X151549400Y-87287400D01*
X151411263Y-87494137D01*
X151362756Y-87738000D01*
X151362756Y-89262000D01*
X151411263Y-89505863D01*
X151549400Y-89712600D01*
X151756137Y-89850737D01*
X152000000Y-89899244D01*
X152595001Y-89899244D01*
X152595000Y-93088444D01*
X152582756Y-93150000D01*
X152582756Y-94350000D01*
X152595000Y-94411555D01*
X152595000Y-95460802D01*
X152595001Y-95460807D01*
X152595000Y-97684010D01*
X149314011Y-100965000D01*
X149266086Y-100965000D01*
X149021318Y-100598681D01*
X148566497Y-100294779D01*
X148030000Y-100188063D01*
X147493502Y-100294779D01*
X147038681Y-100598682D01*
X146780000Y-100985825D01*
X146521318Y-100598681D01*
X146066497Y-100294779D01*
X145530000Y-100188063D01*
X144993502Y-100294779D01*
X144538681Y-100598682D01*
X144293915Y-100965000D01*
X141766086Y-100965000D01*
X141521318Y-100598681D01*
X141066497Y-100294779D01*
X140765987Y-100235004D01*
X141587147Y-99413844D01*
X141681080Y-99351080D01*
X141748619Y-99250001D01*
X141929727Y-98978954D01*
X142017040Y-98540000D01*
X141995000Y-98429197D01*
X141995000Y-94987244D01*
X142930000Y-94987244D01*
X143055001Y-94962380D01*
X143061263Y-94993863D01*
X143199400Y-95200600D01*
X143406137Y-95338737D01*
X143650000Y-95387244D01*
X145650000Y-95387244D01*
X145893863Y-95338737D01*
X146100600Y-95200600D01*
X146238737Y-94993863D01*
X146287244Y-94750000D01*
X146287244Y-92875000D01*
X150250000Y-92875000D01*
X150489177Y-92827425D01*
X150691942Y-92691942D01*
X150827425Y-92489177D01*
X150875000Y-92250000D01*
X150875000Y-83238000D01*
X151362756Y-83238000D01*
X151362756Y-84762000D01*
X151411263Y-85005863D01*
X151549400Y-85212600D01*
X151756137Y-85350737D01*
X152000000Y-85399244D01*
X158000000Y-85399244D01*
X158243863Y-85350737D01*
X158450600Y-85212600D01*
X158588737Y-85005863D01*
X158637244Y-84762000D01*
X158637244Y-83238000D01*
X158588737Y-82994137D01*
X158450600Y-82787400D01*
X158243863Y-82649263D01*
X158000000Y-82600756D01*
X152000000Y-82600756D01*
X151756137Y-82649263D01*
X151549400Y-82787400D01*
X151411263Y-82994137D01*
X151362756Y-83238000D01*
X150875000Y-83238000D01*
X150875000Y-79750000D01*
X150827425Y-79510823D01*
X150691942Y-79308058D01*
X150489177Y-79172575D01*
X150250000Y-79125000D01*
X145125000Y-79125000D01*
X145125000Y-74375000D01*
X150250000Y-74375000D01*
X150489177Y-74327425D01*
X150691942Y-74191942D01*
X150827425Y-73989177D01*
X150875000Y-73750000D01*
X150875000Y-73238000D01*
X151362756Y-73238000D01*
X151362756Y-74762000D01*
X151411263Y-75005863D01*
X151549400Y-75212600D01*
X151756137Y-75350737D01*
X152000000Y-75399244D01*
X153875001Y-75399244D01*
X153875000Y-78100756D01*
X152000000Y-78100756D01*
X151756137Y-78149263D01*
X151549400Y-78287400D01*
X151411263Y-78494137D01*
X151362756Y-78738000D01*
X151362756Y-80262000D01*
X151411263Y-80505863D01*
X151549400Y-80712600D01*
X151756137Y-80850737D01*
X152000000Y-80899244D01*
X158000000Y-80899244D01*
X158243863Y-80850737D01*
X158450600Y-80712600D01*
X158588737Y-80505863D01*
X158637244Y-80262000D01*
X158637244Y-78738000D01*
X158588737Y-78494137D01*
X158450600Y-78287400D01*
X158243863Y-78149263D01*
X158000000Y-78100756D01*
X156125000Y-78100756D01*
X156125000Y-75399244D01*
X158000000Y-75399244D01*
X158243863Y-75350737D01*
X158450600Y-75212600D01*
X158588737Y-75005863D01*
X158637244Y-74762000D01*
X158637244Y-73238000D01*
X158588737Y-72994137D01*
X158450600Y-72787400D01*
X158243863Y-72649263D01*
X158000000Y-72600756D01*
X152000000Y-72600756D01*
X151756137Y-72649263D01*
X151549400Y-72787400D01*
X151411263Y-72994137D01*
X151362756Y-73238000D01*
X150875000Y-73238000D01*
X150875000Y-68738000D01*
X151362756Y-68738000D01*
X151362756Y-70262000D01*
X151411263Y-70505863D01*
X151549400Y-70712600D01*
X151756137Y-70850737D01*
X152000000Y-70899244D01*
X158000000Y-70899244D01*
X158243863Y-70850737D01*
X158450600Y-70712600D01*
X158588737Y-70505863D01*
X158637244Y-70262000D01*
X158637244Y-68738000D01*
X158588737Y-68494137D01*
X158450600Y-68287400D01*
X158243863Y-68149263D01*
X158000000Y-68100756D01*
X152000000Y-68100756D01*
X151756137Y-68149263D01*
X151549400Y-68287400D01*
X151411263Y-68494137D01*
X151362756Y-68738000D01*
X150875000Y-68738000D01*
X150875000Y-58750000D01*
X150827425Y-58510823D01*
X150691942Y-58308058D01*
X150489177Y-58172575D01*
X150250000Y-58125000D01*
X134625000Y-58125000D01*
X134625000Y-58014025D01*
X134718097Y-57874695D01*
X134766604Y-57630832D01*
X134718097Y-57386969D01*
X134579960Y-57180232D01*
X133872854Y-56473126D01*
X133666117Y-56334989D01*
X133623490Y-56326510D01*
X133615011Y-56283883D01*
X133476874Y-56077146D01*
X132837244Y-55437516D01*
X132837244Y-54550000D01*
X132788737Y-54306137D01*
X132650600Y-54099400D01*
X132443863Y-53961263D01*
X132200000Y-53912756D01*
X130200000Y-53912756D01*
X129956137Y-53961263D01*
X129749400Y-54099400D01*
X129611263Y-54306137D01*
X129562756Y-54550000D01*
X129562756Y-56550000D01*
X129611263Y-56793863D01*
X129749400Y-57000600D01*
X129956137Y-57138737D01*
X130200000Y-57187244D01*
X131087516Y-57187244D01*
X131727146Y-57826874D01*
X131933883Y-57965011D01*
X131976510Y-57973490D01*
X131984989Y-58016117D01*
X132057742Y-58125000D01*
X130250000Y-58125000D01*
X130010823Y-58172575D01*
X129808058Y-58308058D01*
X129672575Y-58510823D01*
X129625000Y-58750000D01*
X129625000Y-65500000D01*
X129672575Y-65739177D01*
X129808058Y-65941942D01*
X130010823Y-66077425D01*
X130250000Y-66125000D01*
X137875000Y-66125000D01*
X137875000Y-72375000D01*
X134559873Y-72375000D01*
X134529960Y-72330232D01*
X133822854Y-71623126D01*
X133616117Y-71484989D01*
X133573490Y-71476510D01*
X133565011Y-71433883D01*
X133426874Y-71227146D01*
X132719768Y-70520040D01*
X132587244Y-70431490D01*
X132587244Y-69700000D01*
X132538737Y-69456137D01*
X132400600Y-69249400D01*
X132193863Y-69111263D01*
X131950000Y-69062756D01*
X129950000Y-69062756D01*
X129706137Y-69111263D01*
X129499400Y-69249400D01*
X129361263Y-69456137D01*
X129312756Y-69700000D01*
X129312756Y-71700000D01*
X129361263Y-71943863D01*
X129499400Y-72150600D01*
X129706137Y-72288737D01*
X129950000Y-72337244D01*
X131037516Y-72337244D01*
X131075272Y-72375000D01*
X131000000Y-72375000D01*
X130760823Y-72422575D01*
X130558058Y-72558058D01*
X130422575Y-72760823D01*
X130375000Y-73000000D01*
X130375000Y-74494922D01*
X130164933Y-74704989D01*
X129575000Y-76129215D01*
X129575000Y-77670785D01*
X130018213Y-78740797D01*
X121782858Y-86976153D01*
X121688919Y-87038921D01*
X121440272Y-87411049D01*
X121374999Y-87739198D01*
X121352959Y-87850001D01*
X121374999Y-87960803D01*
X121375000Y-97219193D01*
X121352959Y-97329999D01*
X121382851Y-97480273D01*
X121440273Y-97768952D01*
X121688920Y-98141079D01*
X121782856Y-98203845D01*
X123296154Y-99717144D01*
X123358920Y-99811080D01*
X123731047Y-100059727D01*
X124059197Y-100125000D01*
X124169999Y-100147040D01*
X124280801Y-100125000D01*
X128110803Y-100125000D01*
X128275479Y-100092244D01*
X128610000Y-100092244D01*
X128853863Y-100043737D01*
X129060600Y-99905600D01*
X129198737Y-99698863D01*
X129247244Y-99455000D01*
X129247244Y-98545000D01*
X129198737Y-98301137D01*
X129060600Y-98094400D01*
X128853863Y-97956263D01*
X128610000Y-97907756D01*
X128275479Y-97907756D01*
X128110803Y-97875000D01*
X124635990Y-97875000D01*
X123624999Y-96864010D01*
X123624999Y-88315990D01*
X130385948Y-81555041D01*
X130422575Y-81739177D01*
X130558058Y-81941942D01*
X130760823Y-82077425D01*
X131000000Y-82125000D01*
X137875000Y-82125000D01*
X137875000Y-88875000D01*
X135750000Y-88875000D01*
X135483877Y-88934488D01*
X134090108Y-89590380D01*
X133822854Y-89323126D01*
X133616117Y-89184989D01*
X133573490Y-89176510D01*
X133565011Y-89133883D01*
X133426874Y-88927146D01*
X133155389Y-88655661D01*
X133009537Y-88437377D01*
X132915601Y-88374611D01*
X132587244Y-88046254D01*
X132587244Y-87000000D01*
X132538737Y-86756137D01*
X132400600Y-86549400D01*
X132193863Y-86411263D01*
X131950000Y-86362756D01*
X129950000Y-86362756D01*
X129706137Y-86411263D01*
X129499400Y-86549400D01*
X129361263Y-86756137D01*
X129312756Y-87000000D01*
X129312756Y-89000000D01*
X129361263Y-89243863D01*
X129499400Y-89450600D01*
X129706137Y-89588737D01*
X129950000Y-89637244D01*
X130806883Y-89637244D01*
X130831903Y-89763031D01*
X130970040Y-89969768D01*
X131677146Y-90676874D01*
X131720190Y-90705635D01*
X131233877Y-90934488D01*
X131153312Y-90979969D01*
X129653312Y-91979969D01*
X129558058Y-92058058D01*
X129422575Y-92260823D01*
X129375000Y-92500000D01*
X129375000Y-98000000D01*
X129422575Y-98239177D01*
X129558058Y-98441942D01*
X129760823Y-98577425D01*
X130000000Y-98625000D01*
X139194010Y-98625000D01*
X137531862Y-100287149D01*
X137493502Y-100294779D01*
X137392198Y-100362469D01*
X137329198Y-100375000D01*
X132791251Y-100375000D01*
X132536498Y-100204779D01*
X132135422Y-100125000D01*
X130864578Y-100125000D01*
X130463502Y-100204779D01*
X130008681Y-100508681D01*
X129704779Y-100963502D01*
X129598063Y-101500000D01*
X129704779Y-102036498D01*
X130008681Y-102491319D01*
X130395824Y-102750000D01*
X130208749Y-102875000D01*
X130195990Y-102875000D01*
X129247244Y-101926255D01*
X129247244Y-101815000D01*
X129198737Y-101571137D01*
X129060600Y-101364400D01*
X128853863Y-101226263D01*
X128610000Y-101177756D01*
X128275476Y-101177756D01*
X128000000Y-101122960D01*
X127724524Y-101177756D01*
X127390000Y-101177756D01*
X127146137Y-101226263D01*
X126939400Y-101364400D01*
X126801263Y-101571137D01*
X126752756Y-101815000D01*
X126752756Y-102725000D01*
X126801263Y-102968863D01*
X126939400Y-103175600D01*
X127146137Y-103313737D01*
X127390000Y-103362244D01*
X127501255Y-103362244D01*
X128856154Y-104717144D01*
X128918920Y-104811080D01*
X129291047Y-105059727D01*
X129619197Y-105125000D01*
X129729999Y-105147040D01*
X129840801Y-105125000D01*
X130208749Y-105125000D01*
X130463502Y-105295221D01*
X130864578Y-105375000D01*
X132135422Y-105375000D01*
X132536498Y-105295221D01*
X132991319Y-104991319D01*
X133295221Y-104536498D01*
X133401937Y-104000000D01*
X133295221Y-103463502D01*
X132991319Y-103008681D01*
X132604176Y-102750000D01*
X132791251Y-102625000D01*
X136655000Y-102625000D01*
X136655000Y-102725422D01*
X136734779Y-103126498D01*
X136950443Y-103449261D01*
X136970273Y-103548953D01*
X137218921Y-103921080D01*
X137312857Y-103983846D01*
X138396154Y-105067144D01*
X138458920Y-105161080D01*
X138831047Y-105409727D01*
X139159197Y-105475000D01*
X139159198Y-105475000D01*
X139270000Y-105497040D01*
X139380802Y-105475000D01*
X151039198Y-105475000D01*
X151150000Y-105497040D01*
X151260802Y-105475000D01*
X151260803Y-105475000D01*
X151588953Y-105409727D01*
X151961080Y-105161080D01*
X152023848Y-105067141D01*
X156610097Y-100480893D01*
X156972230Y-100330893D01*
X157330893Y-99972230D01*
X157480894Y-99610096D01*
X158925990Y-98165000D01*
X162916902Y-98165000D01*
X163169511Y-98417609D01*
X163766767Y-98665000D01*
X164413233Y-98665000D01*
X165010489Y-98417609D01*
X165467609Y-97960489D01*
X165715000Y-97363233D01*
X165715000Y-97005989D01*
X168157145Y-94563845D01*
X168251080Y-94501080D01*
X168499727Y-94128953D01*
X168565000Y-93800803D01*
X168565000Y-93800802D01*
X168587040Y-93690001D01*
X168565000Y-93579199D01*
X168565000Y-84225989D01*
X170307144Y-82483845D01*
X170375000Y-82438506D01*
X170375000Y-106300000D01*
X125826525Y-106300000D01*
X126073127Y-106053398D01*
X126625000Y-104721057D01*
X126625000Y-103278943D01*
X126073127Y-101946602D01*
X125053398Y-100926873D01*
X123721057Y-100375000D01*
X122278943Y-100375000D01*
X120946602Y-100926873D01*
X120700000Y-101173475D01*
X120700000Y-57826525D01*
X120946602Y-58073127D01*
X122278943Y-58625000D01*
X123721057Y-58625000D01*
X125053398Y-58073127D01*
X126073127Y-57053398D01*
X126625000Y-55721057D01*
X126625000Y-54278943D01*
X126073127Y-52946602D01*
X125826525Y-52700000D01*
X170375000Y-52700000D01*
X170375000Y-72901494D01*
G04 #@! TO.N,GND*
G36*
X194096425Y-53059893D02*
X193575000Y-54318725D01*
X193575000Y-55681275D01*
X194096425Y-56940107D01*
X195059893Y-57903575D01*
X196318725Y-58425000D01*
X197681275Y-58425000D01*
X198940107Y-57903575D01*
X199500000Y-57343682D01*
X199500001Y-101656319D01*
X198940107Y-101096425D01*
X197681275Y-100575000D01*
X196318725Y-100575000D01*
X195059893Y-101096425D01*
X194096425Y-102059893D01*
X193575000Y-103318725D01*
X193575000Y-104681275D01*
X194096425Y-105940107D01*
X194656318Y-106500000D01*
X171125000Y-106500000D01*
X171125000Y-94216550D01*
X182985000Y-94216550D01*
X182985000Y-94783450D01*
X183201944Y-95307197D01*
X183602803Y-95708056D01*
X184126550Y-95925000D01*
X184693450Y-95925000D01*
X185217197Y-95708056D01*
X185618056Y-95307197D01*
X185835000Y-94783450D01*
X185835000Y-94216550D01*
X185618056Y-93692803D01*
X185217197Y-93291944D01*
X184693450Y-93075000D01*
X184126550Y-93075000D01*
X183602803Y-93291944D01*
X183201944Y-93692803D01*
X182985000Y-94216550D01*
X171125000Y-94216550D01*
X171125000Y-76250000D01*
X171716674Y-76250000D01*
X171716674Y-77250000D01*
X171749659Y-77415827D01*
X171843592Y-77556408D01*
X171984173Y-77650341D01*
X172150000Y-77683326D01*
X172700757Y-77683326D01*
X172750000Y-77693121D01*
X172799243Y-77683326D01*
X173350000Y-77683326D01*
X173515827Y-77650341D01*
X173656408Y-77556408D01*
X173750341Y-77415827D01*
X173783326Y-77250000D01*
X173783326Y-77247747D01*
X174032029Y-77413925D01*
X174389348Y-77485000D01*
X174630652Y-77485000D01*
X174987971Y-77413925D01*
X175330582Y-77185000D01*
X176986383Y-77185000D01*
X177084173Y-77250341D01*
X177250000Y-77283326D01*
X178250000Y-77283326D01*
X178415827Y-77250341D01*
X178530000Y-77174053D01*
X178644173Y-77250341D01*
X178810000Y-77283326D01*
X179810000Y-77283326D01*
X179975827Y-77250341D01*
X180116408Y-77156408D01*
X180210341Y-77015827D01*
X180243326Y-76850000D01*
X180243326Y-76404821D01*
X180799659Y-75848489D01*
X180876887Y-75796887D01*
X180944414Y-75695827D01*
X181081330Y-75490917D01*
X181103657Y-75378670D01*
X181135000Y-75221100D01*
X181135000Y-75221097D01*
X181153120Y-75130001D01*
X181135000Y-75038905D01*
X181135000Y-71513147D01*
X183466674Y-73844822D01*
X183466674Y-73970000D01*
X183499659Y-74135827D01*
X183575947Y-74250000D01*
X183499659Y-74364173D01*
X183466674Y-74530000D01*
X183466674Y-74823303D01*
X183334173Y-74849659D01*
X183193592Y-74943592D01*
X183099659Y-75084173D01*
X183066674Y-75250000D01*
X183066674Y-77250000D01*
X183099659Y-77415827D01*
X183193592Y-77556408D01*
X183334173Y-77650341D01*
X183500000Y-77683326D01*
X185500000Y-77683326D01*
X185665827Y-77650341D01*
X185806408Y-77556408D01*
X185900341Y-77415827D01*
X185933326Y-77250000D01*
X185933326Y-75250000D01*
X185900341Y-75084173D01*
X185806408Y-74943592D01*
X185665827Y-74849659D01*
X185533326Y-74823303D01*
X185533326Y-74530000D01*
X185500341Y-74364173D01*
X185424053Y-74250000D01*
X185500341Y-74135827D01*
X185533326Y-73970000D01*
X185533326Y-72970000D01*
X185500341Y-72804173D01*
X185406408Y-72663592D01*
X185265827Y-72569659D01*
X185100000Y-72536674D01*
X184774822Y-72536674D01*
X181135000Y-68896853D01*
X181135000Y-67673147D01*
X181633148Y-67175000D01*
X182269418Y-67175000D01*
X182541538Y-67356825D01*
X182884276Y-67425000D01*
X183434643Y-67425000D01*
X183459083Y-67441330D01*
X183728900Y-67495000D01*
X183728904Y-67495000D01*
X183819999Y-67513120D01*
X183911094Y-67495000D01*
X185358142Y-67495000D01*
X185400000Y-67503326D01*
X185950762Y-67503326D01*
X186000000Y-67513120D01*
X186049238Y-67503326D01*
X186600000Y-67503326D01*
X186765827Y-67470341D01*
X186906408Y-67376408D01*
X187000341Y-67235827D01*
X187012440Y-67175000D01*
X189519418Y-67175000D01*
X189791538Y-67356825D01*
X190134276Y-67425000D01*
X191365724Y-67425000D01*
X191708462Y-67356825D01*
X191980582Y-67175000D01*
X191987560Y-67175000D01*
X191999659Y-67235827D01*
X192093592Y-67376408D01*
X192234173Y-67470341D01*
X192400000Y-67503326D01*
X192950762Y-67503326D01*
X192999999Y-67513120D01*
X193049237Y-67503326D01*
X193295179Y-67503326D01*
X194695000Y-68903147D01*
X194695001Y-70336851D01*
X191520344Y-73511508D01*
X191443113Y-73563113D01*
X191238670Y-73869084D01*
X191185000Y-74138901D01*
X191185000Y-74138904D01*
X191166880Y-74230000D01*
X191185000Y-74321097D01*
X191185001Y-76818899D01*
X191166880Y-76910000D01*
X191238670Y-77270916D01*
X191391509Y-77499656D01*
X191391511Y-77499658D01*
X191443114Y-77576887D01*
X191520342Y-77628489D01*
X192529326Y-78637474D01*
X192593175Y-78958462D01*
X192852873Y-79347127D01*
X193241538Y-79606825D01*
X193584276Y-79675000D01*
X194815724Y-79675000D01*
X195158462Y-79606825D01*
X195547127Y-79347127D01*
X195575000Y-79305412D01*
X195575001Y-83816852D01*
X194566853Y-84825000D01*
X193584276Y-84825000D01*
X193241538Y-84893175D01*
X193021126Y-85040450D01*
X192956408Y-84943592D01*
X192815827Y-84849659D01*
X192650000Y-84816674D01*
X192099238Y-84816674D01*
X192050000Y-84806880D01*
X192000762Y-84816674D01*
X191999237Y-84816674D01*
X191949999Y-84806880D01*
X191900761Y-84816674D01*
X191450000Y-84816674D01*
X191284173Y-84849659D01*
X191143592Y-84943592D01*
X191049659Y-85084173D01*
X191016674Y-85250000D01*
X191016674Y-85375179D01*
X189410343Y-86981510D01*
X189333114Y-87033113D01*
X189281511Y-87110342D01*
X189281509Y-87110344D01*
X189128670Y-87339084D01*
X189056880Y-87700000D01*
X189075001Y-87791101D01*
X189075000Y-95772606D01*
X189043592Y-95793592D01*
X188949659Y-95934173D01*
X188916674Y-96100000D01*
X188916674Y-97400000D01*
X188949659Y-97565827D01*
X189043592Y-97706408D01*
X189075001Y-97727395D01*
X189075000Y-99606852D01*
X185946852Y-102735001D01*
X185501094Y-102735001D01*
X185409998Y-102716881D01*
X185318902Y-102735001D01*
X185318899Y-102735001D01*
X185049082Y-102788671D01*
X184820342Y-102941510D01*
X184820341Y-102941511D01*
X184743112Y-102993114D01*
X184691509Y-103070343D01*
X184526852Y-103235000D01*
X184126550Y-103235000D01*
X183602803Y-103451944D01*
X183201944Y-103852803D01*
X182985000Y-104376550D01*
X182985000Y-104943450D01*
X183201944Y-105467197D01*
X183602803Y-105868056D01*
X184126550Y-106085000D01*
X184693450Y-106085000D01*
X185217197Y-105868056D01*
X185618056Y-105467197D01*
X185835000Y-104943450D01*
X185835000Y-104585001D01*
X186238903Y-104585001D01*
X186329999Y-104603121D01*
X186421095Y-104585001D01*
X186421099Y-104585001D01*
X186690916Y-104531331D01*
X186996886Y-104326888D01*
X187048491Y-104249656D01*
X190589659Y-100708489D01*
X190666887Y-100656887D01*
X190721603Y-100575000D01*
X190871330Y-100350917D01*
X190871330Y-100350916D01*
X190925000Y-100081100D01*
X190925000Y-100081097D01*
X190943120Y-99990001D01*
X190925000Y-99898905D01*
X190925000Y-97727394D01*
X190956408Y-97706408D01*
X191050341Y-97565827D01*
X191083326Y-97400000D01*
X191083326Y-96100000D01*
X191050341Y-95934173D01*
X190956408Y-95793592D01*
X190925000Y-95772606D01*
X190925000Y-88083147D01*
X192104011Y-86904136D01*
X192208900Y-86925000D01*
X192208904Y-86925000D01*
X192299999Y-86943120D01*
X192391094Y-86925000D01*
X192969418Y-86925000D01*
X193241538Y-87106825D01*
X193584276Y-87175000D01*
X194815724Y-87175000D01*
X195158462Y-87106825D01*
X195547127Y-86847127D01*
X195806825Y-86458462D01*
X195870674Y-86137473D01*
X197089655Y-84918492D01*
X197166887Y-84866887D01*
X197371330Y-84560917D01*
X197425000Y-84291100D01*
X197425000Y-84291096D01*
X197443120Y-84200001D01*
X197425000Y-84108906D01*
X197425000Y-78928583D01*
X197500341Y-78815827D01*
X197533326Y-78650000D01*
X197533326Y-77650000D01*
X197500341Y-77484173D01*
X197406408Y-77343592D01*
X197265827Y-77249659D01*
X197100000Y-77216674D01*
X196549243Y-77216674D01*
X196500000Y-77206879D01*
X196450757Y-77216674D01*
X195900000Y-77216674D01*
X195858142Y-77225000D01*
X194641096Y-77225000D01*
X194550000Y-77206880D01*
X194458904Y-77225000D01*
X194458900Y-77225000D01*
X194189083Y-77278670D01*
X194119745Y-77325000D01*
X193833148Y-77325000D01*
X193035000Y-76526853D01*
X193035000Y-74613147D01*
X196209658Y-71438490D01*
X196286887Y-71386887D01*
X196491330Y-71080917D01*
X196545000Y-70811100D01*
X196545000Y-70811096D01*
X196563120Y-70720000D01*
X196545000Y-70628904D01*
X196545000Y-68611094D01*
X196563120Y-68519999D01*
X196545000Y-68428904D01*
X196545000Y-68428900D01*
X196491330Y-68159083D01*
X196286887Y-67853113D01*
X196209656Y-67801509D01*
X194388491Y-65980344D01*
X194336887Y-65903113D01*
X194030917Y-65698670D01*
X193761100Y-65645000D01*
X193761096Y-65645000D01*
X193670000Y-65626880D01*
X193610381Y-65638739D01*
X193600000Y-65636674D01*
X193382675Y-65636674D01*
X193346887Y-65583113D01*
X193040917Y-65378670D01*
X192771100Y-65325000D01*
X192771096Y-65325000D01*
X192680000Y-65306880D01*
X192588904Y-65325000D01*
X191980582Y-65325000D01*
X191708462Y-65143175D01*
X191365724Y-65075000D01*
X190134276Y-65075000D01*
X189791538Y-65143175D01*
X189519418Y-65325000D01*
X186411094Y-65325000D01*
X186319999Y-65306880D01*
X186228904Y-65325000D01*
X186228900Y-65325000D01*
X185959083Y-65378670D01*
X185653113Y-65583113D01*
X185617325Y-65636674D01*
X185400000Y-65636674D01*
X185358142Y-65645000D01*
X185008911Y-65645000D01*
X184847127Y-65402873D01*
X184458462Y-65143175D01*
X184115724Y-65075000D01*
X182884276Y-65075000D01*
X182541538Y-65143175D01*
X182269418Y-65325000D01*
X181341095Y-65325000D01*
X181249999Y-65306880D01*
X181158903Y-65325000D01*
X181158900Y-65325000D01*
X180939508Y-65368640D01*
X181633148Y-64675000D01*
X182269418Y-64675000D01*
X182541538Y-64856825D01*
X182884276Y-64925000D01*
X184115724Y-64925000D01*
X184458462Y-64856825D01*
X184730582Y-64675000D01*
X189519418Y-64675000D01*
X189791538Y-64856825D01*
X190134276Y-64925000D01*
X191365724Y-64925000D01*
X191708462Y-64856825D01*
X191992821Y-64666822D01*
X195575000Y-64666822D01*
X195575000Y-65333178D01*
X195830004Y-65948811D01*
X196301189Y-66419996D01*
X196916822Y-66675000D01*
X197583178Y-66675000D01*
X198198811Y-66419996D01*
X198669996Y-65948811D01*
X198925000Y-65333178D01*
X198925000Y-64666822D01*
X198669996Y-64051189D01*
X198198811Y-63580004D01*
X197583178Y-63325000D01*
X196916822Y-63325000D01*
X196301189Y-63580004D01*
X195830004Y-64051189D01*
X195575000Y-64666822D01*
X191992821Y-64666822D01*
X192097127Y-64597127D01*
X192356825Y-64208462D01*
X192448019Y-63750000D01*
X192356825Y-63291538D01*
X192097127Y-62902873D01*
X191708462Y-62643175D01*
X191365724Y-62575000D01*
X190134276Y-62575000D01*
X189791538Y-62643175D01*
X189519418Y-62825000D01*
X184730582Y-62825000D01*
X184458462Y-62643175D01*
X184115724Y-62575000D01*
X182884276Y-62575000D01*
X182541538Y-62643175D01*
X182269418Y-62825000D01*
X181341096Y-62825000D01*
X181250000Y-62806880D01*
X181158904Y-62825000D01*
X181158900Y-62825000D01*
X180889083Y-62878670D01*
X180660343Y-63031509D01*
X180660342Y-63031510D01*
X180583113Y-63083113D01*
X180531510Y-63160342D01*
X177660342Y-66031510D01*
X177583114Y-66083113D01*
X177531511Y-66160342D01*
X177531509Y-66160344D01*
X177378670Y-66389084D01*
X177306880Y-66750000D01*
X177325001Y-66841101D01*
X177325000Y-67993527D01*
X177190000Y-67966674D01*
X176190000Y-67966674D01*
X176024173Y-67999659D01*
X175883592Y-68093592D01*
X175862606Y-68125000D01*
X175420582Y-68125000D01*
X175077971Y-67896075D01*
X174720652Y-67825000D01*
X174479348Y-67825000D01*
X174122029Y-67896075D01*
X174025000Y-67960908D01*
X174025000Y-63803147D01*
X175653147Y-62175000D01*
X182269418Y-62175000D01*
X182541538Y-62356825D01*
X182884276Y-62425000D01*
X184115724Y-62425000D01*
X184458462Y-62356825D01*
X184730582Y-62175000D01*
X189519418Y-62175000D01*
X189791538Y-62356825D01*
X190134276Y-62425000D01*
X191365724Y-62425000D01*
X191708462Y-62356825D01*
X192097127Y-62097127D01*
X192356825Y-61708462D01*
X192448019Y-61250000D01*
X192356825Y-60791538D01*
X192097127Y-60402873D01*
X191708462Y-60143175D01*
X191365724Y-60075000D01*
X190134276Y-60075000D01*
X189791538Y-60143175D01*
X189519418Y-60325000D01*
X184730582Y-60325000D01*
X184458462Y-60143175D01*
X184115724Y-60075000D01*
X182884276Y-60075000D01*
X182541538Y-60143175D01*
X182269418Y-60325000D01*
X175361094Y-60325000D01*
X175269999Y-60306880D01*
X175178904Y-60325000D01*
X175178900Y-60325000D01*
X174909083Y-60378670D01*
X174603113Y-60583113D01*
X174551508Y-60660345D01*
X172510343Y-62701510D01*
X172433114Y-62753113D01*
X172381511Y-62830342D01*
X172381509Y-62830344D01*
X172228670Y-63059084D01*
X172156880Y-63420000D01*
X172175001Y-63511101D01*
X172175000Y-74516853D01*
X172160343Y-74531510D01*
X172083114Y-74583113D01*
X172031511Y-74660342D01*
X172031509Y-74660344D01*
X171878670Y-74889084D01*
X171806880Y-75250000D01*
X171825001Y-75341101D01*
X171825001Y-75971416D01*
X171749659Y-76084173D01*
X171716674Y-76250000D01*
X171125000Y-76250000D01*
X171125000Y-52500000D01*
X194656318Y-52500000D01*
X194096425Y-53059893D01*
X194096425Y-53059893D01*
G37*
X194096425Y-53059893D02*
X193575000Y-54318725D01*
X193575000Y-55681275D01*
X194096425Y-56940107D01*
X195059893Y-57903575D01*
X196318725Y-58425000D01*
X197681275Y-58425000D01*
X198940107Y-57903575D01*
X199500000Y-57343682D01*
X199500001Y-101656319D01*
X198940107Y-101096425D01*
X197681275Y-100575000D01*
X196318725Y-100575000D01*
X195059893Y-101096425D01*
X194096425Y-102059893D01*
X193575000Y-103318725D01*
X193575000Y-104681275D01*
X194096425Y-105940107D01*
X194656318Y-106500000D01*
X171125000Y-106500000D01*
X171125000Y-94216550D01*
X182985000Y-94216550D01*
X182985000Y-94783450D01*
X183201944Y-95307197D01*
X183602803Y-95708056D01*
X184126550Y-95925000D01*
X184693450Y-95925000D01*
X185217197Y-95708056D01*
X185618056Y-95307197D01*
X185835000Y-94783450D01*
X185835000Y-94216550D01*
X185618056Y-93692803D01*
X185217197Y-93291944D01*
X184693450Y-93075000D01*
X184126550Y-93075000D01*
X183602803Y-93291944D01*
X183201944Y-93692803D01*
X182985000Y-94216550D01*
X171125000Y-94216550D01*
X171125000Y-76250000D01*
X171716674Y-76250000D01*
X171716674Y-77250000D01*
X171749659Y-77415827D01*
X171843592Y-77556408D01*
X171984173Y-77650341D01*
X172150000Y-77683326D01*
X172700757Y-77683326D01*
X172750000Y-77693121D01*
X172799243Y-77683326D01*
X173350000Y-77683326D01*
X173515827Y-77650341D01*
X173656408Y-77556408D01*
X173750341Y-77415827D01*
X173783326Y-77250000D01*
X173783326Y-77247747D01*
X174032029Y-77413925D01*
X174389348Y-77485000D01*
X174630652Y-77485000D01*
X174987971Y-77413925D01*
X175330582Y-77185000D01*
X176986383Y-77185000D01*
X177084173Y-77250341D01*
X177250000Y-77283326D01*
X178250000Y-77283326D01*
X178415827Y-77250341D01*
X178530000Y-77174053D01*
X178644173Y-77250341D01*
X178810000Y-77283326D01*
X179810000Y-77283326D01*
X179975827Y-77250341D01*
X180116408Y-77156408D01*
X180210341Y-77015827D01*
X180243326Y-76850000D01*
X180243326Y-76404821D01*
X180799659Y-75848489D01*
X180876887Y-75796887D01*
X180944414Y-75695827D01*
X181081330Y-75490917D01*
X181103657Y-75378670D01*
X181135000Y-75221100D01*
X181135000Y-75221097D01*
X181153120Y-75130001D01*
X181135000Y-75038905D01*
X181135000Y-71513147D01*
X183466674Y-73844822D01*
X183466674Y-73970000D01*
X183499659Y-74135827D01*
X183575947Y-74250000D01*
X183499659Y-74364173D01*
X183466674Y-74530000D01*
X183466674Y-74823303D01*
X183334173Y-74849659D01*
X183193592Y-74943592D01*
X183099659Y-75084173D01*
X183066674Y-75250000D01*
X183066674Y-77250000D01*
X183099659Y-77415827D01*
X183193592Y-77556408D01*
X183334173Y-77650341D01*
X183500000Y-77683326D01*
X185500000Y-77683326D01*
X185665827Y-77650341D01*
X185806408Y-77556408D01*
X185900341Y-77415827D01*
X185933326Y-77250000D01*
X185933326Y-75250000D01*
X185900341Y-75084173D01*
X185806408Y-74943592D01*
X185665827Y-74849659D01*
X185533326Y-74823303D01*
X185533326Y-74530000D01*
X185500341Y-74364173D01*
X185424053Y-74250000D01*
X185500341Y-74135827D01*
X185533326Y-73970000D01*
X185533326Y-72970000D01*
X185500341Y-72804173D01*
X185406408Y-72663592D01*
X185265827Y-72569659D01*
X185100000Y-72536674D01*
X184774822Y-72536674D01*
X181135000Y-68896853D01*
X181135000Y-67673147D01*
X181633148Y-67175000D01*
X182269418Y-67175000D01*
X182541538Y-67356825D01*
X182884276Y-67425000D01*
X183434643Y-67425000D01*
X183459083Y-67441330D01*
X183728900Y-67495000D01*
X183728904Y-67495000D01*
X183819999Y-67513120D01*
X183911094Y-67495000D01*
X185358142Y-67495000D01*
X185400000Y-67503326D01*
X185950762Y-67503326D01*
X186000000Y-67513120D01*
X186049238Y-67503326D01*
X186600000Y-67503326D01*
X186765827Y-67470341D01*
X186906408Y-67376408D01*
X187000341Y-67235827D01*
X187012440Y-67175000D01*
X189519418Y-67175000D01*
X189791538Y-67356825D01*
X190134276Y-67425000D01*
X191365724Y-67425000D01*
X191708462Y-67356825D01*
X191980582Y-67175000D01*
X191987560Y-67175000D01*
X191999659Y-67235827D01*
X192093592Y-67376408D01*
X192234173Y-67470341D01*
X192400000Y-67503326D01*
X192950762Y-67503326D01*
X192999999Y-67513120D01*
X193049237Y-67503326D01*
X193295179Y-67503326D01*
X194695000Y-68903147D01*
X194695001Y-70336851D01*
X191520344Y-73511508D01*
X191443113Y-73563113D01*
X191238670Y-73869084D01*
X191185000Y-74138901D01*
X191185000Y-74138904D01*
X191166880Y-74230000D01*
X191185000Y-74321097D01*
X191185001Y-76818899D01*
X191166880Y-76910000D01*
X191238670Y-77270916D01*
X191391509Y-77499656D01*
X191391511Y-77499658D01*
X191443114Y-77576887D01*
X191520342Y-77628489D01*
X192529326Y-78637474D01*
X192593175Y-78958462D01*
X192852873Y-79347127D01*
X193241538Y-79606825D01*
X193584276Y-79675000D01*
X194815724Y-79675000D01*
X195158462Y-79606825D01*
X195547127Y-79347127D01*
X195575000Y-79305412D01*
X195575001Y-83816852D01*
X194566853Y-84825000D01*
X193584276Y-84825000D01*
X193241538Y-84893175D01*
X193021126Y-85040450D01*
X192956408Y-84943592D01*
X192815827Y-84849659D01*
X192650000Y-84816674D01*
X192099238Y-84816674D01*
X192050000Y-84806880D01*
X192000762Y-84816674D01*
X191999237Y-84816674D01*
X191949999Y-84806880D01*
X191900761Y-84816674D01*
X191450000Y-84816674D01*
X191284173Y-84849659D01*
X191143592Y-84943592D01*
X191049659Y-85084173D01*
X191016674Y-85250000D01*
X191016674Y-85375179D01*
X189410343Y-86981510D01*
X189333114Y-87033113D01*
X189281511Y-87110342D01*
X189281509Y-87110344D01*
X189128670Y-87339084D01*
X189056880Y-87700000D01*
X189075001Y-87791101D01*
X189075000Y-95772606D01*
X189043592Y-95793592D01*
X188949659Y-95934173D01*
X188916674Y-96100000D01*
X188916674Y-97400000D01*
X188949659Y-97565827D01*
X189043592Y-97706408D01*
X189075001Y-97727395D01*
X189075000Y-99606852D01*
X185946852Y-102735001D01*
X185501094Y-102735001D01*
X185409998Y-102716881D01*
X185318902Y-102735001D01*
X185318899Y-102735001D01*
X185049082Y-102788671D01*
X184820342Y-102941510D01*
X184820341Y-102941511D01*
X184743112Y-102993114D01*
X184691509Y-103070343D01*
X184526852Y-103235000D01*
X184126550Y-103235000D01*
X183602803Y-103451944D01*
X183201944Y-103852803D01*
X182985000Y-104376550D01*
X182985000Y-104943450D01*
X183201944Y-105467197D01*
X183602803Y-105868056D01*
X184126550Y-106085000D01*
X184693450Y-106085000D01*
X185217197Y-105868056D01*
X185618056Y-105467197D01*
X185835000Y-104943450D01*
X185835000Y-104585001D01*
X186238903Y-104585001D01*
X186329999Y-104603121D01*
X186421095Y-104585001D01*
X186421099Y-104585001D01*
X186690916Y-104531331D01*
X186996886Y-104326888D01*
X187048491Y-104249656D01*
X190589659Y-100708489D01*
X190666887Y-100656887D01*
X190721603Y-100575000D01*
X190871330Y-100350917D01*
X190871330Y-100350916D01*
X190925000Y-100081100D01*
X190925000Y-100081097D01*
X190943120Y-99990001D01*
X190925000Y-99898905D01*
X190925000Y-97727394D01*
X190956408Y-97706408D01*
X191050341Y-97565827D01*
X191083326Y-97400000D01*
X191083326Y-96100000D01*
X191050341Y-95934173D01*
X190956408Y-95793592D01*
X190925000Y-95772606D01*
X190925000Y-88083147D01*
X192104011Y-86904136D01*
X192208900Y-86925000D01*
X192208904Y-86925000D01*
X192299999Y-86943120D01*
X192391094Y-86925000D01*
X192969418Y-86925000D01*
X193241538Y-87106825D01*
X193584276Y-87175000D01*
X194815724Y-87175000D01*
X195158462Y-87106825D01*
X195547127Y-86847127D01*
X195806825Y-86458462D01*
X195870674Y-86137473D01*
X197089655Y-84918492D01*
X197166887Y-84866887D01*
X197371330Y-84560917D01*
X197425000Y-84291100D01*
X197425000Y-84291096D01*
X197443120Y-84200001D01*
X197425000Y-84108906D01*
X197425000Y-78928583D01*
X197500341Y-78815827D01*
X197533326Y-78650000D01*
X197533326Y-77650000D01*
X197500341Y-77484173D01*
X197406408Y-77343592D01*
X197265827Y-77249659D01*
X197100000Y-77216674D01*
X196549243Y-77216674D01*
X196500000Y-77206879D01*
X196450757Y-77216674D01*
X195900000Y-77216674D01*
X195858142Y-77225000D01*
X194641096Y-77225000D01*
X194550000Y-77206880D01*
X194458904Y-77225000D01*
X194458900Y-77225000D01*
X194189083Y-77278670D01*
X194119745Y-77325000D01*
X193833148Y-77325000D01*
X193035000Y-76526853D01*
X193035000Y-74613147D01*
X196209658Y-71438490D01*
X196286887Y-71386887D01*
X196491330Y-71080917D01*
X196545000Y-70811100D01*
X196545000Y-70811096D01*
X196563120Y-70720000D01*
X196545000Y-70628904D01*
X196545000Y-68611094D01*
X196563120Y-68519999D01*
X196545000Y-68428904D01*
X196545000Y-68428900D01*
X196491330Y-68159083D01*
X196286887Y-67853113D01*
X196209656Y-67801509D01*
X194388491Y-65980344D01*
X194336887Y-65903113D01*
X194030917Y-65698670D01*
X193761100Y-65645000D01*
X193761096Y-65645000D01*
X193670000Y-65626880D01*
X193610381Y-65638739D01*
X193600000Y-65636674D01*
X193382675Y-65636674D01*
X193346887Y-65583113D01*
X193040917Y-65378670D01*
X192771100Y-65325000D01*
X192771096Y-65325000D01*
X192680000Y-65306880D01*
X192588904Y-65325000D01*
X191980582Y-65325000D01*
X191708462Y-65143175D01*
X191365724Y-65075000D01*
X190134276Y-65075000D01*
X189791538Y-65143175D01*
X189519418Y-65325000D01*
X186411094Y-65325000D01*
X186319999Y-65306880D01*
X186228904Y-65325000D01*
X186228900Y-65325000D01*
X185959083Y-65378670D01*
X185653113Y-65583113D01*
X185617325Y-65636674D01*
X185400000Y-65636674D01*
X185358142Y-65645000D01*
X185008911Y-65645000D01*
X184847127Y-65402873D01*
X184458462Y-65143175D01*
X184115724Y-65075000D01*
X182884276Y-65075000D01*
X182541538Y-65143175D01*
X182269418Y-65325000D01*
X181341095Y-65325000D01*
X181249999Y-65306880D01*
X181158903Y-65325000D01*
X181158900Y-65325000D01*
X180939508Y-65368640D01*
X181633148Y-64675000D01*
X182269418Y-64675000D01*
X182541538Y-64856825D01*
X182884276Y-64925000D01*
X184115724Y-64925000D01*
X184458462Y-64856825D01*
X184730582Y-64675000D01*
X189519418Y-64675000D01*
X189791538Y-64856825D01*
X190134276Y-64925000D01*
X191365724Y-64925000D01*
X191708462Y-64856825D01*
X191992821Y-64666822D01*
X195575000Y-64666822D01*
X195575000Y-65333178D01*
X195830004Y-65948811D01*
X196301189Y-66419996D01*
X196916822Y-66675000D01*
X197583178Y-66675000D01*
X198198811Y-66419996D01*
X198669996Y-65948811D01*
X198925000Y-65333178D01*
X198925000Y-64666822D01*
X198669996Y-64051189D01*
X198198811Y-63580004D01*
X197583178Y-63325000D01*
X196916822Y-63325000D01*
X196301189Y-63580004D01*
X195830004Y-64051189D01*
X195575000Y-64666822D01*
X191992821Y-64666822D01*
X192097127Y-64597127D01*
X192356825Y-64208462D01*
X192448019Y-63750000D01*
X192356825Y-63291538D01*
X192097127Y-62902873D01*
X191708462Y-62643175D01*
X191365724Y-62575000D01*
X190134276Y-62575000D01*
X189791538Y-62643175D01*
X189519418Y-62825000D01*
X184730582Y-62825000D01*
X184458462Y-62643175D01*
X184115724Y-62575000D01*
X182884276Y-62575000D01*
X182541538Y-62643175D01*
X182269418Y-62825000D01*
X181341096Y-62825000D01*
X181250000Y-62806880D01*
X181158904Y-62825000D01*
X181158900Y-62825000D01*
X180889083Y-62878670D01*
X180660343Y-63031509D01*
X180660342Y-63031510D01*
X180583113Y-63083113D01*
X180531510Y-63160342D01*
X177660342Y-66031510D01*
X177583114Y-66083113D01*
X177531511Y-66160342D01*
X177531509Y-66160344D01*
X177378670Y-66389084D01*
X177306880Y-66750000D01*
X177325001Y-66841101D01*
X177325000Y-67993527D01*
X177190000Y-67966674D01*
X176190000Y-67966674D01*
X176024173Y-67999659D01*
X175883592Y-68093592D01*
X175862606Y-68125000D01*
X175420582Y-68125000D01*
X175077971Y-67896075D01*
X174720652Y-67825000D01*
X174479348Y-67825000D01*
X174122029Y-67896075D01*
X174025000Y-67960908D01*
X174025000Y-63803147D01*
X175653147Y-62175000D01*
X182269418Y-62175000D01*
X182541538Y-62356825D01*
X182884276Y-62425000D01*
X184115724Y-62425000D01*
X184458462Y-62356825D01*
X184730582Y-62175000D01*
X189519418Y-62175000D01*
X189791538Y-62356825D01*
X190134276Y-62425000D01*
X191365724Y-62425000D01*
X191708462Y-62356825D01*
X192097127Y-62097127D01*
X192356825Y-61708462D01*
X192448019Y-61250000D01*
X192356825Y-60791538D01*
X192097127Y-60402873D01*
X191708462Y-60143175D01*
X191365724Y-60075000D01*
X190134276Y-60075000D01*
X189791538Y-60143175D01*
X189519418Y-60325000D01*
X184730582Y-60325000D01*
X184458462Y-60143175D01*
X184115724Y-60075000D01*
X182884276Y-60075000D01*
X182541538Y-60143175D01*
X182269418Y-60325000D01*
X175361094Y-60325000D01*
X175269999Y-60306880D01*
X175178904Y-60325000D01*
X175178900Y-60325000D01*
X174909083Y-60378670D01*
X174603113Y-60583113D01*
X174551508Y-60660345D01*
X172510343Y-62701510D01*
X172433114Y-62753113D01*
X172381511Y-62830342D01*
X172381509Y-62830344D01*
X172228670Y-63059084D01*
X172156880Y-63420000D01*
X172175001Y-63511101D01*
X172175000Y-74516853D01*
X172160343Y-74531510D01*
X172083114Y-74583113D01*
X172031511Y-74660342D01*
X172031509Y-74660344D01*
X171878670Y-74889084D01*
X171806880Y-75250000D01*
X171825001Y-75341101D01*
X171825001Y-75971416D01*
X171749659Y-76084173D01*
X171716674Y-76250000D01*
X171125000Y-76250000D01*
X171125000Y-52500000D01*
X194656318Y-52500000D01*
X194096425Y-53059893D01*
G04 #@! TD*
M02*
