M48
;DRILL file {KiCad (5.0.0)} date 02/12/19 21:24:09
;FORMAT={-:-/ absolute / metric / decimal}
FMAT,2
METRIC,TZ
T1C0.400
T2C0.800
T3C1.000
T4C1.001
T5C1.016
T6C1.400
T7C1.999
T8C3.000
T9C4.500
T10C2.500
%
G90
G05
M71
T2
X190.Y-96.75
X195.Y-96.75
X166.98Y-66.51
X166.98Y-69.05
X174.6Y-66.51
X174.6Y-69.05
X156.25Y-99.25
X156.25Y-104.25
X166.89Y-76.26
X166.89Y-78.8
X174.51Y-76.26
X174.51Y-78.8
T3
X138.03Y-102.09
X140.53Y-102.09
X145.53Y-102.09
X148.03Y-102.09
X131.5Y-101.5
X131.5Y-104.
X190.75Y-61.25
X190.75Y-63.75
X190.75Y-66.25
X190.75Y-68.75
X194.2Y-76.
X194.2Y-78.5
X183.5Y-61.25
X183.5Y-63.75
X183.5Y-66.25
X183.5Y-68.75
X194.2Y-83.5
X194.2Y-86.
T4
X157.25Y-93.75
X159.79Y-93.75
X128.41Y-70.7
X130.95Y-70.7
X128.66Y-55.55
X131.2Y-55.55
X144.65Y-93.75
X147.19Y-93.75
X184.5Y-76.25
X184.5Y-78.79
X128.41Y-88.
X130.95Y-88.
T5
X167.85Y-59.51
X167.85Y-62.05
T6
X164.09Y-84.34
X164.09Y-91.96
X164.09Y-97.04
X184.41Y-84.34
X184.41Y-94.5
X184.41Y-104.66
T7
X147.75Y-55.25
T8
X123.Y-55.
X123.Y-104.
X197.Y-55.
X197.Y-104.
T9
X126.45Y-94.4
X133.45Y-94.4
X126.45Y-76.9
X133.45Y-76.9
X126.5Y-61.95
X133.5Y-61.95
T10
X197.25Y-65.
T1
X152.7Y-79.5G85X157.3Y-79.5
G05
X152.7Y-84.G85X157.3Y-84.
G05
X152.7Y-88.5G85X157.3Y-88.5
G05
X152.7Y-65.G85X157.3Y-65.
G05
X152.7Y-69.5G85X157.3Y-69.5
G05
X152.7Y-74.G85X157.3Y-74.
G05
T3
X141.Y-86.75G85X141.Y-81.25
G05
X149.Y-86.75G85X149.Y-81.25
G05
X141.Y-72.25G85X141.Y-66.75
G05
X149.Y-72.25G85X149.Y-66.75
G05
T0
M30
