G04 #@! TF.GenerationSoftware,KiCad,Pcbnew,(5.0.0)*
G04 #@! TF.CreationDate,2019-02-23T04:43:29+09:00*
G04 #@! TF.ProjectId,Power_exp,506F7765725F6578702E6B696361645F,rev?*
G04 #@! TF.SameCoordinates,Original*
G04 #@! TF.FileFunction,Profile,NP*
%FSLAX46Y46*%
G04 Gerber Fmt 4.6, Leading zero omitted, Abs format (unit mm)*
G04 Created by KiCad (PCBNEW (5.0.0)) date 02/23/19 04:43:29*
%MOMM*%
%LPD*%
G01*
G04 APERTURE LIST*
%ADD10C,0.150000*%
%ADD11C,0.200000*%
G04 APERTURE END LIST*
D10*
X136050000Y-62700000D02*
X136050000Y-67300000D01*
X136450000Y-67300000D02*
X136450000Y-62700000D01*
X136450000Y-67300000D02*
G75*
G03X136450000Y-67300000I-200000J0D01*
G01*
X136450000Y-62700000D02*
G75*
G03X136450000Y-62700000I-200000J0D01*
G01*
X145450000Y-62750000D02*
G75*
G03X145450000Y-62750000I-200000J0D01*
G01*
X145450000Y-67300000D02*
G75*
G03X145450000Y-67300000I-200000J0D01*
G01*
X145050000Y-62750000D02*
X145050000Y-67300000D01*
X145450000Y-67300000D02*
X145450000Y-62750000D01*
X151300000Y-62700000D02*
X151300000Y-67300000D01*
X151700000Y-67300000D02*
X151700000Y-62700000D01*
X151700000Y-67300000D02*
G75*
G03X151700000Y-67300000I-200000J0D01*
G01*
X151700000Y-62700000D02*
G75*
G03X151700000Y-62700000I-200000J0D01*
G01*
X156200000Y-62700000D02*
G75*
G03X156200000Y-62700000I-200000J0D01*
G01*
X156200000Y-67250000D02*
G75*
G03X156200000Y-67250000I-200000J0D01*
G01*
X155800000Y-62700000D02*
X155800000Y-67300000D01*
X156200000Y-67300000D02*
X156200000Y-62700000D01*
X160700000Y-62700000D02*
X160700000Y-67300000D01*
X160300000Y-67300000D02*
X160300000Y-62700000D01*
X160700000Y-67300000D02*
G75*
G03X160700000Y-67300000I-200000J0D01*
G01*
X160700000Y-62700000D02*
G75*
G03X160700000Y-62700000I-200000J0D01*
G01*
X138000000Y-79500000D02*
X143500000Y-79500000D01*
X143500000Y-78500000D02*
X138000000Y-78500000D01*
X138000000Y-70500000D02*
X143500000Y-70500000D01*
X143500000Y-71500000D02*
X138000000Y-71500000D01*
X141000000Y-67250000D02*
X141000000Y-62750000D01*
X140500000Y-62750000D02*
X140500000Y-67250000D01*
D11*
X141000000Y-62750000D02*
G75*
G03X141000000Y-62750000I-250000J0D01*
G01*
X141000000Y-67250000D02*
G75*
G03X141000000Y-67250000I-250000J0D01*
G01*
X138500000Y-71000000D02*
G75*
G03X138500000Y-71000000I-500000J0D01*
G01*
X144000000Y-71000000D02*
G75*
G03X144000000Y-71000000I-500000J0D01*
G01*
X144000000Y-79000000D02*
G75*
G03X144000000Y-79000000I-500000J0D01*
G01*
X138500000Y-79000000D02*
G75*
G03X138500000Y-79000000I-500000J0D01*
G01*
D10*
X159000000Y-71000000D02*
G75*
G03X159000000Y-71000000I-500000J0D01*
G01*
X153500000Y-71000000D02*
G75*
G03X153500000Y-71000000I-500000J0D01*
G01*
X158500000Y-70500000D02*
X153000000Y-70500000D01*
X153000000Y-71500000D02*
X158500000Y-71500000D01*
X153000000Y-79500000D02*
X158450000Y-79500000D01*
X158450000Y-78500000D02*
X153000000Y-78500000D01*
X159000000Y-79000000D02*
G75*
G03X159000000Y-79000000I-550000J0D01*
G01*
X153500000Y-79000000D02*
G75*
G03X153500000Y-79000000I-500000J0D01*
G01*
X123000000Y-52000000D02*
X197000000Y-52000000D01*
X200000000Y-55000000D02*
X200000000Y-104000000D01*
X120000000Y-55000000D02*
X120000000Y-104000000D01*
X120000000Y-104000000D02*
G75*
G03X123000000Y-107000000I3000000J0D01*
G01*
X197000000Y-107000000D02*
X123000000Y-107000000D01*
X197000000Y-107000000D02*
G75*
G03X200000000Y-104000000I0J3000000D01*
G01*
X123000000Y-52000000D02*
G75*
G03X120000000Y-55000000I0J-3000000D01*
G01*
X200000000Y-55000000D02*
G75*
G03X197000000Y-52000000I-3000000J0D01*
G01*
M02*
