G04 #@! TF.GenerationSoftware,KiCad,Pcbnew,(5.0.2)-1*
G04 #@! TF.CreationDate,2019-05-04T12:12:21+09:00*
G04 #@! TF.ProjectId,Electrocity_Manager,456c6563-7472-46f6-9369-74795f4d616e,rev?*
G04 #@! TF.SameCoordinates,Original*
G04 #@! TF.FileFunction,Soldermask,Bot*
G04 #@! TF.FilePolarity,Negative*
%FSLAX46Y46*%
G04 Gerber Fmt 4.6, Leading zero omitted, Abs format (unit mm)*
G04 Created by KiCad (PCBNEW (5.0.2)-1) date 2019/05/04 12:12:21*
%MOMM*%
%LPD*%
G01*
G04 APERTURE LIST*
%ADD10C,0.010000*%
%ADD11C,0.100000*%
G04 APERTURE END LIST*
D10*
G04 #@! TO.C,U27*
G36*
X85353264Y-127216375D02*
X85261575Y-127216446D01*
X85174218Y-127216636D01*
X85092029Y-127216939D01*
X85015845Y-127217347D01*
X84946504Y-127217851D01*
X84884843Y-127218443D01*
X84831699Y-127219117D01*
X84787909Y-127219863D01*
X84754309Y-127220674D01*
X84731738Y-127221542D01*
X84721637Y-127222350D01*
X84695126Y-127226427D01*
X84668508Y-127230397D01*
X84655459Y-127232280D01*
X84622039Y-127239215D01*
X84582223Y-127250859D01*
X84540539Y-127265633D01*
X84501515Y-127281956D01*
X84474777Y-127295333D01*
X84421867Y-127331802D01*
X84376174Y-127377687D01*
X84338800Y-127431379D01*
X84310847Y-127491270D01*
X84293417Y-127555753D01*
X84292459Y-127561374D01*
X84289132Y-127581830D01*
X84971293Y-127583434D01*
X85653455Y-127585038D01*
X85680153Y-127663822D01*
X85688670Y-127688922D01*
X85700551Y-127723882D01*
X85715091Y-127766631D01*
X85731584Y-127815098D01*
X85749327Y-127867212D01*
X85767614Y-127920902D01*
X85779880Y-127956899D01*
X85796669Y-128006202D01*
X85812100Y-128051592D01*
X85825717Y-128091722D01*
X85837065Y-128125248D01*
X85845689Y-128150824D01*
X85851132Y-128167105D01*
X85852944Y-128172741D01*
X85846736Y-128172890D01*
X85828474Y-128173048D01*
X85798708Y-128173215D01*
X85757990Y-128173389D01*
X85706871Y-128173569D01*
X85645901Y-128173754D01*
X85575632Y-128173942D01*
X85496614Y-128174133D01*
X85409399Y-128174326D01*
X85314538Y-128174518D01*
X85212581Y-128174710D01*
X85104080Y-128174899D01*
X84989586Y-128175085D01*
X84869650Y-128175266D01*
X84744822Y-128175442D01*
X84615654Y-128175611D01*
X84482697Y-128175771D01*
X84374987Y-128175892D01*
X84239418Y-128176023D01*
X84107200Y-128176120D01*
X83978886Y-128176182D01*
X83855027Y-128176212D01*
X83736172Y-128176210D01*
X83622874Y-128176177D01*
X83515684Y-128176113D01*
X83415152Y-128176019D01*
X83321829Y-128175897D01*
X83236267Y-128175746D01*
X83159016Y-128175569D01*
X83090628Y-128175365D01*
X83031653Y-128175135D01*
X82982643Y-128174881D01*
X82944148Y-128174603D01*
X82916721Y-128174301D01*
X82900911Y-128173978D01*
X82896997Y-128173706D01*
X82901892Y-128167800D01*
X82915853Y-128155250D01*
X82937798Y-128136884D01*
X82966643Y-128113535D01*
X83001307Y-128086031D01*
X83040705Y-128055202D01*
X83083754Y-128021880D01*
X83129372Y-127986895D01*
X83176476Y-127951076D01*
X83223982Y-127915254D01*
X83270808Y-127880259D01*
X83315870Y-127846921D01*
X83358085Y-127816071D01*
X83396371Y-127788539D01*
X83429644Y-127765155D01*
X83432729Y-127763025D01*
X83477258Y-127732873D01*
X83528514Y-127699057D01*
X83583827Y-127663268D01*
X83640526Y-127627200D01*
X83695941Y-127592547D01*
X83747401Y-127561000D01*
X83792235Y-127534254D01*
X83807742Y-127525265D01*
X83842268Y-127505999D01*
X83883109Y-127484070D01*
X83927820Y-127460710D01*
X83973957Y-127437154D01*
X84019075Y-127414632D01*
X84060730Y-127394379D01*
X84096478Y-127377627D01*
X84123873Y-127365609D01*
X84126029Y-127364727D01*
X84148628Y-127355448D01*
X84167995Y-127347286D01*
X84179603Y-127342161D01*
X84210474Y-127328902D01*
X84249081Y-127314392D01*
X84293234Y-127299263D01*
X84340746Y-127284143D01*
X84389427Y-127269665D01*
X84437089Y-127256457D01*
X84481543Y-127245150D01*
X84520602Y-127236375D01*
X84552076Y-127230763D01*
X84572706Y-127228933D01*
X84586330Y-127227102D01*
X84592410Y-127222664D01*
X84592431Y-127222359D01*
X84586286Y-127221259D01*
X84568476Y-127220296D01*
X84539943Y-127219466D01*
X84501627Y-127218765D01*
X84454469Y-127218189D01*
X84399409Y-127217735D01*
X84337388Y-127217399D01*
X84269346Y-127217177D01*
X84196225Y-127217064D01*
X84118964Y-127217058D01*
X84038504Y-127217155D01*
X83955787Y-127217350D01*
X83871752Y-127217639D01*
X83787340Y-127218020D01*
X83703492Y-127218488D01*
X83621148Y-127219039D01*
X83541248Y-127219670D01*
X83464735Y-127220377D01*
X83392547Y-127221155D01*
X83325626Y-127222002D01*
X83264913Y-127222913D01*
X83211347Y-127223884D01*
X83165870Y-127224912D01*
X83129421Y-127225993D01*
X83102943Y-127227122D01*
X83087375Y-127228297D01*
X83086079Y-127228471D01*
X83008678Y-127242962D01*
X82934563Y-127262585D01*
X82865623Y-127286604D01*
X82803749Y-127314285D01*
X82750829Y-127344890D01*
X82713060Y-127373753D01*
X82669398Y-127420950D01*
X82633938Y-127476647D01*
X82607588Y-127539065D01*
X82591254Y-127606423D01*
X82589932Y-127615319D01*
X82587626Y-127640502D01*
X82586241Y-127673288D01*
X82585778Y-127709631D01*
X82586238Y-127745487D01*
X82587622Y-127776810D01*
X82589895Y-127799330D01*
X82607632Y-127884435D01*
X82633369Y-127970763D01*
X82666013Y-128055951D01*
X82704474Y-128137635D01*
X82747659Y-128213451D01*
X82794475Y-128281034D01*
X82833977Y-128327764D01*
X82888378Y-128379225D01*
X82952887Y-128427873D01*
X83028473Y-128474399D01*
X83073594Y-128498555D01*
X83134831Y-128528317D01*
X83192432Y-128552637D01*
X83249862Y-128572632D01*
X83310584Y-128589418D01*
X83378062Y-128604115D01*
X83430212Y-128613594D01*
X83446999Y-128616112D01*
X83466390Y-128618280D01*
X83489550Y-128620142D01*
X83517643Y-128621739D01*
X83551835Y-128623113D01*
X83593289Y-128624308D01*
X83643170Y-128625364D01*
X83702641Y-128626326D01*
X83772869Y-128627235D01*
X83819715Y-128627762D01*
X84146825Y-128631291D01*
X84179749Y-128754194D01*
X84192899Y-128803462D01*
X84207833Y-128859731D01*
X84224076Y-128921179D01*
X84241149Y-128985981D01*
X84258576Y-129052316D01*
X84275878Y-129118359D01*
X84292579Y-129182288D01*
X84308202Y-129242278D01*
X84322269Y-129296509D01*
X84334303Y-129343155D01*
X84343826Y-129380394D01*
X84347643Y-129395497D01*
X84368617Y-129479008D01*
X84582943Y-129479008D01*
X84797270Y-129479007D01*
X84797270Y-130730100D01*
X85017866Y-130730100D01*
X85017866Y-129479007D01*
X85119474Y-129479007D01*
X85221083Y-129479008D01*
X85224939Y-129411253D01*
X85225875Y-129389961D01*
X85226916Y-129357850D01*
X85228021Y-129316704D01*
X85229149Y-129268310D01*
X85230260Y-129214452D01*
X85231312Y-129156916D01*
X85232266Y-129097486D01*
X85232537Y-129078784D01*
X85233606Y-129008300D01*
X85234734Y-128949123D01*
X85236054Y-128899957D01*
X85237698Y-128859504D01*
X85239797Y-128826467D01*
X85242484Y-128799548D01*
X85245890Y-128777450D01*
X85250147Y-128758875D01*
X85255388Y-128742527D01*
X85261743Y-128727107D01*
X85269346Y-128711319D01*
X85270041Y-128709945D01*
X85298755Y-128665383D01*
X85335605Y-128629924D01*
X85375210Y-128605455D01*
X85395036Y-128595872D01*
X85413931Y-128587928D01*
X85433295Y-128581473D01*
X85454531Y-128576353D01*
X85479041Y-128572417D01*
X85508226Y-128569512D01*
X85543489Y-128567485D01*
X85586233Y-128566185D01*
X85637858Y-128565460D01*
X85699767Y-128565156D01*
X85746565Y-128565112D01*
X85985978Y-128565112D01*
X85994492Y-128585596D01*
X85998796Y-128597004D01*
X86006504Y-128618514D01*
X86016975Y-128648289D01*
X86029565Y-128684492D01*
X86043632Y-128725287D01*
X86056765Y-128763648D01*
X86073339Y-128812181D01*
X86092854Y-128869248D01*
X86114150Y-128931465D01*
X86136067Y-128995445D01*
X86157447Y-129057803D01*
X86177130Y-129115153D01*
X86177627Y-129116601D01*
X86203371Y-129191568D01*
X86225312Y-129255479D01*
X86243744Y-129309201D01*
X86258962Y-129353599D01*
X86271262Y-129389538D01*
X86280939Y-129417884D01*
X86288288Y-129439502D01*
X86293604Y-129455257D01*
X86297182Y-129466015D01*
X86299317Y-129472641D01*
X86300305Y-129476001D01*
X86300471Y-129476862D01*
X86306418Y-129477595D01*
X86322834Y-129478220D01*
X86347584Y-129478691D01*
X86378531Y-129478961D01*
X86398838Y-129479008D01*
X86436184Y-129479132D01*
X86462628Y-129479624D01*
X86479871Y-129480664D01*
X86489617Y-129482430D01*
X86493567Y-129485103D01*
X86493422Y-129488862D01*
X86493379Y-129488977D01*
X86492550Y-129497266D01*
X86491778Y-129516776D01*
X86491083Y-129546125D01*
X86490485Y-129583929D01*
X86490004Y-129628806D01*
X86489661Y-129679371D01*
X86489475Y-129734242D01*
X86489449Y-129758419D01*
X86489345Y-130017891D01*
X86402660Y-129929653D01*
X86377395Y-129903897D01*
X86345067Y-129870883D01*
X86307408Y-129832382D01*
X86266151Y-129790165D01*
X86223025Y-129746005D01*
X86179765Y-129701675D01*
X86147837Y-129668933D01*
X86109615Y-129629942D01*
X86073562Y-129593580D01*
X86040752Y-129560899D01*
X86012259Y-129532952D01*
X85989159Y-129510793D01*
X85972525Y-129495473D01*
X85963434Y-129488046D01*
X85962888Y-129487729D01*
X85951563Y-129484908D01*
X85930814Y-129482577D01*
X85902767Y-129480747D01*
X85869551Y-129479428D01*
X85833292Y-129478628D01*
X85796118Y-129478360D01*
X85760154Y-129478632D01*
X85727529Y-129479454D01*
X85700370Y-129480838D01*
X85680803Y-129482791D01*
X85670955Y-129485326D01*
X85670198Y-129486352D01*
X85674567Y-129491996D01*
X85687147Y-129505667D01*
X85707152Y-129526565D01*
X85733792Y-129553890D01*
X85766281Y-129586844D01*
X85803831Y-129624627D01*
X85845654Y-129666439D01*
X85890961Y-129711481D01*
X85933337Y-129753399D01*
X85988466Y-129807819D01*
X86035265Y-129854084D01*
X86074377Y-129892890D01*
X86106443Y-129924936D01*
X86132106Y-129950920D01*
X86152009Y-129971540D01*
X86166795Y-129987494D01*
X86177104Y-129999479D01*
X86183581Y-130008193D01*
X86186867Y-130014335D01*
X86187604Y-130018603D01*
X86186436Y-130021694D01*
X86184005Y-130024306D01*
X86183292Y-130024950D01*
X86174391Y-130034727D01*
X86160285Y-130052223D01*
X86143015Y-130074841D01*
X86126994Y-130096675D01*
X86104008Y-130128456D01*
X86078084Y-130164079D01*
X86053284Y-130197969D01*
X86042019Y-130213276D01*
X86021492Y-130241174D01*
X85996712Y-130274974D01*
X85970830Y-130310373D01*
X85947423Y-130342482D01*
X85924463Y-130374015D01*
X85900439Y-130406969D01*
X85878134Y-130437529D01*
X85860328Y-130461884D01*
X85859651Y-130462808D01*
X85842677Y-130486021D01*
X85820850Y-130515917D01*
X85796732Y-130548987D01*
X85772883Y-130581721D01*
X85767891Y-130588578D01*
X85746179Y-130618334D01*
X85725283Y-130646852D01*
X85707163Y-130671463D01*
X85693779Y-130689499D01*
X85690495Y-130693873D01*
X85679668Y-130710051D01*
X85673772Y-130722597D01*
X85673535Y-130727248D01*
X85681050Y-130729554D01*
X85698855Y-130731298D01*
X85724645Y-130732498D01*
X85756119Y-130733170D01*
X85790973Y-130733332D01*
X85826904Y-130733004D01*
X85861609Y-130732202D01*
X85892785Y-130730944D01*
X85918130Y-130729248D01*
X85935339Y-130727132D01*
X85941672Y-130725172D01*
X85949540Y-130716943D01*
X85962579Y-130701108D01*
X85978643Y-130680328D01*
X85988491Y-130667072D01*
X86009405Y-130638539D01*
X86032291Y-130607372D01*
X86053028Y-130579183D01*
X86057930Y-130572531D01*
X86071644Y-130553832D01*
X86091045Y-130527242D01*
X86114440Y-130495088D01*
X86140136Y-130459698D01*
X86166439Y-130423401D01*
X86171830Y-130415953D01*
X86214407Y-130357128D01*
X86250102Y-130307854D01*
X86279405Y-130267459D01*
X86302805Y-130235268D01*
X86320792Y-130210608D01*
X86333856Y-130192805D01*
X86341855Y-130182026D01*
X86354877Y-130164649D01*
X86425366Y-130232195D01*
X86495856Y-130299741D01*
X86495856Y-130726948D01*
X86722754Y-130726948D01*
X86722754Y-129487787D01*
X86570914Y-129037479D01*
X86544997Y-128960633D01*
X86519098Y-128883865D01*
X86493675Y-128808535D01*
X86469190Y-128736005D01*
X86446100Y-128667636D01*
X86424866Y-128604787D01*
X86405947Y-128548820D01*
X86389803Y-128501096D01*
X86376894Y-128462975D01*
X86375763Y-128459638D01*
X84900599Y-128459638D01*
X84874691Y-128497789D01*
X84859557Y-128522675D01*
X84843363Y-128553392D01*
X84829267Y-128583891D01*
X84827478Y-128588199D01*
X84819421Y-128608336D01*
X84812516Y-128627001D01*
X84806669Y-128645327D01*
X84801789Y-128664446D01*
X84797782Y-128685492D01*
X84794556Y-128709595D01*
X84792018Y-128737888D01*
X84790076Y-128771503D01*
X84788637Y-128811574D01*
X84787608Y-128859231D01*
X84786896Y-128915608D01*
X84786410Y-128981837D01*
X84786055Y-129059049D01*
X84785920Y-129096096D01*
X84785634Y-129161934D01*
X84785257Y-129223851D01*
X84784805Y-129280727D01*
X84784291Y-129331441D01*
X84783729Y-129374875D01*
X84783133Y-129409906D01*
X84782517Y-129435416D01*
X84781896Y-129450283D01*
X84781433Y-129453776D01*
X84778678Y-129448085D01*
X84773916Y-129432772D01*
X84767937Y-129410508D01*
X84764230Y-129395497D01*
X84757733Y-129368948D01*
X84748952Y-129333854D01*
X84738810Y-129293863D01*
X84728229Y-129252620D01*
X84722381Y-129230050D01*
X84711369Y-129187729D01*
X84699652Y-129142703D01*
X84688348Y-129099265D01*
X84678573Y-129061710D01*
X84674814Y-129047271D01*
X84654670Y-128970368D01*
X84632156Y-128885265D01*
X84608316Y-128795895D01*
X84586095Y-128713226D01*
X84577600Y-128681584D01*
X84566700Y-128640742D01*
X84554190Y-128593693D01*
X84540864Y-128543431D01*
X84527519Y-128492948D01*
X84519957Y-128464268D01*
X84507680Y-128417749D01*
X84495602Y-128372156D01*
X84484355Y-128329866D01*
X84474574Y-128293253D01*
X84466889Y-128264696D01*
X84462920Y-128250128D01*
X84456506Y-128226166D01*
X84451837Y-128207435D01*
X84449603Y-128196765D01*
X84449568Y-128195354D01*
X84453743Y-128199355D01*
X84463781Y-128211205D01*
X84477884Y-128228746D01*
X84485436Y-128238382D01*
X84542918Y-128303137D01*
X84606012Y-128357012D01*
X84674238Y-128399728D01*
X84747117Y-128431009D01*
X84824171Y-128450577D01*
X84859671Y-128455445D01*
X84900599Y-128459638D01*
X86375763Y-128459638D01*
X86369851Y-128442209D01*
X86335128Y-128339997D01*
X86302444Y-128243875D01*
X86272121Y-128154797D01*
X86244486Y-128073713D01*
X86219861Y-128001575D01*
X86198572Y-127939334D01*
X86180943Y-127887943D01*
X86178647Y-127881266D01*
X86169060Y-127853318D01*
X86156057Y-127815299D01*
X86140275Y-127769075D01*
X86122350Y-127716514D01*
X86102919Y-127659480D01*
X86082616Y-127599840D01*
X86062080Y-127539459D01*
X86052638Y-127511681D01*
X86033569Y-127455731D01*
X86015536Y-127403139D01*
X85998983Y-127355175D01*
X85984353Y-127313113D01*
X85972090Y-127278222D01*
X85962639Y-127251776D01*
X85956442Y-127235045D01*
X85954196Y-127229634D01*
X85947075Y-127216328D01*
X85353264Y-127216375D01*
X85353264Y-127216375D01*
G37*
X85353264Y-127216375D02*
X85261575Y-127216446D01*
X85174218Y-127216636D01*
X85092029Y-127216939D01*
X85015845Y-127217347D01*
X84946504Y-127217851D01*
X84884843Y-127218443D01*
X84831699Y-127219117D01*
X84787909Y-127219863D01*
X84754309Y-127220674D01*
X84731738Y-127221542D01*
X84721637Y-127222350D01*
X84695126Y-127226427D01*
X84668508Y-127230397D01*
X84655459Y-127232280D01*
X84622039Y-127239215D01*
X84582223Y-127250859D01*
X84540539Y-127265633D01*
X84501515Y-127281956D01*
X84474777Y-127295333D01*
X84421867Y-127331802D01*
X84376174Y-127377687D01*
X84338800Y-127431379D01*
X84310847Y-127491270D01*
X84293417Y-127555753D01*
X84292459Y-127561374D01*
X84289132Y-127581830D01*
X84971293Y-127583434D01*
X85653455Y-127585038D01*
X85680153Y-127663822D01*
X85688670Y-127688922D01*
X85700551Y-127723882D01*
X85715091Y-127766631D01*
X85731584Y-127815098D01*
X85749327Y-127867212D01*
X85767614Y-127920902D01*
X85779880Y-127956899D01*
X85796669Y-128006202D01*
X85812100Y-128051592D01*
X85825717Y-128091722D01*
X85837065Y-128125248D01*
X85845689Y-128150824D01*
X85851132Y-128167105D01*
X85852944Y-128172741D01*
X85846736Y-128172890D01*
X85828474Y-128173048D01*
X85798708Y-128173215D01*
X85757990Y-128173389D01*
X85706871Y-128173569D01*
X85645901Y-128173754D01*
X85575632Y-128173942D01*
X85496614Y-128174133D01*
X85409399Y-128174326D01*
X85314538Y-128174518D01*
X85212581Y-128174710D01*
X85104080Y-128174899D01*
X84989586Y-128175085D01*
X84869650Y-128175266D01*
X84744822Y-128175442D01*
X84615654Y-128175611D01*
X84482697Y-128175771D01*
X84374987Y-128175892D01*
X84239418Y-128176023D01*
X84107200Y-128176120D01*
X83978886Y-128176182D01*
X83855027Y-128176212D01*
X83736172Y-128176210D01*
X83622874Y-128176177D01*
X83515684Y-128176113D01*
X83415152Y-128176019D01*
X83321829Y-128175897D01*
X83236267Y-128175746D01*
X83159016Y-128175569D01*
X83090628Y-128175365D01*
X83031653Y-128175135D01*
X82982643Y-128174881D01*
X82944148Y-128174603D01*
X82916721Y-128174301D01*
X82900911Y-128173978D01*
X82896997Y-128173706D01*
X82901892Y-128167800D01*
X82915853Y-128155250D01*
X82937798Y-128136884D01*
X82966643Y-128113535D01*
X83001307Y-128086031D01*
X83040705Y-128055202D01*
X83083754Y-128021880D01*
X83129372Y-127986895D01*
X83176476Y-127951076D01*
X83223982Y-127915254D01*
X83270808Y-127880259D01*
X83315870Y-127846921D01*
X83358085Y-127816071D01*
X83396371Y-127788539D01*
X83429644Y-127765155D01*
X83432729Y-127763025D01*
X83477258Y-127732873D01*
X83528514Y-127699057D01*
X83583827Y-127663268D01*
X83640526Y-127627200D01*
X83695941Y-127592547D01*
X83747401Y-127561000D01*
X83792235Y-127534254D01*
X83807742Y-127525265D01*
X83842268Y-127505999D01*
X83883109Y-127484070D01*
X83927820Y-127460710D01*
X83973957Y-127437154D01*
X84019075Y-127414632D01*
X84060730Y-127394379D01*
X84096478Y-127377627D01*
X84123873Y-127365609D01*
X84126029Y-127364727D01*
X84148628Y-127355448D01*
X84167995Y-127347286D01*
X84179603Y-127342161D01*
X84210474Y-127328902D01*
X84249081Y-127314392D01*
X84293234Y-127299263D01*
X84340746Y-127284143D01*
X84389427Y-127269665D01*
X84437089Y-127256457D01*
X84481543Y-127245150D01*
X84520602Y-127236375D01*
X84552076Y-127230763D01*
X84572706Y-127228933D01*
X84586330Y-127227102D01*
X84592410Y-127222664D01*
X84592431Y-127222359D01*
X84586286Y-127221259D01*
X84568476Y-127220296D01*
X84539943Y-127219466D01*
X84501627Y-127218765D01*
X84454469Y-127218189D01*
X84399409Y-127217735D01*
X84337388Y-127217399D01*
X84269346Y-127217177D01*
X84196225Y-127217064D01*
X84118964Y-127217058D01*
X84038504Y-127217155D01*
X83955787Y-127217350D01*
X83871752Y-127217639D01*
X83787340Y-127218020D01*
X83703492Y-127218488D01*
X83621148Y-127219039D01*
X83541248Y-127219670D01*
X83464735Y-127220377D01*
X83392547Y-127221155D01*
X83325626Y-127222002D01*
X83264913Y-127222913D01*
X83211347Y-127223884D01*
X83165870Y-127224912D01*
X83129421Y-127225993D01*
X83102943Y-127227122D01*
X83087375Y-127228297D01*
X83086079Y-127228471D01*
X83008678Y-127242962D01*
X82934563Y-127262585D01*
X82865623Y-127286604D01*
X82803749Y-127314285D01*
X82750829Y-127344890D01*
X82713060Y-127373753D01*
X82669398Y-127420950D01*
X82633938Y-127476647D01*
X82607588Y-127539065D01*
X82591254Y-127606423D01*
X82589932Y-127615319D01*
X82587626Y-127640502D01*
X82586241Y-127673288D01*
X82585778Y-127709631D01*
X82586238Y-127745487D01*
X82587622Y-127776810D01*
X82589895Y-127799330D01*
X82607632Y-127884435D01*
X82633369Y-127970763D01*
X82666013Y-128055951D01*
X82704474Y-128137635D01*
X82747659Y-128213451D01*
X82794475Y-128281034D01*
X82833977Y-128327764D01*
X82888378Y-128379225D01*
X82952887Y-128427873D01*
X83028473Y-128474399D01*
X83073594Y-128498555D01*
X83134831Y-128528317D01*
X83192432Y-128552637D01*
X83249862Y-128572632D01*
X83310584Y-128589418D01*
X83378062Y-128604115D01*
X83430212Y-128613594D01*
X83446999Y-128616112D01*
X83466390Y-128618280D01*
X83489550Y-128620142D01*
X83517643Y-128621739D01*
X83551835Y-128623113D01*
X83593289Y-128624308D01*
X83643170Y-128625364D01*
X83702641Y-128626326D01*
X83772869Y-128627235D01*
X83819715Y-128627762D01*
X84146825Y-128631291D01*
X84179749Y-128754194D01*
X84192899Y-128803462D01*
X84207833Y-128859731D01*
X84224076Y-128921179D01*
X84241149Y-128985981D01*
X84258576Y-129052316D01*
X84275878Y-129118359D01*
X84292579Y-129182288D01*
X84308202Y-129242278D01*
X84322269Y-129296509D01*
X84334303Y-129343155D01*
X84343826Y-129380394D01*
X84347643Y-129395497D01*
X84368617Y-129479008D01*
X84582943Y-129479008D01*
X84797270Y-129479007D01*
X84797270Y-130730100D01*
X85017866Y-130730100D01*
X85017866Y-129479007D01*
X85119474Y-129479007D01*
X85221083Y-129479008D01*
X85224939Y-129411253D01*
X85225875Y-129389961D01*
X85226916Y-129357850D01*
X85228021Y-129316704D01*
X85229149Y-129268310D01*
X85230260Y-129214452D01*
X85231312Y-129156916D01*
X85232266Y-129097486D01*
X85232537Y-129078784D01*
X85233606Y-129008300D01*
X85234734Y-128949123D01*
X85236054Y-128899957D01*
X85237698Y-128859504D01*
X85239797Y-128826467D01*
X85242484Y-128799548D01*
X85245890Y-128777450D01*
X85250147Y-128758875D01*
X85255388Y-128742527D01*
X85261743Y-128727107D01*
X85269346Y-128711319D01*
X85270041Y-128709945D01*
X85298755Y-128665383D01*
X85335605Y-128629924D01*
X85375210Y-128605455D01*
X85395036Y-128595872D01*
X85413931Y-128587928D01*
X85433295Y-128581473D01*
X85454531Y-128576353D01*
X85479041Y-128572417D01*
X85508226Y-128569512D01*
X85543489Y-128567485D01*
X85586233Y-128566185D01*
X85637858Y-128565460D01*
X85699767Y-128565156D01*
X85746565Y-128565112D01*
X85985978Y-128565112D01*
X85994492Y-128585596D01*
X85998796Y-128597004D01*
X86006504Y-128618514D01*
X86016975Y-128648289D01*
X86029565Y-128684492D01*
X86043632Y-128725287D01*
X86056765Y-128763648D01*
X86073339Y-128812181D01*
X86092854Y-128869248D01*
X86114150Y-128931465D01*
X86136067Y-128995445D01*
X86157447Y-129057803D01*
X86177130Y-129115153D01*
X86177627Y-129116601D01*
X86203371Y-129191568D01*
X86225312Y-129255479D01*
X86243744Y-129309201D01*
X86258962Y-129353599D01*
X86271262Y-129389538D01*
X86280939Y-129417884D01*
X86288288Y-129439502D01*
X86293604Y-129455257D01*
X86297182Y-129466015D01*
X86299317Y-129472641D01*
X86300305Y-129476001D01*
X86300471Y-129476862D01*
X86306418Y-129477595D01*
X86322834Y-129478220D01*
X86347584Y-129478691D01*
X86378531Y-129478961D01*
X86398838Y-129479008D01*
X86436184Y-129479132D01*
X86462628Y-129479624D01*
X86479871Y-129480664D01*
X86489617Y-129482430D01*
X86493567Y-129485103D01*
X86493422Y-129488862D01*
X86493379Y-129488977D01*
X86492550Y-129497266D01*
X86491778Y-129516776D01*
X86491083Y-129546125D01*
X86490485Y-129583929D01*
X86490004Y-129628806D01*
X86489661Y-129679371D01*
X86489475Y-129734242D01*
X86489449Y-129758419D01*
X86489345Y-130017891D01*
X86402660Y-129929653D01*
X86377395Y-129903897D01*
X86345067Y-129870883D01*
X86307408Y-129832382D01*
X86266151Y-129790165D01*
X86223025Y-129746005D01*
X86179765Y-129701675D01*
X86147837Y-129668933D01*
X86109615Y-129629942D01*
X86073562Y-129593580D01*
X86040752Y-129560899D01*
X86012259Y-129532952D01*
X85989159Y-129510793D01*
X85972525Y-129495473D01*
X85963434Y-129488046D01*
X85962888Y-129487729D01*
X85951563Y-129484908D01*
X85930814Y-129482577D01*
X85902767Y-129480747D01*
X85869551Y-129479428D01*
X85833292Y-129478628D01*
X85796118Y-129478360D01*
X85760154Y-129478632D01*
X85727529Y-129479454D01*
X85700370Y-129480838D01*
X85680803Y-129482791D01*
X85670955Y-129485326D01*
X85670198Y-129486352D01*
X85674567Y-129491996D01*
X85687147Y-129505667D01*
X85707152Y-129526565D01*
X85733792Y-129553890D01*
X85766281Y-129586844D01*
X85803831Y-129624627D01*
X85845654Y-129666439D01*
X85890961Y-129711481D01*
X85933337Y-129753399D01*
X85988466Y-129807819D01*
X86035265Y-129854084D01*
X86074377Y-129892890D01*
X86106443Y-129924936D01*
X86132106Y-129950920D01*
X86152009Y-129971540D01*
X86166795Y-129987494D01*
X86177104Y-129999479D01*
X86183581Y-130008193D01*
X86186867Y-130014335D01*
X86187604Y-130018603D01*
X86186436Y-130021694D01*
X86184005Y-130024306D01*
X86183292Y-130024950D01*
X86174391Y-130034727D01*
X86160285Y-130052223D01*
X86143015Y-130074841D01*
X86126994Y-130096675D01*
X86104008Y-130128456D01*
X86078084Y-130164079D01*
X86053284Y-130197969D01*
X86042019Y-130213276D01*
X86021492Y-130241174D01*
X85996712Y-130274974D01*
X85970830Y-130310373D01*
X85947423Y-130342482D01*
X85924463Y-130374015D01*
X85900439Y-130406969D01*
X85878134Y-130437529D01*
X85860328Y-130461884D01*
X85859651Y-130462808D01*
X85842677Y-130486021D01*
X85820850Y-130515917D01*
X85796732Y-130548987D01*
X85772883Y-130581721D01*
X85767891Y-130588578D01*
X85746179Y-130618334D01*
X85725283Y-130646852D01*
X85707163Y-130671463D01*
X85693779Y-130689499D01*
X85690495Y-130693873D01*
X85679668Y-130710051D01*
X85673772Y-130722597D01*
X85673535Y-130727248D01*
X85681050Y-130729554D01*
X85698855Y-130731298D01*
X85724645Y-130732498D01*
X85756119Y-130733170D01*
X85790973Y-130733332D01*
X85826904Y-130733004D01*
X85861609Y-130732202D01*
X85892785Y-130730944D01*
X85918130Y-130729248D01*
X85935339Y-130727132D01*
X85941672Y-130725172D01*
X85949540Y-130716943D01*
X85962579Y-130701108D01*
X85978643Y-130680328D01*
X85988491Y-130667072D01*
X86009405Y-130638539D01*
X86032291Y-130607372D01*
X86053028Y-130579183D01*
X86057930Y-130572531D01*
X86071644Y-130553832D01*
X86091045Y-130527242D01*
X86114440Y-130495088D01*
X86140136Y-130459698D01*
X86166439Y-130423401D01*
X86171830Y-130415953D01*
X86214407Y-130357128D01*
X86250102Y-130307854D01*
X86279405Y-130267459D01*
X86302805Y-130235268D01*
X86320792Y-130210608D01*
X86333856Y-130192805D01*
X86341855Y-130182026D01*
X86354877Y-130164649D01*
X86425366Y-130232195D01*
X86495856Y-130299741D01*
X86495856Y-130726948D01*
X86722754Y-130726948D01*
X86722754Y-129487787D01*
X86570914Y-129037479D01*
X86544997Y-128960633D01*
X86519098Y-128883865D01*
X86493675Y-128808535D01*
X86469190Y-128736005D01*
X86446100Y-128667636D01*
X86424866Y-128604787D01*
X86405947Y-128548820D01*
X86389803Y-128501096D01*
X86376894Y-128462975D01*
X86375763Y-128459638D01*
X84900599Y-128459638D01*
X84874691Y-128497789D01*
X84859557Y-128522675D01*
X84843363Y-128553392D01*
X84829267Y-128583891D01*
X84827478Y-128588199D01*
X84819421Y-128608336D01*
X84812516Y-128627001D01*
X84806669Y-128645327D01*
X84801789Y-128664446D01*
X84797782Y-128685492D01*
X84794556Y-128709595D01*
X84792018Y-128737888D01*
X84790076Y-128771503D01*
X84788637Y-128811574D01*
X84787608Y-128859231D01*
X84786896Y-128915608D01*
X84786410Y-128981837D01*
X84786055Y-129059049D01*
X84785920Y-129096096D01*
X84785634Y-129161934D01*
X84785257Y-129223851D01*
X84784805Y-129280727D01*
X84784291Y-129331441D01*
X84783729Y-129374875D01*
X84783133Y-129409906D01*
X84782517Y-129435416D01*
X84781896Y-129450283D01*
X84781433Y-129453776D01*
X84778678Y-129448085D01*
X84773916Y-129432772D01*
X84767937Y-129410508D01*
X84764230Y-129395497D01*
X84757733Y-129368948D01*
X84748952Y-129333854D01*
X84738810Y-129293863D01*
X84728229Y-129252620D01*
X84722381Y-129230050D01*
X84711369Y-129187729D01*
X84699652Y-129142703D01*
X84688348Y-129099265D01*
X84678573Y-129061710D01*
X84674814Y-129047271D01*
X84654670Y-128970368D01*
X84632156Y-128885265D01*
X84608316Y-128795895D01*
X84586095Y-128713226D01*
X84577600Y-128681584D01*
X84566700Y-128640742D01*
X84554190Y-128593693D01*
X84540864Y-128543431D01*
X84527519Y-128492948D01*
X84519957Y-128464268D01*
X84507680Y-128417749D01*
X84495602Y-128372156D01*
X84484355Y-128329866D01*
X84474574Y-128293253D01*
X84466889Y-128264696D01*
X84462920Y-128250128D01*
X84456506Y-128226166D01*
X84451837Y-128207435D01*
X84449603Y-128196765D01*
X84449568Y-128195354D01*
X84453743Y-128199355D01*
X84463781Y-128211205D01*
X84477884Y-128228746D01*
X84485436Y-128238382D01*
X84542918Y-128303137D01*
X84606012Y-128357012D01*
X84674238Y-128399728D01*
X84747117Y-128431009D01*
X84824171Y-128450577D01*
X84859671Y-128455445D01*
X84900599Y-128459638D01*
X86375763Y-128459638D01*
X86369851Y-128442209D01*
X86335128Y-128339997D01*
X86302444Y-128243875D01*
X86272121Y-128154797D01*
X86244486Y-128073713D01*
X86219861Y-128001575D01*
X86198572Y-127939334D01*
X86180943Y-127887943D01*
X86178647Y-127881266D01*
X86169060Y-127853318D01*
X86156057Y-127815299D01*
X86140275Y-127769075D01*
X86122350Y-127716514D01*
X86102919Y-127659480D01*
X86082616Y-127599840D01*
X86062080Y-127539459D01*
X86052638Y-127511681D01*
X86033569Y-127455731D01*
X86015536Y-127403139D01*
X85998983Y-127355175D01*
X85984353Y-127313113D01*
X85972090Y-127278222D01*
X85962639Y-127251776D01*
X85956442Y-127235045D01*
X85954196Y-127229634D01*
X85947075Y-127216328D01*
X85353264Y-127216375D01*
G36*
X85424125Y-130733251D02*
X85651556Y-130733251D01*
X85649848Y-130608772D01*
X85648139Y-130484293D01*
X85427543Y-130484293D01*
X85424125Y-130733251D01*
X85424125Y-130733251D01*
G37*
X85424125Y-130733251D02*
X85651556Y-130733251D01*
X85649848Y-130608772D01*
X85648139Y-130484293D01*
X85427543Y-130484293D01*
X85424125Y-130733251D01*
G36*
X84245781Y-130733251D02*
X84359428Y-130733251D01*
X84402419Y-130733030D01*
X84434168Y-130732306D01*
X84456031Y-130730984D01*
X84469365Y-130728970D01*
X84475526Y-130726170D01*
X84476180Y-130725161D01*
X84477087Y-130716491D01*
X84477697Y-130697404D01*
X84477983Y-130670082D01*
X84477922Y-130636709D01*
X84477558Y-130603833D01*
X84475831Y-130490596D01*
X84245781Y-130487160D01*
X84245781Y-130733251D01*
X84245781Y-130733251D01*
G37*
X84245781Y-130733251D02*
X84359428Y-130733251D01*
X84402419Y-130733030D01*
X84434168Y-130732306D01*
X84456031Y-130730984D01*
X84469365Y-130728970D01*
X84475526Y-130726170D01*
X84476180Y-130725161D01*
X84477087Y-130716491D01*
X84477697Y-130697404D01*
X84477983Y-130670082D01*
X84477922Y-130636709D01*
X84477558Y-130603833D01*
X84475831Y-130490596D01*
X84245781Y-130487160D01*
X84245781Y-130733251D01*
G36*
X83771501Y-129480551D02*
X83183771Y-129482159D01*
X83183771Y-129715360D01*
X83418548Y-129717013D01*
X83653325Y-129718665D01*
X83653325Y-130218395D01*
X83653370Y-130314941D01*
X83653513Y-130399511D01*
X83653763Y-130472734D01*
X83654129Y-130535239D01*
X83654620Y-130587655D01*
X83655246Y-130630610D01*
X83656016Y-130664734D01*
X83656940Y-130690656D01*
X83658027Y-130709004D01*
X83659287Y-130720408D01*
X83660728Y-130725496D01*
X83660888Y-130725688D01*
X83669422Y-130728920D01*
X83688092Y-130731220D01*
X83717651Y-130732638D01*
X83758853Y-130733227D01*
X83770964Y-130733251D01*
X83809271Y-130733150D01*
X83836888Y-130732703D01*
X83855730Y-130731696D01*
X83867709Y-130729916D01*
X83874742Y-130727148D01*
X83878742Y-130723179D01*
X83880001Y-130721060D01*
X83881400Y-130711991D01*
X83882631Y-130690340D01*
X83883694Y-130656131D01*
X83884588Y-130609385D01*
X83885314Y-130550126D01*
X83885870Y-130478375D01*
X83886257Y-130394157D01*
X83886474Y-130297494D01*
X83886526Y-130213690D01*
X83886526Y-129718511D01*
X84113874Y-129718511D01*
X84175101Y-129718439D01*
X84224892Y-129718192D01*
X84264415Y-129717725D01*
X84294838Y-129716995D01*
X84317331Y-129715956D01*
X84333061Y-129714564D01*
X84343197Y-129712776D01*
X84348908Y-129710545D01*
X84350227Y-129709508D01*
X84353634Y-129703512D01*
X84356110Y-129692257D01*
X84357778Y-129674096D01*
X84358764Y-129647381D01*
X84359189Y-129610467D01*
X84359230Y-129589723D01*
X84359230Y-129478943D01*
X83771501Y-129480551D01*
X83771501Y-129480551D01*
G37*
X83771501Y-129480551D02*
X83183771Y-129482159D01*
X83183771Y-129715360D01*
X83418548Y-129717013D01*
X83653325Y-129718665D01*
X83653325Y-130218395D01*
X83653370Y-130314941D01*
X83653513Y-130399511D01*
X83653763Y-130472734D01*
X83654129Y-130535239D01*
X83654620Y-130587655D01*
X83655246Y-130630610D01*
X83656016Y-130664734D01*
X83656940Y-130690656D01*
X83658027Y-130709004D01*
X83659287Y-130720408D01*
X83660728Y-130725496D01*
X83660888Y-130725688D01*
X83669422Y-130728920D01*
X83688092Y-130731220D01*
X83717651Y-130732638D01*
X83758853Y-130733227D01*
X83770964Y-130733251D01*
X83809271Y-130733150D01*
X83836888Y-130732703D01*
X83855730Y-130731696D01*
X83867709Y-130729916D01*
X83874742Y-130727148D01*
X83878742Y-130723179D01*
X83880001Y-130721060D01*
X83881400Y-130711991D01*
X83882631Y-130690340D01*
X83883694Y-130656131D01*
X83884588Y-130609385D01*
X83885314Y-130550126D01*
X83885870Y-130478375D01*
X83886257Y-130394157D01*
X83886474Y-130297494D01*
X83886526Y-130213690D01*
X83886526Y-129718511D01*
X84113874Y-129718511D01*
X84175101Y-129718439D01*
X84224892Y-129718192D01*
X84264415Y-129717725D01*
X84294838Y-129716995D01*
X84317331Y-129715956D01*
X84333061Y-129714564D01*
X84343197Y-129712776D01*
X84348908Y-129710545D01*
X84350227Y-129709508D01*
X84353634Y-129703512D01*
X84356110Y-129692257D01*
X84357778Y-129674096D01*
X84358764Y-129647381D01*
X84359189Y-129610467D01*
X84359230Y-129589723D01*
X84359230Y-129478943D01*
X83771501Y-129480551D01*
G36*
X83073543Y-130586712D02*
X83073814Y-130622841D01*
X83074514Y-130656325D01*
X83075551Y-130684309D01*
X83076833Y-130703936D01*
X83077519Y-130709616D01*
X83081426Y-130733251D01*
X83294069Y-130733251D01*
X83294069Y-130487444D01*
X83073474Y-130487444D01*
X83073543Y-130586712D01*
X83073543Y-130586712D01*
G37*
X83073543Y-130586712D02*
X83073814Y-130622841D01*
X83074514Y-130656325D01*
X83075551Y-130684309D01*
X83076833Y-130703936D01*
X83077519Y-130709616D01*
X83081426Y-130733251D01*
X83294069Y-130733251D01*
X83294069Y-130487444D01*
X83073474Y-130487444D01*
X83073543Y-130586712D01*
D11*
G36*
X118489485Y-170908996D02*
X118489487Y-170908997D01*
X118489488Y-170908997D01*
X118590892Y-170951000D01*
X118726255Y-171007069D01*
X118939342Y-171149449D01*
X119120551Y-171330658D01*
X119262931Y-171543745D01*
X119361004Y-171780515D01*
X119411000Y-172031861D01*
X119411000Y-172288139D01*
X119385179Y-172417951D01*
X119361003Y-172539488D01*
X119295691Y-172697165D01*
X119262931Y-172776255D01*
X119120551Y-172989342D01*
X118939342Y-173170551D01*
X118939339Y-173170553D01*
X118726255Y-173312931D01*
X118489488Y-173411003D01*
X118489487Y-173411003D01*
X118489485Y-173411004D01*
X118238139Y-173461000D01*
X117981861Y-173461000D01*
X117730515Y-173411004D01*
X117730513Y-173411003D01*
X117730512Y-173411003D01*
X117493745Y-173312931D01*
X117280661Y-173170553D01*
X117280658Y-173170551D01*
X117099449Y-172989342D01*
X116957069Y-172776255D01*
X116924309Y-172697165D01*
X116858997Y-172539488D01*
X116834822Y-172417951D01*
X116809000Y-172288139D01*
X116809000Y-172031861D01*
X116858996Y-171780515D01*
X116957069Y-171543745D01*
X117099449Y-171330658D01*
X117280658Y-171149449D01*
X117493745Y-171007069D01*
X117629108Y-170951000D01*
X117730512Y-170908997D01*
X117730513Y-170908997D01*
X117730515Y-170908996D01*
X117981861Y-170859000D01*
X118238139Y-170859000D01*
X118489485Y-170908996D01*
X118489485Y-170908996D01*
G37*
G36*
X124204472Y-172075938D02*
X124332049Y-172128782D01*
X124446865Y-172205500D01*
X124544500Y-172303135D01*
X124621218Y-172417951D01*
X124674062Y-172545528D01*
X124701000Y-172680956D01*
X124701000Y-172819044D01*
X124674062Y-172954472D01*
X124621218Y-173082049D01*
X124544500Y-173196865D01*
X124446865Y-173294500D01*
X124332049Y-173371218D01*
X124204472Y-173424062D01*
X124069044Y-173451000D01*
X123930956Y-173451000D01*
X123795528Y-173424062D01*
X123667951Y-173371218D01*
X123553135Y-173294500D01*
X123455500Y-173196865D01*
X123378782Y-173082049D01*
X123325938Y-172954472D01*
X123299000Y-172819044D01*
X123299000Y-172680956D01*
X123325938Y-172545528D01*
X123378782Y-172417951D01*
X123455500Y-172303135D01*
X123553135Y-172205500D01*
X123667951Y-172128782D01*
X123795528Y-172075938D01*
X123930956Y-172049000D01*
X124069044Y-172049000D01*
X124204472Y-172075938D01*
X124204472Y-172075938D01*
G37*
G36*
X66454472Y-172075938D02*
X66582049Y-172128782D01*
X66696865Y-172205500D01*
X66794500Y-172303135D01*
X66871218Y-172417951D01*
X66924062Y-172545528D01*
X66951000Y-172680956D01*
X66951000Y-172819044D01*
X66924062Y-172954472D01*
X66871218Y-173082049D01*
X66794500Y-173196865D01*
X66696865Y-173294500D01*
X66582049Y-173371218D01*
X66454472Y-173424062D01*
X66319044Y-173451000D01*
X66180956Y-173451000D01*
X66045528Y-173424062D01*
X65917951Y-173371218D01*
X65803135Y-173294500D01*
X65705500Y-173196865D01*
X65628782Y-173082049D01*
X65575938Y-172954472D01*
X65549000Y-172819044D01*
X65549000Y-172680956D01*
X65575938Y-172545528D01*
X65628782Y-172417951D01*
X65705500Y-172303135D01*
X65803135Y-172205500D01*
X65917951Y-172128782D01*
X66045528Y-172075938D01*
X66180956Y-172049000D01*
X66319044Y-172049000D01*
X66454472Y-172075938D01*
X66454472Y-172075938D01*
G37*
G36*
X59267957Y-170441485D02*
X59291406Y-170448598D01*
X59303540Y-170450398D01*
X59407025Y-170460590D01*
X59558012Y-170506392D01*
X59697165Y-170580770D01*
X59819133Y-170680867D01*
X59919230Y-170802835D01*
X59993608Y-170941988D01*
X60039410Y-171092975D01*
X60051000Y-171210654D01*
X60051000Y-172289346D01*
X60039410Y-172407025D01*
X59993608Y-172558012D01*
X59919230Y-172697165D01*
X59819136Y-172819130D01*
X59819134Y-172819131D01*
X59819133Y-172819133D01*
X59819129Y-172819136D01*
X59697161Y-172919232D01*
X59558011Y-172993608D01*
X59407024Y-173039410D01*
X59250000Y-173054875D01*
X59092975Y-173039410D01*
X58941988Y-172993608D01*
X58802835Y-172919230D01*
X58680870Y-172819136D01*
X58680869Y-172819134D01*
X58680867Y-172819133D01*
X58630819Y-172758148D01*
X58580768Y-172697161D01*
X58506392Y-172558011D01*
X58460590Y-172407024D01*
X58449000Y-172289345D01*
X58449001Y-171210654D01*
X58460591Y-171092975D01*
X58506393Y-170941988D01*
X58580771Y-170802835D01*
X58680868Y-170680867D01*
X58802836Y-170580770D01*
X58941989Y-170506392D01*
X59092976Y-170460590D01*
X59196460Y-170450398D01*
X59220494Y-170445618D01*
X59243133Y-170436240D01*
X59249804Y-170431782D01*
X59267957Y-170441485D01*
X59267957Y-170441485D01*
G37*
G36*
X130157024Y-170460590D02*
X130308011Y-170506392D01*
X130447161Y-170580768D01*
X130479348Y-170607183D01*
X130569133Y-170680867D01*
X130569134Y-170680869D01*
X130569136Y-170680870D01*
X130669230Y-170802835D01*
X130743608Y-170941988D01*
X130789410Y-171092975D01*
X130801000Y-171210654D01*
X130801000Y-172289346D01*
X130789410Y-172407025D01*
X130743608Y-172558012D01*
X130669230Y-172697165D01*
X130569133Y-172819133D01*
X130447165Y-172919230D01*
X130308012Y-172993608D01*
X130157025Y-173039410D01*
X130000000Y-173054875D01*
X129842976Y-173039410D01*
X129691989Y-172993608D01*
X129552836Y-172919230D01*
X129430868Y-172819133D01*
X129330771Y-172697165D01*
X129256393Y-172558012D01*
X129210591Y-172407025D01*
X129199001Y-172289346D01*
X129199000Y-171210655D01*
X129210590Y-171092976D01*
X129256392Y-170941989D01*
X129330768Y-170802839D01*
X129430865Y-170680870D01*
X129430867Y-170680867D01*
X129430869Y-170680866D01*
X129430870Y-170680864D01*
X129552835Y-170580770D01*
X129691988Y-170506392D01*
X129842975Y-170460590D01*
X130000000Y-170445125D01*
X130157024Y-170460590D01*
X130157024Y-170460590D01*
G37*
G36*
X132657024Y-170460590D02*
X132808011Y-170506392D01*
X132947161Y-170580768D01*
X132979348Y-170607183D01*
X133069133Y-170680867D01*
X133069134Y-170680869D01*
X133069136Y-170680870D01*
X133169230Y-170802835D01*
X133243608Y-170941988D01*
X133289410Y-171092975D01*
X133301000Y-171210654D01*
X133301000Y-172289346D01*
X133289410Y-172407025D01*
X133243608Y-172558012D01*
X133169230Y-172697165D01*
X133069133Y-172819133D01*
X132947165Y-172919230D01*
X132808012Y-172993608D01*
X132657025Y-173039410D01*
X132500000Y-173054875D01*
X132342976Y-173039410D01*
X132191989Y-172993608D01*
X132052836Y-172919230D01*
X131930868Y-172819133D01*
X131830771Y-172697165D01*
X131756393Y-172558012D01*
X131710591Y-172407025D01*
X131699001Y-172289346D01*
X131699000Y-171210655D01*
X131710590Y-171092976D01*
X131756392Y-170941989D01*
X131830768Y-170802839D01*
X131930865Y-170680870D01*
X131930867Y-170680867D01*
X131930869Y-170680866D01*
X131930870Y-170680864D01*
X132052835Y-170580770D01*
X132191988Y-170506392D01*
X132342975Y-170460590D01*
X132500000Y-170445125D01*
X132657024Y-170460590D01*
X132657024Y-170460590D01*
G37*
G36*
X135157024Y-170460590D02*
X135308011Y-170506392D01*
X135447161Y-170580768D01*
X135479348Y-170607183D01*
X135569133Y-170680867D01*
X135569134Y-170680869D01*
X135569136Y-170680870D01*
X135669230Y-170802835D01*
X135743608Y-170941988D01*
X135789410Y-171092975D01*
X135801000Y-171210654D01*
X135801000Y-172289346D01*
X135789410Y-172407025D01*
X135743608Y-172558012D01*
X135669230Y-172697165D01*
X135569133Y-172819133D01*
X135447165Y-172919230D01*
X135308012Y-172993608D01*
X135157025Y-173039410D01*
X135000000Y-173054875D01*
X134842976Y-173039410D01*
X134691989Y-172993608D01*
X134552836Y-172919230D01*
X134430868Y-172819133D01*
X134330771Y-172697165D01*
X134256393Y-172558012D01*
X134210591Y-172407025D01*
X134199001Y-172289346D01*
X134199000Y-171210655D01*
X134210590Y-171092976D01*
X134256392Y-170941989D01*
X134330768Y-170802839D01*
X134430865Y-170680870D01*
X134430867Y-170680867D01*
X134430869Y-170680866D01*
X134430870Y-170680864D01*
X134552835Y-170580770D01*
X134691988Y-170506392D01*
X134842975Y-170460590D01*
X135000000Y-170445125D01*
X135157024Y-170460590D01*
X135157024Y-170460590D01*
G37*
G36*
X137657024Y-170460590D02*
X137808011Y-170506392D01*
X137947161Y-170580768D01*
X137979348Y-170607183D01*
X138069133Y-170680867D01*
X138069134Y-170680869D01*
X138069136Y-170680870D01*
X138169230Y-170802835D01*
X138243608Y-170941988D01*
X138289410Y-171092975D01*
X138301000Y-171210654D01*
X138301000Y-172289346D01*
X138289410Y-172407025D01*
X138243608Y-172558012D01*
X138169230Y-172697165D01*
X138069133Y-172819133D01*
X137947165Y-172919230D01*
X137808012Y-172993608D01*
X137657025Y-173039410D01*
X137500000Y-173054875D01*
X137342976Y-173039410D01*
X137191989Y-172993608D01*
X137052836Y-172919230D01*
X136930868Y-172819133D01*
X136830771Y-172697165D01*
X136756393Y-172558012D01*
X136710591Y-172407025D01*
X136699001Y-172289346D01*
X136699000Y-171210655D01*
X136710590Y-171092976D01*
X136756392Y-170941989D01*
X136830768Y-170802839D01*
X136930865Y-170680870D01*
X136930867Y-170680867D01*
X136930869Y-170680866D01*
X136930870Y-170680864D01*
X137052835Y-170580770D01*
X137191988Y-170506392D01*
X137342975Y-170460590D01*
X137500000Y-170445125D01*
X137657024Y-170460590D01*
X137657024Y-170460590D01*
G37*
G36*
X56907025Y-170460590D02*
X57058012Y-170506392D01*
X57197165Y-170580770D01*
X57319133Y-170680867D01*
X57419230Y-170802835D01*
X57493608Y-170941988D01*
X57539410Y-171092975D01*
X57551000Y-171210654D01*
X57551000Y-172289346D01*
X57539410Y-172407025D01*
X57493608Y-172558012D01*
X57419230Y-172697165D01*
X57319136Y-172819130D01*
X57319134Y-172819131D01*
X57319133Y-172819133D01*
X57319129Y-172819136D01*
X57197161Y-172919232D01*
X57058011Y-172993608D01*
X56907024Y-173039410D01*
X56750000Y-173054875D01*
X56592975Y-173039410D01*
X56441988Y-172993608D01*
X56302835Y-172919230D01*
X56180870Y-172819136D01*
X56180869Y-172819134D01*
X56180867Y-172819133D01*
X56130819Y-172758148D01*
X56080768Y-172697161D01*
X56006392Y-172558011D01*
X55960590Y-172407024D01*
X55949000Y-172289345D01*
X55949001Y-171210654D01*
X55960591Y-171092975D01*
X56006393Y-170941988D01*
X56080771Y-170802835D01*
X56180868Y-170680867D01*
X56302836Y-170580770D01*
X56441989Y-170506392D01*
X56592976Y-170460590D01*
X56750000Y-170445125D01*
X56907025Y-170460590D01*
X56907025Y-170460590D01*
G37*
G36*
X121701000Y-171351000D02*
X120299000Y-171351000D01*
X120299000Y-170549000D01*
X121701000Y-170549000D01*
X121701000Y-171351000D01*
X121701000Y-171351000D01*
G37*
G36*
X66951000Y-170951000D02*
X65549000Y-170951000D01*
X65549000Y-169549000D01*
X66951000Y-169549000D01*
X66951000Y-170951000D01*
X66951000Y-170951000D01*
G37*
G36*
X124701000Y-170951000D02*
X123299000Y-170951000D01*
X123299000Y-169549000D01*
X124701000Y-169549000D01*
X124701000Y-170951000D01*
X124701000Y-170951000D01*
G37*
G36*
X72769485Y-168368996D02*
X72769487Y-168368997D01*
X72769488Y-168368997D01*
X72846750Y-168401000D01*
X73006255Y-168467069D01*
X73219342Y-168609449D01*
X73400551Y-168790658D01*
X73542931Y-169003745D01*
X73641004Y-169240515D01*
X73691000Y-169491861D01*
X73691000Y-169748139D01*
X73641004Y-169999485D01*
X73542931Y-170236255D01*
X73400551Y-170449342D01*
X73219342Y-170630551D01*
X73219339Y-170630553D01*
X73006255Y-170772931D01*
X72769488Y-170871003D01*
X72769487Y-170871003D01*
X72769485Y-170871004D01*
X72518139Y-170921000D01*
X72261861Y-170921000D01*
X72010515Y-170871004D01*
X72010513Y-170871003D01*
X72010512Y-170871003D01*
X71773745Y-170772931D01*
X71560661Y-170630553D01*
X71560658Y-170630551D01*
X71379449Y-170449342D01*
X71237069Y-170236255D01*
X71138996Y-169999485D01*
X71089000Y-169748139D01*
X71089000Y-169491861D01*
X71138996Y-169240515D01*
X71237069Y-169003745D01*
X71379449Y-168790658D01*
X71560658Y-168609449D01*
X71773745Y-168467069D01*
X71933250Y-168401000D01*
X72010512Y-168368997D01*
X72010513Y-168368997D01*
X72010515Y-168368996D01*
X72261861Y-168319000D01*
X72518139Y-168319000D01*
X72769485Y-168368996D01*
X72769485Y-168368996D01*
G37*
G36*
X78751848Y-167552554D02*
X78780648Y-167561290D01*
X78807183Y-167575473D01*
X78830440Y-167594560D01*
X78849527Y-167617817D01*
X78863710Y-167644352D01*
X78872446Y-167673152D01*
X78876000Y-167709233D01*
X78876000Y-170515767D01*
X78872446Y-170551848D01*
X78863710Y-170580648D01*
X78849527Y-170607183D01*
X78830440Y-170630440D01*
X78807183Y-170649527D01*
X78780648Y-170663710D01*
X78751848Y-170672446D01*
X78715767Y-170676000D01*
X74484233Y-170676000D01*
X74448152Y-170672446D01*
X74419352Y-170663710D01*
X74392817Y-170649527D01*
X74369560Y-170630440D01*
X74350473Y-170607183D01*
X74336290Y-170580648D01*
X74327554Y-170551848D01*
X74324000Y-170515767D01*
X74324000Y-167709233D01*
X74327554Y-167673152D01*
X74336290Y-167644352D01*
X74350473Y-167617817D01*
X74369560Y-167594560D01*
X74392817Y-167575473D01*
X74419352Y-167561290D01*
X74448152Y-167552554D01*
X74484233Y-167549000D01*
X78715767Y-167549000D01*
X78751848Y-167552554D01*
X78751848Y-167552554D01*
G37*
G36*
X60901000Y-170201000D02*
X59315792Y-170201000D01*
X59291406Y-170203402D01*
X59267957Y-170210515D01*
X59249804Y-170220218D01*
X59243133Y-170215760D01*
X59220493Y-170206382D01*
X59184208Y-170201000D01*
X57599000Y-170201000D01*
X57599000Y-165199000D01*
X60901000Y-165199000D01*
X60901000Y-170201000D01*
X60901000Y-170201000D01*
G37*
G36*
X135851000Y-170151000D02*
X134749000Y-170151000D01*
X134749000Y-168849000D01*
X135851000Y-168849000D01*
X135851000Y-170151000D01*
X135851000Y-170151000D01*
G37*
G36*
X137731000Y-170151000D02*
X136629000Y-170151000D01*
X136629000Y-168849000D01*
X137731000Y-168849000D01*
X137731000Y-170151000D01*
X137731000Y-170151000D01*
G37*
G36*
X121701000Y-169451000D02*
X120299000Y-169451000D01*
X120299000Y-168649000D01*
X121701000Y-168649000D01*
X121701000Y-169451000D01*
X121701000Y-169451000D01*
G37*
G36*
X137581000Y-168401000D02*
X136479000Y-168401000D01*
X136479000Y-167099000D01*
X137581000Y-167099000D01*
X137581000Y-168401000D01*
X137581000Y-168401000D01*
G37*
G36*
X136021000Y-168401000D02*
X134919000Y-168401000D01*
X134919000Y-167099000D01*
X136021000Y-167099000D01*
X136021000Y-168401000D01*
X136021000Y-168401000D01*
G37*
G36*
X132251000Y-168151000D02*
X131149000Y-168151000D01*
X131149000Y-166849000D01*
X132251000Y-166849000D01*
X132251000Y-168151000D01*
X132251000Y-168151000D01*
G37*
G36*
X130371000Y-168151000D02*
X129269000Y-168151000D01*
X129269000Y-166849000D01*
X130371000Y-166849000D01*
X130371000Y-168151000D01*
X130371000Y-168151000D01*
G37*
G36*
X142870015Y-166956973D02*
X142973879Y-166988479D01*
X143069600Y-167039644D01*
X143153501Y-167108499D01*
X143222356Y-167192400D01*
X143273521Y-167288121D01*
X143305027Y-167391985D01*
X143315666Y-167500000D01*
X143305027Y-167608015D01*
X143273521Y-167711879D01*
X143222356Y-167807600D01*
X143153501Y-167891501D01*
X143069600Y-167960356D01*
X142973879Y-168011521D01*
X142870015Y-168043027D01*
X142789067Y-168051000D01*
X142210933Y-168051000D01*
X142129985Y-168043027D01*
X142026121Y-168011521D01*
X141930400Y-167960356D01*
X141846499Y-167891501D01*
X141777644Y-167807600D01*
X141726479Y-167711879D01*
X141694973Y-167608015D01*
X141684334Y-167500000D01*
X141694973Y-167391985D01*
X141726479Y-167288121D01*
X141777644Y-167192400D01*
X141846499Y-167108499D01*
X141930400Y-167039644D01*
X142026121Y-166988479D01*
X142129985Y-166956973D01*
X142210933Y-166949000D01*
X142789067Y-166949000D01*
X142870015Y-166956973D01*
X142870015Y-166956973D01*
G37*
G36*
X121351000Y-167951000D02*
X120549000Y-167951000D01*
X120549000Y-166549000D01*
X121351000Y-166549000D01*
X121351000Y-167951000D01*
X121351000Y-167951000D01*
G37*
G36*
X119451000Y-167951000D02*
X118649000Y-167951000D01*
X118649000Y-166549000D01*
X119451000Y-166549000D01*
X119451000Y-167951000D01*
X119451000Y-167951000D01*
G37*
G36*
X146651000Y-167501000D02*
X145349000Y-167501000D01*
X145349000Y-166399000D01*
X146651000Y-166399000D01*
X146651000Y-167501000D01*
X146651000Y-167501000D01*
G37*
G36*
X103201810Y-167151050D02*
X102299710Y-167151050D01*
X102299710Y-166248950D01*
X103201810Y-166248950D01*
X103201810Y-167151050D01*
X103201810Y-167151050D01*
G37*
G36*
X130157025Y-163960590D02*
X130308012Y-164006392D01*
X130447165Y-164080770D01*
X130569133Y-164180867D01*
X130669230Y-164302835D01*
X130743608Y-164441988D01*
X130789410Y-164592975D01*
X130801000Y-164710654D01*
X130801000Y-165789346D01*
X130789410Y-165907025D01*
X130743608Y-166058012D01*
X130669230Y-166197165D01*
X130569136Y-166319130D01*
X130569134Y-166319131D01*
X130569133Y-166319133D01*
X130569129Y-166319136D01*
X130447161Y-166419232D01*
X130308011Y-166493608D01*
X130157024Y-166539410D01*
X130000000Y-166554875D01*
X129842975Y-166539410D01*
X129691988Y-166493608D01*
X129552835Y-166419230D01*
X129430870Y-166319136D01*
X129430869Y-166319134D01*
X129430867Y-166319133D01*
X129333960Y-166201050D01*
X129330768Y-166197161D01*
X129256392Y-166058011D01*
X129210590Y-165907024D01*
X129199000Y-165789345D01*
X129199001Y-164710654D01*
X129210591Y-164592975D01*
X129256393Y-164441988D01*
X129330771Y-164302835D01*
X129430868Y-164180867D01*
X129552836Y-164080770D01*
X129691989Y-164006392D01*
X129842976Y-163960590D01*
X130000000Y-163945125D01*
X130157025Y-163960590D01*
X130157025Y-163960590D01*
G37*
G36*
X132657025Y-163960590D02*
X132808012Y-164006392D01*
X132947165Y-164080770D01*
X133069133Y-164180867D01*
X133169230Y-164302835D01*
X133243608Y-164441988D01*
X133289410Y-164592975D01*
X133301000Y-164710654D01*
X133301000Y-165789346D01*
X133289410Y-165907025D01*
X133243608Y-166058012D01*
X133169230Y-166197165D01*
X133069136Y-166319130D01*
X133069134Y-166319131D01*
X133069133Y-166319133D01*
X133069129Y-166319136D01*
X132947161Y-166419232D01*
X132808011Y-166493608D01*
X132657024Y-166539410D01*
X132500000Y-166554875D01*
X132342975Y-166539410D01*
X132191988Y-166493608D01*
X132052835Y-166419230D01*
X131930870Y-166319136D01*
X131930869Y-166319134D01*
X131930867Y-166319133D01*
X131833960Y-166201050D01*
X131830768Y-166197161D01*
X131756392Y-166058011D01*
X131710590Y-165907024D01*
X131699000Y-165789345D01*
X131699001Y-164710654D01*
X131710591Y-164592975D01*
X131756393Y-164441988D01*
X131830771Y-164302835D01*
X131930868Y-164180867D01*
X132052836Y-164080770D01*
X132191989Y-164006392D01*
X132342976Y-163960590D01*
X132500000Y-163945125D01*
X132657025Y-163960590D01*
X132657025Y-163960590D01*
G37*
G36*
X135157025Y-163960590D02*
X135308012Y-164006392D01*
X135447165Y-164080770D01*
X135569133Y-164180867D01*
X135669230Y-164302835D01*
X135743608Y-164441988D01*
X135789410Y-164592975D01*
X135801000Y-164710654D01*
X135801000Y-165789346D01*
X135789410Y-165907025D01*
X135743608Y-166058012D01*
X135669230Y-166197165D01*
X135569136Y-166319130D01*
X135569134Y-166319131D01*
X135569133Y-166319133D01*
X135569129Y-166319136D01*
X135447161Y-166419232D01*
X135308011Y-166493608D01*
X135157024Y-166539410D01*
X135000000Y-166554875D01*
X134842975Y-166539410D01*
X134691988Y-166493608D01*
X134552835Y-166419230D01*
X134430870Y-166319136D01*
X134430869Y-166319134D01*
X134430867Y-166319133D01*
X134333960Y-166201050D01*
X134330768Y-166197161D01*
X134256392Y-166058011D01*
X134210590Y-165907024D01*
X134199000Y-165789345D01*
X134199001Y-164710654D01*
X134210591Y-164592975D01*
X134256393Y-164441988D01*
X134330771Y-164302835D01*
X134430868Y-164180867D01*
X134552836Y-164080770D01*
X134691989Y-164006392D01*
X134842976Y-163960590D01*
X135000000Y-163945125D01*
X135157025Y-163960590D01*
X135157025Y-163960590D01*
G37*
G36*
X137657025Y-163960590D02*
X137808012Y-164006392D01*
X137947165Y-164080770D01*
X138069133Y-164180867D01*
X138169230Y-164302835D01*
X138243608Y-164441988D01*
X138289410Y-164592975D01*
X138301000Y-164710654D01*
X138301000Y-165789346D01*
X138289410Y-165907025D01*
X138243608Y-166058012D01*
X138169230Y-166197165D01*
X138069136Y-166319130D01*
X138069134Y-166319131D01*
X138069133Y-166319133D01*
X138069129Y-166319136D01*
X137947161Y-166419232D01*
X137808011Y-166493608D01*
X137657024Y-166539410D01*
X137500000Y-166554875D01*
X137342975Y-166539410D01*
X137191988Y-166493608D01*
X137052835Y-166419230D01*
X136930870Y-166319136D01*
X136930869Y-166319134D01*
X136930867Y-166319133D01*
X136833960Y-166201050D01*
X136830768Y-166197161D01*
X136756392Y-166058011D01*
X136710590Y-165907024D01*
X136699000Y-165789345D01*
X136699001Y-164710654D01*
X136710591Y-164592975D01*
X136756393Y-164441988D01*
X136830771Y-164302835D01*
X136930868Y-164180867D01*
X137052836Y-164080770D01*
X137191989Y-164006392D01*
X137342976Y-163960590D01*
X137500000Y-163945125D01*
X137657025Y-163960590D01*
X137657025Y-163960590D01*
G37*
G36*
X142870015Y-165456973D02*
X142973879Y-165488479D01*
X143069600Y-165539644D01*
X143153501Y-165608499D01*
X143222356Y-165692400D01*
X143273521Y-165788121D01*
X143305027Y-165891985D01*
X143315666Y-166000000D01*
X143305027Y-166108015D01*
X143273521Y-166211879D01*
X143222356Y-166307600D01*
X143153501Y-166391501D01*
X143069600Y-166460356D01*
X142973879Y-166511521D01*
X142870015Y-166543027D01*
X142789067Y-166551000D01*
X142210933Y-166551000D01*
X142129985Y-166543027D01*
X142026121Y-166511521D01*
X141930400Y-166460356D01*
X141846499Y-166391501D01*
X141777644Y-166307600D01*
X141726479Y-166211879D01*
X141694973Y-166108015D01*
X141684334Y-166000000D01*
X141694973Y-165891985D01*
X141726479Y-165788121D01*
X141777644Y-165692400D01*
X141846499Y-165608499D01*
X141930400Y-165539644D01*
X142026121Y-165488479D01*
X142129985Y-165456973D01*
X142210933Y-165449000D01*
X142789067Y-165449000D01*
X142870015Y-165456973D01*
X142870015Y-165456973D01*
G37*
G36*
X124601000Y-166401000D02*
X123499000Y-166401000D01*
X123499000Y-165099000D01*
X124601000Y-165099000D01*
X124601000Y-166401000D01*
X124601000Y-166401000D01*
G37*
G36*
X126481000Y-166401000D02*
X125379000Y-166401000D01*
X125379000Y-165099000D01*
X126481000Y-165099000D01*
X126481000Y-166401000D01*
X126481000Y-166401000D01*
G37*
G36*
X112201000Y-166261000D02*
X110399000Y-166261000D01*
X110399000Y-165509000D01*
X112201000Y-165509000D01*
X112201000Y-166261000D01*
X112201000Y-166261000D01*
G37*
G36*
X105601000Y-166261000D02*
X103799000Y-166261000D01*
X103799000Y-165509000D01*
X105601000Y-165509000D01*
X105601000Y-166261000D01*
X105601000Y-166261000D01*
G37*
G36*
X101202830Y-166201050D02*
X100300730Y-166201050D01*
X100300730Y-165298950D01*
X101202830Y-165298950D01*
X101202830Y-166201050D01*
X101202830Y-166201050D01*
G37*
G36*
X72769485Y-163288996D02*
X72769487Y-163288997D01*
X72769488Y-163288997D01*
X73006255Y-163387069D01*
X73219342Y-163529449D01*
X73400551Y-163710658D01*
X73400553Y-163710661D01*
X73542931Y-163923745D01*
X73619459Y-164108499D01*
X73641004Y-164160515D01*
X73691000Y-164411861D01*
X73691000Y-164668139D01*
X73646571Y-164891500D01*
X73641003Y-164919488D01*
X73586529Y-165051000D01*
X73542931Y-165156255D01*
X73400551Y-165369342D01*
X73219342Y-165550551D01*
X73219339Y-165550553D01*
X73006255Y-165692931D01*
X72769488Y-165791003D01*
X72769487Y-165791003D01*
X72769485Y-165791004D01*
X72518139Y-165841000D01*
X72261861Y-165841000D01*
X72010515Y-165791004D01*
X72010513Y-165791003D01*
X72010512Y-165791003D01*
X71773745Y-165692931D01*
X71560661Y-165550553D01*
X71560658Y-165550551D01*
X71379449Y-165369342D01*
X71237069Y-165156255D01*
X71193471Y-165051000D01*
X71138997Y-164919488D01*
X71133430Y-164891500D01*
X71089000Y-164668139D01*
X71089000Y-164411861D01*
X71138996Y-164160515D01*
X71160542Y-164108499D01*
X71237069Y-163923745D01*
X71379447Y-163710661D01*
X71379449Y-163710658D01*
X71560658Y-163529449D01*
X71773745Y-163387069D01*
X72010512Y-163288997D01*
X72010513Y-163288997D01*
X72010515Y-163288996D01*
X72261861Y-163239000D01*
X72518139Y-163239000D01*
X72769485Y-163288996D01*
X72769485Y-163288996D01*
G37*
G36*
X119621000Y-165651000D02*
X118519000Y-165651000D01*
X118519000Y-164349000D01*
X119621000Y-164349000D01*
X119621000Y-165651000D01*
X119621000Y-165651000D01*
G37*
G36*
X121501000Y-165651000D02*
X120399000Y-165651000D01*
X120399000Y-164349000D01*
X121501000Y-164349000D01*
X121501000Y-165651000D01*
X121501000Y-165651000D01*
G37*
G36*
X78751848Y-162527554D02*
X78780648Y-162536290D01*
X78807183Y-162550473D01*
X78830440Y-162569560D01*
X78849527Y-162592817D01*
X78863710Y-162619352D01*
X78872446Y-162648152D01*
X78876000Y-162684233D01*
X78876000Y-165490767D01*
X78872446Y-165526848D01*
X78863710Y-165555648D01*
X78849527Y-165582183D01*
X78830440Y-165605440D01*
X78807183Y-165624527D01*
X78780648Y-165638710D01*
X78751848Y-165647446D01*
X78715767Y-165651000D01*
X74484233Y-165651000D01*
X74448152Y-165647446D01*
X74419352Y-165638710D01*
X74392817Y-165624527D01*
X74369560Y-165605440D01*
X74350473Y-165582183D01*
X74336290Y-165555648D01*
X74327554Y-165526848D01*
X74324000Y-165490767D01*
X74324000Y-162684233D01*
X74327554Y-162648152D01*
X74336290Y-162619352D01*
X74350473Y-162592817D01*
X74369560Y-162569560D01*
X74392817Y-162550473D01*
X74419352Y-162536290D01*
X74448152Y-162527554D01*
X74484233Y-162524000D01*
X78715767Y-162524000D01*
X78751848Y-162527554D01*
X78751848Y-162527554D01*
G37*
G36*
X146651000Y-165621000D02*
X145349000Y-165621000D01*
X145349000Y-164519000D01*
X146651000Y-164519000D01*
X146651000Y-165621000D01*
X146651000Y-165621000D01*
G37*
G36*
X103201810Y-165251050D02*
X102299710Y-165251050D01*
X102299710Y-164348950D01*
X103201810Y-164348950D01*
X103201810Y-165251050D01*
X103201810Y-165251050D01*
G37*
G36*
X113771000Y-165151000D02*
X112669000Y-165151000D01*
X112669000Y-163849000D01*
X113771000Y-163849000D01*
X113771000Y-165151000D01*
X113771000Y-165151000D01*
G37*
G36*
X115331000Y-165151000D02*
X114229000Y-165151000D01*
X114229000Y-163849000D01*
X115331000Y-163849000D01*
X115331000Y-165151000D01*
X115331000Y-165151000D01*
G37*
G36*
X142870015Y-163956973D02*
X142973879Y-163988479D01*
X143069600Y-164039644D01*
X143153501Y-164108499D01*
X143222356Y-164192400D01*
X143273521Y-164288121D01*
X143305027Y-164391985D01*
X143315666Y-164500000D01*
X143305027Y-164608015D01*
X143273521Y-164711879D01*
X143222356Y-164807600D01*
X143153501Y-164891501D01*
X143069600Y-164960356D01*
X142973879Y-165011521D01*
X142870015Y-165043027D01*
X142789067Y-165051000D01*
X142210933Y-165051000D01*
X142129985Y-165043027D01*
X142026121Y-165011521D01*
X141930400Y-164960356D01*
X141846499Y-164891501D01*
X141777644Y-164807600D01*
X141726479Y-164711879D01*
X141694973Y-164608015D01*
X141684334Y-164500000D01*
X141694973Y-164391985D01*
X141726479Y-164288121D01*
X141777644Y-164192400D01*
X141846499Y-164108499D01*
X141930400Y-164039644D01*
X142026121Y-163988479D01*
X142129985Y-163956973D01*
X142210933Y-163949000D01*
X142789067Y-163949000D01*
X142870015Y-163956973D01*
X142870015Y-163956973D01*
G37*
G36*
X105601000Y-164991000D02*
X103799000Y-164991000D01*
X103799000Y-164239000D01*
X105601000Y-164239000D01*
X105601000Y-164991000D01*
X105601000Y-164991000D01*
G37*
G36*
X112201000Y-164991000D02*
X110399000Y-164991000D01*
X110399000Y-164239000D01*
X112201000Y-164239000D01*
X112201000Y-164991000D01*
X112201000Y-164991000D01*
G37*
G36*
X85451000Y-164351000D02*
X79549000Y-164351000D01*
X79549000Y-157849000D01*
X85451000Y-157849000D01*
X85451000Y-164351000D01*
X85451000Y-164351000D01*
G37*
G36*
X61000000Y-128574000D02*
X61002402Y-128598386D01*
X61009515Y-128621835D01*
X61021066Y-128643446D01*
X61036612Y-128662388D01*
X61055554Y-128677934D01*
X61077165Y-128689485D01*
X61100614Y-128696598D01*
X61125000Y-128699000D01*
X63625000Y-128699000D01*
X63649386Y-128696598D01*
X63672835Y-128689485D01*
X63694446Y-128677934D01*
X63713388Y-128662388D01*
X63728934Y-128643446D01*
X63740485Y-128621835D01*
X63747598Y-128598386D01*
X63750000Y-128574000D01*
X63750000Y-128500000D01*
X64500000Y-128500000D01*
X64500000Y-139625000D01*
X64502402Y-139649386D01*
X64509515Y-139672835D01*
X64521066Y-139694446D01*
X64536612Y-139713388D01*
X64555554Y-139728934D01*
X64577165Y-139740485D01*
X64600614Y-139747598D01*
X64625000Y-139750000D01*
X87574000Y-139750000D01*
X87598386Y-139747598D01*
X87621835Y-139740485D01*
X87643446Y-139728934D01*
X87662388Y-139713388D01*
X87677934Y-139694446D01*
X87689485Y-139672835D01*
X87696598Y-139649386D01*
X87699000Y-139625000D01*
X87699000Y-128699000D01*
X90801000Y-128699000D01*
X90801000Y-141801000D01*
X87674196Y-141801000D01*
X87662388Y-141786612D01*
X87643446Y-141771066D01*
X87621835Y-141759515D01*
X87598386Y-141752402D01*
X87574000Y-141750000D01*
X64176000Y-141750000D01*
X64151614Y-141752402D01*
X64128165Y-141759515D01*
X64106554Y-141771066D01*
X64087612Y-141786612D01*
X64075804Y-141801000D01*
X61125000Y-141801000D01*
X61100614Y-141803402D01*
X61077165Y-141810515D01*
X61055554Y-141822066D01*
X61036612Y-141837612D01*
X61021066Y-141856554D01*
X61009515Y-141878165D01*
X61002402Y-141901614D01*
X61000000Y-141926000D01*
X61000000Y-146865690D01*
X61002402Y-146890076D01*
X61009515Y-146913525D01*
X61021066Y-146935136D01*
X61036612Y-146954078D01*
X61055554Y-146969624D01*
X61077165Y-146981175D01*
X61100614Y-146988288D01*
X61125000Y-146990690D01*
X61149386Y-146988288D01*
X61172835Y-146981175D01*
X61194446Y-146969624D01*
X61213388Y-146954078D01*
X61508269Y-146659197D01*
X61916513Y-146386417D01*
X62212712Y-146188503D01*
X62259241Y-146169230D01*
X62995445Y-145864284D01*
X63826387Y-145699000D01*
X64673613Y-145699000D01*
X65504555Y-145864284D01*
X66240759Y-146169230D01*
X66287288Y-146188503D01*
X66583487Y-146386417D01*
X66991731Y-146659197D01*
X67590803Y-147258269D01*
X67590805Y-147258272D01*
X67981493Y-147842977D01*
X68061498Y-147962714D01*
X68385716Y-148745445D01*
X68551000Y-149576387D01*
X68551000Y-150423613D01*
X68385716Y-151254555D01*
X68061498Y-152037286D01*
X67590803Y-152741731D01*
X66991731Y-153340803D01*
X66991728Y-153340805D01*
X66287288Y-153811497D01*
X66287287Y-153811498D01*
X66287286Y-153811498D01*
X65504555Y-154135716D01*
X64673613Y-154301000D01*
X63826387Y-154301000D01*
X62995445Y-154135716D01*
X62212714Y-153811498D01*
X62212713Y-153811498D01*
X62212712Y-153811497D01*
X61508272Y-153340805D01*
X61508269Y-153340803D01*
X61213388Y-153045922D01*
X61194446Y-153030376D01*
X61172835Y-153018825D01*
X61149386Y-153011712D01*
X61125000Y-153009310D01*
X61100614Y-153011712D01*
X61077165Y-153018825D01*
X61055554Y-153030376D01*
X61036612Y-153045922D01*
X61021066Y-153064864D01*
X61009515Y-153086475D01*
X61002402Y-153109924D01*
X61000000Y-153134310D01*
X61000000Y-156865690D01*
X61002402Y-156890076D01*
X61009515Y-156913525D01*
X61021066Y-156935136D01*
X61036612Y-156954078D01*
X61055554Y-156969624D01*
X61077165Y-156981175D01*
X61100614Y-156988288D01*
X61125000Y-156990690D01*
X61149386Y-156988288D01*
X61172835Y-156981175D01*
X61194446Y-156969624D01*
X61213388Y-156954078D01*
X61508269Y-156659197D01*
X61916513Y-156386417D01*
X62212712Y-156188503D01*
X62259241Y-156169230D01*
X62995445Y-155864284D01*
X63826387Y-155699000D01*
X64673613Y-155699000D01*
X65504555Y-155864284D01*
X66240759Y-156169230D01*
X66287288Y-156188503D01*
X66583487Y-156386417D01*
X66991731Y-156659197D01*
X67590803Y-157258269D01*
X67590805Y-157258272D01*
X67838518Y-157629000D01*
X68061498Y-157962714D01*
X68385716Y-158745445D01*
X68551000Y-159576387D01*
X68551000Y-160423613D01*
X68385716Y-161254555D01*
X68072170Y-162011521D01*
X68061497Y-162037288D01*
X67629690Y-162683533D01*
X67590803Y-162741731D01*
X66991731Y-163340803D01*
X66991728Y-163340805D01*
X66287288Y-163811497D01*
X66287287Y-163811498D01*
X66287286Y-163811498D01*
X65504555Y-164135716D01*
X64673613Y-164301000D01*
X63826387Y-164301000D01*
X62995445Y-164135716D01*
X62212714Y-163811498D01*
X62212713Y-163811498D01*
X62212712Y-163811497D01*
X61508272Y-163340805D01*
X61508269Y-163340803D01*
X61213388Y-163045922D01*
X61194446Y-163030376D01*
X61172835Y-163018825D01*
X61149386Y-163011712D01*
X61125000Y-163009310D01*
X61100614Y-163011712D01*
X61077165Y-163018825D01*
X61055554Y-163030376D01*
X61036612Y-163045922D01*
X61021066Y-163064864D01*
X61009515Y-163086475D01*
X61002402Y-163109924D01*
X61000000Y-163134310D01*
X61000000Y-164000000D01*
X59250000Y-164000000D01*
X59250000Y-128500000D01*
X61000000Y-128500000D01*
X61000000Y-128574000D01*
X61000000Y-128574000D01*
G37*
G36*
X99000000Y-99073560D02*
X99002402Y-99097946D01*
X99009515Y-99121395D01*
X99021066Y-99143006D01*
X99036612Y-99161948D01*
X99055554Y-99177494D01*
X99077165Y-99189045D01*
X99100614Y-99196158D01*
X99125000Y-99198560D01*
X99226674Y-99198560D01*
X99671305Y-99287002D01*
X100090140Y-99460489D01*
X100467086Y-99712357D01*
X100787643Y-100032914D01*
X101039511Y-100409860D01*
X101212998Y-100828695D01*
X101301440Y-101273326D01*
X101301440Y-101726674D01*
X101212998Y-102171305D01*
X101039511Y-102590140D01*
X100787643Y-102967086D01*
X100467086Y-103287643D01*
X100090140Y-103539511D01*
X99671305Y-103712998D01*
X99226674Y-103801440D01*
X98773326Y-103801440D01*
X98328695Y-103712998D01*
X97909860Y-103539511D01*
X97532914Y-103287643D01*
X97212357Y-102967086D01*
X96960489Y-102590140D01*
X96787002Y-102171305D01*
X96698560Y-101726674D01*
X96698560Y-101273326D01*
X96787002Y-100828694D01*
X96955114Y-100422835D01*
X96962227Y-100399386D01*
X96964629Y-100375000D01*
X96962227Y-100350614D01*
X96955114Y-100327164D01*
X96943563Y-100305554D01*
X96928017Y-100286612D01*
X96909075Y-100271066D01*
X96887464Y-100259515D01*
X96864015Y-100252402D01*
X96839629Y-100250000D01*
X92950536Y-100250000D01*
X92926150Y-100252402D01*
X92902701Y-100259515D01*
X92881090Y-100271066D01*
X92862148Y-100286612D01*
X92846602Y-100305554D01*
X92835051Y-100327165D01*
X92827938Y-100350614D01*
X92825536Y-100375000D01*
X92827938Y-100399386D01*
X92835051Y-100422835D01*
X92846602Y-100444446D01*
X93175309Y-100936391D01*
X93424145Y-101537135D01*
X93551000Y-102174878D01*
X93551000Y-102825122D01*
X93424145Y-103462865D01*
X93175309Y-104063609D01*
X92814052Y-104604268D01*
X92354268Y-105064052D01*
X91813609Y-105425309D01*
X91212865Y-105674145D01*
X90575122Y-105801000D01*
X89924878Y-105801000D01*
X89287135Y-105674145D01*
X88686391Y-105425309D01*
X88145732Y-105064052D01*
X87685948Y-104604268D01*
X87324691Y-104063609D01*
X87075855Y-103462865D01*
X86949000Y-102825122D01*
X86949000Y-102174878D01*
X87075855Y-101537135D01*
X87324691Y-100936391D01*
X87653398Y-100444446D01*
X87664949Y-100422835D01*
X87672062Y-100399386D01*
X87674464Y-100375000D01*
X87672062Y-100350614D01*
X87664949Y-100327165D01*
X87653398Y-100305554D01*
X87637852Y-100286612D01*
X87618910Y-100271066D01*
X87597299Y-100259515D01*
X87573850Y-100252402D01*
X87549464Y-100250000D01*
X84700536Y-100250000D01*
X84676150Y-100252402D01*
X84652701Y-100259515D01*
X84631090Y-100271066D01*
X84612148Y-100286612D01*
X84596602Y-100305554D01*
X84585051Y-100327165D01*
X84577938Y-100350614D01*
X84575536Y-100375000D01*
X84577938Y-100399386D01*
X84585051Y-100422835D01*
X84596602Y-100444446D01*
X84925309Y-100936391D01*
X85174145Y-101537135D01*
X85301000Y-102174878D01*
X85301000Y-102825122D01*
X85174145Y-103462865D01*
X84925309Y-104063609D01*
X84564052Y-104604268D01*
X84104268Y-105064052D01*
X83563609Y-105425309D01*
X82962865Y-105674145D01*
X82325122Y-105801000D01*
X81674878Y-105801000D01*
X81037135Y-105674145D01*
X80436391Y-105425309D01*
X79895732Y-105064052D01*
X79435948Y-104604268D01*
X79074691Y-104063609D01*
X78825855Y-103462865D01*
X78699000Y-102825122D01*
X78699000Y-102174878D01*
X78825855Y-101537135D01*
X79074691Y-100936391D01*
X79403398Y-100444446D01*
X79414949Y-100422835D01*
X79422062Y-100399386D01*
X79424464Y-100375000D01*
X79422062Y-100350614D01*
X79414949Y-100327165D01*
X79403398Y-100305554D01*
X79387852Y-100286612D01*
X79368910Y-100271066D01*
X79347299Y-100259515D01*
X79323850Y-100252402D01*
X79299464Y-100250000D01*
X69700536Y-100250000D01*
X69676150Y-100252402D01*
X69652701Y-100259515D01*
X69631090Y-100271066D01*
X69612148Y-100286612D01*
X69596602Y-100305554D01*
X69585051Y-100327165D01*
X69577938Y-100350614D01*
X69575536Y-100375000D01*
X69577938Y-100399386D01*
X69585051Y-100422835D01*
X69596602Y-100444446D01*
X69925309Y-100936391D01*
X70174145Y-101537135D01*
X70301000Y-102174878D01*
X70301000Y-102825122D01*
X70174145Y-103462865D01*
X69925309Y-104063609D01*
X69564052Y-104604268D01*
X69104268Y-105064052D01*
X68563609Y-105425309D01*
X67962865Y-105674145D01*
X67325122Y-105801000D01*
X66674878Y-105801000D01*
X66037135Y-105674145D01*
X65436391Y-105425309D01*
X64895732Y-105064052D01*
X64435948Y-104604268D01*
X64074691Y-104063609D01*
X63825855Y-103462865D01*
X63699000Y-102825122D01*
X63699000Y-102174878D01*
X63825855Y-101537135D01*
X64074691Y-100936391D01*
X64403398Y-100444446D01*
X64414949Y-100422835D01*
X64422062Y-100399386D01*
X64424464Y-100375000D01*
X64422062Y-100350614D01*
X64414949Y-100327165D01*
X64403398Y-100305554D01*
X64387852Y-100286612D01*
X64368910Y-100271066D01*
X64347299Y-100259515D01*
X64323850Y-100252402D01*
X64299464Y-100250000D01*
X61450536Y-100250000D01*
X61426150Y-100252402D01*
X61402701Y-100259515D01*
X61381090Y-100271066D01*
X61362148Y-100286612D01*
X61346602Y-100305554D01*
X61335051Y-100327165D01*
X61327938Y-100350614D01*
X61325536Y-100375000D01*
X61327938Y-100399386D01*
X61335051Y-100422835D01*
X61346602Y-100444446D01*
X61675309Y-100936391D01*
X61924145Y-101537135D01*
X62051000Y-102174878D01*
X62051000Y-102825122D01*
X61924145Y-103462865D01*
X61675309Y-104063609D01*
X61314052Y-104604268D01*
X60854268Y-105064052D01*
X60313609Y-105425309D01*
X59712865Y-105674145D01*
X59075122Y-105801000D01*
X58424878Y-105801000D01*
X57787135Y-105674145D01*
X57186391Y-105425309D01*
X56645732Y-105064052D01*
X56185948Y-104604268D01*
X55954052Y-104257212D01*
X55938506Y-104238270D01*
X55919564Y-104222724D01*
X55897953Y-104211173D01*
X55874504Y-104204060D01*
X55850118Y-104201658D01*
X55825732Y-104204060D01*
X55802282Y-104211173D01*
X55780672Y-104222724D01*
X55761730Y-104238270D01*
X52250000Y-107750000D01*
X50805662Y-108712892D01*
X50786704Y-108728417D01*
X50771139Y-108747343D01*
X50759565Y-108768942D01*
X50752427Y-108792383D01*
X50750000Y-108816898D01*
X50750000Y-111308000D01*
X50752402Y-111332386D01*
X50759515Y-111355835D01*
X50771066Y-111377446D01*
X50786612Y-111396388D01*
X50805554Y-111411934D01*
X50827165Y-111423485D01*
X50850614Y-111430598D01*
X50875000Y-111433000D01*
X51317000Y-111433000D01*
X51317000Y-113567000D01*
X50875000Y-113567000D01*
X50850614Y-113569402D01*
X50827165Y-113576515D01*
X50805554Y-113588066D01*
X50786612Y-113603612D01*
X50771066Y-113622554D01*
X50759515Y-113644165D01*
X50752402Y-113667614D01*
X50750000Y-113692000D01*
X50750000Y-146263819D01*
X50752402Y-146288205D01*
X50759515Y-146311654D01*
X50771066Y-146333265D01*
X50786612Y-146352207D01*
X50805554Y-146367753D01*
X50827165Y-146379304D01*
X50850614Y-146386417D01*
X50875000Y-146388819D01*
X50899386Y-146386417D01*
X50922835Y-146379304D01*
X50944446Y-146367753D01*
X50967712Y-146352207D01*
X51212712Y-146188503D01*
X51259241Y-146169230D01*
X51995445Y-145864284D01*
X52826387Y-145699000D01*
X53673613Y-145699000D01*
X54504555Y-145864284D01*
X55240759Y-146169230D01*
X55287288Y-146188503D01*
X55583487Y-146386417D01*
X55991731Y-146659197D01*
X56590803Y-147258269D01*
X56590805Y-147258272D01*
X56981493Y-147842977D01*
X57061498Y-147962714D01*
X57385716Y-148745445D01*
X57551000Y-149576387D01*
X57551000Y-150423613D01*
X57385716Y-151254555D01*
X57061498Y-152037286D01*
X56590803Y-152741731D01*
X55991731Y-153340803D01*
X55991728Y-153340805D01*
X55287288Y-153811497D01*
X55287287Y-153811498D01*
X55287286Y-153811498D01*
X54504555Y-154135716D01*
X53673613Y-154301000D01*
X52826387Y-154301000D01*
X51995445Y-154135716D01*
X51212714Y-153811498D01*
X51212713Y-153811498D01*
X51212712Y-153811497D01*
X50944444Y-153632246D01*
X50922835Y-153620696D01*
X50899386Y-153613583D01*
X50875000Y-153611181D01*
X50850614Y-153613583D01*
X50827165Y-153620696D01*
X50805554Y-153632247D01*
X50786612Y-153647793D01*
X50771066Y-153666735D01*
X50759515Y-153688346D01*
X50752402Y-153711795D01*
X50750000Y-153736181D01*
X50750000Y-156263819D01*
X50752402Y-156288205D01*
X50759515Y-156311654D01*
X50771066Y-156333265D01*
X50786612Y-156352207D01*
X50805554Y-156367753D01*
X50827165Y-156379304D01*
X50850614Y-156386417D01*
X50875000Y-156388819D01*
X50899386Y-156386417D01*
X50922835Y-156379304D01*
X50944446Y-156367753D01*
X50967712Y-156352207D01*
X51212712Y-156188503D01*
X51259241Y-156169230D01*
X51995445Y-155864284D01*
X52826387Y-155699000D01*
X53673613Y-155699000D01*
X54504555Y-155864284D01*
X55240759Y-156169230D01*
X55287288Y-156188503D01*
X55583487Y-156386417D01*
X55991731Y-156659197D01*
X56590803Y-157258269D01*
X56590805Y-157258272D01*
X56838518Y-157629000D01*
X57061498Y-157962714D01*
X57385716Y-158745445D01*
X57551000Y-159576387D01*
X57551000Y-160423613D01*
X57385716Y-161254555D01*
X57072170Y-162011521D01*
X57061497Y-162037288D01*
X56629690Y-162683533D01*
X56590803Y-162741731D01*
X55991731Y-163340803D01*
X55991728Y-163340805D01*
X55287288Y-163811497D01*
X55287287Y-163811498D01*
X55287286Y-163811498D01*
X54504555Y-164135716D01*
X53673613Y-164301000D01*
X52826387Y-164301000D01*
X51995445Y-164135716D01*
X51212714Y-163811498D01*
X51212713Y-163811498D01*
X51212712Y-163811497D01*
X50508272Y-163340805D01*
X50508269Y-163340803D01*
X49909197Y-162741731D01*
X49870310Y-162683533D01*
X49617751Y-162305552D01*
X49602207Y-162286612D01*
X49583265Y-162271066D01*
X49561654Y-162259515D01*
X49538205Y-162252402D01*
X49513819Y-162250000D01*
X48600000Y-162250000D01*
X48600000Y-108900000D01*
X55452947Y-102047053D01*
X55468493Y-102028111D01*
X55480044Y-102006500D01*
X55487157Y-101983051D01*
X55575855Y-101537135D01*
X55824691Y-100936391D01*
X56185948Y-100395732D01*
X56645732Y-99935948D01*
X57186391Y-99574691D01*
X57787135Y-99325855D01*
X58233051Y-99237157D01*
X58256500Y-99230044D01*
X58278111Y-99218493D01*
X58297053Y-99202947D01*
X58500000Y-99000000D01*
X99000000Y-99000000D01*
X99000000Y-99073560D01*
X99000000Y-99073560D01*
G37*
G36*
X103331000Y-163901000D02*
X102229000Y-163901000D01*
X102229000Y-162599000D01*
X103331000Y-162599000D01*
X103331000Y-163901000D01*
X103331000Y-163901000D01*
G37*
G36*
X101771000Y-163901000D02*
X100669000Y-163901000D01*
X100669000Y-162599000D01*
X101771000Y-162599000D01*
X101771000Y-163901000D01*
X101771000Y-163901000D01*
G37*
G36*
X58806000Y-163901000D02*
X57754000Y-163901000D01*
X57754000Y-162799000D01*
X58806000Y-162799000D01*
X58806000Y-163901000D01*
X58806000Y-163901000D01*
G37*
G36*
X142870015Y-162456973D02*
X142973879Y-162488479D01*
X143069600Y-162539644D01*
X143153501Y-162608499D01*
X143222356Y-162692400D01*
X143273521Y-162788121D01*
X143305027Y-162891985D01*
X143315666Y-163000000D01*
X143305027Y-163108015D01*
X143273521Y-163211879D01*
X143222356Y-163307600D01*
X143153501Y-163391501D01*
X143069600Y-163460356D01*
X142973879Y-163511521D01*
X142870015Y-163543027D01*
X142789067Y-163551000D01*
X142210933Y-163551000D01*
X142129985Y-163543027D01*
X142026121Y-163511521D01*
X141930400Y-163460356D01*
X141846499Y-163391501D01*
X141777644Y-163307600D01*
X141726479Y-163211879D01*
X141694973Y-163108015D01*
X141684334Y-163000000D01*
X141694973Y-162891985D01*
X141726479Y-162788121D01*
X141777644Y-162692400D01*
X141846499Y-162608499D01*
X141930400Y-162539644D01*
X142026121Y-162488479D01*
X142129985Y-162456973D01*
X142210933Y-162449000D01*
X142789067Y-162449000D01*
X142870015Y-162456973D01*
X142870015Y-162456973D01*
G37*
G36*
X118489485Y-160748996D02*
X118489487Y-160748997D01*
X118489488Y-160748997D01*
X118726255Y-160847069D01*
X118939342Y-160989449D01*
X119120551Y-161170658D01*
X119120553Y-161170661D01*
X119262931Y-161383745D01*
X119355827Y-161608015D01*
X119361004Y-161620515D01*
X119411000Y-161871861D01*
X119411000Y-162128139D01*
X119375710Y-162305554D01*
X119361003Y-162379488D01*
X119294664Y-162539644D01*
X119262931Y-162616255D01*
X119120551Y-162829342D01*
X118939342Y-163010551D01*
X118939339Y-163010553D01*
X118726255Y-163152931D01*
X118489488Y-163251003D01*
X118489487Y-163251003D01*
X118489485Y-163251004D01*
X118238139Y-163301000D01*
X117981861Y-163301000D01*
X117730515Y-163251004D01*
X117730513Y-163251003D01*
X117730512Y-163251003D01*
X117493745Y-163152931D01*
X117280661Y-163010553D01*
X117280658Y-163010551D01*
X117099449Y-162829342D01*
X116957069Y-162616255D01*
X116925336Y-162539644D01*
X116858997Y-162379488D01*
X116844291Y-162305554D01*
X116809000Y-162128139D01*
X116809000Y-161871861D01*
X116858996Y-161620515D01*
X116864174Y-161608015D01*
X116957069Y-161383745D01*
X117099447Y-161170661D01*
X117099449Y-161170658D01*
X117280658Y-160989449D01*
X117493745Y-160847069D01*
X117730512Y-160748997D01*
X117730513Y-160748997D01*
X117730515Y-160748996D01*
X117981861Y-160699000D01*
X118238139Y-160699000D01*
X118489485Y-160748996D01*
X118489485Y-160748996D01*
G37*
G36*
X128771000Y-162901000D02*
X127669000Y-162901000D01*
X127669000Y-161599000D01*
X128771000Y-161599000D01*
X128771000Y-162901000D01*
X128771000Y-162901000D01*
G37*
G36*
X130331000Y-162901000D02*
X129229000Y-162901000D01*
X129229000Y-161599000D01*
X130331000Y-161599000D01*
X130331000Y-162901000D01*
X130331000Y-162901000D01*
G37*
G36*
X132701050Y-162699270D02*
X131798950Y-162699270D01*
X131798950Y-161797170D01*
X132701050Y-161797170D01*
X132701050Y-162699270D01*
X132701050Y-162699270D01*
G37*
G36*
X101771000Y-162151000D02*
X100669000Y-162151000D01*
X100669000Y-160849000D01*
X101771000Y-160849000D01*
X101771000Y-162151000D01*
X101771000Y-162151000D01*
G37*
G36*
X103331000Y-162151000D02*
X102229000Y-162151000D01*
X102229000Y-160849000D01*
X103331000Y-160849000D01*
X103331000Y-162151000D01*
X103331000Y-162151000D01*
G37*
G36*
X142870015Y-160956973D02*
X142973879Y-160988479D01*
X143069600Y-161039644D01*
X143153501Y-161108499D01*
X143222356Y-161192400D01*
X143273521Y-161288121D01*
X143305027Y-161391985D01*
X143315666Y-161500000D01*
X143305027Y-161608015D01*
X143273521Y-161711879D01*
X143222356Y-161807600D01*
X143153501Y-161891501D01*
X143069600Y-161960356D01*
X142973879Y-162011521D01*
X142870015Y-162043027D01*
X142789067Y-162051000D01*
X142210933Y-162051000D01*
X142129985Y-162043027D01*
X142026121Y-162011521D01*
X141930400Y-161960356D01*
X141846499Y-161891501D01*
X141777644Y-161807600D01*
X141726479Y-161711879D01*
X141694973Y-161608015D01*
X141684334Y-161500000D01*
X141694973Y-161391985D01*
X141726479Y-161288121D01*
X141777644Y-161192400D01*
X141846499Y-161108499D01*
X141930400Y-161039644D01*
X142026121Y-160988479D01*
X142129985Y-160956973D01*
X142210933Y-160949000D01*
X142789067Y-160949000D01*
X142870015Y-160956973D01*
X142870015Y-160956973D01*
G37*
G36*
X105601000Y-161761000D02*
X103799000Y-161761000D01*
X103799000Y-161009000D01*
X105601000Y-161009000D01*
X105601000Y-161761000D01*
X105601000Y-161761000D01*
G37*
G36*
X112201000Y-161761000D02*
X110399000Y-161761000D01*
X110399000Y-161009000D01*
X112201000Y-161009000D01*
X112201000Y-161761000D01*
X112201000Y-161761000D01*
G37*
G36*
X140911000Y-161391000D02*
X139589000Y-161391000D01*
X139589000Y-160379000D01*
X140911000Y-160379000D01*
X140911000Y-161391000D01*
X140911000Y-161391000D01*
G37*
G36*
X130911000Y-158641000D02*
X129576000Y-158641000D01*
X129551614Y-158643402D01*
X129528165Y-158650515D01*
X129506554Y-158662066D01*
X129487612Y-158677612D01*
X129472066Y-158696554D01*
X129460515Y-158718165D01*
X129453402Y-158741614D01*
X129451000Y-158766000D01*
X129451000Y-161051000D01*
X127049000Y-161051000D01*
X127049000Y-158649000D01*
X129464000Y-158649000D01*
X129488386Y-158646598D01*
X129511835Y-158639485D01*
X129533446Y-158627934D01*
X129552388Y-158612388D01*
X129567934Y-158593446D01*
X129579485Y-158571835D01*
X129586598Y-158548386D01*
X129589000Y-158524000D01*
X129589000Y-157629000D01*
X130911000Y-157629000D01*
X130911000Y-158641000D01*
X130911000Y-158641000D01*
G37*
G36*
X122851000Y-161051000D02*
X120449000Y-161051000D01*
X120449000Y-158649000D01*
X122851000Y-158649000D01*
X122851000Y-161051000D01*
X122851000Y-161051000D01*
G37*
G36*
X133651050Y-160700290D02*
X132748950Y-160700290D01*
X132748950Y-159798190D01*
X133651050Y-159798190D01*
X133651050Y-160700290D01*
X133651050Y-160700290D01*
G37*
G36*
X131751050Y-160700290D02*
X130848950Y-160700290D01*
X130848950Y-159798190D01*
X131751050Y-159798190D01*
X131751050Y-160700290D01*
X131751050Y-160700290D01*
G37*
G36*
X142870015Y-159456973D02*
X142973879Y-159488479D01*
X143069600Y-159539644D01*
X143153501Y-159608499D01*
X143222356Y-159692400D01*
X143273521Y-159788121D01*
X143305027Y-159891985D01*
X143315666Y-160000000D01*
X143305027Y-160108015D01*
X143273521Y-160211879D01*
X143222356Y-160307600D01*
X143153501Y-160391501D01*
X143069600Y-160460356D01*
X142973879Y-160511521D01*
X142870015Y-160543027D01*
X142789067Y-160551000D01*
X142210933Y-160551000D01*
X142129985Y-160543027D01*
X142026121Y-160511521D01*
X141930400Y-160460356D01*
X141846499Y-160391501D01*
X141777644Y-160307600D01*
X141726479Y-160211879D01*
X141694973Y-160108015D01*
X141684334Y-160000000D01*
X141694973Y-159891985D01*
X141726479Y-159788121D01*
X141777644Y-159692400D01*
X141846499Y-159608499D01*
X141930400Y-159539644D01*
X142026121Y-159488479D01*
X142129985Y-159456973D01*
X142210933Y-159449000D01*
X142789067Y-159449000D01*
X142870015Y-159456973D01*
X142870015Y-159456973D01*
G37*
G36*
X105601000Y-160491000D02*
X103799000Y-160491000D01*
X103799000Y-159739000D01*
X105601000Y-159739000D01*
X105601000Y-160491000D01*
X105601000Y-160491000D01*
G37*
G36*
X112201000Y-160491000D02*
X110399000Y-160491000D01*
X110399000Y-159739000D01*
X112201000Y-159739000D01*
X112201000Y-160491000D01*
X112201000Y-160491000D01*
G37*
G36*
X103331000Y-160151000D02*
X102229000Y-160151000D01*
X102229000Y-158849000D01*
X103331000Y-158849000D01*
X103331000Y-160151000D01*
X103331000Y-160151000D01*
G37*
G36*
X101771000Y-160151000D02*
X100669000Y-160151000D01*
X100669000Y-158849000D01*
X101771000Y-158849000D01*
X101771000Y-160151000D01*
X101771000Y-160151000D01*
G37*
G36*
X140911000Y-158121000D02*
X139589000Y-158121000D01*
X139589000Y-157109000D01*
X140911000Y-157109000D01*
X140911000Y-158121000D01*
X140911000Y-158121000D01*
G37*
G36*
X91676000Y-157301000D02*
X90324000Y-157301000D01*
X90324000Y-156199000D01*
X91676000Y-156199000D01*
X91676000Y-157301000D01*
X91676000Y-157301000D01*
G37*
G36*
X87676000Y-157301000D02*
X86324000Y-157301000D01*
X86324000Y-156199000D01*
X87676000Y-156199000D01*
X87676000Y-157301000D01*
X87676000Y-157301000D01*
G37*
G36*
X98401000Y-157001000D02*
X97099000Y-157001000D01*
X97099000Y-155899000D01*
X98401000Y-155899000D01*
X98401000Y-157001000D01*
X98401000Y-157001000D01*
G37*
G36*
X140053600Y-156436000D02*
X137716400Y-156436000D01*
X137716400Y-155064000D01*
X140053600Y-155064000D01*
X140053600Y-156436000D01*
X140053600Y-156436000D01*
G37*
G36*
X143401000Y-154922535D02*
X143403402Y-154946921D01*
X143410515Y-154970370D01*
X143422066Y-154991981D01*
X143437612Y-155010923D01*
X143456554Y-155026469D01*
X143478165Y-155038020D01*
X143501614Y-155045133D01*
X143526000Y-155047535D01*
X143550386Y-155045133D01*
X143573835Y-155038020D01*
X143595446Y-155026469D01*
X143614388Y-155010923D01*
X143622619Y-155001843D01*
X143680867Y-154930867D01*
X143680869Y-154930866D01*
X143680870Y-154930864D01*
X143802835Y-154830770D01*
X143941988Y-154756392D01*
X144092975Y-154710590D01*
X144210654Y-154699000D01*
X145289346Y-154699000D01*
X145407025Y-154710590D01*
X145558012Y-154756392D01*
X145697165Y-154830770D01*
X145819133Y-154930867D01*
X145919230Y-155052835D01*
X145993608Y-155191988D01*
X146039410Y-155342975D01*
X146054875Y-155500000D01*
X146039410Y-155657025D01*
X145993608Y-155808012D01*
X145919230Y-155947165D01*
X145819133Y-156069133D01*
X145697165Y-156169230D01*
X145558012Y-156243608D01*
X145407025Y-156289410D01*
X145289346Y-156301000D01*
X144210654Y-156301000D01*
X144092975Y-156289410D01*
X143941988Y-156243608D01*
X143802835Y-156169230D01*
X143680867Y-156069133D01*
X143580770Y-155947165D01*
X143511237Y-155817076D01*
X143497624Y-155796701D01*
X143480297Y-155779374D01*
X143459922Y-155765760D01*
X143437283Y-155756383D01*
X143413250Y-155751602D01*
X143400997Y-155751000D01*
X142099000Y-155751000D01*
X142099000Y-154649000D01*
X143401000Y-154649000D01*
X143401000Y-154922535D01*
X143401000Y-154922535D01*
G37*
G36*
X85431000Y-155951000D02*
X84129000Y-155951000D01*
X84129000Y-153649000D01*
X85431000Y-153649000D01*
X85431000Y-155951000D01*
X85431000Y-155951000D01*
G37*
G36*
X80871000Y-155951000D02*
X79569000Y-155951000D01*
X79569000Y-153649000D01*
X80871000Y-153649000D01*
X80871000Y-155951000D01*
X80871000Y-155951000D01*
G37*
G36*
X78926000Y-155751000D02*
X77574000Y-155751000D01*
X77574000Y-154649000D01*
X78926000Y-154649000D01*
X78926000Y-155751000D01*
X78926000Y-155751000D01*
G37*
G36*
X72769485Y-153128996D02*
X72769487Y-153128997D01*
X72769488Y-153128997D01*
X72894105Y-153180615D01*
X73006255Y-153227069D01*
X73219342Y-153369449D01*
X73400551Y-153550658D01*
X73400553Y-153550661D01*
X73542931Y-153763745D01*
X73600886Y-153903660D01*
X73641004Y-154000515D01*
X73691000Y-154251861D01*
X73691000Y-154508139D01*
X73650730Y-154710590D01*
X73641003Y-154759488D01*
X73573467Y-154922535D01*
X73542931Y-154996255D01*
X73400551Y-155209342D01*
X73219342Y-155390551D01*
X73219339Y-155390553D01*
X73006255Y-155532931D01*
X72769488Y-155631003D01*
X72769487Y-155631003D01*
X72769485Y-155631004D01*
X72518139Y-155681000D01*
X72261861Y-155681000D01*
X72010515Y-155631004D01*
X72010513Y-155631003D01*
X72010512Y-155631003D01*
X71773745Y-155532931D01*
X71560661Y-155390553D01*
X71560658Y-155390551D01*
X71379449Y-155209342D01*
X71237069Y-154996255D01*
X71206533Y-154922535D01*
X71138997Y-154759488D01*
X71129271Y-154710590D01*
X71089000Y-154508139D01*
X71089000Y-154251861D01*
X71138996Y-154000515D01*
X71179115Y-153903660D01*
X71237069Y-153763745D01*
X71379447Y-153550661D01*
X71379449Y-153550658D01*
X71560658Y-153369449D01*
X71773745Y-153227069D01*
X71885895Y-153180615D01*
X72010512Y-153128997D01*
X72010513Y-153128997D01*
X72010515Y-153128996D01*
X72261861Y-153079000D01*
X72518139Y-153079000D01*
X72769485Y-153128996D01*
X72769485Y-153128996D01*
G37*
G36*
X96552520Y-155403930D02*
X95449760Y-155403930D01*
X95449760Y-153800790D01*
X96552520Y-153800790D01*
X96552520Y-155403930D01*
X96552520Y-155403930D01*
G37*
G36*
X93550240Y-155403930D02*
X92447480Y-155403930D01*
X92447480Y-153800790D01*
X93550240Y-153800790D01*
X93550240Y-155403930D01*
X93550240Y-155403930D01*
G37*
G36*
X95550490Y-152949350D02*
X95552892Y-152973736D01*
X95560005Y-152997185D01*
X95571556Y-153018796D01*
X95587102Y-153037738D01*
X95606044Y-153053284D01*
X95609115Y-153054926D01*
X95596144Y-153074350D01*
X95572388Y-153109924D01*
X95571538Y-153111196D01*
X95559992Y-153132810D01*
X95552885Y-153156261D01*
X95550490Y-153180615D01*
X95550490Y-153205070D01*
X95530067Y-153211265D01*
X95508456Y-153222816D01*
X95489514Y-153238362D01*
X95473950Y-153257331D01*
X95240862Y-153606371D01*
X95232306Y-153622387D01*
X95220808Y-153636401D01*
X95072428Y-153858595D01*
X95060882Y-153880209D01*
X95053775Y-153903660D01*
X95051380Y-153928014D01*
X95051380Y-155403930D01*
X93948620Y-155403930D01*
X93948620Y-153928014D01*
X93946218Y-153903628D01*
X93939105Y-153880179D01*
X93927572Y-153858595D01*
X93779192Y-153636401D01*
X93767693Y-153622382D01*
X93759138Y-153606371D01*
X93526050Y-153257331D01*
X93510510Y-153238385D01*
X93491572Y-153222835D01*
X93469964Y-153211278D01*
X93449510Y-153205067D01*
X93449510Y-153180615D01*
X93447108Y-153156229D01*
X93439995Y-153132780D01*
X93428462Y-153111196D01*
X93427613Y-153109924D01*
X93403856Y-153074350D01*
X93390885Y-153054926D01*
X93393956Y-153053284D01*
X93412898Y-153037738D01*
X93428444Y-153018796D01*
X93439995Y-152997185D01*
X93447108Y-152973736D01*
X93449510Y-152949350D01*
X93449510Y-150100010D01*
X95550490Y-150100010D01*
X95550490Y-152949350D01*
X95550490Y-152949350D01*
G37*
G36*
X129451000Y-154234000D02*
X129453402Y-154258386D01*
X129460515Y-154281835D01*
X129472066Y-154303446D01*
X129487612Y-154322388D01*
X129506554Y-154337934D01*
X129528165Y-154349485D01*
X129551614Y-154356598D01*
X129576000Y-154359000D01*
X130911000Y-154359000D01*
X130911000Y-155371000D01*
X129589000Y-155371000D01*
X129589000Y-154576000D01*
X129586598Y-154551614D01*
X129579485Y-154528165D01*
X129567934Y-154506554D01*
X129552388Y-154487612D01*
X129533446Y-154472066D01*
X129511835Y-154460515D01*
X129488386Y-154453402D01*
X129464000Y-154451000D01*
X127049000Y-154451000D01*
X127049000Y-152049000D01*
X129451000Y-152049000D01*
X129451000Y-154234000D01*
X129451000Y-154234000D01*
G37*
G36*
X91676000Y-155301000D02*
X90324000Y-155301000D01*
X90324000Y-154199000D01*
X91676000Y-154199000D01*
X91676000Y-155301000D01*
X91676000Y-155301000D01*
G37*
G36*
X87676000Y-155301000D02*
X86324000Y-155301000D01*
X86324000Y-154199000D01*
X87676000Y-154199000D01*
X87676000Y-155301000D01*
X87676000Y-155301000D01*
G37*
G36*
X98401000Y-155121000D02*
X97099000Y-155121000D01*
X97099000Y-154019000D01*
X98401000Y-154019000D01*
X98401000Y-155121000D01*
X98401000Y-155121000D01*
G37*
G36*
X145407025Y-152210590D02*
X145558012Y-152256392D01*
X145697165Y-152330770D01*
X145819133Y-152430867D01*
X145919230Y-152552835D01*
X145993608Y-152691988D01*
X146039410Y-152842975D01*
X146054875Y-153000000D01*
X146039410Y-153157025D01*
X145993608Y-153308012D01*
X145919230Y-153447165D01*
X145819133Y-153569133D01*
X145697165Y-153669230D01*
X145558012Y-153743608D01*
X145407025Y-153789410D01*
X145289346Y-153801000D01*
X144210654Y-153801000D01*
X144092975Y-153789410D01*
X143941988Y-153743608D01*
X143802835Y-153669230D01*
X143680870Y-153569136D01*
X143680869Y-153569134D01*
X143680867Y-153569133D01*
X143622623Y-153498162D01*
X143605300Y-153480839D01*
X143584925Y-153467225D01*
X143562286Y-153457848D01*
X143538253Y-153453067D01*
X143513748Y-153453067D01*
X143489715Y-153457847D01*
X143467076Y-153467225D01*
X143446701Y-153480838D01*
X143429374Y-153498165D01*
X143415760Y-153518540D01*
X143406383Y-153541179D01*
X143401602Y-153565212D01*
X143401000Y-153577465D01*
X143401000Y-153871000D01*
X142099000Y-153871000D01*
X142099000Y-152769000D01*
X143390325Y-152769000D01*
X143414711Y-152766598D01*
X143438160Y-152759485D01*
X143459771Y-152747934D01*
X143478713Y-152732388D01*
X143494259Y-152713446D01*
X143499541Y-152702285D01*
X143500589Y-152702845D01*
X143580770Y-152552835D01*
X143680867Y-152430867D01*
X143802835Y-152330770D01*
X143941988Y-152256392D01*
X144092975Y-152210590D01*
X144210654Y-152199000D01*
X145289346Y-152199000D01*
X145407025Y-152210590D01*
X145407025Y-152210590D01*
G37*
G36*
X78926000Y-153751000D02*
X77574000Y-153751000D01*
X77574000Y-152649000D01*
X78926000Y-152649000D01*
X78926000Y-153751000D01*
X78926000Y-153751000D01*
G37*
G36*
X118489485Y-150588996D02*
X118489487Y-150588997D01*
X118489488Y-150588997D01*
X118726255Y-150687069D01*
X118939342Y-150829449D01*
X119120551Y-151010658D01*
X119262931Y-151223745D01*
X119361004Y-151460515D01*
X119411000Y-151711861D01*
X119411000Y-151968139D01*
X119365079Y-152199000D01*
X119361003Y-152219488D01*
X119314908Y-152330771D01*
X119262931Y-152456255D01*
X119120551Y-152669342D01*
X118939342Y-152850551D01*
X118939339Y-152850553D01*
X118726255Y-152992931D01*
X118489488Y-153091003D01*
X118489487Y-153091003D01*
X118489485Y-153091004D01*
X118238139Y-153141000D01*
X117981861Y-153141000D01*
X117730515Y-153091004D01*
X117730513Y-153091003D01*
X117730512Y-153091003D01*
X117493745Y-152992931D01*
X117280661Y-152850553D01*
X117280658Y-152850551D01*
X117099449Y-152669342D01*
X116957069Y-152456255D01*
X116905092Y-152330771D01*
X116858997Y-152219488D01*
X116854922Y-152199000D01*
X116809000Y-151968139D01*
X116809000Y-151711861D01*
X116858996Y-151460515D01*
X116957069Y-151223745D01*
X117099449Y-151010658D01*
X117280658Y-150829449D01*
X117493745Y-150687069D01*
X117730512Y-150588997D01*
X117730513Y-150588997D01*
X117730515Y-150588996D01*
X117981861Y-150539000D01*
X118238139Y-150539000D01*
X118489485Y-150588996D01*
X118489485Y-150588996D01*
G37*
G36*
X121651000Y-152331000D02*
X120349000Y-152331000D01*
X120349000Y-151229000D01*
X121651000Y-151229000D01*
X121651000Y-152331000D01*
X121651000Y-152331000D01*
G37*
G36*
X112491000Y-151151000D02*
X111389000Y-151151000D01*
X111389000Y-149849000D01*
X112491000Y-149849000D01*
X112491000Y-151151000D01*
X112491000Y-151151000D01*
G37*
G36*
X114051000Y-151151000D02*
X112949000Y-151151000D01*
X112949000Y-149849000D01*
X114051000Y-149849000D01*
X114051000Y-151151000D01*
X114051000Y-151151000D01*
G37*
G36*
X121651000Y-150771000D02*
X120349000Y-150771000D01*
X120349000Y-149669000D01*
X121651000Y-149669000D01*
X121651000Y-150771000D01*
X121651000Y-150771000D01*
G37*
G36*
X126401000Y-149501000D02*
X125099000Y-149501000D01*
X125099000Y-148399000D01*
X126401000Y-148399000D01*
X126401000Y-149501000D01*
X126401000Y-149501000D01*
G37*
G36*
X143401000Y-147422535D02*
X143403402Y-147446921D01*
X143410515Y-147470370D01*
X143422066Y-147491981D01*
X143437612Y-147510923D01*
X143456554Y-147526469D01*
X143478165Y-147538020D01*
X143501614Y-147545133D01*
X143526000Y-147547535D01*
X143550386Y-147545133D01*
X143573835Y-147538020D01*
X143595446Y-147526469D01*
X143614388Y-147510923D01*
X143622619Y-147501843D01*
X143680867Y-147430867D01*
X143680869Y-147430866D01*
X143680870Y-147430864D01*
X143802835Y-147330770D01*
X143941988Y-147256392D01*
X144092975Y-147210590D01*
X144210654Y-147199000D01*
X145289346Y-147199000D01*
X145407025Y-147210590D01*
X145558012Y-147256392D01*
X145697165Y-147330770D01*
X145819133Y-147430867D01*
X145919230Y-147552835D01*
X145993608Y-147691988D01*
X146039410Y-147842975D01*
X146054875Y-148000000D01*
X146039410Y-148157025D01*
X145993608Y-148308012D01*
X145919230Y-148447165D01*
X145819133Y-148569133D01*
X145697165Y-148669230D01*
X145558012Y-148743608D01*
X145407025Y-148789410D01*
X145289346Y-148801000D01*
X144210654Y-148801000D01*
X144092975Y-148789410D01*
X143941988Y-148743608D01*
X143802835Y-148669230D01*
X143680867Y-148569133D01*
X143580770Y-148447165D01*
X143537962Y-148367076D01*
X143524348Y-148346701D01*
X143507021Y-148329374D01*
X143486647Y-148315760D01*
X143464008Y-148306383D01*
X143439974Y-148301602D01*
X143427722Y-148301000D01*
X142099000Y-148301000D01*
X142099000Y-147199000D01*
X143401000Y-147199000D01*
X143401000Y-147422535D01*
X143401000Y-147422535D01*
G37*
G36*
X112161000Y-148761000D02*
X110359000Y-148761000D01*
X110359000Y-148009000D01*
X112161000Y-148009000D01*
X112161000Y-148761000D01*
X112161000Y-148761000D01*
G37*
G36*
X105561000Y-148761000D02*
X103759000Y-148761000D01*
X103759000Y-148009000D01*
X105561000Y-148009000D01*
X105561000Y-148761000D01*
X105561000Y-148761000D01*
G37*
G36*
X124651000Y-148731000D02*
X123349000Y-148731000D01*
X123349000Y-147629000D01*
X124651000Y-147629000D01*
X124651000Y-148731000D01*
X124651000Y-148731000D01*
G37*
G36*
X126401000Y-147621000D02*
X125099000Y-147621000D01*
X125099000Y-146519000D01*
X126401000Y-146519000D01*
X126401000Y-147621000D01*
X126401000Y-147621000D01*
G37*
G36*
X112161000Y-147491000D02*
X110359000Y-147491000D01*
X110359000Y-146739000D01*
X112161000Y-146739000D01*
X112161000Y-147491000D01*
X112161000Y-147491000D01*
G37*
G36*
X105561000Y-147491000D02*
X103759000Y-147491000D01*
X103759000Y-146739000D01*
X105561000Y-146739000D01*
X105561000Y-147491000D01*
X105561000Y-147491000D01*
G37*
G36*
X124651000Y-146851001D02*
X123349000Y-146851001D01*
X123349000Y-145749001D01*
X124651000Y-145749001D01*
X124651000Y-146851001D01*
X124651000Y-146851001D01*
G37*
G36*
X138491000Y-146711000D02*
X137389000Y-146711000D01*
X137389000Y-145409000D01*
X138491000Y-145409000D01*
X138491000Y-146711000D01*
X138491000Y-146711000D01*
G37*
G36*
X140051000Y-146711000D02*
X138949000Y-146711000D01*
X138949000Y-145409000D01*
X140051000Y-145409000D01*
X140051000Y-146711000D01*
X140051000Y-146711000D01*
G37*
G36*
X145407025Y-144710590D02*
X145558012Y-144756392D01*
X145697165Y-144830770D01*
X145819133Y-144930867D01*
X145919230Y-145052835D01*
X145993608Y-145191988D01*
X146039410Y-145342975D01*
X146054875Y-145500000D01*
X146039410Y-145657025D01*
X145993608Y-145808012D01*
X145919230Y-145947165D01*
X145819133Y-146069133D01*
X145697165Y-146169230D01*
X145558012Y-146243608D01*
X145407025Y-146289410D01*
X145289346Y-146301000D01*
X144210654Y-146301000D01*
X144092975Y-146289410D01*
X143941988Y-146243608D01*
X143802835Y-146169230D01*
X143680870Y-146069136D01*
X143680869Y-146069134D01*
X143680867Y-146069133D01*
X143622623Y-145998162D01*
X143605300Y-145980839D01*
X143584925Y-145967225D01*
X143562286Y-145957848D01*
X143538253Y-145953067D01*
X143513748Y-145953067D01*
X143489715Y-145957847D01*
X143467076Y-145967225D01*
X143446701Y-145980838D01*
X143429374Y-145998165D01*
X143415760Y-146018540D01*
X143406383Y-146041179D01*
X143401602Y-146065212D01*
X143401000Y-146077465D01*
X143401000Y-146421000D01*
X142099000Y-146421000D01*
X142099000Y-145319000D01*
X143375158Y-145319000D01*
X143399544Y-145316598D01*
X143422993Y-145309485D01*
X143444604Y-145297934D01*
X143463546Y-145282388D01*
X143479092Y-145263446D01*
X143490643Y-145241835D01*
X143494768Y-145230308D01*
X143506392Y-145191988D01*
X143556095Y-145099000D01*
X143580770Y-145052835D01*
X143680867Y-144930867D01*
X143802835Y-144830770D01*
X143941988Y-144756392D01*
X144092975Y-144710590D01*
X144210654Y-144699000D01*
X145289346Y-144699000D01*
X145407025Y-144710590D01*
X145407025Y-144710590D01*
G37*
G36*
X121481000Y-146401000D02*
X120379000Y-146401000D01*
X120379000Y-145099000D01*
X121481000Y-145099000D01*
X121481000Y-146401000D01*
X121481000Y-146401000D01*
G37*
G36*
X119601000Y-146401000D02*
X118499000Y-146401000D01*
X118499000Y-145099000D01*
X119601000Y-145099000D01*
X119601000Y-146401000D01*
X119601000Y-146401000D01*
G37*
G36*
X115081000Y-145901000D02*
X113979000Y-145901000D01*
X113979000Y-144599000D01*
X115081000Y-144599000D01*
X115081000Y-145901000D01*
X115081000Y-145901000D01*
G37*
G36*
X113521000Y-145901000D02*
X112419000Y-145901000D01*
X112419000Y-144599000D01*
X113521000Y-144599000D01*
X113521000Y-145901000D01*
X113521000Y-145901000D01*
G37*
G36*
X102151000Y-144731000D02*
X100849000Y-144731000D01*
X100849000Y-143629000D01*
X102151000Y-143629000D01*
X102151000Y-144731000D01*
X102151000Y-144731000D01*
G37*
G36*
X131401486Y-143730832D02*
X130480832Y-144651486D01*
X129701600Y-143872254D01*
X130622254Y-142951600D01*
X131401486Y-143730832D01*
X131401486Y-143730832D01*
G37*
G36*
X119331000Y-144651000D02*
X118229000Y-144651000D01*
X118229000Y-143349000D01*
X119331000Y-143349000D01*
X119331000Y-144651000D01*
X119331000Y-144651000D01*
G37*
G36*
X117771000Y-144651000D02*
X116669000Y-144651000D01*
X116669000Y-143349000D01*
X117771000Y-143349000D01*
X117771000Y-144651000D01*
X117771000Y-144651000D01*
G37*
G36*
X141246000Y-144566000D02*
X139594000Y-144566000D01*
X139594000Y-143864000D01*
X141246000Y-143864000D01*
X141246000Y-144566000D01*
X141246000Y-144566000D01*
G37*
G36*
X135846000Y-144566000D02*
X134194000Y-144566000D01*
X134194000Y-143864000D01*
X135846000Y-143864000D01*
X135846000Y-144566000D01*
X135846000Y-144566000D01*
G37*
G36*
X112201000Y-144261000D02*
X110399000Y-144261000D01*
X110399000Y-143509000D01*
X112201000Y-143509000D01*
X112201000Y-144261000D01*
X112201000Y-144261000D01*
G37*
G36*
X105601000Y-144261000D02*
X103799000Y-144261000D01*
X103799000Y-143509000D01*
X105601000Y-143509000D01*
X105601000Y-144261000D01*
X105601000Y-144261000D01*
G37*
G36*
X132763042Y-142842388D02*
X132781984Y-142857934D01*
X132803595Y-142869485D01*
X132827044Y-142876598D01*
X132851430Y-142879000D01*
X133901000Y-142879000D01*
X133901000Y-143981000D01*
X132599000Y-143981000D01*
X132599000Y-143325510D01*
X132596598Y-143301124D01*
X132589485Y-143277675D01*
X132577934Y-143256064D01*
X132562388Y-143237122D01*
X132543446Y-143221576D01*
X132521835Y-143210025D01*
X132498386Y-143202912D01*
X132474000Y-143200510D01*
X132449614Y-143202912D01*
X132426165Y-143210025D01*
X132404554Y-143221576D01*
X132385612Y-143237122D01*
X131851040Y-143771694D01*
X131071808Y-142992462D01*
X131992462Y-142071808D01*
X132763042Y-142842388D01*
X132763042Y-142842388D01*
G37*
G36*
X130298400Y-142627746D02*
X129377746Y-143548400D01*
X128598514Y-142769168D01*
X129519168Y-141848514D01*
X130298400Y-142627746D01*
X130298400Y-142627746D01*
G37*
G36*
X141246000Y-143296000D02*
X139594000Y-143296000D01*
X139594000Y-142594000D01*
X141246000Y-142594000D01*
X141246000Y-143296000D01*
X141246000Y-143296000D01*
G37*
G36*
X135846000Y-143296000D02*
X134194000Y-143296000D01*
X134194000Y-142594000D01*
X135846000Y-142594000D01*
X135846000Y-143296000D01*
X135846000Y-143296000D01*
G37*
G36*
X105601000Y-142991000D02*
X103799000Y-142991000D01*
X103799000Y-142239000D01*
X105601000Y-142239000D01*
X105601000Y-142991000D01*
X105601000Y-142991000D01*
G37*
G36*
X112201000Y-142991000D02*
X110399000Y-142991000D01*
X110399000Y-142239000D01*
X112201000Y-142239000D01*
X112201000Y-142991000D01*
X112201000Y-142991000D01*
G37*
G36*
X120750999Y-141458550D02*
X120740515Y-141478165D01*
X120733402Y-141501614D01*
X120731000Y-141526000D01*
X120731000Y-142901000D01*
X119629000Y-142901000D01*
X119629000Y-141541450D01*
X119639484Y-141521835D01*
X119646597Y-141498386D01*
X119648999Y-141474000D01*
X119648999Y-140099000D01*
X120750999Y-140099000D01*
X120750999Y-141458550D01*
X120750999Y-141458550D01*
G37*
G36*
X118871000Y-141458548D02*
X118860515Y-141478165D01*
X118853402Y-141501614D01*
X118851000Y-141526000D01*
X118851000Y-142901000D01*
X117749000Y-142901000D01*
X117749000Y-141541452D01*
X117759485Y-141521835D01*
X117766598Y-141498386D01*
X117769000Y-141474000D01*
X117769000Y-140099000D01*
X118871000Y-140099000D01*
X118871000Y-141458548D01*
X118871000Y-141458548D01*
G37*
G36*
X102151000Y-142851000D02*
X100849000Y-142851000D01*
X100849000Y-141749000D01*
X102151000Y-141749000D01*
X102151000Y-142851000D01*
X102151000Y-142851000D01*
G37*
G36*
X131442334Y-141521680D02*
X130521680Y-142442334D01*
X129742448Y-141663102D01*
X130663102Y-140742448D01*
X131442334Y-141521680D01*
X131442334Y-141521680D01*
G37*
G36*
X133901000Y-142101000D02*
X132599000Y-142101000D01*
X132599000Y-140999000D01*
X133901000Y-140999000D01*
X133901000Y-142101000D01*
X133901000Y-142101000D01*
G37*
G36*
X135846000Y-142026000D02*
X134194000Y-142026000D01*
X134194000Y-141324000D01*
X135846000Y-141324000D01*
X135846000Y-142026000D01*
X135846000Y-142026000D01*
G37*
G36*
X141246000Y-142026000D02*
X139594000Y-142026000D01*
X139594000Y-141324000D01*
X141246000Y-141324000D01*
X141246000Y-142026000D01*
X141246000Y-142026000D01*
G37*
G36*
X103521000Y-141651000D02*
X102419000Y-141651000D01*
X102419000Y-140349000D01*
X103521000Y-140349000D01*
X103521000Y-141651000D01*
X103521000Y-141651000D01*
G37*
G36*
X105081000Y-141651000D02*
X103979000Y-141651000D01*
X103979000Y-140349000D01*
X105081000Y-140349000D01*
X105081000Y-141651000D01*
X105081000Y-141651000D01*
G37*
G36*
X99201000Y-141351000D02*
X97799000Y-141351000D01*
X97799000Y-140549000D01*
X99201000Y-140549000D01*
X99201000Y-141351000D01*
X99201000Y-141351000D01*
G37*
G36*
X145407025Y-139710590D02*
X145558012Y-139756392D01*
X145697165Y-139830770D01*
X145819133Y-139930867D01*
X145919230Y-140052835D01*
X145993608Y-140191988D01*
X146039410Y-140342975D01*
X146054875Y-140500000D01*
X146039410Y-140657025D01*
X145993608Y-140808012D01*
X145919230Y-140947165D01*
X145819133Y-141069133D01*
X145697165Y-141169230D01*
X145558012Y-141243608D01*
X145407025Y-141289410D01*
X145289346Y-141301000D01*
X144210654Y-141301000D01*
X144092975Y-141289410D01*
X143941988Y-141243608D01*
X143802835Y-141169230D01*
X143680867Y-141069133D01*
X143580770Y-140947165D01*
X143506392Y-140808012D01*
X143460590Y-140657025D01*
X143445125Y-140500000D01*
X143460590Y-140342975D01*
X143506392Y-140191988D01*
X143580770Y-140052835D01*
X143680867Y-139930867D01*
X143802835Y-139830770D01*
X143941988Y-139756392D01*
X144092975Y-139710590D01*
X144210654Y-139699000D01*
X145289346Y-139699000D01*
X145407025Y-139710590D01*
X145407025Y-139710590D01*
G37*
G36*
X112401000Y-140981000D02*
X111099000Y-140981000D01*
X111099000Y-139879000D01*
X112401000Y-139879000D01*
X112401000Y-140981000D01*
X112401000Y-140981000D01*
G37*
G36*
X141246000Y-140756000D02*
X139594000Y-140756000D01*
X139594000Y-140054000D01*
X141246000Y-140054000D01*
X141246000Y-140756000D01*
X141246000Y-140756000D01*
G37*
G36*
X135846000Y-140756000D02*
X134194000Y-140756000D01*
X134194000Y-140054000D01*
X135846000Y-140054000D01*
X135846000Y-140756000D01*
X135846000Y-140756000D01*
G37*
G36*
X102121000Y-139901000D02*
X101019000Y-139901000D01*
X101019000Y-138599000D01*
X102121000Y-138599000D01*
X102121000Y-139901000D01*
X102121000Y-139901000D01*
G37*
G36*
X104001000Y-139901000D02*
X102899000Y-139901000D01*
X102899000Y-138599000D01*
X104001000Y-138599000D01*
X104001000Y-139901000D01*
X104001000Y-139901000D01*
G37*
G36*
X99201000Y-139451000D02*
X97799000Y-139451000D01*
X97799000Y-138649000D01*
X99201000Y-138649000D01*
X99201000Y-139451000D01*
X99201000Y-139451000D01*
G37*
G36*
X112401000Y-139101000D02*
X111099000Y-139101000D01*
X111099000Y-137999000D01*
X112401000Y-137999000D01*
X112401000Y-139101000D01*
X112401000Y-139101000D01*
G37*
G36*
X145407025Y-137210590D02*
X145558012Y-137256392D01*
X145697165Y-137330770D01*
X145819133Y-137430867D01*
X145919230Y-137552835D01*
X145993608Y-137691988D01*
X146039410Y-137842975D01*
X146054875Y-138000000D01*
X146039410Y-138157025D01*
X145993608Y-138308012D01*
X145919230Y-138447165D01*
X145819133Y-138569133D01*
X145697165Y-138669230D01*
X145558012Y-138743608D01*
X145407025Y-138789410D01*
X145289346Y-138801000D01*
X144210654Y-138801000D01*
X144092975Y-138789410D01*
X143941988Y-138743608D01*
X143802835Y-138669230D01*
X143680867Y-138569133D01*
X143580770Y-138447165D01*
X143506392Y-138308012D01*
X143460590Y-138157025D01*
X143445125Y-138000000D01*
X143460590Y-137842975D01*
X143506392Y-137691988D01*
X143580770Y-137552835D01*
X143680867Y-137430867D01*
X143802835Y-137330770D01*
X143941988Y-137256392D01*
X144092975Y-137210590D01*
X144210654Y-137199000D01*
X145289346Y-137199000D01*
X145407025Y-137210590D01*
X145407025Y-137210590D01*
G37*
G36*
X143151000Y-137981000D02*
X141849000Y-137981000D01*
X141849000Y-136879000D01*
X143151000Y-136879000D01*
X143151000Y-137981000D01*
X143151000Y-137981000D01*
G37*
G36*
X127121000Y-137401000D02*
X126019000Y-137401000D01*
X126019000Y-136099000D01*
X127121000Y-136099000D01*
X127121000Y-137401000D01*
X127121000Y-137401000D01*
G37*
G36*
X129001000Y-137401000D02*
X127899000Y-137401000D01*
X127899000Y-136099000D01*
X129001000Y-136099000D01*
X129001000Y-137401000D01*
X129001000Y-137401000D01*
G37*
G36*
X124981000Y-137151000D02*
X123879000Y-137151000D01*
X123879000Y-135849000D01*
X124981000Y-135849000D01*
X124981000Y-137151000D01*
X124981000Y-137151000D01*
G37*
G36*
X123101000Y-137151000D02*
X121999000Y-137151000D01*
X121999000Y-135849000D01*
X123101000Y-135849000D01*
X123101000Y-137151000D01*
X123101000Y-137151000D01*
G37*
G36*
X145407025Y-134710590D02*
X145558012Y-134756392D01*
X145697165Y-134830770D01*
X145819133Y-134930867D01*
X145919230Y-135052835D01*
X145993608Y-135191988D01*
X146039410Y-135342975D01*
X146054875Y-135500000D01*
X146039410Y-135657025D01*
X145993608Y-135808012D01*
X145919230Y-135947165D01*
X145819133Y-136069133D01*
X145697165Y-136169230D01*
X145558012Y-136243608D01*
X145407025Y-136289410D01*
X145289346Y-136301000D01*
X144210654Y-136301000D01*
X144092975Y-136289410D01*
X143941988Y-136243608D01*
X143802835Y-136169230D01*
X143680867Y-136069133D01*
X143580770Y-135947165D01*
X143506392Y-135808012D01*
X143460590Y-135657025D01*
X143445125Y-135500000D01*
X143460590Y-135342975D01*
X143506392Y-135191988D01*
X143580770Y-135052835D01*
X143680867Y-134930867D01*
X143802835Y-134830770D01*
X143941988Y-134756392D01*
X144092975Y-134710590D01*
X144210654Y-134699000D01*
X145289346Y-134699000D01*
X145407025Y-134710590D01*
X145407025Y-134710590D01*
G37*
G36*
X95851000Y-136201000D02*
X95049000Y-136201000D01*
X95049000Y-134799000D01*
X95851000Y-134799000D01*
X95851000Y-136201000D01*
X95851000Y-136201000D01*
G37*
G36*
X93951000Y-136201000D02*
X93149000Y-136201000D01*
X93149000Y-134799000D01*
X93951000Y-134799000D01*
X93951000Y-136201000D01*
X93951000Y-136201000D01*
G37*
G36*
X143151000Y-136101000D02*
X141849000Y-136101000D01*
X141849000Y-134999000D01*
X143151000Y-134999000D01*
X143151000Y-136101000D01*
X143151000Y-136101000D01*
G37*
G36*
X119151000Y-134831000D02*
X117849000Y-134831000D01*
X117849000Y-133729000D01*
X119151000Y-133729000D01*
X119151000Y-134831000D01*
X119151000Y-134831000D01*
G37*
G36*
X115401000Y-134831000D02*
X114099000Y-134831000D01*
X114099000Y-133729000D01*
X115401000Y-133729000D01*
X115401000Y-134831000D01*
X115401000Y-134831000D01*
G37*
G36*
X145407025Y-132210590D02*
X145558012Y-132256392D01*
X145697165Y-132330770D01*
X145819133Y-132430867D01*
X145919230Y-132552835D01*
X145993608Y-132691988D01*
X146039410Y-132842975D01*
X146054875Y-133000000D01*
X146039410Y-133157025D01*
X145993608Y-133308012D01*
X145919230Y-133447165D01*
X145819133Y-133569133D01*
X145697165Y-133669230D01*
X145558012Y-133743608D01*
X145407025Y-133789410D01*
X145289346Y-133801000D01*
X144210654Y-133801000D01*
X144092975Y-133789410D01*
X143941988Y-133743608D01*
X143802835Y-133669230D01*
X143680867Y-133569133D01*
X143580770Y-133447165D01*
X143506392Y-133308012D01*
X143460590Y-133157025D01*
X143445125Y-133000000D01*
X143460590Y-132842975D01*
X143506392Y-132691988D01*
X143580770Y-132552835D01*
X143680867Y-132430867D01*
X143802835Y-132330770D01*
X143941988Y-132256392D01*
X144092975Y-132210590D01*
X144210654Y-132199000D01*
X145289346Y-132199000D01*
X145407025Y-132210590D01*
X145407025Y-132210590D01*
G37*
G36*
X119151000Y-133271000D02*
X117849000Y-133271000D01*
X117849000Y-132169000D01*
X119151000Y-132169000D01*
X119151000Y-133271000D01*
X119151000Y-133271000D01*
G37*
G36*
X115401000Y-133271000D02*
X114099000Y-133271000D01*
X114099000Y-132169000D01*
X115401000Y-132169000D01*
X115401000Y-133271000D01*
X115401000Y-133271000D01*
G37*
G36*
X129487142Y-130218242D02*
X129635102Y-130279530D01*
X129768258Y-130368502D01*
X129881498Y-130481742D01*
X129970470Y-130614898D01*
X130031758Y-130762858D01*
X130063000Y-130919925D01*
X130063000Y-131080075D01*
X130031758Y-131237142D01*
X129970470Y-131385102D01*
X129881498Y-131518258D01*
X129768258Y-131631498D01*
X129635102Y-131720470D01*
X129487142Y-131781758D01*
X129330075Y-131813000D01*
X129169925Y-131813000D01*
X129012858Y-131781758D01*
X128864898Y-131720470D01*
X128731742Y-131631498D01*
X128618502Y-131518258D01*
X128529530Y-131385102D01*
X128468242Y-131237142D01*
X128437000Y-131080075D01*
X128437000Y-130919925D01*
X128468242Y-130762858D01*
X128529530Y-130614898D01*
X128618502Y-130481742D01*
X128731742Y-130368502D01*
X128864898Y-130279530D01*
X129012858Y-130218242D01*
X129169925Y-130187000D01*
X129330075Y-130187000D01*
X129487142Y-130218242D01*
X129487142Y-130218242D01*
G37*
G36*
X132027142Y-130218242D02*
X132175102Y-130279530D01*
X132308258Y-130368502D01*
X132421498Y-130481742D01*
X132510470Y-130614898D01*
X132571758Y-130762858D01*
X132603000Y-130919925D01*
X132603000Y-131080075D01*
X132571758Y-131237142D01*
X132510470Y-131385102D01*
X132421498Y-131518258D01*
X132308258Y-131631498D01*
X132175102Y-131720470D01*
X132027142Y-131781758D01*
X131870075Y-131813000D01*
X131709925Y-131813000D01*
X131552858Y-131781758D01*
X131404898Y-131720470D01*
X131271742Y-131631498D01*
X131158502Y-131518258D01*
X131069530Y-131385102D01*
X131008242Y-131237142D01*
X130977000Y-131080075D01*
X130977000Y-130919925D01*
X131008242Y-130762858D01*
X131069530Y-130614898D01*
X131158502Y-130481742D01*
X131271742Y-130368502D01*
X131404898Y-130279530D01*
X131552858Y-130218242D01*
X131709925Y-130187000D01*
X131870075Y-130187000D01*
X132027142Y-130218242D01*
X132027142Y-130218242D01*
G37*
G36*
X126947142Y-130218242D02*
X127095102Y-130279530D01*
X127228258Y-130368502D01*
X127341498Y-130481742D01*
X127430470Y-130614898D01*
X127491758Y-130762858D01*
X127523000Y-130919925D01*
X127523000Y-131080075D01*
X127491758Y-131237142D01*
X127430470Y-131385102D01*
X127341498Y-131518258D01*
X127228258Y-131631498D01*
X127095102Y-131720470D01*
X126947142Y-131781758D01*
X126790075Y-131813000D01*
X126629925Y-131813000D01*
X126472858Y-131781758D01*
X126324898Y-131720470D01*
X126191742Y-131631498D01*
X126078502Y-131518258D01*
X125989530Y-131385102D01*
X125928242Y-131237142D01*
X125897000Y-131080075D01*
X125897000Y-130919925D01*
X125928242Y-130762858D01*
X125989530Y-130614898D01*
X126078502Y-130481742D01*
X126191742Y-130368502D01*
X126324898Y-130279530D01*
X126472858Y-130218242D01*
X126629925Y-130187000D01*
X126790075Y-130187000D01*
X126947142Y-130218242D01*
X126947142Y-130218242D01*
G37*
G36*
X138151000Y-131581000D02*
X136849000Y-131581000D01*
X136849000Y-130479000D01*
X138151000Y-130479000D01*
X138151000Y-131581000D01*
X138151000Y-131581000D01*
G37*
G36*
X118151000Y-131581000D02*
X116849000Y-131581000D01*
X116849000Y-130479000D01*
X118151000Y-130479000D01*
X118151000Y-131581000D01*
X118151000Y-131581000D01*
G37*
G36*
X72001000Y-130451000D02*
X69899000Y-130451000D01*
X69899000Y-121349000D01*
X72001000Y-121349000D01*
X72001000Y-130451000D01*
X72001000Y-130451000D01*
G37*
G36*
X98751000Y-130451000D02*
X96649000Y-130451000D01*
X96649000Y-121349000D01*
X98751000Y-121349000D01*
X98751000Y-130451000D01*
X98751000Y-130451000D01*
G37*
G36*
X55101000Y-130451000D02*
X52999000Y-130451000D01*
X52999000Y-121349000D01*
X55101000Y-121349000D01*
X55101000Y-130451000D01*
X55101000Y-130451000D01*
G37*
G36*
X81851000Y-130451000D02*
X79749000Y-130451000D01*
X79749000Y-121349000D01*
X81851000Y-121349000D01*
X81851000Y-130451000D01*
X81851000Y-130451000D01*
G37*
G36*
X138151000Y-130021000D02*
X136849000Y-130021000D01*
X136849000Y-128919000D01*
X138151000Y-128919000D01*
X138151000Y-130021000D01*
X138151000Y-130021000D01*
G37*
G36*
X118151000Y-130021000D02*
X116849000Y-130021000D01*
X116849000Y-128919000D01*
X118151000Y-128919000D01*
X118151000Y-130021000D01*
X118151000Y-130021000D01*
G37*
G36*
X132051000Y-129901000D02*
X130949000Y-129901000D01*
X130949000Y-128599000D01*
X132051000Y-128599000D01*
X132051000Y-129901000D01*
X132051000Y-129901000D01*
G37*
G36*
X130171000Y-129901000D02*
X127879000Y-129901000D01*
X127879000Y-128599000D01*
X130171000Y-128599000D01*
X130171000Y-129901000D01*
X130171000Y-129901000D01*
G37*
G36*
X127101000Y-129901000D02*
X125999000Y-129901000D01*
X125999000Y-128599000D01*
X127101000Y-128599000D01*
X127101000Y-129901000D01*
X127101000Y-129901000D01*
G37*
G36*
X136451810Y-129651050D02*
X135549710Y-129651050D01*
X135549710Y-128748950D01*
X136451810Y-128748950D01*
X136451810Y-129651050D01*
X136451810Y-129651050D01*
G37*
G36*
X122831000Y-128901000D02*
X121729000Y-128901000D01*
X121729000Y-127599000D01*
X122831000Y-127599000D01*
X122831000Y-128901000D01*
X122831000Y-128901000D01*
G37*
G36*
X121271000Y-128901000D02*
X120169000Y-128901000D01*
X120169000Y-127599000D01*
X121271000Y-127599000D01*
X121271000Y-128901000D01*
X121271000Y-128901000D01*
G37*
G36*
X145407025Y-127210590D02*
X145558012Y-127256392D01*
X145697165Y-127330770D01*
X145819133Y-127430867D01*
X145919230Y-127552835D01*
X145993608Y-127691988D01*
X146039410Y-127842975D01*
X146054875Y-128000000D01*
X146039410Y-128157025D01*
X145993608Y-128308012D01*
X145919230Y-128447165D01*
X145819133Y-128569133D01*
X145697165Y-128669230D01*
X145558012Y-128743608D01*
X145407025Y-128789410D01*
X145289346Y-128801000D01*
X144210654Y-128801000D01*
X144092975Y-128789410D01*
X143941988Y-128743608D01*
X143802835Y-128669230D01*
X143680867Y-128569133D01*
X143580770Y-128447165D01*
X143506392Y-128308012D01*
X143460590Y-128157025D01*
X143445125Y-128000000D01*
X143460590Y-127842975D01*
X143506392Y-127691988D01*
X143580770Y-127552835D01*
X143680867Y-127430867D01*
X143802835Y-127330770D01*
X143941988Y-127256392D01*
X144092975Y-127210590D01*
X144210654Y-127199000D01*
X145289346Y-127199000D01*
X145407025Y-127210590D01*
X145407025Y-127210590D01*
G37*
G36*
X134452830Y-128701050D02*
X133550730Y-128701050D01*
X133550730Y-127798950D01*
X134452830Y-127798950D01*
X134452830Y-128701050D01*
X134452830Y-128701050D01*
G37*
G36*
X116351000Y-128651000D02*
X115249000Y-128651000D01*
X115249000Y-127349000D01*
X116351000Y-127349000D01*
X116351000Y-128651000D01*
X116351000Y-128651000D01*
G37*
G36*
X118231000Y-128651000D02*
X117129000Y-128651000D01*
X117129000Y-127349000D01*
X118231000Y-127349000D01*
X118231000Y-128651000D01*
X118231000Y-128651000D01*
G37*
G36*
X129487142Y-126618242D02*
X129635102Y-126679530D01*
X129768258Y-126768502D01*
X129881498Y-126881742D01*
X129970470Y-127014898D01*
X130031758Y-127162858D01*
X130063000Y-127319925D01*
X130063000Y-127480075D01*
X130031758Y-127637142D01*
X129970470Y-127785102D01*
X129881498Y-127918258D01*
X129768258Y-128031498D01*
X129635102Y-128120470D01*
X129487142Y-128181758D01*
X129330075Y-128213000D01*
X129169925Y-128213000D01*
X129012858Y-128181758D01*
X128864898Y-128120470D01*
X128731742Y-128031498D01*
X128618502Y-127918258D01*
X128529530Y-127785102D01*
X128468242Y-127637142D01*
X128437000Y-127480075D01*
X128437000Y-127319925D01*
X128468242Y-127162858D01*
X128529530Y-127014898D01*
X128618502Y-126881742D01*
X128731742Y-126768502D01*
X128864898Y-126679530D01*
X129012858Y-126618242D01*
X129169925Y-126587000D01*
X129330075Y-126587000D01*
X129487142Y-126618242D01*
X129487142Y-126618242D01*
G37*
G36*
X132027142Y-126618242D02*
X132175102Y-126679530D01*
X132308258Y-126768502D01*
X132421498Y-126881742D01*
X132510470Y-127014898D01*
X132571758Y-127162858D01*
X132603000Y-127319925D01*
X132603000Y-127480075D01*
X132571758Y-127637142D01*
X132510470Y-127785102D01*
X132421498Y-127918258D01*
X132308258Y-128031498D01*
X132175102Y-128120470D01*
X132027142Y-128181758D01*
X131870075Y-128213000D01*
X131709925Y-128213000D01*
X131552858Y-128181758D01*
X131404898Y-128120470D01*
X131271742Y-128031498D01*
X131158502Y-127918258D01*
X131069530Y-127785102D01*
X131008242Y-127637142D01*
X130977000Y-127480075D01*
X130977000Y-127319925D01*
X131008242Y-127162858D01*
X131069530Y-127014898D01*
X131158502Y-126881742D01*
X131271742Y-126768502D01*
X131404898Y-126679530D01*
X131552858Y-126618242D01*
X131709925Y-126587000D01*
X131870075Y-126587000D01*
X132027142Y-126618242D01*
X132027142Y-126618242D01*
G37*
G36*
X126947142Y-126618242D02*
X127095102Y-126679530D01*
X127228258Y-126768502D01*
X127341498Y-126881742D01*
X127430470Y-127014898D01*
X127491758Y-127162858D01*
X127523000Y-127319925D01*
X127523000Y-127480075D01*
X127491758Y-127637142D01*
X127430470Y-127785102D01*
X127341498Y-127918258D01*
X127228258Y-128031498D01*
X127095102Y-128120470D01*
X126947142Y-128181758D01*
X126790075Y-128213000D01*
X126629925Y-128213000D01*
X126472858Y-128181758D01*
X126324898Y-128120470D01*
X126191742Y-128031498D01*
X126078502Y-127918258D01*
X125989530Y-127785102D01*
X125928242Y-127637142D01*
X125897000Y-127480075D01*
X125897000Y-127319925D01*
X125928242Y-127162858D01*
X125989530Y-127014898D01*
X126078502Y-126881742D01*
X126191742Y-126768502D01*
X126324898Y-126679530D01*
X126472858Y-126618242D01*
X126629925Y-126587000D01*
X126790075Y-126587000D01*
X126947142Y-126618242D01*
X126947142Y-126618242D01*
G37*
G36*
X136451810Y-127751050D02*
X135549710Y-127751050D01*
X135549710Y-126848950D01*
X136451810Y-126848950D01*
X136451810Y-127751050D01*
X136451810Y-127751050D01*
G37*
G36*
X141411000Y-127141000D02*
X140089000Y-127141000D01*
X140089000Y-126129000D01*
X141411000Y-126129000D01*
X141411000Y-127141000D01*
X141411000Y-127141000D01*
G37*
G36*
X64141000Y-126911000D02*
X63129000Y-126911000D01*
X63129000Y-125589000D01*
X64141000Y-125589000D01*
X64141000Y-126911000D01*
X64141000Y-126911000D01*
G37*
G36*
X60871000Y-126911000D02*
X59859000Y-126911000D01*
X59859000Y-125589000D01*
X60871000Y-125589000D01*
X60871000Y-126911000D01*
X60871000Y-126911000D01*
G37*
G36*
X87871000Y-126911000D02*
X86859000Y-126911000D01*
X86859000Y-125589000D01*
X87871000Y-125589000D01*
X87871000Y-126911000D01*
X87871000Y-126911000D01*
G37*
G36*
X91141000Y-126911000D02*
X90129000Y-126911000D01*
X90129000Y-125589000D01*
X91141000Y-125589000D01*
X91141000Y-126911000D01*
X91141000Y-126911000D01*
G37*
G36*
X116351000Y-126901000D02*
X115249000Y-126901000D01*
X115249000Y-125599000D01*
X116351000Y-125599000D01*
X116351000Y-126901000D01*
X116351000Y-126901000D01*
G37*
G36*
X118231000Y-126901000D02*
X117129000Y-126901000D01*
X117129000Y-125599000D01*
X118231000Y-125599000D01*
X118231000Y-126901000D01*
X118231000Y-126901000D01*
G37*
G36*
X134651000Y-126331000D02*
X133349000Y-126331000D01*
X133349000Y-125229000D01*
X134651000Y-125229000D01*
X134651000Y-126331000D01*
X134651000Y-126331000D01*
G37*
G36*
X145407025Y-124710590D02*
X145558012Y-124756392D01*
X145697165Y-124830770D01*
X145819133Y-124930867D01*
X145919230Y-125052835D01*
X145993608Y-125191988D01*
X146039410Y-125342975D01*
X146054875Y-125500000D01*
X146039410Y-125657025D01*
X145993608Y-125808012D01*
X145919230Y-125947165D01*
X145819133Y-126069133D01*
X145697165Y-126169230D01*
X145558012Y-126243608D01*
X145407025Y-126289410D01*
X145289346Y-126301000D01*
X144210654Y-126301000D01*
X144092975Y-126289410D01*
X143941988Y-126243608D01*
X143802835Y-126169230D01*
X143680867Y-126069133D01*
X143580770Y-125947165D01*
X143506392Y-125808012D01*
X143460590Y-125657025D01*
X143445125Y-125500000D01*
X143460590Y-125342975D01*
X143506392Y-125191988D01*
X143580770Y-125052835D01*
X143680867Y-124930867D01*
X143802835Y-124830770D01*
X143941988Y-124756392D01*
X144092975Y-124710590D01*
X144210654Y-124699000D01*
X145289346Y-124699000D01*
X145407025Y-124710590D01*
X145407025Y-124710590D01*
G37*
G36*
X137161000Y-125641000D02*
X135839000Y-125641000D01*
X135839000Y-124629000D01*
X137161000Y-124629000D01*
X137161000Y-125641000D01*
X137161000Y-125641000D01*
G37*
G36*
X121401000Y-123322807D02*
X121402337Y-123336384D01*
X121399022Y-123319715D01*
X121389644Y-123297076D01*
X121376031Y-123276701D01*
X121358703Y-123259374D01*
X121338329Y-123245760D01*
X121315690Y-123236383D01*
X121291657Y-123231602D01*
X121279404Y-123231000D01*
X120220595Y-123231000D01*
X120196209Y-123233402D01*
X120172760Y-123240515D01*
X120151149Y-123252066D01*
X120132207Y-123267612D01*
X120116661Y-123286554D01*
X120105110Y-123308165D01*
X120097997Y-123331614D01*
X120095595Y-123356000D01*
X120097997Y-123380386D01*
X120105110Y-123403835D01*
X120116661Y-123425446D01*
X120132207Y-123444388D01*
X120151149Y-123459934D01*
X120172760Y-123471485D01*
X120184304Y-123475616D01*
X120217854Y-123485793D01*
X120250332Y-123495645D01*
X120310782Y-123527957D01*
X120363425Y-123556095D01*
X120462553Y-123637447D01*
X120543905Y-123736574D01*
X120543906Y-123736576D01*
X120604355Y-123849667D01*
X120610826Y-123871000D01*
X120630384Y-123935474D01*
X120639760Y-123958108D01*
X120653373Y-123978483D01*
X120670700Y-123995810D01*
X120691075Y-124009424D01*
X120713714Y-124018801D01*
X120737747Y-124023582D01*
X120762252Y-124023582D01*
X120786285Y-124018802D01*
X120808924Y-124009424D01*
X120829299Y-123995811D01*
X120846626Y-123978484D01*
X120860240Y-123958109D01*
X120869618Y-123935469D01*
X120895645Y-123849668D01*
X120952336Y-123743608D01*
X120956095Y-123736575D01*
X121037447Y-123637447D01*
X121136574Y-123556095D01*
X121149509Y-123549181D01*
X121249667Y-123495645D01*
X121282145Y-123485793D01*
X121315692Y-123475617D01*
X121338328Y-123466240D01*
X121358703Y-123452627D01*
X121376030Y-123435299D01*
X121389644Y-123414925D01*
X121399021Y-123392286D01*
X121403802Y-123368253D01*
X121403802Y-123348512D01*
X121410515Y-123370642D01*
X121422066Y-123392253D01*
X121437612Y-123411195D01*
X121456554Y-123426741D01*
X121478165Y-123438292D01*
X121513748Y-123447205D01*
X121627617Y-123458420D01*
X121709426Y-123483237D01*
X121750332Y-123495645D01*
X121810782Y-123527957D01*
X121863425Y-123556095D01*
X121962553Y-123637447D01*
X122043905Y-123736574D01*
X122043906Y-123736576D01*
X122104355Y-123849667D01*
X122110826Y-123871000D01*
X122130384Y-123935474D01*
X122139760Y-123958108D01*
X122153373Y-123978483D01*
X122170700Y-123995810D01*
X122191075Y-124009424D01*
X122213714Y-124018801D01*
X122237747Y-124023582D01*
X122262252Y-124023582D01*
X122286285Y-124018802D01*
X122308924Y-124009424D01*
X122329299Y-123995811D01*
X122346626Y-123978484D01*
X122360240Y-123958109D01*
X122369618Y-123935469D01*
X122395645Y-123849668D01*
X122452336Y-123743608D01*
X122456095Y-123736575D01*
X122537447Y-123637447D01*
X122636574Y-123556095D01*
X122649509Y-123549181D01*
X122749667Y-123495645D01*
X122790573Y-123483237D01*
X122872382Y-123458420D01*
X123000000Y-123445851D01*
X123127617Y-123458420D01*
X123209426Y-123483237D01*
X123250332Y-123495645D01*
X123310782Y-123527957D01*
X123363425Y-123556095D01*
X123462553Y-123637447D01*
X123543905Y-123736574D01*
X123543906Y-123736576D01*
X123604355Y-123849667D01*
X123610826Y-123871000D01*
X123630384Y-123935474D01*
X123639760Y-123958108D01*
X123653373Y-123978483D01*
X123670700Y-123995810D01*
X123691075Y-124009424D01*
X123713714Y-124018801D01*
X123737747Y-124023582D01*
X123762252Y-124023582D01*
X123786285Y-124018802D01*
X123808924Y-124009424D01*
X123829299Y-123995811D01*
X123846626Y-123978484D01*
X123860240Y-123958109D01*
X123869618Y-123935469D01*
X123895645Y-123849668D01*
X123952336Y-123743608D01*
X123956095Y-123736575D01*
X124037447Y-123637447D01*
X124136574Y-123556095D01*
X124149509Y-123549181D01*
X124249667Y-123495645D01*
X124290573Y-123483237D01*
X124372382Y-123458420D01*
X124500000Y-123445851D01*
X124627617Y-123458420D01*
X124709426Y-123483237D01*
X124750332Y-123495645D01*
X124810782Y-123527957D01*
X124863425Y-123556095D01*
X124962553Y-123637447D01*
X125043905Y-123736574D01*
X125043906Y-123736576D01*
X125104355Y-123849667D01*
X125110826Y-123871000D01*
X125130384Y-123935474D01*
X125139760Y-123958108D01*
X125153373Y-123978483D01*
X125170700Y-123995810D01*
X125191075Y-124009424D01*
X125213714Y-124018801D01*
X125237747Y-124023582D01*
X125262252Y-124023582D01*
X125286285Y-124018802D01*
X125308924Y-124009424D01*
X125329299Y-123995811D01*
X125346626Y-123978484D01*
X125360240Y-123958109D01*
X125369618Y-123935469D01*
X125395645Y-123849668D01*
X125452336Y-123743608D01*
X125456095Y-123736575D01*
X125537447Y-123637447D01*
X125636574Y-123556095D01*
X125649509Y-123549181D01*
X125749667Y-123495645D01*
X125790573Y-123483237D01*
X125872382Y-123458420D01*
X126000000Y-123445851D01*
X126127617Y-123458420D01*
X126209426Y-123483237D01*
X126250332Y-123495645D01*
X126310782Y-123527957D01*
X126363425Y-123556095D01*
X126462553Y-123637447D01*
X126543905Y-123736574D01*
X126543906Y-123736576D01*
X126604355Y-123849667D01*
X126610826Y-123871000D01*
X126630384Y-123935474D01*
X126639760Y-123958108D01*
X126653373Y-123978483D01*
X126670700Y-123995810D01*
X126691075Y-124009424D01*
X126713714Y-124018801D01*
X126737747Y-124023582D01*
X126762252Y-124023582D01*
X126786285Y-124018802D01*
X126808924Y-124009424D01*
X126829299Y-123995811D01*
X126846626Y-123978484D01*
X126860240Y-123958109D01*
X126869618Y-123935469D01*
X126895645Y-123849668D01*
X126952336Y-123743608D01*
X126956095Y-123736575D01*
X127037447Y-123637447D01*
X127136574Y-123556095D01*
X127149509Y-123549181D01*
X127249667Y-123495645D01*
X127290573Y-123483237D01*
X127372382Y-123458420D01*
X127500000Y-123445851D01*
X127627617Y-123458420D01*
X127709426Y-123483237D01*
X127750332Y-123495645D01*
X127810782Y-123527957D01*
X127863425Y-123556095D01*
X127962553Y-123637447D01*
X128043905Y-123736574D01*
X128043906Y-123736576D01*
X128104355Y-123849667D01*
X128110826Y-123871000D01*
X128130384Y-123935474D01*
X128139760Y-123958108D01*
X128153373Y-123978483D01*
X128170700Y-123995810D01*
X128191075Y-124009424D01*
X128213714Y-124018801D01*
X128237747Y-124023582D01*
X128262252Y-124023582D01*
X128286285Y-124018802D01*
X128308924Y-124009424D01*
X128329299Y-123995811D01*
X128346626Y-123978484D01*
X128360240Y-123958109D01*
X128369618Y-123935469D01*
X128395645Y-123849668D01*
X128452336Y-123743608D01*
X128456095Y-123736575D01*
X128537447Y-123637447D01*
X128636574Y-123556095D01*
X128649509Y-123549181D01*
X128749667Y-123495645D01*
X128790573Y-123483237D01*
X128872382Y-123458420D01*
X129000000Y-123445851D01*
X129127617Y-123458420D01*
X129209426Y-123483237D01*
X129250332Y-123495645D01*
X129310782Y-123527957D01*
X129363425Y-123556095D01*
X129462553Y-123637447D01*
X129543905Y-123736574D01*
X129543906Y-123736576D01*
X129604355Y-123849667D01*
X129610826Y-123871000D01*
X129630384Y-123935474D01*
X129639760Y-123958108D01*
X129653373Y-123978483D01*
X129670700Y-123995810D01*
X129691075Y-124009424D01*
X129713714Y-124018801D01*
X129737747Y-124023582D01*
X129762252Y-124023582D01*
X129786285Y-124018802D01*
X129808924Y-124009424D01*
X129829299Y-123995811D01*
X129846626Y-123978484D01*
X129860240Y-123958109D01*
X129869618Y-123935469D01*
X129895645Y-123849668D01*
X129952336Y-123743608D01*
X129956095Y-123736575D01*
X130037447Y-123637447D01*
X130136574Y-123556095D01*
X130149509Y-123549181D01*
X130249667Y-123495645D01*
X130290573Y-123483237D01*
X130372382Y-123458420D01*
X130500000Y-123445851D01*
X130627617Y-123458420D01*
X130709426Y-123483237D01*
X130750332Y-123495645D01*
X130810782Y-123527957D01*
X130863425Y-123556095D01*
X130962553Y-123637447D01*
X131043905Y-123736574D01*
X131043906Y-123736576D01*
X131104355Y-123849667D01*
X131110826Y-123871000D01*
X131130384Y-123935474D01*
X131139760Y-123958108D01*
X131153373Y-123978483D01*
X131170700Y-123995810D01*
X131191075Y-124009424D01*
X131213714Y-124018801D01*
X131237747Y-124023582D01*
X131262252Y-124023582D01*
X131286285Y-124018802D01*
X131308924Y-124009424D01*
X131329299Y-123995811D01*
X131346626Y-123978484D01*
X131360240Y-123958109D01*
X131369618Y-123935469D01*
X131395645Y-123849668D01*
X131452336Y-123743608D01*
X131456095Y-123736575D01*
X131537447Y-123637447D01*
X131636574Y-123556095D01*
X131649509Y-123549181D01*
X131749667Y-123495645D01*
X131790573Y-123483237D01*
X131872382Y-123458420D01*
X132000000Y-123445851D01*
X132127617Y-123458420D01*
X132209426Y-123483237D01*
X132250332Y-123495645D01*
X132310782Y-123527957D01*
X132363425Y-123556095D01*
X132462553Y-123637447D01*
X132543905Y-123736574D01*
X132543906Y-123736576D01*
X132604355Y-123849667D01*
X132610826Y-123871000D01*
X132641580Y-123972382D01*
X132651000Y-124068027D01*
X132651000Y-124931973D01*
X132641580Y-125027618D01*
X132616763Y-125109427D01*
X132604355Y-125150333D01*
X132562306Y-125229000D01*
X132543905Y-125263426D01*
X132462553Y-125362553D01*
X132363426Y-125443905D01*
X132363424Y-125443906D01*
X132250333Y-125504355D01*
X132209427Y-125516763D01*
X132127618Y-125541580D01*
X132000000Y-125554149D01*
X131872383Y-125541580D01*
X131790574Y-125516763D01*
X131749668Y-125504355D01*
X131636577Y-125443906D01*
X131636575Y-125443905D01*
X131537448Y-125362553D01*
X131456096Y-125263426D01*
X131395646Y-125150332D01*
X131369613Y-125064516D01*
X131360242Y-125041891D01*
X131346628Y-125021517D01*
X131329301Y-125004189D01*
X131308926Y-124990575D01*
X131286287Y-124981198D01*
X131262254Y-124976417D01*
X131237750Y-124976417D01*
X131213716Y-124981197D01*
X131191077Y-124990574D01*
X131170703Y-125004188D01*
X131153375Y-125021515D01*
X131139761Y-125041890D01*
X131130384Y-125064529D01*
X131104356Y-125150330D01*
X131104355Y-125150332D01*
X131043905Y-125263426D01*
X130962553Y-125362553D01*
X130863426Y-125443905D01*
X130863424Y-125443906D01*
X130750333Y-125504355D01*
X130709427Y-125516763D01*
X130627618Y-125541580D01*
X130500000Y-125554149D01*
X130372383Y-125541580D01*
X130290574Y-125516763D01*
X130249668Y-125504355D01*
X130136577Y-125443906D01*
X130136575Y-125443905D01*
X130037448Y-125362553D01*
X129956096Y-125263426D01*
X129895646Y-125150332D01*
X129869613Y-125064516D01*
X129860242Y-125041891D01*
X129846628Y-125021517D01*
X129829301Y-125004189D01*
X129808926Y-124990575D01*
X129786287Y-124981198D01*
X129762254Y-124976417D01*
X129737750Y-124976417D01*
X129713716Y-124981197D01*
X129691077Y-124990574D01*
X129670703Y-125004188D01*
X129653375Y-125021515D01*
X129639761Y-125041890D01*
X129630384Y-125064529D01*
X129604356Y-125150330D01*
X129604355Y-125150332D01*
X129543905Y-125263426D01*
X129462553Y-125362553D01*
X129363426Y-125443905D01*
X129363424Y-125443906D01*
X129250333Y-125504355D01*
X129209427Y-125516763D01*
X129127618Y-125541580D01*
X129000000Y-125554149D01*
X128872383Y-125541580D01*
X128790574Y-125516763D01*
X128749668Y-125504355D01*
X128636577Y-125443906D01*
X128636575Y-125443905D01*
X128537448Y-125362553D01*
X128456096Y-125263426D01*
X128395646Y-125150332D01*
X128369613Y-125064516D01*
X128360242Y-125041891D01*
X128346628Y-125021517D01*
X128329301Y-125004189D01*
X128308926Y-124990575D01*
X128286287Y-124981198D01*
X128262254Y-124976417D01*
X128237750Y-124976417D01*
X128213716Y-124981197D01*
X128191077Y-124990574D01*
X128170703Y-125004188D01*
X128153375Y-125021515D01*
X128139761Y-125041890D01*
X128130384Y-125064529D01*
X128104356Y-125150330D01*
X128104355Y-125150332D01*
X128043905Y-125263426D01*
X127962553Y-125362553D01*
X127863426Y-125443905D01*
X127863424Y-125443906D01*
X127750333Y-125504355D01*
X127709427Y-125516763D01*
X127627618Y-125541580D01*
X127500000Y-125554149D01*
X127372383Y-125541580D01*
X127290574Y-125516763D01*
X127249668Y-125504355D01*
X127136577Y-125443906D01*
X127136575Y-125443905D01*
X127037448Y-125362553D01*
X126956096Y-125263426D01*
X126895646Y-125150332D01*
X126869613Y-125064516D01*
X126860242Y-125041891D01*
X126846628Y-125021517D01*
X126829301Y-125004189D01*
X126808926Y-124990575D01*
X126786287Y-124981198D01*
X126762254Y-124976417D01*
X126737750Y-124976417D01*
X126713716Y-124981197D01*
X126691077Y-124990574D01*
X126670703Y-125004188D01*
X126653375Y-125021515D01*
X126639761Y-125041890D01*
X126630384Y-125064529D01*
X126604356Y-125150330D01*
X126604355Y-125150332D01*
X126543905Y-125263426D01*
X126462553Y-125362553D01*
X126363426Y-125443905D01*
X126363424Y-125443906D01*
X126250333Y-125504355D01*
X126209427Y-125516763D01*
X126127618Y-125541580D01*
X126000000Y-125554149D01*
X125872383Y-125541580D01*
X125790574Y-125516763D01*
X125749668Y-125504355D01*
X125636577Y-125443906D01*
X125636575Y-125443905D01*
X125537448Y-125362553D01*
X125456096Y-125263426D01*
X125395646Y-125150332D01*
X125369613Y-125064516D01*
X125360242Y-125041891D01*
X125346628Y-125021517D01*
X125329301Y-125004189D01*
X125308926Y-124990575D01*
X125286287Y-124981198D01*
X125262254Y-124976417D01*
X125237750Y-124976417D01*
X125213716Y-124981197D01*
X125191077Y-124990574D01*
X125170703Y-125004188D01*
X125153375Y-125021515D01*
X125139761Y-125041890D01*
X125130384Y-125064529D01*
X125104356Y-125150330D01*
X125104355Y-125150332D01*
X125043905Y-125263426D01*
X124962553Y-125362553D01*
X124863426Y-125443905D01*
X124863424Y-125443906D01*
X124750333Y-125504355D01*
X124709427Y-125516763D01*
X124627618Y-125541580D01*
X124500000Y-125554149D01*
X124372383Y-125541580D01*
X124290574Y-125516763D01*
X124249668Y-125504355D01*
X124136577Y-125443906D01*
X124136575Y-125443905D01*
X124037448Y-125362553D01*
X123956096Y-125263426D01*
X123895646Y-125150332D01*
X123869613Y-125064516D01*
X123860242Y-125041891D01*
X123846628Y-125021517D01*
X123829301Y-125004189D01*
X123808926Y-124990575D01*
X123786287Y-124981198D01*
X123762254Y-124976417D01*
X123737750Y-124976417D01*
X123713716Y-124981197D01*
X123691077Y-124990574D01*
X123670703Y-125004188D01*
X123653375Y-125021515D01*
X123639761Y-125041890D01*
X123630384Y-125064529D01*
X123604356Y-125150330D01*
X123604355Y-125150332D01*
X123543905Y-125263426D01*
X123462553Y-125362553D01*
X123363426Y-125443905D01*
X123363424Y-125443906D01*
X123250333Y-125504355D01*
X123209427Y-125516763D01*
X123127618Y-125541580D01*
X123000000Y-125554149D01*
X122872383Y-125541580D01*
X122790574Y-125516763D01*
X122749668Y-125504355D01*
X122636577Y-125443906D01*
X122636575Y-125443905D01*
X122537448Y-125362553D01*
X122456096Y-125263426D01*
X122395646Y-125150332D01*
X122369613Y-125064516D01*
X122360242Y-125041891D01*
X122346628Y-125021517D01*
X122329301Y-125004189D01*
X122308926Y-124990575D01*
X122286287Y-124981198D01*
X122262254Y-124976417D01*
X122237750Y-124976417D01*
X122213716Y-124981197D01*
X122191077Y-124990574D01*
X122170703Y-125004188D01*
X122153375Y-125021515D01*
X122139761Y-125041890D01*
X122130384Y-125064529D01*
X122104356Y-125150330D01*
X122104355Y-125150332D01*
X122043905Y-125263426D01*
X121962553Y-125362553D01*
X121863426Y-125443905D01*
X121863424Y-125443906D01*
X121750333Y-125504355D01*
X121709427Y-125516763D01*
X121627618Y-125541580D01*
X121500000Y-125554149D01*
X121372383Y-125541580D01*
X121290574Y-125516763D01*
X121249668Y-125504355D01*
X121136577Y-125443906D01*
X121136575Y-125443905D01*
X121037448Y-125362553D01*
X120956096Y-125263426D01*
X120895646Y-125150332D01*
X120869613Y-125064516D01*
X120860242Y-125041891D01*
X120846628Y-125021517D01*
X120829301Y-125004189D01*
X120808926Y-124990575D01*
X120786287Y-124981198D01*
X120762254Y-124976417D01*
X120737750Y-124976417D01*
X120713716Y-124981197D01*
X120691077Y-124990574D01*
X120670703Y-125004188D01*
X120653375Y-125021515D01*
X120639761Y-125041890D01*
X120630384Y-125064529D01*
X120604356Y-125150330D01*
X120604355Y-125150332D01*
X120543905Y-125263426D01*
X120462553Y-125362553D01*
X120363426Y-125443905D01*
X120363424Y-125443906D01*
X120250333Y-125504355D01*
X120209427Y-125516763D01*
X120127618Y-125541580D01*
X120000000Y-125554149D01*
X119872383Y-125541580D01*
X119790574Y-125516763D01*
X119749668Y-125504355D01*
X119636577Y-125443906D01*
X119636575Y-125443905D01*
X119537448Y-125362553D01*
X119456096Y-125263426D01*
X119437695Y-125229000D01*
X119395646Y-125150333D01*
X119389734Y-125130843D01*
X119358420Y-125027618D01*
X119349000Y-124931973D01*
X119349000Y-124068028D01*
X119358420Y-123972383D01*
X119395645Y-123849669D01*
X119395645Y-123849668D01*
X119452336Y-123743608D01*
X119456095Y-123736575D01*
X119537447Y-123637447D01*
X119636574Y-123556095D01*
X119649509Y-123549181D01*
X119749667Y-123495645D01*
X119790573Y-123483237D01*
X119872382Y-123458420D01*
X119986252Y-123447205D01*
X120010286Y-123442425D01*
X120032925Y-123433047D01*
X120053299Y-123419433D01*
X120070626Y-123402106D01*
X120084240Y-123381732D01*
X120093618Y-123359093D01*
X120099000Y-123322807D01*
X120099000Y-122129000D01*
X121401000Y-122129000D01*
X121401000Y-123322807D01*
X121401000Y-123322807D01*
G37*
G36*
X134651000Y-124771000D02*
X133349000Y-124771000D01*
X133349000Y-123669000D01*
X134651000Y-123669000D01*
X134651000Y-124771000D01*
X134651000Y-124771000D01*
G37*
G36*
X141751000Y-122651000D02*
X141536000Y-122651000D01*
X141511614Y-122653402D01*
X141488165Y-122660515D01*
X141466554Y-122672066D01*
X141447612Y-122687612D01*
X141432066Y-122706554D01*
X141420515Y-122728165D01*
X141413402Y-122751614D01*
X141411000Y-122776000D01*
X141411000Y-123871000D01*
X140089000Y-123871000D01*
X140089000Y-122859000D01*
X140524000Y-122859000D01*
X140548386Y-122856598D01*
X140571835Y-122849485D01*
X140593446Y-122837934D01*
X140612388Y-122822388D01*
X140627934Y-122803446D01*
X140639485Y-122781835D01*
X140646598Y-122758386D01*
X140649000Y-122734000D01*
X140649000Y-121349000D01*
X141751000Y-121349000D01*
X141751000Y-122651000D01*
X141751000Y-122651000D01*
G37*
G36*
X143401000Y-122422535D02*
X143403402Y-122446921D01*
X143410515Y-122470370D01*
X143422066Y-122491981D01*
X143437612Y-122510923D01*
X143456554Y-122526469D01*
X143478165Y-122538020D01*
X143501614Y-122545133D01*
X143526000Y-122547535D01*
X143550386Y-122545133D01*
X143573835Y-122538020D01*
X143595446Y-122526469D01*
X143614388Y-122510923D01*
X143622619Y-122501843D01*
X143680867Y-122430867D01*
X143680869Y-122430866D01*
X143680870Y-122430864D01*
X143802835Y-122330770D01*
X143941988Y-122256392D01*
X144092975Y-122210590D01*
X144210654Y-122199000D01*
X145289346Y-122199000D01*
X145407025Y-122210590D01*
X145558012Y-122256392D01*
X145697165Y-122330770D01*
X145819133Y-122430867D01*
X145919230Y-122552835D01*
X145993608Y-122691988D01*
X146039410Y-122842975D01*
X146054875Y-123000000D01*
X146039410Y-123157025D01*
X145993608Y-123308012D01*
X145919230Y-123447165D01*
X145819133Y-123569133D01*
X145697165Y-123669230D01*
X145558012Y-123743608D01*
X145407025Y-123789410D01*
X145289346Y-123801000D01*
X144210654Y-123801000D01*
X144092975Y-123789410D01*
X143941988Y-123743608D01*
X143802835Y-123669230D01*
X143680867Y-123569133D01*
X143580770Y-123447165D01*
X143514300Y-123322807D01*
X143511236Y-123317075D01*
X143497624Y-123296701D01*
X143480297Y-123279374D01*
X143459922Y-123265760D01*
X143437283Y-123256383D01*
X143413250Y-123251602D01*
X143400997Y-123251000D01*
X142099000Y-123251000D01*
X142099000Y-122149000D01*
X143401000Y-122149000D01*
X143401000Y-122422535D01*
X143401000Y-122422535D01*
G37*
G36*
X119351000Y-123301000D02*
X116649000Y-123301000D01*
X116649000Y-121499000D01*
X119351000Y-121499000D01*
X119351000Y-123301000D01*
X119351000Y-123301000D01*
G37*
G36*
X135351000Y-123301000D02*
X132649000Y-123301000D01*
X132649000Y-121499000D01*
X135351000Y-121499000D01*
X135351000Y-123301000D01*
X135351000Y-123301000D01*
G37*
G36*
X122871000Y-123151000D02*
X121769000Y-123151000D01*
X121769000Y-121849000D01*
X122871000Y-121849000D01*
X122871000Y-123151000D01*
X122871000Y-123151000D01*
G37*
G36*
X126101000Y-123151000D02*
X123649000Y-123151000D01*
X123649000Y-121849000D01*
X126101000Y-121849000D01*
X126101000Y-123151000D01*
X126101000Y-123151000D01*
G37*
G36*
X127981000Y-123151000D02*
X126879000Y-123151000D01*
X126879000Y-121849000D01*
X127981000Y-121849000D01*
X127981000Y-123151000D01*
X127981000Y-123151000D01*
G37*
G36*
X131151000Y-122831000D02*
X128349000Y-122831000D01*
X128349000Y-121729000D01*
X131151000Y-121729000D01*
X131151000Y-122831000D01*
X131151000Y-122831000D01*
G37*
G36*
X139871000Y-122651000D02*
X138769000Y-122651000D01*
X138769000Y-121349000D01*
X139871000Y-121349000D01*
X139871000Y-122651000D01*
X139871000Y-122651000D01*
G37*
G36*
X137161000Y-122371000D02*
X135839000Y-122371000D01*
X135839000Y-121359000D01*
X137161000Y-121359000D01*
X137161000Y-122371000D01*
X137161000Y-122371000D01*
G37*
G36*
X115501000Y-121901000D02*
X114399000Y-121901000D01*
X114399000Y-120599000D01*
X115501000Y-120599000D01*
X115501000Y-121901000D01*
X115501000Y-121901000D01*
G37*
G36*
X113621000Y-121901000D02*
X112519000Y-121901000D01*
X112519000Y-120599000D01*
X113621000Y-120599000D01*
X113621000Y-121901000D01*
X113621000Y-121901000D01*
G37*
G36*
X145407025Y-119710590D02*
X145558012Y-119756392D01*
X145697165Y-119830770D01*
X145819133Y-119930867D01*
X145919230Y-120052835D01*
X145993608Y-120191988D01*
X146039410Y-120342975D01*
X146054875Y-120500000D01*
X146039410Y-120657025D01*
X145993608Y-120808012D01*
X145919230Y-120947165D01*
X145819133Y-121069133D01*
X145697165Y-121169230D01*
X145558012Y-121243608D01*
X145407025Y-121289410D01*
X145289346Y-121301000D01*
X144210654Y-121301000D01*
X144092975Y-121289410D01*
X143941988Y-121243608D01*
X143802835Y-121169230D01*
X143680870Y-121069136D01*
X143680869Y-121069134D01*
X143680867Y-121069133D01*
X143622623Y-120998162D01*
X143605300Y-120980839D01*
X143584925Y-120967225D01*
X143562286Y-120957848D01*
X143538253Y-120953067D01*
X143513748Y-120953067D01*
X143489715Y-120957847D01*
X143467076Y-120967225D01*
X143446701Y-120980838D01*
X143429374Y-120998165D01*
X143415760Y-121018540D01*
X143406383Y-121041179D01*
X143401602Y-121065212D01*
X143401000Y-121077465D01*
X143401000Y-121371000D01*
X142099000Y-121371000D01*
X142099000Y-120269000D01*
X143390325Y-120269000D01*
X143414711Y-120266598D01*
X143438160Y-120259485D01*
X143459771Y-120247934D01*
X143478713Y-120232388D01*
X143494259Y-120213446D01*
X143499541Y-120202285D01*
X143500589Y-120202845D01*
X143580770Y-120052835D01*
X143680867Y-119930867D01*
X143802835Y-119830770D01*
X143941988Y-119756392D01*
X144092975Y-119710590D01*
X144210654Y-119699000D01*
X145289346Y-119699000D01*
X145407025Y-119710590D01*
X145407025Y-119710590D01*
G37*
G36*
X121401000Y-121351000D02*
X120099000Y-121351000D01*
X120099000Y-120249000D01*
X121401000Y-120249000D01*
X121401000Y-121351000D01*
X121401000Y-121351000D01*
G37*
G36*
X131151000Y-121271000D02*
X128349000Y-121271000D01*
X128349000Y-120169000D01*
X131151000Y-120169000D01*
X131151000Y-121271000D01*
X131151000Y-121271000D01*
G37*
G36*
X136401000Y-121001000D02*
X132099000Y-121001000D01*
X132099000Y-118499000D01*
X136401000Y-118499000D01*
X136401000Y-121001000D01*
X136401000Y-121001000D01*
G37*
G36*
X141596400Y-120851860D02*
X138903600Y-120851860D01*
X138903600Y-119749100D01*
X141596400Y-119749100D01*
X141596400Y-120851860D01*
X141596400Y-120851860D01*
G37*
G36*
X138651000Y-120501000D02*
X137349000Y-120501000D01*
X137349000Y-119399000D01*
X138651000Y-119399000D01*
X138651000Y-120501000D01*
X138651000Y-120501000D01*
G37*
G36*
X116801000Y-120151000D02*
X113199000Y-120151000D01*
X113199000Y-117549000D01*
X116801000Y-117549000D01*
X116801000Y-120151000D01*
X116801000Y-120151000D01*
G37*
G36*
X147401000Y-119581000D02*
X146099000Y-119581000D01*
X146099000Y-118479000D01*
X147401000Y-118479000D01*
X147401000Y-119581000D01*
X147401000Y-119581000D01*
G37*
G36*
X97351000Y-115703364D02*
X97350614Y-115703402D01*
X97327165Y-115710515D01*
X97305554Y-115722066D01*
X97286612Y-115737612D01*
X97271066Y-115756554D01*
X97259515Y-115778165D01*
X97252402Y-115801614D01*
X97250000Y-115826000D01*
X97250000Y-119250000D01*
X94750000Y-119250000D01*
X94750000Y-119176000D01*
X94747598Y-119151614D01*
X94740485Y-119128165D01*
X94728934Y-119106554D01*
X94713388Y-119087612D01*
X94694446Y-119072066D01*
X94672835Y-119060515D01*
X94649386Y-119053402D01*
X94625000Y-119051000D01*
X82699000Y-119051000D01*
X82699000Y-115924196D01*
X82713388Y-115912388D01*
X82728934Y-115893446D01*
X82740485Y-115871835D01*
X82747598Y-115848386D01*
X82750000Y-115824000D01*
X82750000Y-115250000D01*
X94624000Y-115250000D01*
X94648386Y-115247598D01*
X94671835Y-115240485D01*
X94693446Y-115228934D01*
X94712388Y-115213388D01*
X94727934Y-115194446D01*
X94739485Y-115172835D01*
X94746598Y-115149386D01*
X94749000Y-115125000D01*
X94749000Y-113799000D01*
X97351000Y-113799000D01*
X97351000Y-115703364D01*
X97351000Y-115703364D01*
G37*
G36*
X71851000Y-115703364D02*
X71850614Y-115703402D01*
X71827165Y-115710515D01*
X71805554Y-115722066D01*
X71786612Y-115737612D01*
X71771066Y-115756554D01*
X71759515Y-115778165D01*
X71752402Y-115801614D01*
X71750000Y-115826000D01*
X71750000Y-119250000D01*
X68750000Y-119250000D01*
X68750000Y-119176000D01*
X68747598Y-119151614D01*
X68740485Y-119128165D01*
X68728934Y-119106554D01*
X68713388Y-119087612D01*
X68694446Y-119072066D01*
X68672835Y-119060515D01*
X68649386Y-119053402D01*
X68625000Y-119051000D01*
X55949000Y-119051000D01*
X55949000Y-115924196D01*
X55963388Y-115912388D01*
X55978934Y-115893446D01*
X55990485Y-115871835D01*
X55997598Y-115848386D01*
X56000000Y-115824000D01*
X56000000Y-115250000D01*
X69124000Y-115250000D01*
X69148386Y-115247598D01*
X69171835Y-115240485D01*
X69193446Y-115228934D01*
X69212388Y-115213388D01*
X69227934Y-115194446D01*
X69239485Y-115172835D01*
X69246598Y-115149386D01*
X69249000Y-115125000D01*
X69249000Y-113799000D01*
X71851000Y-113799000D01*
X71851000Y-115703364D01*
X71851000Y-115703364D01*
G37*
G36*
X138651000Y-118621000D02*
X137349000Y-118621000D01*
X137349000Y-117519000D01*
X138651000Y-117519000D01*
X138651000Y-118621000D01*
X138651000Y-118621000D01*
G37*
G36*
X141596400Y-118250900D02*
X138903600Y-118250900D01*
X138903600Y-117148140D01*
X141596400Y-117148140D01*
X141596400Y-118250900D01*
X141596400Y-118250900D01*
G37*
G36*
X146817000Y-116794000D02*
X146819402Y-116818386D01*
X146826515Y-116841835D01*
X146838066Y-116863446D01*
X146853612Y-116882388D01*
X146872554Y-116897934D01*
X146894165Y-116909485D01*
X146917614Y-116916598D01*
X146942000Y-116919000D01*
X147401000Y-116919000D01*
X147401000Y-118021000D01*
X146099000Y-118021000D01*
X146099000Y-116942000D01*
X146096598Y-116917614D01*
X146089485Y-116894165D01*
X146077934Y-116872554D01*
X146062388Y-116853612D01*
X146043446Y-116838066D01*
X146021835Y-116826515D01*
X145998386Y-116819402D01*
X145974000Y-116817000D01*
X144683000Y-116817000D01*
X144683000Y-114683000D01*
X146817000Y-114683000D01*
X146817000Y-116794000D01*
X146817000Y-116794000D01*
G37*
G36*
X73801000Y-117601000D02*
X72699000Y-117601000D01*
X72699000Y-115499000D01*
X73801000Y-115499000D01*
X73801000Y-117601000D01*
X73801000Y-117601000D01*
G37*
G36*
X99301000Y-117601000D02*
X98199000Y-117601000D01*
X98199000Y-115499000D01*
X99301000Y-115499000D01*
X99301000Y-117601000D01*
X99301000Y-117601000D01*
G37*
G36*
X127151000Y-117081000D02*
X125849000Y-117081000D01*
X125849000Y-115979000D01*
X127151000Y-115979000D01*
X127151000Y-117081000D01*
X127151000Y-117081000D01*
G37*
G36*
X122581000Y-116901000D02*
X121479000Y-116901000D01*
X121479000Y-115599000D01*
X122581000Y-115599000D01*
X122581000Y-116901000D01*
X122581000Y-116901000D01*
G37*
G36*
X121021000Y-116901000D02*
X119919000Y-116901000D01*
X119919000Y-115599000D01*
X121021000Y-115599000D01*
X121021000Y-116901000D01*
X121021000Y-116901000D01*
G37*
G36*
X143325114Y-114689176D02*
X143419168Y-114698439D01*
X143620299Y-114759451D01*
X143652899Y-114776876D01*
X143805662Y-114858529D01*
X143968133Y-114991867D01*
X144101471Y-115154338D01*
X144179863Y-115301000D01*
X144200549Y-115339701D01*
X144261561Y-115540832D01*
X144282162Y-115750000D01*
X144261561Y-115959168D01*
X144200549Y-116160299D01*
X144200546Y-116160304D01*
X144101471Y-116345662D01*
X143968133Y-116508133D01*
X143805662Y-116641471D01*
X143652899Y-116723124D01*
X143620299Y-116740549D01*
X143419168Y-116801561D01*
X143325114Y-116810824D01*
X143262413Y-116817000D01*
X143157587Y-116817000D01*
X143094886Y-116810824D01*
X143000832Y-116801561D01*
X142799701Y-116740549D01*
X142767101Y-116723124D01*
X142614338Y-116641471D01*
X142451867Y-116508133D01*
X142318529Y-116345662D01*
X142219454Y-116160304D01*
X142219451Y-116160299D01*
X142158439Y-115959168D01*
X142137838Y-115750000D01*
X142158439Y-115540832D01*
X142219451Y-115339701D01*
X142240137Y-115301000D01*
X142318529Y-115154338D01*
X142451867Y-114991867D01*
X142614338Y-114858529D01*
X142767101Y-114776876D01*
X142799701Y-114759451D01*
X143000832Y-114698439D01*
X143094886Y-114689176D01*
X143157587Y-114683000D01*
X143262413Y-114683000D01*
X143325114Y-114689176D01*
X143325114Y-114689176D01*
G37*
G36*
X136401000Y-116501000D02*
X132099000Y-116501000D01*
X132099000Y-113999000D01*
X136401000Y-113999000D01*
X136401000Y-116501000D01*
X136401000Y-116501000D01*
G37*
G36*
X130801000Y-115901000D02*
X129699000Y-115901000D01*
X129699000Y-114599000D01*
X130801000Y-114599000D01*
X130801000Y-115901000D01*
X130801000Y-115901000D01*
G37*
G36*
X128921000Y-115901000D02*
X127819000Y-115901000D01*
X127819000Y-114599000D01*
X128921000Y-114599000D01*
X128921000Y-115901000D01*
X128921000Y-115901000D01*
G37*
G36*
X127151000Y-115521000D02*
X125849000Y-115521000D01*
X125849000Y-114419000D01*
X127151000Y-114419000D01*
X127151000Y-115521000D01*
X127151000Y-115521000D01*
G37*
G36*
X141901000Y-115331000D02*
X140599000Y-115331000D01*
X140599000Y-114229000D01*
X141901000Y-114229000D01*
X141901000Y-115331000D01*
X141901000Y-115331000D01*
G37*
G36*
X138651000Y-115331000D02*
X137349000Y-115331000D01*
X137349000Y-114229000D01*
X138651000Y-114229000D01*
X138651000Y-115331000D01*
X138651000Y-115331000D01*
G37*
G36*
X77351000Y-115301000D02*
X74749000Y-115301000D01*
X74749000Y-114199000D01*
X77351000Y-114199000D01*
X77351000Y-115301000D01*
X77351000Y-115301000D01*
G37*
G36*
X102851000Y-115301000D02*
X100249000Y-115301000D01*
X100249000Y-114199000D01*
X102851000Y-114199000D01*
X102851000Y-115301000D01*
X102851000Y-115301000D01*
G37*
G36*
X119901000Y-115231000D02*
X118599000Y-115231000D01*
X118599000Y-114129000D01*
X119901000Y-114129000D01*
X119901000Y-115231000D01*
X119901000Y-115231000D01*
G37*
G36*
X117951000Y-113901000D02*
X116649000Y-113901000D01*
X116649000Y-111799000D01*
X117951000Y-111799000D01*
X117951000Y-113901000D01*
X117951000Y-113901000D01*
G37*
G36*
X113351000Y-113901000D02*
X112049000Y-113901000D01*
X112049000Y-111799000D01*
X113351000Y-111799000D01*
X113351000Y-113901000D01*
X113351000Y-113901000D01*
G37*
G36*
X115651000Y-113901000D02*
X114349000Y-113901000D01*
X114349000Y-111799000D01*
X115651000Y-111799000D01*
X115651000Y-113901000D01*
X115651000Y-113901000D01*
G37*
G36*
X102851000Y-113801000D02*
X100249000Y-113801000D01*
X100249000Y-112699000D01*
X102851000Y-112699000D01*
X102851000Y-113801000D01*
X102851000Y-113801000D01*
G37*
G36*
X77351000Y-113801000D02*
X74749000Y-113801000D01*
X74749000Y-112699000D01*
X77351000Y-112699000D01*
X77351000Y-113801000D01*
X77351000Y-113801000D01*
G37*
G36*
X138651000Y-113771000D02*
X137349000Y-113771000D01*
X137349000Y-112669000D01*
X138651000Y-112669000D01*
X138651000Y-113771000D01*
X138651000Y-113771000D01*
G37*
G36*
X141901000Y-113771000D02*
X140599000Y-113771000D01*
X140599000Y-112669000D01*
X141901000Y-112669000D01*
X141901000Y-113771000D01*
X141901000Y-113771000D01*
G37*
G36*
X128121000Y-113751000D02*
X127419000Y-113751000D01*
X127419000Y-112149000D01*
X128121000Y-112149000D01*
X128121000Y-113751000D01*
X128121000Y-113751000D01*
G37*
G36*
X124311000Y-113751000D02*
X123609000Y-113751000D01*
X123609000Y-112149000D01*
X124311000Y-112149000D01*
X124311000Y-113751000D01*
X124311000Y-113751000D01*
G37*
G36*
X125581000Y-113751000D02*
X124879000Y-113751000D01*
X124879000Y-112149000D01*
X125581000Y-112149000D01*
X125581000Y-113751000D01*
X125581000Y-113751000D01*
G37*
G36*
X123041000Y-113751000D02*
X122339000Y-113751000D01*
X122339000Y-112149000D01*
X123041000Y-112149000D01*
X123041000Y-113751000D01*
X123041000Y-113751000D01*
G37*
G36*
X126851000Y-113751000D02*
X126149000Y-113751000D01*
X126149000Y-112149000D01*
X126851000Y-112149000D01*
X126851000Y-113751000D01*
X126851000Y-113751000D01*
G37*
G36*
X130661000Y-113751000D02*
X129959000Y-113751000D01*
X129959000Y-112149000D01*
X130661000Y-112149000D01*
X130661000Y-113751000D01*
X130661000Y-113751000D01*
G37*
G36*
X129391000Y-113751000D02*
X128689000Y-113751000D01*
X128689000Y-112149000D01*
X129391000Y-112149000D01*
X129391000Y-113751000D01*
X129391000Y-113751000D01*
G37*
G36*
X52905114Y-111439176D02*
X52999168Y-111448439D01*
X53200299Y-111509451D01*
X53232899Y-111526876D01*
X53385662Y-111608529D01*
X53548133Y-111741867D01*
X53681471Y-111904338D01*
X53763124Y-112057101D01*
X53780549Y-112089701D01*
X53841561Y-112290832D01*
X53862162Y-112500000D01*
X53841561Y-112709168D01*
X53780549Y-112910299D01*
X53780546Y-112910304D01*
X53681471Y-113095662D01*
X53548133Y-113258133D01*
X53385662Y-113391471D01*
X53232899Y-113473124D01*
X53200299Y-113490549D01*
X52999168Y-113551561D01*
X52905114Y-113560824D01*
X52842413Y-113567000D01*
X52737587Y-113567000D01*
X52674886Y-113560824D01*
X52580832Y-113551561D01*
X52379701Y-113490549D01*
X52347101Y-113473124D01*
X52194338Y-113391471D01*
X52031867Y-113258133D01*
X51898529Y-113095662D01*
X51799454Y-112910304D01*
X51799451Y-112910299D01*
X51738439Y-112709168D01*
X51717838Y-112500000D01*
X51738439Y-112290832D01*
X51799451Y-112089701D01*
X51816876Y-112057101D01*
X51898529Y-111904338D01*
X52031867Y-111741867D01*
X52194338Y-111608529D01*
X52347101Y-111526876D01*
X52379701Y-111509451D01*
X52580832Y-111448439D01*
X52674886Y-111439176D01*
X52737587Y-111433000D01*
X52842413Y-111433000D01*
X52905114Y-111439176D01*
X52905114Y-111439176D01*
G37*
G36*
X119901000Y-113351000D02*
X118599000Y-113351000D01*
X118599000Y-112249000D01*
X119901000Y-112249000D01*
X119901000Y-113351000D01*
X119901000Y-113351000D01*
G37*
G36*
X82962865Y-106325855D02*
X83563609Y-106574691D01*
X84104268Y-106935948D01*
X84564052Y-107395732D01*
X84925309Y-107936391D01*
X85174145Y-108537135D01*
X85301000Y-109174878D01*
X85301000Y-109825122D01*
X85174145Y-110462865D01*
X84925309Y-111063609D01*
X84763647Y-111305554D01*
X84752096Y-111327165D01*
X84744983Y-111350614D01*
X84742581Y-111375000D01*
X84744983Y-111399386D01*
X84752096Y-111422836D01*
X84763647Y-111444446D01*
X84779193Y-111463388D01*
X84798135Y-111478934D01*
X84819746Y-111490485D01*
X84843195Y-111497598D01*
X84867581Y-111500000D01*
X87382419Y-111500000D01*
X87406805Y-111497598D01*
X87430254Y-111490485D01*
X87451865Y-111478934D01*
X87470807Y-111463388D01*
X87486353Y-111444446D01*
X87497904Y-111422835D01*
X87505017Y-111399386D01*
X87507419Y-111375000D01*
X87505017Y-111350614D01*
X87497904Y-111327165D01*
X87486353Y-111305554D01*
X87324691Y-111063609D01*
X87075855Y-110462865D01*
X86949000Y-109825122D01*
X86949000Y-109174878D01*
X87075855Y-108537135D01*
X87324691Y-107936391D01*
X87685948Y-107395732D01*
X88145732Y-106935948D01*
X88686391Y-106574691D01*
X89287135Y-106325855D01*
X89924878Y-106199000D01*
X90575122Y-106199000D01*
X91212865Y-106325855D01*
X91813609Y-106574691D01*
X92354268Y-106935948D01*
X92814052Y-107395732D01*
X93175309Y-107936391D01*
X93424145Y-108537135D01*
X93551000Y-109174878D01*
X93551000Y-109825122D01*
X93424145Y-110462865D01*
X93175309Y-111063609D01*
X93013647Y-111305554D01*
X93002096Y-111327165D01*
X92994983Y-111350614D01*
X92992581Y-111375000D01*
X92994983Y-111399386D01*
X93002096Y-111422836D01*
X93013647Y-111444446D01*
X93029193Y-111463388D01*
X93048135Y-111478934D01*
X93069746Y-111490485D01*
X93093195Y-111497598D01*
X93117581Y-111500000D01*
X94624000Y-111500000D01*
X94648386Y-111497598D01*
X94671835Y-111490485D01*
X94693446Y-111478934D01*
X94712388Y-111463388D01*
X94727934Y-111444446D01*
X94739485Y-111422835D01*
X94746598Y-111399386D01*
X94749000Y-111375000D01*
X94749000Y-110799000D01*
X97351000Y-110799000D01*
X97351000Y-112701000D01*
X97346666Y-112701000D01*
X97322280Y-112703402D01*
X97298831Y-112710515D01*
X97277220Y-112722066D01*
X97258278Y-112737612D01*
X97251067Y-112746398D01*
X97250000Y-112747111D01*
X97250000Y-112750000D01*
X90843827Y-112750000D01*
X90819441Y-112752402D01*
X90575122Y-112801000D01*
X89924878Y-112801000D01*
X89680559Y-112752402D01*
X89656173Y-112750000D01*
X82593827Y-112750000D01*
X82569441Y-112752402D01*
X82325122Y-112801000D01*
X81674878Y-112801000D01*
X81430559Y-112752402D01*
X81406173Y-112750000D01*
X78750000Y-112750000D01*
X78750000Y-111500000D01*
X79132419Y-111500000D01*
X79156805Y-111497598D01*
X79180254Y-111490485D01*
X79201865Y-111478934D01*
X79220807Y-111463388D01*
X79236353Y-111444446D01*
X79247904Y-111422835D01*
X79255017Y-111399386D01*
X79257419Y-111375000D01*
X79255017Y-111350614D01*
X79247904Y-111327165D01*
X79236353Y-111305554D01*
X79074691Y-111063609D01*
X78825855Y-110462865D01*
X78699000Y-109825122D01*
X78699000Y-109174878D01*
X78825855Y-108537135D01*
X79074691Y-107936391D01*
X79435948Y-107395732D01*
X79895732Y-106935948D01*
X80436391Y-106574691D01*
X81037135Y-106325855D01*
X81674878Y-106199000D01*
X82325122Y-106199000D01*
X82962865Y-106325855D01*
X82962865Y-106325855D01*
G37*
G36*
X59712865Y-106325855D02*
X60313609Y-106574691D01*
X60854268Y-106935948D01*
X61314052Y-107395732D01*
X61675309Y-107936391D01*
X61924145Y-108537135D01*
X62051000Y-109174878D01*
X62051000Y-109825122D01*
X61924145Y-110462865D01*
X61675309Y-111063609D01*
X61513647Y-111305554D01*
X61502096Y-111327165D01*
X61494983Y-111350614D01*
X61492581Y-111375000D01*
X61494983Y-111399386D01*
X61502096Y-111422836D01*
X61513647Y-111444446D01*
X61529193Y-111463388D01*
X61548135Y-111478934D01*
X61569746Y-111490485D01*
X61593195Y-111497598D01*
X61617581Y-111500000D01*
X64132419Y-111500000D01*
X64156805Y-111497598D01*
X64180254Y-111490485D01*
X64201865Y-111478934D01*
X64220807Y-111463388D01*
X64236353Y-111444446D01*
X64247904Y-111422835D01*
X64255017Y-111399386D01*
X64257419Y-111375000D01*
X64255017Y-111350614D01*
X64247904Y-111327165D01*
X64236353Y-111305554D01*
X64074691Y-111063609D01*
X63825855Y-110462865D01*
X63699000Y-109825122D01*
X63699000Y-109174878D01*
X63825855Y-108537135D01*
X64074691Y-107936391D01*
X64435948Y-107395732D01*
X64895732Y-106935948D01*
X65436391Y-106574691D01*
X66037135Y-106325855D01*
X66674878Y-106199000D01*
X67325122Y-106199000D01*
X67962865Y-106325855D01*
X68563609Y-106574691D01*
X69104268Y-106935948D01*
X69564052Y-107395732D01*
X69925309Y-107936391D01*
X70174145Y-108537135D01*
X70301000Y-109174878D01*
X70301000Y-109825122D01*
X70174145Y-110462865D01*
X70106504Y-110626165D01*
X70099391Y-110649614D01*
X70096989Y-110674000D01*
X70099391Y-110698386D01*
X70106504Y-110721835D01*
X70118055Y-110743446D01*
X70133601Y-110762388D01*
X70152543Y-110777934D01*
X70174154Y-110789485D01*
X70197603Y-110796598D01*
X70221989Y-110799000D01*
X71851000Y-110799000D01*
X71851000Y-112701000D01*
X71846666Y-112701000D01*
X71822280Y-112703402D01*
X71798831Y-112710515D01*
X71777220Y-112722066D01*
X71758278Y-112737612D01*
X71751067Y-112746398D01*
X71750000Y-112747111D01*
X71750000Y-112750000D01*
X67593827Y-112750000D01*
X67569441Y-112752402D01*
X67325122Y-112801000D01*
X66674878Y-112801000D01*
X66430559Y-112752402D01*
X66406173Y-112750000D01*
X59343827Y-112750000D01*
X59319441Y-112752402D01*
X59075122Y-112801000D01*
X58424878Y-112801000D01*
X58180559Y-112752402D01*
X58156173Y-112750000D01*
X55250000Y-112750000D01*
X55250000Y-111500000D01*
X55882419Y-111500000D01*
X55906805Y-111497598D01*
X55930254Y-111490485D01*
X55951865Y-111478934D01*
X55970807Y-111463388D01*
X55986353Y-111444446D01*
X55997904Y-111422835D01*
X56005017Y-111399386D01*
X56007419Y-111375000D01*
X56005017Y-111350614D01*
X55997904Y-111327165D01*
X55986353Y-111305554D01*
X55824691Y-111063609D01*
X55575855Y-110462865D01*
X55449000Y-109825122D01*
X55449000Y-109174878D01*
X55575855Y-108537135D01*
X55824691Y-107936391D01*
X56185948Y-107395732D01*
X56645732Y-106935948D01*
X57186391Y-106574691D01*
X57787135Y-106325855D01*
X58424878Y-106199000D01*
X59075122Y-106199000D01*
X59712865Y-106325855D01*
X59712865Y-106325855D01*
G37*
G36*
X77351000Y-112301000D02*
X74749000Y-112301000D01*
X74749000Y-111199000D01*
X77351000Y-111199000D01*
X77351000Y-112301000D01*
X77351000Y-112301000D01*
G37*
G36*
X102851000Y-112301000D02*
X100249000Y-112301000D01*
X100249000Y-111199000D01*
X102851000Y-111199000D01*
X102851000Y-112301000D01*
X102851000Y-112301000D01*
G37*
G36*
X121151000Y-111581000D02*
X119849000Y-111581000D01*
X119849000Y-110479000D01*
X121151000Y-110479000D01*
X121151000Y-111581000D01*
X121151000Y-111581000D01*
G37*
G36*
X141891000Y-111411000D02*
X140879000Y-111411000D01*
X140879000Y-110089000D01*
X141891000Y-110089000D01*
X141891000Y-111411000D01*
X141891000Y-111411000D01*
G37*
G36*
X138621000Y-111411000D02*
X137609000Y-111411000D01*
X137609000Y-110089000D01*
X138621000Y-110089000D01*
X138621000Y-111411000D01*
X138621000Y-111411000D01*
G37*
G36*
X117481000Y-111401000D02*
X116379000Y-111401000D01*
X116379000Y-110099000D01*
X117481000Y-110099000D01*
X117481000Y-111401000D01*
X117481000Y-111401000D01*
G37*
G36*
X115601000Y-111401000D02*
X114499000Y-111401000D01*
X114499000Y-110099000D01*
X115601000Y-110099000D01*
X115601000Y-111401000D01*
X115601000Y-111401000D01*
G37*
G36*
X73801000Y-111001000D02*
X72699000Y-111001000D01*
X72699000Y-108899000D01*
X73801000Y-108899000D01*
X73801000Y-111001000D01*
X73801000Y-111001000D01*
G37*
G36*
X99301000Y-111001000D02*
X98199000Y-111001000D01*
X98199000Y-108899000D01*
X99301000Y-108899000D01*
X99301000Y-111001000D01*
X99301000Y-111001000D01*
G37*
G36*
X121151000Y-110021000D02*
X119849000Y-110021000D01*
X119849000Y-108919000D01*
X121151000Y-108919000D01*
X121151000Y-110021000D01*
X121151000Y-110021000D01*
G37*
G36*
X132651000Y-109831000D02*
X131349000Y-109831000D01*
X131349000Y-108729000D01*
X132651000Y-108729000D01*
X132651000Y-109831000D01*
X132651000Y-109831000D01*
G37*
G36*
X134401000Y-109831000D02*
X133099000Y-109831000D01*
X133099000Y-108729000D01*
X134401000Y-108729000D01*
X134401000Y-109831000D01*
X134401000Y-109831000D01*
G37*
G36*
X136151000Y-109831000D02*
X134849000Y-109831000D01*
X134849000Y-108729000D01*
X136151000Y-108729000D01*
X136151000Y-109831000D01*
X136151000Y-109831000D01*
G37*
G36*
X142651000Y-109251000D02*
X141349000Y-109251000D01*
X141349000Y-108149000D01*
X142651000Y-108149000D01*
X142651000Y-109251000D01*
X142651000Y-109251000D01*
G37*
G36*
X139911000Y-108641000D02*
X138589000Y-108641000D01*
X138589000Y-107629000D01*
X139911000Y-107629000D01*
X139911000Y-108641000D01*
X139911000Y-108641000D01*
G37*
G36*
X119001050Y-108451810D02*
X118098950Y-108451810D01*
X118098950Y-107549710D01*
X119001050Y-107549710D01*
X119001050Y-108451810D01*
X119001050Y-108451810D01*
G37*
G36*
X120901050Y-108451810D02*
X119998950Y-108451810D01*
X119998950Y-107549710D01*
X120901050Y-107549710D01*
X120901050Y-108451810D01*
X120901050Y-108451810D01*
G37*
G36*
X129391000Y-108351000D02*
X128689000Y-108351000D01*
X128689000Y-106749000D01*
X129391000Y-106749000D01*
X129391000Y-108351000D01*
X129391000Y-108351000D01*
G37*
G36*
X123041000Y-108351000D02*
X122339000Y-108351000D01*
X122339000Y-106749000D01*
X123041000Y-106749000D01*
X123041000Y-108351000D01*
X123041000Y-108351000D01*
G37*
G36*
X125581000Y-108351000D02*
X124879000Y-108351000D01*
X124879000Y-106749000D01*
X125581000Y-106749000D01*
X125581000Y-108351000D01*
X125581000Y-108351000D01*
G37*
G36*
X126851000Y-108351000D02*
X126149000Y-108351000D01*
X126149000Y-106749000D01*
X126851000Y-106749000D01*
X126851000Y-108351000D01*
X126851000Y-108351000D01*
G37*
G36*
X124311000Y-108351000D02*
X123609000Y-108351000D01*
X123609000Y-106749000D01*
X124311000Y-106749000D01*
X124311000Y-108351000D01*
X124311000Y-108351000D01*
G37*
G36*
X128121000Y-108351000D02*
X127419000Y-108351000D01*
X127419000Y-106749000D01*
X128121000Y-106749000D01*
X128121000Y-108351000D01*
X128121000Y-108351000D01*
G37*
G36*
X130661000Y-108351000D02*
X129959000Y-108351000D01*
X129959000Y-106749000D01*
X130661000Y-106749000D01*
X130661000Y-108351000D01*
X130661000Y-108351000D01*
G37*
G36*
X134401000Y-108271000D02*
X133099000Y-108271000D01*
X133099000Y-107169000D01*
X134401000Y-107169000D01*
X134401000Y-108271000D01*
X134401000Y-108271000D01*
G37*
G36*
X132651000Y-108271000D02*
X131349000Y-108271000D01*
X131349000Y-107169000D01*
X132651000Y-107169000D01*
X132651000Y-108271000D01*
X132651000Y-108271000D01*
G37*
G36*
X136151000Y-108271000D02*
X134849000Y-108271000D01*
X134849000Y-107169000D01*
X136151000Y-107169000D01*
X136151000Y-108271000D01*
X136151000Y-108271000D01*
G37*
G36*
X142651000Y-107371000D02*
X141349000Y-107371000D01*
X141349000Y-106269000D01*
X142651000Y-106269000D01*
X142651000Y-107371000D01*
X142651000Y-107371000D01*
G37*
G36*
X119951050Y-106452830D02*
X119048950Y-106452830D01*
X119048950Y-105550730D01*
X119951050Y-105550730D01*
X119951050Y-106452830D01*
X119951050Y-106452830D01*
G37*
G36*
X139911000Y-105371000D02*
X138589000Y-105371000D01*
X138589000Y-104359000D01*
X139911000Y-104359000D01*
X139911000Y-105371000D01*
X139911000Y-105371000D01*
G37*
G36*
X129397142Y-103298242D02*
X129545102Y-103359530D01*
X129678258Y-103448502D01*
X129791498Y-103561742D01*
X129880470Y-103694898D01*
X129941758Y-103842858D01*
X129973000Y-103999925D01*
X129973000Y-104160075D01*
X129941758Y-104317142D01*
X129880470Y-104465102D01*
X129791498Y-104598258D01*
X129678258Y-104711498D01*
X129545102Y-104800470D01*
X129397142Y-104861758D01*
X129240075Y-104893000D01*
X129079925Y-104893000D01*
X128922858Y-104861758D01*
X128774898Y-104800470D01*
X128641742Y-104711498D01*
X128528502Y-104598258D01*
X128439530Y-104465102D01*
X128378242Y-104317142D01*
X128347000Y-104160075D01*
X128347000Y-103999925D01*
X128378242Y-103842858D01*
X128439530Y-103694898D01*
X128528502Y-103561742D01*
X128641742Y-103448502D01*
X128774898Y-103359530D01*
X128922858Y-103298242D01*
X129079925Y-103267000D01*
X129240075Y-103267000D01*
X129397142Y-103298242D01*
X129397142Y-103298242D01*
G37*
G36*
X121777142Y-103298242D02*
X121925102Y-103359530D01*
X122058258Y-103448502D01*
X122171498Y-103561742D01*
X122260470Y-103694898D01*
X122321758Y-103842858D01*
X122353000Y-103999925D01*
X122353000Y-104160075D01*
X122321758Y-104317142D01*
X122260470Y-104465102D01*
X122171498Y-104598258D01*
X122058258Y-104711498D01*
X121925102Y-104800470D01*
X121777142Y-104861758D01*
X121620075Y-104893000D01*
X121459925Y-104893000D01*
X121302858Y-104861758D01*
X121154898Y-104800470D01*
X121021742Y-104711498D01*
X120908502Y-104598258D01*
X120819530Y-104465102D01*
X120758242Y-104317142D01*
X120727000Y-104160075D01*
X120727000Y-103999925D01*
X120758242Y-103842858D01*
X120819530Y-103694898D01*
X120908502Y-103561742D01*
X121021742Y-103448502D01*
X121154898Y-103359530D01*
X121302858Y-103298242D01*
X121459925Y-103267000D01*
X121620075Y-103267000D01*
X121777142Y-103298242D01*
X121777142Y-103298242D01*
G37*
G36*
X119237142Y-103298242D02*
X119385102Y-103359530D01*
X119518258Y-103448502D01*
X119631498Y-103561742D01*
X119720470Y-103694898D01*
X119781758Y-103842858D01*
X119813000Y-103999925D01*
X119813000Y-104160075D01*
X119781758Y-104317142D01*
X119720470Y-104465102D01*
X119631498Y-104598258D01*
X119518258Y-104711498D01*
X119385102Y-104800470D01*
X119237142Y-104861758D01*
X119080075Y-104893000D01*
X118919925Y-104893000D01*
X118762858Y-104861758D01*
X118614898Y-104800470D01*
X118481742Y-104711498D01*
X118368502Y-104598258D01*
X118279530Y-104465102D01*
X118218242Y-104317142D01*
X118187000Y-104160075D01*
X118187000Y-103999925D01*
X118218242Y-103842858D01*
X118279530Y-103694898D01*
X118368502Y-103561742D01*
X118481742Y-103448502D01*
X118614898Y-103359530D01*
X118762858Y-103298242D01*
X118919925Y-103267000D01*
X119080075Y-103267000D01*
X119237142Y-103298242D01*
X119237142Y-103298242D01*
G37*
G36*
X124161000Y-103641000D02*
X122839000Y-103641000D01*
X122839000Y-102629000D01*
X124161000Y-102629000D01*
X124161000Y-103641000D01*
X124161000Y-103641000D01*
G37*
G36*
X108157025Y-99710590D02*
X108308012Y-99756392D01*
X108447165Y-99830770D01*
X108569133Y-99930867D01*
X108669230Y-100052835D01*
X108743608Y-100191988D01*
X108789410Y-100342975D01*
X108801000Y-100460654D01*
X108801000Y-101539346D01*
X108789410Y-101657025D01*
X108743608Y-101808012D01*
X108669230Y-101947165D01*
X108569136Y-102069130D01*
X108569134Y-102069131D01*
X108569133Y-102069133D01*
X108569129Y-102069136D01*
X108447161Y-102169232D01*
X108308011Y-102243608D01*
X108157024Y-102289410D01*
X108000000Y-102304875D01*
X107842975Y-102289410D01*
X107691988Y-102243608D01*
X107552835Y-102169230D01*
X107430870Y-102069136D01*
X107430869Y-102069134D01*
X107430867Y-102069133D01*
X107360222Y-101983051D01*
X107330768Y-101947161D01*
X107256392Y-101808011D01*
X107210590Y-101657024D01*
X107199000Y-101539345D01*
X107199001Y-100460654D01*
X107210591Y-100342975D01*
X107256393Y-100191988D01*
X107330771Y-100052835D01*
X107430868Y-99930867D01*
X107552836Y-99830770D01*
X107691989Y-99756392D01*
X107842976Y-99710590D01*
X108000000Y-99695125D01*
X108157025Y-99710590D01*
X108157025Y-99710590D01*
G37*
G36*
X105657025Y-99710590D02*
X105808012Y-99756392D01*
X105947165Y-99830770D01*
X106069133Y-99930867D01*
X106169230Y-100052835D01*
X106243608Y-100191988D01*
X106289410Y-100342975D01*
X106301000Y-100460654D01*
X106301000Y-101539346D01*
X106289410Y-101657025D01*
X106243608Y-101808012D01*
X106169230Y-101947165D01*
X106069136Y-102069130D01*
X106069134Y-102069131D01*
X106069133Y-102069133D01*
X106069129Y-102069136D01*
X105947161Y-102169232D01*
X105808011Y-102243608D01*
X105657024Y-102289410D01*
X105500000Y-102304875D01*
X105342975Y-102289410D01*
X105191988Y-102243608D01*
X105052835Y-102169230D01*
X104930870Y-102069136D01*
X104930869Y-102069134D01*
X104930867Y-102069133D01*
X104860222Y-101983051D01*
X104830768Y-101947161D01*
X104756392Y-101808011D01*
X104710590Y-101657024D01*
X104699000Y-101539345D01*
X104699001Y-100460654D01*
X104710591Y-100342975D01*
X104756393Y-100191988D01*
X104830771Y-100052835D01*
X104930868Y-99930867D01*
X105052836Y-99830770D01*
X105191989Y-99756392D01*
X105342976Y-99710590D01*
X105500000Y-99695125D01*
X105657025Y-99710590D01*
X105657025Y-99710590D01*
G37*
G36*
X113157025Y-99710590D02*
X113308012Y-99756392D01*
X113447165Y-99830770D01*
X113569133Y-99930867D01*
X113669230Y-100052835D01*
X113743608Y-100191988D01*
X113789410Y-100342975D01*
X113801000Y-100460654D01*
X113801000Y-101539346D01*
X113789410Y-101657025D01*
X113743608Y-101808012D01*
X113669230Y-101947165D01*
X113569136Y-102069130D01*
X113569134Y-102069131D01*
X113569133Y-102069133D01*
X113569129Y-102069136D01*
X113447161Y-102169232D01*
X113308011Y-102243608D01*
X113157024Y-102289410D01*
X113000000Y-102304875D01*
X112842975Y-102289410D01*
X112691988Y-102243608D01*
X112552835Y-102169230D01*
X112430870Y-102069136D01*
X112430869Y-102069134D01*
X112430867Y-102069133D01*
X112360222Y-101983051D01*
X112330768Y-101947161D01*
X112256392Y-101808011D01*
X112210590Y-101657024D01*
X112199000Y-101539345D01*
X112199001Y-100460654D01*
X112210591Y-100342975D01*
X112256393Y-100191988D01*
X112330771Y-100052835D01*
X112430868Y-99930867D01*
X112552836Y-99830770D01*
X112691989Y-99756392D01*
X112842976Y-99710590D01*
X113000000Y-99695125D01*
X113157025Y-99710590D01*
X113157025Y-99710590D01*
G37*
G36*
X115657025Y-99710590D02*
X115808012Y-99756392D01*
X115947165Y-99830770D01*
X116069133Y-99930867D01*
X116169230Y-100052835D01*
X116243608Y-100191988D01*
X116289410Y-100342975D01*
X116301000Y-100460654D01*
X116301000Y-101539346D01*
X116289410Y-101657025D01*
X116243608Y-101808012D01*
X116169230Y-101947165D01*
X116069136Y-102069130D01*
X116069134Y-102069131D01*
X116069133Y-102069133D01*
X116069129Y-102069136D01*
X115947161Y-102169232D01*
X115808011Y-102243608D01*
X115657024Y-102289410D01*
X115500000Y-102304875D01*
X115342975Y-102289410D01*
X115191988Y-102243608D01*
X115052835Y-102169230D01*
X114930870Y-102069136D01*
X114930869Y-102069134D01*
X114930867Y-102069133D01*
X114860222Y-101983051D01*
X114830768Y-101947161D01*
X114756392Y-101808011D01*
X114710590Y-101657024D01*
X114699000Y-101539345D01*
X114699001Y-100460654D01*
X114710591Y-100342975D01*
X114756393Y-100191988D01*
X114830771Y-100052835D01*
X114930868Y-99930867D01*
X115052836Y-99830770D01*
X115191989Y-99756392D01*
X115342976Y-99710590D01*
X115500000Y-99695125D01*
X115657025Y-99710590D01*
X115657025Y-99710590D01*
G37*
G36*
X124161000Y-100371000D02*
X122839000Y-100371000D01*
X122839000Y-99359000D01*
X124161000Y-99359000D01*
X124161000Y-100371000D01*
X124161000Y-100371000D01*
G37*
G36*
X119237142Y-98218242D02*
X119385102Y-98279530D01*
X119518258Y-98368502D01*
X119631498Y-98481742D01*
X119720470Y-98614898D01*
X119781758Y-98762858D01*
X119813000Y-98919925D01*
X119813000Y-99080075D01*
X119781758Y-99237142D01*
X119720470Y-99385102D01*
X119631498Y-99518258D01*
X119518258Y-99631498D01*
X119385102Y-99720470D01*
X119237142Y-99781758D01*
X119080075Y-99813000D01*
X118919925Y-99813000D01*
X118762858Y-99781758D01*
X118614898Y-99720470D01*
X118481742Y-99631498D01*
X118368502Y-99518258D01*
X118279530Y-99385102D01*
X118218242Y-99237142D01*
X118187000Y-99080075D01*
X118187000Y-98919925D01*
X118218242Y-98762858D01*
X118279530Y-98614898D01*
X118368502Y-98481742D01*
X118481742Y-98368502D01*
X118614898Y-98279530D01*
X118762858Y-98218242D01*
X118919925Y-98187000D01*
X119080075Y-98187000D01*
X119237142Y-98218242D01*
X119237142Y-98218242D01*
G37*
G36*
X121777142Y-98218242D02*
X121925102Y-98279530D01*
X122058258Y-98368502D01*
X122171498Y-98481742D01*
X122260470Y-98614898D01*
X122321758Y-98762858D01*
X122353000Y-98919925D01*
X122353000Y-99080075D01*
X122321758Y-99237142D01*
X122260470Y-99385102D01*
X122171498Y-99518258D01*
X122058258Y-99631498D01*
X121925102Y-99720470D01*
X121777142Y-99781758D01*
X121620075Y-99813000D01*
X121459925Y-99813000D01*
X121302858Y-99781758D01*
X121154898Y-99720470D01*
X121021742Y-99631498D01*
X120908502Y-99518258D01*
X120819530Y-99385102D01*
X120758242Y-99237142D01*
X120727000Y-99080075D01*
X120727000Y-98919925D01*
X120758242Y-98762858D01*
X120819530Y-98614898D01*
X120908502Y-98481742D01*
X121021742Y-98368502D01*
X121154898Y-98279530D01*
X121302858Y-98218242D01*
X121459925Y-98187000D01*
X121620075Y-98187000D01*
X121777142Y-98218242D01*
X121777142Y-98218242D01*
G37*
G36*
X129397142Y-98218242D02*
X129545102Y-98279530D01*
X129678258Y-98368502D01*
X129791498Y-98481742D01*
X129880470Y-98614898D01*
X129941758Y-98762858D01*
X129973000Y-98919925D01*
X129973000Y-99080075D01*
X129941758Y-99237142D01*
X129880470Y-99385102D01*
X129791498Y-99518258D01*
X129678258Y-99631498D01*
X129545102Y-99720470D01*
X129397142Y-99781758D01*
X129240075Y-99813000D01*
X129079925Y-99813000D01*
X128922858Y-99781758D01*
X128774898Y-99720470D01*
X128641742Y-99631498D01*
X128528502Y-99518258D01*
X128439530Y-99385102D01*
X128378242Y-99237142D01*
X128347000Y-99080075D01*
X128347000Y-98919925D01*
X128378242Y-98762858D01*
X128439530Y-98614898D01*
X128528502Y-98481742D01*
X128641742Y-98368502D01*
X128774898Y-98279530D01*
X128922858Y-98218242D01*
X129079925Y-98187000D01*
X129240075Y-98187000D01*
X129397142Y-98218242D01*
X129397142Y-98218242D01*
G37*
M02*
