M48
;DRILL file {KiCad (5.0.0)} date 02/23/19 04:14:33
;FORMAT={-:-/ absolute / metric / decimal}
FMAT,2
METRIC,TZ
T1C0.300
T2C0.400
T3C0.500
T4C0.550
T5C0.700
T6C0.762
T7C0.800
T8C0.813
T9C1.000
T10C1.001
T11C1.016
T12C1.100
T13C2.301
T14C3.000
%
G90
G05
M71
T1
X58.5Y-96.25
X58.5Y-98.
X58.5Y-99.75
X58.5Y-121.5
X59.25Y-119.75
X60.25Y-104.75
X61.Y-117.75
X64.Y-117.75
X64.25Y-104.75
X67.25Y-104.75
X67.25Y-117.75
X67.77Y-87.
X71.Y-117.75
X71.5Y-116.25
X74.999Y-120.45
X79.57Y-136.75
X80.19Y-122.05
X80.29Y-107.39
X80.75Y-76.
X81.57Y-131.59
X81.89Y-132.26
X82.97Y-118.83
X83.25Y-99.25
X83.3Y-111.51
X84.Y-120.
X85.25Y-99.25
X85.25Y-100.75
X85.27Y-122.05
X85.47Y-125.87
X85.83Y-124.87
X86.54Y-122.05
X87.34Y-119.78
X87.81Y-122.05
X88.97Y-79.23
X88.97Y-85.25
X89.05Y-88.25
X89.7Y-105.04
X89.86Y-127.87
X92.Y-82.25
X92.56Y-65.26
X94.3Y-121.87
X94.3Y-124.87
X94.3Y-127.87
X94.67Y-103.77
X94.67Y-105.72
X95.26Y-113.81
X95.9Y-107.32
X96.25Y-86.
X96.84Y-76.49
X97.Y-111.47
X97.31Y-55.1
X97.51Y-56.47
X97.61Y-54.36
X97.75Y-82.5
X97.89Y-55.87
X97.95Y-58.01
X98.54Y-129.37
X98.75Y-88.
X99.Y-83.39
X99.15Y-85.25
X99.66Y-73.91
X100.Y-58.25
X100.Y-111.47
X100.5Y-87.75
X100.86Y-128.42
X101.57Y-136.75
X103.Y-111.47
X103.04Y-79.6
X103.95Y-62.96
X104.25Y-119.97
X104.57Y-63.66
X104.72Y-90.3
X105.27Y-129.42
X105.28Y-79.6
X105.28Y-128.56
X105.46Y-81.66
X105.67Y-64.32
X106.Y-90.75
X106.Y-111.47
X106.68Y-83.2
X106.69Y-72.07
X106.87Y-73.24
X107.37Y-65.26
X107.41Y-81.66
X107.5Y-58.25
X107.6Y-63.41
X107.73Y-76.45
X108.26Y-79.05
X108.29Y-84.51
X109.Y-111.47
X109.245Y-54.95
X109.245Y-55.87
X109.25Y-90.75
X109.47Y-60.64
X109.5Y-103.25
X109.66Y-79.25
X109.69Y-54.36
X109.7Y-73.65
X109.71Y-61.42
X109.79Y-56.31
X110.5Y-57.
X110.5Y-60.
X110.5Y-119.97
X110.58Y-62.05
X110.59Y-72.22
X110.683Y-106.283
X111.09Y-72.93
X111.377Y-107.229
X111.8Y-105.98
X111.892Y-75.045
X112.Y-109.62
X112.Y-111.47
X112.03Y-108.3
X112.03Y-107.48
X112.11Y-102.41
X112.5Y-58.25
X112.64Y-101.83
X112.65Y-119.145
X112.67Y-75.8
X113.Y-103.
X113.42Y-75.045
X113.458Y-80.112
X114.16Y-74.53
X114.545Y-102.386
X115.05Y-97.89
X115.19Y-71.25
X115.24Y-102.47
X116.Y-97.25
X116.086Y-80.492
X116.335Y-101.56
X116.5Y-91.57
X116.75Y-71.25
X116.75Y-119.97
X117.019Y-101.711
X117.234Y-75.549
X117.3Y-96.1
X117.5Y-58.25
X117.75Y-78.95
X117.82Y-105.78
X118.15Y-75.95
X118.77Y-81.44
X118.79Y-118.11
X119.142Y-76.275
X119.502Y-78.939
X119.73Y-99.905
X119.93Y-115.14
X120.09Y-108.37
X120.22Y-100.52
X120.52Y-97.77
X120.57Y-114.52
X120.58Y-102.98
X120.59Y-128.72
X121.13Y-97.35
X121.25Y-78.95
X121.29Y-102.3
X121.32Y-66.75
X121.39Y-105.247
X121.5Y-58.25
X121.827Y-107.49
X122.03Y-108.16
X122.54Y-105.03
X122.75Y-119.97
X123.75Y-78.93
X123.75Y-100.684
X123.8Y-113.5
X124.Y-58.25
X124.Y-65.3
X124.66Y-107.7
X126.13Y-117.84
X126.26Y-78.93
X126.27Y-101.28
X126.325Y-99.33
X126.62Y-103.24
X126.68Y-66.75
X126.825Y-98.72
X127.1Y-103.85
X127.25Y-58.25
X127.28Y-115.95
X127.41Y-97.35
X127.463Y-98.217
X127.52Y-104.45
X127.59Y-105.615
X127.74Y-56.31
X127.92Y-55.53
X128.08Y-120.17
X128.69Y-82.56
X128.75Y-91.57
X128.79Y-79.56
X128.87Y-108.74
X129.81Y-101.49
X129.929Y-99.295
X130.17Y-100.11
X130.5Y-108.75
X130.67Y-100.74
X130.91Y-120.13
X131.Y-116.57
X131.8Y-61.42
X131.9Y-96.6
X132.1Y-119.96
X132.11Y-92.35
X132.34Y-98.4
X132.82Y-60.64
X132.85Y-99.05
X133.28Y-99.68
X133.64Y-58.55
X133.65Y-57.54
X133.75Y-101.19
X133.77Y-100.34
X133.92Y-105.04
X134.05Y-103.85
X134.051Y-93.401
X134.225Y-102.665
X134.48Y-104.45
X134.53Y-97.37
X134.6Y-101.81
X134.63Y-94.08
X134.97Y-105.635
X135.2Y-94.67
X135.32Y-112.75
X135.45Y-123.04
X135.826Y-92.19
X135.95Y-102.13
X135.98Y-63.8
X136.04Y-99.3
X136.43Y-96.34
X136.679Y-97.939
X136.7Y-63.14
X137.02Y-98.55
X137.05Y-99.36
X137.31Y-62.47
X137.64Y-122.57
X137.72Y-92.64
X137.77Y-100.68
X137.88Y-98.61
X137.98Y-61.87
X138.77Y-118.32
X138.8Y-84.29
X139.07Y-118.99
X139.15Y-101.91
X139.48Y-84.72
X139.51Y-87.35
X139.83Y-102.19
X140.32Y-106.96
X140.47Y-117.
X140.53Y-88.4
X140.567Y-120.097
X141.23Y-106.11
X141.36Y-97.39
X141.4Y-90.2
X142.12Y-117.
X142.12Y-120.
X142.74Y-97.
X143.32Y-65.3
X143.59Y-96.96
X145.21Y-122.522
X145.47Y-111.65
X145.47Y-116.7
X151.5Y-110.18
T2
X71.76Y-107.13
X75.44Y-129.82
X78.39Y-118.92
X78.45Y-128.82
X80.28Y-113.04
X80.81Y-130.22
X81.6Y-101.4
X81.6Y-106.86
X81.6Y-110.53
X81.62Y-93.52
X83.11Y-112.49
X83.17Y-109.56
X83.21Y-114.14
X90.25Y-93.615
X90.25Y-96.885
X90.96Y-115.56
X96.29Y-118.7
X106.5Y-119.25
X114.07Y-136.75
X122.76Y-110.86
X126.57Y-136.75
X132.25Y-78.
X145.47Y-74.25
X145.47Y-79.65
X145.47Y-99.2
X145.47Y-104.3
X145.61Y-92.
X145.64Y-86.7
X151.5Y-72.68
X151.5Y-85.18
X151.5Y-97.68
T5
X150.25Y-120.
X150.25Y-121.5
X150.25Y-123.
X150.25Y-124.5
X150.25Y-126.
X150.25Y-127.5
T6
X64.19Y-77.885
X66.73Y-77.885
X69.27Y-77.885
X71.81Y-77.885
X74.35Y-77.885
X76.89Y-77.885
X79.43Y-77.885
X81.97Y-77.885
X84.51Y-77.885
T7
X100.95Y-69.99
X100.95Y-72.53
X100.95Y-75.07
X100.95Y-77.61
X108.57Y-69.99
X108.57Y-72.53
X108.57Y-75.07
X108.57Y-77.61
T8
X62.96Y-133.75
X65.5Y-133.75
X68.04Y-133.75
T9
X74.25Y-134.5
X76.75Y-134.5
X79.25Y-134.5
X81.75Y-134.5
X65.55Y-125.5
X68.05Y-125.5
X149.5Y-70.5
X149.5Y-73.
X149.5Y-75.5
X149.5Y-78.
X69.25Y-98.5
X69.25Y-101.
X69.25Y-103.5
X69.25Y-106.
X149.5Y-108.
X149.5Y-110.5
X149.5Y-113.
X149.5Y-115.5
X121.25Y-134.5
X123.75Y-134.5
X126.25Y-134.5
X128.75Y-134.5
X96.25Y-134.5
X98.75Y-134.5
X101.25Y-134.5
X103.75Y-134.5
X62.25Y-98.5
X62.25Y-101.
X62.25Y-103.5
X62.25Y-106.
X149.5Y-95.5
X149.5Y-98.
X149.5Y-100.5
X149.5Y-103.
X69.25Y-111.4
X69.25Y-113.9
X69.25Y-116.4
X69.25Y-118.9
X73.75Y-125.5
X76.25Y-125.5
X149.5Y-83.
X149.5Y-85.5
X149.5Y-88.
X149.5Y-90.5
X62.25Y-82.
X62.25Y-84.5
X62.25Y-87.
X62.25Y-89.5
X108.75Y-134.5
X111.25Y-134.5
X113.75Y-134.5
X116.25Y-134.5
X62.25Y-111.4
X62.25Y-113.9
X62.25Y-116.4
X62.25Y-118.9
T10
X136.501Y-124.998
X139.041Y-124.998
X141.073Y-124.998
X143.613Y-124.998
T11
X61.75Y-51.4
X64.29Y-51.4
X66.83Y-51.4
X69.37Y-51.4
X71.91Y-51.4
X74.45Y-51.4
X76.99Y-51.4
X79.53Y-51.4
X82.07Y-51.4
X84.61Y-51.4
X120.25Y-51.5
X122.79Y-51.5
X125.33Y-51.5
X127.87Y-51.5
X57.2Y-123.6
X59.74Y-123.6
X90.89Y-51.4
X93.43Y-51.4
X95.97Y-51.4
X98.51Y-51.4
X101.05Y-51.4
X103.59Y-51.4
X106.13Y-51.4
X108.67Y-51.4
X111.21Y-51.4
X113.75Y-51.4
X134.25Y-51.5
X136.79Y-51.5
X139.33Y-51.5
X141.87Y-51.5
X57.2Y-94.
X59.74Y-94.
X90.89Y-46.21
X90.89Y-48.75
X93.43Y-46.21
X93.43Y-48.75
X95.97Y-46.21
X95.97Y-48.75
X98.51Y-46.21
X98.51Y-48.75
X101.05Y-46.21
X101.05Y-48.75
X103.59Y-46.21
X103.59Y-48.75
X106.13Y-46.21
X106.13Y-48.75
X108.67Y-46.21
X108.67Y-48.75
X111.21Y-46.21
X111.21Y-48.75
X113.75Y-46.21
X113.75Y-48.75
X120.25Y-46.21
X120.25Y-48.75
X122.79Y-46.21
X122.79Y-48.75
X125.33Y-46.21
X125.33Y-48.75
X127.87Y-46.21
X127.87Y-48.75
X147.83Y-54.5
X147.83Y-57.04
X147.83Y-59.58
X147.83Y-62.12
X147.83Y-64.66
X134.25Y-46.21
X134.25Y-48.75
X136.79Y-46.21
X136.79Y-48.75
X139.33Y-46.21
X139.33Y-48.75
X141.87Y-46.21
X141.87Y-48.75
X61.75Y-46.21
X61.75Y-48.75
X64.29Y-46.21
X64.29Y-48.75
X66.83Y-46.21
X66.83Y-48.75
X69.37Y-46.21
X69.37Y-48.75
X71.91Y-46.21
X71.91Y-48.75
X74.45Y-46.21
X74.45Y-48.75
X76.99Y-46.21
X76.99Y-48.75
X79.53Y-46.21
X79.53Y-48.75
X82.07Y-46.21
X82.07Y-48.75
X84.61Y-46.21
X84.61Y-48.75
T13
X132.945Y-127.665
X146.661Y-127.665
T14
X56.Y-46.
X56.Y-135.
X150.Y-46.
X150.Y-135.
X55.75Y-102.25
X55.75Y-85.75
X55.75Y-115.15
T3
X85.499Y-135.712G85X85.499Y-135.062
G05
X92.499Y-135.712G85X92.499Y-135.062
G05
T4
X86.349Y-132.687G85X86.649Y-132.687
G05
X91.349Y-132.687G85X91.649Y-132.687
G05
T12
X56.05Y-74.085G85X57.45Y-74.085
G05
X91.25Y-74.085G85X92.65Y-74.085
G05
T0
M30
