G04 #@! TF.GenerationSoftware,KiCad,Pcbnew,(5.0.0)*
G04 #@! TF.CreationDate,2019-02-12T10:00:47+09:00*
G04 #@! TF.ProjectId,stm32f4_Centaurus,73746D333266345F43656E7461757275,rev?*
G04 #@! TF.SameCoordinates,Original*
G04 #@! TF.FileFunction,Soldermask,Top*
G04 #@! TF.FilePolarity,Negative*
%FSLAX46Y46*%
G04 Gerber Fmt 4.6, Leading zero omitted, Abs format (unit mm)*
G04 Created by KiCad (PCBNEW (5.0.0)) date 02/12/19 10:00:47*
%MOMM*%
%LPD*%
G01*
G04 APERTURE LIST*
%ADD10O,2.000000X2.000000*%
%ADD11R,1.400000X1.600000*%
%ADD12O,2.127200X2.432000*%
%ADD13R,2.127200X2.432000*%
%ADD14R,2.127200X2.127200*%
%ADD15O,2.127200X2.127200*%
%ADD16R,0.680000X1.900000*%
%ADD17R,1.900000X0.680000*%
%ADD18C,3.400000*%
%ADD19O,2.900000X1.900000*%
%ADD20R,1.900000X1.400000*%
%ADD21R,2.000000X0.960000*%
%ADD22R,0.960000X2.000000*%
%ADD23O,1.924000X1.400000*%
%ADD24C,1.901140*%
%ADD25C,3.399740*%
%ADD26R,1.600000X1.400000*%
%ADD27R,1.900000X1.500000*%
%ADD28R,0.800000X1.750000*%
%ADD29O,1.650000X1.350000*%
%ADD30O,1.400000X1.950000*%
%ADD31O,1.900000X2.900000*%
%ADD32O,2.432000X2.127200*%
%ADD33R,2.432000X2.127200*%
%ADD34R,2.700000X2.700000*%
%ADD35C,2.400000*%
%ADD36R,1.000000X1.900000*%
%ADD37R,2.400000X2.800000*%
%ADD38R,2.432000X2.432000*%
%ADD39O,2.432000X2.432000*%
%ADD40R,1.400000X3.150000*%
%ADD41O,1.900000X2.400000*%
%ADD42R,3.900000X2.400000*%
G04 APERTURE END LIST*
D10*
G04 #@! TO.C,U12*
X100950000Y-69990000D03*
X100950000Y-72530000D03*
X100950000Y-75070000D03*
X100950000Y-77610000D03*
X108570000Y-77610000D03*
X108570000Y-75070000D03*
X108570000Y-72530000D03*
X108570000Y-69990000D03*
G04 #@! TD*
D11*
G04 #@! TO.C,R44*
X59780000Y-128500000D03*
X58220000Y-128500000D03*
G04 #@! TD*
D12*
G04 #@! TO.C,P28*
X127870000Y-51500000D03*
X125330000Y-51500000D03*
X122790000Y-51500000D03*
D13*
X120250000Y-51500000D03*
G04 #@! TD*
D14*
G04 #@! TO.C,P31*
X134250000Y-48750000D03*
D15*
X134250000Y-46210000D03*
X136790000Y-48750000D03*
X136790000Y-46210000D03*
X139330000Y-48750000D03*
X139330000Y-46210000D03*
X141870000Y-48750000D03*
X141870000Y-46210000D03*
G04 #@! TD*
D13*
G04 #@! TO.C,P29*
X134250000Y-51500000D03*
D12*
X136790000Y-51500000D03*
X139330000Y-51500000D03*
X141870000Y-51500000D03*
G04 #@! TD*
D15*
G04 #@! TO.C,P30*
X127870000Y-46210000D03*
X127870000Y-48750000D03*
X125330000Y-46210000D03*
X125330000Y-48750000D03*
X122790000Y-46210000D03*
X122790000Y-48750000D03*
X120250000Y-46210000D03*
D14*
X120250000Y-48750000D03*
G04 #@! TD*
D11*
G04 #@! TO.C,R28*
X80280000Y-108500000D03*
X78720000Y-108500000D03*
G04 #@! TD*
G04 #@! TO.C,R30*
X80280000Y-114500000D03*
X78720000Y-114500000D03*
G04 #@! TD*
G04 #@! TO.C,R26*
X78720000Y-105500000D03*
X80280000Y-105500000D03*
G04 #@! TD*
G04 #@! TO.C,R27*
X78720000Y-111500000D03*
X80280000Y-111500000D03*
G04 #@! TD*
G04 #@! TO.C,R29*
X80280000Y-117500000D03*
X78720000Y-117500000D03*
G04 #@! TD*
G04 #@! TO.C,R31*
X78720000Y-102500000D03*
X80280000Y-102500000D03*
G04 #@! TD*
G04 #@! TO.C,D7*
X76120000Y-111500000D03*
X77880000Y-111500000D03*
G04 #@! TD*
G04 #@! TO.C,D8*
X77880000Y-108500000D03*
X76120000Y-108500000D03*
G04 #@! TD*
G04 #@! TO.C,D9*
X76120000Y-117500000D03*
X77880000Y-117500000D03*
G04 #@! TD*
G04 #@! TO.C,D11*
X76120000Y-102500000D03*
X77880000Y-102500000D03*
G04 #@! TD*
G04 #@! TO.C,D6*
X76120000Y-105500000D03*
X77880000Y-105500000D03*
G04 #@! TD*
G04 #@! TO.C,D10*
X77880000Y-114500000D03*
X76120000Y-114500000D03*
G04 #@! TD*
G04 #@! TO.C,D18*
X55620000Y-128500000D03*
X57380000Y-128500000D03*
G04 #@! TD*
D16*
G04 #@! TO.C,U1*
X128750000Y-77600000D03*
X128250000Y-77600000D03*
X127750000Y-77600000D03*
X127250000Y-77600000D03*
X126750000Y-77600000D03*
X126250000Y-77600000D03*
X125750000Y-77600000D03*
X125250000Y-77600000D03*
X124750000Y-77600000D03*
X124250000Y-77600000D03*
X123750000Y-77600000D03*
X123250000Y-77600000D03*
X122750000Y-77600000D03*
X122250000Y-77600000D03*
X121750000Y-77600000D03*
X121250000Y-77600000D03*
X120750000Y-77600000D03*
X120250000Y-77600000D03*
X119750000Y-77600000D03*
X119250000Y-77600000D03*
X118750000Y-77600000D03*
X118250000Y-77600000D03*
X117750000Y-77600000D03*
X117250000Y-77600000D03*
X116750000Y-77600000D03*
D17*
X114850000Y-79500000D03*
X114850000Y-80000000D03*
X114850000Y-80500000D03*
X114850000Y-81000000D03*
X114850000Y-81500000D03*
X114850000Y-82000000D03*
X114850000Y-82500000D03*
X114850000Y-83000000D03*
X114850000Y-83500000D03*
X114850000Y-84000000D03*
X114850000Y-84500000D03*
X114850000Y-85000000D03*
X114850000Y-85500000D03*
X114850000Y-86000000D03*
X114850000Y-86500000D03*
X114850000Y-87000000D03*
X114850000Y-87500000D03*
X114850000Y-88000000D03*
X114850000Y-88500000D03*
X114850000Y-89000000D03*
X114850000Y-89500000D03*
X114850000Y-90000000D03*
X114850000Y-90500000D03*
X114850000Y-91000000D03*
X114850000Y-91500000D03*
D16*
X116750000Y-93400000D03*
X117250000Y-93400000D03*
X117750000Y-93400000D03*
X118250000Y-93400000D03*
X118750000Y-93400000D03*
X119250000Y-93400000D03*
X119750000Y-93400000D03*
X120250000Y-93400000D03*
X120750000Y-93400000D03*
X121250000Y-93400000D03*
X121750000Y-93400000D03*
X122250000Y-93400000D03*
X122750000Y-93400000D03*
X123250000Y-93400000D03*
X123750000Y-93400000D03*
X124250000Y-93400000D03*
X124750000Y-93400000D03*
X125250000Y-93400000D03*
X125750000Y-93400000D03*
X126250000Y-93400000D03*
X126750000Y-93400000D03*
X127250000Y-93400000D03*
X127750000Y-93400000D03*
X128250000Y-93400000D03*
X128750000Y-93400000D03*
D17*
X130650000Y-91500000D03*
X130650000Y-91000000D03*
X130650000Y-90500000D03*
X130650000Y-90000000D03*
X130650000Y-89500000D03*
X130650000Y-89000000D03*
X130650000Y-88500000D03*
X130650000Y-88000000D03*
X130650000Y-87500000D03*
X130650000Y-87000000D03*
X130650000Y-86500000D03*
X130650000Y-86000000D03*
X130650000Y-85500000D03*
X130650000Y-85000000D03*
X130650000Y-84500000D03*
X130650000Y-84000000D03*
X130650000Y-83500000D03*
X130650000Y-83000000D03*
X130650000Y-82500000D03*
X130650000Y-82000000D03*
X130650000Y-81500000D03*
X130650000Y-81000000D03*
X130650000Y-80500000D03*
X130650000Y-80000000D03*
X130650000Y-79500000D03*
G04 #@! TD*
D18*
G04 #@! TO.C,P14*
X55750000Y-115150000D03*
D19*
X62250000Y-118900000D03*
X62250000Y-116400000D03*
X62250000Y-113900000D03*
X62250000Y-111400000D03*
G04 #@! TD*
G04 #@! TO.C,P11*
X69250000Y-98500000D03*
X69250000Y-101000000D03*
X69250000Y-103500000D03*
X69250000Y-106000000D03*
G04 #@! TD*
D11*
G04 #@! TO.C,R46*
X100470000Y-105000000D03*
X102030000Y-105000000D03*
G04 #@! TD*
G04 #@! TO.C,R48*
X100470000Y-101500000D03*
X102030000Y-101500000D03*
G04 #@! TD*
G04 #@! TO.C,R47*
X102030000Y-103250000D03*
X100470000Y-103250000D03*
G04 #@! TD*
D20*
G04 #@! TO.C,U8*
X107850000Y-104850000D03*
X107850000Y-103250000D03*
X107850000Y-101650000D03*
X102850000Y-101650000D03*
X102850000Y-103250000D03*
X102850000Y-104850000D03*
G04 #@! TD*
D11*
G04 #@! TO.C,C11*
X121120000Y-72470000D03*
X123000000Y-72470000D03*
G04 #@! TD*
G04 #@! TO.C,C13*
X124800000Y-72470000D03*
X126680000Y-72470000D03*
G04 #@! TD*
G04 #@! TO.C,D1*
X142120000Y-120000000D03*
X143880000Y-120000000D03*
G04 #@! TD*
G04 #@! TO.C,D2*
X143880000Y-117000000D03*
X142120000Y-117000000D03*
G04 #@! TD*
G04 #@! TO.C,D3*
X94300000Y-127870000D03*
X92540000Y-127870000D03*
G04 #@! TD*
G04 #@! TO.C,D4*
X92540000Y-124870000D03*
X94300000Y-124870000D03*
G04 #@! TD*
G04 #@! TO.C,D5*
X94300000Y-121870000D03*
X92540000Y-121870000D03*
G04 #@! TD*
D21*
G04 #@! TO.C,IC1*
X125450000Y-108750000D03*
X125450000Y-109550000D03*
X125450000Y-110350000D03*
X125450000Y-111150000D03*
X125450000Y-111950000D03*
X125450000Y-112750000D03*
X125450000Y-113550000D03*
X125450000Y-114350000D03*
X125450000Y-115150000D03*
X125450000Y-115950000D03*
X125450000Y-116750000D03*
D22*
X127300000Y-118600000D03*
X128100000Y-118600000D03*
X128900000Y-118600000D03*
X129700000Y-118600000D03*
X130500000Y-118600000D03*
X131300000Y-118600000D03*
X132100000Y-118600000D03*
X132900000Y-118600000D03*
X133700000Y-118600000D03*
X134500000Y-118600000D03*
X135300000Y-118600000D03*
D21*
X137150000Y-116750000D03*
X137150000Y-115950000D03*
X137150000Y-115150000D03*
X137150000Y-114350000D03*
X137150000Y-113550000D03*
X137150000Y-112750000D03*
X137150000Y-111950000D03*
X137150000Y-111150000D03*
X137150000Y-110350000D03*
X137150000Y-109550000D03*
X137150000Y-108750000D03*
D22*
X135300000Y-106900000D03*
X134500000Y-106900000D03*
X133700000Y-106900000D03*
X132900000Y-106900000D03*
X132100000Y-106900000D03*
X131300000Y-106900000D03*
X130500000Y-106900000D03*
X129700000Y-106900000D03*
X128900000Y-106900000D03*
X128100000Y-106900000D03*
X127300000Y-106900000D03*
G04 #@! TD*
D23*
G04 #@! TO.C,P1*
X150250000Y-127500000D03*
X150250000Y-126000000D03*
X150250000Y-124500000D03*
X150250000Y-123000000D03*
X150250000Y-121500000D03*
X150250000Y-120000000D03*
G04 #@! TD*
D24*
G04 #@! TO.C,P2*
X143612860Y-124997880D03*
X141072860Y-124997880D03*
X139040860Y-124997880D03*
X136500860Y-124997880D03*
D25*
X146660860Y-127664880D03*
X132944860Y-127664880D03*
G04 #@! TD*
D26*
G04 #@! TO.C,C26*
X112720000Y-91360000D03*
X112720000Y-93240000D03*
G04 #@! TD*
D11*
G04 #@! TO.C,C27*
X130180000Y-95500000D03*
X128300000Y-95500000D03*
G04 #@! TD*
D26*
G04 #@! TO.C,D19*
X96988703Y-109740000D03*
X96988703Y-111500000D03*
G04 #@! TD*
D27*
G04 #@! TO.C,LED1*
X88290000Y-88100000D03*
X88290000Y-85100000D03*
X82390000Y-88100000D03*
X82390000Y-85100000D03*
G04 #@! TD*
D19*
G04 #@! TO.C,P3*
X149500000Y-103000000D03*
X149500000Y-100500000D03*
X149500000Y-98000000D03*
X149500000Y-95500000D03*
G04 #@! TD*
G04 #@! TO.C,P4*
X149500000Y-83000000D03*
X149500000Y-85500000D03*
X149500000Y-88000000D03*
X149500000Y-90500000D03*
G04 #@! TD*
D28*
G04 #@! TO.C,P5*
X87699100Y-132687460D03*
X88349100Y-132687460D03*
X88999100Y-132687460D03*
X89649100Y-132687460D03*
X90299100Y-132687460D03*
D29*
X86499100Y-132687460D03*
X91499100Y-132687460D03*
D30*
X85499100Y-135387460D03*
X92499100Y-135387460D03*
G04 #@! TD*
D19*
G04 #@! TO.C,P6*
X149500000Y-70500000D03*
X149500000Y-73000000D03*
X149500000Y-75500000D03*
X149500000Y-78000000D03*
G04 #@! TD*
G04 #@! TO.C,P7*
X149500000Y-115500000D03*
X149500000Y-113000000D03*
X149500000Y-110500000D03*
X149500000Y-108000000D03*
G04 #@! TD*
D31*
G04 #@! TO.C,P8*
X121250000Y-134500000D03*
X123750000Y-134500000D03*
X126250000Y-134500000D03*
X128750000Y-134500000D03*
G04 #@! TD*
G04 #@! TO.C,P9*
X116250000Y-134500000D03*
X113750000Y-134500000D03*
X111250000Y-134500000D03*
X108750000Y-134500000D03*
G04 #@! TD*
G04 #@! TO.C,P10*
X76250000Y-125500000D03*
X73750000Y-125500000D03*
G04 #@! TD*
D19*
G04 #@! TO.C,P12*
X69250000Y-118900000D03*
X69250000Y-116400000D03*
X69250000Y-113900000D03*
X69250000Y-111400000D03*
G04 #@! TD*
G04 #@! TO.C,P13*
X62250000Y-98500000D03*
X62250000Y-101000000D03*
X62250000Y-103500000D03*
X62250000Y-106000000D03*
D18*
X55750000Y-102250000D03*
G04 #@! TD*
D31*
G04 #@! TO.C,P15*
X103750000Y-134500000D03*
X101250000Y-134500000D03*
X98750000Y-134500000D03*
X96250000Y-134500000D03*
G04 #@! TD*
G04 #@! TO.C,P16*
X74250000Y-134500000D03*
X76750000Y-134500000D03*
X79250000Y-134500000D03*
X81750000Y-134500000D03*
G04 #@! TD*
G04 #@! TO.C,P17*
X65550000Y-125500000D03*
X68050000Y-125500000D03*
G04 #@! TD*
D32*
G04 #@! TO.C,P18*
X147830000Y-64660000D03*
X147830000Y-62120000D03*
X147830000Y-59580000D03*
X147830000Y-57040000D03*
D33*
X147830000Y-54500000D03*
G04 #@! TD*
D13*
G04 #@! TO.C,P23*
X90890000Y-51400000D03*
D12*
X93430000Y-51400000D03*
X95970000Y-51400000D03*
X98510000Y-51400000D03*
X101050000Y-51400000D03*
X103590000Y-51400000D03*
X106130000Y-51400000D03*
X108670000Y-51400000D03*
X111210000Y-51400000D03*
X113750000Y-51400000D03*
G04 #@! TD*
G04 #@! TO.C,P24*
X84610000Y-51400000D03*
X82070000Y-51400000D03*
X79530000Y-51400000D03*
X76990000Y-51400000D03*
X74450000Y-51400000D03*
X71910000Y-51400000D03*
X69370000Y-51400000D03*
X66830000Y-51400000D03*
X64290000Y-51400000D03*
D13*
X61750000Y-51400000D03*
G04 #@! TD*
D15*
G04 #@! TO.C,P25*
X113750000Y-46210000D03*
X113750000Y-48750000D03*
X111210000Y-46210000D03*
X111210000Y-48750000D03*
X108670000Y-46210000D03*
X108670000Y-48750000D03*
X106130000Y-46210000D03*
X106130000Y-48750000D03*
X103590000Y-46210000D03*
X103590000Y-48750000D03*
X101050000Y-46210000D03*
X101050000Y-48750000D03*
X98510000Y-46210000D03*
X98510000Y-48750000D03*
X95970000Y-46210000D03*
X95970000Y-48750000D03*
X93430000Y-46210000D03*
X93430000Y-48750000D03*
X90890000Y-46210000D03*
D14*
X90890000Y-48750000D03*
G04 #@! TD*
G04 #@! TO.C,P26*
X61750000Y-48750000D03*
D15*
X61750000Y-46210000D03*
X64290000Y-48750000D03*
X64290000Y-46210000D03*
X66830000Y-48750000D03*
X66830000Y-46210000D03*
X69370000Y-48750000D03*
X69370000Y-46210000D03*
X71910000Y-48750000D03*
X71910000Y-46210000D03*
X74450000Y-48750000D03*
X74450000Y-46210000D03*
X76990000Y-48750000D03*
X76990000Y-46210000D03*
X79530000Y-48750000D03*
X79530000Y-46210000D03*
X82070000Y-48750000D03*
X82070000Y-46210000D03*
X84610000Y-48750000D03*
X84610000Y-46210000D03*
G04 #@! TD*
D11*
G04 #@! TO.C,R22*
X91420000Y-127870000D03*
X89860000Y-127870000D03*
G04 #@! TD*
G04 #@! TO.C,R23*
X89860000Y-124870000D03*
X91420000Y-124870000D03*
G04 #@! TD*
G04 #@! TO.C,R24*
X91420000Y-121870000D03*
X89860000Y-121870000D03*
G04 #@! TD*
D34*
G04 #@! TO.C,SP1*
X90250000Y-92250000D03*
X90250000Y-98850000D03*
X96850000Y-98850000D03*
G04 #@! TD*
D35*
G04 #@! TO.C,SW1*
X65500000Y-133750000D03*
X62960000Y-133750000D03*
X68030000Y-133750000D03*
X60420000Y-133750000D03*
X70580000Y-133750000D03*
G04 #@! TD*
D36*
G04 #@! TO.C,U3*
X87810000Y-122050000D03*
X86540000Y-122050000D03*
X85270000Y-122050000D03*
X84000000Y-122050000D03*
X82730000Y-122050000D03*
X81460000Y-122050000D03*
X80190000Y-122050000D03*
X80190000Y-127450000D03*
X81460000Y-127450000D03*
X82730000Y-127450000D03*
X84000000Y-127450000D03*
X85270000Y-127450000D03*
X86540000Y-127450000D03*
X87810000Y-127450000D03*
G04 #@! TD*
D37*
G04 #@! TO.C,X1*
X121950000Y-69720000D03*
X126050000Y-69720000D03*
G04 #@! TD*
D26*
G04 #@! TO.C,D21*
X100000000Y-111380000D03*
X100000000Y-109620000D03*
G04 #@! TD*
G04 #@! TO.C,D22*
X103000000Y-109620000D03*
X103000000Y-111380000D03*
G04 #@! TD*
G04 #@! TO.C,D23*
X109000000Y-109620000D03*
X109000000Y-111380000D03*
G04 #@! TD*
G04 #@! TO.C,D24*
X106000000Y-111380000D03*
X106000000Y-109620000D03*
G04 #@! TD*
G04 #@! TO.C,D25*
X112000000Y-109620000D03*
X112000000Y-111380000D03*
G04 #@! TD*
D38*
G04 #@! TO.C,JP1*
X57200000Y-94000000D03*
D39*
X59740000Y-94000000D03*
G04 #@! TD*
G04 #@! TO.C,JP2*
X59740000Y-123600000D03*
D38*
X57200000Y-123600000D03*
G04 #@! TD*
D19*
G04 #@! TO.C,P27*
X62250000Y-82000000D03*
X62250000Y-84500000D03*
X62250000Y-87000000D03*
X62250000Y-89500000D03*
D18*
X55750000Y-85750000D03*
G04 #@! TD*
D40*
G04 #@! TO.C,SW2*
X110500000Y-119125000D03*
X110500000Y-124875000D03*
X106500000Y-124875000D03*
X106500000Y-119125000D03*
G04 #@! TD*
G04 #@! TO.C,SW3*
X100350000Y-119125000D03*
X100350000Y-124875000D03*
X104350000Y-124875000D03*
X104350000Y-119125000D03*
G04 #@! TD*
G04 #@! TO.C,SW4*
X116650000Y-119125000D03*
X116650000Y-124875000D03*
X112650000Y-124875000D03*
X112650000Y-119125000D03*
G04 #@! TD*
G04 #@! TO.C,SW5*
X118800000Y-119125000D03*
X118800000Y-124875000D03*
X122800000Y-124875000D03*
X122800000Y-119125000D03*
G04 #@! TD*
D41*
G04 #@! TO.C,U7*
X64190000Y-77885000D03*
X66730000Y-77885000D03*
X69270000Y-77885000D03*
X71810000Y-77885000D03*
X74350000Y-77885000D03*
X76890000Y-77885000D03*
X79430000Y-77885000D03*
X81970000Y-77885000D03*
X84510000Y-77885000D03*
D42*
X56750000Y-74085000D03*
X91950000Y-74085000D03*
G04 #@! TD*
M02*
