G04 #@! TF.GenerationSoftware,KiCad,Pcbnew,(5.0.0)*
G04 #@! TF.CreationDate,2019-03-13T11:52:12+09:00*
G04 #@! TF.ProjectId,USBtoUART,555342746F554152542E6B696361645F,rev?*
G04 #@! TF.SameCoordinates,Original*
G04 #@! TF.FileFunction,Copper,L2,Bot,Signal*
G04 #@! TF.FilePolarity,Positive*
%FSLAX46Y46*%
G04 Gerber Fmt 4.6, Leading zero omitted, Abs format (unit mm)*
G04 Created by KiCad (PCBNEW (5.0.0)) date 03/13/19 11:52:12*
%MOMM*%
%LPD*%
G01*
G04 APERTURE LIST*
G04 #@! TA.AperFunction,SMDPad,CuDef*
%ADD10R,1.000760X1.501140*%
G04 #@! TD*
G04 #@! TA.AperFunction,SMDPad,CuDef*
%ADD11R,1.998980X2.999740*%
G04 #@! TD*
G04 #@! TA.AperFunction,SMDPad,CuDef*
%ADD12C,0.749300*%
G04 #@! TD*
G04 #@! TA.AperFunction,Conductor*
%ADD13C,0.100000*%
G04 #@! TD*
G04 #@! TA.AperFunction,SMDPad,CuDef*
%ADD14R,1.200000X1.000000*%
G04 #@! TD*
G04 #@! TA.AperFunction,ComponentPad*
%ADD15R,1.727200X2.032000*%
G04 #@! TD*
G04 #@! TA.AperFunction,ComponentPad*
%ADD16O,1.727200X2.032000*%
G04 #@! TD*
G04 #@! TA.AperFunction,SMDPad,CuDef*
%ADD17R,1.000000X1.200000*%
G04 #@! TD*
G04 #@! TA.AperFunction,SMDPad,CuDef*
%ADD18R,1.220000X0.910000*%
G04 #@! TD*
G04 #@! TA.AperFunction,ComponentPad*
%ADD19O,1.700000X3.000000*%
G04 #@! TD*
G04 #@! TA.AperFunction,ComponentPad*
%ADD20C,1.700000*%
G04 #@! TD*
G04 #@! TA.AperFunction,ComponentPad*
%ADD21C,1.300000*%
G04 #@! TD*
G04 #@! TA.AperFunction,SMDPad,CuDef*
%ADD22R,0.600000X1.500000*%
G04 #@! TD*
G04 #@! TA.AperFunction,Conductor*
%ADD23C,0.500000*%
G04 #@! TD*
G04 #@! TA.AperFunction,Conductor*
%ADD24C,0.300000*%
G04 #@! TD*
G04 #@! TA.AperFunction,Conductor*
%ADD25C,0.254000*%
G04 #@! TD*
G04 APERTURE END LIST*
D10*
G04 #@! TO.P,U1,1*
G04 #@! TO.N,+3.3V*
X94751140Y-116101660D03*
G04 #@! TO.P,U1,2*
G04 #@! TO.N,GND*
X93250000Y-116101660D03*
G04 #@! TO.P,U1,3*
G04 #@! TO.N,Net-(C1-Pad1)*
X91748860Y-116101660D03*
D11*
G04 #@! TO.P,U1,2*
G04 #@! TO.N,GND*
X93250000Y-113150180D03*
D12*
X93250000Y-114999300D03*
D13*
G04 #@! TD*
G04 #@! TO.N,GND*
G04 #@! TO.C,U1*
G36*
X92749620Y-115373950D02*
X92249240Y-114624650D01*
X94250760Y-114624650D01*
X93750380Y-115373950D01*
X92749620Y-115373950D01*
X92749620Y-115373950D01*
G37*
D14*
G04 #@! TO.P,C3,1*
G04 #@! TO.N,+3.3V*
X96500000Y-114800000D03*
G04 #@! TO.P,C3,2*
G04 #@! TO.N,GND*
X96500000Y-116680000D03*
G04 #@! TD*
D15*
G04 #@! TO.P,P2,1*
G04 #@! TO.N,GND*
X103500000Y-119750000D03*
D16*
G04 #@! TO.P,P2,2*
G04 #@! TO.N,VCC*
X100960000Y-119750000D03*
G04 #@! TO.P,P2,3*
G04 #@! TO.N,/RX*
X98420000Y-119750000D03*
G04 #@! TO.P,P2,4*
G04 #@! TO.N,/TX*
X95880000Y-119750000D03*
G04 #@! TD*
D17*
G04 #@! TO.P,C1,1*
G04 #@! TO.N,Net-(C1-Pad1)*
X91450000Y-111750000D03*
G04 #@! TO.P,C1,2*
G04 #@! TO.N,GND*
X89570000Y-111750000D03*
G04 #@! TD*
D14*
G04 #@! TO.P,C2,1*
G04 #@! TO.N,+3.3V*
X108500000Y-114050000D03*
G04 #@! TO.P,C2,2*
G04 #@! TO.N,GND*
X108500000Y-115930000D03*
G04 #@! TD*
D18*
G04 #@! TO.P,D1,1*
G04 #@! TO.N,+5V*
X94000000Y-106365000D03*
G04 #@! TO.P,D1,2*
G04 #@! TO.N,Net-(C1-Pad1)*
X94000000Y-109635000D03*
G04 #@! TD*
D19*
G04 #@! TO.P,P1,5*
G04 #@! TO.N,Net-(P1-Pad5)*
X106325000Y-103750000D03*
X93675000Y-103750000D03*
D20*
G04 #@! TO.P,P1,2*
G04 #@! TO.N,/D-*
X99000000Y-106400000D03*
G04 #@! TO.P,P1,1*
G04 #@! TO.N,+5V*
X96500000Y-106400000D03*
G04 #@! TO.P,P1,3*
G04 #@! TO.N,/D+*
X101000000Y-106400000D03*
G04 #@! TO.P,P1,4*
G04 #@! TO.N,GND*
X103500000Y-106400000D03*
D21*
G04 #@! TO.P,P1,*
G04 #@! TO.N,*
X97750000Y-103750000D03*
X102250000Y-103750000D03*
G04 #@! TD*
D22*
G04 #@! TO.P,U2,1*
G04 #@! TO.N,+3.3V*
X106810000Y-114950000D03*
G04 #@! TO.P,U2,2*
G04 #@! TO.N,/GP0*
X105540000Y-114950000D03*
G04 #@! TO.P,U2,3*
G04 #@! TO.N,/GP1*
X104270000Y-114950000D03*
G04 #@! TO.P,U2,4*
G04 #@! TO.N,Net-(R1-Pad1)*
X103000000Y-114950000D03*
G04 #@! TO.P,U2,5*
G04 #@! TO.N,/RX*
X101730000Y-114950000D03*
G04 #@! TO.P,U2,6*
G04 #@! TO.N,/TX*
X100460000Y-114950000D03*
G04 #@! TO.P,U2,7*
G04 #@! TO.N,/GP2*
X99190000Y-114950000D03*
G04 #@! TO.P,U2,8*
G04 #@! TO.N,Net-(U2-Pad8)*
X99190000Y-109550000D03*
G04 #@! TO.P,U2,9*
G04 #@! TO.N,Net-(U2-Pad9)*
X100460000Y-109550000D03*
G04 #@! TO.P,U2,10*
G04 #@! TO.N,Net-(U2-Pad10)*
X101730000Y-109550000D03*
G04 #@! TO.P,U2,11*
G04 #@! TO.N,+3.3V*
X103000000Y-109550000D03*
G04 #@! TO.P,U2,12*
G04 #@! TO.N,/D-*
X104270000Y-109550000D03*
G04 #@! TO.P,U2,13*
G04 #@! TO.N,/D+*
X105540000Y-109550000D03*
G04 #@! TO.P,U2,14*
G04 #@! TO.N,GND*
X106810000Y-109550000D03*
G04 #@! TD*
D17*
G04 #@! TO.P,R2,1*
G04 #@! TO.N,Net-(D2-Pad1)*
X90720000Y-106000000D03*
G04 #@! TO.P,R2,2*
G04 #@! TO.N,+5V*
X92280000Y-106000000D03*
G04 #@! TD*
G04 #@! TO.P,R3,2*
G04 #@! TO.N,+3.3V*
X95970000Y-110250000D03*
G04 #@! TO.P,R3,1*
G04 #@! TO.N,Net-(D3-Pad1)*
X97530000Y-110250000D03*
G04 #@! TD*
D14*
G04 #@! TO.P,R4,1*
G04 #@! TO.N,Net-(D4-Pad1)*
X107750000Y-119280000D03*
G04 #@! TO.P,R4,2*
G04 #@! TO.N,+3.3V*
X107750000Y-117720000D03*
G04 #@! TD*
G04 #@! TO.P,D2,2*
G04 #@! TO.N,GND*
X90750000Y-109380000D03*
G04 #@! TO.P,D2,1*
G04 #@! TO.N,Net-(D2-Pad1)*
X90750000Y-107620000D03*
G04 #@! TD*
D17*
G04 #@! TO.P,D3,1*
G04 #@! TO.N,Net-(D3-Pad1)*
X97630000Y-108250000D03*
G04 #@! TO.P,D3,2*
G04 #@! TO.N,GND*
X95870000Y-108250000D03*
G04 #@! TD*
D14*
G04 #@! TO.P,D4,2*
G04 #@! TO.N,/GP0*
X105750000Y-117620000D03*
G04 #@! TO.P,D4,1*
G04 #@! TO.N,Net-(D4-Pad1)*
X105750000Y-119380000D03*
G04 #@! TD*
G04 #@! TO.P,R1,1*
G04 #@! TO.N,Net-(R1-Pad1)*
X97500000Y-113280000D03*
G04 #@! TO.P,R1,2*
G04 #@! TO.N,+3.3V*
X97500000Y-111720000D03*
G04 #@! TD*
D23*
G04 #@! TO.N,Net-(C1-Pad1)*
X91450000Y-111750000D02*
X91450000Y-111620000D01*
X92935000Y-110135000D02*
X94000000Y-110135000D01*
X91450000Y-111620000D02*
X92935000Y-110135000D01*
X91450000Y-111750000D02*
X91450000Y-115802800D01*
X91450000Y-115802800D02*
X91748860Y-116101660D01*
G04 #@! TO.N,+3.3V*
X95950000Y-110020000D02*
X95970000Y-110000000D01*
X97500000Y-111720000D02*
X101810000Y-111720000D01*
X103000000Y-110530000D02*
X103000000Y-109550000D01*
X101810000Y-111720000D02*
X103000000Y-110530000D01*
X108500000Y-113950000D02*
X107960000Y-113950000D01*
X107960000Y-113950000D02*
X105730000Y-111720000D01*
X105730000Y-111720000D02*
X101810000Y-111720000D01*
X106810000Y-114950000D02*
X106810000Y-116780000D01*
X106810000Y-116780000D02*
X107750000Y-117720000D01*
X106810000Y-114950000D02*
X106810000Y-112800000D01*
X106810000Y-112800000D02*
X105730000Y-111720000D01*
X96500000Y-114800000D02*
X96500000Y-114140000D01*
X96500000Y-114140000D02*
X95970000Y-113610000D01*
X95970000Y-113610000D02*
X95970000Y-113040000D01*
X95970000Y-113040000D02*
X95970000Y-110250000D01*
X97500000Y-111720000D02*
X97150000Y-111720000D01*
X97150000Y-111720000D02*
X96720000Y-112150000D01*
X96720000Y-112150000D02*
X95970000Y-112900000D01*
X95970000Y-113610000D02*
X95970000Y-112900000D01*
X95970000Y-112900000D02*
X96720000Y-112150000D01*
X94751140Y-116101660D02*
X94751140Y-115908860D01*
X95860000Y-114800000D02*
X96500000Y-114800000D01*
X94751140Y-115908860D02*
X95860000Y-114800000D01*
G04 #@! TO.N,+5V*
X96500000Y-106400000D02*
X94035000Y-106400000D01*
X94035000Y-106400000D02*
X94000000Y-106365000D01*
X94000000Y-106365000D02*
X92645000Y-106365000D01*
X92645000Y-106365000D02*
X92280000Y-106000000D01*
G04 #@! TO.N,Net-(D2-Pad1)*
X90720000Y-106000000D02*
X90720000Y-107590000D01*
X90720000Y-107590000D02*
X90750000Y-107620000D01*
G04 #@! TO.N,Net-(D3-Pad1)*
X97530000Y-110000000D02*
X97530000Y-108350000D01*
X97530000Y-108350000D02*
X97630000Y-108250000D01*
G04 #@! TO.N,/GP0*
X105540000Y-115450000D02*
X105540000Y-117410000D01*
X105540000Y-117410000D02*
X105750000Y-117620000D01*
G04 #@! TO.N,Net-(D4-Pad1)*
X107750000Y-119280000D02*
X105850000Y-119280000D01*
X105850000Y-119280000D02*
X105750000Y-119380000D01*
D24*
G04 #@! TO.N,/D-*
X99000000Y-106400000D02*
X99000000Y-107260000D01*
X104270000Y-108720000D02*
X104270000Y-109550000D01*
X103800000Y-108250000D02*
X104270000Y-108720000D01*
X99990000Y-108250000D02*
X103800000Y-108250000D01*
X99000000Y-107260000D02*
X99990000Y-108250000D01*
G04 #@! TO.N,/D+*
X101000000Y-106400000D02*
X101000000Y-106990000D01*
X105540000Y-108520000D02*
X105540000Y-109550000D01*
X104740000Y-107720000D02*
X105540000Y-108520000D01*
X101730000Y-107720000D02*
X104740000Y-107720000D01*
X101000000Y-106990000D02*
X101730000Y-107720000D01*
G04 #@! TO.N,/RX*
X101730000Y-114950000D02*
X101730000Y-116440000D01*
X101730000Y-116440000D02*
X98420000Y-119750000D01*
G04 #@! TO.N,/TX*
X96420000Y-119750000D02*
X95880000Y-119750000D01*
X98240000Y-117930000D02*
X96420000Y-119750000D01*
X98240000Y-117930000D02*
X99280000Y-116890000D01*
X99280000Y-116890000D02*
X100280000Y-115890000D01*
X100280000Y-115890000D02*
X100190000Y-115980000D01*
X100460000Y-114950000D02*
X100460000Y-115710000D01*
X100460000Y-115710000D02*
X100280000Y-115890000D01*
G04 #@! TO.N,Net-(R1-Pad1)*
X97500000Y-113280000D02*
X97940000Y-113280000D01*
X103000000Y-113590000D02*
X103000000Y-114950000D01*
X102000000Y-112590000D02*
X103000000Y-113590000D01*
X98630000Y-112590000D02*
X102000000Y-112590000D01*
X97940000Y-113280000D02*
X98630000Y-112590000D01*
G04 #@! TD*
D25*
G04 #@! TO.N,GND*
G36*
X92398000Y-104525769D02*
X92472093Y-104898260D01*
X92516444Y-104964635D01*
X91780000Y-104964635D01*
X91613393Y-104997775D01*
X91500000Y-105073541D01*
X91386607Y-104997775D01*
X91220000Y-104964635D01*
X90220000Y-104964635D01*
X90053393Y-104997775D01*
X89912150Y-105092150D01*
X89817775Y-105233393D01*
X89784635Y-105400000D01*
X89784635Y-106600000D01*
X89817775Y-106766607D01*
X89846337Y-106809353D01*
X89842150Y-106812150D01*
X89747775Y-106953393D01*
X89714635Y-107120000D01*
X89714635Y-108120000D01*
X89747775Y-108286607D01*
X89786865Y-108345109D01*
X89611673Y-108520302D01*
X89515000Y-108753691D01*
X89515000Y-109094250D01*
X89673750Y-109253000D01*
X90623000Y-109253000D01*
X90623000Y-109233000D01*
X90877000Y-109233000D01*
X90877000Y-109253000D01*
X91826250Y-109253000D01*
X91985000Y-109094250D01*
X91985000Y-108753691D01*
X91888327Y-108520302D01*
X91713135Y-108345109D01*
X91752225Y-108286607D01*
X91785365Y-108120000D01*
X91785365Y-107120000D01*
X91768058Y-107032990D01*
X91780000Y-107035365D01*
X92544966Y-107035365D01*
X92578322Y-107042000D01*
X92578323Y-107042000D01*
X92645000Y-107055263D01*
X92711676Y-107042000D01*
X93024787Y-107042000D01*
X93082150Y-107127850D01*
X93223393Y-107222225D01*
X93390000Y-107255365D01*
X94610000Y-107255365D01*
X94776607Y-107222225D01*
X94917850Y-107127850D01*
X94951827Y-107077000D01*
X95094010Y-107077000D01*
X95010302Y-107111673D01*
X94831673Y-107290301D01*
X94735000Y-107523690D01*
X94735000Y-107964250D01*
X94893750Y-108123000D01*
X95743000Y-108123000D01*
X95743000Y-108103000D01*
X95997000Y-108103000D01*
X95997000Y-108123000D01*
X96017000Y-108123000D01*
X96017000Y-108377000D01*
X95997000Y-108377000D01*
X95997000Y-108397000D01*
X95743000Y-108397000D01*
X95743000Y-108377000D01*
X94893750Y-108377000D01*
X94735000Y-108535750D01*
X94735000Y-108769499D01*
X94610000Y-108744635D01*
X93390000Y-108744635D01*
X93223393Y-108777775D01*
X93082150Y-108872150D01*
X92987775Y-109013393D01*
X92954635Y-109180000D01*
X92954635Y-109448643D01*
X92934999Y-109444737D01*
X92868323Y-109458000D01*
X92868322Y-109458000D01*
X92670848Y-109497280D01*
X92446910Y-109646910D01*
X92409138Y-109703440D01*
X91899249Y-110213329D01*
X91985000Y-110006309D01*
X91985000Y-109665750D01*
X91826250Y-109507000D01*
X90877000Y-109507000D01*
X90877000Y-110356250D01*
X91035750Y-110515000D01*
X91476310Y-110515000D01*
X91683328Y-110429250D01*
X91397944Y-110714635D01*
X90950000Y-110714635D01*
X90783393Y-110747775D01*
X90642150Y-110842150D01*
X90634528Y-110853557D01*
X90608327Y-110790301D01*
X90429698Y-110611673D01*
X90196309Y-110515000D01*
X90464250Y-110515000D01*
X90623000Y-110356250D01*
X90623000Y-109507000D01*
X89673750Y-109507000D01*
X89515000Y-109665750D01*
X89515000Y-110006309D01*
X89611673Y-110239698D01*
X89790301Y-110418327D01*
X90023690Y-110515000D01*
X89855750Y-110515000D01*
X89697000Y-110673750D01*
X89697000Y-111623000D01*
X89717000Y-111623000D01*
X89717000Y-111877000D01*
X89697000Y-111877000D01*
X89697000Y-112826250D01*
X89855750Y-112985000D01*
X90196309Y-112985000D01*
X90429698Y-112888327D01*
X90608327Y-112709699D01*
X90634528Y-112646443D01*
X90642150Y-112657850D01*
X90773000Y-112745281D01*
X90773001Y-115736119D01*
X90759737Y-115802800D01*
X90800525Y-116007850D01*
X90812281Y-116066952D01*
X90813115Y-116068200D01*
X90813115Y-116852230D01*
X90846255Y-117018837D01*
X90940630Y-117160080D01*
X91081873Y-117254455D01*
X91248480Y-117287595D01*
X92249240Y-117287595D01*
X92280701Y-117281337D01*
X92389922Y-117390557D01*
X92623311Y-117487230D01*
X92964250Y-117487230D01*
X93123000Y-117328480D01*
X93123000Y-116228660D01*
X93103000Y-116228660D01*
X93103000Y-116021390D01*
X93123000Y-116021390D01*
X93123000Y-113277180D01*
X93103000Y-113277180D01*
X93103000Y-113023180D01*
X93123000Y-113023180D01*
X93123000Y-111174060D01*
X93377000Y-111174060D01*
X93377000Y-113023180D01*
X94725740Y-113023180D01*
X94884490Y-112864430D01*
X94884490Y-111524000D01*
X94787817Y-111290611D01*
X94609188Y-111111983D01*
X94375799Y-111015310D01*
X93535750Y-111015310D01*
X93377000Y-111174060D01*
X93123000Y-111174060D01*
X92988181Y-111039241D01*
X93215422Y-110812000D01*
X94066678Y-110812000D01*
X94264152Y-110772720D01*
X94488090Y-110623090D01*
X94553388Y-110525365D01*
X94610000Y-110525365D01*
X94776607Y-110492225D01*
X94917850Y-110397850D01*
X95012225Y-110256607D01*
X95034635Y-110143944D01*
X95034635Y-110850000D01*
X95067775Y-111016607D01*
X95162150Y-111157850D01*
X95293001Y-111245281D01*
X95293000Y-112833322D01*
X95279737Y-112900000D01*
X95293000Y-112966676D01*
X95293000Y-113543324D01*
X95279737Y-113610000D01*
X95293000Y-113676676D01*
X95293000Y-113676677D01*
X95332280Y-113874151D01*
X95481910Y-114098089D01*
X95509186Y-114116315D01*
X95497775Y-114133393D01*
X95476116Y-114242282D01*
X95371910Y-114311910D01*
X95334138Y-114368440D01*
X94854983Y-114847595D01*
X94884490Y-114776360D01*
X94884490Y-114669867D01*
X94898200Y-114624650D01*
X94884490Y-114555724D01*
X94884490Y-113435930D01*
X94725740Y-113277180D01*
X93377000Y-113277180D01*
X93377000Y-116021390D01*
X93397000Y-116021390D01*
X93397000Y-116228660D01*
X93377000Y-116228660D01*
X93377000Y-117328480D01*
X93535750Y-117487230D01*
X93876689Y-117487230D01*
X94110078Y-117390557D01*
X94219299Y-117281337D01*
X94250760Y-117287595D01*
X95251520Y-117287595D01*
X95265000Y-117284914D01*
X95265000Y-117306309D01*
X95361673Y-117539698D01*
X95540301Y-117718327D01*
X95773690Y-117815000D01*
X96214250Y-117815000D01*
X96373000Y-117656250D01*
X96373000Y-116807000D01*
X96627000Y-116807000D01*
X96627000Y-117656250D01*
X96785750Y-117815000D01*
X97226310Y-117815000D01*
X97459699Y-117718327D01*
X97638327Y-117539698D01*
X97735000Y-117306309D01*
X97735000Y-116965750D01*
X97576250Y-116807000D01*
X96627000Y-116807000D01*
X96373000Y-116807000D01*
X96353000Y-116807000D01*
X96353000Y-116553000D01*
X96373000Y-116553000D01*
X96373000Y-116533000D01*
X96627000Y-116533000D01*
X96627000Y-116553000D01*
X97576250Y-116553000D01*
X97735000Y-116394250D01*
X97735000Y-116053691D01*
X97638327Y-115820302D01*
X97459699Y-115641673D01*
X97396443Y-115615472D01*
X97407850Y-115607850D01*
X97502225Y-115466607D01*
X97535365Y-115300000D01*
X97535365Y-114300000D01*
X97518530Y-114215365D01*
X98100000Y-114215365D01*
X98266607Y-114182225D01*
X98407850Y-114087850D01*
X98502225Y-113946607D01*
X98535365Y-113780000D01*
X98535365Y-113500635D01*
X98869001Y-113167000D01*
X101761000Y-113167000D01*
X102423000Y-113829002D01*
X102423000Y-113871537D01*
X102392150Y-113892150D01*
X102365000Y-113932783D01*
X102337850Y-113892150D01*
X102196607Y-113797775D01*
X102030000Y-113764635D01*
X101430000Y-113764635D01*
X101263393Y-113797775D01*
X101122150Y-113892150D01*
X101095000Y-113932783D01*
X101067850Y-113892150D01*
X100926607Y-113797775D01*
X100760000Y-113764635D01*
X100160000Y-113764635D01*
X99993393Y-113797775D01*
X99852150Y-113892150D01*
X99825000Y-113932783D01*
X99797850Y-113892150D01*
X99656607Y-113797775D01*
X99490000Y-113764635D01*
X98890000Y-113764635D01*
X98723393Y-113797775D01*
X98582150Y-113892150D01*
X98487775Y-114033393D01*
X98454635Y-114200000D01*
X98454635Y-115700000D01*
X98487775Y-115866607D01*
X98582150Y-116007850D01*
X98723393Y-116102225D01*
X98890000Y-116135365D01*
X99218634Y-116135365D01*
X98912186Y-116441814D01*
X98912183Y-116441816D01*
X97872189Y-117481811D01*
X97872183Y-117481815D01*
X96736377Y-118617622D01*
X96383567Y-118381882D01*
X95880000Y-118281716D01*
X95376434Y-118381882D01*
X94949531Y-118667130D01*
X94664282Y-119094033D01*
X94589400Y-119470489D01*
X94589400Y-120029510D01*
X94664282Y-120405966D01*
X94949530Y-120832870D01*
X95376433Y-121118118D01*
X95880000Y-121218284D01*
X96383566Y-121118118D01*
X96810470Y-120832870D01*
X97095718Y-120405967D01*
X97150000Y-120133073D01*
X97204282Y-120405966D01*
X97489530Y-120832870D01*
X97916433Y-121118118D01*
X98420000Y-121218284D01*
X98923566Y-121118118D01*
X99350470Y-120832870D01*
X99635718Y-120405967D01*
X99690000Y-120133073D01*
X99744282Y-120405966D01*
X100029530Y-120832870D01*
X100456433Y-121118118D01*
X100960000Y-121218284D01*
X101463566Y-121118118D01*
X101890470Y-120832870D01*
X102001400Y-120666852D01*
X102001400Y-120892309D01*
X102098073Y-121125698D01*
X102276701Y-121304327D01*
X102510090Y-121401000D01*
X103214250Y-121401000D01*
X103373000Y-121242250D01*
X103373000Y-119877000D01*
X103353000Y-119877000D01*
X103353000Y-119623000D01*
X103373000Y-119623000D01*
X103373000Y-118257750D01*
X103214250Y-118099000D01*
X102510090Y-118099000D01*
X102276701Y-118195673D01*
X102098073Y-118374302D01*
X102001400Y-118607691D01*
X102001400Y-118833149D01*
X101890470Y-118667130D01*
X101463567Y-118381882D01*
X100960000Y-118281716D01*
X100640789Y-118345211D01*
X102097815Y-116888186D01*
X102145994Y-116855994D01*
X102273522Y-116665134D01*
X102307000Y-116496829D01*
X102307000Y-116496828D01*
X102318304Y-116440000D01*
X102307000Y-116383172D01*
X102307000Y-116028463D01*
X102337850Y-116007850D01*
X102365000Y-115967217D01*
X102392150Y-116007850D01*
X102533393Y-116102225D01*
X102700000Y-116135365D01*
X103300000Y-116135365D01*
X103466607Y-116102225D01*
X103607850Y-116007850D01*
X103635000Y-115967217D01*
X103662150Y-116007850D01*
X103803393Y-116102225D01*
X103970000Y-116135365D01*
X104570000Y-116135365D01*
X104736607Y-116102225D01*
X104863000Y-116017772D01*
X104863001Y-116798218D01*
X104842150Y-116812150D01*
X104747775Y-116953393D01*
X104714635Y-117120000D01*
X104714635Y-118120000D01*
X104731273Y-118203647D01*
X104723299Y-118195673D01*
X104489910Y-118099000D01*
X103785750Y-118099000D01*
X103627000Y-118257750D01*
X103627000Y-119623000D01*
X103647000Y-119623000D01*
X103647000Y-119877000D01*
X103627000Y-119877000D01*
X103627000Y-121242250D01*
X103785750Y-121401000D01*
X104489910Y-121401000D01*
X104723299Y-121304327D01*
X104901927Y-121125698D01*
X104998600Y-120892309D01*
X104998600Y-120285250D01*
X105150000Y-120315365D01*
X106350000Y-120315365D01*
X106516607Y-120282225D01*
X106657850Y-120187850D01*
X106752225Y-120046607D01*
X106766532Y-119974679D01*
X106842150Y-120087850D01*
X106983393Y-120182225D01*
X107150000Y-120215365D01*
X108350000Y-120215365D01*
X108516607Y-120182225D01*
X108657850Y-120087850D01*
X108752225Y-119946607D01*
X108785365Y-119780000D01*
X108785365Y-118780000D01*
X108752225Y-118613393D01*
X108676459Y-118500000D01*
X108752225Y-118386607D01*
X108785365Y-118220000D01*
X108785365Y-117220000D01*
X108752225Y-117053393D01*
X108708090Y-116987340D01*
X108785750Y-117065000D01*
X109226310Y-117065000D01*
X109459699Y-116968327D01*
X109638327Y-116789698D01*
X109735000Y-116556309D01*
X109735000Y-116215750D01*
X109576250Y-116057000D01*
X108627000Y-116057000D01*
X108627000Y-116077000D01*
X108373000Y-116077000D01*
X108373000Y-116057000D01*
X108353000Y-116057000D01*
X108353000Y-115803000D01*
X108373000Y-115803000D01*
X108373000Y-115783000D01*
X108627000Y-115783000D01*
X108627000Y-115803000D01*
X109576250Y-115803000D01*
X109735000Y-115644250D01*
X109735000Y-115303691D01*
X109638327Y-115070302D01*
X109459699Y-114891673D01*
X109396443Y-114865472D01*
X109407850Y-114857850D01*
X109502225Y-114716607D01*
X109535365Y-114550000D01*
X109535365Y-113550000D01*
X109502225Y-113383393D01*
X109407850Y-113242150D01*
X109266607Y-113147775D01*
X109100000Y-113114635D01*
X108082057Y-113114635D01*
X107335863Y-112368442D01*
X107335860Y-112368437D01*
X107298090Y-112311910D01*
X107241563Y-112274140D01*
X106255864Y-111288442D01*
X106218090Y-111231910D01*
X105994152Y-111082280D01*
X105796678Y-111043000D01*
X105796676Y-111043000D01*
X105730000Y-111029737D01*
X105663324Y-111043000D01*
X103450808Y-111043000D01*
X103488089Y-111018090D01*
X103637720Y-110794152D01*
X103673296Y-110615298D01*
X103803393Y-110702225D01*
X103970000Y-110735365D01*
X104570000Y-110735365D01*
X104736607Y-110702225D01*
X104877850Y-110607850D01*
X104905000Y-110567217D01*
X104932150Y-110607850D01*
X105073393Y-110702225D01*
X105240000Y-110735365D01*
X105840000Y-110735365D01*
X106006607Y-110702225D01*
X106011159Y-110699184D01*
X106150301Y-110838327D01*
X106383690Y-110935000D01*
X106524250Y-110935000D01*
X106683000Y-110776250D01*
X106683000Y-109677000D01*
X106937000Y-109677000D01*
X106937000Y-110776250D01*
X107095750Y-110935000D01*
X107236310Y-110935000D01*
X107469699Y-110838327D01*
X107648327Y-110659698D01*
X107745000Y-110426309D01*
X107745000Y-109835750D01*
X107586250Y-109677000D01*
X106937000Y-109677000D01*
X106683000Y-109677000D01*
X106663000Y-109677000D01*
X106663000Y-109423000D01*
X106683000Y-109423000D01*
X106683000Y-108323750D01*
X106937000Y-108323750D01*
X106937000Y-109423000D01*
X107586250Y-109423000D01*
X107745000Y-109264250D01*
X107745000Y-108673691D01*
X107648327Y-108440302D01*
X107469699Y-108261673D01*
X107236310Y-108165000D01*
X107095750Y-108165000D01*
X106937000Y-108323750D01*
X106683000Y-108323750D01*
X106524250Y-108165000D01*
X106383690Y-108165000D01*
X106150301Y-108261673D01*
X106089094Y-108322880D01*
X106083522Y-108294866D01*
X105955994Y-108104006D01*
X105907815Y-108071814D01*
X105188188Y-107352188D01*
X105155994Y-107304006D01*
X104965134Y-107176478D01*
X104809264Y-107145473D01*
X104996718Y-106628721D01*
X104970315Y-106038542D01*
X104795259Y-105615920D01*
X104543958Y-105535647D01*
X103679605Y-106400000D01*
X103693748Y-106414143D01*
X103514143Y-106593748D01*
X103500000Y-106579605D01*
X103485858Y-106593748D01*
X103306253Y-106414143D01*
X103320395Y-106400000D01*
X102456042Y-105535647D01*
X102204741Y-105615920D01*
X102135967Y-105805507D01*
X102082588Y-105676638D01*
X101761992Y-105356042D01*
X102635647Y-105356042D01*
X103500000Y-106220395D01*
X104364353Y-105356042D01*
X104284080Y-105104741D01*
X103728721Y-104903282D01*
X103138542Y-104929685D01*
X102715920Y-105104741D01*
X102635647Y-105356042D01*
X101761992Y-105356042D01*
X101723362Y-105317412D01*
X101254011Y-105123000D01*
X100745989Y-105123000D01*
X100276638Y-105317412D01*
X100000000Y-105594050D01*
X99723362Y-105317412D01*
X99254011Y-105123000D01*
X98745989Y-105123000D01*
X98276638Y-105317412D01*
X97917412Y-105676638D01*
X97750000Y-106080805D01*
X97582588Y-105676638D01*
X97223362Y-105317412D01*
X96754011Y-105123000D01*
X96245989Y-105123000D01*
X95776638Y-105317412D01*
X95417412Y-105676638D01*
X95398208Y-105723000D01*
X94998599Y-105723000D01*
X94917850Y-105602150D01*
X94776607Y-105507775D01*
X94610000Y-105474635D01*
X94365233Y-105474635D01*
X94595665Y-105320665D01*
X94877907Y-104898260D01*
X94952000Y-104525769D01*
X94952000Y-103002000D01*
X96974891Y-103002000D01*
X96836963Y-103139928D01*
X96673000Y-103535771D01*
X96673000Y-103964229D01*
X96836963Y-104360072D01*
X97139928Y-104663037D01*
X97535771Y-104827000D01*
X97964229Y-104827000D01*
X98360072Y-104663037D01*
X98663037Y-104360072D01*
X98827000Y-103964229D01*
X98827000Y-103535771D01*
X98663037Y-103139928D01*
X98525109Y-103002000D01*
X101474891Y-103002000D01*
X101336963Y-103139928D01*
X101173000Y-103535771D01*
X101173000Y-103964229D01*
X101336963Y-104360072D01*
X101639928Y-104663037D01*
X102035771Y-104827000D01*
X102464229Y-104827000D01*
X102860072Y-104663037D01*
X103163037Y-104360072D01*
X103327000Y-103964229D01*
X103327000Y-103535771D01*
X103163037Y-103139928D01*
X103025109Y-103002000D01*
X105048000Y-103002000D01*
X105048000Y-104525769D01*
X105122093Y-104898260D01*
X105404336Y-105320665D01*
X105826741Y-105602907D01*
X106325000Y-105702017D01*
X106823260Y-105602907D01*
X107245665Y-105320665D01*
X107527907Y-104898260D01*
X107602000Y-104525769D01*
X107602000Y-103002000D01*
X109998001Y-103002000D01*
X109998000Y-122498000D01*
X89502000Y-122498000D01*
X89502000Y-103002000D01*
X92398000Y-103002000D01*
X92398000Y-104525769D01*
X92398000Y-104525769D01*
G37*
X92398000Y-104525769D02*
X92472093Y-104898260D01*
X92516444Y-104964635D01*
X91780000Y-104964635D01*
X91613393Y-104997775D01*
X91500000Y-105073541D01*
X91386607Y-104997775D01*
X91220000Y-104964635D01*
X90220000Y-104964635D01*
X90053393Y-104997775D01*
X89912150Y-105092150D01*
X89817775Y-105233393D01*
X89784635Y-105400000D01*
X89784635Y-106600000D01*
X89817775Y-106766607D01*
X89846337Y-106809353D01*
X89842150Y-106812150D01*
X89747775Y-106953393D01*
X89714635Y-107120000D01*
X89714635Y-108120000D01*
X89747775Y-108286607D01*
X89786865Y-108345109D01*
X89611673Y-108520302D01*
X89515000Y-108753691D01*
X89515000Y-109094250D01*
X89673750Y-109253000D01*
X90623000Y-109253000D01*
X90623000Y-109233000D01*
X90877000Y-109233000D01*
X90877000Y-109253000D01*
X91826250Y-109253000D01*
X91985000Y-109094250D01*
X91985000Y-108753691D01*
X91888327Y-108520302D01*
X91713135Y-108345109D01*
X91752225Y-108286607D01*
X91785365Y-108120000D01*
X91785365Y-107120000D01*
X91768058Y-107032990D01*
X91780000Y-107035365D01*
X92544966Y-107035365D01*
X92578322Y-107042000D01*
X92578323Y-107042000D01*
X92645000Y-107055263D01*
X92711676Y-107042000D01*
X93024787Y-107042000D01*
X93082150Y-107127850D01*
X93223393Y-107222225D01*
X93390000Y-107255365D01*
X94610000Y-107255365D01*
X94776607Y-107222225D01*
X94917850Y-107127850D01*
X94951827Y-107077000D01*
X95094010Y-107077000D01*
X95010302Y-107111673D01*
X94831673Y-107290301D01*
X94735000Y-107523690D01*
X94735000Y-107964250D01*
X94893750Y-108123000D01*
X95743000Y-108123000D01*
X95743000Y-108103000D01*
X95997000Y-108103000D01*
X95997000Y-108123000D01*
X96017000Y-108123000D01*
X96017000Y-108377000D01*
X95997000Y-108377000D01*
X95997000Y-108397000D01*
X95743000Y-108397000D01*
X95743000Y-108377000D01*
X94893750Y-108377000D01*
X94735000Y-108535750D01*
X94735000Y-108769499D01*
X94610000Y-108744635D01*
X93390000Y-108744635D01*
X93223393Y-108777775D01*
X93082150Y-108872150D01*
X92987775Y-109013393D01*
X92954635Y-109180000D01*
X92954635Y-109448643D01*
X92934999Y-109444737D01*
X92868323Y-109458000D01*
X92868322Y-109458000D01*
X92670848Y-109497280D01*
X92446910Y-109646910D01*
X92409138Y-109703440D01*
X91899249Y-110213329D01*
X91985000Y-110006309D01*
X91985000Y-109665750D01*
X91826250Y-109507000D01*
X90877000Y-109507000D01*
X90877000Y-110356250D01*
X91035750Y-110515000D01*
X91476310Y-110515000D01*
X91683328Y-110429250D01*
X91397944Y-110714635D01*
X90950000Y-110714635D01*
X90783393Y-110747775D01*
X90642150Y-110842150D01*
X90634528Y-110853557D01*
X90608327Y-110790301D01*
X90429698Y-110611673D01*
X90196309Y-110515000D01*
X90464250Y-110515000D01*
X90623000Y-110356250D01*
X90623000Y-109507000D01*
X89673750Y-109507000D01*
X89515000Y-109665750D01*
X89515000Y-110006309D01*
X89611673Y-110239698D01*
X89790301Y-110418327D01*
X90023690Y-110515000D01*
X89855750Y-110515000D01*
X89697000Y-110673750D01*
X89697000Y-111623000D01*
X89717000Y-111623000D01*
X89717000Y-111877000D01*
X89697000Y-111877000D01*
X89697000Y-112826250D01*
X89855750Y-112985000D01*
X90196309Y-112985000D01*
X90429698Y-112888327D01*
X90608327Y-112709699D01*
X90634528Y-112646443D01*
X90642150Y-112657850D01*
X90773000Y-112745281D01*
X90773001Y-115736119D01*
X90759737Y-115802800D01*
X90800525Y-116007850D01*
X90812281Y-116066952D01*
X90813115Y-116068200D01*
X90813115Y-116852230D01*
X90846255Y-117018837D01*
X90940630Y-117160080D01*
X91081873Y-117254455D01*
X91248480Y-117287595D01*
X92249240Y-117287595D01*
X92280701Y-117281337D01*
X92389922Y-117390557D01*
X92623311Y-117487230D01*
X92964250Y-117487230D01*
X93123000Y-117328480D01*
X93123000Y-116228660D01*
X93103000Y-116228660D01*
X93103000Y-116021390D01*
X93123000Y-116021390D01*
X93123000Y-113277180D01*
X93103000Y-113277180D01*
X93103000Y-113023180D01*
X93123000Y-113023180D01*
X93123000Y-111174060D01*
X93377000Y-111174060D01*
X93377000Y-113023180D01*
X94725740Y-113023180D01*
X94884490Y-112864430D01*
X94884490Y-111524000D01*
X94787817Y-111290611D01*
X94609188Y-111111983D01*
X94375799Y-111015310D01*
X93535750Y-111015310D01*
X93377000Y-111174060D01*
X93123000Y-111174060D01*
X92988181Y-111039241D01*
X93215422Y-110812000D01*
X94066678Y-110812000D01*
X94264152Y-110772720D01*
X94488090Y-110623090D01*
X94553388Y-110525365D01*
X94610000Y-110525365D01*
X94776607Y-110492225D01*
X94917850Y-110397850D01*
X95012225Y-110256607D01*
X95034635Y-110143944D01*
X95034635Y-110850000D01*
X95067775Y-111016607D01*
X95162150Y-111157850D01*
X95293001Y-111245281D01*
X95293000Y-112833322D01*
X95279737Y-112900000D01*
X95293000Y-112966676D01*
X95293000Y-113543324D01*
X95279737Y-113610000D01*
X95293000Y-113676676D01*
X95293000Y-113676677D01*
X95332280Y-113874151D01*
X95481910Y-114098089D01*
X95509186Y-114116315D01*
X95497775Y-114133393D01*
X95476116Y-114242282D01*
X95371910Y-114311910D01*
X95334138Y-114368440D01*
X94854983Y-114847595D01*
X94884490Y-114776360D01*
X94884490Y-114669867D01*
X94898200Y-114624650D01*
X94884490Y-114555724D01*
X94884490Y-113435930D01*
X94725740Y-113277180D01*
X93377000Y-113277180D01*
X93377000Y-116021390D01*
X93397000Y-116021390D01*
X93397000Y-116228660D01*
X93377000Y-116228660D01*
X93377000Y-117328480D01*
X93535750Y-117487230D01*
X93876689Y-117487230D01*
X94110078Y-117390557D01*
X94219299Y-117281337D01*
X94250760Y-117287595D01*
X95251520Y-117287595D01*
X95265000Y-117284914D01*
X95265000Y-117306309D01*
X95361673Y-117539698D01*
X95540301Y-117718327D01*
X95773690Y-117815000D01*
X96214250Y-117815000D01*
X96373000Y-117656250D01*
X96373000Y-116807000D01*
X96627000Y-116807000D01*
X96627000Y-117656250D01*
X96785750Y-117815000D01*
X97226310Y-117815000D01*
X97459699Y-117718327D01*
X97638327Y-117539698D01*
X97735000Y-117306309D01*
X97735000Y-116965750D01*
X97576250Y-116807000D01*
X96627000Y-116807000D01*
X96373000Y-116807000D01*
X96353000Y-116807000D01*
X96353000Y-116553000D01*
X96373000Y-116553000D01*
X96373000Y-116533000D01*
X96627000Y-116533000D01*
X96627000Y-116553000D01*
X97576250Y-116553000D01*
X97735000Y-116394250D01*
X97735000Y-116053691D01*
X97638327Y-115820302D01*
X97459699Y-115641673D01*
X97396443Y-115615472D01*
X97407850Y-115607850D01*
X97502225Y-115466607D01*
X97535365Y-115300000D01*
X97535365Y-114300000D01*
X97518530Y-114215365D01*
X98100000Y-114215365D01*
X98266607Y-114182225D01*
X98407850Y-114087850D01*
X98502225Y-113946607D01*
X98535365Y-113780000D01*
X98535365Y-113500635D01*
X98869001Y-113167000D01*
X101761000Y-113167000D01*
X102423000Y-113829002D01*
X102423000Y-113871537D01*
X102392150Y-113892150D01*
X102365000Y-113932783D01*
X102337850Y-113892150D01*
X102196607Y-113797775D01*
X102030000Y-113764635D01*
X101430000Y-113764635D01*
X101263393Y-113797775D01*
X101122150Y-113892150D01*
X101095000Y-113932783D01*
X101067850Y-113892150D01*
X100926607Y-113797775D01*
X100760000Y-113764635D01*
X100160000Y-113764635D01*
X99993393Y-113797775D01*
X99852150Y-113892150D01*
X99825000Y-113932783D01*
X99797850Y-113892150D01*
X99656607Y-113797775D01*
X99490000Y-113764635D01*
X98890000Y-113764635D01*
X98723393Y-113797775D01*
X98582150Y-113892150D01*
X98487775Y-114033393D01*
X98454635Y-114200000D01*
X98454635Y-115700000D01*
X98487775Y-115866607D01*
X98582150Y-116007850D01*
X98723393Y-116102225D01*
X98890000Y-116135365D01*
X99218634Y-116135365D01*
X98912186Y-116441814D01*
X98912183Y-116441816D01*
X97872189Y-117481811D01*
X97872183Y-117481815D01*
X96736377Y-118617622D01*
X96383567Y-118381882D01*
X95880000Y-118281716D01*
X95376434Y-118381882D01*
X94949531Y-118667130D01*
X94664282Y-119094033D01*
X94589400Y-119470489D01*
X94589400Y-120029510D01*
X94664282Y-120405966D01*
X94949530Y-120832870D01*
X95376433Y-121118118D01*
X95880000Y-121218284D01*
X96383566Y-121118118D01*
X96810470Y-120832870D01*
X97095718Y-120405967D01*
X97150000Y-120133073D01*
X97204282Y-120405966D01*
X97489530Y-120832870D01*
X97916433Y-121118118D01*
X98420000Y-121218284D01*
X98923566Y-121118118D01*
X99350470Y-120832870D01*
X99635718Y-120405967D01*
X99690000Y-120133073D01*
X99744282Y-120405966D01*
X100029530Y-120832870D01*
X100456433Y-121118118D01*
X100960000Y-121218284D01*
X101463566Y-121118118D01*
X101890470Y-120832870D01*
X102001400Y-120666852D01*
X102001400Y-120892309D01*
X102098073Y-121125698D01*
X102276701Y-121304327D01*
X102510090Y-121401000D01*
X103214250Y-121401000D01*
X103373000Y-121242250D01*
X103373000Y-119877000D01*
X103353000Y-119877000D01*
X103353000Y-119623000D01*
X103373000Y-119623000D01*
X103373000Y-118257750D01*
X103214250Y-118099000D01*
X102510090Y-118099000D01*
X102276701Y-118195673D01*
X102098073Y-118374302D01*
X102001400Y-118607691D01*
X102001400Y-118833149D01*
X101890470Y-118667130D01*
X101463567Y-118381882D01*
X100960000Y-118281716D01*
X100640789Y-118345211D01*
X102097815Y-116888186D01*
X102145994Y-116855994D01*
X102273522Y-116665134D01*
X102307000Y-116496829D01*
X102307000Y-116496828D01*
X102318304Y-116440000D01*
X102307000Y-116383172D01*
X102307000Y-116028463D01*
X102337850Y-116007850D01*
X102365000Y-115967217D01*
X102392150Y-116007850D01*
X102533393Y-116102225D01*
X102700000Y-116135365D01*
X103300000Y-116135365D01*
X103466607Y-116102225D01*
X103607850Y-116007850D01*
X103635000Y-115967217D01*
X103662150Y-116007850D01*
X103803393Y-116102225D01*
X103970000Y-116135365D01*
X104570000Y-116135365D01*
X104736607Y-116102225D01*
X104863000Y-116017772D01*
X104863001Y-116798218D01*
X104842150Y-116812150D01*
X104747775Y-116953393D01*
X104714635Y-117120000D01*
X104714635Y-118120000D01*
X104731273Y-118203647D01*
X104723299Y-118195673D01*
X104489910Y-118099000D01*
X103785750Y-118099000D01*
X103627000Y-118257750D01*
X103627000Y-119623000D01*
X103647000Y-119623000D01*
X103647000Y-119877000D01*
X103627000Y-119877000D01*
X103627000Y-121242250D01*
X103785750Y-121401000D01*
X104489910Y-121401000D01*
X104723299Y-121304327D01*
X104901927Y-121125698D01*
X104998600Y-120892309D01*
X104998600Y-120285250D01*
X105150000Y-120315365D01*
X106350000Y-120315365D01*
X106516607Y-120282225D01*
X106657850Y-120187850D01*
X106752225Y-120046607D01*
X106766532Y-119974679D01*
X106842150Y-120087850D01*
X106983393Y-120182225D01*
X107150000Y-120215365D01*
X108350000Y-120215365D01*
X108516607Y-120182225D01*
X108657850Y-120087850D01*
X108752225Y-119946607D01*
X108785365Y-119780000D01*
X108785365Y-118780000D01*
X108752225Y-118613393D01*
X108676459Y-118500000D01*
X108752225Y-118386607D01*
X108785365Y-118220000D01*
X108785365Y-117220000D01*
X108752225Y-117053393D01*
X108708090Y-116987340D01*
X108785750Y-117065000D01*
X109226310Y-117065000D01*
X109459699Y-116968327D01*
X109638327Y-116789698D01*
X109735000Y-116556309D01*
X109735000Y-116215750D01*
X109576250Y-116057000D01*
X108627000Y-116057000D01*
X108627000Y-116077000D01*
X108373000Y-116077000D01*
X108373000Y-116057000D01*
X108353000Y-116057000D01*
X108353000Y-115803000D01*
X108373000Y-115803000D01*
X108373000Y-115783000D01*
X108627000Y-115783000D01*
X108627000Y-115803000D01*
X109576250Y-115803000D01*
X109735000Y-115644250D01*
X109735000Y-115303691D01*
X109638327Y-115070302D01*
X109459699Y-114891673D01*
X109396443Y-114865472D01*
X109407850Y-114857850D01*
X109502225Y-114716607D01*
X109535365Y-114550000D01*
X109535365Y-113550000D01*
X109502225Y-113383393D01*
X109407850Y-113242150D01*
X109266607Y-113147775D01*
X109100000Y-113114635D01*
X108082057Y-113114635D01*
X107335863Y-112368442D01*
X107335860Y-112368437D01*
X107298090Y-112311910D01*
X107241563Y-112274140D01*
X106255864Y-111288442D01*
X106218090Y-111231910D01*
X105994152Y-111082280D01*
X105796678Y-111043000D01*
X105796676Y-111043000D01*
X105730000Y-111029737D01*
X105663324Y-111043000D01*
X103450808Y-111043000D01*
X103488089Y-111018090D01*
X103637720Y-110794152D01*
X103673296Y-110615298D01*
X103803393Y-110702225D01*
X103970000Y-110735365D01*
X104570000Y-110735365D01*
X104736607Y-110702225D01*
X104877850Y-110607850D01*
X104905000Y-110567217D01*
X104932150Y-110607850D01*
X105073393Y-110702225D01*
X105240000Y-110735365D01*
X105840000Y-110735365D01*
X106006607Y-110702225D01*
X106011159Y-110699184D01*
X106150301Y-110838327D01*
X106383690Y-110935000D01*
X106524250Y-110935000D01*
X106683000Y-110776250D01*
X106683000Y-109677000D01*
X106937000Y-109677000D01*
X106937000Y-110776250D01*
X107095750Y-110935000D01*
X107236310Y-110935000D01*
X107469699Y-110838327D01*
X107648327Y-110659698D01*
X107745000Y-110426309D01*
X107745000Y-109835750D01*
X107586250Y-109677000D01*
X106937000Y-109677000D01*
X106683000Y-109677000D01*
X106663000Y-109677000D01*
X106663000Y-109423000D01*
X106683000Y-109423000D01*
X106683000Y-108323750D01*
X106937000Y-108323750D01*
X106937000Y-109423000D01*
X107586250Y-109423000D01*
X107745000Y-109264250D01*
X107745000Y-108673691D01*
X107648327Y-108440302D01*
X107469699Y-108261673D01*
X107236310Y-108165000D01*
X107095750Y-108165000D01*
X106937000Y-108323750D01*
X106683000Y-108323750D01*
X106524250Y-108165000D01*
X106383690Y-108165000D01*
X106150301Y-108261673D01*
X106089094Y-108322880D01*
X106083522Y-108294866D01*
X105955994Y-108104006D01*
X105907815Y-108071814D01*
X105188188Y-107352188D01*
X105155994Y-107304006D01*
X104965134Y-107176478D01*
X104809264Y-107145473D01*
X104996718Y-106628721D01*
X104970315Y-106038542D01*
X104795259Y-105615920D01*
X104543958Y-105535647D01*
X103679605Y-106400000D01*
X103693748Y-106414143D01*
X103514143Y-106593748D01*
X103500000Y-106579605D01*
X103485858Y-106593748D01*
X103306253Y-106414143D01*
X103320395Y-106400000D01*
X102456042Y-105535647D01*
X102204741Y-105615920D01*
X102135967Y-105805507D01*
X102082588Y-105676638D01*
X101761992Y-105356042D01*
X102635647Y-105356042D01*
X103500000Y-106220395D01*
X104364353Y-105356042D01*
X104284080Y-105104741D01*
X103728721Y-104903282D01*
X103138542Y-104929685D01*
X102715920Y-105104741D01*
X102635647Y-105356042D01*
X101761992Y-105356042D01*
X101723362Y-105317412D01*
X101254011Y-105123000D01*
X100745989Y-105123000D01*
X100276638Y-105317412D01*
X100000000Y-105594050D01*
X99723362Y-105317412D01*
X99254011Y-105123000D01*
X98745989Y-105123000D01*
X98276638Y-105317412D01*
X97917412Y-105676638D01*
X97750000Y-106080805D01*
X97582588Y-105676638D01*
X97223362Y-105317412D01*
X96754011Y-105123000D01*
X96245989Y-105123000D01*
X95776638Y-105317412D01*
X95417412Y-105676638D01*
X95398208Y-105723000D01*
X94998599Y-105723000D01*
X94917850Y-105602150D01*
X94776607Y-105507775D01*
X94610000Y-105474635D01*
X94365233Y-105474635D01*
X94595665Y-105320665D01*
X94877907Y-104898260D01*
X94952000Y-104525769D01*
X94952000Y-103002000D01*
X96974891Y-103002000D01*
X96836963Y-103139928D01*
X96673000Y-103535771D01*
X96673000Y-103964229D01*
X96836963Y-104360072D01*
X97139928Y-104663037D01*
X97535771Y-104827000D01*
X97964229Y-104827000D01*
X98360072Y-104663037D01*
X98663037Y-104360072D01*
X98827000Y-103964229D01*
X98827000Y-103535771D01*
X98663037Y-103139928D01*
X98525109Y-103002000D01*
X101474891Y-103002000D01*
X101336963Y-103139928D01*
X101173000Y-103535771D01*
X101173000Y-103964229D01*
X101336963Y-104360072D01*
X101639928Y-104663037D01*
X102035771Y-104827000D01*
X102464229Y-104827000D01*
X102860072Y-104663037D01*
X103163037Y-104360072D01*
X103327000Y-103964229D01*
X103327000Y-103535771D01*
X103163037Y-103139928D01*
X103025109Y-103002000D01*
X105048000Y-103002000D01*
X105048000Y-104525769D01*
X105122093Y-104898260D01*
X105404336Y-105320665D01*
X105826741Y-105602907D01*
X106325000Y-105702017D01*
X106823260Y-105602907D01*
X107245665Y-105320665D01*
X107527907Y-104898260D01*
X107602000Y-104525769D01*
X107602000Y-103002000D01*
X109998001Y-103002000D01*
X109998000Y-122498000D01*
X89502000Y-122498000D01*
X89502000Y-103002000D01*
X92398000Y-103002000D01*
X92398000Y-104525769D01*
G04 #@! TD*
M02*
