M48
;DRILL file {KiCad (5.0.2)-1} date 2019/04/15 19:45:42
;FORMAT={-:-/ absolute / metric / decimal}
FMAT,2
METRIC,TZ
T1C0.600
T2C0.800
T3C0.900
T4C1.000
T5C1.016
T6C1.400
T7C3.000
T8C4.500
%
G90
G05
T1
X166.Y-51.75
X168.Y-51.75
X153.5Y-51.75
X155.5Y-51.75
T2
X187.63Y-54.83
X187.63Y-57.37
X195.25Y-54.83
X195.25Y-57.37
X187.5Y-48.25
X187.5Y-50.79
X195.12Y-48.25
X195.12Y-50.79
T3
X139.71Y-85.25
X142.25Y-85.25
X154.35Y-41.
X154.35Y-43.54
X146.75Y-93.5
X149.29Y-93.5
X166.75Y-40.91
X166.75Y-43.45
X186.Y-42.5
X188.54Y-42.5
X200.25Y-90.
X200.25Y-92.54
T4
X154.75Y-88.
X154.75Y-93.
X142.Y-90.25
X142.Y-92.75
X199.25Y-75.75
X199.25Y-78.25
X172.Y-43.
X174.5Y-43.
X193.25Y-63.25
X193.25Y-65.75
X193.25Y-68.25
X193.25Y-70.75
X170.13Y-61.19
X172.67Y-68.81
X177.75Y-61.19
X187.91Y-61.19
X187.91Y-68.81
X179.5Y-43.
X182.Y-43.
X199.25Y-83.25
X199.25Y-85.75
X191.25Y-88.5
X191.25Y-93.5
T5
X176.5Y-54.25
X176.5Y-56.79
T6
X162.84Y-72.84
X162.84Y-80.46
X162.84Y-85.54
X183.16Y-72.84
X183.16Y-83.
X183.16Y-93.16
T7
X141.25Y-42.75
X141.25Y-98.25
X199.75Y-42.75
X199.75Y-98.25
X141.25Y-74.5
X147.25Y-74.5
X199.75Y-67.
X141.25Y-80.5
X147.25Y-80.5
T8
X148.25Y-44.25
X148.25Y-51.25
X160.75Y-44.25
X160.75Y-51.25
T0
M30
