M48
;DRILL file {KiCad (5.0.2)-1} date 2019/04/29 13:25:18
;FORMAT={-:-/ absolute / metric / decimal}
FMAT,2
METRIC,TZ
T1C0.200
T2C0.600
T3C0.800
T4C0.900
T5C1.000
T6C1.016
T7C1.400
T8C2.000
T9C3.000
T10C4.500
%
G90
G05
T1
X121.6Y-59.
X121.6Y-60.
X121.6Y-61.
X122.9Y-59.
X122.9Y-60.
X122.9Y-61.
X147.1Y-59.
X147.1Y-60.
X147.1Y-61.
X148.4Y-59.
X148.4Y-60.
X148.4Y-61.
T2
X141.Y-48.75
X143.Y-48.75
X166.75Y-48.75
X168.75Y-48.75
T3
X187.5Y-48.25
X187.5Y-50.79
X195.12Y-48.25
X195.12Y-50.79
X187.63Y-54.83
X187.63Y-57.37
X195.25Y-54.83
X195.25Y-57.37
T4
X143.25Y-98.75
X145.79Y-98.75
X127.25Y-55.75
X127.25Y-60.75
X140.75Y-40.96
X140.75Y-43.5
X152.75Y-55.75
X152.75Y-60.75
X186.Y-42.5
X188.54Y-42.5
X166.75Y-40.91
X166.75Y-43.45
X121.21Y-92.
X123.75Y-92.
X200.25Y-90.
X200.25Y-92.54
T5
X170.13Y-61.19
X172.67Y-68.81
X177.75Y-61.19
X187.91Y-61.19
X187.91Y-68.81
X172.Y-37.
X174.5Y-37.
X199.25Y-75.75
X199.25Y-78.25
X191.25Y-88.5
X191.25Y-93.5
X133.25Y-97.75
X135.75Y-97.75
X193.25Y-63.25
X193.25Y-65.75
X193.25Y-68.25
X193.25Y-70.75
X199.25Y-83.25
X199.25Y-85.75
X154.25Y-88.
X154.25Y-93.
X179.5Y-37.
X182.Y-37.
T6
X176.5Y-54.25
X176.5Y-56.79
T7
X163.09Y-72.84
X163.09Y-80.46
X163.09Y-85.54
X183.41Y-72.84
X183.41Y-83.
X183.41Y-93.16
T9
X119.5Y-36.5
X119.5Y-98.25
X199.75Y-36.5
X199.75Y-98.25
X119.74Y-79.75
X125.74Y-79.75
X119.74Y-85.5
X125.74Y-85.5
X199.75Y-67.
T10
X134.75Y-38.25
X134.75Y-45.25
X160.75Y-38.25
X160.75Y-45.25
T8
X148.75Y-83.G85X147.25Y-83.
G05
X156.75Y-83.G85X155.25Y-83.
G05
T0
M30
