G04 #@! TF.GenerationSoftware,KiCad,Pcbnew,(5.0.2)-1*
G04 #@! TF.CreationDate,2019-04-29T13:33:12+09:00*
G04 #@! TF.ProjectId,________,b5fcdc28-fb90-4fa7-9f2e-6b696361645f,rev?*
G04 #@! TF.SameCoordinates,Original*
G04 #@! TF.FileFunction,Copper,L2,Bot*
G04 #@! TF.FilePolarity,Positive*
%FSLAX46Y46*%
G04 Gerber Fmt 4.6, Leading zero omitted, Abs format (unit mm)*
G04 Created by KiCad (PCBNEW (5.0.2)-1) date 2019/04/29 13:33:12*
%MOMM*%
%LPD*%
G01*
G04 APERTURE LIST*
G04 #@! TA.AperFunction,ComponentPad*
%ADD10O,1.500000X2.500000*%
G04 #@! TD*
G04 #@! TA.AperFunction,SMDPad,CuDef*
%ADD11R,1.200000X1.000000*%
G04 #@! TD*
G04 #@! TA.AperFunction,SMDPad,CuDef*
%ADD12R,1.000000X1.200000*%
G04 #@! TD*
G04 #@! TA.AperFunction,ComponentPad*
%ADD13C,1.200000*%
G04 #@! TD*
G04 #@! TA.AperFunction,ComponentPad*
%ADD14R,1.200000X1.200000*%
G04 #@! TD*
G04 #@! TA.AperFunction,SMDPad,CuDef*
%ADD15R,0.950000X1.000000*%
G04 #@! TD*
G04 #@! TA.AperFunction,SMDPad,CuDef*
%ADD16R,3.200000X4.900000*%
G04 #@! TD*
G04 #@! TA.AperFunction,ComponentPad*
%ADD17R,1.800000X1.800000*%
G04 #@! TD*
G04 #@! TA.AperFunction,ComponentPad*
%ADD18C,1.800000*%
G04 #@! TD*
G04 #@! TA.AperFunction,ComponentPad*
%ADD19O,2.032000X2.032000*%
G04 #@! TD*
G04 #@! TA.AperFunction,ComponentPad*
%ADD20R,2.032000X2.032000*%
G04 #@! TD*
G04 #@! TA.AperFunction,ComponentPad*
%ADD21C,6.500000*%
G04 #@! TD*
G04 #@! TA.AperFunction,SMDPad,CuDef*
%ADD22R,0.800000X1.900000*%
G04 #@! TD*
G04 #@! TA.AperFunction,Conductor*
%ADD23C,0.100000*%
G04 #@! TD*
G04 #@! TA.AperFunction,SMDPad,CuDef*
%ADD24C,0.875000*%
G04 #@! TD*
G04 #@! TA.AperFunction,ComponentPad*
%ADD25C,2.000000*%
G04 #@! TD*
G04 #@! TA.AperFunction,ComponentPad*
%ADD26R,2.000000X2.000000*%
G04 #@! TD*
G04 #@! TA.AperFunction,ComponentPad*
%ADD27C,5.000000*%
G04 #@! TD*
G04 #@! TA.AperFunction,ComponentPad*
%ADD28O,2.500000X1.500000*%
G04 #@! TD*
G04 #@! TA.AperFunction,ComponentPad*
%ADD29C,3.000000*%
G04 #@! TD*
G04 #@! TA.AperFunction,ComponentPad*
%ADD30R,1.600000X1.600000*%
G04 #@! TD*
G04 #@! TA.AperFunction,ComponentPad*
%ADD31O,1.600000X1.600000*%
G04 #@! TD*
G04 #@! TA.AperFunction,ComponentPad*
%ADD32O,5.300000X3.800000*%
G04 #@! TD*
G04 #@! TA.AperFunction,ComponentPad*
%ADD33O,5.500000X3.800000*%
G04 #@! TD*
G04 #@! TA.AperFunction,SMDPad,CuDef*
%ADD34R,12.320000X3.825000*%
G04 #@! TD*
G04 #@! TA.AperFunction,SMDPad,CuDef*
%ADD35R,1.500000X2.400000*%
G04 #@! TD*
G04 #@! TA.AperFunction,SMDPad,CuDef*
%ADD36R,1.500000X1.050000*%
G04 #@! TD*
G04 #@! TA.AperFunction,SMDPad,CuDef*
%ADD37R,1.220000X0.910000*%
G04 #@! TD*
G04 #@! TA.AperFunction,SMDPad,CuDef*
%ADD38C,2.290000*%
G04 #@! TD*
G04 #@! TA.AperFunction,ViaPad*
%ADD39C,0.500000*%
G04 #@! TD*
G04 #@! TA.AperFunction,SMDPad,CuDef*
%ADD40C,0.600000*%
G04 #@! TD*
G04 #@! TA.AperFunction,ComponentPad*
%ADD41C,1.400000*%
G04 #@! TD*
G04 #@! TA.AperFunction,ComponentPad*
%ADD42R,1.400000X1.400000*%
G04 #@! TD*
G04 #@! TA.AperFunction,ViaPad*
%ADD43C,6.000000*%
G04 #@! TD*
G04 #@! TA.AperFunction,Conductor*
%ADD44C,0.500000*%
G04 #@! TD*
G04 #@! TA.AperFunction,Conductor*
%ADD45C,1.000000*%
G04 #@! TD*
G04 #@! TA.AperFunction,Conductor*
%ADD46C,0.254000*%
G04 #@! TD*
G04 APERTURE END LIST*
D10*
G04 #@! TO.P,P9,2*
G04 #@! TO.N,Relay_BATT*
X182000000Y-37000000D03*
G04 #@! TO.P,P9,1*
G04 #@! TO.N,Net-(P8-Pad2)*
X179500000Y-37000000D03*
G04 #@! TD*
D11*
G04 #@! TO.P,C3,2*
G04 #@! TO.N,+12V*
X195500000Y-68570000D03*
G04 #@! TO.P,C3,1*
G04 #@! TO.N,GND*
X195500000Y-70450000D03*
G04 #@! TD*
G04 #@! TO.P,C4,1*
G04 #@! TO.N,GND*
X197000000Y-83550000D03*
G04 #@! TO.P,C4,2*
G04 #@! TO.N,+12V*
X197000000Y-85430000D03*
G04 #@! TD*
G04 #@! TO.P,C5,1*
G04 #@! TO.N,GND*
X197000000Y-76050000D03*
G04 #@! TO.P,C5,2*
G04 #@! TO.N,+12V*
X197000000Y-77930000D03*
G04 #@! TD*
D12*
G04 #@! TO.P,C6,1*
G04 #@! TO.N,Net-(C6-Pad1)*
X120800000Y-63750000D03*
G04 #@! TO.P,C6,2*
G04 #@! TO.N,Net-(C6-Pad2)*
X122680000Y-63750000D03*
G04 #@! TD*
G04 #@! TO.P,C7,2*
G04 #@! TO.N,Net-(C7-Pad2)*
X147930000Y-63750000D03*
G04 #@! TO.P,C7,1*
G04 #@! TO.N,Net-(C7-Pad1)*
X146050000Y-63750000D03*
G04 #@! TD*
D13*
G04 #@! TO.P,C10,2*
G04 #@! TO.N,GNDPWR*
X143000000Y-48750000D03*
D14*
G04 #@! TO.P,C10,1*
G04 #@! TO.N,7V_OUTA*
X141000000Y-48750000D03*
G04 #@! TD*
G04 #@! TO.P,C11,1*
G04 #@! TO.N,7V_OUTB*
X166750000Y-48750000D03*
D13*
G04 #@! TO.P,C11,2*
G04 #@! TO.N,GNDPWR*
X168750000Y-48750000D03*
G04 #@! TD*
D15*
G04 #@! TO.P,D1,1*
G04 #@! TO.N,+BATT*
X131470000Y-87850000D03*
D16*
G04 #@! TO.P,D1,3*
G04 #@! TO.N,Net-(D1-Pad3)*
X130500000Y-92200000D03*
D15*
G04 #@! TO.P,D1,2*
G04 #@! TO.N,+BATT*
X129530000Y-87850000D03*
G04 #@! TD*
D17*
G04 #@! TO.P,D2,1*
G04 #@! TO.N,Net-(D2-Pad1)*
X123750000Y-92000000D03*
D18*
G04 #@! TO.P,D2,2*
G04 #@! TO.N,GNDPWR*
X121210000Y-92000000D03*
G04 #@! TD*
G04 #@! TO.P,D3,2*
G04 #@! TO.N,GNDPWR*
X145790000Y-98750000D03*
D17*
G04 #@! TO.P,D3,1*
G04 #@! TO.N,Net-(D3-Pad1)*
X143250000Y-98750000D03*
G04 #@! TD*
G04 #@! TO.P,D4,1*
G04 #@! TO.N,Net-(D4-Pad1)*
X186000000Y-42500000D03*
D18*
G04 #@! TO.P,D4,2*
G04 #@! TO.N,GNDPWR*
X188540000Y-42500000D03*
G04 #@! TD*
G04 #@! TO.P,D5,2*
G04 #@! TO.N,GND*
X200250000Y-92540000D03*
D17*
G04 #@! TO.P,D5,1*
G04 #@! TO.N,Net-(D5-Pad1)*
X200250000Y-90000000D03*
G04 #@! TD*
G04 #@! TO.P,D6,1*
G04 #@! TO.N,Net-(D6-Pad1)*
X140750000Y-43500000D03*
D18*
G04 #@! TO.P,D6,2*
G04 #@! TO.N,GNDPWR*
X140750000Y-40960000D03*
G04 #@! TD*
G04 #@! TO.P,D7,2*
G04 #@! TO.N,GNDPWR*
X166750000Y-40910000D03*
D17*
G04 #@! TO.P,D7,1*
G04 #@! TO.N,Net-(D7-Pad1)*
X166750000Y-43450000D03*
G04 #@! TD*
D19*
G04 #@! TO.P,JP1,2*
G04 #@! TO.N,Relay_OUT*
X176500000Y-56790000D03*
D20*
G04 #@! TO.P,JP1,1*
G04 #@! TO.N,GNDPWR*
X176500000Y-54250000D03*
G04 #@! TD*
D21*
G04 #@! TO.P,P3,2*
G04 #@! TO.N,7V_OUTA*
X134750000Y-45250000D03*
G04 #@! TO.P,P3,1*
G04 #@! TO.N,GNDPWR*
X134750000Y-38250000D03*
G04 #@! TD*
G04 #@! TO.P,P4,1*
G04 #@! TO.N,GNDPWR*
X160750000Y-38250000D03*
G04 #@! TO.P,P4,2*
G04 #@! TO.N,7V_OUTB*
X160750000Y-45250000D03*
G04 #@! TD*
D22*
G04 #@! TO.P,Q1,1*
G04 #@! TO.N,Net-(Q1-Pad1)*
X179300000Y-54000000D03*
G04 #@! TO.P,Q1,2*
G04 #@! TO.N,GNDPWR*
X181200000Y-54000000D03*
G04 #@! TO.P,Q1,3*
G04 #@! TO.N,Relay_OUT*
X180250000Y-57000000D03*
G04 #@! TD*
D23*
G04 #@! TO.N,Net-(IC2-Pad3)*
G04 #@! TO.C,R1*
G36*
X186027691Y-56026053D02*
X186048926Y-56029203D01*
X186069750Y-56034419D01*
X186089962Y-56041651D01*
X186109368Y-56050830D01*
X186127781Y-56061866D01*
X186145024Y-56074654D01*
X186160930Y-56089070D01*
X186175346Y-56104976D01*
X186188134Y-56122219D01*
X186199170Y-56140632D01*
X186208349Y-56160038D01*
X186215581Y-56180250D01*
X186220797Y-56201074D01*
X186223947Y-56222309D01*
X186225000Y-56243750D01*
X186225000Y-56756250D01*
X186223947Y-56777691D01*
X186220797Y-56798926D01*
X186215581Y-56819750D01*
X186208349Y-56839962D01*
X186199170Y-56859368D01*
X186188134Y-56877781D01*
X186175346Y-56895024D01*
X186160930Y-56910930D01*
X186145024Y-56925346D01*
X186127781Y-56938134D01*
X186109368Y-56949170D01*
X186089962Y-56958349D01*
X186069750Y-56965581D01*
X186048926Y-56970797D01*
X186027691Y-56973947D01*
X186006250Y-56975000D01*
X185568750Y-56975000D01*
X185547309Y-56973947D01*
X185526074Y-56970797D01*
X185505250Y-56965581D01*
X185485038Y-56958349D01*
X185465632Y-56949170D01*
X185447219Y-56938134D01*
X185429976Y-56925346D01*
X185414070Y-56910930D01*
X185399654Y-56895024D01*
X185386866Y-56877781D01*
X185375830Y-56859368D01*
X185366651Y-56839962D01*
X185359419Y-56819750D01*
X185354203Y-56798926D01*
X185351053Y-56777691D01*
X185350000Y-56756250D01*
X185350000Y-56243750D01*
X185351053Y-56222309D01*
X185354203Y-56201074D01*
X185359419Y-56180250D01*
X185366651Y-56160038D01*
X185375830Y-56140632D01*
X185386866Y-56122219D01*
X185399654Y-56104976D01*
X185414070Y-56089070D01*
X185429976Y-56074654D01*
X185447219Y-56061866D01*
X185465632Y-56050830D01*
X185485038Y-56041651D01*
X185505250Y-56034419D01*
X185526074Y-56029203D01*
X185547309Y-56026053D01*
X185568750Y-56025000D01*
X186006250Y-56025000D01*
X186027691Y-56026053D01*
X186027691Y-56026053D01*
G37*
D24*
G04 #@! TD*
G04 #@! TO.P,R1,1*
G04 #@! TO.N,Net-(IC2-Pad3)*
X185787500Y-56500000D03*
D23*
G04 #@! TO.N,Net-(Q1-Pad1)*
G04 #@! TO.C,R1*
G36*
X184452691Y-56026053D02*
X184473926Y-56029203D01*
X184494750Y-56034419D01*
X184514962Y-56041651D01*
X184534368Y-56050830D01*
X184552781Y-56061866D01*
X184570024Y-56074654D01*
X184585930Y-56089070D01*
X184600346Y-56104976D01*
X184613134Y-56122219D01*
X184624170Y-56140632D01*
X184633349Y-56160038D01*
X184640581Y-56180250D01*
X184645797Y-56201074D01*
X184648947Y-56222309D01*
X184650000Y-56243750D01*
X184650000Y-56756250D01*
X184648947Y-56777691D01*
X184645797Y-56798926D01*
X184640581Y-56819750D01*
X184633349Y-56839962D01*
X184624170Y-56859368D01*
X184613134Y-56877781D01*
X184600346Y-56895024D01*
X184585930Y-56910930D01*
X184570024Y-56925346D01*
X184552781Y-56938134D01*
X184534368Y-56949170D01*
X184514962Y-56958349D01*
X184494750Y-56965581D01*
X184473926Y-56970797D01*
X184452691Y-56973947D01*
X184431250Y-56975000D01*
X183993750Y-56975000D01*
X183972309Y-56973947D01*
X183951074Y-56970797D01*
X183930250Y-56965581D01*
X183910038Y-56958349D01*
X183890632Y-56949170D01*
X183872219Y-56938134D01*
X183854976Y-56925346D01*
X183839070Y-56910930D01*
X183824654Y-56895024D01*
X183811866Y-56877781D01*
X183800830Y-56859368D01*
X183791651Y-56839962D01*
X183784419Y-56819750D01*
X183779203Y-56798926D01*
X183776053Y-56777691D01*
X183775000Y-56756250D01*
X183775000Y-56243750D01*
X183776053Y-56222309D01*
X183779203Y-56201074D01*
X183784419Y-56180250D01*
X183791651Y-56160038D01*
X183800830Y-56140632D01*
X183811866Y-56122219D01*
X183824654Y-56104976D01*
X183839070Y-56089070D01*
X183854976Y-56074654D01*
X183872219Y-56061866D01*
X183890632Y-56050830D01*
X183910038Y-56041651D01*
X183930250Y-56034419D01*
X183951074Y-56029203D01*
X183972309Y-56026053D01*
X183993750Y-56025000D01*
X184431250Y-56025000D01*
X184452691Y-56026053D01*
X184452691Y-56026053D01*
G37*
D24*
G04 #@! TD*
G04 #@! TO.P,R1,2*
G04 #@! TO.N,Net-(Q1-Pad1)*
X184212500Y-56500000D03*
D23*
G04 #@! TO.N,Net-(IC1-Pad1)*
G04 #@! TO.C,R2*
G36*
X188652691Y-47776053D02*
X188673926Y-47779203D01*
X188694750Y-47784419D01*
X188714962Y-47791651D01*
X188734368Y-47800830D01*
X188752781Y-47811866D01*
X188770024Y-47824654D01*
X188785930Y-47839070D01*
X188800346Y-47854976D01*
X188813134Y-47872219D01*
X188824170Y-47890632D01*
X188833349Y-47910038D01*
X188840581Y-47930250D01*
X188845797Y-47951074D01*
X188848947Y-47972309D01*
X188850000Y-47993750D01*
X188850000Y-48506250D01*
X188848947Y-48527691D01*
X188845797Y-48548926D01*
X188840581Y-48569750D01*
X188833349Y-48589962D01*
X188824170Y-48609368D01*
X188813134Y-48627781D01*
X188800346Y-48645024D01*
X188785930Y-48660930D01*
X188770024Y-48675346D01*
X188752781Y-48688134D01*
X188734368Y-48699170D01*
X188714962Y-48708349D01*
X188694750Y-48715581D01*
X188673926Y-48720797D01*
X188652691Y-48723947D01*
X188631250Y-48725000D01*
X188193750Y-48725000D01*
X188172309Y-48723947D01*
X188151074Y-48720797D01*
X188130250Y-48715581D01*
X188110038Y-48708349D01*
X188090632Y-48699170D01*
X188072219Y-48688134D01*
X188054976Y-48675346D01*
X188039070Y-48660930D01*
X188024654Y-48645024D01*
X188011866Y-48627781D01*
X188000830Y-48609368D01*
X187991651Y-48589962D01*
X187984419Y-48569750D01*
X187979203Y-48548926D01*
X187976053Y-48527691D01*
X187975000Y-48506250D01*
X187975000Y-47993750D01*
X187976053Y-47972309D01*
X187979203Y-47951074D01*
X187984419Y-47930250D01*
X187991651Y-47910038D01*
X188000830Y-47890632D01*
X188011866Y-47872219D01*
X188024654Y-47854976D01*
X188039070Y-47839070D01*
X188054976Y-47824654D01*
X188072219Y-47811866D01*
X188090632Y-47800830D01*
X188110038Y-47791651D01*
X188130250Y-47784419D01*
X188151074Y-47779203D01*
X188172309Y-47776053D01*
X188193750Y-47775000D01*
X188631250Y-47775000D01*
X188652691Y-47776053D01*
X188652691Y-47776053D01*
G37*
D24*
G04 #@! TD*
G04 #@! TO.P,R2,1*
G04 #@! TO.N,Net-(IC1-Pad1)*
X188412500Y-48250000D03*
D23*
G04 #@! TO.N,Relay_BATT*
G04 #@! TO.C,R2*
G36*
X190227691Y-47776053D02*
X190248926Y-47779203D01*
X190269750Y-47784419D01*
X190289962Y-47791651D01*
X190309368Y-47800830D01*
X190327781Y-47811866D01*
X190345024Y-47824654D01*
X190360930Y-47839070D01*
X190375346Y-47854976D01*
X190388134Y-47872219D01*
X190399170Y-47890632D01*
X190408349Y-47910038D01*
X190415581Y-47930250D01*
X190420797Y-47951074D01*
X190423947Y-47972309D01*
X190425000Y-47993750D01*
X190425000Y-48506250D01*
X190423947Y-48527691D01*
X190420797Y-48548926D01*
X190415581Y-48569750D01*
X190408349Y-48589962D01*
X190399170Y-48609368D01*
X190388134Y-48627781D01*
X190375346Y-48645024D01*
X190360930Y-48660930D01*
X190345024Y-48675346D01*
X190327781Y-48688134D01*
X190309368Y-48699170D01*
X190289962Y-48708349D01*
X190269750Y-48715581D01*
X190248926Y-48720797D01*
X190227691Y-48723947D01*
X190206250Y-48725000D01*
X189768750Y-48725000D01*
X189747309Y-48723947D01*
X189726074Y-48720797D01*
X189705250Y-48715581D01*
X189685038Y-48708349D01*
X189665632Y-48699170D01*
X189647219Y-48688134D01*
X189629976Y-48675346D01*
X189614070Y-48660930D01*
X189599654Y-48645024D01*
X189586866Y-48627781D01*
X189575830Y-48609368D01*
X189566651Y-48589962D01*
X189559419Y-48569750D01*
X189554203Y-48548926D01*
X189551053Y-48527691D01*
X189550000Y-48506250D01*
X189550000Y-47993750D01*
X189551053Y-47972309D01*
X189554203Y-47951074D01*
X189559419Y-47930250D01*
X189566651Y-47910038D01*
X189575830Y-47890632D01*
X189586866Y-47872219D01*
X189599654Y-47854976D01*
X189614070Y-47839070D01*
X189629976Y-47824654D01*
X189647219Y-47811866D01*
X189665632Y-47800830D01*
X189685038Y-47791651D01*
X189705250Y-47784419D01*
X189726074Y-47779203D01*
X189747309Y-47776053D01*
X189768750Y-47775000D01*
X190206250Y-47775000D01*
X190227691Y-47776053D01*
X190227691Y-47776053D01*
G37*
D24*
G04 #@! TD*
G04 #@! TO.P,R2,2*
G04 #@! TO.N,Relay_BATT*
X189987500Y-48250000D03*
D23*
G04 #@! TO.N,GNDPWR*
G04 #@! TO.C,R3*
G36*
X184452691Y-54276053D02*
X184473926Y-54279203D01*
X184494750Y-54284419D01*
X184514962Y-54291651D01*
X184534368Y-54300830D01*
X184552781Y-54311866D01*
X184570024Y-54324654D01*
X184585930Y-54339070D01*
X184600346Y-54354976D01*
X184613134Y-54372219D01*
X184624170Y-54390632D01*
X184633349Y-54410038D01*
X184640581Y-54430250D01*
X184645797Y-54451074D01*
X184648947Y-54472309D01*
X184650000Y-54493750D01*
X184650000Y-55006250D01*
X184648947Y-55027691D01*
X184645797Y-55048926D01*
X184640581Y-55069750D01*
X184633349Y-55089962D01*
X184624170Y-55109368D01*
X184613134Y-55127781D01*
X184600346Y-55145024D01*
X184585930Y-55160930D01*
X184570024Y-55175346D01*
X184552781Y-55188134D01*
X184534368Y-55199170D01*
X184514962Y-55208349D01*
X184494750Y-55215581D01*
X184473926Y-55220797D01*
X184452691Y-55223947D01*
X184431250Y-55225000D01*
X183993750Y-55225000D01*
X183972309Y-55223947D01*
X183951074Y-55220797D01*
X183930250Y-55215581D01*
X183910038Y-55208349D01*
X183890632Y-55199170D01*
X183872219Y-55188134D01*
X183854976Y-55175346D01*
X183839070Y-55160930D01*
X183824654Y-55145024D01*
X183811866Y-55127781D01*
X183800830Y-55109368D01*
X183791651Y-55089962D01*
X183784419Y-55069750D01*
X183779203Y-55048926D01*
X183776053Y-55027691D01*
X183775000Y-55006250D01*
X183775000Y-54493750D01*
X183776053Y-54472309D01*
X183779203Y-54451074D01*
X183784419Y-54430250D01*
X183791651Y-54410038D01*
X183800830Y-54390632D01*
X183811866Y-54372219D01*
X183824654Y-54354976D01*
X183839070Y-54339070D01*
X183854976Y-54324654D01*
X183872219Y-54311866D01*
X183890632Y-54300830D01*
X183910038Y-54291651D01*
X183930250Y-54284419D01*
X183951074Y-54279203D01*
X183972309Y-54276053D01*
X183993750Y-54275000D01*
X184431250Y-54275000D01*
X184452691Y-54276053D01*
X184452691Y-54276053D01*
G37*
D24*
G04 #@! TD*
G04 #@! TO.P,R3,1*
G04 #@! TO.N,GNDPWR*
X184212500Y-54750000D03*
D23*
G04 #@! TO.N,Net-(IC2-Pad3)*
G04 #@! TO.C,R3*
G36*
X186027691Y-54276053D02*
X186048926Y-54279203D01*
X186069750Y-54284419D01*
X186089962Y-54291651D01*
X186109368Y-54300830D01*
X186127781Y-54311866D01*
X186145024Y-54324654D01*
X186160930Y-54339070D01*
X186175346Y-54354976D01*
X186188134Y-54372219D01*
X186199170Y-54390632D01*
X186208349Y-54410038D01*
X186215581Y-54430250D01*
X186220797Y-54451074D01*
X186223947Y-54472309D01*
X186225000Y-54493750D01*
X186225000Y-55006250D01*
X186223947Y-55027691D01*
X186220797Y-55048926D01*
X186215581Y-55069750D01*
X186208349Y-55089962D01*
X186199170Y-55109368D01*
X186188134Y-55127781D01*
X186175346Y-55145024D01*
X186160930Y-55160930D01*
X186145024Y-55175346D01*
X186127781Y-55188134D01*
X186109368Y-55199170D01*
X186089962Y-55208349D01*
X186069750Y-55215581D01*
X186048926Y-55220797D01*
X186027691Y-55223947D01*
X186006250Y-55225000D01*
X185568750Y-55225000D01*
X185547309Y-55223947D01*
X185526074Y-55220797D01*
X185505250Y-55215581D01*
X185485038Y-55208349D01*
X185465632Y-55199170D01*
X185447219Y-55188134D01*
X185429976Y-55175346D01*
X185414070Y-55160930D01*
X185399654Y-55145024D01*
X185386866Y-55127781D01*
X185375830Y-55109368D01*
X185366651Y-55089962D01*
X185359419Y-55069750D01*
X185354203Y-55048926D01*
X185351053Y-55027691D01*
X185350000Y-55006250D01*
X185350000Y-54493750D01*
X185351053Y-54472309D01*
X185354203Y-54451074D01*
X185359419Y-54430250D01*
X185366651Y-54410038D01*
X185375830Y-54390632D01*
X185386866Y-54372219D01*
X185399654Y-54354976D01*
X185414070Y-54339070D01*
X185429976Y-54324654D01*
X185447219Y-54311866D01*
X185465632Y-54300830D01*
X185485038Y-54291651D01*
X185505250Y-54284419D01*
X185526074Y-54279203D01*
X185547309Y-54276053D01*
X185568750Y-54275000D01*
X186006250Y-54275000D01*
X186027691Y-54276053D01*
X186027691Y-54276053D01*
G37*
D24*
G04 #@! TD*
G04 #@! TO.P,R3,2*
G04 #@! TO.N,Net-(IC2-Pad3)*
X185787500Y-54750000D03*
D23*
G04 #@! TO.N,GND*
G04 #@! TO.C,R4*
G36*
X197277691Y-52026053D02*
X197298926Y-52029203D01*
X197319750Y-52034419D01*
X197339962Y-52041651D01*
X197359368Y-52050830D01*
X197377781Y-52061866D01*
X197395024Y-52074654D01*
X197410930Y-52089070D01*
X197425346Y-52104976D01*
X197438134Y-52122219D01*
X197449170Y-52140632D01*
X197458349Y-52160038D01*
X197465581Y-52180250D01*
X197470797Y-52201074D01*
X197473947Y-52222309D01*
X197475000Y-52243750D01*
X197475000Y-52681250D01*
X197473947Y-52702691D01*
X197470797Y-52723926D01*
X197465581Y-52744750D01*
X197458349Y-52764962D01*
X197449170Y-52784368D01*
X197438134Y-52802781D01*
X197425346Y-52820024D01*
X197410930Y-52835930D01*
X197395024Y-52850346D01*
X197377781Y-52863134D01*
X197359368Y-52874170D01*
X197339962Y-52883349D01*
X197319750Y-52890581D01*
X197298926Y-52895797D01*
X197277691Y-52898947D01*
X197256250Y-52900000D01*
X196743750Y-52900000D01*
X196722309Y-52898947D01*
X196701074Y-52895797D01*
X196680250Y-52890581D01*
X196660038Y-52883349D01*
X196640632Y-52874170D01*
X196622219Y-52863134D01*
X196604976Y-52850346D01*
X196589070Y-52835930D01*
X196574654Y-52820024D01*
X196561866Y-52802781D01*
X196550830Y-52784368D01*
X196541651Y-52764962D01*
X196534419Y-52744750D01*
X196529203Y-52723926D01*
X196526053Y-52702691D01*
X196525000Y-52681250D01*
X196525000Y-52243750D01*
X196526053Y-52222309D01*
X196529203Y-52201074D01*
X196534419Y-52180250D01*
X196541651Y-52160038D01*
X196550830Y-52140632D01*
X196561866Y-52122219D01*
X196574654Y-52104976D01*
X196589070Y-52089070D01*
X196604976Y-52074654D01*
X196622219Y-52061866D01*
X196640632Y-52050830D01*
X196660038Y-52041651D01*
X196680250Y-52034419D01*
X196701074Y-52029203D01*
X196722309Y-52026053D01*
X196743750Y-52025000D01*
X197256250Y-52025000D01*
X197277691Y-52026053D01*
X197277691Y-52026053D01*
G37*
D24*
G04 #@! TD*
G04 #@! TO.P,R4,2*
G04 #@! TO.N,GND*
X197000000Y-52462500D03*
D23*
G04 #@! TO.N,Net-(IC2-Pad2)*
G04 #@! TO.C,R4*
G36*
X197277691Y-53601053D02*
X197298926Y-53604203D01*
X197319750Y-53609419D01*
X197339962Y-53616651D01*
X197359368Y-53625830D01*
X197377781Y-53636866D01*
X197395024Y-53649654D01*
X197410930Y-53664070D01*
X197425346Y-53679976D01*
X197438134Y-53697219D01*
X197449170Y-53715632D01*
X197458349Y-53735038D01*
X197465581Y-53755250D01*
X197470797Y-53776074D01*
X197473947Y-53797309D01*
X197475000Y-53818750D01*
X197475000Y-54256250D01*
X197473947Y-54277691D01*
X197470797Y-54298926D01*
X197465581Y-54319750D01*
X197458349Y-54339962D01*
X197449170Y-54359368D01*
X197438134Y-54377781D01*
X197425346Y-54395024D01*
X197410930Y-54410930D01*
X197395024Y-54425346D01*
X197377781Y-54438134D01*
X197359368Y-54449170D01*
X197339962Y-54458349D01*
X197319750Y-54465581D01*
X197298926Y-54470797D01*
X197277691Y-54473947D01*
X197256250Y-54475000D01*
X196743750Y-54475000D01*
X196722309Y-54473947D01*
X196701074Y-54470797D01*
X196680250Y-54465581D01*
X196660038Y-54458349D01*
X196640632Y-54449170D01*
X196622219Y-54438134D01*
X196604976Y-54425346D01*
X196589070Y-54410930D01*
X196574654Y-54395024D01*
X196561866Y-54377781D01*
X196550830Y-54359368D01*
X196541651Y-54339962D01*
X196534419Y-54319750D01*
X196529203Y-54298926D01*
X196526053Y-54277691D01*
X196525000Y-54256250D01*
X196525000Y-53818750D01*
X196526053Y-53797309D01*
X196529203Y-53776074D01*
X196534419Y-53755250D01*
X196541651Y-53735038D01*
X196550830Y-53715632D01*
X196561866Y-53697219D01*
X196574654Y-53679976D01*
X196589070Y-53664070D01*
X196604976Y-53649654D01*
X196622219Y-53636866D01*
X196640632Y-53625830D01*
X196660038Y-53616651D01*
X196680250Y-53609419D01*
X196701074Y-53604203D01*
X196722309Y-53601053D01*
X196743750Y-53600000D01*
X197256250Y-53600000D01*
X197277691Y-53601053D01*
X197277691Y-53601053D01*
G37*
D24*
G04 #@! TD*
G04 #@! TO.P,R4,1*
G04 #@! TO.N,Net-(IC2-Pad2)*
X197000000Y-54037500D03*
D23*
G04 #@! TO.N,/Relay_State*
G04 #@! TO.C,R5*
G36*
X197240191Y-50276053D02*
X197261426Y-50279203D01*
X197282250Y-50284419D01*
X197302462Y-50291651D01*
X197321868Y-50300830D01*
X197340281Y-50311866D01*
X197357524Y-50324654D01*
X197373430Y-50339070D01*
X197387846Y-50354976D01*
X197400634Y-50372219D01*
X197411670Y-50390632D01*
X197420849Y-50410038D01*
X197428081Y-50430250D01*
X197433297Y-50451074D01*
X197436447Y-50472309D01*
X197437500Y-50493750D01*
X197437500Y-51006250D01*
X197436447Y-51027691D01*
X197433297Y-51048926D01*
X197428081Y-51069750D01*
X197420849Y-51089962D01*
X197411670Y-51109368D01*
X197400634Y-51127781D01*
X197387846Y-51145024D01*
X197373430Y-51160930D01*
X197357524Y-51175346D01*
X197340281Y-51188134D01*
X197321868Y-51199170D01*
X197302462Y-51208349D01*
X197282250Y-51215581D01*
X197261426Y-51220797D01*
X197240191Y-51223947D01*
X197218750Y-51225000D01*
X196781250Y-51225000D01*
X196759809Y-51223947D01*
X196738574Y-51220797D01*
X196717750Y-51215581D01*
X196697538Y-51208349D01*
X196678132Y-51199170D01*
X196659719Y-51188134D01*
X196642476Y-51175346D01*
X196626570Y-51160930D01*
X196612154Y-51145024D01*
X196599366Y-51127781D01*
X196588330Y-51109368D01*
X196579151Y-51089962D01*
X196571919Y-51069750D01*
X196566703Y-51048926D01*
X196563553Y-51027691D01*
X196562500Y-51006250D01*
X196562500Y-50493750D01*
X196563553Y-50472309D01*
X196566703Y-50451074D01*
X196571919Y-50430250D01*
X196579151Y-50410038D01*
X196588330Y-50390632D01*
X196599366Y-50372219D01*
X196612154Y-50354976D01*
X196626570Y-50339070D01*
X196642476Y-50324654D01*
X196659719Y-50311866D01*
X196678132Y-50300830D01*
X196697538Y-50291651D01*
X196717750Y-50284419D01*
X196738574Y-50279203D01*
X196759809Y-50276053D01*
X196781250Y-50275000D01*
X197218750Y-50275000D01*
X197240191Y-50276053D01*
X197240191Y-50276053D01*
G37*
D24*
G04 #@! TD*
G04 #@! TO.P,R5,2*
G04 #@! TO.N,/Relay_State*
X197000000Y-50750000D03*
D23*
G04 #@! TO.N,GND*
G04 #@! TO.C,R5*
G36*
X198815191Y-50276053D02*
X198836426Y-50279203D01*
X198857250Y-50284419D01*
X198877462Y-50291651D01*
X198896868Y-50300830D01*
X198915281Y-50311866D01*
X198932524Y-50324654D01*
X198948430Y-50339070D01*
X198962846Y-50354976D01*
X198975634Y-50372219D01*
X198986670Y-50390632D01*
X198995849Y-50410038D01*
X199003081Y-50430250D01*
X199008297Y-50451074D01*
X199011447Y-50472309D01*
X199012500Y-50493750D01*
X199012500Y-51006250D01*
X199011447Y-51027691D01*
X199008297Y-51048926D01*
X199003081Y-51069750D01*
X198995849Y-51089962D01*
X198986670Y-51109368D01*
X198975634Y-51127781D01*
X198962846Y-51145024D01*
X198948430Y-51160930D01*
X198932524Y-51175346D01*
X198915281Y-51188134D01*
X198896868Y-51199170D01*
X198877462Y-51208349D01*
X198857250Y-51215581D01*
X198836426Y-51220797D01*
X198815191Y-51223947D01*
X198793750Y-51225000D01*
X198356250Y-51225000D01*
X198334809Y-51223947D01*
X198313574Y-51220797D01*
X198292750Y-51215581D01*
X198272538Y-51208349D01*
X198253132Y-51199170D01*
X198234719Y-51188134D01*
X198217476Y-51175346D01*
X198201570Y-51160930D01*
X198187154Y-51145024D01*
X198174366Y-51127781D01*
X198163330Y-51109368D01*
X198154151Y-51089962D01*
X198146919Y-51069750D01*
X198141703Y-51048926D01*
X198138553Y-51027691D01*
X198137500Y-51006250D01*
X198137500Y-50493750D01*
X198138553Y-50472309D01*
X198141703Y-50451074D01*
X198146919Y-50430250D01*
X198154151Y-50410038D01*
X198163330Y-50390632D01*
X198174366Y-50372219D01*
X198187154Y-50354976D01*
X198201570Y-50339070D01*
X198217476Y-50324654D01*
X198234719Y-50311866D01*
X198253132Y-50300830D01*
X198272538Y-50291651D01*
X198292750Y-50284419D01*
X198313574Y-50279203D01*
X198334809Y-50276053D01*
X198356250Y-50275000D01*
X198793750Y-50275000D01*
X198815191Y-50276053D01*
X198815191Y-50276053D01*
G37*
D24*
G04 #@! TD*
G04 #@! TO.P,R5,1*
G04 #@! TO.N,GND*
X198575000Y-50750000D03*
D23*
G04 #@! TO.N,Net-(D2-Pad1)*
G04 #@! TO.C,R6*
G36*
X124202691Y-89276053D02*
X124223926Y-89279203D01*
X124244750Y-89284419D01*
X124264962Y-89291651D01*
X124284368Y-89300830D01*
X124302781Y-89311866D01*
X124320024Y-89324654D01*
X124335930Y-89339070D01*
X124350346Y-89354976D01*
X124363134Y-89372219D01*
X124374170Y-89390632D01*
X124383349Y-89410038D01*
X124390581Y-89430250D01*
X124395797Y-89451074D01*
X124398947Y-89472309D01*
X124400000Y-89493750D01*
X124400000Y-90006250D01*
X124398947Y-90027691D01*
X124395797Y-90048926D01*
X124390581Y-90069750D01*
X124383349Y-90089962D01*
X124374170Y-90109368D01*
X124363134Y-90127781D01*
X124350346Y-90145024D01*
X124335930Y-90160930D01*
X124320024Y-90175346D01*
X124302781Y-90188134D01*
X124284368Y-90199170D01*
X124264962Y-90208349D01*
X124244750Y-90215581D01*
X124223926Y-90220797D01*
X124202691Y-90223947D01*
X124181250Y-90225000D01*
X123743750Y-90225000D01*
X123722309Y-90223947D01*
X123701074Y-90220797D01*
X123680250Y-90215581D01*
X123660038Y-90208349D01*
X123640632Y-90199170D01*
X123622219Y-90188134D01*
X123604976Y-90175346D01*
X123589070Y-90160930D01*
X123574654Y-90145024D01*
X123561866Y-90127781D01*
X123550830Y-90109368D01*
X123541651Y-90089962D01*
X123534419Y-90069750D01*
X123529203Y-90048926D01*
X123526053Y-90027691D01*
X123525000Y-90006250D01*
X123525000Y-89493750D01*
X123526053Y-89472309D01*
X123529203Y-89451074D01*
X123534419Y-89430250D01*
X123541651Y-89410038D01*
X123550830Y-89390632D01*
X123561866Y-89372219D01*
X123574654Y-89354976D01*
X123589070Y-89339070D01*
X123604976Y-89324654D01*
X123622219Y-89311866D01*
X123640632Y-89300830D01*
X123660038Y-89291651D01*
X123680250Y-89284419D01*
X123701074Y-89279203D01*
X123722309Y-89276053D01*
X123743750Y-89275000D01*
X124181250Y-89275000D01*
X124202691Y-89276053D01*
X124202691Y-89276053D01*
G37*
D24*
G04 #@! TD*
G04 #@! TO.P,R6,1*
G04 #@! TO.N,Net-(D2-Pad1)*
X123962500Y-89750000D03*
D23*
G04 #@! TO.N,+BATT*
G04 #@! TO.C,R6*
G36*
X125777691Y-89276053D02*
X125798926Y-89279203D01*
X125819750Y-89284419D01*
X125839962Y-89291651D01*
X125859368Y-89300830D01*
X125877781Y-89311866D01*
X125895024Y-89324654D01*
X125910930Y-89339070D01*
X125925346Y-89354976D01*
X125938134Y-89372219D01*
X125949170Y-89390632D01*
X125958349Y-89410038D01*
X125965581Y-89430250D01*
X125970797Y-89451074D01*
X125973947Y-89472309D01*
X125975000Y-89493750D01*
X125975000Y-90006250D01*
X125973947Y-90027691D01*
X125970797Y-90048926D01*
X125965581Y-90069750D01*
X125958349Y-90089962D01*
X125949170Y-90109368D01*
X125938134Y-90127781D01*
X125925346Y-90145024D01*
X125910930Y-90160930D01*
X125895024Y-90175346D01*
X125877781Y-90188134D01*
X125859368Y-90199170D01*
X125839962Y-90208349D01*
X125819750Y-90215581D01*
X125798926Y-90220797D01*
X125777691Y-90223947D01*
X125756250Y-90225000D01*
X125318750Y-90225000D01*
X125297309Y-90223947D01*
X125276074Y-90220797D01*
X125255250Y-90215581D01*
X125235038Y-90208349D01*
X125215632Y-90199170D01*
X125197219Y-90188134D01*
X125179976Y-90175346D01*
X125164070Y-90160930D01*
X125149654Y-90145024D01*
X125136866Y-90127781D01*
X125125830Y-90109368D01*
X125116651Y-90089962D01*
X125109419Y-90069750D01*
X125104203Y-90048926D01*
X125101053Y-90027691D01*
X125100000Y-90006250D01*
X125100000Y-89493750D01*
X125101053Y-89472309D01*
X125104203Y-89451074D01*
X125109419Y-89430250D01*
X125116651Y-89410038D01*
X125125830Y-89390632D01*
X125136866Y-89372219D01*
X125149654Y-89354976D01*
X125164070Y-89339070D01*
X125179976Y-89324654D01*
X125197219Y-89311866D01*
X125215632Y-89300830D01*
X125235038Y-89291651D01*
X125255250Y-89284419D01*
X125276074Y-89279203D01*
X125297309Y-89276053D01*
X125318750Y-89275000D01*
X125756250Y-89275000D01*
X125777691Y-89276053D01*
X125777691Y-89276053D01*
G37*
D24*
G04 #@! TD*
G04 #@! TO.P,R6,2*
G04 #@! TO.N,+BATT*
X125537500Y-89750000D03*
D23*
G04 #@! TO.N,4Cell_BATT*
G04 #@! TO.C,R7*
G36*
X139777691Y-97276053D02*
X139798926Y-97279203D01*
X139819750Y-97284419D01*
X139839962Y-97291651D01*
X139859368Y-97300830D01*
X139877781Y-97311866D01*
X139895024Y-97324654D01*
X139910930Y-97339070D01*
X139925346Y-97354976D01*
X139938134Y-97372219D01*
X139949170Y-97390632D01*
X139958349Y-97410038D01*
X139965581Y-97430250D01*
X139970797Y-97451074D01*
X139973947Y-97472309D01*
X139975000Y-97493750D01*
X139975000Y-97931250D01*
X139973947Y-97952691D01*
X139970797Y-97973926D01*
X139965581Y-97994750D01*
X139958349Y-98014962D01*
X139949170Y-98034368D01*
X139938134Y-98052781D01*
X139925346Y-98070024D01*
X139910930Y-98085930D01*
X139895024Y-98100346D01*
X139877781Y-98113134D01*
X139859368Y-98124170D01*
X139839962Y-98133349D01*
X139819750Y-98140581D01*
X139798926Y-98145797D01*
X139777691Y-98148947D01*
X139756250Y-98150000D01*
X139243750Y-98150000D01*
X139222309Y-98148947D01*
X139201074Y-98145797D01*
X139180250Y-98140581D01*
X139160038Y-98133349D01*
X139140632Y-98124170D01*
X139122219Y-98113134D01*
X139104976Y-98100346D01*
X139089070Y-98085930D01*
X139074654Y-98070024D01*
X139061866Y-98052781D01*
X139050830Y-98034368D01*
X139041651Y-98014962D01*
X139034419Y-97994750D01*
X139029203Y-97973926D01*
X139026053Y-97952691D01*
X139025000Y-97931250D01*
X139025000Y-97493750D01*
X139026053Y-97472309D01*
X139029203Y-97451074D01*
X139034419Y-97430250D01*
X139041651Y-97410038D01*
X139050830Y-97390632D01*
X139061866Y-97372219D01*
X139074654Y-97354976D01*
X139089070Y-97339070D01*
X139104976Y-97324654D01*
X139122219Y-97311866D01*
X139140632Y-97300830D01*
X139160038Y-97291651D01*
X139180250Y-97284419D01*
X139201074Y-97279203D01*
X139222309Y-97276053D01*
X139243750Y-97275000D01*
X139756250Y-97275000D01*
X139777691Y-97276053D01*
X139777691Y-97276053D01*
G37*
D24*
G04 #@! TD*
G04 #@! TO.P,R7,2*
G04 #@! TO.N,4Cell_BATT*
X139500000Y-97712500D03*
D23*
G04 #@! TO.N,Net-(D3-Pad1)*
G04 #@! TO.C,R7*
G36*
X139777691Y-98851053D02*
X139798926Y-98854203D01*
X139819750Y-98859419D01*
X139839962Y-98866651D01*
X139859368Y-98875830D01*
X139877781Y-98886866D01*
X139895024Y-98899654D01*
X139910930Y-98914070D01*
X139925346Y-98929976D01*
X139938134Y-98947219D01*
X139949170Y-98965632D01*
X139958349Y-98985038D01*
X139965581Y-99005250D01*
X139970797Y-99026074D01*
X139973947Y-99047309D01*
X139975000Y-99068750D01*
X139975000Y-99506250D01*
X139973947Y-99527691D01*
X139970797Y-99548926D01*
X139965581Y-99569750D01*
X139958349Y-99589962D01*
X139949170Y-99609368D01*
X139938134Y-99627781D01*
X139925346Y-99645024D01*
X139910930Y-99660930D01*
X139895024Y-99675346D01*
X139877781Y-99688134D01*
X139859368Y-99699170D01*
X139839962Y-99708349D01*
X139819750Y-99715581D01*
X139798926Y-99720797D01*
X139777691Y-99723947D01*
X139756250Y-99725000D01*
X139243750Y-99725000D01*
X139222309Y-99723947D01*
X139201074Y-99720797D01*
X139180250Y-99715581D01*
X139160038Y-99708349D01*
X139140632Y-99699170D01*
X139122219Y-99688134D01*
X139104976Y-99675346D01*
X139089070Y-99660930D01*
X139074654Y-99645024D01*
X139061866Y-99627781D01*
X139050830Y-99609368D01*
X139041651Y-99589962D01*
X139034419Y-99569750D01*
X139029203Y-99548926D01*
X139026053Y-99527691D01*
X139025000Y-99506250D01*
X139025000Y-99068750D01*
X139026053Y-99047309D01*
X139029203Y-99026074D01*
X139034419Y-99005250D01*
X139041651Y-98985038D01*
X139050830Y-98965632D01*
X139061866Y-98947219D01*
X139074654Y-98929976D01*
X139089070Y-98914070D01*
X139104976Y-98899654D01*
X139122219Y-98886866D01*
X139140632Y-98875830D01*
X139160038Y-98866651D01*
X139180250Y-98859419D01*
X139201074Y-98854203D01*
X139222309Y-98851053D01*
X139243750Y-98850000D01*
X139756250Y-98850000D01*
X139777691Y-98851053D01*
X139777691Y-98851053D01*
G37*
D24*
G04 #@! TD*
G04 #@! TO.P,R7,1*
G04 #@! TO.N,Net-(D3-Pad1)*
X139500000Y-99287500D03*
D23*
G04 #@! TO.N,Relay_BATT*
G04 #@! TO.C,R8*
G36*
X186277691Y-45601053D02*
X186298926Y-45604203D01*
X186319750Y-45609419D01*
X186339962Y-45616651D01*
X186359368Y-45625830D01*
X186377781Y-45636866D01*
X186395024Y-45649654D01*
X186410930Y-45664070D01*
X186425346Y-45679976D01*
X186438134Y-45697219D01*
X186449170Y-45715632D01*
X186458349Y-45735038D01*
X186465581Y-45755250D01*
X186470797Y-45776074D01*
X186473947Y-45797309D01*
X186475000Y-45818750D01*
X186475000Y-46256250D01*
X186473947Y-46277691D01*
X186470797Y-46298926D01*
X186465581Y-46319750D01*
X186458349Y-46339962D01*
X186449170Y-46359368D01*
X186438134Y-46377781D01*
X186425346Y-46395024D01*
X186410930Y-46410930D01*
X186395024Y-46425346D01*
X186377781Y-46438134D01*
X186359368Y-46449170D01*
X186339962Y-46458349D01*
X186319750Y-46465581D01*
X186298926Y-46470797D01*
X186277691Y-46473947D01*
X186256250Y-46475000D01*
X185743750Y-46475000D01*
X185722309Y-46473947D01*
X185701074Y-46470797D01*
X185680250Y-46465581D01*
X185660038Y-46458349D01*
X185640632Y-46449170D01*
X185622219Y-46438134D01*
X185604976Y-46425346D01*
X185589070Y-46410930D01*
X185574654Y-46395024D01*
X185561866Y-46377781D01*
X185550830Y-46359368D01*
X185541651Y-46339962D01*
X185534419Y-46319750D01*
X185529203Y-46298926D01*
X185526053Y-46277691D01*
X185525000Y-46256250D01*
X185525000Y-45818750D01*
X185526053Y-45797309D01*
X185529203Y-45776074D01*
X185534419Y-45755250D01*
X185541651Y-45735038D01*
X185550830Y-45715632D01*
X185561866Y-45697219D01*
X185574654Y-45679976D01*
X185589070Y-45664070D01*
X185604976Y-45649654D01*
X185622219Y-45636866D01*
X185640632Y-45625830D01*
X185660038Y-45616651D01*
X185680250Y-45609419D01*
X185701074Y-45604203D01*
X185722309Y-45601053D01*
X185743750Y-45600000D01*
X186256250Y-45600000D01*
X186277691Y-45601053D01*
X186277691Y-45601053D01*
G37*
D24*
G04 #@! TD*
G04 #@! TO.P,R8,2*
G04 #@! TO.N,Relay_BATT*
X186000000Y-46037500D03*
D23*
G04 #@! TO.N,Net-(D4-Pad1)*
G04 #@! TO.C,R8*
G36*
X186277691Y-44026053D02*
X186298926Y-44029203D01*
X186319750Y-44034419D01*
X186339962Y-44041651D01*
X186359368Y-44050830D01*
X186377781Y-44061866D01*
X186395024Y-44074654D01*
X186410930Y-44089070D01*
X186425346Y-44104976D01*
X186438134Y-44122219D01*
X186449170Y-44140632D01*
X186458349Y-44160038D01*
X186465581Y-44180250D01*
X186470797Y-44201074D01*
X186473947Y-44222309D01*
X186475000Y-44243750D01*
X186475000Y-44681250D01*
X186473947Y-44702691D01*
X186470797Y-44723926D01*
X186465581Y-44744750D01*
X186458349Y-44764962D01*
X186449170Y-44784368D01*
X186438134Y-44802781D01*
X186425346Y-44820024D01*
X186410930Y-44835930D01*
X186395024Y-44850346D01*
X186377781Y-44863134D01*
X186359368Y-44874170D01*
X186339962Y-44883349D01*
X186319750Y-44890581D01*
X186298926Y-44895797D01*
X186277691Y-44898947D01*
X186256250Y-44900000D01*
X185743750Y-44900000D01*
X185722309Y-44898947D01*
X185701074Y-44895797D01*
X185680250Y-44890581D01*
X185660038Y-44883349D01*
X185640632Y-44874170D01*
X185622219Y-44863134D01*
X185604976Y-44850346D01*
X185589070Y-44835930D01*
X185574654Y-44820024D01*
X185561866Y-44802781D01*
X185550830Y-44784368D01*
X185541651Y-44764962D01*
X185534419Y-44744750D01*
X185529203Y-44723926D01*
X185526053Y-44702691D01*
X185525000Y-44681250D01*
X185525000Y-44243750D01*
X185526053Y-44222309D01*
X185529203Y-44201074D01*
X185534419Y-44180250D01*
X185541651Y-44160038D01*
X185550830Y-44140632D01*
X185561866Y-44122219D01*
X185574654Y-44104976D01*
X185589070Y-44089070D01*
X185604976Y-44074654D01*
X185622219Y-44061866D01*
X185640632Y-44050830D01*
X185660038Y-44041651D01*
X185680250Y-44034419D01*
X185701074Y-44029203D01*
X185722309Y-44026053D01*
X185743750Y-44025000D01*
X186256250Y-44025000D01*
X186277691Y-44026053D01*
X186277691Y-44026053D01*
G37*
D24*
G04 #@! TD*
G04 #@! TO.P,R8,1*
G04 #@! TO.N,Net-(D4-Pad1)*
X186000000Y-44462500D03*
D23*
G04 #@! TO.N,Net-(D5-Pad1)*
G04 #@! TO.C,R9*
G36*
X197527691Y-88026053D02*
X197548926Y-88029203D01*
X197569750Y-88034419D01*
X197589962Y-88041651D01*
X197609368Y-88050830D01*
X197627781Y-88061866D01*
X197645024Y-88074654D01*
X197660930Y-88089070D01*
X197675346Y-88104976D01*
X197688134Y-88122219D01*
X197699170Y-88140632D01*
X197708349Y-88160038D01*
X197715581Y-88180250D01*
X197720797Y-88201074D01*
X197723947Y-88222309D01*
X197725000Y-88243750D01*
X197725000Y-88756250D01*
X197723947Y-88777691D01*
X197720797Y-88798926D01*
X197715581Y-88819750D01*
X197708349Y-88839962D01*
X197699170Y-88859368D01*
X197688134Y-88877781D01*
X197675346Y-88895024D01*
X197660930Y-88910930D01*
X197645024Y-88925346D01*
X197627781Y-88938134D01*
X197609368Y-88949170D01*
X197589962Y-88958349D01*
X197569750Y-88965581D01*
X197548926Y-88970797D01*
X197527691Y-88973947D01*
X197506250Y-88975000D01*
X197068750Y-88975000D01*
X197047309Y-88973947D01*
X197026074Y-88970797D01*
X197005250Y-88965581D01*
X196985038Y-88958349D01*
X196965632Y-88949170D01*
X196947219Y-88938134D01*
X196929976Y-88925346D01*
X196914070Y-88910930D01*
X196899654Y-88895024D01*
X196886866Y-88877781D01*
X196875830Y-88859368D01*
X196866651Y-88839962D01*
X196859419Y-88819750D01*
X196854203Y-88798926D01*
X196851053Y-88777691D01*
X196850000Y-88756250D01*
X196850000Y-88243750D01*
X196851053Y-88222309D01*
X196854203Y-88201074D01*
X196859419Y-88180250D01*
X196866651Y-88160038D01*
X196875830Y-88140632D01*
X196886866Y-88122219D01*
X196899654Y-88104976D01*
X196914070Y-88089070D01*
X196929976Y-88074654D01*
X196947219Y-88061866D01*
X196965632Y-88050830D01*
X196985038Y-88041651D01*
X197005250Y-88034419D01*
X197026074Y-88029203D01*
X197047309Y-88026053D01*
X197068750Y-88025000D01*
X197506250Y-88025000D01*
X197527691Y-88026053D01*
X197527691Y-88026053D01*
G37*
D24*
G04 #@! TD*
G04 #@! TO.P,R9,1*
G04 #@! TO.N,Net-(D5-Pad1)*
X197287500Y-88500000D03*
D23*
G04 #@! TO.N,+12V*
G04 #@! TO.C,R9*
G36*
X195952691Y-88026053D02*
X195973926Y-88029203D01*
X195994750Y-88034419D01*
X196014962Y-88041651D01*
X196034368Y-88050830D01*
X196052781Y-88061866D01*
X196070024Y-88074654D01*
X196085930Y-88089070D01*
X196100346Y-88104976D01*
X196113134Y-88122219D01*
X196124170Y-88140632D01*
X196133349Y-88160038D01*
X196140581Y-88180250D01*
X196145797Y-88201074D01*
X196148947Y-88222309D01*
X196150000Y-88243750D01*
X196150000Y-88756250D01*
X196148947Y-88777691D01*
X196145797Y-88798926D01*
X196140581Y-88819750D01*
X196133349Y-88839962D01*
X196124170Y-88859368D01*
X196113134Y-88877781D01*
X196100346Y-88895024D01*
X196085930Y-88910930D01*
X196070024Y-88925346D01*
X196052781Y-88938134D01*
X196034368Y-88949170D01*
X196014962Y-88958349D01*
X195994750Y-88965581D01*
X195973926Y-88970797D01*
X195952691Y-88973947D01*
X195931250Y-88975000D01*
X195493750Y-88975000D01*
X195472309Y-88973947D01*
X195451074Y-88970797D01*
X195430250Y-88965581D01*
X195410038Y-88958349D01*
X195390632Y-88949170D01*
X195372219Y-88938134D01*
X195354976Y-88925346D01*
X195339070Y-88910930D01*
X195324654Y-88895024D01*
X195311866Y-88877781D01*
X195300830Y-88859368D01*
X195291651Y-88839962D01*
X195284419Y-88819750D01*
X195279203Y-88798926D01*
X195276053Y-88777691D01*
X195275000Y-88756250D01*
X195275000Y-88243750D01*
X195276053Y-88222309D01*
X195279203Y-88201074D01*
X195284419Y-88180250D01*
X195291651Y-88160038D01*
X195300830Y-88140632D01*
X195311866Y-88122219D01*
X195324654Y-88104976D01*
X195339070Y-88089070D01*
X195354976Y-88074654D01*
X195372219Y-88061866D01*
X195390632Y-88050830D01*
X195410038Y-88041651D01*
X195430250Y-88034419D01*
X195451074Y-88029203D01*
X195472309Y-88026053D01*
X195493750Y-88025000D01*
X195931250Y-88025000D01*
X195952691Y-88026053D01*
X195952691Y-88026053D01*
G37*
D24*
G04 #@! TD*
G04 #@! TO.P,R9,2*
G04 #@! TO.N,+12V*
X195712500Y-88500000D03*
D23*
G04 #@! TO.N,7V_OUTA*
G04 #@! TO.C,R10*
G36*
X141027691Y-46351053D02*
X141048926Y-46354203D01*
X141069750Y-46359419D01*
X141089962Y-46366651D01*
X141109368Y-46375830D01*
X141127781Y-46386866D01*
X141145024Y-46399654D01*
X141160930Y-46414070D01*
X141175346Y-46429976D01*
X141188134Y-46447219D01*
X141199170Y-46465632D01*
X141208349Y-46485038D01*
X141215581Y-46505250D01*
X141220797Y-46526074D01*
X141223947Y-46547309D01*
X141225000Y-46568750D01*
X141225000Y-47006250D01*
X141223947Y-47027691D01*
X141220797Y-47048926D01*
X141215581Y-47069750D01*
X141208349Y-47089962D01*
X141199170Y-47109368D01*
X141188134Y-47127781D01*
X141175346Y-47145024D01*
X141160930Y-47160930D01*
X141145024Y-47175346D01*
X141127781Y-47188134D01*
X141109368Y-47199170D01*
X141089962Y-47208349D01*
X141069750Y-47215581D01*
X141048926Y-47220797D01*
X141027691Y-47223947D01*
X141006250Y-47225000D01*
X140493750Y-47225000D01*
X140472309Y-47223947D01*
X140451074Y-47220797D01*
X140430250Y-47215581D01*
X140410038Y-47208349D01*
X140390632Y-47199170D01*
X140372219Y-47188134D01*
X140354976Y-47175346D01*
X140339070Y-47160930D01*
X140324654Y-47145024D01*
X140311866Y-47127781D01*
X140300830Y-47109368D01*
X140291651Y-47089962D01*
X140284419Y-47069750D01*
X140279203Y-47048926D01*
X140276053Y-47027691D01*
X140275000Y-47006250D01*
X140275000Y-46568750D01*
X140276053Y-46547309D01*
X140279203Y-46526074D01*
X140284419Y-46505250D01*
X140291651Y-46485038D01*
X140300830Y-46465632D01*
X140311866Y-46447219D01*
X140324654Y-46429976D01*
X140339070Y-46414070D01*
X140354976Y-46399654D01*
X140372219Y-46386866D01*
X140390632Y-46375830D01*
X140410038Y-46366651D01*
X140430250Y-46359419D01*
X140451074Y-46354203D01*
X140472309Y-46351053D01*
X140493750Y-46350000D01*
X141006250Y-46350000D01*
X141027691Y-46351053D01*
X141027691Y-46351053D01*
G37*
D24*
G04 #@! TD*
G04 #@! TO.P,R10,2*
G04 #@! TO.N,7V_OUTA*
X140750000Y-46787500D03*
D23*
G04 #@! TO.N,Net-(D6-Pad1)*
G04 #@! TO.C,R10*
G36*
X141027691Y-44776053D02*
X141048926Y-44779203D01*
X141069750Y-44784419D01*
X141089962Y-44791651D01*
X141109368Y-44800830D01*
X141127781Y-44811866D01*
X141145024Y-44824654D01*
X141160930Y-44839070D01*
X141175346Y-44854976D01*
X141188134Y-44872219D01*
X141199170Y-44890632D01*
X141208349Y-44910038D01*
X141215581Y-44930250D01*
X141220797Y-44951074D01*
X141223947Y-44972309D01*
X141225000Y-44993750D01*
X141225000Y-45431250D01*
X141223947Y-45452691D01*
X141220797Y-45473926D01*
X141215581Y-45494750D01*
X141208349Y-45514962D01*
X141199170Y-45534368D01*
X141188134Y-45552781D01*
X141175346Y-45570024D01*
X141160930Y-45585930D01*
X141145024Y-45600346D01*
X141127781Y-45613134D01*
X141109368Y-45624170D01*
X141089962Y-45633349D01*
X141069750Y-45640581D01*
X141048926Y-45645797D01*
X141027691Y-45648947D01*
X141006250Y-45650000D01*
X140493750Y-45650000D01*
X140472309Y-45648947D01*
X140451074Y-45645797D01*
X140430250Y-45640581D01*
X140410038Y-45633349D01*
X140390632Y-45624170D01*
X140372219Y-45613134D01*
X140354976Y-45600346D01*
X140339070Y-45585930D01*
X140324654Y-45570024D01*
X140311866Y-45552781D01*
X140300830Y-45534368D01*
X140291651Y-45514962D01*
X140284419Y-45494750D01*
X140279203Y-45473926D01*
X140276053Y-45452691D01*
X140275000Y-45431250D01*
X140275000Y-44993750D01*
X140276053Y-44972309D01*
X140279203Y-44951074D01*
X140284419Y-44930250D01*
X140291651Y-44910038D01*
X140300830Y-44890632D01*
X140311866Y-44872219D01*
X140324654Y-44854976D01*
X140339070Y-44839070D01*
X140354976Y-44824654D01*
X140372219Y-44811866D01*
X140390632Y-44800830D01*
X140410038Y-44791651D01*
X140430250Y-44784419D01*
X140451074Y-44779203D01*
X140472309Y-44776053D01*
X140493750Y-44775000D01*
X141006250Y-44775000D01*
X141027691Y-44776053D01*
X141027691Y-44776053D01*
G37*
D24*
G04 #@! TD*
G04 #@! TO.P,R10,1*
G04 #@! TO.N,Net-(D6-Pad1)*
X140750000Y-45212500D03*
D23*
G04 #@! TO.N,Net-(D7-Pad1)*
G04 #@! TO.C,R11*
G36*
X167027691Y-44776053D02*
X167048926Y-44779203D01*
X167069750Y-44784419D01*
X167089962Y-44791651D01*
X167109368Y-44800830D01*
X167127781Y-44811866D01*
X167145024Y-44824654D01*
X167160930Y-44839070D01*
X167175346Y-44854976D01*
X167188134Y-44872219D01*
X167199170Y-44890632D01*
X167208349Y-44910038D01*
X167215581Y-44930250D01*
X167220797Y-44951074D01*
X167223947Y-44972309D01*
X167225000Y-44993750D01*
X167225000Y-45431250D01*
X167223947Y-45452691D01*
X167220797Y-45473926D01*
X167215581Y-45494750D01*
X167208349Y-45514962D01*
X167199170Y-45534368D01*
X167188134Y-45552781D01*
X167175346Y-45570024D01*
X167160930Y-45585930D01*
X167145024Y-45600346D01*
X167127781Y-45613134D01*
X167109368Y-45624170D01*
X167089962Y-45633349D01*
X167069750Y-45640581D01*
X167048926Y-45645797D01*
X167027691Y-45648947D01*
X167006250Y-45650000D01*
X166493750Y-45650000D01*
X166472309Y-45648947D01*
X166451074Y-45645797D01*
X166430250Y-45640581D01*
X166410038Y-45633349D01*
X166390632Y-45624170D01*
X166372219Y-45613134D01*
X166354976Y-45600346D01*
X166339070Y-45585930D01*
X166324654Y-45570024D01*
X166311866Y-45552781D01*
X166300830Y-45534368D01*
X166291651Y-45514962D01*
X166284419Y-45494750D01*
X166279203Y-45473926D01*
X166276053Y-45452691D01*
X166275000Y-45431250D01*
X166275000Y-44993750D01*
X166276053Y-44972309D01*
X166279203Y-44951074D01*
X166284419Y-44930250D01*
X166291651Y-44910038D01*
X166300830Y-44890632D01*
X166311866Y-44872219D01*
X166324654Y-44854976D01*
X166339070Y-44839070D01*
X166354976Y-44824654D01*
X166372219Y-44811866D01*
X166390632Y-44800830D01*
X166410038Y-44791651D01*
X166430250Y-44784419D01*
X166451074Y-44779203D01*
X166472309Y-44776053D01*
X166493750Y-44775000D01*
X167006250Y-44775000D01*
X167027691Y-44776053D01*
X167027691Y-44776053D01*
G37*
D24*
G04 #@! TD*
G04 #@! TO.P,R11,1*
G04 #@! TO.N,Net-(D7-Pad1)*
X166750000Y-45212500D03*
D23*
G04 #@! TO.N,7V_OUTB*
G04 #@! TO.C,R11*
G36*
X167027691Y-46351053D02*
X167048926Y-46354203D01*
X167069750Y-46359419D01*
X167089962Y-46366651D01*
X167109368Y-46375830D01*
X167127781Y-46386866D01*
X167145024Y-46399654D01*
X167160930Y-46414070D01*
X167175346Y-46429976D01*
X167188134Y-46447219D01*
X167199170Y-46465632D01*
X167208349Y-46485038D01*
X167215581Y-46505250D01*
X167220797Y-46526074D01*
X167223947Y-46547309D01*
X167225000Y-46568750D01*
X167225000Y-47006250D01*
X167223947Y-47027691D01*
X167220797Y-47048926D01*
X167215581Y-47069750D01*
X167208349Y-47089962D01*
X167199170Y-47109368D01*
X167188134Y-47127781D01*
X167175346Y-47145024D01*
X167160930Y-47160930D01*
X167145024Y-47175346D01*
X167127781Y-47188134D01*
X167109368Y-47199170D01*
X167089962Y-47208349D01*
X167069750Y-47215581D01*
X167048926Y-47220797D01*
X167027691Y-47223947D01*
X167006250Y-47225000D01*
X166493750Y-47225000D01*
X166472309Y-47223947D01*
X166451074Y-47220797D01*
X166430250Y-47215581D01*
X166410038Y-47208349D01*
X166390632Y-47199170D01*
X166372219Y-47188134D01*
X166354976Y-47175346D01*
X166339070Y-47160930D01*
X166324654Y-47145024D01*
X166311866Y-47127781D01*
X166300830Y-47109368D01*
X166291651Y-47089962D01*
X166284419Y-47069750D01*
X166279203Y-47048926D01*
X166276053Y-47027691D01*
X166275000Y-47006250D01*
X166275000Y-46568750D01*
X166276053Y-46547309D01*
X166279203Y-46526074D01*
X166284419Y-46505250D01*
X166291651Y-46485038D01*
X166300830Y-46465632D01*
X166311866Y-46447219D01*
X166324654Y-46429976D01*
X166339070Y-46414070D01*
X166354976Y-46399654D01*
X166372219Y-46386866D01*
X166390632Y-46375830D01*
X166410038Y-46366651D01*
X166430250Y-46359419D01*
X166451074Y-46354203D01*
X166472309Y-46351053D01*
X166493750Y-46350000D01*
X167006250Y-46350000D01*
X167027691Y-46351053D01*
X167027691Y-46351053D01*
G37*
D24*
G04 #@! TD*
G04 #@! TO.P,R11,2*
G04 #@! TO.N,7V_OUTB*
X166750000Y-46787500D03*
D23*
G04 #@! TO.N,/FB_A*
G04 #@! TO.C,R12*
G36*
X119952691Y-54026053D02*
X119973926Y-54029203D01*
X119994750Y-54034419D01*
X120014962Y-54041651D01*
X120034368Y-54050830D01*
X120052781Y-54061866D01*
X120070024Y-54074654D01*
X120085930Y-54089070D01*
X120100346Y-54104976D01*
X120113134Y-54122219D01*
X120124170Y-54140632D01*
X120133349Y-54160038D01*
X120140581Y-54180250D01*
X120145797Y-54201074D01*
X120148947Y-54222309D01*
X120150000Y-54243750D01*
X120150000Y-54756250D01*
X120148947Y-54777691D01*
X120145797Y-54798926D01*
X120140581Y-54819750D01*
X120133349Y-54839962D01*
X120124170Y-54859368D01*
X120113134Y-54877781D01*
X120100346Y-54895024D01*
X120085930Y-54910930D01*
X120070024Y-54925346D01*
X120052781Y-54938134D01*
X120034368Y-54949170D01*
X120014962Y-54958349D01*
X119994750Y-54965581D01*
X119973926Y-54970797D01*
X119952691Y-54973947D01*
X119931250Y-54975000D01*
X119493750Y-54975000D01*
X119472309Y-54973947D01*
X119451074Y-54970797D01*
X119430250Y-54965581D01*
X119410038Y-54958349D01*
X119390632Y-54949170D01*
X119372219Y-54938134D01*
X119354976Y-54925346D01*
X119339070Y-54910930D01*
X119324654Y-54895024D01*
X119311866Y-54877781D01*
X119300830Y-54859368D01*
X119291651Y-54839962D01*
X119284419Y-54819750D01*
X119279203Y-54798926D01*
X119276053Y-54777691D01*
X119275000Y-54756250D01*
X119275000Y-54243750D01*
X119276053Y-54222309D01*
X119279203Y-54201074D01*
X119284419Y-54180250D01*
X119291651Y-54160038D01*
X119300830Y-54140632D01*
X119311866Y-54122219D01*
X119324654Y-54104976D01*
X119339070Y-54089070D01*
X119354976Y-54074654D01*
X119372219Y-54061866D01*
X119390632Y-54050830D01*
X119410038Y-54041651D01*
X119430250Y-54034419D01*
X119451074Y-54029203D01*
X119472309Y-54026053D01*
X119493750Y-54025000D01*
X119931250Y-54025000D01*
X119952691Y-54026053D01*
X119952691Y-54026053D01*
G37*
D24*
G04 #@! TD*
G04 #@! TO.P,R12,2*
G04 #@! TO.N,/FB_A*
X119712500Y-54500000D03*
D23*
G04 #@! TO.N,7V_OUTA*
G04 #@! TO.C,R12*
G36*
X121527691Y-54026053D02*
X121548926Y-54029203D01*
X121569750Y-54034419D01*
X121589962Y-54041651D01*
X121609368Y-54050830D01*
X121627781Y-54061866D01*
X121645024Y-54074654D01*
X121660930Y-54089070D01*
X121675346Y-54104976D01*
X121688134Y-54122219D01*
X121699170Y-54140632D01*
X121708349Y-54160038D01*
X121715581Y-54180250D01*
X121720797Y-54201074D01*
X121723947Y-54222309D01*
X121725000Y-54243750D01*
X121725000Y-54756250D01*
X121723947Y-54777691D01*
X121720797Y-54798926D01*
X121715581Y-54819750D01*
X121708349Y-54839962D01*
X121699170Y-54859368D01*
X121688134Y-54877781D01*
X121675346Y-54895024D01*
X121660930Y-54910930D01*
X121645024Y-54925346D01*
X121627781Y-54938134D01*
X121609368Y-54949170D01*
X121589962Y-54958349D01*
X121569750Y-54965581D01*
X121548926Y-54970797D01*
X121527691Y-54973947D01*
X121506250Y-54975000D01*
X121068750Y-54975000D01*
X121047309Y-54973947D01*
X121026074Y-54970797D01*
X121005250Y-54965581D01*
X120985038Y-54958349D01*
X120965632Y-54949170D01*
X120947219Y-54938134D01*
X120929976Y-54925346D01*
X120914070Y-54910930D01*
X120899654Y-54895024D01*
X120886866Y-54877781D01*
X120875830Y-54859368D01*
X120866651Y-54839962D01*
X120859419Y-54819750D01*
X120854203Y-54798926D01*
X120851053Y-54777691D01*
X120850000Y-54756250D01*
X120850000Y-54243750D01*
X120851053Y-54222309D01*
X120854203Y-54201074D01*
X120859419Y-54180250D01*
X120866651Y-54160038D01*
X120875830Y-54140632D01*
X120886866Y-54122219D01*
X120899654Y-54104976D01*
X120914070Y-54089070D01*
X120929976Y-54074654D01*
X120947219Y-54061866D01*
X120965632Y-54050830D01*
X120985038Y-54041651D01*
X121005250Y-54034419D01*
X121026074Y-54029203D01*
X121047309Y-54026053D01*
X121068750Y-54025000D01*
X121506250Y-54025000D01*
X121527691Y-54026053D01*
X121527691Y-54026053D01*
G37*
D24*
G04 #@! TD*
G04 #@! TO.P,R12,1*
G04 #@! TO.N,7V_OUTA*
X121287500Y-54500000D03*
D23*
G04 #@! TO.N,/FB_A*
G04 #@! TO.C,R13*
G36*
X119952691Y-55776053D02*
X119973926Y-55779203D01*
X119994750Y-55784419D01*
X120014962Y-55791651D01*
X120034368Y-55800830D01*
X120052781Y-55811866D01*
X120070024Y-55824654D01*
X120085930Y-55839070D01*
X120100346Y-55854976D01*
X120113134Y-55872219D01*
X120124170Y-55890632D01*
X120133349Y-55910038D01*
X120140581Y-55930250D01*
X120145797Y-55951074D01*
X120148947Y-55972309D01*
X120150000Y-55993750D01*
X120150000Y-56506250D01*
X120148947Y-56527691D01*
X120145797Y-56548926D01*
X120140581Y-56569750D01*
X120133349Y-56589962D01*
X120124170Y-56609368D01*
X120113134Y-56627781D01*
X120100346Y-56645024D01*
X120085930Y-56660930D01*
X120070024Y-56675346D01*
X120052781Y-56688134D01*
X120034368Y-56699170D01*
X120014962Y-56708349D01*
X119994750Y-56715581D01*
X119973926Y-56720797D01*
X119952691Y-56723947D01*
X119931250Y-56725000D01*
X119493750Y-56725000D01*
X119472309Y-56723947D01*
X119451074Y-56720797D01*
X119430250Y-56715581D01*
X119410038Y-56708349D01*
X119390632Y-56699170D01*
X119372219Y-56688134D01*
X119354976Y-56675346D01*
X119339070Y-56660930D01*
X119324654Y-56645024D01*
X119311866Y-56627781D01*
X119300830Y-56609368D01*
X119291651Y-56589962D01*
X119284419Y-56569750D01*
X119279203Y-56548926D01*
X119276053Y-56527691D01*
X119275000Y-56506250D01*
X119275000Y-55993750D01*
X119276053Y-55972309D01*
X119279203Y-55951074D01*
X119284419Y-55930250D01*
X119291651Y-55910038D01*
X119300830Y-55890632D01*
X119311866Y-55872219D01*
X119324654Y-55854976D01*
X119339070Y-55839070D01*
X119354976Y-55824654D01*
X119372219Y-55811866D01*
X119390632Y-55800830D01*
X119410038Y-55791651D01*
X119430250Y-55784419D01*
X119451074Y-55779203D01*
X119472309Y-55776053D01*
X119493750Y-55775000D01*
X119931250Y-55775000D01*
X119952691Y-55776053D01*
X119952691Y-55776053D01*
G37*
D24*
G04 #@! TD*
G04 #@! TO.P,R13,1*
G04 #@! TO.N,/FB_A*
X119712500Y-56250000D03*
D23*
G04 #@! TO.N,GNDPWR*
G04 #@! TO.C,R13*
G36*
X121527691Y-55776053D02*
X121548926Y-55779203D01*
X121569750Y-55784419D01*
X121589962Y-55791651D01*
X121609368Y-55800830D01*
X121627781Y-55811866D01*
X121645024Y-55824654D01*
X121660930Y-55839070D01*
X121675346Y-55854976D01*
X121688134Y-55872219D01*
X121699170Y-55890632D01*
X121708349Y-55910038D01*
X121715581Y-55930250D01*
X121720797Y-55951074D01*
X121723947Y-55972309D01*
X121725000Y-55993750D01*
X121725000Y-56506250D01*
X121723947Y-56527691D01*
X121720797Y-56548926D01*
X121715581Y-56569750D01*
X121708349Y-56589962D01*
X121699170Y-56609368D01*
X121688134Y-56627781D01*
X121675346Y-56645024D01*
X121660930Y-56660930D01*
X121645024Y-56675346D01*
X121627781Y-56688134D01*
X121609368Y-56699170D01*
X121589962Y-56708349D01*
X121569750Y-56715581D01*
X121548926Y-56720797D01*
X121527691Y-56723947D01*
X121506250Y-56725000D01*
X121068750Y-56725000D01*
X121047309Y-56723947D01*
X121026074Y-56720797D01*
X121005250Y-56715581D01*
X120985038Y-56708349D01*
X120965632Y-56699170D01*
X120947219Y-56688134D01*
X120929976Y-56675346D01*
X120914070Y-56660930D01*
X120899654Y-56645024D01*
X120886866Y-56627781D01*
X120875830Y-56609368D01*
X120866651Y-56589962D01*
X120859419Y-56569750D01*
X120854203Y-56548926D01*
X120851053Y-56527691D01*
X120850000Y-56506250D01*
X120850000Y-55993750D01*
X120851053Y-55972309D01*
X120854203Y-55951074D01*
X120859419Y-55930250D01*
X120866651Y-55910038D01*
X120875830Y-55890632D01*
X120886866Y-55872219D01*
X120899654Y-55854976D01*
X120914070Y-55839070D01*
X120929976Y-55824654D01*
X120947219Y-55811866D01*
X120965632Y-55800830D01*
X120985038Y-55791651D01*
X121005250Y-55784419D01*
X121026074Y-55779203D01*
X121047309Y-55776053D01*
X121068750Y-55775000D01*
X121506250Y-55775000D01*
X121527691Y-55776053D01*
X121527691Y-55776053D01*
G37*
D24*
G04 #@! TD*
G04 #@! TO.P,R13,2*
G04 #@! TO.N,GNDPWR*
X121287500Y-56250000D03*
D23*
G04 #@! TO.N,7V_OUTB*
G04 #@! TO.C,R14*
G36*
X146990191Y-54026053D02*
X147011426Y-54029203D01*
X147032250Y-54034419D01*
X147052462Y-54041651D01*
X147071868Y-54050830D01*
X147090281Y-54061866D01*
X147107524Y-54074654D01*
X147123430Y-54089070D01*
X147137846Y-54104976D01*
X147150634Y-54122219D01*
X147161670Y-54140632D01*
X147170849Y-54160038D01*
X147178081Y-54180250D01*
X147183297Y-54201074D01*
X147186447Y-54222309D01*
X147187500Y-54243750D01*
X147187500Y-54756250D01*
X147186447Y-54777691D01*
X147183297Y-54798926D01*
X147178081Y-54819750D01*
X147170849Y-54839962D01*
X147161670Y-54859368D01*
X147150634Y-54877781D01*
X147137846Y-54895024D01*
X147123430Y-54910930D01*
X147107524Y-54925346D01*
X147090281Y-54938134D01*
X147071868Y-54949170D01*
X147052462Y-54958349D01*
X147032250Y-54965581D01*
X147011426Y-54970797D01*
X146990191Y-54973947D01*
X146968750Y-54975000D01*
X146531250Y-54975000D01*
X146509809Y-54973947D01*
X146488574Y-54970797D01*
X146467750Y-54965581D01*
X146447538Y-54958349D01*
X146428132Y-54949170D01*
X146409719Y-54938134D01*
X146392476Y-54925346D01*
X146376570Y-54910930D01*
X146362154Y-54895024D01*
X146349366Y-54877781D01*
X146338330Y-54859368D01*
X146329151Y-54839962D01*
X146321919Y-54819750D01*
X146316703Y-54798926D01*
X146313553Y-54777691D01*
X146312500Y-54756250D01*
X146312500Y-54243750D01*
X146313553Y-54222309D01*
X146316703Y-54201074D01*
X146321919Y-54180250D01*
X146329151Y-54160038D01*
X146338330Y-54140632D01*
X146349366Y-54122219D01*
X146362154Y-54104976D01*
X146376570Y-54089070D01*
X146392476Y-54074654D01*
X146409719Y-54061866D01*
X146428132Y-54050830D01*
X146447538Y-54041651D01*
X146467750Y-54034419D01*
X146488574Y-54029203D01*
X146509809Y-54026053D01*
X146531250Y-54025000D01*
X146968750Y-54025000D01*
X146990191Y-54026053D01*
X146990191Y-54026053D01*
G37*
D24*
G04 #@! TD*
G04 #@! TO.P,R14,1*
G04 #@! TO.N,7V_OUTB*
X146750000Y-54500000D03*
D23*
G04 #@! TO.N,/FB_B*
G04 #@! TO.C,R14*
G36*
X145415191Y-54026053D02*
X145436426Y-54029203D01*
X145457250Y-54034419D01*
X145477462Y-54041651D01*
X145496868Y-54050830D01*
X145515281Y-54061866D01*
X145532524Y-54074654D01*
X145548430Y-54089070D01*
X145562846Y-54104976D01*
X145575634Y-54122219D01*
X145586670Y-54140632D01*
X145595849Y-54160038D01*
X145603081Y-54180250D01*
X145608297Y-54201074D01*
X145611447Y-54222309D01*
X145612500Y-54243750D01*
X145612500Y-54756250D01*
X145611447Y-54777691D01*
X145608297Y-54798926D01*
X145603081Y-54819750D01*
X145595849Y-54839962D01*
X145586670Y-54859368D01*
X145575634Y-54877781D01*
X145562846Y-54895024D01*
X145548430Y-54910930D01*
X145532524Y-54925346D01*
X145515281Y-54938134D01*
X145496868Y-54949170D01*
X145477462Y-54958349D01*
X145457250Y-54965581D01*
X145436426Y-54970797D01*
X145415191Y-54973947D01*
X145393750Y-54975000D01*
X144956250Y-54975000D01*
X144934809Y-54973947D01*
X144913574Y-54970797D01*
X144892750Y-54965581D01*
X144872538Y-54958349D01*
X144853132Y-54949170D01*
X144834719Y-54938134D01*
X144817476Y-54925346D01*
X144801570Y-54910930D01*
X144787154Y-54895024D01*
X144774366Y-54877781D01*
X144763330Y-54859368D01*
X144754151Y-54839962D01*
X144746919Y-54819750D01*
X144741703Y-54798926D01*
X144738553Y-54777691D01*
X144737500Y-54756250D01*
X144737500Y-54243750D01*
X144738553Y-54222309D01*
X144741703Y-54201074D01*
X144746919Y-54180250D01*
X144754151Y-54160038D01*
X144763330Y-54140632D01*
X144774366Y-54122219D01*
X144787154Y-54104976D01*
X144801570Y-54089070D01*
X144817476Y-54074654D01*
X144834719Y-54061866D01*
X144853132Y-54050830D01*
X144872538Y-54041651D01*
X144892750Y-54034419D01*
X144913574Y-54029203D01*
X144934809Y-54026053D01*
X144956250Y-54025000D01*
X145393750Y-54025000D01*
X145415191Y-54026053D01*
X145415191Y-54026053D01*
G37*
D24*
G04 #@! TD*
G04 #@! TO.P,R14,2*
G04 #@! TO.N,/FB_B*
X145175000Y-54500000D03*
D23*
G04 #@! TO.N,GNDPWR*
G04 #@! TO.C,R15*
G36*
X147027691Y-55776053D02*
X147048926Y-55779203D01*
X147069750Y-55784419D01*
X147089962Y-55791651D01*
X147109368Y-55800830D01*
X147127781Y-55811866D01*
X147145024Y-55824654D01*
X147160930Y-55839070D01*
X147175346Y-55854976D01*
X147188134Y-55872219D01*
X147199170Y-55890632D01*
X147208349Y-55910038D01*
X147215581Y-55930250D01*
X147220797Y-55951074D01*
X147223947Y-55972309D01*
X147225000Y-55993750D01*
X147225000Y-56506250D01*
X147223947Y-56527691D01*
X147220797Y-56548926D01*
X147215581Y-56569750D01*
X147208349Y-56589962D01*
X147199170Y-56609368D01*
X147188134Y-56627781D01*
X147175346Y-56645024D01*
X147160930Y-56660930D01*
X147145024Y-56675346D01*
X147127781Y-56688134D01*
X147109368Y-56699170D01*
X147089962Y-56708349D01*
X147069750Y-56715581D01*
X147048926Y-56720797D01*
X147027691Y-56723947D01*
X147006250Y-56725000D01*
X146568750Y-56725000D01*
X146547309Y-56723947D01*
X146526074Y-56720797D01*
X146505250Y-56715581D01*
X146485038Y-56708349D01*
X146465632Y-56699170D01*
X146447219Y-56688134D01*
X146429976Y-56675346D01*
X146414070Y-56660930D01*
X146399654Y-56645024D01*
X146386866Y-56627781D01*
X146375830Y-56609368D01*
X146366651Y-56589962D01*
X146359419Y-56569750D01*
X146354203Y-56548926D01*
X146351053Y-56527691D01*
X146350000Y-56506250D01*
X146350000Y-55993750D01*
X146351053Y-55972309D01*
X146354203Y-55951074D01*
X146359419Y-55930250D01*
X146366651Y-55910038D01*
X146375830Y-55890632D01*
X146386866Y-55872219D01*
X146399654Y-55854976D01*
X146414070Y-55839070D01*
X146429976Y-55824654D01*
X146447219Y-55811866D01*
X146465632Y-55800830D01*
X146485038Y-55791651D01*
X146505250Y-55784419D01*
X146526074Y-55779203D01*
X146547309Y-55776053D01*
X146568750Y-55775000D01*
X147006250Y-55775000D01*
X147027691Y-55776053D01*
X147027691Y-55776053D01*
G37*
D24*
G04 #@! TD*
G04 #@! TO.P,R15,2*
G04 #@! TO.N,GNDPWR*
X146787500Y-56250000D03*
D23*
G04 #@! TO.N,/FB_B*
G04 #@! TO.C,R15*
G36*
X145452691Y-55776053D02*
X145473926Y-55779203D01*
X145494750Y-55784419D01*
X145514962Y-55791651D01*
X145534368Y-55800830D01*
X145552781Y-55811866D01*
X145570024Y-55824654D01*
X145585930Y-55839070D01*
X145600346Y-55854976D01*
X145613134Y-55872219D01*
X145624170Y-55890632D01*
X145633349Y-55910038D01*
X145640581Y-55930250D01*
X145645797Y-55951074D01*
X145648947Y-55972309D01*
X145650000Y-55993750D01*
X145650000Y-56506250D01*
X145648947Y-56527691D01*
X145645797Y-56548926D01*
X145640581Y-56569750D01*
X145633349Y-56589962D01*
X145624170Y-56609368D01*
X145613134Y-56627781D01*
X145600346Y-56645024D01*
X145585930Y-56660930D01*
X145570024Y-56675346D01*
X145552781Y-56688134D01*
X145534368Y-56699170D01*
X145514962Y-56708349D01*
X145494750Y-56715581D01*
X145473926Y-56720797D01*
X145452691Y-56723947D01*
X145431250Y-56725000D01*
X144993750Y-56725000D01*
X144972309Y-56723947D01*
X144951074Y-56720797D01*
X144930250Y-56715581D01*
X144910038Y-56708349D01*
X144890632Y-56699170D01*
X144872219Y-56688134D01*
X144854976Y-56675346D01*
X144839070Y-56660930D01*
X144824654Y-56645024D01*
X144811866Y-56627781D01*
X144800830Y-56609368D01*
X144791651Y-56589962D01*
X144784419Y-56569750D01*
X144779203Y-56548926D01*
X144776053Y-56527691D01*
X144775000Y-56506250D01*
X144775000Y-55993750D01*
X144776053Y-55972309D01*
X144779203Y-55951074D01*
X144784419Y-55930250D01*
X144791651Y-55910038D01*
X144800830Y-55890632D01*
X144811866Y-55872219D01*
X144824654Y-55854976D01*
X144839070Y-55839070D01*
X144854976Y-55824654D01*
X144872219Y-55811866D01*
X144890632Y-55800830D01*
X144910038Y-55791651D01*
X144930250Y-55784419D01*
X144951074Y-55779203D01*
X144972309Y-55776053D01*
X144993750Y-55775000D01*
X145431250Y-55775000D01*
X145452691Y-55776053D01*
X145452691Y-55776053D01*
G37*
D24*
G04 #@! TD*
G04 #@! TO.P,R15,1*
G04 #@! TO.N,/FB_B*
X145212500Y-56250000D03*
D25*
G04 #@! TO.P,U2,1*
G04 #@! TO.N,Relay_BATT*
X187910000Y-68810000D03*
G04 #@! TO.P,U2,2*
G04 #@! TO.N,Relay_OUT*
X187910000Y-61190000D03*
G04 #@! TO.P,U2,3*
G04 #@! TO.N,Net-(F1-Pad1)*
X177750000Y-61190000D03*
G04 #@! TO.P,U2,4*
G04 #@! TO.N,DCDC_BATT*
X170130000Y-61190000D03*
G04 #@! TO.P,U2,5*
G04 #@! TO.N,Net-(U2-Pad5)*
X172670000Y-68810000D03*
G04 #@! TD*
G04 #@! TO.P,C1,2*
G04 #@! TO.N,GNDPWR*
X154250000Y-93000000D03*
D26*
G04 #@! TO.P,C1,1*
G04 #@! TO.N,4Cell_BATT*
X154250000Y-88000000D03*
G04 #@! TD*
G04 #@! TO.P,C2,1*
G04 #@! TO.N,+12V*
X191250000Y-88500000D03*
D25*
G04 #@! TO.P,C2,2*
G04 #@! TO.N,GND*
X191250000Y-93500000D03*
G04 #@! TD*
D27*
G04 #@! TO.P,P1,2*
G04 #@! TO.N,+BATT*
X125740000Y-79750000D03*
G04 #@! TO.P,P1,1*
G04 #@! TO.N,GNDPWR*
X119740000Y-79750000D03*
G04 #@! TD*
G04 #@! TO.P,P2,1*
G04 #@! TO.N,GNDPWR*
X119740000Y-85500000D03*
G04 #@! TO.P,P2,2*
G04 #@! TO.N,+BATT*
X125740000Y-85500000D03*
G04 #@! TD*
D28*
G04 #@! TO.P,P5,1*
G04 #@! TO.N,GND*
X193250000Y-70750000D03*
G04 #@! TO.P,P5,2*
G04 #@! TO.N,+12V*
X193250000Y-68250000D03*
G04 #@! TO.P,P5,3*
G04 #@! TO.N,/Force_Shutdown*
X193250000Y-65750000D03*
G04 #@! TO.P,P5,4*
G04 #@! TO.N,/Relay_State*
X193250000Y-63250000D03*
D29*
G04 #@! TO.P,P5,*
G04 #@! TO.N,*
X199750000Y-67000000D03*
G04 #@! TD*
D28*
G04 #@! TO.P,P6,2*
G04 #@! TO.N,+12V*
X199250000Y-85750000D03*
G04 #@! TO.P,P6,1*
G04 #@! TO.N,GND*
X199250000Y-83250000D03*
G04 #@! TD*
G04 #@! TO.P,P7,1*
G04 #@! TO.N,GND*
X199250000Y-75750000D03*
G04 #@! TO.P,P7,2*
G04 #@! TO.N,+12V*
X199250000Y-78250000D03*
G04 #@! TD*
D10*
G04 #@! TO.P,P8,1*
G04 #@! TO.N,4Cell_BATT*
X172000000Y-37000000D03*
G04 #@! TO.P,P8,2*
G04 #@! TO.N,Net-(P8-Pad2)*
X174500000Y-37000000D03*
G04 #@! TD*
G04 #@! TO.P,P10,2*
G04 #@! TO.N,Net-(D1-Pad3)*
X133250000Y-97750000D03*
G04 #@! TO.P,P10,1*
G04 #@! TO.N,4Cell_BATT*
X135750000Y-97750000D03*
G04 #@! TD*
D30*
G04 #@! TO.P,IC1,1*
G04 #@! TO.N,Net-(IC1-Pad1)*
X187500000Y-48250000D03*
D31*
G04 #@! TO.P,IC1,3*
G04 #@! TO.N,/Relay_State*
X195120000Y-50790000D03*
G04 #@! TO.P,IC1,2*
G04 #@! TO.N,GNDPWR*
X187500000Y-50790000D03*
G04 #@! TO.P,IC1,4*
G04 #@! TO.N,+12V*
X195120000Y-48250000D03*
G04 #@! TD*
G04 #@! TO.P,IC2,4*
G04 #@! TO.N,4Cell_BATT*
X187630000Y-57370000D03*
G04 #@! TO.P,IC2,2*
G04 #@! TO.N,Net-(IC2-Pad2)*
X195250000Y-54830000D03*
G04 #@! TO.P,IC2,3*
G04 #@! TO.N,Net-(IC2-Pad3)*
X187630000Y-54830000D03*
D30*
G04 #@! TO.P,IC2,1*
G04 #@! TO.N,/Force_Shutdown*
X195250000Y-57370000D03*
G04 #@! TD*
D32*
G04 #@! TO.P,F1,2*
G04 #@! TO.N,+BATT*
X148000000Y-83000000D03*
D33*
G04 #@! TO.P,F1,1*
G04 #@! TO.N,Net-(F1-Pad1)*
X156000000Y-83000000D03*
G04 #@! TD*
D34*
G04 #@! TO.P,L1,2*
G04 #@! TO.N,7V_OUTA*
X134750000Y-50627500D03*
G04 #@! TO.P,L1,1*
G04 #@! TO.N,Net-(C6-Pad2)*
X134750000Y-66872500D03*
G04 #@! TD*
G04 #@! TO.P,L2,1*
G04 #@! TO.N,Net-(C7-Pad2)*
X160000000Y-66872500D03*
G04 #@! TO.P,L2,2*
G04 #@! TO.N,7V_OUTB*
X160000000Y-50627500D03*
G04 #@! TD*
D35*
G04 #@! TO.P,D8,1*
G04 #@! TO.N,Net-(C6-Pad2)*
X124750000Y-64400000D03*
D36*
G04 #@! TO.P,D8,2*
G04 #@! TO.N,GNDPWR*
X124750000Y-66775000D03*
G04 #@! TD*
D37*
G04 #@! TO.P,D10,1*
G04 #@! TO.N,Relay_BATT*
X188000000Y-67135000D03*
G04 #@! TO.P,D10,2*
G04 #@! TO.N,Relay_OUT*
X188000000Y-63865000D03*
G04 #@! TD*
D36*
G04 #@! TO.P,D9,2*
G04 #@! TO.N,GNDPWR*
X150000000Y-66775000D03*
D35*
G04 #@! TO.P,D9,1*
G04 #@! TO.N,Net-(C7-Pad2)*
X150000000Y-64400000D03*
G04 #@! TD*
D25*
G04 #@! TO.P,U1,1*
G04 #@! TO.N,GNDPWR*
X163090000Y-72840000D03*
G04 #@! TO.P,U1,2*
X163090000Y-80460000D03*
G04 #@! TO.P,U1,3*
G04 #@! TO.N,4Cell_BATT*
X163090000Y-85540000D03*
G04 #@! TO.P,U1,4*
G04 #@! TO.N,GND*
X183410000Y-72840000D03*
G04 #@! TO.P,U1,5*
G04 #@! TO.N,Net-(U1-Pad5)*
X183410000Y-83000000D03*
G04 #@! TO.P,U1,6*
G04 #@! TO.N,+12V*
X183410000Y-93160000D03*
G04 #@! TD*
D23*
G04 #@! TO.N,GNDPWR*
G04 #@! TO.C,U3*
G36*
X123169505Y-58501204D02*
X123193773Y-58504804D01*
X123217572Y-58510765D01*
X123240671Y-58519030D01*
X123262850Y-58529520D01*
X123283893Y-58542132D01*
X123303599Y-58556747D01*
X123321777Y-58573223D01*
X123338253Y-58591401D01*
X123352868Y-58611107D01*
X123365480Y-58632150D01*
X123375970Y-58654329D01*
X123384235Y-58677428D01*
X123390196Y-58701227D01*
X123393796Y-58725495D01*
X123395000Y-58749999D01*
X123395000Y-61250001D01*
X123393796Y-61274505D01*
X123390196Y-61298773D01*
X123384235Y-61322572D01*
X123375970Y-61345671D01*
X123365480Y-61367850D01*
X123352868Y-61388893D01*
X123338253Y-61408599D01*
X123321777Y-61426777D01*
X123303599Y-61443253D01*
X123283893Y-61457868D01*
X123262850Y-61470480D01*
X123240671Y-61480970D01*
X123217572Y-61489235D01*
X123193773Y-61495196D01*
X123169505Y-61498796D01*
X123145001Y-61500000D01*
X121354999Y-61500000D01*
X121330495Y-61498796D01*
X121306227Y-61495196D01*
X121282428Y-61489235D01*
X121259329Y-61480970D01*
X121237150Y-61470480D01*
X121216107Y-61457868D01*
X121196401Y-61443253D01*
X121178223Y-61426777D01*
X121161747Y-61408599D01*
X121147132Y-61388893D01*
X121134520Y-61367850D01*
X121124030Y-61345671D01*
X121115765Y-61322572D01*
X121109804Y-61298773D01*
X121106204Y-61274505D01*
X121105000Y-61250001D01*
X121105000Y-58749999D01*
X121106204Y-58725495D01*
X121109804Y-58701227D01*
X121115765Y-58677428D01*
X121124030Y-58654329D01*
X121134520Y-58632150D01*
X121147132Y-58611107D01*
X121161747Y-58591401D01*
X121178223Y-58573223D01*
X121196401Y-58556747D01*
X121216107Y-58542132D01*
X121237150Y-58529520D01*
X121259329Y-58519030D01*
X121282428Y-58510765D01*
X121306227Y-58504804D01*
X121330495Y-58501204D01*
X121354999Y-58500000D01*
X123145001Y-58500000D01*
X123169505Y-58501204D01*
X123169505Y-58501204D01*
G37*
D38*
G04 #@! TD*
G04 #@! TO.P,U3,9*
G04 #@! TO.N,GNDPWR*
X122250000Y-60000000D03*
D39*
G04 #@! TO.N,GNDPWR*
G04 #@! TO.C,U3*
X121600000Y-61000000D03*
X122900000Y-61000000D03*
X121600000Y-60000000D03*
X122900000Y-60000000D03*
X121600000Y-59000000D03*
X122900000Y-59000000D03*
D23*
G04 #@! TO.N,Net-(C6-Pad1)*
G36*
X120614703Y-61605722D02*
X120629264Y-61607882D01*
X120643543Y-61611459D01*
X120657403Y-61616418D01*
X120670710Y-61622712D01*
X120683336Y-61630280D01*
X120695159Y-61639048D01*
X120706066Y-61648934D01*
X120715952Y-61659841D01*
X120724720Y-61671664D01*
X120732288Y-61684290D01*
X120738582Y-61697597D01*
X120743541Y-61711457D01*
X120747118Y-61725736D01*
X120749278Y-61740297D01*
X120750000Y-61755000D01*
X120750000Y-62055000D01*
X120749278Y-62069703D01*
X120747118Y-62084264D01*
X120743541Y-62098543D01*
X120738582Y-62112403D01*
X120732288Y-62125710D01*
X120724720Y-62138336D01*
X120715952Y-62150159D01*
X120706066Y-62161066D01*
X120695159Y-62170952D01*
X120683336Y-62179720D01*
X120670710Y-62187288D01*
X120657403Y-62193582D01*
X120643543Y-62198541D01*
X120629264Y-62202118D01*
X120614703Y-62204278D01*
X120600000Y-62205000D01*
X118950000Y-62205000D01*
X118935297Y-62204278D01*
X118920736Y-62202118D01*
X118906457Y-62198541D01*
X118892597Y-62193582D01*
X118879290Y-62187288D01*
X118866664Y-62179720D01*
X118854841Y-62170952D01*
X118843934Y-62161066D01*
X118834048Y-62150159D01*
X118825280Y-62138336D01*
X118817712Y-62125710D01*
X118811418Y-62112403D01*
X118806459Y-62098543D01*
X118802882Y-62084264D01*
X118800722Y-62069703D01*
X118800000Y-62055000D01*
X118800000Y-61755000D01*
X118800722Y-61740297D01*
X118802882Y-61725736D01*
X118806459Y-61711457D01*
X118811418Y-61697597D01*
X118817712Y-61684290D01*
X118825280Y-61671664D01*
X118834048Y-61659841D01*
X118843934Y-61648934D01*
X118854841Y-61639048D01*
X118866664Y-61630280D01*
X118879290Y-61622712D01*
X118892597Y-61616418D01*
X118906457Y-61611459D01*
X118920736Y-61607882D01*
X118935297Y-61605722D01*
X118950000Y-61605000D01*
X120600000Y-61605000D01*
X120614703Y-61605722D01*
X120614703Y-61605722D01*
G37*
D40*
G04 #@! TD*
G04 #@! TO.P,U3,1*
G04 #@! TO.N,Net-(C6-Pad1)*
X119775000Y-61905000D03*
D23*
G04 #@! TO.N,Net-(U3-Pad2)*
G04 #@! TO.C,U3*
G36*
X120614703Y-60335722D02*
X120629264Y-60337882D01*
X120643543Y-60341459D01*
X120657403Y-60346418D01*
X120670710Y-60352712D01*
X120683336Y-60360280D01*
X120695159Y-60369048D01*
X120706066Y-60378934D01*
X120715952Y-60389841D01*
X120724720Y-60401664D01*
X120732288Y-60414290D01*
X120738582Y-60427597D01*
X120743541Y-60441457D01*
X120747118Y-60455736D01*
X120749278Y-60470297D01*
X120750000Y-60485000D01*
X120750000Y-60785000D01*
X120749278Y-60799703D01*
X120747118Y-60814264D01*
X120743541Y-60828543D01*
X120738582Y-60842403D01*
X120732288Y-60855710D01*
X120724720Y-60868336D01*
X120715952Y-60880159D01*
X120706066Y-60891066D01*
X120695159Y-60900952D01*
X120683336Y-60909720D01*
X120670710Y-60917288D01*
X120657403Y-60923582D01*
X120643543Y-60928541D01*
X120629264Y-60932118D01*
X120614703Y-60934278D01*
X120600000Y-60935000D01*
X118950000Y-60935000D01*
X118935297Y-60934278D01*
X118920736Y-60932118D01*
X118906457Y-60928541D01*
X118892597Y-60923582D01*
X118879290Y-60917288D01*
X118866664Y-60909720D01*
X118854841Y-60900952D01*
X118843934Y-60891066D01*
X118834048Y-60880159D01*
X118825280Y-60868336D01*
X118817712Y-60855710D01*
X118811418Y-60842403D01*
X118806459Y-60828543D01*
X118802882Y-60814264D01*
X118800722Y-60799703D01*
X118800000Y-60785000D01*
X118800000Y-60485000D01*
X118800722Y-60470297D01*
X118802882Y-60455736D01*
X118806459Y-60441457D01*
X118811418Y-60427597D01*
X118817712Y-60414290D01*
X118825280Y-60401664D01*
X118834048Y-60389841D01*
X118843934Y-60378934D01*
X118854841Y-60369048D01*
X118866664Y-60360280D01*
X118879290Y-60352712D01*
X118892597Y-60346418D01*
X118906457Y-60341459D01*
X118920736Y-60337882D01*
X118935297Y-60335722D01*
X118950000Y-60335000D01*
X120600000Y-60335000D01*
X120614703Y-60335722D01*
X120614703Y-60335722D01*
G37*
D40*
G04 #@! TD*
G04 #@! TO.P,U3,2*
G04 #@! TO.N,Net-(U3-Pad2)*
X119775000Y-60635000D03*
D23*
G04 #@! TO.N,Net-(U3-Pad3)*
G04 #@! TO.C,U3*
G36*
X120614703Y-59065722D02*
X120629264Y-59067882D01*
X120643543Y-59071459D01*
X120657403Y-59076418D01*
X120670710Y-59082712D01*
X120683336Y-59090280D01*
X120695159Y-59099048D01*
X120706066Y-59108934D01*
X120715952Y-59119841D01*
X120724720Y-59131664D01*
X120732288Y-59144290D01*
X120738582Y-59157597D01*
X120743541Y-59171457D01*
X120747118Y-59185736D01*
X120749278Y-59200297D01*
X120750000Y-59215000D01*
X120750000Y-59515000D01*
X120749278Y-59529703D01*
X120747118Y-59544264D01*
X120743541Y-59558543D01*
X120738582Y-59572403D01*
X120732288Y-59585710D01*
X120724720Y-59598336D01*
X120715952Y-59610159D01*
X120706066Y-59621066D01*
X120695159Y-59630952D01*
X120683336Y-59639720D01*
X120670710Y-59647288D01*
X120657403Y-59653582D01*
X120643543Y-59658541D01*
X120629264Y-59662118D01*
X120614703Y-59664278D01*
X120600000Y-59665000D01*
X118950000Y-59665000D01*
X118935297Y-59664278D01*
X118920736Y-59662118D01*
X118906457Y-59658541D01*
X118892597Y-59653582D01*
X118879290Y-59647288D01*
X118866664Y-59639720D01*
X118854841Y-59630952D01*
X118843934Y-59621066D01*
X118834048Y-59610159D01*
X118825280Y-59598336D01*
X118817712Y-59585710D01*
X118811418Y-59572403D01*
X118806459Y-59558543D01*
X118802882Y-59544264D01*
X118800722Y-59529703D01*
X118800000Y-59515000D01*
X118800000Y-59215000D01*
X118800722Y-59200297D01*
X118802882Y-59185736D01*
X118806459Y-59171457D01*
X118811418Y-59157597D01*
X118817712Y-59144290D01*
X118825280Y-59131664D01*
X118834048Y-59119841D01*
X118843934Y-59108934D01*
X118854841Y-59099048D01*
X118866664Y-59090280D01*
X118879290Y-59082712D01*
X118892597Y-59076418D01*
X118906457Y-59071459D01*
X118920736Y-59067882D01*
X118935297Y-59065722D01*
X118950000Y-59065000D01*
X120600000Y-59065000D01*
X120614703Y-59065722D01*
X120614703Y-59065722D01*
G37*
D40*
G04 #@! TD*
G04 #@! TO.P,U3,3*
G04 #@! TO.N,Net-(U3-Pad3)*
X119775000Y-59365000D03*
D23*
G04 #@! TO.N,/FB_A*
G04 #@! TO.C,U3*
G36*
X120614703Y-57795722D02*
X120629264Y-57797882D01*
X120643543Y-57801459D01*
X120657403Y-57806418D01*
X120670710Y-57812712D01*
X120683336Y-57820280D01*
X120695159Y-57829048D01*
X120706066Y-57838934D01*
X120715952Y-57849841D01*
X120724720Y-57861664D01*
X120732288Y-57874290D01*
X120738582Y-57887597D01*
X120743541Y-57901457D01*
X120747118Y-57915736D01*
X120749278Y-57930297D01*
X120750000Y-57945000D01*
X120750000Y-58245000D01*
X120749278Y-58259703D01*
X120747118Y-58274264D01*
X120743541Y-58288543D01*
X120738582Y-58302403D01*
X120732288Y-58315710D01*
X120724720Y-58328336D01*
X120715952Y-58340159D01*
X120706066Y-58351066D01*
X120695159Y-58360952D01*
X120683336Y-58369720D01*
X120670710Y-58377288D01*
X120657403Y-58383582D01*
X120643543Y-58388541D01*
X120629264Y-58392118D01*
X120614703Y-58394278D01*
X120600000Y-58395000D01*
X118950000Y-58395000D01*
X118935297Y-58394278D01*
X118920736Y-58392118D01*
X118906457Y-58388541D01*
X118892597Y-58383582D01*
X118879290Y-58377288D01*
X118866664Y-58369720D01*
X118854841Y-58360952D01*
X118843934Y-58351066D01*
X118834048Y-58340159D01*
X118825280Y-58328336D01*
X118817712Y-58315710D01*
X118811418Y-58302403D01*
X118806459Y-58288543D01*
X118802882Y-58274264D01*
X118800722Y-58259703D01*
X118800000Y-58245000D01*
X118800000Y-57945000D01*
X118800722Y-57930297D01*
X118802882Y-57915736D01*
X118806459Y-57901457D01*
X118811418Y-57887597D01*
X118817712Y-57874290D01*
X118825280Y-57861664D01*
X118834048Y-57849841D01*
X118843934Y-57838934D01*
X118854841Y-57829048D01*
X118866664Y-57820280D01*
X118879290Y-57812712D01*
X118892597Y-57806418D01*
X118906457Y-57801459D01*
X118920736Y-57797882D01*
X118935297Y-57795722D01*
X118950000Y-57795000D01*
X120600000Y-57795000D01*
X120614703Y-57795722D01*
X120614703Y-57795722D01*
G37*
D40*
G04 #@! TD*
G04 #@! TO.P,U3,4*
G04 #@! TO.N,/FB_A*
X119775000Y-58095000D03*
D23*
G04 #@! TO.N,Net-(U3-Pad5)*
G04 #@! TO.C,U3*
G36*
X125564703Y-57795722D02*
X125579264Y-57797882D01*
X125593543Y-57801459D01*
X125607403Y-57806418D01*
X125620710Y-57812712D01*
X125633336Y-57820280D01*
X125645159Y-57829048D01*
X125656066Y-57838934D01*
X125665952Y-57849841D01*
X125674720Y-57861664D01*
X125682288Y-57874290D01*
X125688582Y-57887597D01*
X125693541Y-57901457D01*
X125697118Y-57915736D01*
X125699278Y-57930297D01*
X125700000Y-57945000D01*
X125700000Y-58245000D01*
X125699278Y-58259703D01*
X125697118Y-58274264D01*
X125693541Y-58288543D01*
X125688582Y-58302403D01*
X125682288Y-58315710D01*
X125674720Y-58328336D01*
X125665952Y-58340159D01*
X125656066Y-58351066D01*
X125645159Y-58360952D01*
X125633336Y-58369720D01*
X125620710Y-58377288D01*
X125607403Y-58383582D01*
X125593543Y-58388541D01*
X125579264Y-58392118D01*
X125564703Y-58394278D01*
X125550000Y-58395000D01*
X123900000Y-58395000D01*
X123885297Y-58394278D01*
X123870736Y-58392118D01*
X123856457Y-58388541D01*
X123842597Y-58383582D01*
X123829290Y-58377288D01*
X123816664Y-58369720D01*
X123804841Y-58360952D01*
X123793934Y-58351066D01*
X123784048Y-58340159D01*
X123775280Y-58328336D01*
X123767712Y-58315710D01*
X123761418Y-58302403D01*
X123756459Y-58288543D01*
X123752882Y-58274264D01*
X123750722Y-58259703D01*
X123750000Y-58245000D01*
X123750000Y-57945000D01*
X123750722Y-57930297D01*
X123752882Y-57915736D01*
X123756459Y-57901457D01*
X123761418Y-57887597D01*
X123767712Y-57874290D01*
X123775280Y-57861664D01*
X123784048Y-57849841D01*
X123793934Y-57838934D01*
X123804841Y-57829048D01*
X123816664Y-57820280D01*
X123829290Y-57812712D01*
X123842597Y-57806418D01*
X123856457Y-57801459D01*
X123870736Y-57797882D01*
X123885297Y-57795722D01*
X123900000Y-57795000D01*
X125550000Y-57795000D01*
X125564703Y-57795722D01*
X125564703Y-57795722D01*
G37*
D40*
G04 #@! TD*
G04 #@! TO.P,U3,5*
G04 #@! TO.N,Net-(U3-Pad5)*
X124725000Y-58095000D03*
D23*
G04 #@! TO.N,GNDPWR*
G04 #@! TO.C,U3*
G36*
X125564703Y-59065722D02*
X125579264Y-59067882D01*
X125593543Y-59071459D01*
X125607403Y-59076418D01*
X125620710Y-59082712D01*
X125633336Y-59090280D01*
X125645159Y-59099048D01*
X125656066Y-59108934D01*
X125665952Y-59119841D01*
X125674720Y-59131664D01*
X125682288Y-59144290D01*
X125688582Y-59157597D01*
X125693541Y-59171457D01*
X125697118Y-59185736D01*
X125699278Y-59200297D01*
X125700000Y-59215000D01*
X125700000Y-59515000D01*
X125699278Y-59529703D01*
X125697118Y-59544264D01*
X125693541Y-59558543D01*
X125688582Y-59572403D01*
X125682288Y-59585710D01*
X125674720Y-59598336D01*
X125665952Y-59610159D01*
X125656066Y-59621066D01*
X125645159Y-59630952D01*
X125633336Y-59639720D01*
X125620710Y-59647288D01*
X125607403Y-59653582D01*
X125593543Y-59658541D01*
X125579264Y-59662118D01*
X125564703Y-59664278D01*
X125550000Y-59665000D01*
X123900000Y-59665000D01*
X123885297Y-59664278D01*
X123870736Y-59662118D01*
X123856457Y-59658541D01*
X123842597Y-59653582D01*
X123829290Y-59647288D01*
X123816664Y-59639720D01*
X123804841Y-59630952D01*
X123793934Y-59621066D01*
X123784048Y-59610159D01*
X123775280Y-59598336D01*
X123767712Y-59585710D01*
X123761418Y-59572403D01*
X123756459Y-59558543D01*
X123752882Y-59544264D01*
X123750722Y-59529703D01*
X123750000Y-59515000D01*
X123750000Y-59215000D01*
X123750722Y-59200297D01*
X123752882Y-59185736D01*
X123756459Y-59171457D01*
X123761418Y-59157597D01*
X123767712Y-59144290D01*
X123775280Y-59131664D01*
X123784048Y-59119841D01*
X123793934Y-59108934D01*
X123804841Y-59099048D01*
X123816664Y-59090280D01*
X123829290Y-59082712D01*
X123842597Y-59076418D01*
X123856457Y-59071459D01*
X123870736Y-59067882D01*
X123885297Y-59065722D01*
X123900000Y-59065000D01*
X125550000Y-59065000D01*
X125564703Y-59065722D01*
X125564703Y-59065722D01*
G37*
D40*
G04 #@! TD*
G04 #@! TO.P,U3,6*
G04 #@! TO.N,GNDPWR*
X124725000Y-59365000D03*
D23*
G04 #@! TO.N,DCDC_BATT*
G04 #@! TO.C,U3*
G36*
X125564703Y-60335722D02*
X125579264Y-60337882D01*
X125593543Y-60341459D01*
X125607403Y-60346418D01*
X125620710Y-60352712D01*
X125633336Y-60360280D01*
X125645159Y-60369048D01*
X125656066Y-60378934D01*
X125665952Y-60389841D01*
X125674720Y-60401664D01*
X125682288Y-60414290D01*
X125688582Y-60427597D01*
X125693541Y-60441457D01*
X125697118Y-60455736D01*
X125699278Y-60470297D01*
X125700000Y-60485000D01*
X125700000Y-60785000D01*
X125699278Y-60799703D01*
X125697118Y-60814264D01*
X125693541Y-60828543D01*
X125688582Y-60842403D01*
X125682288Y-60855710D01*
X125674720Y-60868336D01*
X125665952Y-60880159D01*
X125656066Y-60891066D01*
X125645159Y-60900952D01*
X125633336Y-60909720D01*
X125620710Y-60917288D01*
X125607403Y-60923582D01*
X125593543Y-60928541D01*
X125579264Y-60932118D01*
X125564703Y-60934278D01*
X125550000Y-60935000D01*
X123900000Y-60935000D01*
X123885297Y-60934278D01*
X123870736Y-60932118D01*
X123856457Y-60928541D01*
X123842597Y-60923582D01*
X123829290Y-60917288D01*
X123816664Y-60909720D01*
X123804841Y-60900952D01*
X123793934Y-60891066D01*
X123784048Y-60880159D01*
X123775280Y-60868336D01*
X123767712Y-60855710D01*
X123761418Y-60842403D01*
X123756459Y-60828543D01*
X123752882Y-60814264D01*
X123750722Y-60799703D01*
X123750000Y-60785000D01*
X123750000Y-60485000D01*
X123750722Y-60470297D01*
X123752882Y-60455736D01*
X123756459Y-60441457D01*
X123761418Y-60427597D01*
X123767712Y-60414290D01*
X123775280Y-60401664D01*
X123784048Y-60389841D01*
X123793934Y-60378934D01*
X123804841Y-60369048D01*
X123816664Y-60360280D01*
X123829290Y-60352712D01*
X123842597Y-60346418D01*
X123856457Y-60341459D01*
X123870736Y-60337882D01*
X123885297Y-60335722D01*
X123900000Y-60335000D01*
X125550000Y-60335000D01*
X125564703Y-60335722D01*
X125564703Y-60335722D01*
G37*
D40*
G04 #@! TD*
G04 #@! TO.P,U3,7*
G04 #@! TO.N,DCDC_BATT*
X124725000Y-60635000D03*
D23*
G04 #@! TO.N,Net-(C6-Pad2)*
G04 #@! TO.C,U3*
G36*
X125564703Y-61605722D02*
X125579264Y-61607882D01*
X125593543Y-61611459D01*
X125607403Y-61616418D01*
X125620710Y-61622712D01*
X125633336Y-61630280D01*
X125645159Y-61639048D01*
X125656066Y-61648934D01*
X125665952Y-61659841D01*
X125674720Y-61671664D01*
X125682288Y-61684290D01*
X125688582Y-61697597D01*
X125693541Y-61711457D01*
X125697118Y-61725736D01*
X125699278Y-61740297D01*
X125700000Y-61755000D01*
X125700000Y-62055000D01*
X125699278Y-62069703D01*
X125697118Y-62084264D01*
X125693541Y-62098543D01*
X125688582Y-62112403D01*
X125682288Y-62125710D01*
X125674720Y-62138336D01*
X125665952Y-62150159D01*
X125656066Y-62161066D01*
X125645159Y-62170952D01*
X125633336Y-62179720D01*
X125620710Y-62187288D01*
X125607403Y-62193582D01*
X125593543Y-62198541D01*
X125579264Y-62202118D01*
X125564703Y-62204278D01*
X125550000Y-62205000D01*
X123900000Y-62205000D01*
X123885297Y-62204278D01*
X123870736Y-62202118D01*
X123856457Y-62198541D01*
X123842597Y-62193582D01*
X123829290Y-62187288D01*
X123816664Y-62179720D01*
X123804841Y-62170952D01*
X123793934Y-62161066D01*
X123784048Y-62150159D01*
X123775280Y-62138336D01*
X123767712Y-62125710D01*
X123761418Y-62112403D01*
X123756459Y-62098543D01*
X123752882Y-62084264D01*
X123750722Y-62069703D01*
X123750000Y-62055000D01*
X123750000Y-61755000D01*
X123750722Y-61740297D01*
X123752882Y-61725736D01*
X123756459Y-61711457D01*
X123761418Y-61697597D01*
X123767712Y-61684290D01*
X123775280Y-61671664D01*
X123784048Y-61659841D01*
X123793934Y-61648934D01*
X123804841Y-61639048D01*
X123816664Y-61630280D01*
X123829290Y-61622712D01*
X123842597Y-61616418D01*
X123856457Y-61611459D01*
X123870736Y-61607882D01*
X123885297Y-61605722D01*
X123900000Y-61605000D01*
X125550000Y-61605000D01*
X125564703Y-61605722D01*
X125564703Y-61605722D01*
G37*
D40*
G04 #@! TD*
G04 #@! TO.P,U3,8*
G04 #@! TO.N,Net-(C6-Pad2)*
X124725000Y-61905000D03*
D23*
G04 #@! TO.N,GNDPWR*
G04 #@! TO.C,U4*
G36*
X148669505Y-58501204D02*
X148693773Y-58504804D01*
X148717572Y-58510765D01*
X148740671Y-58519030D01*
X148762850Y-58529520D01*
X148783893Y-58542132D01*
X148803599Y-58556747D01*
X148821777Y-58573223D01*
X148838253Y-58591401D01*
X148852868Y-58611107D01*
X148865480Y-58632150D01*
X148875970Y-58654329D01*
X148884235Y-58677428D01*
X148890196Y-58701227D01*
X148893796Y-58725495D01*
X148895000Y-58749999D01*
X148895000Y-61250001D01*
X148893796Y-61274505D01*
X148890196Y-61298773D01*
X148884235Y-61322572D01*
X148875970Y-61345671D01*
X148865480Y-61367850D01*
X148852868Y-61388893D01*
X148838253Y-61408599D01*
X148821777Y-61426777D01*
X148803599Y-61443253D01*
X148783893Y-61457868D01*
X148762850Y-61470480D01*
X148740671Y-61480970D01*
X148717572Y-61489235D01*
X148693773Y-61495196D01*
X148669505Y-61498796D01*
X148645001Y-61500000D01*
X146854999Y-61500000D01*
X146830495Y-61498796D01*
X146806227Y-61495196D01*
X146782428Y-61489235D01*
X146759329Y-61480970D01*
X146737150Y-61470480D01*
X146716107Y-61457868D01*
X146696401Y-61443253D01*
X146678223Y-61426777D01*
X146661747Y-61408599D01*
X146647132Y-61388893D01*
X146634520Y-61367850D01*
X146624030Y-61345671D01*
X146615765Y-61322572D01*
X146609804Y-61298773D01*
X146606204Y-61274505D01*
X146605000Y-61250001D01*
X146605000Y-58749999D01*
X146606204Y-58725495D01*
X146609804Y-58701227D01*
X146615765Y-58677428D01*
X146624030Y-58654329D01*
X146634520Y-58632150D01*
X146647132Y-58611107D01*
X146661747Y-58591401D01*
X146678223Y-58573223D01*
X146696401Y-58556747D01*
X146716107Y-58542132D01*
X146737150Y-58529520D01*
X146759329Y-58519030D01*
X146782428Y-58510765D01*
X146806227Y-58504804D01*
X146830495Y-58501204D01*
X146854999Y-58500000D01*
X148645001Y-58500000D01*
X148669505Y-58501204D01*
X148669505Y-58501204D01*
G37*
D38*
G04 #@! TD*
G04 #@! TO.P,U4,9*
G04 #@! TO.N,GNDPWR*
X147750000Y-60000000D03*
D39*
G04 #@! TO.N,GNDPWR*
G04 #@! TO.C,U4*
X147100000Y-61000000D03*
X148400000Y-61000000D03*
X147100000Y-60000000D03*
X148400000Y-60000000D03*
X147100000Y-59000000D03*
X148400000Y-59000000D03*
D23*
G04 #@! TO.N,Net-(C7-Pad1)*
G36*
X146114703Y-61605722D02*
X146129264Y-61607882D01*
X146143543Y-61611459D01*
X146157403Y-61616418D01*
X146170710Y-61622712D01*
X146183336Y-61630280D01*
X146195159Y-61639048D01*
X146206066Y-61648934D01*
X146215952Y-61659841D01*
X146224720Y-61671664D01*
X146232288Y-61684290D01*
X146238582Y-61697597D01*
X146243541Y-61711457D01*
X146247118Y-61725736D01*
X146249278Y-61740297D01*
X146250000Y-61755000D01*
X146250000Y-62055000D01*
X146249278Y-62069703D01*
X146247118Y-62084264D01*
X146243541Y-62098543D01*
X146238582Y-62112403D01*
X146232288Y-62125710D01*
X146224720Y-62138336D01*
X146215952Y-62150159D01*
X146206066Y-62161066D01*
X146195159Y-62170952D01*
X146183336Y-62179720D01*
X146170710Y-62187288D01*
X146157403Y-62193582D01*
X146143543Y-62198541D01*
X146129264Y-62202118D01*
X146114703Y-62204278D01*
X146100000Y-62205000D01*
X144450000Y-62205000D01*
X144435297Y-62204278D01*
X144420736Y-62202118D01*
X144406457Y-62198541D01*
X144392597Y-62193582D01*
X144379290Y-62187288D01*
X144366664Y-62179720D01*
X144354841Y-62170952D01*
X144343934Y-62161066D01*
X144334048Y-62150159D01*
X144325280Y-62138336D01*
X144317712Y-62125710D01*
X144311418Y-62112403D01*
X144306459Y-62098543D01*
X144302882Y-62084264D01*
X144300722Y-62069703D01*
X144300000Y-62055000D01*
X144300000Y-61755000D01*
X144300722Y-61740297D01*
X144302882Y-61725736D01*
X144306459Y-61711457D01*
X144311418Y-61697597D01*
X144317712Y-61684290D01*
X144325280Y-61671664D01*
X144334048Y-61659841D01*
X144343934Y-61648934D01*
X144354841Y-61639048D01*
X144366664Y-61630280D01*
X144379290Y-61622712D01*
X144392597Y-61616418D01*
X144406457Y-61611459D01*
X144420736Y-61607882D01*
X144435297Y-61605722D01*
X144450000Y-61605000D01*
X146100000Y-61605000D01*
X146114703Y-61605722D01*
X146114703Y-61605722D01*
G37*
D40*
G04 #@! TD*
G04 #@! TO.P,U4,1*
G04 #@! TO.N,Net-(C7-Pad1)*
X145275000Y-61905000D03*
D23*
G04 #@! TO.N,Net-(U4-Pad2)*
G04 #@! TO.C,U4*
G36*
X146114703Y-60335722D02*
X146129264Y-60337882D01*
X146143543Y-60341459D01*
X146157403Y-60346418D01*
X146170710Y-60352712D01*
X146183336Y-60360280D01*
X146195159Y-60369048D01*
X146206066Y-60378934D01*
X146215952Y-60389841D01*
X146224720Y-60401664D01*
X146232288Y-60414290D01*
X146238582Y-60427597D01*
X146243541Y-60441457D01*
X146247118Y-60455736D01*
X146249278Y-60470297D01*
X146250000Y-60485000D01*
X146250000Y-60785000D01*
X146249278Y-60799703D01*
X146247118Y-60814264D01*
X146243541Y-60828543D01*
X146238582Y-60842403D01*
X146232288Y-60855710D01*
X146224720Y-60868336D01*
X146215952Y-60880159D01*
X146206066Y-60891066D01*
X146195159Y-60900952D01*
X146183336Y-60909720D01*
X146170710Y-60917288D01*
X146157403Y-60923582D01*
X146143543Y-60928541D01*
X146129264Y-60932118D01*
X146114703Y-60934278D01*
X146100000Y-60935000D01*
X144450000Y-60935000D01*
X144435297Y-60934278D01*
X144420736Y-60932118D01*
X144406457Y-60928541D01*
X144392597Y-60923582D01*
X144379290Y-60917288D01*
X144366664Y-60909720D01*
X144354841Y-60900952D01*
X144343934Y-60891066D01*
X144334048Y-60880159D01*
X144325280Y-60868336D01*
X144317712Y-60855710D01*
X144311418Y-60842403D01*
X144306459Y-60828543D01*
X144302882Y-60814264D01*
X144300722Y-60799703D01*
X144300000Y-60785000D01*
X144300000Y-60485000D01*
X144300722Y-60470297D01*
X144302882Y-60455736D01*
X144306459Y-60441457D01*
X144311418Y-60427597D01*
X144317712Y-60414290D01*
X144325280Y-60401664D01*
X144334048Y-60389841D01*
X144343934Y-60378934D01*
X144354841Y-60369048D01*
X144366664Y-60360280D01*
X144379290Y-60352712D01*
X144392597Y-60346418D01*
X144406457Y-60341459D01*
X144420736Y-60337882D01*
X144435297Y-60335722D01*
X144450000Y-60335000D01*
X146100000Y-60335000D01*
X146114703Y-60335722D01*
X146114703Y-60335722D01*
G37*
D40*
G04 #@! TD*
G04 #@! TO.P,U4,2*
G04 #@! TO.N,Net-(U4-Pad2)*
X145275000Y-60635000D03*
D23*
G04 #@! TO.N,Net-(U4-Pad3)*
G04 #@! TO.C,U4*
G36*
X146114703Y-59065722D02*
X146129264Y-59067882D01*
X146143543Y-59071459D01*
X146157403Y-59076418D01*
X146170710Y-59082712D01*
X146183336Y-59090280D01*
X146195159Y-59099048D01*
X146206066Y-59108934D01*
X146215952Y-59119841D01*
X146224720Y-59131664D01*
X146232288Y-59144290D01*
X146238582Y-59157597D01*
X146243541Y-59171457D01*
X146247118Y-59185736D01*
X146249278Y-59200297D01*
X146250000Y-59215000D01*
X146250000Y-59515000D01*
X146249278Y-59529703D01*
X146247118Y-59544264D01*
X146243541Y-59558543D01*
X146238582Y-59572403D01*
X146232288Y-59585710D01*
X146224720Y-59598336D01*
X146215952Y-59610159D01*
X146206066Y-59621066D01*
X146195159Y-59630952D01*
X146183336Y-59639720D01*
X146170710Y-59647288D01*
X146157403Y-59653582D01*
X146143543Y-59658541D01*
X146129264Y-59662118D01*
X146114703Y-59664278D01*
X146100000Y-59665000D01*
X144450000Y-59665000D01*
X144435297Y-59664278D01*
X144420736Y-59662118D01*
X144406457Y-59658541D01*
X144392597Y-59653582D01*
X144379290Y-59647288D01*
X144366664Y-59639720D01*
X144354841Y-59630952D01*
X144343934Y-59621066D01*
X144334048Y-59610159D01*
X144325280Y-59598336D01*
X144317712Y-59585710D01*
X144311418Y-59572403D01*
X144306459Y-59558543D01*
X144302882Y-59544264D01*
X144300722Y-59529703D01*
X144300000Y-59515000D01*
X144300000Y-59215000D01*
X144300722Y-59200297D01*
X144302882Y-59185736D01*
X144306459Y-59171457D01*
X144311418Y-59157597D01*
X144317712Y-59144290D01*
X144325280Y-59131664D01*
X144334048Y-59119841D01*
X144343934Y-59108934D01*
X144354841Y-59099048D01*
X144366664Y-59090280D01*
X144379290Y-59082712D01*
X144392597Y-59076418D01*
X144406457Y-59071459D01*
X144420736Y-59067882D01*
X144435297Y-59065722D01*
X144450000Y-59065000D01*
X146100000Y-59065000D01*
X146114703Y-59065722D01*
X146114703Y-59065722D01*
G37*
D40*
G04 #@! TD*
G04 #@! TO.P,U4,3*
G04 #@! TO.N,Net-(U4-Pad3)*
X145275000Y-59365000D03*
D23*
G04 #@! TO.N,/FB_B*
G04 #@! TO.C,U4*
G36*
X146114703Y-57795722D02*
X146129264Y-57797882D01*
X146143543Y-57801459D01*
X146157403Y-57806418D01*
X146170710Y-57812712D01*
X146183336Y-57820280D01*
X146195159Y-57829048D01*
X146206066Y-57838934D01*
X146215952Y-57849841D01*
X146224720Y-57861664D01*
X146232288Y-57874290D01*
X146238582Y-57887597D01*
X146243541Y-57901457D01*
X146247118Y-57915736D01*
X146249278Y-57930297D01*
X146250000Y-57945000D01*
X146250000Y-58245000D01*
X146249278Y-58259703D01*
X146247118Y-58274264D01*
X146243541Y-58288543D01*
X146238582Y-58302403D01*
X146232288Y-58315710D01*
X146224720Y-58328336D01*
X146215952Y-58340159D01*
X146206066Y-58351066D01*
X146195159Y-58360952D01*
X146183336Y-58369720D01*
X146170710Y-58377288D01*
X146157403Y-58383582D01*
X146143543Y-58388541D01*
X146129264Y-58392118D01*
X146114703Y-58394278D01*
X146100000Y-58395000D01*
X144450000Y-58395000D01*
X144435297Y-58394278D01*
X144420736Y-58392118D01*
X144406457Y-58388541D01*
X144392597Y-58383582D01*
X144379290Y-58377288D01*
X144366664Y-58369720D01*
X144354841Y-58360952D01*
X144343934Y-58351066D01*
X144334048Y-58340159D01*
X144325280Y-58328336D01*
X144317712Y-58315710D01*
X144311418Y-58302403D01*
X144306459Y-58288543D01*
X144302882Y-58274264D01*
X144300722Y-58259703D01*
X144300000Y-58245000D01*
X144300000Y-57945000D01*
X144300722Y-57930297D01*
X144302882Y-57915736D01*
X144306459Y-57901457D01*
X144311418Y-57887597D01*
X144317712Y-57874290D01*
X144325280Y-57861664D01*
X144334048Y-57849841D01*
X144343934Y-57838934D01*
X144354841Y-57829048D01*
X144366664Y-57820280D01*
X144379290Y-57812712D01*
X144392597Y-57806418D01*
X144406457Y-57801459D01*
X144420736Y-57797882D01*
X144435297Y-57795722D01*
X144450000Y-57795000D01*
X146100000Y-57795000D01*
X146114703Y-57795722D01*
X146114703Y-57795722D01*
G37*
D40*
G04 #@! TD*
G04 #@! TO.P,U4,4*
G04 #@! TO.N,/FB_B*
X145275000Y-58095000D03*
D23*
G04 #@! TO.N,Net-(U4-Pad5)*
G04 #@! TO.C,U4*
G36*
X151064703Y-57795722D02*
X151079264Y-57797882D01*
X151093543Y-57801459D01*
X151107403Y-57806418D01*
X151120710Y-57812712D01*
X151133336Y-57820280D01*
X151145159Y-57829048D01*
X151156066Y-57838934D01*
X151165952Y-57849841D01*
X151174720Y-57861664D01*
X151182288Y-57874290D01*
X151188582Y-57887597D01*
X151193541Y-57901457D01*
X151197118Y-57915736D01*
X151199278Y-57930297D01*
X151200000Y-57945000D01*
X151200000Y-58245000D01*
X151199278Y-58259703D01*
X151197118Y-58274264D01*
X151193541Y-58288543D01*
X151188582Y-58302403D01*
X151182288Y-58315710D01*
X151174720Y-58328336D01*
X151165952Y-58340159D01*
X151156066Y-58351066D01*
X151145159Y-58360952D01*
X151133336Y-58369720D01*
X151120710Y-58377288D01*
X151107403Y-58383582D01*
X151093543Y-58388541D01*
X151079264Y-58392118D01*
X151064703Y-58394278D01*
X151050000Y-58395000D01*
X149400000Y-58395000D01*
X149385297Y-58394278D01*
X149370736Y-58392118D01*
X149356457Y-58388541D01*
X149342597Y-58383582D01*
X149329290Y-58377288D01*
X149316664Y-58369720D01*
X149304841Y-58360952D01*
X149293934Y-58351066D01*
X149284048Y-58340159D01*
X149275280Y-58328336D01*
X149267712Y-58315710D01*
X149261418Y-58302403D01*
X149256459Y-58288543D01*
X149252882Y-58274264D01*
X149250722Y-58259703D01*
X149250000Y-58245000D01*
X149250000Y-57945000D01*
X149250722Y-57930297D01*
X149252882Y-57915736D01*
X149256459Y-57901457D01*
X149261418Y-57887597D01*
X149267712Y-57874290D01*
X149275280Y-57861664D01*
X149284048Y-57849841D01*
X149293934Y-57838934D01*
X149304841Y-57829048D01*
X149316664Y-57820280D01*
X149329290Y-57812712D01*
X149342597Y-57806418D01*
X149356457Y-57801459D01*
X149370736Y-57797882D01*
X149385297Y-57795722D01*
X149400000Y-57795000D01*
X151050000Y-57795000D01*
X151064703Y-57795722D01*
X151064703Y-57795722D01*
G37*
D40*
G04 #@! TD*
G04 #@! TO.P,U4,5*
G04 #@! TO.N,Net-(U4-Pad5)*
X150225000Y-58095000D03*
D23*
G04 #@! TO.N,GNDPWR*
G04 #@! TO.C,U4*
G36*
X151064703Y-59065722D02*
X151079264Y-59067882D01*
X151093543Y-59071459D01*
X151107403Y-59076418D01*
X151120710Y-59082712D01*
X151133336Y-59090280D01*
X151145159Y-59099048D01*
X151156066Y-59108934D01*
X151165952Y-59119841D01*
X151174720Y-59131664D01*
X151182288Y-59144290D01*
X151188582Y-59157597D01*
X151193541Y-59171457D01*
X151197118Y-59185736D01*
X151199278Y-59200297D01*
X151200000Y-59215000D01*
X151200000Y-59515000D01*
X151199278Y-59529703D01*
X151197118Y-59544264D01*
X151193541Y-59558543D01*
X151188582Y-59572403D01*
X151182288Y-59585710D01*
X151174720Y-59598336D01*
X151165952Y-59610159D01*
X151156066Y-59621066D01*
X151145159Y-59630952D01*
X151133336Y-59639720D01*
X151120710Y-59647288D01*
X151107403Y-59653582D01*
X151093543Y-59658541D01*
X151079264Y-59662118D01*
X151064703Y-59664278D01*
X151050000Y-59665000D01*
X149400000Y-59665000D01*
X149385297Y-59664278D01*
X149370736Y-59662118D01*
X149356457Y-59658541D01*
X149342597Y-59653582D01*
X149329290Y-59647288D01*
X149316664Y-59639720D01*
X149304841Y-59630952D01*
X149293934Y-59621066D01*
X149284048Y-59610159D01*
X149275280Y-59598336D01*
X149267712Y-59585710D01*
X149261418Y-59572403D01*
X149256459Y-59558543D01*
X149252882Y-59544264D01*
X149250722Y-59529703D01*
X149250000Y-59515000D01*
X149250000Y-59215000D01*
X149250722Y-59200297D01*
X149252882Y-59185736D01*
X149256459Y-59171457D01*
X149261418Y-59157597D01*
X149267712Y-59144290D01*
X149275280Y-59131664D01*
X149284048Y-59119841D01*
X149293934Y-59108934D01*
X149304841Y-59099048D01*
X149316664Y-59090280D01*
X149329290Y-59082712D01*
X149342597Y-59076418D01*
X149356457Y-59071459D01*
X149370736Y-59067882D01*
X149385297Y-59065722D01*
X149400000Y-59065000D01*
X151050000Y-59065000D01*
X151064703Y-59065722D01*
X151064703Y-59065722D01*
G37*
D40*
G04 #@! TD*
G04 #@! TO.P,U4,6*
G04 #@! TO.N,GNDPWR*
X150225000Y-59365000D03*
D23*
G04 #@! TO.N,DCDC_BATT*
G04 #@! TO.C,U4*
G36*
X151064703Y-60335722D02*
X151079264Y-60337882D01*
X151093543Y-60341459D01*
X151107403Y-60346418D01*
X151120710Y-60352712D01*
X151133336Y-60360280D01*
X151145159Y-60369048D01*
X151156066Y-60378934D01*
X151165952Y-60389841D01*
X151174720Y-60401664D01*
X151182288Y-60414290D01*
X151188582Y-60427597D01*
X151193541Y-60441457D01*
X151197118Y-60455736D01*
X151199278Y-60470297D01*
X151200000Y-60485000D01*
X151200000Y-60785000D01*
X151199278Y-60799703D01*
X151197118Y-60814264D01*
X151193541Y-60828543D01*
X151188582Y-60842403D01*
X151182288Y-60855710D01*
X151174720Y-60868336D01*
X151165952Y-60880159D01*
X151156066Y-60891066D01*
X151145159Y-60900952D01*
X151133336Y-60909720D01*
X151120710Y-60917288D01*
X151107403Y-60923582D01*
X151093543Y-60928541D01*
X151079264Y-60932118D01*
X151064703Y-60934278D01*
X151050000Y-60935000D01*
X149400000Y-60935000D01*
X149385297Y-60934278D01*
X149370736Y-60932118D01*
X149356457Y-60928541D01*
X149342597Y-60923582D01*
X149329290Y-60917288D01*
X149316664Y-60909720D01*
X149304841Y-60900952D01*
X149293934Y-60891066D01*
X149284048Y-60880159D01*
X149275280Y-60868336D01*
X149267712Y-60855710D01*
X149261418Y-60842403D01*
X149256459Y-60828543D01*
X149252882Y-60814264D01*
X149250722Y-60799703D01*
X149250000Y-60785000D01*
X149250000Y-60485000D01*
X149250722Y-60470297D01*
X149252882Y-60455736D01*
X149256459Y-60441457D01*
X149261418Y-60427597D01*
X149267712Y-60414290D01*
X149275280Y-60401664D01*
X149284048Y-60389841D01*
X149293934Y-60378934D01*
X149304841Y-60369048D01*
X149316664Y-60360280D01*
X149329290Y-60352712D01*
X149342597Y-60346418D01*
X149356457Y-60341459D01*
X149370736Y-60337882D01*
X149385297Y-60335722D01*
X149400000Y-60335000D01*
X151050000Y-60335000D01*
X151064703Y-60335722D01*
X151064703Y-60335722D01*
G37*
D40*
G04 #@! TD*
G04 #@! TO.P,U4,7*
G04 #@! TO.N,DCDC_BATT*
X150225000Y-60635000D03*
D23*
G04 #@! TO.N,Net-(C7-Pad2)*
G04 #@! TO.C,U4*
G36*
X151064703Y-61605722D02*
X151079264Y-61607882D01*
X151093543Y-61611459D01*
X151107403Y-61616418D01*
X151120710Y-61622712D01*
X151133336Y-61630280D01*
X151145159Y-61639048D01*
X151156066Y-61648934D01*
X151165952Y-61659841D01*
X151174720Y-61671664D01*
X151182288Y-61684290D01*
X151188582Y-61697597D01*
X151193541Y-61711457D01*
X151197118Y-61725736D01*
X151199278Y-61740297D01*
X151200000Y-61755000D01*
X151200000Y-62055000D01*
X151199278Y-62069703D01*
X151197118Y-62084264D01*
X151193541Y-62098543D01*
X151188582Y-62112403D01*
X151182288Y-62125710D01*
X151174720Y-62138336D01*
X151165952Y-62150159D01*
X151156066Y-62161066D01*
X151145159Y-62170952D01*
X151133336Y-62179720D01*
X151120710Y-62187288D01*
X151107403Y-62193582D01*
X151093543Y-62198541D01*
X151079264Y-62202118D01*
X151064703Y-62204278D01*
X151050000Y-62205000D01*
X149400000Y-62205000D01*
X149385297Y-62204278D01*
X149370736Y-62202118D01*
X149356457Y-62198541D01*
X149342597Y-62193582D01*
X149329290Y-62187288D01*
X149316664Y-62179720D01*
X149304841Y-62170952D01*
X149293934Y-62161066D01*
X149284048Y-62150159D01*
X149275280Y-62138336D01*
X149267712Y-62125710D01*
X149261418Y-62112403D01*
X149256459Y-62098543D01*
X149252882Y-62084264D01*
X149250722Y-62069703D01*
X149250000Y-62055000D01*
X149250000Y-61755000D01*
X149250722Y-61740297D01*
X149252882Y-61725736D01*
X149256459Y-61711457D01*
X149261418Y-61697597D01*
X149267712Y-61684290D01*
X149275280Y-61671664D01*
X149284048Y-61659841D01*
X149293934Y-61648934D01*
X149304841Y-61639048D01*
X149316664Y-61630280D01*
X149329290Y-61622712D01*
X149342597Y-61616418D01*
X149356457Y-61611459D01*
X149370736Y-61607882D01*
X149385297Y-61605722D01*
X149400000Y-61605000D01*
X151050000Y-61605000D01*
X151064703Y-61605722D01*
X151064703Y-61605722D01*
G37*
D40*
G04 #@! TD*
G04 #@! TO.P,U4,8*
G04 #@! TO.N,Net-(C7-Pad2)*
X150225000Y-61905000D03*
D41*
G04 #@! TO.P,C8,2*
G04 #@! TO.N,DCDC_BATT*
X152750000Y-60750000D03*
D42*
G04 #@! TO.P,C8,1*
G04 #@! TO.N,GNDPWR*
X152750000Y-55750000D03*
G04 #@! TD*
G04 #@! TO.P,C9,1*
G04 #@! TO.N,GNDPWR*
X127250000Y-55750000D03*
D41*
G04 #@! TO.P,C9,2*
G04 #@! TO.N,DCDC_BATT*
X127250000Y-60750000D03*
G04 #@! TD*
D43*
G04 #@! TO.N,*
X199750000Y-98250000D03*
X119500000Y-36500000D03*
X119500000Y-98250000D03*
X199750000Y-36500000D03*
G04 #@! TD*
D44*
G04 #@! TO.N,GNDPWR*
X166750000Y-40910000D02*
X166750000Y-38380000D01*
X173299990Y-36102920D02*
X173299990Y-38189990D01*
X172497060Y-35299990D02*
X173299990Y-36102920D01*
X166750000Y-38380000D02*
X169830010Y-35299990D01*
X169830010Y-35299990D02*
X172497060Y-35299990D01*
X185900000Y-50790000D02*
X187500000Y-50790000D01*
X173299990Y-38189990D02*
X185900000Y-50790000D01*
D45*
G04 #@! TO.N,4Cell_BATT*
X160380000Y-88000000D02*
X162840000Y-85540000D01*
X162840000Y-85540000D02*
X163839999Y-84540001D01*
X163839999Y-84540001D02*
X179329999Y-84540001D01*
X179329999Y-84540001D02*
X180930000Y-82940000D01*
X180930000Y-82940000D02*
X180930000Y-72619999D01*
X189800000Y-59540000D02*
X187630000Y-57370000D01*
X189800000Y-54190000D02*
X189800000Y-59540000D01*
X177830000Y-46660000D02*
X183910000Y-52740000D01*
X183910000Y-52740000D02*
X188350000Y-52740000D01*
X188350000Y-52740000D02*
X189800000Y-54190000D01*
X177830000Y-46660000D02*
X177830000Y-46640000D01*
X172000000Y-40810000D02*
X172000000Y-37000000D01*
X177830000Y-46640000D02*
X172000000Y-40810000D01*
X139462500Y-97750000D02*
X139500000Y-97712500D01*
X135750000Y-97750000D02*
X139462500Y-97750000D01*
X149212500Y-88000000D02*
X154250000Y-88000000D01*
X139500000Y-97712500D02*
X149212500Y-88000000D01*
X154250000Y-88000000D02*
X160380000Y-88000000D01*
X180930000Y-71879998D02*
X180930000Y-72619999D01*
X187329998Y-65480000D02*
X180930000Y-71879998D01*
X188700000Y-65480000D02*
X187329998Y-65480000D01*
X189800000Y-64380000D02*
X188700000Y-65480000D01*
X189800000Y-59540000D02*
X189800000Y-64380000D01*
G04 #@! TO.N,+12V*
X193570000Y-68570000D02*
X193250000Y-68250000D01*
X195500000Y-68570000D02*
X193570000Y-68570000D01*
X189234213Y-88500000D02*
X191250000Y-88500000D01*
X183160000Y-93160000D02*
X184574213Y-93160000D01*
X184574213Y-93160000D02*
X189234213Y-88500000D01*
X195500000Y-68570000D02*
X195980002Y-68570000D01*
X195980002Y-68570000D02*
X197540000Y-70129998D01*
X197540000Y-70129998D02*
X197540000Y-72460000D01*
X193250000Y-88500000D02*
X191250000Y-88500000D01*
X197540000Y-72460000D02*
X194510000Y-75490000D01*
X194510000Y-87240000D02*
X193250000Y-88500000D01*
X196900000Y-77930000D02*
X197000000Y-77930000D01*
X194510000Y-80320000D02*
X196900000Y-77930000D01*
X194510000Y-80930000D02*
X194510000Y-80320000D01*
X194510000Y-80930000D02*
X194510000Y-87240000D01*
X194510000Y-75490000D02*
X194510000Y-80930000D01*
X198930000Y-77930000D02*
X199250000Y-78250000D01*
X197000000Y-77930000D02*
X198930000Y-77930000D01*
X195400000Y-85430000D02*
X197000000Y-85430000D01*
X194510000Y-86320000D02*
X195400000Y-85430000D01*
X194510000Y-87240000D02*
X194510000Y-86320000D01*
X198930000Y-85430000D02*
X199250000Y-85750000D01*
X197000000Y-85430000D02*
X198930000Y-85430000D01*
X193250000Y-88500000D02*
X195712500Y-88500000D01*
X195120000Y-48250000D02*
X199510000Y-48250000D01*
X199510000Y-48250000D02*
X200810000Y-49550000D01*
X200810000Y-49550000D02*
X200810000Y-57340000D01*
X197540000Y-60610000D02*
X197540000Y-70129998D01*
X200810000Y-57340000D02*
X197540000Y-60610000D01*
D44*
G04 #@! TO.N,GND*
X197900001Y-49500001D02*
X193870001Y-49500001D01*
X198575000Y-50750000D02*
X198575000Y-50175000D01*
X198575000Y-50175000D02*
X197900001Y-49500001D01*
X192750000Y-70750000D02*
X191160000Y-69160000D01*
X193250000Y-70750000D02*
X192750000Y-70750000D01*
X191160000Y-69160000D02*
X191160000Y-67590000D01*
X191799990Y-66950010D02*
X195330010Y-66950010D01*
X191160000Y-67590000D02*
X191799990Y-66950010D01*
D45*
G04 #@! TO.N,Net-(C6-Pad1)*
X120800000Y-62930000D02*
X119775000Y-61905000D01*
X120800000Y-63750000D02*
X120800000Y-62930000D01*
G04 #@! TO.N,Net-(C6-Pad2)*
X130502500Y-66872500D02*
X134750000Y-66872500D01*
G04 #@! TO.N,Net-(C7-Pad1)*
X146050000Y-62680000D02*
X145275000Y-61905000D01*
X146050000Y-63750000D02*
X146050000Y-62680000D01*
D44*
G04 #@! TO.N,7V_OUTA*
X141000000Y-47037500D02*
X140750000Y-46787500D01*
X141000000Y-48750000D02*
X141000000Y-47037500D01*
G04 #@! TO.N,7V_OUTB*
X166750000Y-48750000D02*
X166750000Y-46787500D01*
G04 #@! TO.N,Net-(D2-Pad1)*
X123962500Y-91787500D02*
X123750000Y-92000000D01*
X123962500Y-89750000D02*
X123962500Y-91787500D01*
G04 #@! TO.N,Net-(D3-Pad1)*
X142712500Y-99287500D02*
X143250000Y-98750000D01*
X139500000Y-99287500D02*
X142712500Y-99287500D01*
G04 #@! TO.N,Net-(D4-Pad1)*
X186000000Y-44462500D02*
X186000000Y-42500000D01*
G04 #@! TO.N,Net-(D5-Pad1)*
X198750000Y-88500000D02*
X200250000Y-90000000D01*
X197287500Y-88500000D02*
X198750000Y-88500000D01*
G04 #@! TO.N,Net-(D6-Pad1)*
X140750000Y-45212500D02*
X140750000Y-43500000D01*
G04 #@! TO.N,Net-(D7-Pad1)*
X166750000Y-45212500D02*
X166750000Y-43450000D01*
G04 #@! TO.N,/Relay_State*
X193250000Y-52660000D02*
X195120000Y-50790000D01*
X193250000Y-63250000D02*
X193250000Y-52660000D01*
X196960000Y-50790000D02*
X197000000Y-50750000D01*
X195120000Y-50790000D02*
X196960000Y-50790000D01*
G04 #@! TO.N,Net-(IC1-Pad1)*
X187500000Y-48250000D02*
X188412500Y-48250000D01*
G04 #@! TO.N,/Force_Shutdown*
X193750000Y-65750000D02*
X193250000Y-65750000D01*
X195250000Y-64250000D02*
X193750000Y-65750000D01*
X195250000Y-57370000D02*
X195250000Y-64250000D01*
G04 #@! TO.N,Net-(IC2-Pad2)*
X196207500Y-54830000D02*
X197000000Y-54037500D01*
X195250000Y-54830000D02*
X196207500Y-54830000D01*
G04 #@! TO.N,Net-(IC2-Pad3)*
X185867500Y-54830000D02*
X185787500Y-54750000D01*
X187630000Y-54830000D02*
X185867500Y-54830000D01*
X185787500Y-54750000D02*
X185787500Y-56500000D01*
D45*
G04 #@! TO.N,Relay_OUT*
X180040000Y-56790000D02*
X180250000Y-57000000D01*
X176500000Y-56790000D02*
X180040000Y-56790000D01*
X184440000Y-61190000D02*
X180250000Y-57000000D01*
X187910000Y-61190000D02*
X184440000Y-61190000D01*
X187910000Y-63775000D02*
X188000000Y-63865000D01*
X187910000Y-61190000D02*
X187910000Y-63775000D01*
G04 #@! TO.N,Net-(P8-Pad2)*
X179500000Y-37000000D02*
X174500000Y-37000000D01*
G04 #@! TO.N,Relay_BATT*
X188909999Y-67810001D02*
X188909999Y-67790001D01*
X187910000Y-68810000D02*
X188909999Y-67810001D01*
X188909999Y-67790001D02*
X191000000Y-65700000D01*
X190449112Y-48711612D02*
X189987500Y-48250000D01*
X191000010Y-49262510D02*
X190449112Y-48711612D01*
X191000010Y-64297060D02*
X191000010Y-49262510D01*
X191000000Y-64297070D02*
X191000010Y-64297060D01*
X191000000Y-65700000D02*
X191000000Y-64297070D01*
X191000010Y-49063184D02*
X191000010Y-49262510D01*
X188435938Y-46499112D02*
X191000010Y-49063184D01*
X186461612Y-46499112D02*
X188435938Y-46499112D01*
X186000000Y-46037500D02*
X186461612Y-46499112D01*
X185037500Y-46037500D02*
X186000000Y-46037500D01*
X182000000Y-37000000D02*
X182000000Y-43000000D01*
X182000000Y-43000000D02*
X185037500Y-46037500D01*
X188000000Y-68720000D02*
X187910000Y-68810000D01*
X188000000Y-67135000D02*
X188000000Y-68720000D01*
D44*
G04 #@! TO.N,Net-(Q1-Pad1)*
X179300000Y-54550000D02*
X179300000Y-54000000D01*
X180150001Y-55400001D02*
X179300000Y-54550000D01*
X183112501Y-55400001D02*
X180150001Y-55400001D01*
X184212500Y-56500000D02*
X183112501Y-55400001D01*
D45*
G04 #@! TO.N,DCDC_BATT*
X127135000Y-60635000D02*
X127250000Y-60750000D01*
X124725000Y-60635000D02*
X127135000Y-60635000D01*
X153190000Y-61190000D02*
X152750000Y-60750000D01*
X170130000Y-61190000D02*
X153190000Y-61190000D01*
X150340000Y-60750000D02*
X150225000Y-60635000D01*
X152750000Y-60750000D02*
X150340000Y-60750000D01*
X137000000Y-60750000D02*
X127250000Y-60750000D01*
X137750000Y-60750000D02*
X137000000Y-60750000D01*
X147500000Y-70500000D02*
X137750000Y-60750000D01*
X167000000Y-70500000D02*
X147500000Y-70500000D01*
X170130000Y-67370000D02*
X167000000Y-70500000D01*
X170130000Y-61190000D02*
X170130000Y-67370000D01*
G04 #@! TO.N,Net-(D1-Pad3)*
X130500000Y-95000000D02*
X133250000Y-97750000D01*
X130500000Y-92200000D02*
X130500000Y-95000000D01*
G04 #@! TO.N,/FB_A*
X119775000Y-56312500D02*
X119712500Y-56250000D01*
X119775000Y-58095000D02*
X119775000Y-56312500D01*
X119712500Y-56250000D02*
X119712500Y-54500000D01*
G04 #@! TO.N,/FB_B*
X145275000Y-56312500D02*
X145212500Y-56250000D01*
X145275000Y-58095000D02*
X145275000Y-56312500D01*
X145175000Y-56212500D02*
X145175000Y-54500000D01*
X145275000Y-56312500D02*
X145175000Y-56212500D01*
G04 #@! TD*
D46*
G04 #@! TO.N,GND*
G36*
X196668396Y-34440938D02*
X196115000Y-35776954D01*
X196115000Y-37223046D01*
X196668396Y-38559062D01*
X197690938Y-39581604D01*
X199026954Y-40135000D01*
X200473046Y-40135000D01*
X201809062Y-39581604D01*
X202015000Y-39375666D01*
X202015001Y-95374335D01*
X201809062Y-95168396D01*
X200473046Y-94615000D01*
X199026954Y-94615000D01*
X197690938Y-95168396D01*
X196668396Y-96190938D01*
X196115000Y-97526954D01*
X196115000Y-98973046D01*
X196668396Y-100309062D01*
X196874334Y-100515000D01*
X168627000Y-100515000D01*
X168627000Y-85675001D01*
X179218216Y-85675001D01*
X179329999Y-85697236D01*
X179441782Y-85675001D01*
X179772854Y-85609147D01*
X180148288Y-85358290D01*
X180211612Y-85263519D01*
X181653521Y-83821611D01*
X181748289Y-83758289D01*
X181875514Y-83567884D01*
X182023914Y-83926153D01*
X182483847Y-84386086D01*
X183084778Y-84635000D01*
X183735222Y-84635000D01*
X184336153Y-84386086D01*
X184796086Y-83926153D01*
X185045000Y-83325222D01*
X185045000Y-82674778D01*
X184796086Y-82073847D01*
X184336153Y-81613914D01*
X183735222Y-81365000D01*
X183084778Y-81365000D01*
X182483847Y-81613914D01*
X182127000Y-81970761D01*
X182127000Y-72288129D01*
X183538129Y-70877000D01*
X190500000Y-70877000D01*
X190548601Y-70867333D01*
X190589803Y-70839803D01*
X190617333Y-70798601D01*
X190627000Y-70750000D01*
X190627000Y-67678131D01*
X191673418Y-66631714D01*
X191751471Y-66748529D01*
X192127824Y-67000000D01*
X191751471Y-67251471D01*
X191445359Y-67709600D01*
X191337867Y-68250000D01*
X191445359Y-68790400D01*
X191751471Y-69248529D01*
X192209600Y-69554641D01*
X192613593Y-69635000D01*
X193120940Y-69635000D01*
X193127145Y-69639146D01*
X193458217Y-69705000D01*
X193569999Y-69727235D01*
X193681781Y-69705000D01*
X194837459Y-69705000D01*
X194900000Y-69717440D01*
X195522311Y-69717440D01*
X196405000Y-70600130D01*
X196405001Y-71989867D01*
X193786482Y-74608387D01*
X193691711Y-74671711D01*
X193440855Y-75047145D01*
X193440854Y-75047146D01*
X193352765Y-75490000D01*
X193375000Y-75601783D01*
X193375001Y-80208213D01*
X193352765Y-80320000D01*
X193375000Y-80431783D01*
X193375000Y-80818218D01*
X193375001Y-86208213D01*
X193352765Y-86320000D01*
X193375000Y-86431783D01*
X193375000Y-86769868D01*
X192855536Y-87289333D01*
X192848157Y-87252235D01*
X192707809Y-87042191D01*
X192497765Y-86901843D01*
X192250000Y-86852560D01*
X190250000Y-86852560D01*
X190002235Y-86901843D01*
X189792191Y-87042191D01*
X189651843Y-87252235D01*
X189629413Y-87365000D01*
X189345995Y-87365000D01*
X189234212Y-87342765D01*
X189001039Y-87389146D01*
X188791358Y-87430854D01*
X188415924Y-87681711D01*
X188352602Y-87776479D01*
X184345660Y-91783421D01*
X184336153Y-91773914D01*
X183735222Y-91525000D01*
X183084778Y-91525000D01*
X182483847Y-91773914D01*
X182023914Y-92233847D01*
X181775000Y-92834778D01*
X181775000Y-93485222D01*
X182023914Y-94086153D01*
X182483847Y-94546086D01*
X183084778Y-94795000D01*
X183735222Y-94795000D01*
X184336153Y-94546086D01*
X184566532Y-94315707D01*
X184574213Y-94317235D01*
X184685996Y-94295000D01*
X185017068Y-94229146D01*
X185392502Y-93978289D01*
X185455826Y-93883518D01*
X189641845Y-89697500D01*
X189651843Y-89747765D01*
X189792191Y-89957809D01*
X190002235Y-90098157D01*
X190250000Y-90147440D01*
X192250000Y-90147440D01*
X192497765Y-90098157D01*
X192707809Y-89957809D01*
X192848157Y-89747765D01*
X192870587Y-89635000D01*
X193138217Y-89635000D01*
X193250000Y-89657235D01*
X193361783Y-89635000D01*
X195824283Y-89635000D01*
X195887427Y-89622440D01*
X195931250Y-89622440D01*
X196262727Y-89556505D01*
X196500000Y-89397964D01*
X196737273Y-89556505D01*
X197068750Y-89622440D01*
X197506250Y-89622440D01*
X197837727Y-89556505D01*
X198094403Y-89385000D01*
X198383422Y-89385000D01*
X198702560Y-89704138D01*
X198702560Y-90900000D01*
X198751843Y-91147765D01*
X198892191Y-91357809D01*
X199102235Y-91498157D01*
X199350000Y-91547440D01*
X201150000Y-91547440D01*
X201397765Y-91498157D01*
X201607809Y-91357809D01*
X201748157Y-91147765D01*
X201797440Y-90900000D01*
X201797440Y-89100000D01*
X201748157Y-88852235D01*
X201607809Y-88642191D01*
X201397765Y-88501843D01*
X201150000Y-88452560D01*
X199954138Y-88452560D01*
X199437425Y-87935847D01*
X199388049Y-87861951D01*
X199095310Y-87666348D01*
X198837165Y-87615000D01*
X198837161Y-87615000D01*
X198750000Y-87597663D01*
X198662839Y-87615000D01*
X198094403Y-87615000D01*
X197837727Y-87443495D01*
X197506250Y-87377560D01*
X197068750Y-87377560D01*
X196737273Y-87443495D01*
X196500000Y-87602036D01*
X196262727Y-87443495D01*
X195931250Y-87377560D01*
X195887427Y-87377560D01*
X195824283Y-87365000D01*
X195642371Y-87365000D01*
X195667235Y-87240001D01*
X195645000Y-87128218D01*
X195645000Y-86790131D01*
X195870132Y-86565000D01*
X196337459Y-86565000D01*
X196400000Y-86577440D01*
X197600000Y-86577440D01*
X197632794Y-86570917D01*
X197751471Y-86748529D01*
X198209600Y-87054641D01*
X198613593Y-87135000D01*
X199886407Y-87135000D01*
X200290400Y-87054641D01*
X200748529Y-86748529D01*
X201054641Y-86290400D01*
X201162133Y-85750000D01*
X201054641Y-85209600D01*
X200748529Y-84751471D01*
X200290400Y-84445359D01*
X199886407Y-84365000D01*
X199379060Y-84365000D01*
X199372855Y-84360854D01*
X199041783Y-84295000D01*
X198930000Y-84272765D01*
X198818217Y-84295000D01*
X197662541Y-84295000D01*
X197600000Y-84282560D01*
X196400000Y-84282560D01*
X196337459Y-84295000D01*
X195645000Y-84295000D01*
X195645000Y-80790131D01*
X197357692Y-79077440D01*
X197600000Y-79077440D01*
X197632794Y-79070917D01*
X197751471Y-79248529D01*
X198209600Y-79554641D01*
X198613593Y-79635000D01*
X199886407Y-79635000D01*
X200290400Y-79554641D01*
X200748529Y-79248529D01*
X201054641Y-78790400D01*
X201162133Y-78250000D01*
X201054641Y-77709600D01*
X200748529Y-77251471D01*
X200290400Y-76945359D01*
X199886407Y-76865000D01*
X199379060Y-76865000D01*
X199372855Y-76860854D01*
X199041783Y-76795000D01*
X198930000Y-76772765D01*
X198818217Y-76795000D01*
X197662541Y-76795000D01*
X197600000Y-76782560D01*
X196949241Y-76782560D01*
X196899999Y-76772765D01*
X196850757Y-76782560D01*
X196400000Y-76782560D01*
X196152235Y-76831843D01*
X195942191Y-76972191D01*
X195801843Y-77182235D01*
X195752560Y-77430000D01*
X195752560Y-77472308D01*
X195645000Y-77579868D01*
X195645000Y-75960131D01*
X198263521Y-73341611D01*
X198358289Y-73278289D01*
X198609146Y-72902855D01*
X198675000Y-72571783D01*
X198697235Y-72460001D01*
X198675000Y-72348218D01*
X198675000Y-70241779D01*
X198697235Y-70129997D01*
X198675000Y-70018215D01*
X198675000Y-68865628D01*
X199325322Y-69135000D01*
X200174678Y-69135000D01*
X200959380Y-68809966D01*
X201559966Y-68209380D01*
X201885000Y-67424678D01*
X201885000Y-66575322D01*
X201559966Y-65790620D01*
X200959380Y-65190034D01*
X200174678Y-64865000D01*
X199325322Y-64865000D01*
X198675000Y-65134372D01*
X198675000Y-61080131D01*
X201533521Y-58221611D01*
X201628289Y-58158289D01*
X201879146Y-57782855D01*
X201945000Y-57451783D01*
X201967235Y-57340001D01*
X201945000Y-57228219D01*
X201945000Y-49661783D01*
X201967235Y-49550000D01*
X201879146Y-49107145D01*
X201853183Y-49068289D01*
X201628289Y-48731711D01*
X201533521Y-48668389D01*
X200391613Y-47526482D01*
X200328289Y-47431711D01*
X199952855Y-47180854D01*
X199621783Y-47115000D01*
X199510000Y-47092765D01*
X199398217Y-47115000D01*
X196004283Y-47115000D01*
X195679909Y-46898260D01*
X195261333Y-46815000D01*
X194978667Y-46815000D01*
X194560091Y-46898260D01*
X194085423Y-47215423D01*
X193768260Y-47690091D01*
X193656887Y-48250000D01*
X193768260Y-48809909D01*
X194085423Y-49284577D01*
X194437758Y-49520000D01*
X194085423Y-49755423D01*
X193768260Y-50230091D01*
X193656887Y-50790000D01*
X193691983Y-50966439D01*
X192877000Y-51781422D01*
X192877000Y-47000000D01*
X192867333Y-46951399D01*
X192839803Y-46910197D01*
X192798601Y-46882667D01*
X192750000Y-46873000D01*
X190627000Y-46873000D01*
X190627000Y-34235000D01*
X196874334Y-34235000D01*
X196668396Y-34440938D01*
X196668396Y-34440938D01*
G37*
X196668396Y-34440938D02*
X196115000Y-35776954D01*
X196115000Y-37223046D01*
X196668396Y-38559062D01*
X197690938Y-39581604D01*
X199026954Y-40135000D01*
X200473046Y-40135000D01*
X201809062Y-39581604D01*
X202015000Y-39375666D01*
X202015001Y-95374335D01*
X201809062Y-95168396D01*
X200473046Y-94615000D01*
X199026954Y-94615000D01*
X197690938Y-95168396D01*
X196668396Y-96190938D01*
X196115000Y-97526954D01*
X196115000Y-98973046D01*
X196668396Y-100309062D01*
X196874334Y-100515000D01*
X168627000Y-100515000D01*
X168627000Y-85675001D01*
X179218216Y-85675001D01*
X179329999Y-85697236D01*
X179441782Y-85675001D01*
X179772854Y-85609147D01*
X180148288Y-85358290D01*
X180211612Y-85263519D01*
X181653521Y-83821611D01*
X181748289Y-83758289D01*
X181875514Y-83567884D01*
X182023914Y-83926153D01*
X182483847Y-84386086D01*
X183084778Y-84635000D01*
X183735222Y-84635000D01*
X184336153Y-84386086D01*
X184796086Y-83926153D01*
X185045000Y-83325222D01*
X185045000Y-82674778D01*
X184796086Y-82073847D01*
X184336153Y-81613914D01*
X183735222Y-81365000D01*
X183084778Y-81365000D01*
X182483847Y-81613914D01*
X182127000Y-81970761D01*
X182127000Y-72288129D01*
X183538129Y-70877000D01*
X190500000Y-70877000D01*
X190548601Y-70867333D01*
X190589803Y-70839803D01*
X190617333Y-70798601D01*
X190627000Y-70750000D01*
X190627000Y-67678131D01*
X191673418Y-66631714D01*
X191751471Y-66748529D01*
X192127824Y-67000000D01*
X191751471Y-67251471D01*
X191445359Y-67709600D01*
X191337867Y-68250000D01*
X191445359Y-68790400D01*
X191751471Y-69248529D01*
X192209600Y-69554641D01*
X192613593Y-69635000D01*
X193120940Y-69635000D01*
X193127145Y-69639146D01*
X193458217Y-69705000D01*
X193569999Y-69727235D01*
X193681781Y-69705000D01*
X194837459Y-69705000D01*
X194900000Y-69717440D01*
X195522311Y-69717440D01*
X196405000Y-70600130D01*
X196405001Y-71989867D01*
X193786482Y-74608387D01*
X193691711Y-74671711D01*
X193440855Y-75047145D01*
X193440854Y-75047146D01*
X193352765Y-75490000D01*
X193375000Y-75601783D01*
X193375001Y-80208213D01*
X193352765Y-80320000D01*
X193375000Y-80431783D01*
X193375000Y-80818218D01*
X193375001Y-86208213D01*
X193352765Y-86320000D01*
X193375000Y-86431783D01*
X193375000Y-86769868D01*
X192855536Y-87289333D01*
X192848157Y-87252235D01*
X192707809Y-87042191D01*
X192497765Y-86901843D01*
X192250000Y-86852560D01*
X190250000Y-86852560D01*
X190002235Y-86901843D01*
X189792191Y-87042191D01*
X189651843Y-87252235D01*
X189629413Y-87365000D01*
X189345995Y-87365000D01*
X189234212Y-87342765D01*
X189001039Y-87389146D01*
X188791358Y-87430854D01*
X188415924Y-87681711D01*
X188352602Y-87776479D01*
X184345660Y-91783421D01*
X184336153Y-91773914D01*
X183735222Y-91525000D01*
X183084778Y-91525000D01*
X182483847Y-91773914D01*
X182023914Y-92233847D01*
X181775000Y-92834778D01*
X181775000Y-93485222D01*
X182023914Y-94086153D01*
X182483847Y-94546086D01*
X183084778Y-94795000D01*
X183735222Y-94795000D01*
X184336153Y-94546086D01*
X184566532Y-94315707D01*
X184574213Y-94317235D01*
X184685996Y-94295000D01*
X185017068Y-94229146D01*
X185392502Y-93978289D01*
X185455826Y-93883518D01*
X189641845Y-89697500D01*
X189651843Y-89747765D01*
X189792191Y-89957809D01*
X190002235Y-90098157D01*
X190250000Y-90147440D01*
X192250000Y-90147440D01*
X192497765Y-90098157D01*
X192707809Y-89957809D01*
X192848157Y-89747765D01*
X192870587Y-89635000D01*
X193138217Y-89635000D01*
X193250000Y-89657235D01*
X193361783Y-89635000D01*
X195824283Y-89635000D01*
X195887427Y-89622440D01*
X195931250Y-89622440D01*
X196262727Y-89556505D01*
X196500000Y-89397964D01*
X196737273Y-89556505D01*
X197068750Y-89622440D01*
X197506250Y-89622440D01*
X197837727Y-89556505D01*
X198094403Y-89385000D01*
X198383422Y-89385000D01*
X198702560Y-89704138D01*
X198702560Y-90900000D01*
X198751843Y-91147765D01*
X198892191Y-91357809D01*
X199102235Y-91498157D01*
X199350000Y-91547440D01*
X201150000Y-91547440D01*
X201397765Y-91498157D01*
X201607809Y-91357809D01*
X201748157Y-91147765D01*
X201797440Y-90900000D01*
X201797440Y-89100000D01*
X201748157Y-88852235D01*
X201607809Y-88642191D01*
X201397765Y-88501843D01*
X201150000Y-88452560D01*
X199954138Y-88452560D01*
X199437425Y-87935847D01*
X199388049Y-87861951D01*
X199095310Y-87666348D01*
X198837165Y-87615000D01*
X198837161Y-87615000D01*
X198750000Y-87597663D01*
X198662839Y-87615000D01*
X198094403Y-87615000D01*
X197837727Y-87443495D01*
X197506250Y-87377560D01*
X197068750Y-87377560D01*
X196737273Y-87443495D01*
X196500000Y-87602036D01*
X196262727Y-87443495D01*
X195931250Y-87377560D01*
X195887427Y-87377560D01*
X195824283Y-87365000D01*
X195642371Y-87365000D01*
X195667235Y-87240001D01*
X195645000Y-87128218D01*
X195645000Y-86790131D01*
X195870132Y-86565000D01*
X196337459Y-86565000D01*
X196400000Y-86577440D01*
X197600000Y-86577440D01*
X197632794Y-86570917D01*
X197751471Y-86748529D01*
X198209600Y-87054641D01*
X198613593Y-87135000D01*
X199886407Y-87135000D01*
X200290400Y-87054641D01*
X200748529Y-86748529D01*
X201054641Y-86290400D01*
X201162133Y-85750000D01*
X201054641Y-85209600D01*
X200748529Y-84751471D01*
X200290400Y-84445359D01*
X199886407Y-84365000D01*
X199379060Y-84365000D01*
X199372855Y-84360854D01*
X199041783Y-84295000D01*
X198930000Y-84272765D01*
X198818217Y-84295000D01*
X197662541Y-84295000D01*
X197600000Y-84282560D01*
X196400000Y-84282560D01*
X196337459Y-84295000D01*
X195645000Y-84295000D01*
X195645000Y-80790131D01*
X197357692Y-79077440D01*
X197600000Y-79077440D01*
X197632794Y-79070917D01*
X197751471Y-79248529D01*
X198209600Y-79554641D01*
X198613593Y-79635000D01*
X199886407Y-79635000D01*
X200290400Y-79554641D01*
X200748529Y-79248529D01*
X201054641Y-78790400D01*
X201162133Y-78250000D01*
X201054641Y-77709600D01*
X200748529Y-77251471D01*
X200290400Y-76945359D01*
X199886407Y-76865000D01*
X199379060Y-76865000D01*
X199372855Y-76860854D01*
X199041783Y-76795000D01*
X198930000Y-76772765D01*
X198818217Y-76795000D01*
X197662541Y-76795000D01*
X197600000Y-76782560D01*
X196949241Y-76782560D01*
X196899999Y-76772765D01*
X196850757Y-76782560D01*
X196400000Y-76782560D01*
X196152235Y-76831843D01*
X195942191Y-76972191D01*
X195801843Y-77182235D01*
X195752560Y-77430000D01*
X195752560Y-77472308D01*
X195645000Y-77579868D01*
X195645000Y-75960131D01*
X198263521Y-73341611D01*
X198358289Y-73278289D01*
X198609146Y-72902855D01*
X198675000Y-72571783D01*
X198697235Y-72460001D01*
X198675000Y-72348218D01*
X198675000Y-70241779D01*
X198697235Y-70129997D01*
X198675000Y-70018215D01*
X198675000Y-68865628D01*
X199325322Y-69135000D01*
X200174678Y-69135000D01*
X200959380Y-68809966D01*
X201559966Y-68209380D01*
X201885000Y-67424678D01*
X201885000Y-66575322D01*
X201559966Y-65790620D01*
X200959380Y-65190034D01*
X200174678Y-64865000D01*
X199325322Y-64865000D01*
X198675000Y-65134372D01*
X198675000Y-61080131D01*
X201533521Y-58221611D01*
X201628289Y-58158289D01*
X201879146Y-57782855D01*
X201945000Y-57451783D01*
X201967235Y-57340001D01*
X201945000Y-57228219D01*
X201945000Y-49661783D01*
X201967235Y-49550000D01*
X201879146Y-49107145D01*
X201853183Y-49068289D01*
X201628289Y-48731711D01*
X201533521Y-48668389D01*
X200391613Y-47526482D01*
X200328289Y-47431711D01*
X199952855Y-47180854D01*
X199621783Y-47115000D01*
X199510000Y-47092765D01*
X199398217Y-47115000D01*
X196004283Y-47115000D01*
X195679909Y-46898260D01*
X195261333Y-46815000D01*
X194978667Y-46815000D01*
X194560091Y-46898260D01*
X194085423Y-47215423D01*
X193768260Y-47690091D01*
X193656887Y-48250000D01*
X193768260Y-48809909D01*
X194085423Y-49284577D01*
X194437758Y-49520000D01*
X194085423Y-49755423D01*
X193768260Y-50230091D01*
X193656887Y-50790000D01*
X193691983Y-50966439D01*
X192877000Y-51781422D01*
X192877000Y-47000000D01*
X192867333Y-46951399D01*
X192839803Y-46910197D01*
X192798601Y-46882667D01*
X192750000Y-46873000D01*
X190627000Y-46873000D01*
X190627000Y-34235000D01*
X196874334Y-34235000D01*
X196668396Y-34440938D01*
G36*
X199675000Y-50020132D02*
X199675001Y-56869867D01*
X196816482Y-59728387D01*
X196721711Y-59791711D01*
X196501785Y-60120854D01*
X196470854Y-60167146D01*
X196382765Y-60610000D01*
X196405000Y-60721783D01*
X196405001Y-67497302D01*
X196377757Y-67491883D01*
X196347765Y-67471843D01*
X196100000Y-67422560D01*
X196029245Y-67422560D01*
X195980002Y-67412765D01*
X195930759Y-67422560D01*
X194900000Y-67422560D01*
X194867206Y-67429083D01*
X194748529Y-67251471D01*
X194372176Y-67000000D01*
X194748529Y-66748529D01*
X195054641Y-66290400D01*
X195162133Y-65750000D01*
X195135495Y-65616083D01*
X195814156Y-64937423D01*
X195888049Y-64888049D01*
X195961710Y-64777809D01*
X196059902Y-64630854D01*
X196083652Y-64595310D01*
X196135000Y-64337165D01*
X196135000Y-64337161D01*
X196152337Y-64250001D01*
X196135000Y-64162841D01*
X196135000Y-58800533D01*
X196297765Y-58768157D01*
X196507809Y-58627809D01*
X196648157Y-58417765D01*
X196697440Y-58170000D01*
X196697440Y-56570000D01*
X196648157Y-56322235D01*
X196507809Y-56112191D01*
X196297765Y-55971843D01*
X196163894Y-55945215D01*
X196284577Y-55864577D01*
X196398294Y-55694387D01*
X196552810Y-55663652D01*
X196845549Y-55468049D01*
X196894925Y-55394153D01*
X197166638Y-55122440D01*
X197256250Y-55122440D01*
X197587727Y-55056505D01*
X197868739Y-54868739D01*
X198056505Y-54587727D01*
X198122440Y-54256250D01*
X198122440Y-53818750D01*
X198056505Y-53487273D01*
X197868739Y-53206261D01*
X197587727Y-53018495D01*
X197256250Y-52952560D01*
X196743750Y-52952560D01*
X196412273Y-53018495D01*
X196131261Y-53206261D01*
X195943495Y-53487273D01*
X195929406Y-53558105D01*
X195809909Y-53478260D01*
X195391333Y-53395000D01*
X195108667Y-53395000D01*
X194690091Y-53478260D01*
X194215423Y-53795423D01*
X194135000Y-53915785D01*
X194135000Y-53026578D01*
X194943561Y-52218017D01*
X194978667Y-52225000D01*
X195261333Y-52225000D01*
X195679909Y-52141740D01*
X196154577Y-51824577D01*
X196254040Y-51675720D01*
X196449773Y-51806505D01*
X196781250Y-51872440D01*
X197218750Y-51872440D01*
X197550227Y-51806505D01*
X197831239Y-51618739D01*
X198019005Y-51337727D01*
X198084940Y-51006250D01*
X198084940Y-50493750D01*
X198019005Y-50162273D01*
X197831239Y-49881261D01*
X197550227Y-49693495D01*
X197218750Y-49627560D01*
X196781250Y-49627560D01*
X196449773Y-49693495D01*
X196217085Y-49848972D01*
X196154577Y-49755423D01*
X195802242Y-49520000D01*
X196004283Y-49385000D01*
X199039869Y-49385000D01*
X199675000Y-50020132D01*
X199675000Y-50020132D01*
G37*
X199675000Y-50020132D02*
X199675001Y-56869867D01*
X196816482Y-59728387D01*
X196721711Y-59791711D01*
X196501785Y-60120854D01*
X196470854Y-60167146D01*
X196382765Y-60610000D01*
X196405000Y-60721783D01*
X196405001Y-67497302D01*
X196377757Y-67491883D01*
X196347765Y-67471843D01*
X196100000Y-67422560D01*
X196029245Y-67422560D01*
X195980002Y-67412765D01*
X195930759Y-67422560D01*
X194900000Y-67422560D01*
X194867206Y-67429083D01*
X194748529Y-67251471D01*
X194372176Y-67000000D01*
X194748529Y-66748529D01*
X195054641Y-66290400D01*
X195162133Y-65750000D01*
X195135495Y-65616083D01*
X195814156Y-64937423D01*
X195888049Y-64888049D01*
X195961710Y-64777809D01*
X196059902Y-64630854D01*
X196083652Y-64595310D01*
X196135000Y-64337165D01*
X196135000Y-64337161D01*
X196152337Y-64250001D01*
X196135000Y-64162841D01*
X196135000Y-58800533D01*
X196297765Y-58768157D01*
X196507809Y-58627809D01*
X196648157Y-58417765D01*
X196697440Y-58170000D01*
X196697440Y-56570000D01*
X196648157Y-56322235D01*
X196507809Y-56112191D01*
X196297765Y-55971843D01*
X196163894Y-55945215D01*
X196284577Y-55864577D01*
X196398294Y-55694387D01*
X196552810Y-55663652D01*
X196845549Y-55468049D01*
X196894925Y-55394153D01*
X197166638Y-55122440D01*
X197256250Y-55122440D01*
X197587727Y-55056505D01*
X197868739Y-54868739D01*
X198056505Y-54587727D01*
X198122440Y-54256250D01*
X198122440Y-53818750D01*
X198056505Y-53487273D01*
X197868739Y-53206261D01*
X197587727Y-53018495D01*
X197256250Y-52952560D01*
X196743750Y-52952560D01*
X196412273Y-53018495D01*
X196131261Y-53206261D01*
X195943495Y-53487273D01*
X195929406Y-53558105D01*
X195809909Y-53478260D01*
X195391333Y-53395000D01*
X195108667Y-53395000D01*
X194690091Y-53478260D01*
X194215423Y-53795423D01*
X194135000Y-53915785D01*
X194135000Y-53026578D01*
X194943561Y-52218017D01*
X194978667Y-52225000D01*
X195261333Y-52225000D01*
X195679909Y-52141740D01*
X196154577Y-51824577D01*
X196254040Y-51675720D01*
X196449773Y-51806505D01*
X196781250Y-51872440D01*
X197218750Y-51872440D01*
X197550227Y-51806505D01*
X197831239Y-51618739D01*
X198019005Y-51337727D01*
X198084940Y-51006250D01*
X198084940Y-50493750D01*
X198019005Y-50162273D01*
X197831239Y-49881261D01*
X197550227Y-49693495D01*
X197218750Y-49627560D01*
X196781250Y-49627560D01*
X196449773Y-49693495D01*
X196217085Y-49848972D01*
X196154577Y-49755423D01*
X195802242Y-49520000D01*
X196004283Y-49385000D01*
X199039869Y-49385000D01*
X199675000Y-50020132D01*
G04 #@! TO.N,Net-(F1-Pad1)*
G36*
X178873000Y-79123000D02*
X164065239Y-79123000D01*
X164016153Y-79073914D01*
X163415222Y-78825000D01*
X162764778Y-78825000D01*
X162163847Y-79073914D01*
X162114761Y-79123000D01*
X160000000Y-79123000D01*
X159951399Y-79132667D01*
X159910197Y-79160197D01*
X159882667Y-79201399D01*
X159873000Y-79250000D01*
X159873000Y-85123000D01*
X152877000Y-85123000D01*
X152877000Y-76627000D01*
X175250000Y-76627000D01*
X175298601Y-76617333D01*
X175339803Y-76589803D01*
X175367333Y-76548601D01*
X175377000Y-76500000D01*
X175377000Y-60127000D01*
X178873000Y-60127000D01*
X178873000Y-79123000D01*
X178873000Y-79123000D01*
G37*
X178873000Y-79123000D02*
X164065239Y-79123000D01*
X164016153Y-79073914D01*
X163415222Y-78825000D01*
X162764778Y-78825000D01*
X162163847Y-79073914D01*
X162114761Y-79123000D01*
X160000000Y-79123000D01*
X159951399Y-79132667D01*
X159910197Y-79160197D01*
X159882667Y-79201399D01*
X159873000Y-79250000D01*
X159873000Y-85123000D01*
X152877000Y-85123000D01*
X152877000Y-76627000D01*
X175250000Y-76627000D01*
X175298601Y-76617333D01*
X175339803Y-76589803D01*
X175367333Y-76548601D01*
X175377000Y-76500000D01*
X175377000Y-60127000D01*
X178873000Y-60127000D01*
X178873000Y-79123000D01*
G04 #@! TO.N,GNDPWR*
G36*
X189623000Y-46081043D02*
X189317551Y-45775594D01*
X189254227Y-45680823D01*
X188878793Y-45429966D01*
X188547721Y-45364112D01*
X188435938Y-45341877D01*
X188324155Y-45364112D01*
X186974212Y-45364112D01*
X186897964Y-45250000D01*
X187056505Y-45012727D01*
X187122440Y-44681250D01*
X187122440Y-44243750D01*
X187076412Y-44012350D01*
X187147765Y-43998157D01*
X187357809Y-43857809D01*
X187498157Y-43647765D01*
X187547440Y-43400000D01*
X187547440Y-41600000D01*
X187498157Y-41352235D01*
X187357809Y-41142191D01*
X187147765Y-41001843D01*
X186900000Y-40952560D01*
X185100000Y-40952560D01*
X184852235Y-41001843D01*
X184642191Y-41142191D01*
X184501843Y-41352235D01*
X184452560Y-41600000D01*
X184452560Y-43400000D01*
X184501843Y-43647765D01*
X184642191Y-43857809D01*
X184852235Y-43998157D01*
X184923588Y-44012350D01*
X184877560Y-44243750D01*
X184877560Y-44272428D01*
X183135000Y-42529869D01*
X183135000Y-38294285D01*
X183304641Y-38040400D01*
X183385000Y-37636407D01*
X183385000Y-36363593D01*
X183304641Y-35959600D01*
X182998529Y-35501471D01*
X182540400Y-35195359D01*
X182000000Y-35087867D01*
X181459601Y-35195359D01*
X181001472Y-35501471D01*
X180750000Y-35877824D01*
X180498529Y-35501471D01*
X180040400Y-35195359D01*
X179500000Y-35087867D01*
X178959601Y-35195359D01*
X178501472Y-35501471D01*
X178258569Y-35865000D01*
X175741431Y-35865000D01*
X175498529Y-35501471D01*
X175040400Y-35195359D01*
X174500000Y-35087867D01*
X173959601Y-35195359D01*
X173501472Y-35501471D01*
X173250000Y-35877824D01*
X172998529Y-35501471D01*
X172540400Y-35195359D01*
X172000000Y-35087867D01*
X171459601Y-35195359D01*
X171001472Y-35501471D01*
X170695359Y-35959600D01*
X170615000Y-36363593D01*
X170615000Y-37636406D01*
X170695359Y-38040399D01*
X170865001Y-38294286D01*
X170865000Y-40698217D01*
X170842765Y-40810000D01*
X170865000Y-40921782D01*
X170930854Y-41252854D01*
X171181711Y-41628289D01*
X171276482Y-41691613D01*
X176908116Y-47323248D01*
X177011711Y-47478289D01*
X177106482Y-47541613D01*
X183028390Y-53463523D01*
X183091711Y-53558289D01*
X183467145Y-53809146D01*
X183798217Y-53875000D01*
X183909999Y-53897235D01*
X184021781Y-53875000D01*
X184965631Y-53875000D01*
X184956261Y-53881261D01*
X184768495Y-54162273D01*
X184702560Y-54493750D01*
X184702560Y-55006250D01*
X184768495Y-55337727D01*
X184900820Y-55535766D01*
X184762727Y-55443495D01*
X184431250Y-55377560D01*
X184341639Y-55377560D01*
X183799926Y-54835848D01*
X183750550Y-54761952D01*
X183457811Y-54566349D01*
X183199666Y-54515001D01*
X183199662Y-54515001D01*
X183112501Y-54497664D01*
X183025340Y-54515001D01*
X180516580Y-54515001D01*
X180347440Y-54345862D01*
X180347440Y-53050000D01*
X180298157Y-52802235D01*
X180157809Y-52592191D01*
X179947765Y-52451843D01*
X179700000Y-52402560D01*
X178900000Y-52402560D01*
X178652235Y-52451843D01*
X178442191Y-52592191D01*
X178301843Y-52802235D01*
X178252560Y-53050000D01*
X178252560Y-54950000D01*
X178301843Y-55197765D01*
X178442191Y-55407809D01*
X178652235Y-55548157D01*
X178900000Y-55597440D01*
X179095862Y-55597440D01*
X179153421Y-55655000D01*
X177727259Y-55655000D01*
X177690305Y-55599695D01*
X177144188Y-55234792D01*
X176662609Y-55139000D01*
X176337391Y-55139000D01*
X175855812Y-55234792D01*
X175309695Y-55599695D01*
X174944792Y-56145812D01*
X174816655Y-56790000D01*
X174944792Y-57434188D01*
X175309695Y-57980305D01*
X175855812Y-58345208D01*
X176337391Y-58441000D01*
X176662609Y-58441000D01*
X177144188Y-58345208D01*
X177690305Y-57980305D01*
X177727259Y-57925000D01*
X179202560Y-57925000D01*
X179202560Y-57950000D01*
X179251843Y-58197765D01*
X179392191Y-58407809D01*
X179602235Y-58548157D01*
X179850000Y-58597440D01*
X180242309Y-58597440D01*
X183558389Y-61913521D01*
X183621711Y-62008289D01*
X183918319Y-62206476D01*
X183997145Y-62259146D01*
X184440000Y-62347235D01*
X184551783Y-62325000D01*
X186732761Y-62325000D01*
X186775000Y-62367239D01*
X186775001Y-63246907D01*
X186742560Y-63410000D01*
X186742560Y-64320000D01*
X186775474Y-64485469D01*
X186511709Y-64661711D01*
X186448387Y-64756479D01*
X180206482Y-70998385D01*
X180111711Y-71061709D01*
X179897962Y-71381608D01*
X179860854Y-71437144D01*
X179772765Y-71879998D01*
X179795000Y-71991781D01*
X179795000Y-72731782D01*
X179795001Y-72731787D01*
X179795000Y-81373000D01*
X166500000Y-81373000D01*
X166451399Y-81382667D01*
X166410197Y-81410197D01*
X166382667Y-81451399D01*
X166373000Y-81500000D01*
X166373000Y-83405001D01*
X163951781Y-83405001D01*
X163839998Y-83382766D01*
X163397144Y-83470855D01*
X163021710Y-83721712D01*
X162958388Y-83816480D01*
X162869868Y-83905000D01*
X162764778Y-83905000D01*
X162163847Y-84153914D01*
X161703914Y-84613847D01*
X161455000Y-85214778D01*
X161455000Y-85319868D01*
X159909869Y-86865000D01*
X155870587Y-86865000D01*
X155848157Y-86752235D01*
X155707809Y-86542191D01*
X155497765Y-86401843D01*
X155250000Y-86352560D01*
X153250000Y-86352560D01*
X153002235Y-86401843D01*
X152792191Y-86542191D01*
X152651843Y-86752235D01*
X152629413Y-86865000D01*
X151635000Y-86865000D01*
X151635000Y-80750000D01*
X151586664Y-80506996D01*
X151449013Y-80300987D01*
X151243004Y-80163336D01*
X151000000Y-80115000D01*
X132013026Y-80115000D01*
X128398026Y-76500000D01*
X152115000Y-76500000D01*
X152115000Y-85250000D01*
X152163336Y-85493004D01*
X152300987Y-85699013D01*
X152506996Y-85836664D01*
X152750000Y-85885000D01*
X160000000Y-85885000D01*
X160243004Y-85836664D01*
X160449013Y-85699013D01*
X160586664Y-85493004D01*
X160635000Y-85250000D01*
X160635000Y-79885000D01*
X179000000Y-79885000D01*
X179243004Y-79836664D01*
X179449013Y-79699013D01*
X179586664Y-79493004D01*
X179635000Y-79250000D01*
X179635000Y-60000000D01*
X179586664Y-59756996D01*
X179449013Y-59550987D01*
X179243004Y-59413336D01*
X179000000Y-59365000D01*
X175250000Y-59365000D01*
X175006996Y-59413336D01*
X174800987Y-59550987D01*
X174663336Y-59756996D01*
X174615000Y-60000000D01*
X174615000Y-75865000D01*
X152750000Y-75865000D01*
X152506996Y-75913336D01*
X152300987Y-76050987D01*
X152163336Y-76256996D01*
X152115000Y-76500000D01*
X128398026Y-76500000D01*
X127449013Y-75550987D01*
X127243004Y-75413336D01*
X127000000Y-75365000D01*
X122750000Y-75365000D01*
X122506996Y-75413336D01*
X122300987Y-75550987D01*
X122163336Y-75756996D01*
X122115000Y-76000000D01*
X122115000Y-88500000D01*
X122163336Y-88743004D01*
X122300987Y-88949013D01*
X122506996Y-89086664D01*
X122750000Y-89135000D01*
X122961718Y-89135000D01*
X122943495Y-89162273D01*
X122877560Y-89493750D01*
X122877560Y-90006250D01*
X122943495Y-90337727D01*
X123020224Y-90452560D01*
X122850000Y-90452560D01*
X122602235Y-90501843D01*
X122392191Y-90642191D01*
X122251843Y-90852235D01*
X122202560Y-91100000D01*
X122202560Y-92900000D01*
X122251843Y-93147765D01*
X122392191Y-93357809D01*
X122602235Y-93498157D01*
X122850000Y-93547440D01*
X124650000Y-93547440D01*
X124897765Y-93498157D01*
X125107809Y-93357809D01*
X125248157Y-93147765D01*
X125297440Y-92900000D01*
X125297440Y-91385000D01*
X126250000Y-91385000D01*
X126493004Y-91336664D01*
X126699013Y-91199013D01*
X126836664Y-90993004D01*
X126885000Y-90750000D01*
X126885000Y-89135000D01*
X128736911Y-89135000D01*
X128652235Y-89151843D01*
X128442191Y-89292191D01*
X128301843Y-89502235D01*
X128252560Y-89750000D01*
X128252560Y-94650000D01*
X128301843Y-94897765D01*
X128442191Y-95107809D01*
X128652235Y-95248157D01*
X128900000Y-95297440D01*
X129401929Y-95297440D01*
X129430854Y-95442854D01*
X129430855Y-95442855D01*
X129681712Y-95818289D01*
X129776480Y-95881611D01*
X131865000Y-97970132D01*
X131865000Y-98386407D01*
X131945359Y-98790400D01*
X132251472Y-99248529D01*
X132709601Y-99554641D01*
X133250000Y-99662133D01*
X133790400Y-99554641D01*
X134248529Y-99248529D01*
X134500000Y-98872176D01*
X134751472Y-99248529D01*
X135209601Y-99554641D01*
X135750000Y-99662133D01*
X136290400Y-99554641D01*
X136748529Y-99248529D01*
X136991431Y-98885000D01*
X138414110Y-98885000D01*
X138377560Y-99068750D01*
X138377560Y-99506250D01*
X138443495Y-99837727D01*
X138631261Y-100118739D01*
X138912273Y-100306505D01*
X139243750Y-100372440D01*
X139756250Y-100372440D01*
X140087727Y-100306505D01*
X140288280Y-100172500D01*
X141989007Y-100172500D01*
X142102235Y-100248157D01*
X142350000Y-100297440D01*
X144150000Y-100297440D01*
X144397765Y-100248157D01*
X144607809Y-100107809D01*
X144748157Y-99897765D01*
X144797440Y-99650000D01*
X144797440Y-97850000D01*
X144748157Y-97602235D01*
X144607809Y-97392191D01*
X144397765Y-97251843D01*
X144150000Y-97202560D01*
X142350000Y-97202560D01*
X142102235Y-97251843D01*
X141892191Y-97392191D01*
X141751843Y-97602235D01*
X141702560Y-97850000D01*
X141702560Y-98402500D01*
X140463112Y-98402500D01*
X140556505Y-98262727D01*
X140556903Y-98260729D01*
X149682632Y-89135000D01*
X152629413Y-89135000D01*
X152651843Y-89247765D01*
X152792191Y-89457809D01*
X153002235Y-89598157D01*
X153250000Y-89647440D01*
X155250000Y-89647440D01*
X155497765Y-89598157D01*
X155707809Y-89457809D01*
X155848157Y-89247765D01*
X155870587Y-89135000D01*
X160268217Y-89135000D01*
X160380000Y-89157235D01*
X160491783Y-89135000D01*
X160822855Y-89069146D01*
X161198289Y-88818289D01*
X161261613Y-88723518D01*
X162810132Y-87175000D01*
X163415222Y-87175000D01*
X164016153Y-86926086D01*
X164476086Y-86466153D01*
X164725000Y-85865222D01*
X164725000Y-85675001D01*
X166373000Y-85675001D01*
X166373000Y-100515000D01*
X122375666Y-100515000D01*
X122581604Y-100309062D01*
X123135000Y-98973046D01*
X123135000Y-97526954D01*
X122581604Y-96190938D01*
X121559062Y-95168396D01*
X120223046Y-94615000D01*
X118776954Y-94615000D01*
X117440938Y-95168396D01*
X117235000Y-95374334D01*
X117235000Y-57945000D01*
X118152560Y-57945000D01*
X118152560Y-58245000D01*
X118213262Y-58550167D01*
X118333422Y-58730000D01*
X118213262Y-58909833D01*
X118152560Y-59215000D01*
X118152560Y-59515000D01*
X118213262Y-59820167D01*
X118333422Y-60000000D01*
X118213262Y-60179833D01*
X118152560Y-60485000D01*
X118152560Y-60785000D01*
X118213262Y-61090167D01*
X118333422Y-61270000D01*
X118213262Y-61449833D01*
X118152560Y-61755000D01*
X118152560Y-62055000D01*
X118213262Y-62360167D01*
X118386125Y-62618875D01*
X118644833Y-62791738D01*
X118950000Y-62852440D01*
X119117309Y-62852440D01*
X119652560Y-63387692D01*
X119652560Y-64350000D01*
X119701843Y-64597765D01*
X119842191Y-64807809D01*
X120052235Y-64948157D01*
X120300000Y-64997440D01*
X121300000Y-64997440D01*
X121365000Y-64984511D01*
X121365000Y-65750000D01*
X121413336Y-65993004D01*
X121550987Y-66199013D01*
X121756996Y-66336664D01*
X122000000Y-66385000D01*
X127615000Y-66385000D01*
X127615000Y-69000000D01*
X127663336Y-69243004D01*
X127800987Y-69449013D01*
X128006996Y-69586664D01*
X128250000Y-69635000D01*
X141000000Y-69635000D01*
X141243004Y-69586664D01*
X141449013Y-69449013D01*
X141586664Y-69243004D01*
X141635000Y-69000000D01*
X141635000Y-66240131D01*
X146618389Y-71223521D01*
X146681711Y-71318289D01*
X147057145Y-71569146D01*
X147388217Y-71635000D01*
X147499999Y-71657235D01*
X147611781Y-71635000D01*
X166888217Y-71635000D01*
X167000000Y-71657235D01*
X167111783Y-71635000D01*
X167442855Y-71569146D01*
X167818289Y-71318289D01*
X167881613Y-71223518D01*
X170620353Y-68484778D01*
X171035000Y-68484778D01*
X171035000Y-69135222D01*
X171283914Y-69736153D01*
X171743847Y-70196086D01*
X172344778Y-70445000D01*
X172995222Y-70445000D01*
X173596153Y-70196086D01*
X174056086Y-69736153D01*
X174305000Y-69135222D01*
X174305000Y-68484778D01*
X174056086Y-67883847D01*
X173596153Y-67423914D01*
X172995222Y-67175000D01*
X172344778Y-67175000D01*
X171743847Y-67423914D01*
X171283914Y-67883847D01*
X171035000Y-68484778D01*
X170620353Y-68484778D01*
X170853521Y-68251611D01*
X170948289Y-68188289D01*
X171199146Y-67812855D01*
X171265000Y-67481783D01*
X171287235Y-67370001D01*
X171265000Y-67258219D01*
X171265000Y-62367239D01*
X171516086Y-62116153D01*
X171765000Y-61515222D01*
X171765000Y-60864778D01*
X171516086Y-60263847D01*
X171056153Y-59803914D01*
X170455222Y-59555000D01*
X169804778Y-59555000D01*
X169203847Y-59803914D01*
X168952761Y-60055000D01*
X153907115Y-60055000D01*
X153881758Y-59993783D01*
X153506217Y-59618242D01*
X153015548Y-59415000D01*
X152484452Y-59415000D01*
X152001610Y-59615000D01*
X150741406Y-59615000D01*
X150667854Y-59565854D01*
X150225000Y-59477765D01*
X149782146Y-59565854D01*
X149600001Y-59687560D01*
X149400000Y-59687560D01*
X149094833Y-59748262D01*
X148836125Y-59921125D01*
X148663262Y-60179833D01*
X148602560Y-60485000D01*
X148602560Y-60785000D01*
X148643211Y-60989365D01*
X148550987Y-61050987D01*
X148413336Y-61256996D01*
X148365000Y-61500000D01*
X148365000Y-61865000D01*
X147250000Y-61865000D01*
X147006996Y-61913336D01*
X146934950Y-61961476D01*
X146931609Y-61956476D01*
X146897440Y-61905339D01*
X146897440Y-61755000D01*
X146836738Y-61449833D01*
X146716578Y-61270000D01*
X146836738Y-61090167D01*
X146897440Y-60785000D01*
X146897440Y-60485000D01*
X146836738Y-60179833D01*
X146716578Y-60000000D01*
X146836738Y-59820167D01*
X146897440Y-59515000D01*
X146897440Y-59215000D01*
X146836738Y-58909833D01*
X146716578Y-58730000D01*
X146836738Y-58550167D01*
X146897440Y-58245000D01*
X146897440Y-57945000D01*
X148602560Y-57945000D01*
X148602560Y-58245000D01*
X148663262Y-58550167D01*
X148836125Y-58808875D01*
X149094833Y-58981738D01*
X149400000Y-59042440D01*
X151050000Y-59042440D01*
X151355167Y-58981738D01*
X151613875Y-58808875D01*
X151786738Y-58550167D01*
X151847440Y-58245000D01*
X151847440Y-57945000D01*
X151786738Y-57639833D01*
X151613875Y-57381125D01*
X151355167Y-57208262D01*
X151050000Y-57147560D01*
X149400000Y-57147560D01*
X149094833Y-57208262D01*
X148836125Y-57381125D01*
X148663262Y-57639833D01*
X148602560Y-57945000D01*
X146897440Y-57945000D01*
X146836738Y-57639833D01*
X146663875Y-57381125D01*
X146410000Y-57211491D01*
X146410000Y-56424281D01*
X146432235Y-56312499D01*
X146406220Y-56181712D01*
X146347200Y-55885000D01*
X148750000Y-55885000D01*
X148993004Y-55836664D01*
X149199013Y-55699013D01*
X149336664Y-55493004D01*
X149385000Y-55250000D01*
X149385000Y-53385000D01*
X167750000Y-53385000D01*
X167993004Y-53336664D01*
X168199013Y-53199013D01*
X168336664Y-52993004D01*
X168385000Y-52750000D01*
X168385000Y-47750000D01*
X168336664Y-47506996D01*
X168199013Y-47300987D01*
X167993004Y-47163336D01*
X167846971Y-47134289D01*
X167872440Y-47006250D01*
X167872440Y-46568750D01*
X167806505Y-46237273D01*
X167647964Y-46000000D01*
X167806505Y-45762727D01*
X167872440Y-45431250D01*
X167872440Y-44993750D01*
X167864680Y-44954738D01*
X167897765Y-44948157D01*
X168107809Y-44807809D01*
X168248157Y-44597765D01*
X168297440Y-44350000D01*
X168297440Y-42550000D01*
X168248157Y-42302235D01*
X168107809Y-42092191D01*
X167897765Y-41951843D01*
X167650000Y-41902560D01*
X165850000Y-41902560D01*
X165602235Y-41951843D01*
X165392191Y-42092191D01*
X165251843Y-42302235D01*
X165202560Y-42550000D01*
X165202560Y-44350000D01*
X165251843Y-44597765D01*
X165392191Y-44807809D01*
X165602235Y-44948157D01*
X165635320Y-44954738D01*
X165627560Y-44993750D01*
X165627560Y-45431250D01*
X165693495Y-45762727D01*
X165852036Y-46000000D01*
X165693495Y-46237273D01*
X165627560Y-46568750D01*
X165627560Y-47006250D01*
X165649192Y-47115000D01*
X164885000Y-47115000D01*
X164885000Y-41750000D01*
X164836664Y-41506996D01*
X164699013Y-41300987D01*
X164493004Y-41163336D01*
X164250000Y-41115000D01*
X157250000Y-41115000D01*
X157006996Y-41163336D01*
X156800987Y-41300987D01*
X156663336Y-41506996D01*
X156615000Y-41750000D01*
X156615000Y-47850732D01*
X146014108Y-47615157D01*
X145756996Y-47663336D01*
X145550987Y-47800987D01*
X145413336Y-48006996D01*
X145365000Y-48250000D01*
X145365000Y-53377560D01*
X145349927Y-53377560D01*
X145175000Y-53342765D01*
X145000073Y-53377560D01*
X144956250Y-53377560D01*
X144624773Y-53443495D01*
X144343761Y-53631261D01*
X144155995Y-53912273D01*
X144136217Y-54011706D01*
X144105855Y-54057145D01*
X144040000Y-54388217D01*
X144040000Y-56100717D01*
X144017765Y-56212500D01*
X144085238Y-56551712D01*
X144105854Y-56655354D01*
X144140000Y-56706457D01*
X144140000Y-57211491D01*
X143886125Y-57381125D01*
X143713262Y-57639833D01*
X143652560Y-57945000D01*
X143652560Y-58245000D01*
X143713262Y-58550167D01*
X143833422Y-58730000D01*
X143713262Y-58909833D01*
X143652560Y-59215000D01*
X143652560Y-59515000D01*
X143713262Y-59820167D01*
X143833422Y-60000000D01*
X143713262Y-60179833D01*
X143652560Y-60485000D01*
X143652560Y-60785000D01*
X143713262Y-61090167D01*
X143833422Y-61270000D01*
X143713262Y-61449833D01*
X143652560Y-61755000D01*
X143652560Y-62055000D01*
X143713262Y-62360167D01*
X143886125Y-62618875D01*
X144144833Y-62791738D01*
X144450000Y-62852440D01*
X144617309Y-62852440D01*
X144904602Y-63139734D01*
X144902560Y-63150000D01*
X144902560Y-64350000D01*
X144951843Y-64597765D01*
X145092191Y-64807809D01*
X145302235Y-64948157D01*
X145550000Y-64997440D01*
X146550000Y-64997440D01*
X146615000Y-64984511D01*
X146615000Y-65750000D01*
X146663336Y-65993004D01*
X146800987Y-66199013D01*
X147006996Y-66336664D01*
X147250000Y-66385000D01*
X151615000Y-66385000D01*
X151615000Y-69000000D01*
X151663336Y-69243004D01*
X151744851Y-69365000D01*
X147970132Y-69365000D01*
X138631613Y-60026482D01*
X138568289Y-59931711D01*
X138192855Y-59680854D01*
X137861783Y-59615000D01*
X137750000Y-59592765D01*
X137638217Y-59615000D01*
X127998390Y-59615000D01*
X127515548Y-59415000D01*
X126984452Y-59415000D01*
X126779244Y-59500000D01*
X124613217Y-59500000D01*
X124282145Y-59565854D01*
X124099999Y-59687560D01*
X123900000Y-59687560D01*
X123594833Y-59748262D01*
X123336125Y-59921125D01*
X123163262Y-60179833D01*
X123102560Y-60485000D01*
X123102560Y-60785000D01*
X123163262Y-61090167D01*
X123219035Y-61173637D01*
X123163336Y-61256996D01*
X123115000Y-61500000D01*
X123115000Y-61692460D01*
X123102560Y-61755000D01*
X123102560Y-62055000D01*
X123114495Y-62115000D01*
X122000000Y-62115000D01*
X121756996Y-62163336D01*
X121684950Y-62211476D01*
X121618289Y-62111711D01*
X121523521Y-62048389D01*
X121397440Y-61922308D01*
X121397440Y-61755000D01*
X121336738Y-61449833D01*
X121216578Y-61270000D01*
X121336738Y-61090167D01*
X121397440Y-60785000D01*
X121397440Y-60485000D01*
X121336738Y-60179833D01*
X121216578Y-60000000D01*
X121336738Y-59820167D01*
X121397440Y-59515000D01*
X121397440Y-59215000D01*
X121336738Y-58909833D01*
X121216578Y-58730000D01*
X121336738Y-58550167D01*
X121397440Y-58245000D01*
X121397440Y-57945000D01*
X123102560Y-57945000D01*
X123102560Y-58245000D01*
X123163262Y-58550167D01*
X123336125Y-58808875D01*
X123594833Y-58981738D01*
X123900000Y-59042440D01*
X125550000Y-59042440D01*
X125855167Y-58981738D01*
X126113875Y-58808875D01*
X126286738Y-58550167D01*
X126347440Y-58245000D01*
X126347440Y-57945000D01*
X126286738Y-57639833D01*
X126113875Y-57381125D01*
X125855167Y-57208262D01*
X125550000Y-57147560D01*
X123900000Y-57147560D01*
X123594833Y-57208262D01*
X123336125Y-57381125D01*
X123163262Y-57639833D01*
X123102560Y-57945000D01*
X121397440Y-57945000D01*
X121336738Y-57639833D01*
X121163875Y-57381125D01*
X120910000Y-57211491D01*
X120910000Y-56424281D01*
X120932235Y-56312499D01*
X120906220Y-56181712D01*
X120847500Y-55886507D01*
X120847500Y-55885000D01*
X122750000Y-55885000D01*
X122993004Y-55836664D01*
X123199013Y-55699013D01*
X123336664Y-55493004D01*
X123385000Y-55250000D01*
X123385000Y-53385000D01*
X142000000Y-53385000D01*
X142243004Y-53336664D01*
X142449013Y-53199013D01*
X142586664Y-52993004D01*
X142635000Y-52750000D01*
X142635000Y-47750000D01*
X142586664Y-47506996D01*
X142449013Y-47300987D01*
X142243004Y-47163336D01*
X142000000Y-47115000D01*
X141886921Y-47115000D01*
X141902337Y-47037499D01*
X141885000Y-46950340D01*
X141885000Y-46950335D01*
X141872440Y-46887191D01*
X141872440Y-46568750D01*
X141806505Y-46237273D01*
X141647964Y-46000000D01*
X141806505Y-45762727D01*
X141872440Y-45431250D01*
X141872440Y-45003194D01*
X141897765Y-44998157D01*
X142107809Y-44857809D01*
X142248157Y-44647765D01*
X142297440Y-44400000D01*
X142297440Y-42600000D01*
X142248157Y-42352235D01*
X142107809Y-42142191D01*
X141897765Y-42001843D01*
X141650000Y-41952560D01*
X139850000Y-41952560D01*
X139602235Y-42001843D01*
X139392191Y-42142191D01*
X139251843Y-42352235D01*
X139202560Y-42600000D01*
X139202560Y-44400000D01*
X139251843Y-44647765D01*
X139392191Y-44857809D01*
X139602235Y-44998157D01*
X139627560Y-45003194D01*
X139627560Y-45431250D01*
X139693495Y-45762727D01*
X139852036Y-46000000D01*
X139693495Y-46237273D01*
X139627560Y-46568750D01*
X139627560Y-47006250D01*
X139649192Y-47115000D01*
X138885000Y-47115000D01*
X138885000Y-41750000D01*
X138836664Y-41506996D01*
X138699013Y-41300987D01*
X138493004Y-41163336D01*
X138250000Y-41115000D01*
X131250000Y-41115000D01*
X131006996Y-41163336D01*
X130800987Y-41300987D01*
X130663336Y-41506996D01*
X130615000Y-41750000D01*
X130615000Y-47865000D01*
X120500000Y-47865000D01*
X120256996Y-47913336D01*
X120050987Y-48050987D01*
X119913336Y-48256996D01*
X119865000Y-48500000D01*
X119865000Y-53373099D01*
X119712500Y-53342765D01*
X119537573Y-53377560D01*
X119493750Y-53377560D01*
X119162273Y-53443495D01*
X118881261Y-53631261D01*
X118693495Y-53912273D01*
X118673717Y-54011706D01*
X118643355Y-54057145D01*
X118577500Y-54388217D01*
X118577500Y-56138217D01*
X118555265Y-56250000D01*
X118577500Y-56361782D01*
X118640000Y-56675992D01*
X118640000Y-57211491D01*
X118386125Y-57381125D01*
X118213262Y-57639833D01*
X118152560Y-57945000D01*
X117235000Y-57945000D01*
X117235000Y-39375666D01*
X117440938Y-39581604D01*
X118776954Y-40135000D01*
X120223046Y-40135000D01*
X121559062Y-39581604D01*
X122581604Y-38559062D01*
X123135000Y-37223046D01*
X123135000Y-35776954D01*
X122581604Y-34440938D01*
X122375666Y-34235000D01*
X189623000Y-34235000D01*
X189623000Y-46081043D01*
X189623000Y-46081043D01*
G37*
X189623000Y-46081043D02*
X189317551Y-45775594D01*
X189254227Y-45680823D01*
X188878793Y-45429966D01*
X188547721Y-45364112D01*
X188435938Y-45341877D01*
X188324155Y-45364112D01*
X186974212Y-45364112D01*
X186897964Y-45250000D01*
X187056505Y-45012727D01*
X187122440Y-44681250D01*
X187122440Y-44243750D01*
X187076412Y-44012350D01*
X187147765Y-43998157D01*
X187357809Y-43857809D01*
X187498157Y-43647765D01*
X187547440Y-43400000D01*
X187547440Y-41600000D01*
X187498157Y-41352235D01*
X187357809Y-41142191D01*
X187147765Y-41001843D01*
X186900000Y-40952560D01*
X185100000Y-40952560D01*
X184852235Y-41001843D01*
X184642191Y-41142191D01*
X184501843Y-41352235D01*
X184452560Y-41600000D01*
X184452560Y-43400000D01*
X184501843Y-43647765D01*
X184642191Y-43857809D01*
X184852235Y-43998157D01*
X184923588Y-44012350D01*
X184877560Y-44243750D01*
X184877560Y-44272428D01*
X183135000Y-42529869D01*
X183135000Y-38294285D01*
X183304641Y-38040400D01*
X183385000Y-37636407D01*
X183385000Y-36363593D01*
X183304641Y-35959600D01*
X182998529Y-35501471D01*
X182540400Y-35195359D01*
X182000000Y-35087867D01*
X181459601Y-35195359D01*
X181001472Y-35501471D01*
X180750000Y-35877824D01*
X180498529Y-35501471D01*
X180040400Y-35195359D01*
X179500000Y-35087867D01*
X178959601Y-35195359D01*
X178501472Y-35501471D01*
X178258569Y-35865000D01*
X175741431Y-35865000D01*
X175498529Y-35501471D01*
X175040400Y-35195359D01*
X174500000Y-35087867D01*
X173959601Y-35195359D01*
X173501472Y-35501471D01*
X173250000Y-35877824D01*
X172998529Y-35501471D01*
X172540400Y-35195359D01*
X172000000Y-35087867D01*
X171459601Y-35195359D01*
X171001472Y-35501471D01*
X170695359Y-35959600D01*
X170615000Y-36363593D01*
X170615000Y-37636406D01*
X170695359Y-38040399D01*
X170865001Y-38294286D01*
X170865000Y-40698217D01*
X170842765Y-40810000D01*
X170865000Y-40921782D01*
X170930854Y-41252854D01*
X171181711Y-41628289D01*
X171276482Y-41691613D01*
X176908116Y-47323248D01*
X177011711Y-47478289D01*
X177106482Y-47541613D01*
X183028390Y-53463523D01*
X183091711Y-53558289D01*
X183467145Y-53809146D01*
X183798217Y-53875000D01*
X183909999Y-53897235D01*
X184021781Y-53875000D01*
X184965631Y-53875000D01*
X184956261Y-53881261D01*
X184768495Y-54162273D01*
X184702560Y-54493750D01*
X184702560Y-55006250D01*
X184768495Y-55337727D01*
X184900820Y-55535766D01*
X184762727Y-55443495D01*
X184431250Y-55377560D01*
X184341639Y-55377560D01*
X183799926Y-54835848D01*
X183750550Y-54761952D01*
X183457811Y-54566349D01*
X183199666Y-54515001D01*
X183199662Y-54515001D01*
X183112501Y-54497664D01*
X183025340Y-54515001D01*
X180516580Y-54515001D01*
X180347440Y-54345862D01*
X180347440Y-53050000D01*
X180298157Y-52802235D01*
X180157809Y-52592191D01*
X179947765Y-52451843D01*
X179700000Y-52402560D01*
X178900000Y-52402560D01*
X178652235Y-52451843D01*
X178442191Y-52592191D01*
X178301843Y-52802235D01*
X178252560Y-53050000D01*
X178252560Y-54950000D01*
X178301843Y-55197765D01*
X178442191Y-55407809D01*
X178652235Y-55548157D01*
X178900000Y-55597440D01*
X179095862Y-55597440D01*
X179153421Y-55655000D01*
X177727259Y-55655000D01*
X177690305Y-55599695D01*
X177144188Y-55234792D01*
X176662609Y-55139000D01*
X176337391Y-55139000D01*
X175855812Y-55234792D01*
X175309695Y-55599695D01*
X174944792Y-56145812D01*
X174816655Y-56790000D01*
X174944792Y-57434188D01*
X175309695Y-57980305D01*
X175855812Y-58345208D01*
X176337391Y-58441000D01*
X176662609Y-58441000D01*
X177144188Y-58345208D01*
X177690305Y-57980305D01*
X177727259Y-57925000D01*
X179202560Y-57925000D01*
X179202560Y-57950000D01*
X179251843Y-58197765D01*
X179392191Y-58407809D01*
X179602235Y-58548157D01*
X179850000Y-58597440D01*
X180242309Y-58597440D01*
X183558389Y-61913521D01*
X183621711Y-62008289D01*
X183918319Y-62206476D01*
X183997145Y-62259146D01*
X184440000Y-62347235D01*
X184551783Y-62325000D01*
X186732761Y-62325000D01*
X186775000Y-62367239D01*
X186775001Y-63246907D01*
X186742560Y-63410000D01*
X186742560Y-64320000D01*
X186775474Y-64485469D01*
X186511709Y-64661711D01*
X186448387Y-64756479D01*
X180206482Y-70998385D01*
X180111711Y-71061709D01*
X179897962Y-71381608D01*
X179860854Y-71437144D01*
X179772765Y-71879998D01*
X179795000Y-71991781D01*
X179795000Y-72731782D01*
X179795001Y-72731787D01*
X179795000Y-81373000D01*
X166500000Y-81373000D01*
X166451399Y-81382667D01*
X166410197Y-81410197D01*
X166382667Y-81451399D01*
X166373000Y-81500000D01*
X166373000Y-83405001D01*
X163951781Y-83405001D01*
X163839998Y-83382766D01*
X163397144Y-83470855D01*
X163021710Y-83721712D01*
X162958388Y-83816480D01*
X162869868Y-83905000D01*
X162764778Y-83905000D01*
X162163847Y-84153914D01*
X161703914Y-84613847D01*
X161455000Y-85214778D01*
X161455000Y-85319868D01*
X159909869Y-86865000D01*
X155870587Y-86865000D01*
X155848157Y-86752235D01*
X155707809Y-86542191D01*
X155497765Y-86401843D01*
X155250000Y-86352560D01*
X153250000Y-86352560D01*
X153002235Y-86401843D01*
X152792191Y-86542191D01*
X152651843Y-86752235D01*
X152629413Y-86865000D01*
X151635000Y-86865000D01*
X151635000Y-80750000D01*
X151586664Y-80506996D01*
X151449013Y-80300987D01*
X151243004Y-80163336D01*
X151000000Y-80115000D01*
X132013026Y-80115000D01*
X128398026Y-76500000D01*
X152115000Y-76500000D01*
X152115000Y-85250000D01*
X152163336Y-85493004D01*
X152300987Y-85699013D01*
X152506996Y-85836664D01*
X152750000Y-85885000D01*
X160000000Y-85885000D01*
X160243004Y-85836664D01*
X160449013Y-85699013D01*
X160586664Y-85493004D01*
X160635000Y-85250000D01*
X160635000Y-79885000D01*
X179000000Y-79885000D01*
X179243004Y-79836664D01*
X179449013Y-79699013D01*
X179586664Y-79493004D01*
X179635000Y-79250000D01*
X179635000Y-60000000D01*
X179586664Y-59756996D01*
X179449013Y-59550987D01*
X179243004Y-59413336D01*
X179000000Y-59365000D01*
X175250000Y-59365000D01*
X175006996Y-59413336D01*
X174800987Y-59550987D01*
X174663336Y-59756996D01*
X174615000Y-60000000D01*
X174615000Y-75865000D01*
X152750000Y-75865000D01*
X152506996Y-75913336D01*
X152300987Y-76050987D01*
X152163336Y-76256996D01*
X152115000Y-76500000D01*
X128398026Y-76500000D01*
X127449013Y-75550987D01*
X127243004Y-75413336D01*
X127000000Y-75365000D01*
X122750000Y-75365000D01*
X122506996Y-75413336D01*
X122300987Y-75550987D01*
X122163336Y-75756996D01*
X122115000Y-76000000D01*
X122115000Y-88500000D01*
X122163336Y-88743004D01*
X122300987Y-88949013D01*
X122506996Y-89086664D01*
X122750000Y-89135000D01*
X122961718Y-89135000D01*
X122943495Y-89162273D01*
X122877560Y-89493750D01*
X122877560Y-90006250D01*
X122943495Y-90337727D01*
X123020224Y-90452560D01*
X122850000Y-90452560D01*
X122602235Y-90501843D01*
X122392191Y-90642191D01*
X122251843Y-90852235D01*
X122202560Y-91100000D01*
X122202560Y-92900000D01*
X122251843Y-93147765D01*
X122392191Y-93357809D01*
X122602235Y-93498157D01*
X122850000Y-93547440D01*
X124650000Y-93547440D01*
X124897765Y-93498157D01*
X125107809Y-93357809D01*
X125248157Y-93147765D01*
X125297440Y-92900000D01*
X125297440Y-91385000D01*
X126250000Y-91385000D01*
X126493004Y-91336664D01*
X126699013Y-91199013D01*
X126836664Y-90993004D01*
X126885000Y-90750000D01*
X126885000Y-89135000D01*
X128736911Y-89135000D01*
X128652235Y-89151843D01*
X128442191Y-89292191D01*
X128301843Y-89502235D01*
X128252560Y-89750000D01*
X128252560Y-94650000D01*
X128301843Y-94897765D01*
X128442191Y-95107809D01*
X128652235Y-95248157D01*
X128900000Y-95297440D01*
X129401929Y-95297440D01*
X129430854Y-95442854D01*
X129430855Y-95442855D01*
X129681712Y-95818289D01*
X129776480Y-95881611D01*
X131865000Y-97970132D01*
X131865000Y-98386407D01*
X131945359Y-98790400D01*
X132251472Y-99248529D01*
X132709601Y-99554641D01*
X133250000Y-99662133D01*
X133790400Y-99554641D01*
X134248529Y-99248529D01*
X134500000Y-98872176D01*
X134751472Y-99248529D01*
X135209601Y-99554641D01*
X135750000Y-99662133D01*
X136290400Y-99554641D01*
X136748529Y-99248529D01*
X136991431Y-98885000D01*
X138414110Y-98885000D01*
X138377560Y-99068750D01*
X138377560Y-99506250D01*
X138443495Y-99837727D01*
X138631261Y-100118739D01*
X138912273Y-100306505D01*
X139243750Y-100372440D01*
X139756250Y-100372440D01*
X140087727Y-100306505D01*
X140288280Y-100172500D01*
X141989007Y-100172500D01*
X142102235Y-100248157D01*
X142350000Y-100297440D01*
X144150000Y-100297440D01*
X144397765Y-100248157D01*
X144607809Y-100107809D01*
X144748157Y-99897765D01*
X144797440Y-99650000D01*
X144797440Y-97850000D01*
X144748157Y-97602235D01*
X144607809Y-97392191D01*
X144397765Y-97251843D01*
X144150000Y-97202560D01*
X142350000Y-97202560D01*
X142102235Y-97251843D01*
X141892191Y-97392191D01*
X141751843Y-97602235D01*
X141702560Y-97850000D01*
X141702560Y-98402500D01*
X140463112Y-98402500D01*
X140556505Y-98262727D01*
X140556903Y-98260729D01*
X149682632Y-89135000D01*
X152629413Y-89135000D01*
X152651843Y-89247765D01*
X152792191Y-89457809D01*
X153002235Y-89598157D01*
X153250000Y-89647440D01*
X155250000Y-89647440D01*
X155497765Y-89598157D01*
X155707809Y-89457809D01*
X155848157Y-89247765D01*
X155870587Y-89135000D01*
X160268217Y-89135000D01*
X160380000Y-89157235D01*
X160491783Y-89135000D01*
X160822855Y-89069146D01*
X161198289Y-88818289D01*
X161261613Y-88723518D01*
X162810132Y-87175000D01*
X163415222Y-87175000D01*
X164016153Y-86926086D01*
X164476086Y-86466153D01*
X164725000Y-85865222D01*
X164725000Y-85675001D01*
X166373000Y-85675001D01*
X166373000Y-100515000D01*
X122375666Y-100515000D01*
X122581604Y-100309062D01*
X123135000Y-98973046D01*
X123135000Y-97526954D01*
X122581604Y-96190938D01*
X121559062Y-95168396D01*
X120223046Y-94615000D01*
X118776954Y-94615000D01*
X117440938Y-95168396D01*
X117235000Y-95374334D01*
X117235000Y-57945000D01*
X118152560Y-57945000D01*
X118152560Y-58245000D01*
X118213262Y-58550167D01*
X118333422Y-58730000D01*
X118213262Y-58909833D01*
X118152560Y-59215000D01*
X118152560Y-59515000D01*
X118213262Y-59820167D01*
X118333422Y-60000000D01*
X118213262Y-60179833D01*
X118152560Y-60485000D01*
X118152560Y-60785000D01*
X118213262Y-61090167D01*
X118333422Y-61270000D01*
X118213262Y-61449833D01*
X118152560Y-61755000D01*
X118152560Y-62055000D01*
X118213262Y-62360167D01*
X118386125Y-62618875D01*
X118644833Y-62791738D01*
X118950000Y-62852440D01*
X119117309Y-62852440D01*
X119652560Y-63387692D01*
X119652560Y-64350000D01*
X119701843Y-64597765D01*
X119842191Y-64807809D01*
X120052235Y-64948157D01*
X120300000Y-64997440D01*
X121300000Y-64997440D01*
X121365000Y-64984511D01*
X121365000Y-65750000D01*
X121413336Y-65993004D01*
X121550987Y-66199013D01*
X121756996Y-66336664D01*
X122000000Y-66385000D01*
X127615000Y-66385000D01*
X127615000Y-69000000D01*
X127663336Y-69243004D01*
X127800987Y-69449013D01*
X128006996Y-69586664D01*
X128250000Y-69635000D01*
X141000000Y-69635000D01*
X141243004Y-69586664D01*
X141449013Y-69449013D01*
X141586664Y-69243004D01*
X141635000Y-69000000D01*
X141635000Y-66240131D01*
X146618389Y-71223521D01*
X146681711Y-71318289D01*
X147057145Y-71569146D01*
X147388217Y-71635000D01*
X147499999Y-71657235D01*
X147611781Y-71635000D01*
X166888217Y-71635000D01*
X167000000Y-71657235D01*
X167111783Y-71635000D01*
X167442855Y-71569146D01*
X167818289Y-71318289D01*
X167881613Y-71223518D01*
X170620353Y-68484778D01*
X171035000Y-68484778D01*
X171035000Y-69135222D01*
X171283914Y-69736153D01*
X171743847Y-70196086D01*
X172344778Y-70445000D01*
X172995222Y-70445000D01*
X173596153Y-70196086D01*
X174056086Y-69736153D01*
X174305000Y-69135222D01*
X174305000Y-68484778D01*
X174056086Y-67883847D01*
X173596153Y-67423914D01*
X172995222Y-67175000D01*
X172344778Y-67175000D01*
X171743847Y-67423914D01*
X171283914Y-67883847D01*
X171035000Y-68484778D01*
X170620353Y-68484778D01*
X170853521Y-68251611D01*
X170948289Y-68188289D01*
X171199146Y-67812855D01*
X171265000Y-67481783D01*
X171287235Y-67370001D01*
X171265000Y-67258219D01*
X171265000Y-62367239D01*
X171516086Y-62116153D01*
X171765000Y-61515222D01*
X171765000Y-60864778D01*
X171516086Y-60263847D01*
X171056153Y-59803914D01*
X170455222Y-59555000D01*
X169804778Y-59555000D01*
X169203847Y-59803914D01*
X168952761Y-60055000D01*
X153907115Y-60055000D01*
X153881758Y-59993783D01*
X153506217Y-59618242D01*
X153015548Y-59415000D01*
X152484452Y-59415000D01*
X152001610Y-59615000D01*
X150741406Y-59615000D01*
X150667854Y-59565854D01*
X150225000Y-59477765D01*
X149782146Y-59565854D01*
X149600001Y-59687560D01*
X149400000Y-59687560D01*
X149094833Y-59748262D01*
X148836125Y-59921125D01*
X148663262Y-60179833D01*
X148602560Y-60485000D01*
X148602560Y-60785000D01*
X148643211Y-60989365D01*
X148550987Y-61050987D01*
X148413336Y-61256996D01*
X148365000Y-61500000D01*
X148365000Y-61865000D01*
X147250000Y-61865000D01*
X147006996Y-61913336D01*
X146934950Y-61961476D01*
X146931609Y-61956476D01*
X146897440Y-61905339D01*
X146897440Y-61755000D01*
X146836738Y-61449833D01*
X146716578Y-61270000D01*
X146836738Y-61090167D01*
X146897440Y-60785000D01*
X146897440Y-60485000D01*
X146836738Y-60179833D01*
X146716578Y-60000000D01*
X146836738Y-59820167D01*
X146897440Y-59515000D01*
X146897440Y-59215000D01*
X146836738Y-58909833D01*
X146716578Y-58730000D01*
X146836738Y-58550167D01*
X146897440Y-58245000D01*
X146897440Y-57945000D01*
X148602560Y-57945000D01*
X148602560Y-58245000D01*
X148663262Y-58550167D01*
X148836125Y-58808875D01*
X149094833Y-58981738D01*
X149400000Y-59042440D01*
X151050000Y-59042440D01*
X151355167Y-58981738D01*
X151613875Y-58808875D01*
X151786738Y-58550167D01*
X151847440Y-58245000D01*
X151847440Y-57945000D01*
X151786738Y-57639833D01*
X151613875Y-57381125D01*
X151355167Y-57208262D01*
X151050000Y-57147560D01*
X149400000Y-57147560D01*
X149094833Y-57208262D01*
X148836125Y-57381125D01*
X148663262Y-57639833D01*
X148602560Y-57945000D01*
X146897440Y-57945000D01*
X146836738Y-57639833D01*
X146663875Y-57381125D01*
X146410000Y-57211491D01*
X146410000Y-56424281D01*
X146432235Y-56312499D01*
X146406220Y-56181712D01*
X146347200Y-55885000D01*
X148750000Y-55885000D01*
X148993004Y-55836664D01*
X149199013Y-55699013D01*
X149336664Y-55493004D01*
X149385000Y-55250000D01*
X149385000Y-53385000D01*
X167750000Y-53385000D01*
X167993004Y-53336664D01*
X168199013Y-53199013D01*
X168336664Y-52993004D01*
X168385000Y-52750000D01*
X168385000Y-47750000D01*
X168336664Y-47506996D01*
X168199013Y-47300987D01*
X167993004Y-47163336D01*
X167846971Y-47134289D01*
X167872440Y-47006250D01*
X167872440Y-46568750D01*
X167806505Y-46237273D01*
X167647964Y-46000000D01*
X167806505Y-45762727D01*
X167872440Y-45431250D01*
X167872440Y-44993750D01*
X167864680Y-44954738D01*
X167897765Y-44948157D01*
X168107809Y-44807809D01*
X168248157Y-44597765D01*
X168297440Y-44350000D01*
X168297440Y-42550000D01*
X168248157Y-42302235D01*
X168107809Y-42092191D01*
X167897765Y-41951843D01*
X167650000Y-41902560D01*
X165850000Y-41902560D01*
X165602235Y-41951843D01*
X165392191Y-42092191D01*
X165251843Y-42302235D01*
X165202560Y-42550000D01*
X165202560Y-44350000D01*
X165251843Y-44597765D01*
X165392191Y-44807809D01*
X165602235Y-44948157D01*
X165635320Y-44954738D01*
X165627560Y-44993750D01*
X165627560Y-45431250D01*
X165693495Y-45762727D01*
X165852036Y-46000000D01*
X165693495Y-46237273D01*
X165627560Y-46568750D01*
X165627560Y-47006250D01*
X165649192Y-47115000D01*
X164885000Y-47115000D01*
X164885000Y-41750000D01*
X164836664Y-41506996D01*
X164699013Y-41300987D01*
X164493004Y-41163336D01*
X164250000Y-41115000D01*
X157250000Y-41115000D01*
X157006996Y-41163336D01*
X156800987Y-41300987D01*
X156663336Y-41506996D01*
X156615000Y-41750000D01*
X156615000Y-47850732D01*
X146014108Y-47615157D01*
X145756996Y-47663336D01*
X145550987Y-47800987D01*
X145413336Y-48006996D01*
X145365000Y-48250000D01*
X145365000Y-53377560D01*
X145349927Y-53377560D01*
X145175000Y-53342765D01*
X145000073Y-53377560D01*
X144956250Y-53377560D01*
X144624773Y-53443495D01*
X144343761Y-53631261D01*
X144155995Y-53912273D01*
X144136217Y-54011706D01*
X144105855Y-54057145D01*
X144040000Y-54388217D01*
X144040000Y-56100717D01*
X144017765Y-56212500D01*
X144085238Y-56551712D01*
X144105854Y-56655354D01*
X144140000Y-56706457D01*
X144140000Y-57211491D01*
X143886125Y-57381125D01*
X143713262Y-57639833D01*
X143652560Y-57945000D01*
X143652560Y-58245000D01*
X143713262Y-58550167D01*
X143833422Y-58730000D01*
X143713262Y-58909833D01*
X143652560Y-59215000D01*
X143652560Y-59515000D01*
X143713262Y-59820167D01*
X143833422Y-60000000D01*
X143713262Y-60179833D01*
X143652560Y-60485000D01*
X143652560Y-60785000D01*
X143713262Y-61090167D01*
X143833422Y-61270000D01*
X143713262Y-61449833D01*
X143652560Y-61755000D01*
X143652560Y-62055000D01*
X143713262Y-62360167D01*
X143886125Y-62618875D01*
X144144833Y-62791738D01*
X144450000Y-62852440D01*
X144617309Y-62852440D01*
X144904602Y-63139734D01*
X144902560Y-63150000D01*
X144902560Y-64350000D01*
X144951843Y-64597765D01*
X145092191Y-64807809D01*
X145302235Y-64948157D01*
X145550000Y-64997440D01*
X146550000Y-64997440D01*
X146615000Y-64984511D01*
X146615000Y-65750000D01*
X146663336Y-65993004D01*
X146800987Y-66199013D01*
X147006996Y-66336664D01*
X147250000Y-66385000D01*
X151615000Y-66385000D01*
X151615000Y-69000000D01*
X151663336Y-69243004D01*
X151744851Y-69365000D01*
X147970132Y-69365000D01*
X138631613Y-60026482D01*
X138568289Y-59931711D01*
X138192855Y-59680854D01*
X137861783Y-59615000D01*
X137750000Y-59592765D01*
X137638217Y-59615000D01*
X127998390Y-59615000D01*
X127515548Y-59415000D01*
X126984452Y-59415000D01*
X126779244Y-59500000D01*
X124613217Y-59500000D01*
X124282145Y-59565854D01*
X124099999Y-59687560D01*
X123900000Y-59687560D01*
X123594833Y-59748262D01*
X123336125Y-59921125D01*
X123163262Y-60179833D01*
X123102560Y-60485000D01*
X123102560Y-60785000D01*
X123163262Y-61090167D01*
X123219035Y-61173637D01*
X123163336Y-61256996D01*
X123115000Y-61500000D01*
X123115000Y-61692460D01*
X123102560Y-61755000D01*
X123102560Y-62055000D01*
X123114495Y-62115000D01*
X122000000Y-62115000D01*
X121756996Y-62163336D01*
X121684950Y-62211476D01*
X121618289Y-62111711D01*
X121523521Y-62048389D01*
X121397440Y-61922308D01*
X121397440Y-61755000D01*
X121336738Y-61449833D01*
X121216578Y-61270000D01*
X121336738Y-61090167D01*
X121397440Y-60785000D01*
X121397440Y-60485000D01*
X121336738Y-60179833D01*
X121216578Y-60000000D01*
X121336738Y-59820167D01*
X121397440Y-59515000D01*
X121397440Y-59215000D01*
X121336738Y-58909833D01*
X121216578Y-58730000D01*
X121336738Y-58550167D01*
X121397440Y-58245000D01*
X121397440Y-57945000D01*
X123102560Y-57945000D01*
X123102560Y-58245000D01*
X123163262Y-58550167D01*
X123336125Y-58808875D01*
X123594833Y-58981738D01*
X123900000Y-59042440D01*
X125550000Y-59042440D01*
X125855167Y-58981738D01*
X126113875Y-58808875D01*
X126286738Y-58550167D01*
X126347440Y-58245000D01*
X126347440Y-57945000D01*
X126286738Y-57639833D01*
X126113875Y-57381125D01*
X125855167Y-57208262D01*
X125550000Y-57147560D01*
X123900000Y-57147560D01*
X123594833Y-57208262D01*
X123336125Y-57381125D01*
X123163262Y-57639833D01*
X123102560Y-57945000D01*
X121397440Y-57945000D01*
X121336738Y-57639833D01*
X121163875Y-57381125D01*
X120910000Y-57211491D01*
X120910000Y-56424281D01*
X120932235Y-56312499D01*
X120906220Y-56181712D01*
X120847500Y-55886507D01*
X120847500Y-55885000D01*
X122750000Y-55885000D01*
X122993004Y-55836664D01*
X123199013Y-55699013D01*
X123336664Y-55493004D01*
X123385000Y-55250000D01*
X123385000Y-53385000D01*
X142000000Y-53385000D01*
X142243004Y-53336664D01*
X142449013Y-53199013D01*
X142586664Y-52993004D01*
X142635000Y-52750000D01*
X142635000Y-47750000D01*
X142586664Y-47506996D01*
X142449013Y-47300987D01*
X142243004Y-47163336D01*
X142000000Y-47115000D01*
X141886921Y-47115000D01*
X141902337Y-47037499D01*
X141885000Y-46950340D01*
X141885000Y-46950335D01*
X141872440Y-46887191D01*
X141872440Y-46568750D01*
X141806505Y-46237273D01*
X141647964Y-46000000D01*
X141806505Y-45762727D01*
X141872440Y-45431250D01*
X141872440Y-45003194D01*
X141897765Y-44998157D01*
X142107809Y-44857809D01*
X142248157Y-44647765D01*
X142297440Y-44400000D01*
X142297440Y-42600000D01*
X142248157Y-42352235D01*
X142107809Y-42142191D01*
X141897765Y-42001843D01*
X141650000Y-41952560D01*
X139850000Y-41952560D01*
X139602235Y-42001843D01*
X139392191Y-42142191D01*
X139251843Y-42352235D01*
X139202560Y-42600000D01*
X139202560Y-44400000D01*
X139251843Y-44647765D01*
X139392191Y-44857809D01*
X139602235Y-44998157D01*
X139627560Y-45003194D01*
X139627560Y-45431250D01*
X139693495Y-45762727D01*
X139852036Y-46000000D01*
X139693495Y-46237273D01*
X139627560Y-46568750D01*
X139627560Y-47006250D01*
X139649192Y-47115000D01*
X138885000Y-47115000D01*
X138885000Y-41750000D01*
X138836664Y-41506996D01*
X138699013Y-41300987D01*
X138493004Y-41163336D01*
X138250000Y-41115000D01*
X131250000Y-41115000D01*
X131006996Y-41163336D01*
X130800987Y-41300987D01*
X130663336Y-41506996D01*
X130615000Y-41750000D01*
X130615000Y-47865000D01*
X120500000Y-47865000D01*
X120256996Y-47913336D01*
X120050987Y-48050987D01*
X119913336Y-48256996D01*
X119865000Y-48500000D01*
X119865000Y-53373099D01*
X119712500Y-53342765D01*
X119537573Y-53377560D01*
X119493750Y-53377560D01*
X119162273Y-53443495D01*
X118881261Y-53631261D01*
X118693495Y-53912273D01*
X118673717Y-54011706D01*
X118643355Y-54057145D01*
X118577500Y-54388217D01*
X118577500Y-56138217D01*
X118555265Y-56250000D01*
X118577500Y-56361782D01*
X118640000Y-56675992D01*
X118640000Y-57211491D01*
X118386125Y-57381125D01*
X118213262Y-57639833D01*
X118152560Y-57945000D01*
X117235000Y-57945000D01*
X117235000Y-39375666D01*
X117440938Y-39581604D01*
X118776954Y-40135000D01*
X120223046Y-40135000D01*
X121559062Y-39581604D01*
X122581604Y-38559062D01*
X123135000Y-37223046D01*
X123135000Y-35776954D01*
X122581604Y-34440938D01*
X122375666Y-34235000D01*
X189623000Y-34235000D01*
X189623000Y-46081043D01*
G36*
X180865000Y-38294285D02*
X180865001Y-42888212D01*
X180842765Y-43000000D01*
X180930854Y-43442854D01*
X180996085Y-43540478D01*
X181181712Y-43818289D01*
X181276480Y-43881611D01*
X184155889Y-46761021D01*
X184219211Y-46855789D01*
X184519604Y-47056505D01*
X184594645Y-47106646D01*
X185037500Y-47194735D01*
X185149283Y-47172500D01*
X185529869Y-47172500D01*
X185579999Y-47222630D01*
X185643323Y-47317401D01*
X185994190Y-47551843D01*
X186018757Y-47568258D01*
X186052560Y-47574982D01*
X186052560Y-49050000D01*
X186101843Y-49297765D01*
X186242191Y-49507809D01*
X186452235Y-49648157D01*
X186700000Y-49697440D01*
X188300000Y-49697440D01*
X188547765Y-49648157D01*
X188757809Y-49507809D01*
X188881524Y-49322657D01*
X188962727Y-49306505D01*
X189200000Y-49147964D01*
X189437273Y-49306505D01*
X189439272Y-49306903D01*
X189623000Y-49490631D01*
X189623000Y-52407869D01*
X189231613Y-52016482D01*
X189168289Y-51921711D01*
X188792855Y-51670854D01*
X188461783Y-51605000D01*
X188350000Y-51582765D01*
X188238217Y-51605000D01*
X184380133Y-51605000D01*
X178751884Y-45976753D01*
X178738192Y-45956261D01*
X178648289Y-45821711D01*
X178553521Y-45758389D01*
X173135000Y-40339869D01*
X173135000Y-38294285D01*
X173250000Y-38122175D01*
X173501471Y-38498528D01*
X173959600Y-38804641D01*
X174500000Y-38912133D01*
X175040399Y-38804641D01*
X175498528Y-38498529D01*
X175741431Y-38135000D01*
X178258569Y-38135000D01*
X178501471Y-38498528D01*
X178959600Y-38804641D01*
X179500000Y-38912133D01*
X180040399Y-38804641D01*
X180498528Y-38498529D01*
X180750000Y-38122175D01*
X180865000Y-38294285D01*
X180865000Y-38294285D01*
G37*
X180865000Y-38294285D02*
X180865001Y-42888212D01*
X180842765Y-43000000D01*
X180930854Y-43442854D01*
X180996085Y-43540478D01*
X181181712Y-43818289D01*
X181276480Y-43881611D01*
X184155889Y-46761021D01*
X184219211Y-46855789D01*
X184519604Y-47056505D01*
X184594645Y-47106646D01*
X185037500Y-47194735D01*
X185149283Y-47172500D01*
X185529869Y-47172500D01*
X185579999Y-47222630D01*
X185643323Y-47317401D01*
X185994190Y-47551843D01*
X186018757Y-47568258D01*
X186052560Y-47574982D01*
X186052560Y-49050000D01*
X186101843Y-49297765D01*
X186242191Y-49507809D01*
X186452235Y-49648157D01*
X186700000Y-49697440D01*
X188300000Y-49697440D01*
X188547765Y-49648157D01*
X188757809Y-49507809D01*
X188881524Y-49322657D01*
X188962727Y-49306505D01*
X189200000Y-49147964D01*
X189437273Y-49306505D01*
X189439272Y-49306903D01*
X189623000Y-49490631D01*
X189623000Y-52407869D01*
X189231613Y-52016482D01*
X189168289Y-51921711D01*
X188792855Y-51670854D01*
X188461783Y-51605000D01*
X188350000Y-51582765D01*
X188238217Y-51605000D01*
X184380133Y-51605000D01*
X178751884Y-45976753D01*
X178738192Y-45956261D01*
X178648289Y-45821711D01*
X178553521Y-45758389D01*
X173135000Y-40339869D01*
X173135000Y-38294285D01*
X173250000Y-38122175D01*
X173501471Y-38498528D01*
X173959600Y-38804641D01*
X174500000Y-38912133D01*
X175040399Y-38804641D01*
X175498528Y-38498529D01*
X175741431Y-38135000D01*
X178258569Y-38135000D01*
X178501471Y-38498528D01*
X178959600Y-38804641D01*
X179500000Y-38912133D01*
X180040399Y-38804641D01*
X180498528Y-38498529D01*
X180750000Y-38122175D01*
X180865000Y-38294285D01*
G04 #@! TO.N,7V_OUTA*
G36*
X133977225Y-42135000D02*
X135522775Y-42135000D01*
X136145642Y-41877000D01*
X138123000Y-41877000D01*
X138123000Y-47750000D01*
X138132667Y-47798601D01*
X138160197Y-47839803D01*
X138201399Y-47867333D01*
X138250000Y-47877000D01*
X141873000Y-47877000D01*
X141873000Y-48243609D01*
X141765000Y-48504343D01*
X141765000Y-48995657D01*
X141873000Y-49256391D01*
X141873000Y-52623000D01*
X122750000Y-52623000D01*
X122701399Y-52632667D01*
X122660197Y-52660197D01*
X122632667Y-52701399D01*
X122623000Y-52750000D01*
X122623000Y-55123000D01*
X120847500Y-55123000D01*
X120847500Y-54388217D01*
X120781646Y-54057145D01*
X120751283Y-54011704D01*
X120731505Y-53912273D01*
X120627000Y-53755870D01*
X120627000Y-48627000D01*
X131250000Y-48627000D01*
X131298601Y-48617333D01*
X131339803Y-48589803D01*
X131367333Y-48548601D01*
X131377000Y-48500000D01*
X131377000Y-41877000D01*
X133354358Y-41877000D01*
X133977225Y-42135000D01*
X133977225Y-42135000D01*
G37*
X133977225Y-42135000D02*
X135522775Y-42135000D01*
X136145642Y-41877000D01*
X138123000Y-41877000D01*
X138123000Y-47750000D01*
X138132667Y-47798601D01*
X138160197Y-47839803D01*
X138201399Y-47867333D01*
X138250000Y-47877000D01*
X141873000Y-47877000D01*
X141873000Y-48243609D01*
X141765000Y-48504343D01*
X141765000Y-48995657D01*
X141873000Y-49256391D01*
X141873000Y-52623000D01*
X122750000Y-52623000D01*
X122701399Y-52632667D01*
X122660197Y-52660197D01*
X122632667Y-52701399D01*
X122623000Y-52750000D01*
X122623000Y-55123000D01*
X120847500Y-55123000D01*
X120847500Y-54388217D01*
X120781646Y-54057145D01*
X120751283Y-54011704D01*
X120731505Y-53912273D01*
X120627000Y-53755870D01*
X120627000Y-48627000D01*
X131250000Y-48627000D01*
X131298601Y-48617333D01*
X131339803Y-48589803D01*
X131367333Y-48548601D01*
X131377000Y-48500000D01*
X131377000Y-41877000D01*
X133354358Y-41877000D01*
X133977225Y-42135000D01*
G04 #@! TO.N,7V_OUTB*
G36*
X159977225Y-42135000D02*
X161522775Y-42135000D01*
X162145642Y-41877000D01*
X164123000Y-41877000D01*
X164123000Y-47750000D01*
X164132667Y-47798601D01*
X164160197Y-47839803D01*
X164201399Y-47867333D01*
X164250000Y-47877000D01*
X167623000Y-47877000D01*
X167623000Y-48243609D01*
X167515000Y-48504343D01*
X167515000Y-48995657D01*
X167623000Y-49256391D01*
X167623000Y-52623000D01*
X148750000Y-52623000D01*
X148701399Y-52632667D01*
X148660197Y-52660197D01*
X148632667Y-52701399D01*
X148623000Y-52750000D01*
X148623000Y-55123000D01*
X146310000Y-55123000D01*
X146310000Y-54388217D01*
X146244146Y-54057145D01*
X146213783Y-54011704D01*
X146194005Y-53912273D01*
X146127000Y-53811993D01*
X146127000Y-48379854D01*
X157247178Y-48626969D01*
X157295982Y-48618383D01*
X157337785Y-48591776D01*
X157366224Y-48551196D01*
X157377000Y-48500000D01*
X157377000Y-41877000D01*
X159354358Y-41877000D01*
X159977225Y-42135000D01*
X159977225Y-42135000D01*
G37*
X159977225Y-42135000D02*
X161522775Y-42135000D01*
X162145642Y-41877000D01*
X164123000Y-41877000D01*
X164123000Y-47750000D01*
X164132667Y-47798601D01*
X164160197Y-47839803D01*
X164201399Y-47867333D01*
X164250000Y-47877000D01*
X167623000Y-47877000D01*
X167623000Y-48243609D01*
X167515000Y-48504343D01*
X167515000Y-48995657D01*
X167623000Y-49256391D01*
X167623000Y-52623000D01*
X148750000Y-52623000D01*
X148701399Y-52632667D01*
X148660197Y-52660197D01*
X148632667Y-52701399D01*
X148623000Y-52750000D01*
X148623000Y-55123000D01*
X146310000Y-55123000D01*
X146310000Y-54388217D01*
X146244146Y-54057145D01*
X146213783Y-54011704D01*
X146194005Y-53912273D01*
X146127000Y-53811993D01*
X146127000Y-48379854D01*
X157247178Y-48626969D01*
X157295982Y-48618383D01*
X157337785Y-48591776D01*
X157366224Y-48551196D01*
X157377000Y-48500000D01*
X157377000Y-41877000D01*
X159354358Y-41877000D01*
X159977225Y-42135000D01*
G04 #@! TO.N,+BATT*
G36*
X131660197Y-80839803D02*
X131701399Y-80867333D01*
X131750000Y-80877000D01*
X150873000Y-80877000D01*
X150873000Y-86865000D01*
X149324282Y-86865000D01*
X149212499Y-86842765D01*
X148769645Y-86930854D01*
X148394211Y-87181711D01*
X148330889Y-87276479D01*
X147234368Y-88373000D01*
X126250000Y-88373000D01*
X126201399Y-88382667D01*
X126160197Y-88410197D01*
X126132667Y-88451399D01*
X126123000Y-88500000D01*
X126123000Y-90623000D01*
X125127000Y-90623000D01*
X125127000Y-88500000D01*
X125117333Y-88451399D01*
X125089803Y-88410197D01*
X125048601Y-88382667D01*
X125000000Y-88373000D01*
X122877000Y-88373000D01*
X122877000Y-76127000D01*
X126947394Y-76127000D01*
X131660197Y-80839803D01*
X131660197Y-80839803D01*
G37*
X131660197Y-80839803D02*
X131701399Y-80867333D01*
X131750000Y-80877000D01*
X150873000Y-80877000D01*
X150873000Y-86865000D01*
X149324282Y-86865000D01*
X149212499Y-86842765D01*
X148769645Y-86930854D01*
X148394211Y-87181711D01*
X148330889Y-87276479D01*
X147234368Y-88373000D01*
X126250000Y-88373000D01*
X126201399Y-88382667D01*
X126160197Y-88410197D01*
X126132667Y-88451399D01*
X126123000Y-88500000D01*
X126123000Y-90623000D01*
X125127000Y-90623000D01*
X125127000Y-88500000D01*
X125117333Y-88451399D01*
X125089803Y-88410197D01*
X125048601Y-88382667D01*
X125000000Y-88373000D01*
X122877000Y-88373000D01*
X122877000Y-76127000D01*
X126947394Y-76127000D01*
X131660197Y-80839803D01*
G04 #@! TO.N,Net-(C7-Pad2)*
G36*
X149897145Y-61819146D02*
X150228217Y-61885000D01*
X150340000Y-61907235D01*
X150451783Y-61885000D01*
X151455394Y-61885000D01*
X152410197Y-62839803D01*
X152451399Y-62867333D01*
X152500000Y-62877000D01*
X166373000Y-62877000D01*
X166373000Y-68873000D01*
X152377000Y-68873000D01*
X152377000Y-65750000D01*
X152367333Y-65701399D01*
X152339803Y-65660197D01*
X152298601Y-65632667D01*
X152250000Y-65623000D01*
X150852760Y-65623000D01*
X150750000Y-65602560D01*
X149250000Y-65602560D01*
X149147240Y-65623000D01*
X147377000Y-65623000D01*
X147377000Y-62627000D01*
X149000000Y-62627000D01*
X149048601Y-62617333D01*
X149089803Y-62589803D01*
X149117333Y-62548601D01*
X149127000Y-62500000D01*
X149127000Y-61986541D01*
X149279586Y-61884586D01*
X149451700Y-61627000D01*
X149609578Y-61627000D01*
X149897145Y-61819146D01*
X149897145Y-61819146D01*
G37*
X149897145Y-61819146D02*
X150228217Y-61885000D01*
X150340000Y-61907235D01*
X150451783Y-61885000D01*
X151455394Y-61885000D01*
X152410197Y-62839803D01*
X152451399Y-62867333D01*
X152500000Y-62877000D01*
X166373000Y-62877000D01*
X166373000Y-68873000D01*
X152377000Y-68873000D01*
X152377000Y-65750000D01*
X152367333Y-65701399D01*
X152339803Y-65660197D01*
X152298601Y-65632667D01*
X152250000Y-65623000D01*
X150852760Y-65623000D01*
X150750000Y-65602560D01*
X149250000Y-65602560D01*
X149147240Y-65623000D01*
X147377000Y-65623000D01*
X147377000Y-62627000D01*
X149000000Y-62627000D01*
X149048601Y-62617333D01*
X149089803Y-62589803D01*
X149117333Y-62548601D01*
X149127000Y-62500000D01*
X149127000Y-61986541D01*
X149279586Y-61884586D01*
X149451700Y-61627000D01*
X149609578Y-61627000D01*
X149897145Y-61819146D01*
G04 #@! TO.N,Net-(C6-Pad2)*
G36*
X124282145Y-61704146D02*
X124613217Y-61770000D01*
X126006020Y-61770000D01*
X126193204Y-61863592D01*
X126250000Y-61877000D01*
X126489025Y-61877000D01*
X126493783Y-61881758D01*
X126984452Y-62085000D01*
X127515548Y-62085000D01*
X127998390Y-61885000D01*
X137279869Y-61885000D01*
X140873000Y-65478131D01*
X140873000Y-68873000D01*
X128377000Y-68873000D01*
X128377000Y-65750000D01*
X128367333Y-65701399D01*
X128339803Y-65660197D01*
X128298601Y-65632667D01*
X128250000Y-65623000D01*
X125602760Y-65623000D01*
X125500000Y-65602560D01*
X124000000Y-65602560D01*
X123897240Y-65623000D01*
X122127000Y-65623000D01*
X122127000Y-62877000D01*
X123750000Y-62877000D01*
X123798601Y-62867333D01*
X123839803Y-62839803D01*
X123867333Y-62798601D01*
X123877000Y-62750000D01*
X123877000Y-61738796D01*
X123951700Y-61627000D01*
X124166688Y-61627000D01*
X124282145Y-61704146D01*
X124282145Y-61704146D01*
G37*
X124282145Y-61704146D02*
X124613217Y-61770000D01*
X126006020Y-61770000D01*
X126193204Y-61863592D01*
X126250000Y-61877000D01*
X126489025Y-61877000D01*
X126493783Y-61881758D01*
X126984452Y-62085000D01*
X127515548Y-62085000D01*
X127998390Y-61885000D01*
X137279869Y-61885000D01*
X140873000Y-65478131D01*
X140873000Y-68873000D01*
X128377000Y-68873000D01*
X128377000Y-65750000D01*
X128367333Y-65701399D01*
X128339803Y-65660197D01*
X128298601Y-65632667D01*
X128250000Y-65623000D01*
X125602760Y-65623000D01*
X125500000Y-65602560D01*
X124000000Y-65602560D01*
X123897240Y-65623000D01*
X122127000Y-65623000D01*
X122127000Y-62877000D01*
X123750000Y-62877000D01*
X123798601Y-62867333D01*
X123839803Y-62839803D01*
X123867333Y-62798601D01*
X123877000Y-62750000D01*
X123877000Y-61738796D01*
X123951700Y-61627000D01*
X124166688Y-61627000D01*
X124282145Y-61704146D01*
G04 #@! TD*
M02*
