M48
;DRILL file {KiCad (5.0.0)} date 03/01/19 17:46:04
;FORMAT={-:-/ absolute / metric / decimal}
FMAT,2
METRIC,TZ
T1C0.300
T2C0.400
T3C0.500
T4C0.550
T5C0.600
T6C0.700
T7C0.762
T8C1.016
%
G90
G05
M71
T1
X109.5Y-75.25
X109.5Y-77.5
X109.5Y-79.75
X109.5Y-81.75
X109.5Y-84.
X109.5Y-86.25
X109.5Y-88.5
X109.5Y-90.75
X109.5Y-93.
X109.5Y-95.5
X109.5Y-98.
X109.5Y-100.75
X109.5Y-103.5
X110.Y-85.25
X110.Y-87.5
X110.Y-89.75
X110.Y-91.5
X110.Y-94.25
X110.Y-96.75
X110.5Y-82.5
X110.5Y-99.75
X111.Y-75.5
X111.Y-77.5
X111.Y-80.
X111.Y-84.
X111.Y-86.25
X111.Y-88.75
X111.Y-91.5
X111.Y-94.
X111.Y-96.5
X111.25Y-103.75
X111.5Y-101.75
X111.5Y-105.5
X111.75Y-73.5
X111.75Y-99.5
X112.25Y-80.25
X112.5Y-75.5
X112.5Y-77.75
X112.5Y-79.
X112.75Y-102.75
X113.Y-100.5
X113.Y-104.5
X113.25Y-73.25
X113.25Y-79.75
X113.5Y-80.75
X113.5Y-88.75
X113.5Y-91.25
X113.5Y-93.75
X113.5Y-96.75
X113.75Y-85.75
X113.87Y-78.5
X113.97Y-74.5
X113.97Y-76.5
X114.Y-97.75
X114.25Y-81.75
X114.25Y-84.5
X114.25Y-94.5
X114.25Y-105.5
X114.25Y-105.5
X114.25Y-105.5
X114.5Y-100.25
X114.5Y-102.
X114.75Y-87.5
X114.75Y-91.75
X114.75Y-103.75
X115.Y-80.
X115.Y-82.5
X115.Y-85.75
X115.Y-89.25
X115.Y-91.
X115.25Y-73.25
X115.25Y-93.75
X115.25Y-96.75
X115.25Y-97.75
X116.Y-82.25
X116.Y-101.5
X116.5Y-103.5
X116.75Y-81.75
X117.Y-79.75
X117.Y-105.5
X117.07Y-73.5
X117.5Y-82.5
X118.Y-83.5
X118.Y-86.75
X118.Y-89.75
X118.Y-92.75
X118.Y-95.75
X118.Y-101.75
X118.25Y-103.
X118.5Y-104.25
X119.Y-82.
X119.75Y-102.25
X120.Y-103.75
X120.Y-105.5
X120.78Y-97.02
X120.78Y-100.48
X121.04Y-93.055
X121.25Y-83.25
X121.25Y-103.75
X121.5Y-86.25
X121.75Y-75.
X121.75Y-76.
X121.75Y-102.5
X122.Y-82.
X122.Y-88.25
X122.Y-90.75
X122.Y-105.5
X122.25Y-78.5
X122.25Y-85.
X122.5Y-73.25
X122.62Y-91.31
X122.75Y-86.25
X122.93Y-89.4
X123.Y-79.25
X123.26Y-87.
X124.Y-73.75
X124.Y-79.
X124.Y-85.75
X124.Y-88.75
X124.25Y-75.75
X124.25Y-81.75
X124.25Y-82.75
X124.25Y-86.75
X124.25Y-97.75
X124.75Y-100.
X124.83Y-85.64
X125.Y-90.
X125.Y-94.5
X125.Y-96.75
X125.13Y-84.84
X125.5Y-87.75
X125.75Y-84.
X125.75Y-86.25
X126.25Y-82.5
X127.Y-80.75
X127.Y-94.25
X127.Y-97.75
X127.25Y-77.25
X127.25Y-79.75
X127.5Y-73.25
X128.14Y-76.78
X128.25Y-78.5
X128.75Y-74.
X129.1Y-83.85
X129.25Y-77.75
X129.5Y-79.25
X129.5Y-100.75
X129.75Y-73.25
X130.Y-74.5
X130.5Y-94.25
X130.5Y-102.75
X130.75Y-75.75
X130.75Y-79.25
X130.75Y-105.5
X131.Y-78.
X131.11Y-98.44
X131.25Y-95.5
X131.25Y-101.25
X131.3Y-98.26
X131.75Y-78.5
X131.75Y-79.75
X131.75Y-81.75
X131.9Y-99.04
X132.Y-73.25
X132.25Y-104.
X132.5Y-90.5
X133.25Y-74.75
X133.25Y-105.75
X133.5Y-76.
X133.5Y-86.5
X133.5Y-88.75
X133.5Y-98.75
X134.Y-79.5
X134.Y-100.5
X134.25Y-82.
X134.5Y-74.5
X134.583Y-85.643
X134.75Y-99.25
X134.86Y-84.84
X134.93Y-93.25
X135.Y-76.
X135.Y-92.
X135.Y-94.5
X135.25Y-98.
X135.43Y-96.25
X135.5Y-73.25
X135.5Y-75.25
X135.5Y-76.97
X135.65Y-86.71
X135.68Y-90.
X135.75Y-93.75
X136.Y-104.
X136.Y-105.75
X136.15Y-86.15
X136.25Y-76.5
X136.25Y-101.
X136.5Y-79.5
X136.5Y-92.
X136.61Y-81.58
X136.75Y-95.
X136.75Y-98.07
X137.Y-75.75
X137.Y-89.5
X137.25Y-74.25
X137.25Y-85.57
X137.25Y-93.75
X137.25Y-96.5
X137.5Y-76.75
X137.75Y-90.75
X138.Y-73.25
X138.25Y-98.25
X138.344Y-86.461
X138.5Y-89.75
X138.5Y-92.
X138.75Y-101.
X139.Y-95.25
X139.Y-105.75
X139.15Y-86.53
X139.25Y-73.75
X139.25Y-77.
X139.25Y-90.5
X139.7Y-80.75
X140.Y-93.75
X140.Y-96.5
X140.Y-98.25
X140.Y-104.
X140.2Y-78.42
X140.25Y-74.25
X140.25Y-76.25
X140.25Y-89.5
X141.Y-73.25
X141.Y-75.
X141.Y-91.
X141.Y-92.25
X141.Y-94.5
X141.25Y-101.
X141.5Y-76.25
X141.5Y-102.75
X141.57Y-89.29
X141.75Y-81.75
X141.75Y-84.25
X141.75Y-98.25
X142.24Y-87.28
X142.25Y-105.75
X142.5Y-90.25
X142.75Y-92.25
X142.75Y-94.5
X142.75Y-96.25
X143.Y-76.25
X143.25Y-73.25
X143.25Y-98.07
X143.5Y-75.
X143.57Y-90.25
X143.75Y-96.75
X143.84Y-92.96
X144.Y-91.75
X144.Y-94.25
X144.Y-95.5
X144.25Y-84.5
X144.25Y-88.25
X144.33Y-81.78
X144.5Y-102.75
X144.75Y-76.25
X145.Y-88.75
X145.25Y-74.75
X145.25Y-98.5
X145.5Y-105.75
X145.75Y-87.75
X146.Y-73.25
X146.25Y-89.
X146.5Y-75.25
X146.5Y-95.75
X146.5Y-97.75
X146.5Y-103.
X146.75Y-77.
X146.75Y-78.25
X146.75Y-86.25
X146.75Y-99.75
X146.78Y-80.77
X146.89Y-84.64
X147.5Y-87.75
X147.75Y-85.
X148.Y-103.75
X148.Y-105.75
X148.25Y-74.25
X148.25Y-86.25
X148.25Y-101.25
X148.5Y-90.25
X148.5Y-98.5
X148.75Y-73.25
X148.75Y-85.
X148.75Y-92.5
X149.Y-87.
X149.Y-89.5
X149.11Y-81.22
X149.25Y-78.
X149.28Y-75.75
X149.28Y-79.5
X149.75Y-81.75
X150.Y-94.5
X150.Y-102.
X150.25Y-77.25
X150.25Y-84.75
X150.25Y-103.75
X150.25Y-105.75
X150.5Y-96.5
X150.75Y-74.25
X151.Y-78.
X151.Y-81.25
X151.25Y-93.5
X151.5Y-75.75
X151.5Y-79.5
X151.67Y-84.54
X151.75Y-82.25
X152.Y-86.25
X152.25Y-75.25
X152.25Y-80.25
X152.25Y-83.25
X152.5Y-94.5
X153.Y-97.75
X153.Y-101.75
X153.Y-103.75
X153.25Y-73.25
X153.25Y-84.75
X153.25Y-95.5
X153.5Y-82.
X153.75Y-88.25
X153.75Y-92.5
X153.75Y-105.75
X154.Y-86.
X154.5Y-99.75
X155.Y-81.25
X155.Y-94.5
X155.25Y-73.25
X155.5Y-84.
X155.75Y-98.5
X155.75Y-101.
X156.75Y-82.5
X156.75Y-86.25
X156.75Y-87.75
X156.75Y-89.25
X156.75Y-90.75
X156.75Y-92.25
X156.75Y-94.5
X157.Y-96.75
X157.25Y-100.5
X157.25Y-105.5
X157.75Y-74.5
X158.25Y-76.75
X158.25Y-79.
X158.25Y-81.5
X158.25Y-84.5
X158.25Y-88.
X158.25Y-90.5
X158.25Y-92.75
X158.25Y-94.75
X158.25Y-96.75
X158.25Y-98.
X158.25Y-103.25
T2
X126.03Y-93.
T5
X116.5Y-83.47
X116.5Y-86.72
X116.5Y-89.72
X116.5Y-92.72
X116.5Y-95.72
X116.5Y-98.72
X118.25Y-79.53
X119.38Y-83.31
X120.3Y-73.69
X123.05Y-95.635
X124.47Y-93.
X128.32Y-80.75
X128.45Y-96.905
X128.95Y-94.365
X132.82Y-102.75
X137.82Y-80.75
X155.Y-103.
T6
X155.5Y-85.5
X155.5Y-87.
X155.5Y-88.5
X155.5Y-90.
X155.5Y-91.5
X155.5Y-93.
T7
X127.84Y-82.965
X130.38Y-82.965
X132.92Y-82.965
X135.46Y-82.965
X138.Y-82.965
X140.54Y-82.965
X143.08Y-82.965
X145.62Y-82.965
X148.16Y-82.965
T8
X112.25Y-82.5
X112.25Y-85.04
X112.25Y-87.58
X112.25Y-90.12
X112.25Y-92.66
X112.25Y-95.2
X112.25Y-97.74
T3
X131.999Y-75.038G85X131.999Y-75.688
G05
X138.999Y-75.038G85X138.999Y-75.688
G05
T4
X133.149Y-78.063G85X132.849Y-78.063
G05
X138.149Y-78.063G85X137.849Y-78.063
G05
T0
M30
