G04 #@! TF.GenerationSoftware,KiCad,Pcbnew,(5.0.0)*
G04 #@! TF.CreationDate,2019-03-01T17:45:54+09:00*
G04 #@! TF.ProjectId,Lipo_Alarm,4C69706F5F416C61726D2E6B69636164,rev?*
G04 #@! TF.SameCoordinates,Original*
G04 #@! TF.FileFunction,Legend,Top*
G04 #@! TF.FilePolarity,Positive*
%FSLAX46Y46*%
G04 Gerber Fmt 4.6, Leading zero omitted, Abs format (unit mm)*
G04 Created by KiCad (PCBNEW (5.0.0)) date 03/01/19 17:45:54*
%MOMM*%
%LPD*%
G01*
G04 APERTURE LIST*
%ADD10C,0.200000*%
%ADD11C,0.300000*%
%ADD12C,0.150000*%
%ADD13C,0.500000*%
%ADD14C,0.010000*%
%ADD15C,0.250000*%
G04 APERTURE END LIST*
D10*
X138895238Y-105861904D02*
X138895238Y-105061904D01*
X139085714Y-105061904D01*
X139200000Y-105100000D01*
X139276190Y-105176190D01*
X139314285Y-105252380D01*
X139352380Y-105404761D01*
X139352380Y-105519047D01*
X139314285Y-105671428D01*
X139276190Y-105747619D01*
X139200000Y-105823809D01*
X139085714Y-105861904D01*
X138895238Y-105861904D01*
X140000000Y-105823809D02*
X139923809Y-105861904D01*
X139771428Y-105861904D01*
X139695238Y-105823809D01*
X139657142Y-105747619D01*
X139657142Y-105442857D01*
X139695238Y-105366666D01*
X139771428Y-105328571D01*
X139923809Y-105328571D01*
X140000000Y-105366666D01*
X140038095Y-105442857D01*
X140038095Y-105519047D01*
X139657142Y-105595238D01*
X140342857Y-105823809D02*
X140419047Y-105861904D01*
X140571428Y-105861904D01*
X140647619Y-105823809D01*
X140685714Y-105747619D01*
X140685714Y-105709523D01*
X140647619Y-105633333D01*
X140571428Y-105595238D01*
X140457142Y-105595238D01*
X140380952Y-105557142D01*
X140342857Y-105480952D01*
X140342857Y-105442857D01*
X140380952Y-105366666D01*
X140457142Y-105328571D01*
X140571428Y-105328571D01*
X140647619Y-105366666D01*
X141028571Y-105861904D02*
X141028571Y-105328571D01*
X141028571Y-105061904D02*
X140990476Y-105100000D01*
X141028571Y-105138095D01*
X141066666Y-105100000D01*
X141028571Y-105061904D01*
X141028571Y-105138095D01*
X141752380Y-105328571D02*
X141752380Y-105976190D01*
X141714285Y-106052380D01*
X141676190Y-106090476D01*
X141600000Y-106128571D01*
X141485714Y-106128571D01*
X141409523Y-106090476D01*
X141752380Y-105823809D02*
X141676190Y-105861904D01*
X141523809Y-105861904D01*
X141447619Y-105823809D01*
X141409523Y-105785714D01*
X141371428Y-105709523D01*
X141371428Y-105480952D01*
X141409523Y-105404761D01*
X141447619Y-105366666D01*
X141523809Y-105328571D01*
X141676190Y-105328571D01*
X141752380Y-105366666D01*
X142133333Y-105328571D02*
X142133333Y-105861904D01*
X142133333Y-105404761D02*
X142171428Y-105366666D01*
X142247619Y-105328571D01*
X142361904Y-105328571D01*
X142438095Y-105366666D01*
X142476190Y-105442857D01*
X142476190Y-105861904D01*
X143161904Y-105823809D02*
X143085714Y-105861904D01*
X142933333Y-105861904D01*
X142857142Y-105823809D01*
X142819047Y-105747619D01*
X142819047Y-105442857D01*
X142857142Y-105366666D01*
X142933333Y-105328571D01*
X143085714Y-105328571D01*
X143161904Y-105366666D01*
X143200000Y-105442857D01*
X143200000Y-105519047D01*
X142819047Y-105595238D01*
X143885714Y-105861904D02*
X143885714Y-105061904D01*
X143885714Y-105823809D02*
X143809523Y-105861904D01*
X143657142Y-105861904D01*
X143580952Y-105823809D01*
X143542857Y-105785714D01*
X143504761Y-105709523D01*
X143504761Y-105480952D01*
X143542857Y-105404761D01*
X143580952Y-105366666D01*
X143657142Y-105328571D01*
X143809523Y-105328571D01*
X143885714Y-105366666D01*
X144876190Y-105861904D02*
X144876190Y-105061904D01*
X144876190Y-105366666D02*
X144952380Y-105328571D01*
X145104761Y-105328571D01*
X145180952Y-105366666D01*
X145219047Y-105404761D01*
X145257142Y-105480952D01*
X145257142Y-105709523D01*
X145219047Y-105785714D01*
X145180952Y-105823809D01*
X145104761Y-105861904D01*
X144952380Y-105861904D01*
X144876190Y-105823809D01*
X145523809Y-105328571D02*
X145714285Y-105861904D01*
X145904761Y-105328571D02*
X145714285Y-105861904D01*
X145638095Y-106052380D01*
X145600000Y-106090476D01*
X145523809Y-106128571D01*
X146780952Y-105633333D02*
X147161904Y-105633333D01*
X146704761Y-105861904D02*
X146971428Y-105061904D01*
X147238095Y-105861904D01*
X147504761Y-105785714D02*
X147542857Y-105823809D01*
X147504761Y-105861904D01*
X147466666Y-105823809D01*
X147504761Y-105785714D01*
X147504761Y-105861904D01*
X147885714Y-105861904D02*
X147885714Y-105061904D01*
X148152380Y-105633333D01*
X148419047Y-105061904D01*
X148419047Y-105861904D01*
X148800000Y-105861904D02*
X148800000Y-105328571D01*
X148800000Y-105061904D02*
X148761904Y-105100000D01*
X148800000Y-105138095D01*
X148838095Y-105100000D01*
X148800000Y-105061904D01*
X148800000Y-105138095D01*
X149104761Y-105328571D02*
X149523809Y-105328571D01*
X149104761Y-105861904D01*
X149523809Y-105861904D01*
X150171428Y-105328571D02*
X150171428Y-105861904D01*
X149828571Y-105328571D02*
X149828571Y-105747619D01*
X149866666Y-105823809D01*
X149942857Y-105861904D01*
X150057142Y-105861904D01*
X150133333Y-105823809D01*
X150171428Y-105785714D01*
X150438095Y-105328571D02*
X150742857Y-105328571D01*
X150552380Y-105061904D02*
X150552380Y-105747619D01*
X150590476Y-105823809D01*
X150666666Y-105861904D01*
X150742857Y-105861904D01*
X151352380Y-105861904D02*
X151352380Y-105442857D01*
X151314285Y-105366666D01*
X151238095Y-105328571D01*
X151085714Y-105328571D01*
X151009523Y-105366666D01*
X151352380Y-105823809D02*
X151276190Y-105861904D01*
X151085714Y-105861904D01*
X151009523Y-105823809D01*
X150971428Y-105747619D01*
X150971428Y-105671428D01*
X151009523Y-105595238D01*
X151085714Y-105557142D01*
X151276190Y-105557142D01*
X151352380Y-105519047D01*
X152342857Y-105861904D02*
X152342857Y-105328571D01*
X152342857Y-105061904D02*
X152304761Y-105100000D01*
X152342857Y-105138095D01*
X152380952Y-105100000D01*
X152342857Y-105061904D01*
X152342857Y-105138095D01*
X152723809Y-105328571D02*
X152723809Y-105861904D01*
X152723809Y-105404761D02*
X152761904Y-105366666D01*
X152838095Y-105328571D01*
X152952380Y-105328571D01*
X153028571Y-105366666D01*
X153066666Y-105442857D01*
X153066666Y-105861904D01*
X154019047Y-105138095D02*
X154057142Y-105100000D01*
X154133333Y-105061904D01*
X154323809Y-105061904D01*
X154400000Y-105100000D01*
X154438095Y-105138095D01*
X154476190Y-105214285D01*
X154476190Y-105290476D01*
X154438095Y-105404761D01*
X153980952Y-105861904D01*
X154476190Y-105861904D01*
X154971428Y-105061904D02*
X155047619Y-105061904D01*
X155123809Y-105100000D01*
X155161904Y-105138095D01*
X155200000Y-105214285D01*
X155238095Y-105366666D01*
X155238095Y-105557142D01*
X155200000Y-105709523D01*
X155161904Y-105785714D01*
X155123809Y-105823809D01*
X155047619Y-105861904D01*
X154971428Y-105861904D01*
X154895238Y-105823809D01*
X154857142Y-105785714D01*
X154819047Y-105709523D01*
X154780952Y-105557142D01*
X154780952Y-105366666D01*
X154819047Y-105214285D01*
X154857142Y-105138095D01*
X154895238Y-105100000D01*
X154971428Y-105061904D01*
X156000000Y-105861904D02*
X155542857Y-105861904D01*
X155771428Y-105861904D02*
X155771428Y-105061904D01*
X155695238Y-105176190D01*
X155619047Y-105252380D01*
X155542857Y-105290476D01*
X156380952Y-105861904D02*
X156533333Y-105861904D01*
X156609523Y-105823809D01*
X156647619Y-105785714D01*
X156723809Y-105671428D01*
X156761904Y-105519047D01*
X156761904Y-105214285D01*
X156723809Y-105138095D01*
X156685714Y-105100000D01*
X156609523Y-105061904D01*
X156457142Y-105061904D01*
X156380952Y-105100000D01*
X156342857Y-105138095D01*
X156304761Y-105214285D01*
X156304761Y-105404761D01*
X156342857Y-105480952D01*
X156380952Y-105519047D01*
X156457142Y-105557142D01*
X156609523Y-105557142D01*
X156685714Y-105519047D01*
X156723809Y-105480952D01*
X156761904Y-105404761D01*
X157104761Y-105785714D02*
X157142857Y-105823809D01*
X157104761Y-105861904D01*
X157066666Y-105823809D01*
X157104761Y-105785714D01*
X157104761Y-105861904D01*
D11*
X131585000Y-73442857D02*
X131790357Y-73514285D01*
X131852857Y-73585714D01*
X131906428Y-73728571D01*
X131879642Y-73942857D01*
X131790357Y-74085714D01*
X131710000Y-74157142D01*
X131558214Y-74228571D01*
X130986785Y-74228571D01*
X131174285Y-72728571D01*
X131674285Y-72728571D01*
X131808214Y-72800000D01*
X131870714Y-72871428D01*
X131924285Y-73014285D01*
X131906428Y-73157142D01*
X131817142Y-73300000D01*
X131736785Y-73371428D01*
X131585000Y-73442857D01*
X131085000Y-73442857D01*
X133129642Y-74228571D02*
X133227857Y-73442857D01*
X133174285Y-73300000D01*
X133040357Y-73228571D01*
X132754642Y-73228571D01*
X132602857Y-73300000D01*
X133138571Y-74157142D02*
X132986785Y-74228571D01*
X132629642Y-74228571D01*
X132495714Y-74157142D01*
X132442142Y-74014285D01*
X132460000Y-73871428D01*
X132549285Y-73728571D01*
X132701071Y-73657142D01*
X133058214Y-73657142D01*
X133210000Y-73585714D01*
X133754642Y-73228571D02*
X134326071Y-73228571D01*
X134031428Y-72728571D02*
X133870714Y-74014285D01*
X133924285Y-74157142D01*
X134058214Y-74228571D01*
X134201071Y-74228571D01*
X134611785Y-73228571D02*
X135183214Y-73228571D01*
X134888571Y-72728571D02*
X134727857Y-74014285D01*
X134781428Y-74157142D01*
X134915357Y-74228571D01*
X135058214Y-74228571D01*
X136138571Y-74157142D02*
X135986785Y-74228571D01*
X135701071Y-74228571D01*
X135567142Y-74157142D01*
X135513571Y-74014285D01*
X135585000Y-73442857D01*
X135674285Y-73300000D01*
X135826071Y-73228571D01*
X136111785Y-73228571D01*
X136245714Y-73300000D01*
X136299285Y-73442857D01*
X136281428Y-73585714D01*
X135549285Y-73728571D01*
X136843928Y-74228571D02*
X136968928Y-73228571D01*
X136933214Y-73514285D02*
X137022500Y-73371428D01*
X137102857Y-73300000D01*
X137254642Y-73228571D01*
X137397500Y-73228571D01*
X137754642Y-73228571D02*
X137986785Y-74228571D01*
X138468928Y-73228571D02*
X137986785Y-74228571D01*
X137799285Y-74585714D01*
X137718928Y-74657142D01*
X137567142Y-74728571D01*
X140040357Y-73800000D02*
X140754642Y-73800000D01*
X139843928Y-74228571D02*
X140531428Y-72728571D01*
X140843928Y-74228571D01*
X141558214Y-74228571D02*
X141424285Y-74157142D01*
X141370714Y-74014285D01*
X141531428Y-72728571D01*
X142772500Y-74228571D02*
X142870714Y-73442857D01*
X142817142Y-73300000D01*
X142683214Y-73228571D01*
X142397500Y-73228571D01*
X142245714Y-73300000D01*
X142781428Y-74157142D02*
X142629642Y-74228571D01*
X142272500Y-74228571D01*
X142138571Y-74157142D01*
X142085000Y-74014285D01*
X142102857Y-73871428D01*
X142192142Y-73728571D01*
X142343928Y-73657142D01*
X142701071Y-73657142D01*
X142852857Y-73585714D01*
X143486785Y-74228571D02*
X143611785Y-73228571D01*
X143576071Y-73514285D02*
X143665357Y-73371428D01*
X143745714Y-73300000D01*
X143897500Y-73228571D01*
X144040357Y-73228571D01*
X144415357Y-74228571D02*
X144540357Y-73228571D01*
X144522500Y-73371428D02*
X144602857Y-73300000D01*
X144754642Y-73228571D01*
X144968928Y-73228571D01*
X145102857Y-73300000D01*
X145156428Y-73442857D01*
X145058214Y-74228571D01*
X145156428Y-73442857D02*
X145245714Y-73300000D01*
X145397500Y-73228571D01*
X145611785Y-73228571D01*
X145745714Y-73300000D01*
X145799285Y-73442857D01*
X145701071Y-74228571D01*
X147540357Y-73228571D02*
X147772500Y-74228571D01*
X148254642Y-73228571D01*
X149281428Y-74157142D02*
X149129642Y-74228571D01*
X148843928Y-74228571D01*
X148710000Y-74157142D01*
X148656428Y-74014285D01*
X148727857Y-73442857D01*
X148817142Y-73300000D01*
X148968928Y-73228571D01*
X149254642Y-73228571D01*
X149388571Y-73300000D01*
X149442142Y-73442857D01*
X149424285Y-73585714D01*
X148692142Y-73728571D01*
X149986785Y-74228571D02*
X150111785Y-73228571D01*
X150076071Y-73514285D02*
X150165357Y-73371428D01*
X150245714Y-73300000D01*
X150397500Y-73228571D01*
X150540357Y-73228571D01*
X150933214Y-74085714D02*
X150995714Y-74157142D01*
X150915357Y-74228571D01*
X150852857Y-74157142D01*
X150933214Y-74085714D01*
X150915357Y-74228571D01*
X152102857Y-72728571D02*
X152245714Y-72728571D01*
X152379642Y-72800000D01*
X152442142Y-72871428D01*
X152495714Y-73014285D01*
X152531428Y-73300000D01*
X152486785Y-73657142D01*
X152379642Y-73942857D01*
X152290357Y-74085714D01*
X152210000Y-74157142D01*
X152058214Y-74228571D01*
X151915357Y-74228571D01*
X151781428Y-74157142D01*
X151718928Y-74085714D01*
X151665357Y-73942857D01*
X151629642Y-73657142D01*
X151674285Y-73300000D01*
X151781428Y-73014285D01*
X151870714Y-72871428D01*
X151951071Y-72800000D01*
X152102857Y-72728571D01*
X153076071Y-74085714D02*
X153138571Y-74157142D01*
X153058214Y-74228571D01*
X152995714Y-74157142D01*
X153076071Y-74085714D01*
X153058214Y-74228571D01*
X154245714Y-72728571D02*
X154388571Y-72728571D01*
X154522500Y-72800000D01*
X154585000Y-72871428D01*
X154638571Y-73014285D01*
X154674285Y-73300000D01*
X154629642Y-73657142D01*
X154522500Y-73942857D01*
X154433214Y-74085714D01*
X154352857Y-74157142D01*
X154201071Y-74228571D01*
X154058214Y-74228571D01*
X153924285Y-74157142D01*
X153861785Y-74085714D01*
X153808214Y-73942857D01*
X153772500Y-73657142D01*
X153817142Y-73300000D01*
X153924285Y-73014285D01*
X154013571Y-72871428D01*
X154093928Y-72800000D01*
X154245714Y-72728571D01*
X155218928Y-74085714D02*
X155281428Y-74157142D01*
X155201071Y-74228571D01*
X155138571Y-74157142D01*
X155218928Y-74085714D01*
X155201071Y-74228571D01*
D10*
X114238095Y-82000000D02*
X114142857Y-81952380D01*
X114000000Y-81952380D01*
X113857142Y-82000000D01*
X113761904Y-82095238D01*
X113714285Y-82190476D01*
X113666666Y-82380952D01*
X113666666Y-82523809D01*
X113714285Y-82714285D01*
X113761904Y-82809523D01*
X113857142Y-82904761D01*
X114000000Y-82952380D01*
X114095238Y-82952380D01*
X114238095Y-82904761D01*
X114285714Y-82857142D01*
X114285714Y-82523809D01*
X114095238Y-82523809D01*
X114714285Y-82952380D02*
X114714285Y-81952380D01*
X115285714Y-82952380D01*
X115285714Y-81952380D01*
X115761904Y-82952380D02*
X115761904Y-81952380D01*
X116000000Y-81952380D01*
X116142857Y-82000000D01*
X116238095Y-82095238D01*
X116285714Y-82190476D01*
X116333333Y-82380952D01*
X116333333Y-82523809D01*
X116285714Y-82714285D01*
X116238095Y-82809523D01*
X116142857Y-82904761D01*
X116000000Y-82952380D01*
X115761904Y-82952380D01*
X114238095Y-94702380D02*
X113761904Y-94702380D01*
X113714285Y-95178571D01*
X113761904Y-95130952D01*
X113857142Y-95083333D01*
X114095238Y-95083333D01*
X114190476Y-95130952D01*
X114238095Y-95178571D01*
X114285714Y-95273809D01*
X114285714Y-95511904D01*
X114238095Y-95607142D01*
X114190476Y-95654761D01*
X114095238Y-95702380D01*
X113857142Y-95702380D01*
X113761904Y-95654761D01*
X113714285Y-95607142D01*
X115285714Y-95607142D02*
X115238095Y-95654761D01*
X115095238Y-95702380D01*
X115000000Y-95702380D01*
X114857142Y-95654761D01*
X114761904Y-95559523D01*
X114714285Y-95464285D01*
X114666666Y-95273809D01*
X114666666Y-95130952D01*
X114714285Y-94940476D01*
X114761904Y-94845238D01*
X114857142Y-94750000D01*
X115000000Y-94702380D01*
X115095238Y-94702380D01*
X115238095Y-94750000D01*
X115285714Y-94797619D01*
X114190476Y-92285714D02*
X114190476Y-92952380D01*
X113952380Y-91904761D02*
X113714285Y-92619047D01*
X114333333Y-92619047D01*
X115285714Y-92857142D02*
X115238095Y-92904761D01*
X115095238Y-92952380D01*
X115000000Y-92952380D01*
X114857142Y-92904761D01*
X114761904Y-92809523D01*
X114714285Y-92714285D01*
X114666666Y-92523809D01*
X114666666Y-92380952D01*
X114714285Y-92190476D01*
X114761904Y-92095238D01*
X114857142Y-92000000D01*
X115000000Y-91952380D01*
X115095238Y-91952380D01*
X115238095Y-92000000D01*
X115285714Y-92047619D01*
X113666666Y-89452380D02*
X114285714Y-89452380D01*
X113952380Y-89833333D01*
X114095238Y-89833333D01*
X114190476Y-89880952D01*
X114238095Y-89928571D01*
X114285714Y-90023809D01*
X114285714Y-90261904D01*
X114238095Y-90357142D01*
X114190476Y-90404761D01*
X114095238Y-90452380D01*
X113809523Y-90452380D01*
X113714285Y-90404761D01*
X113666666Y-90357142D01*
X115285714Y-90357142D02*
X115238095Y-90404761D01*
X115095238Y-90452380D01*
X115000000Y-90452380D01*
X114857142Y-90404761D01*
X114761904Y-90309523D01*
X114714285Y-90214285D01*
X114666666Y-90023809D01*
X114666666Y-89880952D01*
X114714285Y-89690476D01*
X114761904Y-89595238D01*
X114857142Y-89500000D01*
X115000000Y-89452380D01*
X115095238Y-89452380D01*
X115238095Y-89500000D01*
X115285714Y-89547619D01*
X113714285Y-87047619D02*
X113761904Y-87000000D01*
X113857142Y-86952380D01*
X114095238Y-86952380D01*
X114190476Y-87000000D01*
X114238095Y-87047619D01*
X114285714Y-87142857D01*
X114285714Y-87238095D01*
X114238095Y-87380952D01*
X113666666Y-87952380D01*
X114285714Y-87952380D01*
X115285714Y-87857142D02*
X115238095Y-87904761D01*
X115095238Y-87952380D01*
X115000000Y-87952380D01*
X114857142Y-87904761D01*
X114761904Y-87809523D01*
X114714285Y-87714285D01*
X114666666Y-87523809D01*
X114666666Y-87380952D01*
X114714285Y-87190476D01*
X114761904Y-87095238D01*
X114857142Y-87000000D01*
X115000000Y-86952380D01*
X115095238Y-86952380D01*
X115238095Y-87000000D01*
X115285714Y-87047619D01*
X114190476Y-97202380D02*
X114000000Y-97202380D01*
X113904761Y-97250000D01*
X113857142Y-97297619D01*
X113761904Y-97440476D01*
X113714285Y-97630952D01*
X113714285Y-98011904D01*
X113761904Y-98107142D01*
X113809523Y-98154761D01*
X113904761Y-98202380D01*
X114095238Y-98202380D01*
X114190476Y-98154761D01*
X114238095Y-98107142D01*
X114285714Y-98011904D01*
X114285714Y-97773809D01*
X114238095Y-97678571D01*
X114190476Y-97630952D01*
X114095238Y-97583333D01*
X113904761Y-97583333D01*
X113809523Y-97630952D01*
X113761904Y-97678571D01*
X113714285Y-97773809D01*
X115285714Y-98107142D02*
X115238095Y-98154761D01*
X115095238Y-98202380D01*
X115000000Y-98202380D01*
X114857142Y-98154761D01*
X114761904Y-98059523D01*
X114714285Y-97964285D01*
X114666666Y-97773809D01*
X114666666Y-97630952D01*
X114714285Y-97440476D01*
X114761904Y-97345238D01*
X114857142Y-97250000D01*
X115000000Y-97202380D01*
X115095238Y-97202380D01*
X115238095Y-97250000D01*
X115285714Y-97297619D01*
X114285714Y-85452380D02*
X113714285Y-85452380D01*
X114000000Y-85452380D02*
X114000000Y-84452380D01*
X113904761Y-84595238D01*
X113809523Y-84690476D01*
X113714285Y-84738095D01*
X115285714Y-85357142D02*
X115238095Y-85404761D01*
X115095238Y-85452380D01*
X115000000Y-85452380D01*
X114857142Y-85404761D01*
X114761904Y-85309523D01*
X114714285Y-85214285D01*
X114666666Y-85023809D01*
X114666666Y-84880952D01*
X114714285Y-84690476D01*
X114761904Y-84595238D01*
X114857142Y-84500000D01*
X115000000Y-84452380D01*
X115095238Y-84452380D01*
X115238095Y-84500000D01*
X115285714Y-84547619D01*
D12*
G04 #@! TO.C,Q1*
X149950840Y-94150240D02*
X149999100Y-94150240D01*
X152749820Y-93449200D02*
X152749820Y-94150240D01*
X152749820Y-94150240D02*
X152500900Y-94150240D01*
X149950840Y-94150240D02*
X149750180Y-94150240D01*
X149750180Y-94150240D02*
X149750180Y-93449200D01*
G04 #@! TO.C,C1*
X131150000Y-85650000D02*
X130450000Y-85650000D01*
X130450000Y-84450000D02*
X131150000Y-84450000D01*
G04 #@! TO.C,C3*
X128150000Y-85650000D02*
X127450000Y-85650000D01*
X127450000Y-84450000D02*
X128150000Y-84450000D01*
G04 #@! TO.C,C7*
X143400000Y-100900000D02*
X144100000Y-100900000D01*
X144100000Y-102100000D02*
X143400000Y-102100000D01*
G04 #@! TO.C,C9*
X147850000Y-89900000D02*
X147850000Y-90600000D01*
X146650000Y-90600000D02*
X146650000Y-89900000D01*
G04 #@! TO.C,C11*
X139100000Y-81350000D02*
X138400000Y-81350000D01*
X138400000Y-80150000D02*
X139100000Y-80150000D01*
G04 #@! TO.C,C12*
X128900000Y-80150000D02*
X129600000Y-80150000D01*
X129600000Y-81350000D02*
X128900000Y-81350000D01*
G04 #@! TO.C,C13*
X134600000Y-81350000D02*
X133900000Y-81350000D01*
X133900000Y-80150000D02*
X134600000Y-80150000D01*
G04 #@! TO.C,D1*
X150250000Y-84885000D02*
X150250000Y-85385000D01*
X150650000Y-84885000D02*
X150250000Y-84285000D01*
X149850000Y-84885000D02*
X150650000Y-84885000D01*
X150250000Y-84285000D02*
X149850000Y-84885000D01*
X150250000Y-84285000D02*
X150800000Y-84285000D01*
X150250000Y-84285000D02*
X149700000Y-84285000D01*
X150250000Y-83885000D02*
X150250000Y-84285000D01*
X151150000Y-86635000D02*
X151150000Y-83635000D01*
X149350000Y-86635000D02*
X149350000Y-83635000D01*
G04 #@! TO.C,D2*
X157250000Y-100250000D02*
X157250000Y-99750000D01*
X156850000Y-100250000D02*
X157250000Y-100850000D01*
X157650000Y-100250000D02*
X156850000Y-100250000D01*
X157250000Y-100850000D02*
X157650000Y-100250000D01*
X157250000Y-100850000D02*
X156700000Y-100850000D01*
X157250000Y-100850000D02*
X157800000Y-100850000D01*
X157250000Y-101250000D02*
X157250000Y-100850000D01*
X156350000Y-98500000D02*
X156350000Y-101500000D01*
X158150000Y-98500000D02*
X158150000Y-101500000D01*
G04 #@! TO.C,D3*
X115750000Y-84100000D02*
X118750000Y-84100000D01*
X115750000Y-85900000D02*
X118750000Y-85900000D01*
X118500000Y-85000000D02*
X118100000Y-85000000D01*
X118100000Y-85000000D02*
X118100000Y-84450000D01*
X118100000Y-85000000D02*
X118100000Y-85550000D01*
X118100000Y-85000000D02*
X117500000Y-84600000D01*
X117500000Y-84600000D02*
X117500000Y-85400000D01*
X117500000Y-85400000D02*
X118100000Y-85000000D01*
X117500000Y-85000000D02*
X117000000Y-85000000D01*
G04 #@! TO.C,D4*
X117500000Y-87500000D02*
X117000000Y-87500000D01*
X117500000Y-87900000D02*
X118100000Y-87500000D01*
X117500000Y-87100000D02*
X117500000Y-87900000D01*
X118100000Y-87500000D02*
X117500000Y-87100000D01*
X118100000Y-87500000D02*
X118100000Y-88050000D01*
X118100000Y-87500000D02*
X118100000Y-86950000D01*
X118500000Y-87500000D02*
X118100000Y-87500000D01*
X115750000Y-88400000D02*
X118750000Y-88400000D01*
X115750000Y-86600000D02*
X118750000Y-86600000D01*
G04 #@! TO.C,D5*
X115750000Y-89350000D02*
X118750000Y-89350000D01*
X115750000Y-91150000D02*
X118750000Y-91150000D01*
X118500000Y-90250000D02*
X118100000Y-90250000D01*
X118100000Y-90250000D02*
X118100000Y-89700000D01*
X118100000Y-90250000D02*
X118100000Y-90800000D01*
X118100000Y-90250000D02*
X117500000Y-89850000D01*
X117500000Y-89850000D02*
X117500000Y-90650000D01*
X117500000Y-90650000D02*
X118100000Y-90250000D01*
X117500000Y-90250000D02*
X117000000Y-90250000D01*
G04 #@! TO.C,D6*
X117500000Y-92750000D02*
X117000000Y-92750000D01*
X117500000Y-93150000D02*
X118100000Y-92750000D01*
X117500000Y-92350000D02*
X117500000Y-93150000D01*
X118100000Y-92750000D02*
X117500000Y-92350000D01*
X118100000Y-92750000D02*
X118100000Y-93300000D01*
X118100000Y-92750000D02*
X118100000Y-92200000D01*
X118500000Y-92750000D02*
X118100000Y-92750000D01*
X115750000Y-93650000D02*
X118750000Y-93650000D01*
X115750000Y-91850000D02*
X118750000Y-91850000D01*
G04 #@! TO.C,D7*
X115750000Y-94350000D02*
X118750000Y-94350000D01*
X115750000Y-96150000D02*
X118750000Y-96150000D01*
X118500000Y-95250000D02*
X118100000Y-95250000D01*
X118100000Y-95250000D02*
X118100000Y-94700000D01*
X118100000Y-95250000D02*
X118100000Y-95800000D01*
X118100000Y-95250000D02*
X117500000Y-94850000D01*
X117500000Y-94850000D02*
X117500000Y-95650000D01*
X117500000Y-95650000D02*
X118100000Y-95250000D01*
X117500000Y-95250000D02*
X117000000Y-95250000D01*
G04 #@! TO.C,JP1*
X149980000Y-88889000D02*
X152520000Y-88889000D01*
X152520000Y-87111000D02*
X149980000Y-87111000D01*
X152520000Y-87111000D02*
X152520000Y-88889000D01*
X149980000Y-88889000D02*
X149980000Y-87111000D01*
D13*
G04 #@! TO.C,P1*
X153300000Y-94500000D02*
X156800000Y-94500000D01*
X153300000Y-84000000D02*
X153300000Y-94500000D01*
X156800000Y-84000000D02*
X156800000Y-94500000D01*
X156800000Y-84000000D02*
X153300000Y-84000000D01*
D12*
G04 #@! TO.C,R1*
X138750000Y-84575000D02*
X139750000Y-84575000D01*
X139750000Y-85925000D02*
X138750000Y-85925000D01*
G04 #@! TO.C,R2*
X144825000Y-80500000D02*
X144825000Y-79500000D01*
X146175000Y-79500000D02*
X146175000Y-80500000D01*
G04 #@! TO.C,R5*
X143675000Y-79500000D02*
X143675000Y-80500000D01*
X142325000Y-80500000D02*
X142325000Y-79500000D01*
G04 #@! TO.C,R6*
X148250000Y-94425000D02*
X147250000Y-94425000D01*
X147250000Y-93075000D02*
X148250000Y-93075000D01*
G04 #@! TO.C,R14*
X149000000Y-76425000D02*
X148000000Y-76425000D01*
X148000000Y-75075000D02*
X149000000Y-75075000D01*
G04 #@! TO.C,R15*
X149000000Y-80175000D02*
X148000000Y-80175000D01*
X148000000Y-78825000D02*
X149000000Y-78825000D01*
G04 #@! TO.C,SP1*
X149100000Y-103400000D02*
X155400000Y-103400000D01*
X155400000Y-103400000D02*
X155400000Y-95900000D01*
X147900000Y-95900000D02*
X155400000Y-95900000D01*
X147900000Y-95900000D02*
X147900000Y-102200000D01*
X149100000Y-103400000D02*
X147900000Y-102200000D01*
X149700000Y-99200000D02*
X148700000Y-99700000D01*
X149700000Y-100300000D02*
X149700000Y-99200000D01*
X148700000Y-99700000D02*
X149700000Y-100300000D01*
D13*
G04 #@! TO.C,SW1*
X132750000Y-104550000D02*
X138750000Y-104550000D01*
X132750000Y-100950000D02*
X132750000Y-104550000D01*
X138750000Y-100950000D02*
X132750000Y-100950000D01*
X138750000Y-104550000D02*
X138750000Y-100950000D01*
X134250000Y-103550000D02*
X137250000Y-103550000D01*
X134250000Y-101950000D02*
X134250000Y-103550000D01*
X137250000Y-101950000D02*
X134250000Y-101950000D01*
X137250000Y-103550000D02*
X137250000Y-101950000D01*
D12*
G04 #@! TO.C,U1*
X134325000Y-88825000D02*
X134325000Y-89825000D01*
X144675000Y-88825000D02*
X144675000Y-89900000D01*
X144675000Y-99175000D02*
X144675000Y-98100000D01*
X134325000Y-99175000D02*
X134325000Y-98100000D01*
X134325000Y-88825000D02*
X135400000Y-88825000D01*
X134325000Y-99175000D02*
X135400000Y-99175000D01*
X144675000Y-99175000D02*
X143600000Y-99175000D01*
X144675000Y-88825000D02*
X143600000Y-88825000D01*
X134325000Y-89825000D02*
X133300000Y-89825000D01*
G04 #@! TO.C,X1*
X126700000Y-86100000D02*
X131000000Y-86100000D01*
X131950000Y-89500000D02*
X126700000Y-89500000D01*
G04 #@! TO.C,D11*
X131000000Y-98750000D02*
X131000000Y-99250000D01*
X131400000Y-98750000D02*
X131000000Y-98150000D01*
X130600000Y-98750000D02*
X131400000Y-98750000D01*
X131000000Y-98150000D02*
X130600000Y-98750000D01*
X131000000Y-98150000D02*
X131550000Y-98150000D01*
X131000000Y-98150000D02*
X130450000Y-98150000D01*
X131000000Y-97750000D02*
X131000000Y-98150000D01*
X131900000Y-100500000D02*
X131900000Y-97500000D01*
X130100000Y-100500000D02*
X130100000Y-97500000D01*
G04 #@! TO.C,L1*
X122800000Y-106300000D02*
X129700000Y-106300000D01*
X122800000Y-101200000D02*
X129700000Y-101200000D01*
G04 #@! TO.C,R24*
X121675000Y-98250000D02*
X121675000Y-99250000D01*
X120325000Y-99250000D02*
X120325000Y-98250000D01*
G04 #@! TO.C,C14*
X123750000Y-100775000D02*
X125750000Y-100775000D01*
X125750000Y-98725000D02*
X123750000Y-98725000D01*
G04 #@! TO.C,C16*
X120150000Y-94750000D02*
X120150000Y-95750000D01*
X121850000Y-95750000D02*
X121850000Y-94750000D01*
G04 #@! TO.C,U3*
X127825000Y-97575000D02*
X127825000Y-97525000D01*
X123675000Y-97575000D02*
X123675000Y-97430000D01*
X123675000Y-92425000D02*
X123675000Y-92570000D01*
X127825000Y-92425000D02*
X127825000Y-92570000D01*
X127825000Y-97575000D02*
X123675000Y-97575000D01*
X127825000Y-92425000D02*
X123675000Y-92425000D01*
X127825000Y-97525000D02*
X129225000Y-97525000D01*
G04 #@! TO.C,C17*
X118350000Y-74100000D02*
X117650000Y-74100000D01*
X117650000Y-72900000D02*
X118350000Y-72900000D01*
G04 #@! TO.C,R27*
X117575000Y-79250000D02*
X117575000Y-78250000D01*
X118925000Y-78250000D02*
X118925000Y-79250000D01*
G04 #@! TO.C,R28*
X115250000Y-75175000D02*
X114250000Y-75175000D01*
X114250000Y-73825000D02*
X115250000Y-73825000D01*
G04 #@! TO.C,R29*
X114250000Y-75825000D02*
X115250000Y-75825000D01*
X115250000Y-77175000D02*
X114250000Y-77175000D01*
G04 #@! TO.C,R30*
X115250000Y-79175000D02*
X114250000Y-79175000D01*
X114250000Y-77825000D02*
X115250000Y-77825000D01*
G04 #@! TO.C,U4*
X120925000Y-73050000D02*
X120925000Y-73075000D01*
X125075000Y-73050000D02*
X125075000Y-73165000D01*
X125075000Y-81950000D02*
X125075000Y-81835000D01*
X120925000Y-81950000D02*
X120925000Y-81835000D01*
X120925000Y-73050000D02*
X125075000Y-73050000D01*
X120925000Y-81950000D02*
X125075000Y-81950000D01*
X120925000Y-73075000D02*
X119550000Y-73075000D01*
D14*
G04 #@! TO.C,U5*
G36*
X157023742Y-76465705D02*
X157771717Y-76465705D01*
X157771717Y-78865460D01*
X157023742Y-78865460D01*
X157023742Y-79800429D01*
X150759448Y-79800429D01*
X150759448Y-76154049D01*
X151382760Y-76154049D01*
X151382760Y-79177116D01*
X156400429Y-79177116D01*
X156400429Y-78242147D01*
X157148405Y-78242147D01*
X157148405Y-77089018D01*
X156400429Y-77089018D01*
X156400429Y-76154049D01*
X151382760Y-76154049D01*
X150759448Y-76154049D01*
X150759448Y-75530736D01*
X157023742Y-75530736D01*
X157023742Y-76465705D01*
X157023742Y-76465705D01*
G37*
X157023742Y-76465705D02*
X157771717Y-76465705D01*
X157771717Y-78865460D01*
X157023742Y-78865460D01*
X157023742Y-79800429D01*
X150759448Y-79800429D01*
X150759448Y-76154049D01*
X151382760Y-76154049D01*
X151382760Y-79177116D01*
X156400429Y-79177116D01*
X156400429Y-78242147D01*
X157148405Y-78242147D01*
X157148405Y-77089018D01*
X156400429Y-77089018D01*
X156400429Y-76154049D01*
X151382760Y-76154049D01*
X150759448Y-76154049D01*
X150759448Y-75530736D01*
X157023742Y-75530736D01*
X157023742Y-76465705D01*
G36*
X151840586Y-76944707D02*
X151845267Y-76949638D01*
X151882152Y-76991607D01*
X151951971Y-77073237D01*
X152047761Y-77186305D01*
X152162556Y-77322582D01*
X152289394Y-77473843D01*
X152319426Y-77509754D01*
X152472813Y-77693007D01*
X152639069Y-77891208D01*
X152804416Y-78087961D01*
X152955075Y-78266866D01*
X153059206Y-78390184D01*
X153382179Y-78771963D01*
X151787914Y-78771963D01*
X151787914Y-77830068D01*
X151788035Y-77563624D01*
X151788662Y-77353418D01*
X151790193Y-77193354D01*
X151793025Y-77077339D01*
X151797554Y-76999280D01*
X151804178Y-76953081D01*
X151813293Y-76932648D01*
X151825297Y-76931888D01*
X151840586Y-76944707D01*
X151840586Y-76944707D01*
G37*
X151840586Y-76944707D02*
X151845267Y-76949638D01*
X151882152Y-76991607D01*
X151951971Y-77073237D01*
X152047761Y-77186305D01*
X152162556Y-77322582D01*
X152289394Y-77473843D01*
X152319426Y-77509754D01*
X152472813Y-77693007D01*
X152639069Y-77891208D01*
X152804416Y-78087961D01*
X152955075Y-78266866D01*
X153059206Y-78390184D01*
X153382179Y-78771963D01*
X151787914Y-78771963D01*
X151787914Y-77830068D01*
X151788035Y-77563624D01*
X151788662Y-77353418D01*
X151790193Y-77193354D01*
X151793025Y-77077339D01*
X151797554Y-76999280D01*
X151804178Y-76953081D01*
X151813293Y-76932648D01*
X151825297Y-76931888D01*
X151840586Y-76944707D01*
G36*
X154798590Y-77593836D02*
X154983581Y-77814067D01*
X155157741Y-78021585D01*
X155316630Y-78211084D01*
X155455803Y-78377256D01*
X155570818Y-78514796D01*
X155657233Y-78618396D01*
X155710604Y-78682750D01*
X155724838Y-78700216D01*
X155781640Y-78771963D01*
X153941931Y-78771963D01*
X153059708Y-77719364D01*
X152874159Y-77497921D01*
X152699949Y-77289893D01*
X152541383Y-77100430D01*
X152402766Y-76934681D01*
X152288402Y-76797794D01*
X152202597Y-76694918D01*
X152149655Y-76631203D01*
X152134711Y-76612984D01*
X152125573Y-76597575D01*
X152129628Y-76585420D01*
X152153129Y-76576136D01*
X152202329Y-76569338D01*
X152283480Y-76564642D01*
X152402837Y-76561665D01*
X152566650Y-76560022D01*
X152781174Y-76559330D01*
X153010540Y-76559202D01*
X153929143Y-76559202D01*
X154798590Y-77593836D01*
X154798590Y-77593836D01*
G37*
X154798590Y-77593836D02*
X154983581Y-77814067D01*
X155157741Y-78021585D01*
X155316630Y-78211084D01*
X155455803Y-78377256D01*
X155570818Y-78514796D01*
X155657233Y-78618396D01*
X155710604Y-78682750D01*
X155724838Y-78700216D01*
X155781640Y-78771963D01*
X153941931Y-78771963D01*
X153059708Y-77719364D01*
X152874159Y-77497921D01*
X152699949Y-77289893D01*
X152541383Y-77100430D01*
X152402766Y-76934681D01*
X152288402Y-76797794D01*
X152202597Y-76694918D01*
X152149655Y-76631203D01*
X152134711Y-76612984D01*
X152125573Y-76597575D01*
X152129628Y-76585420D01*
X152153129Y-76576136D01*
X152202329Y-76569338D01*
X152283480Y-76564642D01*
X152402837Y-76561665D01*
X152566650Y-76560022D01*
X152781174Y-76559330D01*
X153010540Y-76559202D01*
X153929143Y-76559202D01*
X154798590Y-77593836D01*
G36*
X155787514Y-76564005D02*
X155903192Y-76565301D01*
X155970826Y-76567588D01*
X155984806Y-76569509D01*
X155987489Y-76602412D01*
X155989370Y-76689628D01*
X155990420Y-76823143D01*
X155990609Y-76994944D01*
X155989910Y-77197015D01*
X155988293Y-77421345D01*
X155987978Y-77455543D01*
X155979693Y-78330119D01*
X155243203Y-77452452D01*
X154506714Y-76574785D01*
X155240031Y-76566419D01*
X155447154Y-76564527D01*
X155632575Y-76563734D01*
X155787514Y-76564005D01*
X155787514Y-76564005D01*
G37*
X155787514Y-76564005D02*
X155903192Y-76565301D01*
X155970826Y-76567588D01*
X155984806Y-76569509D01*
X155987489Y-76602412D01*
X155989370Y-76689628D01*
X155990420Y-76823143D01*
X155990609Y-76994944D01*
X155989910Y-77197015D01*
X155988293Y-77421345D01*
X155987978Y-77455543D01*
X155979693Y-78330119D01*
X155243203Y-77452452D01*
X154506714Y-76574785D01*
X155240031Y-76566419D01*
X155447154Y-76564527D01*
X155632575Y-76563734D01*
X155787514Y-76564005D01*
G04 #@! TO.C,Q1*
D12*
X149940476Y-91652380D02*
X149940476Y-90652380D01*
X150511904Y-91652380D01*
X150511904Y-90652380D01*
X150988095Y-91652380D02*
X150988095Y-90652380D01*
X151369047Y-90652380D01*
X151464285Y-90700000D01*
X151511904Y-90747619D01*
X151559523Y-90842857D01*
X151559523Y-90985714D01*
X151511904Y-91080952D01*
X151464285Y-91128571D01*
X151369047Y-91176190D01*
X150988095Y-91176190D01*
X151988095Y-91652380D02*
X151988095Y-90652380D01*
X152559523Y-91652380D01*
X152559523Y-90652380D01*
G04 #@! TO.C,C1*
X132835714Y-84597619D02*
X132883333Y-84550000D01*
X132978571Y-84502380D01*
X133216666Y-84502380D01*
X133311904Y-84550000D01*
X133359523Y-84597619D01*
X133407142Y-84692857D01*
X133407142Y-84788095D01*
X133359523Y-84930952D01*
X132788095Y-85502380D01*
X133407142Y-85502380D01*
X133788095Y-84597619D02*
X133835714Y-84550000D01*
X133930952Y-84502380D01*
X134169047Y-84502380D01*
X134264285Y-84550000D01*
X134311904Y-84597619D01*
X134359523Y-84692857D01*
X134359523Y-84788095D01*
X134311904Y-84930952D01*
X133740476Y-85502380D01*
X134359523Y-85502380D01*
X134788095Y-84835714D02*
X134788095Y-85835714D01*
X134788095Y-84883333D02*
X134883333Y-84835714D01*
X135073809Y-84835714D01*
X135169047Y-84883333D01*
X135216666Y-84930952D01*
X135264285Y-85026190D01*
X135264285Y-85311904D01*
X135216666Y-85407142D01*
X135169047Y-85454761D01*
X135073809Y-85502380D01*
X134883333Y-85502380D01*
X134788095Y-85454761D01*
G04 #@! TO.C,C3*
X123585714Y-84597619D02*
X123633333Y-84550000D01*
X123728571Y-84502380D01*
X123966666Y-84502380D01*
X124061904Y-84550000D01*
X124109523Y-84597619D01*
X124157142Y-84692857D01*
X124157142Y-84788095D01*
X124109523Y-84930952D01*
X123538095Y-85502380D01*
X124157142Y-85502380D01*
X124538095Y-84597619D02*
X124585714Y-84550000D01*
X124680952Y-84502380D01*
X124919047Y-84502380D01*
X125014285Y-84550000D01*
X125061904Y-84597619D01*
X125109523Y-84692857D01*
X125109523Y-84788095D01*
X125061904Y-84930952D01*
X124490476Y-85502380D01*
X125109523Y-85502380D01*
X125538095Y-84835714D02*
X125538095Y-85835714D01*
X125538095Y-84883333D02*
X125633333Y-84835714D01*
X125823809Y-84835714D01*
X125919047Y-84883333D01*
X125966666Y-84930952D01*
X126014285Y-85026190D01*
X126014285Y-85311904D01*
X125966666Y-85407142D01*
X125919047Y-85454761D01*
X125823809Y-85502380D01*
X125633333Y-85502380D01*
X125538095Y-85454761D01*
G04 #@! TO.C,C7*
X142297619Y-102547619D02*
X142345238Y-102500000D01*
X142440476Y-102452380D01*
X142678571Y-102452380D01*
X142773809Y-102500000D01*
X142821428Y-102547619D01*
X142869047Y-102642857D01*
X142869047Y-102738095D01*
X142821428Y-102880952D01*
X142250000Y-103452380D01*
X142869047Y-103452380D01*
X143297619Y-103357142D02*
X143345238Y-103404761D01*
X143297619Y-103452380D01*
X143250000Y-103404761D01*
X143297619Y-103357142D01*
X143297619Y-103452380D01*
X143726190Y-102547619D02*
X143773809Y-102500000D01*
X143869047Y-102452380D01*
X144107142Y-102452380D01*
X144202380Y-102500000D01*
X144250000Y-102547619D01*
X144297619Y-102642857D01*
X144297619Y-102738095D01*
X144250000Y-102880952D01*
X143678571Y-103452380D01*
X144297619Y-103452380D01*
X145154761Y-102785714D02*
X145154761Y-103452380D01*
X144726190Y-102785714D02*
X144726190Y-103309523D01*
X144773809Y-103404761D01*
X144869047Y-103452380D01*
X145011904Y-103452380D01*
X145107142Y-103404761D01*
X145154761Y-103357142D01*
G04 #@! TO.C,C9*
X148297619Y-91702380D02*
X148250000Y-91654761D01*
X148202380Y-91559523D01*
X148202380Y-91321428D01*
X148250000Y-91226190D01*
X148297619Y-91178571D01*
X148392857Y-91130952D01*
X148488095Y-91130952D01*
X148630952Y-91178571D01*
X149202380Y-91750000D01*
X149202380Y-91130952D01*
X149107142Y-90702380D02*
X149154761Y-90654761D01*
X149202380Y-90702380D01*
X149154761Y-90750000D01*
X149107142Y-90702380D01*
X149202380Y-90702380D01*
X148297619Y-90273809D02*
X148250000Y-90226190D01*
X148202380Y-90130952D01*
X148202380Y-89892857D01*
X148250000Y-89797619D01*
X148297619Y-89750000D01*
X148392857Y-89702380D01*
X148488095Y-89702380D01*
X148630952Y-89750000D01*
X149202380Y-90321428D01*
X149202380Y-89702380D01*
X148535714Y-88845238D02*
X149202380Y-88845238D01*
X148535714Y-89273809D02*
X149059523Y-89273809D01*
X149154761Y-89226190D01*
X149202380Y-89130952D01*
X149202380Y-88988095D01*
X149154761Y-88892857D01*
X149107142Y-88845238D01*
G04 #@! TO.C,C11*
X137535714Y-78702380D02*
X137630952Y-78702380D01*
X137726190Y-78750000D01*
X137773809Y-78797619D01*
X137821428Y-78892857D01*
X137869047Y-79083333D01*
X137869047Y-79321428D01*
X137821428Y-79511904D01*
X137773809Y-79607142D01*
X137726190Y-79654761D01*
X137630952Y-79702380D01*
X137535714Y-79702380D01*
X137440476Y-79654761D01*
X137392857Y-79607142D01*
X137345238Y-79511904D01*
X137297619Y-79321428D01*
X137297619Y-79083333D01*
X137345238Y-78892857D01*
X137392857Y-78797619D01*
X137440476Y-78750000D01*
X137535714Y-78702380D01*
X138297619Y-79607142D02*
X138345238Y-79654761D01*
X138297619Y-79702380D01*
X138250000Y-79654761D01*
X138297619Y-79607142D01*
X138297619Y-79702380D01*
X139297619Y-79702380D02*
X138726190Y-79702380D01*
X139011904Y-79702380D02*
X139011904Y-78702380D01*
X138916666Y-78845238D01*
X138821428Y-78940476D01*
X138726190Y-78988095D01*
X140154761Y-79035714D02*
X140154761Y-79702380D01*
X139726190Y-79035714D02*
X139726190Y-79559523D01*
X139773809Y-79654761D01*
X139869047Y-79702380D01*
X140011904Y-79702380D01*
X140107142Y-79654761D01*
X140154761Y-79607142D01*
G04 #@! TO.C,C12*
X129083333Y-79702380D02*
X128511904Y-79702380D01*
X128797619Y-79702380D02*
X128797619Y-78702380D01*
X128702380Y-78845238D01*
X128607142Y-78940476D01*
X128511904Y-78988095D01*
X129940476Y-79035714D02*
X129940476Y-79702380D01*
X129511904Y-79035714D02*
X129511904Y-79559523D01*
X129559523Y-79654761D01*
X129654761Y-79702380D01*
X129797619Y-79702380D01*
X129892857Y-79654761D01*
X129940476Y-79607142D01*
G04 #@! TO.C,C13*
X134083333Y-79702380D02*
X133511904Y-79702380D01*
X133797619Y-79702380D02*
X133797619Y-78702380D01*
X133702380Y-78845238D01*
X133607142Y-78940476D01*
X133511904Y-78988095D01*
X134940476Y-79035714D02*
X134940476Y-79702380D01*
X134511904Y-79035714D02*
X134511904Y-79559523D01*
X134559523Y-79654761D01*
X134654761Y-79702380D01*
X134797619Y-79702380D01*
X134892857Y-79654761D01*
X134940476Y-79607142D01*
G04 #@! TO.C,JP1*
X145190476Y-87452380D02*
X145809523Y-87452380D01*
X145476190Y-87833333D01*
X145619047Y-87833333D01*
X145714285Y-87880952D01*
X145761904Y-87928571D01*
X145809523Y-88023809D01*
X145809523Y-88261904D01*
X145761904Y-88357142D01*
X145714285Y-88404761D01*
X145619047Y-88452380D01*
X145333333Y-88452380D01*
X145238095Y-88404761D01*
X145190476Y-88357142D01*
X146238095Y-88357142D02*
X146285714Y-88404761D01*
X146238095Y-88452380D01*
X146190476Y-88404761D01*
X146238095Y-88357142D01*
X146238095Y-88452380D01*
X146619047Y-87452380D02*
X147238095Y-87452380D01*
X146904761Y-87833333D01*
X147047619Y-87833333D01*
X147142857Y-87880952D01*
X147190476Y-87928571D01*
X147238095Y-88023809D01*
X147238095Y-88261904D01*
X147190476Y-88357142D01*
X147142857Y-88404761D01*
X147047619Y-88452380D01*
X146761904Y-88452380D01*
X146666666Y-88404761D01*
X146619047Y-88357142D01*
X147428571Y-88547619D02*
X148190476Y-88547619D01*
X148714285Y-87452380D02*
X148714285Y-88166666D01*
X148666666Y-88309523D01*
X148571428Y-88404761D01*
X148428571Y-88452380D01*
X148333333Y-88452380D01*
X149190476Y-88452380D02*
X149190476Y-87452380D01*
X149571428Y-87452380D01*
X149666666Y-87500000D01*
X149714285Y-87547619D01*
X149761904Y-87642857D01*
X149761904Y-87785714D01*
X149714285Y-87880952D01*
X149666666Y-87928571D01*
X149571428Y-87976190D01*
X149190476Y-87976190D01*
G04 #@! TO.C,P1*
X158154761Y-90607142D02*
X158202380Y-90464285D01*
X158202380Y-90226190D01*
X158154761Y-90130952D01*
X158107142Y-90083333D01*
X158011904Y-90035714D01*
X157916666Y-90035714D01*
X157821428Y-90083333D01*
X157773809Y-90130952D01*
X157726190Y-90226190D01*
X157678571Y-90416666D01*
X157630952Y-90511904D01*
X157583333Y-90559523D01*
X157488095Y-90607142D01*
X157392857Y-90607142D01*
X157297619Y-90559523D01*
X157250000Y-90511904D01*
X157202380Y-90416666D01*
X157202380Y-90178571D01*
X157250000Y-90035714D01*
X157202380Y-89702380D02*
X158202380Y-89464285D01*
X157488095Y-89273809D01*
X158202380Y-89083333D01*
X157202380Y-88845238D01*
X158202380Y-88464285D02*
X157202380Y-88464285D01*
X157202380Y-88226190D01*
X157250000Y-88083333D01*
X157345238Y-87988095D01*
X157440476Y-87940476D01*
X157630952Y-87892857D01*
X157773809Y-87892857D01*
X157964285Y-87940476D01*
X158059523Y-87988095D01*
X158154761Y-88083333D01*
X158202380Y-88226190D01*
X158202380Y-88464285D01*
G04 #@! TO.C,R1*
X138654761Y-87202380D02*
X138083333Y-87202380D01*
X138369047Y-87202380D02*
X138369047Y-86202380D01*
X138273809Y-86345238D01*
X138178571Y-86440476D01*
X138083333Y-86488095D01*
X139273809Y-86202380D02*
X139369047Y-86202380D01*
X139464285Y-86250000D01*
X139511904Y-86297619D01*
X139559523Y-86392857D01*
X139607142Y-86583333D01*
X139607142Y-86821428D01*
X139559523Y-87011904D01*
X139511904Y-87107142D01*
X139464285Y-87154761D01*
X139369047Y-87202380D01*
X139273809Y-87202380D01*
X139178571Y-87154761D01*
X139130952Y-87107142D01*
X139083333Y-87011904D01*
X139035714Y-86821428D01*
X139035714Y-86583333D01*
X139083333Y-86392857D01*
X139130952Y-86297619D01*
X139178571Y-86250000D01*
X139273809Y-86202380D01*
X140035714Y-87202380D02*
X140035714Y-86202380D01*
X140130952Y-86821428D02*
X140416666Y-87202380D01*
X140416666Y-86535714D02*
X140035714Y-86916666D01*
G04 #@! TO.C,R2*
X145952380Y-77595238D02*
X145952380Y-78166666D01*
X145952380Y-77880952D02*
X144952380Y-77880952D01*
X145095238Y-77976190D01*
X145190476Y-78071428D01*
X145238095Y-78166666D01*
X144952380Y-76976190D02*
X144952380Y-76880952D01*
X145000000Y-76785714D01*
X145047619Y-76738095D01*
X145142857Y-76690476D01*
X145333333Y-76642857D01*
X145571428Y-76642857D01*
X145761904Y-76690476D01*
X145857142Y-76738095D01*
X145904761Y-76785714D01*
X145952380Y-76880952D01*
X145952380Y-76976190D01*
X145904761Y-77071428D01*
X145857142Y-77119047D01*
X145761904Y-77166666D01*
X145571428Y-77214285D01*
X145333333Y-77214285D01*
X145142857Y-77166666D01*
X145047619Y-77119047D01*
X145000000Y-77071428D01*
X144952380Y-76976190D01*
X145952380Y-76214285D02*
X144952380Y-76214285D01*
X145571428Y-76119047D02*
X145952380Y-75833333D01*
X145285714Y-75833333D02*
X145666666Y-76214285D01*
G04 #@! TO.C,R5*
X143452380Y-77595238D02*
X143452380Y-78166666D01*
X143452380Y-77880952D02*
X142452380Y-77880952D01*
X142595238Y-77976190D01*
X142690476Y-78071428D01*
X142738095Y-78166666D01*
X142452380Y-76976190D02*
X142452380Y-76880952D01*
X142500000Y-76785714D01*
X142547619Y-76738095D01*
X142642857Y-76690476D01*
X142833333Y-76642857D01*
X143071428Y-76642857D01*
X143261904Y-76690476D01*
X143357142Y-76738095D01*
X143404761Y-76785714D01*
X143452380Y-76880952D01*
X143452380Y-76976190D01*
X143404761Y-77071428D01*
X143357142Y-77119047D01*
X143261904Y-77166666D01*
X143071428Y-77214285D01*
X142833333Y-77214285D01*
X142642857Y-77166666D01*
X142547619Y-77119047D01*
X142500000Y-77071428D01*
X142452380Y-76976190D01*
X143452380Y-76214285D02*
X142452380Y-76214285D01*
X143071428Y-76119047D02*
X143452380Y-75833333D01*
X142785714Y-75833333D02*
X143166666Y-76214285D01*
G04 #@! TO.C,R6*
X147597619Y-92861904D02*
X147140476Y-92861904D01*
X147369047Y-92861904D02*
X147369047Y-92061904D01*
X147292857Y-92176190D01*
X147216666Y-92252380D01*
X147140476Y-92290476D01*
X148092857Y-92061904D02*
X148169047Y-92061904D01*
X148245238Y-92100000D01*
X148283333Y-92138095D01*
X148321428Y-92214285D01*
X148359523Y-92366666D01*
X148359523Y-92557142D01*
X148321428Y-92709523D01*
X148283333Y-92785714D01*
X148245238Y-92823809D01*
X148169047Y-92861904D01*
X148092857Y-92861904D01*
X148016666Y-92823809D01*
X147978571Y-92785714D01*
X147940476Y-92709523D01*
X147902380Y-92557142D01*
X147902380Y-92366666D01*
X147940476Y-92214285D01*
X147978571Y-92138095D01*
X148016666Y-92100000D01*
X148092857Y-92061904D01*
G04 #@! TO.C,R14*
X147904761Y-77702380D02*
X147333333Y-77702380D01*
X147619047Y-77702380D02*
X147619047Y-76702380D01*
X147523809Y-76845238D01*
X147428571Y-76940476D01*
X147333333Y-76988095D01*
X148523809Y-76702380D02*
X148619047Y-76702380D01*
X148714285Y-76750000D01*
X148761904Y-76797619D01*
X148809523Y-76892857D01*
X148857142Y-77083333D01*
X148857142Y-77321428D01*
X148809523Y-77511904D01*
X148761904Y-77607142D01*
X148714285Y-77654761D01*
X148619047Y-77702380D01*
X148523809Y-77702380D01*
X148428571Y-77654761D01*
X148380952Y-77607142D01*
X148333333Y-77511904D01*
X148285714Y-77321428D01*
X148285714Y-77083333D01*
X148333333Y-76892857D01*
X148380952Y-76797619D01*
X148428571Y-76750000D01*
X148523809Y-76702380D01*
X149285714Y-77702380D02*
X149285714Y-76702380D01*
X149380952Y-77321428D02*
X149666666Y-77702380D01*
X149666666Y-77035714D02*
X149285714Y-77416666D01*
G04 #@! TO.C,R15*
X147904761Y-81452380D02*
X147333333Y-81452380D01*
X147619047Y-81452380D02*
X147619047Y-80452380D01*
X147523809Y-80595238D01*
X147428571Y-80690476D01*
X147333333Y-80738095D01*
X148523809Y-80452380D02*
X148619047Y-80452380D01*
X148714285Y-80500000D01*
X148761904Y-80547619D01*
X148809523Y-80642857D01*
X148857142Y-80833333D01*
X148857142Y-81071428D01*
X148809523Y-81261904D01*
X148761904Y-81357142D01*
X148714285Y-81404761D01*
X148619047Y-81452380D01*
X148523809Y-81452380D01*
X148428571Y-81404761D01*
X148380952Y-81357142D01*
X148333333Y-81261904D01*
X148285714Y-81071428D01*
X148285714Y-80833333D01*
X148333333Y-80642857D01*
X148380952Y-80547619D01*
X148428571Y-80500000D01*
X148523809Y-80452380D01*
X149285714Y-81452380D02*
X149285714Y-80452380D01*
X149380952Y-81071428D02*
X149666666Y-81452380D01*
X149666666Y-80785714D02*
X149285714Y-81166666D01*
G04 #@! TO.C,SP1*
X148880952Y-101404761D02*
X149023809Y-101452380D01*
X149261904Y-101452380D01*
X149357142Y-101404761D01*
X149404761Y-101357142D01*
X149452380Y-101261904D01*
X149452380Y-101166666D01*
X149404761Y-101071428D01*
X149357142Y-101023809D01*
X149261904Y-100976190D01*
X149071428Y-100928571D01*
X148976190Y-100880952D01*
X148928571Y-100833333D01*
X148880952Y-100738095D01*
X148880952Y-100642857D01*
X148928571Y-100547619D01*
X148976190Y-100500000D01*
X149071428Y-100452380D01*
X149309523Y-100452380D01*
X149452380Y-100500000D01*
X149880952Y-101452380D02*
X149880952Y-100452380D01*
X150261904Y-100452380D01*
X150357142Y-100500000D01*
X150404761Y-100547619D01*
X150452380Y-100642857D01*
X150452380Y-100785714D01*
X150404761Y-100880952D01*
X150357142Y-100928571D01*
X150261904Y-100976190D01*
X149880952Y-100976190D01*
X150880952Y-100928571D02*
X151214285Y-100928571D01*
X151357142Y-101452380D02*
X150880952Y-101452380D01*
X150880952Y-100452380D01*
X151357142Y-100452380D01*
X151738095Y-101166666D02*
X152214285Y-101166666D01*
X151642857Y-101452380D02*
X151976190Y-100452380D01*
X152309523Y-101452380D01*
X152642857Y-101452380D02*
X152642857Y-100452380D01*
X153214285Y-101452380D02*
X152785714Y-100880952D01*
X153214285Y-100452380D02*
X152642857Y-101023809D01*
X153642857Y-100928571D02*
X153976190Y-100928571D01*
X154119047Y-101452380D02*
X153642857Y-101452380D01*
X153642857Y-100452380D01*
X154119047Y-100452380D01*
X155119047Y-101452380D02*
X154785714Y-100976190D01*
X154547619Y-101452380D02*
X154547619Y-100452380D01*
X154928571Y-100452380D01*
X155023809Y-100500000D01*
X155071428Y-100547619D01*
X155119047Y-100642857D01*
X155119047Y-100785714D01*
X155071428Y-100880952D01*
X155023809Y-100928571D01*
X154928571Y-100976190D01*
X154547619Y-100976190D01*
G04 #@! TO.C,SW1*
D15*
X134297619Y-106202380D02*
X133964285Y-105726190D01*
X133726190Y-106202380D02*
X133726190Y-105202380D01*
X134107142Y-105202380D01*
X134202380Y-105250000D01*
X134250000Y-105297619D01*
X134297619Y-105392857D01*
X134297619Y-105535714D01*
X134250000Y-105630952D01*
X134202380Y-105678571D01*
X134107142Y-105726190D01*
X133726190Y-105726190D01*
X134726190Y-105678571D02*
X135059523Y-105678571D01*
X135202380Y-106202380D02*
X134726190Y-106202380D01*
X134726190Y-105202380D01*
X135202380Y-105202380D01*
X135583333Y-106154761D02*
X135726190Y-106202380D01*
X135964285Y-106202380D01*
X136059523Y-106154761D01*
X136107142Y-106107142D01*
X136154761Y-106011904D01*
X136154761Y-105916666D01*
X136107142Y-105821428D01*
X136059523Y-105773809D01*
X135964285Y-105726190D01*
X135773809Y-105678571D01*
X135678571Y-105630952D01*
X135630952Y-105583333D01*
X135583333Y-105488095D01*
X135583333Y-105392857D01*
X135630952Y-105297619D01*
X135678571Y-105250000D01*
X135773809Y-105202380D01*
X136011904Y-105202380D01*
X136154761Y-105250000D01*
X136583333Y-105678571D02*
X136916666Y-105678571D01*
X137059523Y-106202380D02*
X136583333Y-106202380D01*
X136583333Y-105202380D01*
X137059523Y-105202380D01*
X137345238Y-105202380D02*
X137916666Y-105202380D01*
X137630952Y-106202380D02*
X137630952Y-105202380D01*
G04 #@! TO.C,U1*
D12*
X135644584Y-90717004D02*
X135711927Y-90851691D01*
X135880286Y-91020049D01*
X135981301Y-91053721D01*
X136048645Y-91053721D01*
X136149660Y-91020049D01*
X136217004Y-90952706D01*
X136250675Y-90851691D01*
X136250675Y-90784347D01*
X136217004Y-90683332D01*
X136115988Y-90514973D01*
X136082317Y-90413958D01*
X136082317Y-90346614D01*
X136115988Y-90245599D01*
X136183332Y-90178256D01*
X136284347Y-90144584D01*
X136351691Y-90144584D01*
X136452706Y-90178256D01*
X136621065Y-90346614D01*
X136688408Y-90481301D01*
X136924111Y-90649660D02*
X137328172Y-91053721D01*
X136419034Y-91558798D02*
X137126141Y-90851691D01*
X136856767Y-91996530D02*
X137563874Y-91289424D01*
X137294500Y-92030202D01*
X138035278Y-91760828D01*
X137328172Y-92467935D01*
X138304652Y-92030202D02*
X138742385Y-92467935D01*
X138237309Y-92501607D01*
X138338324Y-92602622D01*
X138371996Y-92703637D01*
X138371996Y-92770981D01*
X138338324Y-92871996D01*
X138169965Y-93040355D01*
X138068950Y-93074026D01*
X138001607Y-93074026D01*
X137900591Y-93040355D01*
X137698561Y-92838324D01*
X137664889Y-92737309D01*
X137664889Y-92669965D01*
X138944416Y-92804652D02*
X139011759Y-92804652D01*
X139112774Y-92838324D01*
X139281133Y-93006683D01*
X139314805Y-93107698D01*
X139314805Y-93175042D01*
X139281133Y-93276057D01*
X139213790Y-93343400D01*
X139079103Y-93410744D01*
X138270981Y-93410744D01*
X138708713Y-93848477D01*
X139617851Y-94016835D02*
X139382148Y-93781133D01*
X139011759Y-94151522D02*
X139718866Y-93444416D01*
X140055583Y-93781133D01*
X140392301Y-94589255D02*
X139920896Y-95060660D01*
X140493316Y-94151522D02*
X139819881Y-94488240D01*
X140257614Y-94925973D01*
X141133079Y-94858629D02*
X141200423Y-94925973D01*
X141234095Y-95026988D01*
X141234095Y-95094331D01*
X141200423Y-95195347D01*
X141099408Y-95363705D01*
X140931049Y-95532064D01*
X140762690Y-95633079D01*
X140661675Y-95666751D01*
X140594331Y-95666751D01*
X140493316Y-95633079D01*
X140425973Y-95565736D01*
X140392301Y-95464721D01*
X140392301Y-95397377D01*
X140425973Y-95296362D01*
X140526988Y-95128003D01*
X140695347Y-94959644D01*
X140863705Y-94858629D01*
X140964721Y-94824957D01*
X141032064Y-94824957D01*
X141133079Y-94858629D01*
X142008545Y-95734095D02*
X141671827Y-95397377D01*
X141301438Y-95700423D01*
X141368782Y-95700423D01*
X141469797Y-95734095D01*
X141638156Y-95902453D01*
X141671827Y-96003469D01*
X141671827Y-96070812D01*
X141638156Y-96171827D01*
X141469797Y-96340186D01*
X141368782Y-96373858D01*
X141301438Y-96373858D01*
X141200423Y-96340186D01*
X141032064Y-96171827D01*
X140998392Y-96070812D01*
X140998392Y-96003469D01*
X142042217Y-97181980D02*
X142143232Y-96609560D01*
X141638156Y-96777919D02*
X142345263Y-96070812D01*
X142614637Y-96340186D01*
X142648308Y-96441201D01*
X142648308Y-96508545D01*
X142614637Y-96609560D01*
X142513621Y-96710575D01*
X142412606Y-96744247D01*
X142345263Y-96744247D01*
X142244247Y-96710575D01*
X141974873Y-96441201D01*
X143389087Y-97181980D02*
X143355415Y-97080965D01*
X143254400Y-96979950D01*
X143119713Y-96912606D01*
X142985026Y-96912606D01*
X142884011Y-96946278D01*
X142715652Y-97047293D01*
X142614637Y-97148308D01*
X142513621Y-97316667D01*
X142479950Y-97417682D01*
X142479950Y-97552369D01*
X142547293Y-97687056D01*
X142614637Y-97754400D01*
X142749324Y-97821743D01*
X142816667Y-97821743D01*
X143052369Y-97586041D01*
X142917682Y-97451354D01*
G04 #@! TO.C,X1*
X129395238Y-86523809D02*
X129433333Y-86447619D01*
X129471428Y-86409523D01*
X129547619Y-86371428D01*
X129585714Y-86371428D01*
X129661904Y-86409523D01*
X129700000Y-86447619D01*
X129738095Y-86523809D01*
X129738095Y-86676190D01*
X129700000Y-86752380D01*
X129661904Y-86790476D01*
X129585714Y-86828571D01*
X129547619Y-86828571D01*
X129471428Y-86790476D01*
X129433333Y-86752380D01*
X129395238Y-86676190D01*
X129395238Y-86523809D01*
X129357142Y-86447619D01*
X129319047Y-86409523D01*
X129242857Y-86371428D01*
X129090476Y-86371428D01*
X129014285Y-86409523D01*
X128976190Y-86447619D01*
X128938095Y-86523809D01*
X128938095Y-86676190D01*
X128976190Y-86752380D01*
X129014285Y-86790476D01*
X129090476Y-86828571D01*
X129242857Y-86828571D01*
X129319047Y-86790476D01*
X129357142Y-86752380D01*
X129395238Y-86676190D01*
X128938095Y-87171428D02*
X129738095Y-87171428D01*
X129166666Y-87438095D01*
X129738095Y-87704761D01*
X128938095Y-87704761D01*
X128938095Y-88085714D02*
X129738095Y-88085714D01*
X129357142Y-88085714D02*
X129357142Y-88542857D01*
X128938095Y-88542857D02*
X129738095Y-88542857D01*
X129471428Y-88847619D02*
X129471428Y-89266666D01*
X128938095Y-88847619D01*
X128938095Y-89266666D01*
G04 #@! TO.C,L1*
X125797619Y-105488095D02*
X125750000Y-105440476D01*
X125702380Y-105345238D01*
X125702380Y-105107142D01*
X125750000Y-105011904D01*
X125797619Y-104964285D01*
X125892857Y-104916666D01*
X125988095Y-104916666D01*
X126130952Y-104964285D01*
X126702380Y-105535714D01*
X126702380Y-104916666D01*
X125797619Y-104535714D02*
X125750000Y-104488095D01*
X125702380Y-104392857D01*
X125702380Y-104154761D01*
X125750000Y-104059523D01*
X125797619Y-104011904D01*
X125892857Y-103964285D01*
X125988095Y-103964285D01*
X126130952Y-104011904D01*
X126702380Y-104583333D01*
X126702380Y-103964285D01*
X126035714Y-103107142D02*
X126702380Y-103107142D01*
X126035714Y-103535714D02*
X126559523Y-103535714D01*
X126654761Y-103488095D01*
X126702380Y-103392857D01*
X126702380Y-103250000D01*
X126654761Y-103154761D01*
X126607142Y-103107142D01*
X126702380Y-102630952D02*
X125702380Y-102630952D01*
X126178571Y-102630952D02*
X126178571Y-102059523D01*
X126702380Y-102059523D02*
X125702380Y-102059523D01*
G04 #@! TO.C,R24*
X119952380Y-98940476D02*
X119952380Y-99511904D01*
X119952380Y-99226190D02*
X118952380Y-99226190D01*
X119095238Y-99321428D01*
X119190476Y-99416666D01*
X119238095Y-99511904D01*
X118952380Y-98321428D02*
X118952380Y-98226190D01*
X119000000Y-98130952D01*
X119047619Y-98083333D01*
X119142857Y-98035714D01*
X119333333Y-97988095D01*
X119571428Y-97988095D01*
X119761904Y-98035714D01*
X119857142Y-98083333D01*
X119904761Y-98130952D01*
X119952380Y-98226190D01*
X119952380Y-98321428D01*
X119904761Y-98416666D01*
X119857142Y-98464285D01*
X119761904Y-98511904D01*
X119571428Y-98559523D01*
X119333333Y-98559523D01*
X119142857Y-98511904D01*
X119047619Y-98464285D01*
X119000000Y-98416666D01*
X118952380Y-98321428D01*
G04 #@! TO.C,C14*
X127604761Y-100111904D02*
X127147619Y-100111904D01*
X127376190Y-100111904D02*
X127376190Y-99311904D01*
X127300000Y-99426190D01*
X127223809Y-99502380D01*
X127147619Y-99540476D01*
X128100000Y-99311904D02*
X128176190Y-99311904D01*
X128252380Y-99350000D01*
X128290476Y-99388095D01*
X128328571Y-99464285D01*
X128366666Y-99616666D01*
X128366666Y-99807142D01*
X128328571Y-99959523D01*
X128290476Y-100035714D01*
X128252380Y-100073809D01*
X128176190Y-100111904D01*
X128100000Y-100111904D01*
X128023809Y-100073809D01*
X127985714Y-100035714D01*
X127947619Y-99959523D01*
X127909523Y-99807142D01*
X127909523Y-99616666D01*
X127947619Y-99464285D01*
X127985714Y-99388095D01*
X128023809Y-99350000D01*
X128100000Y-99311904D01*
X128861904Y-99311904D02*
X128938095Y-99311904D01*
X129014285Y-99350000D01*
X129052380Y-99388095D01*
X129090476Y-99464285D01*
X129128571Y-99616666D01*
X129128571Y-99807142D01*
X129090476Y-99959523D01*
X129052380Y-100035714D01*
X129014285Y-100073809D01*
X128938095Y-100111904D01*
X128861904Y-100111904D01*
X128785714Y-100073809D01*
X128747619Y-100035714D01*
X128709523Y-99959523D01*
X128671428Y-99807142D01*
X128671428Y-99616666D01*
X128709523Y-99464285D01*
X128747619Y-99388095D01*
X128785714Y-99350000D01*
X128861904Y-99311904D01*
X129814285Y-99578571D02*
X129814285Y-100111904D01*
X129471428Y-99578571D02*
X129471428Y-99997619D01*
X129509523Y-100073809D01*
X129585714Y-100111904D01*
X129700000Y-100111904D01*
X129776190Y-100073809D01*
X129814285Y-100035714D01*
G04 #@! TO.C,C16*
X120547619Y-93214285D02*
X120500000Y-93166666D01*
X120452380Y-93071428D01*
X120452380Y-92833333D01*
X120500000Y-92738095D01*
X120547619Y-92690476D01*
X120642857Y-92642857D01*
X120738095Y-92642857D01*
X120880952Y-92690476D01*
X121452380Y-93261904D01*
X121452380Y-92642857D01*
X120547619Y-92261904D02*
X120500000Y-92214285D01*
X120452380Y-92119047D01*
X120452380Y-91880952D01*
X120500000Y-91785714D01*
X120547619Y-91738095D01*
X120642857Y-91690476D01*
X120738095Y-91690476D01*
X120880952Y-91738095D01*
X121452380Y-92309523D01*
X121452380Y-91690476D01*
X120785714Y-90833333D02*
X121452380Y-90833333D01*
X120785714Y-91261904D02*
X121309523Y-91261904D01*
X121404761Y-91214285D01*
X121452380Y-91119047D01*
X121452380Y-90976190D01*
X121404761Y-90880952D01*
X121357142Y-90833333D01*
G04 #@! TO.C,U3*
X122835714Y-98611904D02*
X122835714Y-97811904D01*
X123102380Y-98383333D01*
X123369047Y-97811904D01*
X123369047Y-98611904D01*
X124207142Y-98535714D02*
X124169047Y-98573809D01*
X124054761Y-98611904D01*
X123978571Y-98611904D01*
X123864285Y-98573809D01*
X123788095Y-98497619D01*
X123750000Y-98421428D01*
X123711904Y-98269047D01*
X123711904Y-98154761D01*
X123750000Y-98002380D01*
X123788095Y-97926190D01*
X123864285Y-97850000D01*
X123978571Y-97811904D01*
X124054761Y-97811904D01*
X124169047Y-97850000D01*
X124207142Y-97888095D01*
X124473809Y-97811904D02*
X124969047Y-97811904D01*
X124702380Y-98116666D01*
X124816666Y-98116666D01*
X124892857Y-98154761D01*
X124930952Y-98192857D01*
X124969047Y-98269047D01*
X124969047Y-98459523D01*
X124930952Y-98535714D01*
X124892857Y-98573809D01*
X124816666Y-98611904D01*
X124588095Y-98611904D01*
X124511904Y-98573809D01*
X124473809Y-98535714D01*
X125235714Y-97811904D02*
X125730952Y-97811904D01*
X125464285Y-98116666D01*
X125578571Y-98116666D01*
X125654761Y-98154761D01*
X125692857Y-98192857D01*
X125730952Y-98269047D01*
X125730952Y-98459523D01*
X125692857Y-98535714D01*
X125654761Y-98573809D01*
X125578571Y-98611904D01*
X125350000Y-98611904D01*
X125273809Y-98573809D01*
X125235714Y-98535714D01*
X126226190Y-97811904D02*
X126302380Y-97811904D01*
X126378571Y-97850000D01*
X126416666Y-97888095D01*
X126454761Y-97964285D01*
X126492857Y-98116666D01*
X126492857Y-98307142D01*
X126454761Y-98459523D01*
X126416666Y-98535714D01*
X126378571Y-98573809D01*
X126302380Y-98611904D01*
X126226190Y-98611904D01*
X126150000Y-98573809D01*
X126111904Y-98535714D01*
X126073809Y-98459523D01*
X126035714Y-98307142D01*
X126035714Y-98116666D01*
X126073809Y-97964285D01*
X126111904Y-97888095D01*
X126150000Y-97850000D01*
X126226190Y-97811904D01*
X127178571Y-97811904D02*
X127026190Y-97811904D01*
X126950000Y-97850000D01*
X126911904Y-97888095D01*
X126835714Y-98002380D01*
X126797619Y-98154761D01*
X126797619Y-98459523D01*
X126835714Y-98535714D01*
X126873809Y-98573809D01*
X126950000Y-98611904D01*
X127102380Y-98611904D01*
X127178571Y-98573809D01*
X127216666Y-98535714D01*
X127254761Y-98459523D01*
X127254761Y-98269047D01*
X127216666Y-98192857D01*
X127178571Y-98154761D01*
X127102380Y-98116666D01*
X126950000Y-98116666D01*
X126873809Y-98154761D01*
X126835714Y-98192857D01*
X126797619Y-98269047D01*
X127521428Y-97811904D02*
X128016666Y-97811904D01*
X127750000Y-98116666D01*
X127864285Y-98116666D01*
X127940476Y-98154761D01*
X127978571Y-98192857D01*
X128016666Y-98269047D01*
X128016666Y-98459523D01*
X127978571Y-98535714D01*
X127940476Y-98573809D01*
X127864285Y-98611904D01*
X127635714Y-98611904D01*
X127559523Y-98573809D01*
X127521428Y-98535714D01*
X128321428Y-98383333D02*
X128702380Y-98383333D01*
X128245238Y-98611904D02*
X128511904Y-97811904D01*
X128778571Y-98611904D01*
G04 #@! TO.C,C17*
X117028571Y-74311904D02*
X117104761Y-74311904D01*
X117180952Y-74350000D01*
X117219047Y-74388095D01*
X117257142Y-74464285D01*
X117295238Y-74616666D01*
X117295238Y-74807142D01*
X117257142Y-74959523D01*
X117219047Y-75035714D01*
X117180952Y-75073809D01*
X117104761Y-75111904D01*
X117028571Y-75111904D01*
X116952380Y-75073809D01*
X116914285Y-75035714D01*
X116876190Y-74959523D01*
X116838095Y-74807142D01*
X116838095Y-74616666D01*
X116876190Y-74464285D01*
X116914285Y-74388095D01*
X116952380Y-74350000D01*
X117028571Y-74311904D01*
X117638095Y-75035714D02*
X117676190Y-75073809D01*
X117638095Y-75111904D01*
X117600000Y-75073809D01*
X117638095Y-75035714D01*
X117638095Y-75111904D01*
X118438095Y-75111904D02*
X117980952Y-75111904D01*
X118209523Y-75111904D02*
X118209523Y-74311904D01*
X118133333Y-74426190D01*
X118057142Y-74502380D01*
X117980952Y-74540476D01*
X119123809Y-74578571D02*
X119123809Y-75111904D01*
X118780952Y-74578571D02*
X118780952Y-74997619D01*
X118819047Y-75073809D01*
X118895238Y-75111904D01*
X119009523Y-75111904D01*
X119085714Y-75073809D01*
X119123809Y-75035714D01*
G04 #@! TO.C,R27*
X118611904Y-81976190D02*
X118611904Y-82433333D01*
X118611904Y-82204761D02*
X117811904Y-82204761D01*
X117926190Y-82280952D01*
X118002380Y-82357142D01*
X118040476Y-82433333D01*
X117811904Y-81480952D02*
X117811904Y-81404761D01*
X117850000Y-81328571D01*
X117888095Y-81290476D01*
X117964285Y-81252380D01*
X118116666Y-81214285D01*
X118307142Y-81214285D01*
X118459523Y-81252380D01*
X118535714Y-81290476D01*
X118573809Y-81328571D01*
X118611904Y-81404761D01*
X118611904Y-81480952D01*
X118573809Y-81557142D01*
X118535714Y-81595238D01*
X118459523Y-81633333D01*
X118307142Y-81671428D01*
X118116666Y-81671428D01*
X117964285Y-81633333D01*
X117888095Y-81595238D01*
X117850000Y-81557142D01*
X117811904Y-81480952D01*
X118611904Y-80871428D02*
X117811904Y-80871428D01*
X118307142Y-80795238D02*
X118611904Y-80566666D01*
X118078571Y-80566666D02*
X118383333Y-80871428D01*
G04 #@! TO.C,R28*
X111428571Y-74061904D02*
X111047619Y-74061904D01*
X111009523Y-74442857D01*
X111047619Y-74404761D01*
X111123809Y-74366666D01*
X111314285Y-74366666D01*
X111390476Y-74404761D01*
X111428571Y-74442857D01*
X111466666Y-74519047D01*
X111466666Y-74709523D01*
X111428571Y-74785714D01*
X111390476Y-74823809D01*
X111314285Y-74861904D01*
X111123809Y-74861904D01*
X111047619Y-74823809D01*
X111009523Y-74785714D01*
X112228571Y-74861904D02*
X111771428Y-74861904D01*
X112000000Y-74861904D02*
X112000000Y-74061904D01*
X111923809Y-74176190D01*
X111847619Y-74252380D01*
X111771428Y-74290476D01*
X112723809Y-74061904D02*
X112800000Y-74061904D01*
X112876190Y-74100000D01*
X112914285Y-74138095D01*
X112952380Y-74214285D01*
X112990476Y-74366666D01*
X112990476Y-74557142D01*
X112952380Y-74709523D01*
X112914285Y-74785714D01*
X112876190Y-74823809D01*
X112800000Y-74861904D01*
X112723809Y-74861904D01*
X112647619Y-74823809D01*
X112609523Y-74785714D01*
X112571428Y-74709523D01*
X112533333Y-74557142D01*
X112533333Y-74366666D01*
X112571428Y-74214285D01*
X112609523Y-74138095D01*
X112647619Y-74100000D01*
X112723809Y-74061904D01*
G04 #@! TO.C,R29*
X111428571Y-76061904D02*
X111047619Y-76061904D01*
X111009523Y-76442857D01*
X111047619Y-76404761D01*
X111123809Y-76366666D01*
X111314285Y-76366666D01*
X111390476Y-76404761D01*
X111428571Y-76442857D01*
X111466666Y-76519047D01*
X111466666Y-76709523D01*
X111428571Y-76785714D01*
X111390476Y-76823809D01*
X111314285Y-76861904D01*
X111123809Y-76861904D01*
X111047619Y-76823809D01*
X111009523Y-76785714D01*
X112228571Y-76861904D02*
X111771428Y-76861904D01*
X112000000Y-76861904D02*
X112000000Y-76061904D01*
X111923809Y-76176190D01*
X111847619Y-76252380D01*
X111771428Y-76290476D01*
X112723809Y-76061904D02*
X112800000Y-76061904D01*
X112876190Y-76100000D01*
X112914285Y-76138095D01*
X112952380Y-76214285D01*
X112990476Y-76366666D01*
X112990476Y-76557142D01*
X112952380Y-76709523D01*
X112914285Y-76785714D01*
X112876190Y-76823809D01*
X112800000Y-76861904D01*
X112723809Y-76861904D01*
X112647619Y-76823809D01*
X112609523Y-76785714D01*
X112571428Y-76709523D01*
X112533333Y-76557142D01*
X112533333Y-76366666D01*
X112571428Y-76214285D01*
X112609523Y-76138095D01*
X112647619Y-76100000D01*
X112723809Y-76061904D01*
G04 #@! TO.C,R30*
X111428571Y-78061904D02*
X111047619Y-78061904D01*
X111009523Y-78442857D01*
X111047619Y-78404761D01*
X111123809Y-78366666D01*
X111314285Y-78366666D01*
X111390476Y-78404761D01*
X111428571Y-78442857D01*
X111466666Y-78519047D01*
X111466666Y-78709523D01*
X111428571Y-78785714D01*
X111390476Y-78823809D01*
X111314285Y-78861904D01*
X111123809Y-78861904D01*
X111047619Y-78823809D01*
X111009523Y-78785714D01*
X112228571Y-78861904D02*
X111771428Y-78861904D01*
X112000000Y-78861904D02*
X112000000Y-78061904D01*
X111923809Y-78176190D01*
X111847619Y-78252380D01*
X111771428Y-78290476D01*
X112723809Y-78061904D02*
X112800000Y-78061904D01*
X112876190Y-78100000D01*
X112914285Y-78138095D01*
X112952380Y-78214285D01*
X112990476Y-78366666D01*
X112990476Y-78557142D01*
X112952380Y-78709523D01*
X112914285Y-78785714D01*
X112876190Y-78823809D01*
X112800000Y-78861904D01*
X112723809Y-78861904D01*
X112647619Y-78823809D01*
X112609523Y-78785714D01*
X112571428Y-78709523D01*
X112533333Y-78557142D01*
X112533333Y-78366666D01*
X112571428Y-78214285D01*
X112609523Y-78138095D01*
X112647619Y-78100000D01*
X112723809Y-78061904D01*
G04 #@! TO.C,U4*
X119333333Y-83327380D02*
X119333333Y-82327380D01*
X119666666Y-83041666D01*
X120000000Y-82327380D01*
X120000000Y-83327380D01*
X121047619Y-83232142D02*
X121000000Y-83279761D01*
X120857142Y-83327380D01*
X120761904Y-83327380D01*
X120619047Y-83279761D01*
X120523809Y-83184523D01*
X120476190Y-83089285D01*
X120428571Y-82898809D01*
X120428571Y-82755952D01*
X120476190Y-82565476D01*
X120523809Y-82470238D01*
X120619047Y-82375000D01*
X120761904Y-82327380D01*
X120857142Y-82327380D01*
X121000000Y-82375000D01*
X121047619Y-82422619D01*
X121476190Y-83327380D02*
X121476190Y-82327380D01*
X121857142Y-82327380D01*
X121952380Y-82375000D01*
X122000000Y-82422619D01*
X122047619Y-82517857D01*
X122047619Y-82660714D01*
X122000000Y-82755952D01*
X121952380Y-82803571D01*
X121857142Y-82851190D01*
X121476190Y-82851190D01*
X122428571Y-82422619D02*
X122476190Y-82375000D01*
X122571428Y-82327380D01*
X122809523Y-82327380D01*
X122904761Y-82375000D01*
X122952380Y-82422619D01*
X123000000Y-82517857D01*
X123000000Y-82613095D01*
X122952380Y-82755952D01*
X122380952Y-83327380D01*
X123000000Y-83327380D01*
X123380952Y-82422619D02*
X123428571Y-82375000D01*
X123523809Y-82327380D01*
X123761904Y-82327380D01*
X123857142Y-82375000D01*
X123904761Y-82422619D01*
X123952380Y-82517857D01*
X123952380Y-82613095D01*
X123904761Y-82755952D01*
X123333333Y-83327380D01*
X123952380Y-83327380D01*
X124333333Y-82422619D02*
X124380952Y-82375000D01*
X124476190Y-82327380D01*
X124714285Y-82327380D01*
X124809523Y-82375000D01*
X124857142Y-82422619D01*
X124904761Y-82517857D01*
X124904761Y-82613095D01*
X124857142Y-82755952D01*
X124285714Y-83327380D01*
X124904761Y-83327380D01*
X125857142Y-83327380D02*
X125285714Y-83327380D01*
X125571428Y-83327380D02*
X125571428Y-82327380D01*
X125476190Y-82470238D01*
X125380952Y-82565476D01*
X125285714Y-82613095D01*
X126238095Y-83041666D02*
X126714285Y-83041666D01*
X126142857Y-83327380D02*
X126476190Y-82327380D01*
X126809523Y-83327380D01*
G04 #@! TD*
M02*
