M48
;DRILL file {KiCad (5.0.2)-1} date 2019/03/26 9:23:50
;FORMAT={-:-/ absolute / metric / decimal}
FMAT,2
METRIC,TZ
T1C0.800
T2C1.000
T3C1.001
T4C1.016
T5C1.500
T6C1.999
T7C3.000
T8C4.500
%
G90
G05
T1
X138.Y-102.5
X138.Y-105.
X195.25Y-97.
X197.75Y-97.
X180.75Y-49.75
X180.75Y-52.29
X188.37Y-49.75
X188.37Y-52.29
X178.88Y-67.71
X178.88Y-70.25
X186.5Y-67.71
X186.5Y-70.25
X180.25Y-58.5
X180.25Y-61.04
X187.87Y-58.5
X187.87Y-61.04
T2
X129.25Y-103.5
X131.75Y-103.5
X196.75Y-80.25
X196.75Y-82.75
X190.75Y-67.75
X190.75Y-70.25
X190.75Y-72.75
X190.75Y-75.25
X188.5Y-39.5
X191.Y-39.5
X196.75Y-87.75
X196.75Y-90.25
X181.Y-39.5
X183.5Y-39.5
X196.75Y-60.25
X196.75Y-62.75
X196.75Y-52.75
X196.75Y-55.25
T3
X189.4Y-55.36
X191.94Y-55.36
X121.85Y-79.95
X124.39Y-79.95
X154.5Y-40.
X154.5Y-42.54
X149.Y-39.96
X149.Y-42.5
X174.75Y-38.21
X174.75Y-40.75
X183.96Y-78.75
X186.5Y-78.75
X137.75Y-97.5
X140.29Y-97.5
T4
X176.25Y-45.75
X176.25Y-48.29
T5
X144.14Y-86.13
X144.14Y-96.29
X144.14Y-101.37
X189.86Y-83.59
X189.86Y-93.75
X189.86Y-103.91
T6
X122.75Y-48.5
T7
X197.25Y-71.5
X197.Y-39.25
X123.Y-39.25
X123.Y-104.
X197.Y-104.
T8
X134.09Y-40.03
X134.09Y-47.03
X168.Y-40.
X168.Y-47.
X127.25Y-84.5
X134.25Y-84.5
X161.Y-40.
X161.Y-47.
X127.25Y-91.5
X134.25Y-91.5
X141.84Y-40.03
X141.84Y-47.03
T2
X128.35Y-59.45G85X128.35Y-65.45
G05
X145.25Y-59.45G85X145.25Y-65.45
G05
X156.3Y-59.4G85X156.3Y-65.4
G05
X173.2Y-59.4G85X173.2Y-65.4
G05
T5
X160.Y-54.G85X169.5Y-54.
G05
X164.75Y-67.G85X164.75Y-76.5
G05
X132.05Y-54.05G85X141.55Y-54.05
G05
X136.8Y-67.05G85X136.8Y-76.55
G05
T0
M30
