G04 #@! TF.GenerationSoftware,KiCad,Pcbnew,(5.0.2)-1*
G04 #@! TF.CreationDate,2019-03-26T09:23:41+09:00*
G04 #@! TF.ProjectId,Power_exp,506f7765-725f-4657-9870-2e6b69636164,rev?*
G04 #@! TF.SameCoordinates,Original*
G04 #@! TF.FileFunction,Profile,NP*
%FSLAX46Y46*%
G04 Gerber Fmt 4.6, Leading zero omitted, Abs format (unit mm)*
G04 Created by KiCad (PCBNEW (5.0.2)-1) date 2019/03/26 9:23:41*
%MOMM*%
%LPD*%
G01*
G04 APERTURE LIST*
%ADD10C,0.200000*%
%ADD11C,0.150000*%
G04 APERTURE END LIST*
D10*
X155700000Y-65500000D02*
X155700000Y-65800000D01*
X155800000Y-59600000D02*
X155800000Y-58900000D01*
X155800000Y-59400000D02*
X155800000Y-65600000D01*
D11*
X127675000Y-58900000D02*
X128700000Y-58900000D01*
X127675000Y-65925000D02*
X127675000Y-58900000D01*
X128700000Y-65925000D02*
X127675000Y-65925000D01*
X128700000Y-58900000D02*
X128700000Y-65925000D01*
X137400000Y-66250000D02*
X135875000Y-66250000D01*
X137400000Y-66625000D02*
X137400000Y-66250000D01*
X137400000Y-77275000D02*
X137400000Y-66625000D01*
X135875000Y-77275000D02*
X137400000Y-77275000D01*
X135875000Y-66250000D02*
X135875000Y-77275000D01*
X144575000Y-59125000D02*
X144575000Y-58900000D01*
X144600000Y-66000000D02*
X144600000Y-59200000D01*
X145600000Y-65925000D02*
X144575000Y-65925000D01*
X145600000Y-58900000D02*
X145600000Y-65925000D01*
X144575000Y-58900000D02*
X145600000Y-58900000D01*
X140950000Y-54775000D02*
X142150000Y-54775000D01*
X131125000Y-54775000D02*
X140950000Y-54775000D01*
X131125000Y-53250000D02*
X131125000Y-54775000D01*
X142150000Y-53250000D02*
X131125000Y-53250000D01*
X142150000Y-54775000D02*
X142150000Y-53250000D01*
X165450000Y-66925000D02*
X165450000Y-66250000D01*
X165450000Y-77275000D02*
X165450000Y-66925000D01*
X163925000Y-77275000D02*
X165450000Y-77275000D01*
X163925000Y-66250000D02*
X163925000Y-77275000D01*
X165450000Y-66250000D02*
X163925000Y-66250000D01*
X156750000Y-65925000D02*
X156750000Y-58900000D01*
X156725000Y-65925000D02*
X156750000Y-65925000D01*
X155725000Y-65925000D02*
X156725000Y-65925000D01*
X156750000Y-58900000D02*
X155725000Y-58900000D01*
X159175000Y-53250000D02*
X170200000Y-53250000D01*
X159175000Y-54775000D02*
X159175000Y-53250000D01*
X170200000Y-54775000D02*
X159175000Y-54775000D01*
X170200000Y-53275000D02*
X170200000Y-54775000D01*
X172625000Y-65925000D02*
X172625000Y-58900000D01*
X173625000Y-65925000D02*
X172625000Y-65925000D01*
X173625000Y-58900000D02*
X173625000Y-65925000D01*
X172625000Y-58900000D02*
X173625000Y-58900000D01*
D10*
X197000000Y-107000000D02*
X123000000Y-107000000D01*
X200000000Y-39250000D02*
X200000000Y-104000000D01*
X120000000Y-104000000D02*
X120000000Y-39250000D01*
X197000000Y-36250000D02*
X123000000Y-36250000D01*
D11*
X120000000Y-104000000D02*
G75*
G03X123000000Y-107000000I3000000J0D01*
G01*
X197000000Y-107000000D02*
G75*
G03X200000000Y-104000000I0J3000000D01*
G01*
X123000000Y-36250000D02*
G75*
G03X120000000Y-39250000I0J-3000000D01*
G01*
X200000000Y-39250000D02*
G75*
G03X197000000Y-36250000I-3000000J0D01*
G01*
M02*
