G04 #@! TF.GenerationSoftware,KiCad,Pcbnew,(5.0.2)-1*
G04 #@! TF.CreationDate,2019-03-26T09:23:41+09:00*
G04 #@! TF.ProjectId,Power_exp,506f7765-725f-4657-9870-2e6b69636164,rev?*
G04 #@! TF.SameCoordinates,Original*
G04 #@! TF.FileFunction,Copper,L2,Bot*
G04 #@! TF.FilePolarity,Positive*
%FSLAX46Y46*%
G04 Gerber Fmt 4.6, Leading zero omitted, Abs format (unit mm)*
G04 Created by KiCad (PCBNEW (5.0.2)-1) date 2019/03/26 9:23:41*
%MOMM*%
%LPD*%
G01*
G04 APERTURE LIST*
G04 #@! TA.AperFunction,ComponentPad*
%ADD10O,1.600000X1.600000*%
G04 #@! TD*
G04 #@! TA.AperFunction,ComponentPad*
%ADD11R,1.300000X1.300000*%
G04 #@! TD*
G04 #@! TA.AperFunction,ComponentPad*
%ADD12C,1.300000*%
G04 #@! TD*
G04 #@! TA.AperFunction,SMDPad,CuDef*
%ADD13R,0.800100X1.800860*%
G04 #@! TD*
G04 #@! TA.AperFunction,ComponentPad*
%ADD14R,2.000000X2.000000*%
G04 #@! TD*
G04 #@! TA.AperFunction,ComponentPad*
%ADD15C,2.000000*%
G04 #@! TD*
G04 #@! TA.AperFunction,ComponentPad*
%ADD16C,6.500000*%
G04 #@! TD*
G04 #@! TA.AperFunction,ComponentPad*
%ADD17O,2.032000X2.032000*%
G04 #@! TD*
G04 #@! TA.AperFunction,ComponentPad*
%ADD18R,2.032000X2.032000*%
G04 #@! TD*
G04 #@! TA.AperFunction,SMDPad,CuDef*
%ADD19R,1.270000X1.400000*%
G04 #@! TD*
G04 #@! TA.AperFunction,SMDPad,CuDef*
%ADD20R,4.800000X4.720000*%
G04 #@! TD*
G04 #@! TA.AperFunction,SMDPad,CuDef*
%ADD21R,0.910000X1.220000*%
G04 #@! TD*
G04 #@! TA.AperFunction,ComponentPad*
%ADD22C,2.500000*%
G04 #@! TD*
G04 #@! TA.AperFunction,SMDPad,CuDef*
%ADD23R,1.200000X1.000000*%
G04 #@! TD*
G04 #@! TA.AperFunction,SMDPad,CuDef*
%ADD24R,1.000000X1.200000*%
G04 #@! TD*
G04 #@! TA.AperFunction,SMDPad,CuDef*
%ADD25C,1.000000*%
G04 #@! TD*
G04 #@! TA.AperFunction,Conductor*
%ADD26C,0.100000*%
G04 #@! TD*
G04 #@! TA.AperFunction,ComponentPad*
%ADD27O,1.500000X2.500000*%
G04 #@! TD*
G04 #@! TA.AperFunction,ComponentPad*
%ADD28O,2.500000X1.500000*%
G04 #@! TD*
G04 #@! TA.AperFunction,ComponentPad*
%ADD29C,3.000000*%
G04 #@! TD*
G04 #@! TA.AperFunction,ComponentPad*
%ADD30C,4.500880*%
G04 #@! TD*
G04 #@! TA.AperFunction,ComponentPad*
%ADD31C,6.000000*%
G04 #@! TD*
G04 #@! TA.AperFunction,ComponentPad*
%ADD32R,3.000000X13.000000*%
G04 #@! TD*
G04 #@! TA.AperFunction,ComponentPad*
%ADD33R,2.000000X9.000000*%
G04 #@! TD*
G04 #@! TA.AperFunction,ComponentPad*
%ADD34R,13.000000X3.000000*%
G04 #@! TD*
G04 #@! TA.AperFunction,Conductor*
%ADD35C,1.000000*%
G04 #@! TD*
G04 #@! TA.AperFunction,Conductor*
%ADD36C,0.500000*%
G04 #@! TD*
G04 #@! TA.AperFunction,Conductor*
%ADD37C,0.250000*%
G04 #@! TD*
G04 #@! TA.AperFunction,Conductor*
%ADD38C,0.254000*%
G04 #@! TD*
G04 APERTURE END LIST*
D10*
G04 #@! TO.P,IC3,1*
G04 #@! TO.N,Net-(IC3-Pad1)*
X180250000Y-58500000D03*
G04 #@! TO.P,IC3,2*
G04 #@! TO.N,Net-(IC3-Pad2)*
X180250000Y-61040000D03*
G04 #@! TO.P,IC3,3*
G04 #@! TO.N,Net-(IC3-Pad3)*
X187870000Y-61040000D03*
G04 #@! TO.P,IC3,4*
G04 #@! TO.N,Net-(D10-Pad2)*
X187870000Y-58500000D03*
G04 #@! TD*
D11*
G04 #@! TO.P,C6,1*
G04 #@! TO.N,+12V*
X195250000Y-97000000D03*
D12*
G04 #@! TO.P,C6,2*
G04 #@! TO.N,GND*
X197750000Y-97000000D03*
G04 #@! TD*
D10*
G04 #@! TO.P,IC2,1*
G04 #@! TO.N,Net-(IC2-Pad1)*
X180750000Y-49750000D03*
G04 #@! TO.P,IC2,2*
G04 #@! TO.N,GNDPWR*
X180750000Y-52290000D03*
G04 #@! TO.P,IC2,3*
G04 #@! TO.N,GND*
X188370000Y-52290000D03*
G04 #@! TO.P,IC2,4*
G04 #@! TO.N,/Relay_state*
X188370000Y-49750000D03*
G04 #@! TD*
D13*
G04 #@! TO.P,Q1,3*
G04 #@! TO.N,/Coil_Out*
X176250000Y-62248860D03*
G04 #@! TO.P,Q1,2*
G04 #@! TO.N,GNDPWR*
X175300000Y-65251140D03*
G04 #@! TO.P,Q1,1*
G04 #@! TO.N,Net-(IC1-Pad3)*
X177200000Y-65251140D03*
G04 #@! TD*
D14*
G04 #@! TO.P,D6,1*
G04 #@! TO.N,Net-(D6-Pad1)*
X149000000Y-42500000D03*
D15*
G04 #@! TO.P,D6,2*
G04 #@! TO.N,GNDPWR*
X149000000Y-39960000D03*
G04 #@! TD*
D16*
G04 #@! TO.P,P10,1*
G04 #@! TO.N,GNDPWR*
X141840000Y-40030000D03*
G04 #@! TO.P,P10,2*
G04 #@! TO.N,/Power_Out*
X141840000Y-47030000D03*
G04 #@! TD*
D15*
G04 #@! TO.P,D2,2*
G04 #@! TO.N,GNDPWR*
X121850000Y-79950000D03*
D14*
G04 #@! TO.P,D2,1*
G04 #@! TO.N,Net-(D2-Pad1)*
X124390000Y-79950000D03*
G04 #@! TD*
G04 #@! TO.P,D3,1*
G04 #@! TO.N,Net-(D3-Pad1)*
X137750000Y-97500000D03*
D15*
G04 #@! TO.P,D3,2*
G04 #@! TO.N,GNDPWR*
X140290000Y-97500000D03*
G04 #@! TD*
D14*
G04 #@! TO.P,D4,1*
G04 #@! TO.N,Net-(D4-Pad1)*
X186500000Y-78750000D03*
D15*
G04 #@! TO.P,D4,2*
G04 #@! TO.N,GND*
X183960000Y-78750000D03*
G04 #@! TD*
G04 #@! TO.P,D5,2*
G04 #@! TO.N,GNDPWR*
X174750000Y-38210000D03*
D14*
G04 #@! TO.P,D5,1*
G04 #@! TO.N,Net-(D5-Pad1)*
X174750000Y-40750000D03*
G04 #@! TD*
G04 #@! TO.P,D7,1*
G04 #@! TO.N,Net-(D7-Pad1)*
X154500000Y-42540000D03*
D15*
G04 #@! TO.P,D7,2*
G04 #@! TO.N,GNDPWR*
X154500000Y-40000000D03*
G04 #@! TD*
D10*
G04 #@! TO.P,IC1,1*
G04 #@! TO.N,Net-(IC1-Pad1)*
X186500000Y-70250000D03*
G04 #@! TO.P,IC1,2*
G04 #@! TO.N,GND*
X186500000Y-67710000D03*
G04 #@! TO.P,IC1,3*
G04 #@! TO.N,Net-(IC1-Pad3)*
X178880000Y-67710000D03*
G04 #@! TO.P,IC1,4*
G04 #@! TO.N,Net-(IC1-Pad4)*
X178880000Y-70250000D03*
G04 #@! TD*
D16*
G04 #@! TO.P,P6,2*
G04 #@! TO.N,+BATT*
X134250000Y-91500000D03*
G04 #@! TO.P,P6,1*
G04 #@! TO.N,GNDPWR*
X127250000Y-91500000D03*
G04 #@! TD*
D17*
G04 #@! TO.P,JP1,2*
G04 #@! TO.N,/Coil_Out*
X176250000Y-48290000D03*
D18*
G04 #@! TO.P,JP1,1*
G04 #@! TO.N,Net-(IC3-Pad1)*
X176250000Y-45750000D03*
G04 #@! TD*
D16*
G04 #@! TO.P,P11,1*
G04 #@! TO.N,GNDPWR*
X161000000Y-40000000D03*
G04 #@! TO.P,P11,2*
G04 #@! TO.N,/Fun_Out*
X161000000Y-47000000D03*
G04 #@! TD*
D19*
G04 #@! TO.P,D1,1*
G04 #@! TO.N,+BATT*
X132515000Y-98790000D03*
D20*
G04 #@! TO.P,D1,3*
G04 #@! TO.N,Net-(D1-Pad3)*
X128710000Y-97750000D03*
D19*
G04 #@! TO.P,D1,2*
G04 #@! TO.N,+BATT*
X132515000Y-96710000D03*
G04 #@! TD*
D21*
G04 #@! TO.P,D8,1*
G04 #@! TO.N,Net-(D8-Pad1)*
X140135000Y-62500000D03*
G04 #@! TO.P,D8,2*
G04 #@! TO.N,/Coil*
X136865000Y-62500000D03*
G04 #@! TD*
G04 #@! TO.P,D9,2*
G04 #@! TO.N,Net-(D8-Pad1)*
X163115000Y-62500000D03*
G04 #@! TO.P,D9,1*
G04 #@! TO.N,/Coil_Out*
X166385000Y-62500000D03*
G04 #@! TD*
D16*
G04 #@! TO.P,P12,1*
G04 #@! TO.N,GNDPWR*
X127250000Y-84500000D03*
G04 #@! TO.P,P12,2*
G04 #@! TO.N,+BATT*
X134250000Y-84500000D03*
G04 #@! TD*
G04 #@! TO.P,P13,1*
G04 #@! TO.N,GNDPWR*
X134090000Y-40030000D03*
G04 #@! TO.P,P13,2*
G04 #@! TO.N,/Power_Out*
X134090000Y-47030000D03*
G04 #@! TD*
G04 #@! TO.P,P14,2*
G04 #@! TO.N,/Fun_Out*
X168000000Y-47000000D03*
G04 #@! TO.P,P14,1*
G04 #@! TO.N,GNDPWR*
X168000000Y-40000000D03*
G04 #@! TD*
D22*
G04 #@! TO.P,U1,1*
G04 #@! TO.N,/24v*
X144140000Y-101370000D03*
G04 #@! TO.P,U1,2*
G04 #@! TO.N,GNDPWR*
X144140000Y-96290000D03*
G04 #@! TO.P,U1,3*
G04 #@! TO.N,/24v*
X144140000Y-86130000D03*
G04 #@! TO.P,U1,6*
G04 #@! TO.N,+12V*
X189860000Y-103910000D03*
G04 #@! TO.P,U1,5*
G04 #@! TO.N,GND*
X189860000Y-93750000D03*
G04 #@! TO.P,U1,4*
G04 #@! TO.N,Net-(U1-Pad4)*
X189860000Y-83590000D03*
G04 #@! TD*
D23*
G04 #@! TO.P,C1,2*
G04 #@! TO.N,GND*
X194500000Y-88070000D03*
G04 #@! TO.P,C1,1*
G04 #@! TO.N,+12V*
X194500000Y-89950000D03*
G04 #@! TD*
G04 #@! TO.P,C2,1*
G04 #@! TO.N,+12V*
X194500000Y-82450000D03*
G04 #@! TO.P,C2,2*
G04 #@! TO.N,GND*
X194500000Y-80570000D03*
G04 #@! TD*
D24*
G04 #@! TO.P,R1,1*
G04 #@! TO.N,/24v*
X182280000Y-70250000D03*
G04 #@! TO.P,R1,2*
G04 #@! TO.N,Net-(IC1-Pad4)*
X180720000Y-70250000D03*
G04 #@! TD*
D23*
G04 #@! TO.P,R2,1*
G04 #@! TO.N,Net-(IC2-Pad1)*
X180750000Y-45030000D03*
G04 #@! TO.P,R2,2*
G04 #@! TO.N,/Coil*
X180750000Y-43470000D03*
G04 #@! TD*
D24*
G04 #@! TO.P,R3,2*
G04 #@! TO.N,GNDPWR*
X175220000Y-67750000D03*
G04 #@! TO.P,R3,1*
G04 #@! TO.N,Net-(IC1-Pad3)*
X176780000Y-67750000D03*
G04 #@! TD*
G04 #@! TO.P,R4,2*
G04 #@! TO.N,Net-(IC1-Pad1)*
X187470000Y-71250000D03*
G04 #@! TO.P,R4,1*
G04 #@! TO.N,/Forced_shutdown*
X189030000Y-71250000D03*
G04 #@! TD*
G04 #@! TO.P,R5,1*
G04 #@! TO.N,/Relay_state*
X185470000Y-52500000D03*
G04 #@! TO.P,R5,2*
G04 #@! TO.N,GND*
X187030000Y-52500000D03*
G04 #@! TD*
D23*
G04 #@! TO.P,R6,2*
G04 #@! TO.N,/Relay_state*
X193500000Y-68220000D03*
G04 #@! TO.P,R6,1*
G04 #@! TO.N,+12V*
X193500000Y-69780000D03*
G04 #@! TD*
D25*
G04 #@! TO.P,R7,2*
G04 #@! TO.N,Net-(D2-Pad1)*
X130098457Y-79948457D03*
D26*
G04 #@! TD*
G04 #@! TO.N,Net-(D2-Pad1)*
G04 #@! TO.C,R7*
G36*
X130876274Y-79877746D02*
X130027746Y-80726274D01*
X129320640Y-80019168D01*
X130169168Y-79170640D01*
X130876274Y-79877746D01*
X130876274Y-79877746D01*
G37*
D25*
G04 #@! TO.P,R7,1*
G04 #@! TO.N,+BATT*
X131201543Y-81051543D03*
D26*
G04 #@! TD*
G04 #@! TO.N,+BATT*
G04 #@! TO.C,R7*
G36*
X131979360Y-80980832D02*
X131130832Y-81829360D01*
X130423726Y-81122254D01*
X131272254Y-80273726D01*
X131979360Y-80980832D01*
X131979360Y-80980832D01*
G37*
D24*
G04 #@! TO.P,R8,1*
G04 #@! TO.N,/24v*
X140280000Y-99750000D03*
G04 #@! TO.P,R8,2*
G04 #@! TO.N,Net-(D3-Pad1)*
X138720000Y-99750000D03*
G04 #@! TD*
G04 #@! TO.P,R9,2*
G04 #@! TO.N,Net-(D4-Pad1)*
X188720000Y-78750000D03*
G04 #@! TO.P,R9,1*
G04 #@! TO.N,+12V*
X190280000Y-78750000D03*
G04 #@! TD*
G04 #@! TO.P,R10,1*
G04 #@! TO.N,/Coil*
X178780000Y-39500000D03*
G04 #@! TO.P,R10,2*
G04 #@! TO.N,Net-(D5-Pad1)*
X177220000Y-39500000D03*
G04 #@! TD*
G04 #@! TO.P,R11,1*
G04 #@! TO.N,/Power_Out*
X145220000Y-44750000D03*
G04 #@! TO.P,R11,2*
G04 #@! TO.N,Net-(D6-Pad1)*
X146780000Y-44750000D03*
G04 #@! TD*
G04 #@! TO.P,R12,2*
G04 #@! TO.N,Net-(D7-Pad1)*
X155970000Y-44500000D03*
G04 #@! TO.P,R12,1*
G04 #@! TO.N,/Fun_Out*
X157530000Y-44500000D03*
G04 #@! TD*
D12*
G04 #@! TO.P,C3,2*
G04 #@! TO.N,GNDPWR*
X138000000Y-105000000D03*
D11*
G04 #@! TO.P,C3,1*
G04 #@! TO.N,/24v*
X138000000Y-102500000D03*
G04 #@! TD*
D24*
G04 #@! TO.P,C4,1*
G04 #@! TO.N,GND*
X194950000Y-72750000D03*
G04 #@! TO.P,C4,2*
G04 #@! TO.N,+12V*
X193070000Y-72750000D03*
G04 #@! TD*
D27*
G04 #@! TO.P,P1,1*
G04 #@! TO.N,Net-(P1-Pad1)*
X188500000Y-39500000D03*
G04 #@! TO.P,P1,2*
G04 #@! TO.N,/24v*
X191000000Y-39500000D03*
G04 #@! TD*
G04 #@! TO.P,P2,2*
G04 #@! TO.N,Net-(P1-Pad1)*
X183500000Y-39500000D03*
G04 #@! TO.P,P2,1*
G04 #@! TO.N,/Coil*
X181000000Y-39500000D03*
G04 #@! TD*
G04 #@! TO.P,P3,2*
G04 #@! TO.N,/24v*
X131750000Y-103500000D03*
G04 #@! TO.P,P3,1*
G04 #@! TO.N,Net-(D1-Pad3)*
X129250000Y-103500000D03*
G04 #@! TD*
D28*
G04 #@! TO.P,P4,2*
G04 #@! TO.N,+12V*
X196750000Y-82750000D03*
G04 #@! TO.P,P4,1*
G04 #@! TO.N,GND*
X196750000Y-80250000D03*
G04 #@! TD*
G04 #@! TO.P,P5,1*
G04 #@! TO.N,GND*
X196750000Y-87750000D03*
G04 #@! TO.P,P5,2*
G04 #@! TO.N,+12V*
X196750000Y-90250000D03*
G04 #@! TD*
G04 #@! TO.P,P8,1*
G04 #@! TO.N,GND*
X190750000Y-75250000D03*
G04 #@! TO.P,P8,2*
G04 #@! TO.N,+12V*
X190750000Y-72750000D03*
G04 #@! TO.P,P8,3*
G04 #@! TO.N,/Forced_shutdown*
X190750000Y-70250000D03*
G04 #@! TO.P,P8,4*
G04 #@! TO.N,/Relay_state*
X190750000Y-67750000D03*
D29*
G04 #@! TO.P,P8,*
G04 #@! TO.N,*
X197250000Y-71500000D03*
G04 #@! TD*
D24*
G04 #@! TO.P,C5,2*
G04 #@! TO.N,GND*
X196930000Y-64750000D03*
G04 #@! TO.P,C5,1*
G04 #@! TO.N,+12V*
X195050000Y-64750000D03*
G04 #@! TD*
D23*
G04 #@! TO.P,C7,1*
G04 #@! TO.N,+12V*
X194500000Y-55450000D03*
G04 #@! TO.P,C7,2*
G04 #@! TO.N,GND*
X194500000Y-53570000D03*
G04 #@! TD*
D30*
G04 #@! TO.P,P7,1*
G04 #@! TO.N,GNDPWR*
X122750000Y-48500000D03*
G04 #@! TD*
D28*
G04 #@! TO.P,P9,2*
G04 #@! TO.N,+12V*
X196750000Y-62750000D03*
G04 #@! TO.P,P9,1*
G04 #@! TO.N,GND*
X196750000Y-60250000D03*
G04 #@! TD*
G04 #@! TO.P,P15,1*
G04 #@! TO.N,GND*
X196750000Y-52750000D03*
G04 #@! TO.P,P15,2*
G04 #@! TO.N,+12V*
X196750000Y-55250000D03*
G04 #@! TD*
D31*
G04 #@! TO.P,REF\002A\002A,*
G04 #@! TO.N,*
X123000000Y-104000000D03*
G04 #@! TD*
G04 #@! TO.P,REF\002A\002A,*
G04 #@! TO.N,*
X197000000Y-104000000D03*
G04 #@! TD*
G04 #@! TO.P,REF\002A\002A,*
G04 #@! TO.N,*
X197000000Y-39250000D03*
G04 #@! TD*
G04 #@! TO.P,REF\002A\002A,*
G04 #@! TO.N,*
X123000000Y-39250000D03*
G04 #@! TD*
D14*
G04 #@! TO.P,D10,1*
G04 #@! TO.N,+12V*
X191940000Y-55360000D03*
D15*
G04 #@! TO.P,D10,2*
G04 #@! TO.N,Net-(D10-Pad2)*
X189400000Y-55360000D03*
G04 #@! TD*
D24*
G04 #@! TO.P,R13,2*
G04 #@! TO.N,GND*
X190830000Y-61020000D03*
G04 #@! TO.P,R13,1*
G04 #@! TO.N,Net-(IC3-Pad3)*
X189270000Y-61020000D03*
G04 #@! TD*
D23*
G04 #@! TO.P,R14,1*
G04 #@! TO.N,Net-(IC3-Pad2)*
X179750000Y-62720000D03*
G04 #@! TO.P,R14,2*
G04 #@! TO.N,GNDPWR*
X179750000Y-64280000D03*
G04 #@! TD*
D32*
G04 #@! TO.P,U2,30*
G04 #@! TO.N,+BATT*
X136800000Y-71800000D03*
D33*
G04 #@! TO.P,U2,86*
G04 #@! TO.N,/Coil*
X128350000Y-62450000D03*
G04 #@! TO.P,U2,85*
G04 #@! TO.N,Net-(D8-Pad1)*
X145250000Y-62450000D03*
D34*
G04 #@! TO.P,U2,87*
G04 #@! TO.N,/Power_Out*
X136800000Y-54050000D03*
G04 #@! TD*
G04 #@! TO.P,U3,87*
G04 #@! TO.N,/Fun_Out*
X164750000Y-54000000D03*
D33*
G04 #@! TO.P,U3,85*
G04 #@! TO.N,/Coil_Out*
X173200000Y-62400000D03*
G04 #@! TO.P,U3,86*
G04 #@! TO.N,Net-(D8-Pad1)*
X156300000Y-62400000D03*
D32*
G04 #@! TO.P,U3,30*
G04 #@! TO.N,+BATT*
X164750000Y-71750000D03*
G04 #@! TD*
D35*
G04 #@! TO.N,+12V*
X196450000Y-82450000D02*
X196750000Y-82750000D01*
X194500000Y-82450000D02*
X196450000Y-82450000D01*
X196450000Y-89950000D02*
X196750000Y-90250000D01*
X194500000Y-89950000D02*
X196450000Y-89950000D01*
X192510000Y-101760000D02*
X189860000Y-104410000D01*
X195250000Y-97000000D02*
X192510000Y-99740000D01*
X192510000Y-99740000D02*
X192510000Y-101760000D01*
X192510000Y-99740000D02*
X192510000Y-91940000D01*
X192510000Y-91940000D02*
X194500000Y-89950000D01*
X192510000Y-91940000D02*
X192510000Y-84240000D01*
X194400000Y-82450000D02*
X194500000Y-82450000D01*
X192610000Y-84240000D02*
X194400000Y-82450000D01*
X192510000Y-84240000D02*
X192610000Y-84240000D01*
X192510000Y-83830000D02*
X192500000Y-83820000D01*
X192510000Y-84240000D02*
X192510000Y-83830000D01*
X192500000Y-83820000D02*
X192500000Y-81340000D01*
X190280000Y-78850000D02*
X190280000Y-78750000D01*
X192500000Y-81070000D02*
X190280000Y-78850000D01*
X192500000Y-81340000D02*
X192500000Y-81070000D01*
X192500000Y-81340000D02*
X192500000Y-78240000D01*
X193070000Y-77670000D02*
X192500000Y-78240000D01*
X193070000Y-72750000D02*
X193070000Y-77670000D01*
X193070000Y-72750000D02*
X190750000Y-72750000D01*
X193070000Y-72750000D02*
X193070000Y-71800000D01*
X193500000Y-71370000D02*
X193500000Y-69780000D01*
X193070000Y-71800000D02*
X193500000Y-71370000D01*
X195050000Y-66350000D02*
X195050000Y-64750000D01*
X195050000Y-69030002D02*
X195050000Y-66350000D01*
X194300002Y-69780000D02*
X195050000Y-69030002D01*
X193500000Y-69780000D02*
X194300002Y-69780000D01*
X191940000Y-55360000D02*
X192480000Y-55360000D01*
X195050000Y-64450000D02*
X196750000Y-62750000D01*
X195050000Y-64750000D02*
X195050000Y-64450000D01*
X195050000Y-64750000D02*
X194500000Y-64200000D01*
X194500000Y-59920000D02*
X194500000Y-63250000D01*
X191940000Y-57360000D02*
X194500000Y-59920000D01*
X191940000Y-55360000D02*
X191940000Y-57360000D01*
X194500000Y-64200000D02*
X194500000Y-63250000D01*
X194500000Y-63250000D02*
X194500000Y-55450000D01*
X194700000Y-55250000D02*
X194500000Y-55450000D01*
X196750000Y-55250000D02*
X194700000Y-55250000D01*
G04 #@! TO.N,+BATT*
X132515000Y-96710000D02*
X132515000Y-98790000D01*
X132515000Y-93235000D02*
X134250000Y-91500000D01*
X132515000Y-96710000D02*
X132515000Y-93235000D01*
D36*
G04 #@! TO.N,GNDPWR*
X175300000Y-65251140D02*
X175300000Y-64940000D01*
X175300000Y-64940000D02*
X176530000Y-63710000D01*
D37*
X178100000Y-63710000D02*
X178370000Y-63710000D01*
D36*
X177300000Y-63710000D02*
X177760000Y-63710000D01*
X177300000Y-63710000D02*
X178100000Y-63710000D01*
X176530000Y-63710000D02*
X177300000Y-63710000D01*
X178330000Y-64280000D02*
X179750000Y-64280000D01*
X177760000Y-63710000D02*
X178330000Y-64280000D01*
G04 #@! TO.N,Net-(D2-Pad1)*
X130096914Y-79950000D02*
X130098457Y-79948457D01*
X124390000Y-79950000D02*
X130096914Y-79950000D01*
D35*
G04 #@! TO.N,Net-(D3-Pad1)*
X138720000Y-98470000D02*
X137750000Y-97500000D01*
X138720000Y-99750000D02*
X138720000Y-98470000D01*
G04 #@! TO.N,Net-(D4-Pad1)*
X188720000Y-78750000D02*
X186500000Y-78750000D01*
G04 #@! TO.N,Net-(D5-Pad1)*
X175970000Y-40750000D02*
X177220000Y-39500000D01*
X174750000Y-40750000D02*
X175970000Y-40750000D01*
G04 #@! TO.N,Net-(D6-Pad1)*
X146780000Y-44720000D02*
X149000000Y-42500000D01*
X146780000Y-44750000D02*
X146780000Y-44720000D01*
G04 #@! TO.N,Net-(D7-Pad1)*
X155970000Y-44500000D02*
X155330000Y-44500000D01*
X154500000Y-43670000D02*
X154500000Y-42540000D01*
X155330000Y-44500000D02*
X154500000Y-43670000D01*
G04 #@! TO.N,Net-(IC1-Pad4)*
X178880000Y-70250000D02*
X180720000Y-70250000D01*
G04 #@! TO.N,Net-(IC1-Pad3)*
X176820000Y-67710000D02*
X176780000Y-67750000D01*
X178880000Y-67710000D02*
X176820000Y-67710000D01*
X176780000Y-65671140D02*
X177200000Y-65251140D01*
X176780000Y-67750000D02*
X176780000Y-65671140D01*
G04 #@! TO.N,Net-(IC1-Pad1)*
X186720000Y-70470000D02*
X186500000Y-70250000D01*
X187470000Y-71220000D02*
X186500000Y-70250000D01*
X187470000Y-71250000D02*
X187470000Y-71220000D01*
G04 #@! TO.N,Net-(IC2-Pad1)*
X180750000Y-45030000D02*
X180750000Y-49750000D01*
G04 #@! TO.N,/Relay_state*
X190750000Y-67750000D02*
X192970000Y-67750000D01*
X187238630Y-49750000D02*
X188370000Y-49750000D01*
X186620000Y-49750000D02*
X187238630Y-49750000D01*
X185470000Y-50900000D02*
X186620000Y-49750000D01*
X185470000Y-52500000D02*
X185470000Y-50900000D01*
X190250000Y-67750000D02*
X190750000Y-67750000D01*
X184950000Y-62450000D02*
X190250000Y-67750000D01*
X184950000Y-55200000D02*
X184950000Y-62450000D01*
X185470000Y-54680000D02*
X184950000Y-55200000D01*
X185470000Y-52500000D02*
X185470000Y-54680000D01*
G04 #@! TO.N,/24v*
X137000000Y-103500000D02*
X138000000Y-102500000D01*
X131750000Y-103500000D02*
X137000000Y-103500000D01*
X143510000Y-102500000D02*
X144140000Y-101870000D01*
X139130000Y-102500000D02*
X139120000Y-102500000D01*
X140280000Y-101350000D02*
X139130000Y-102500000D01*
X140280000Y-99750000D02*
X140280000Y-101350000D01*
X138000000Y-102500000D02*
X139120000Y-102500000D01*
X139120000Y-102500000D02*
X143510000Y-102500000D01*
X182280000Y-71850000D02*
X182280000Y-70250000D01*
X172430000Y-81700000D02*
X182280000Y-71850000D01*
X172430000Y-86950000D02*
X172430000Y-81700000D01*
X158759999Y-100620001D02*
X172430000Y-86950000D01*
X144140000Y-101870000D02*
X145389999Y-100620001D01*
X191000000Y-40000000D02*
X191000000Y-39500000D01*
X182280000Y-70250000D02*
X182280000Y-66700000D01*
X182280000Y-66700000D02*
X182850000Y-66130000D01*
X182850000Y-66130000D02*
X182880000Y-66130000D01*
X182880000Y-66130000D02*
X183520000Y-65490000D01*
X183520000Y-65490000D02*
X183520000Y-47480000D01*
X183520000Y-47480000D02*
X191000000Y-40000000D01*
X145389999Y-100620001D02*
X145449999Y-100620001D01*
X144140000Y-93510001D02*
X151250000Y-100620001D01*
X144140000Y-86130000D02*
X144140000Y-93510001D01*
X145389999Y-100620001D02*
X151250000Y-100620001D01*
X151250000Y-100620001D02*
X158759999Y-100620001D01*
G04 #@! TO.N,Net-(P1-Pad1)*
X188500000Y-39500000D02*
X183500000Y-39500000D01*
G04 #@! TO.N,/Coil*
X136780001Y-62415001D02*
X136865000Y-62500000D01*
X128185001Y-62415001D02*
X131920000Y-62415001D01*
X133920000Y-62415001D02*
X136780001Y-62415001D01*
X181000000Y-39500000D02*
X178780000Y-39500000D01*
X131920000Y-62415001D02*
X133920000Y-62415001D01*
X139405001Y-56930000D02*
X133920000Y-62415001D01*
X178780000Y-39500000D02*
X178780000Y-40970000D01*
X178780000Y-40970000D02*
X176350000Y-43400000D01*
X171780000Y-56930000D02*
X139405001Y-56930000D01*
X176350000Y-43400000D02*
X174350000Y-43400000D01*
X174350000Y-43400000D02*
X173250000Y-44500000D01*
X173250000Y-44500000D02*
X173250000Y-55460000D01*
X173250000Y-55460000D02*
X171780000Y-56930000D01*
X176420000Y-43470000D02*
X180750000Y-43470000D01*
X176350000Y-43400000D02*
X176420000Y-43470000D01*
G04 #@! TO.N,/Forced_shutdown*
X190750000Y-70250000D02*
X190530000Y-70250000D01*
X189750000Y-71250000D02*
X190750000Y-70250000D01*
X189030000Y-71250000D02*
X189750000Y-71250000D01*
G04 #@! TO.N,/Coil_Out*
X173050002Y-62500000D02*
X173135001Y-62415001D01*
X166385000Y-62500000D02*
X173050002Y-62500000D01*
X176083859Y-62415001D02*
X176250000Y-62248860D01*
X173135001Y-62415001D02*
X176083859Y-62415001D01*
X176250000Y-62248860D02*
X176250000Y-48290000D01*
G04 #@! TO.N,Net-(D1-Pad3)*
X128710000Y-102960000D02*
X129250000Y-103500000D01*
X128710000Y-97750000D02*
X128710000Y-102960000D01*
G04 #@! TO.N,Net-(D8-Pad1)*
X145000002Y-62500000D02*
X145085001Y-62415001D01*
X163030001Y-62415001D02*
X163115000Y-62500000D01*
X156235001Y-62415001D02*
X163030001Y-62415001D01*
X154235001Y-62415001D02*
X155974990Y-62415001D01*
X140135000Y-62500000D02*
X144824990Y-62500000D01*
X154235001Y-62415001D02*
X144824990Y-62500000D01*
X144824990Y-62500000D02*
X145085001Y-62415001D01*
G04 #@! TO.N,Net-(IC3-Pad1)*
X180250000Y-58500000D02*
X180250000Y-56400000D01*
X180250000Y-56400000D02*
X178590000Y-54740000D01*
X176250000Y-45750000D02*
X176810000Y-45750000D01*
X178590000Y-47530000D02*
X178590000Y-48410000D01*
X176810000Y-45750000D02*
X178590000Y-47530000D01*
X178590000Y-54740000D02*
X178590000Y-48410000D01*
G04 #@! TO.N,Net-(IC3-Pad2)*
X179750000Y-61040000D02*
X179750000Y-62720000D01*
G04 #@! TO.N,Net-(IC3-Pad3)*
X187390000Y-61020000D02*
X187370000Y-61040000D01*
X189270000Y-61020000D02*
X187390000Y-61020000D01*
G04 #@! TO.N,Net-(D10-Pad2)*
X187370000Y-57390000D02*
X189400000Y-55360000D01*
X187370000Y-58500000D02*
X187370000Y-57390000D01*
G04 #@! TD*
D38*
G04 #@! TO.N,+BATT*
G36*
X142573034Y-68997047D02*
X142581569Y-69045860D01*
X142608134Y-69087690D01*
X142648684Y-69116171D01*
X142700000Y-69127000D01*
X161200000Y-69127000D01*
X161248601Y-69117333D01*
X161289803Y-69089803D01*
X161317333Y-69048601D01*
X161326991Y-69001494D01*
X161359361Y-66250000D01*
X163209248Y-66250000D01*
X163223000Y-66319136D01*
X163223001Y-77205859D01*
X163209248Y-77275000D01*
X163263731Y-77548906D01*
X163418887Y-77781113D01*
X163651094Y-77936269D01*
X163855864Y-77977000D01*
X163925000Y-77990752D01*
X163994136Y-77977000D01*
X165380864Y-77977000D01*
X165450000Y-77990752D01*
X165519136Y-77977000D01*
X165723906Y-77936269D01*
X165956113Y-77781113D01*
X166111269Y-77548906D01*
X166165752Y-77275000D01*
X166152000Y-77205864D01*
X166152000Y-66319136D01*
X166165752Y-66250000D01*
X166111269Y-65976094D01*
X165956113Y-65743887D01*
X165723906Y-65588731D01*
X165519136Y-65548000D01*
X165450000Y-65534248D01*
X165380864Y-65548000D01*
X163994136Y-65548000D01*
X163925000Y-65534248D01*
X163855864Y-65548000D01*
X163651094Y-65588731D01*
X163418887Y-65743887D01*
X163263731Y-65976094D01*
X163209248Y-66250000D01*
X161359361Y-66250000D01*
X161375514Y-64877000D01*
X167621173Y-64877000D01*
X167374801Y-82123000D01*
X140000000Y-82123000D01*
X139951399Y-82132667D01*
X139910197Y-82160197D01*
X139882667Y-82201399D01*
X139873000Y-82250000D01*
X139873000Y-94873000D01*
X132081777Y-94873000D01*
X131018356Y-92533473D01*
X131127000Y-92271183D01*
X131127000Y-90728817D01*
X130877000Y-90125263D01*
X130877000Y-85874737D01*
X131127000Y-85271183D01*
X131127000Y-83728817D01*
X130877000Y-83125263D01*
X130877000Y-80781102D01*
X131328315Y-80329787D01*
X131466894Y-80122389D01*
X131515557Y-79877746D01*
X131466894Y-79633103D01*
X131328315Y-79425705D01*
X130877000Y-78974390D01*
X130877000Y-77250651D01*
X130926480Y-72253126D01*
X132489803Y-70689803D01*
X132517333Y-70648601D01*
X132527000Y-70600000D01*
X132527000Y-66250000D01*
X135159248Y-66250000D01*
X135173000Y-66319136D01*
X135173001Y-77205859D01*
X135159248Y-77275000D01*
X135213731Y-77548906D01*
X135368887Y-77781113D01*
X135601094Y-77936269D01*
X135805864Y-77977000D01*
X135875000Y-77990752D01*
X135944136Y-77977000D01*
X137330864Y-77977000D01*
X137400000Y-77990752D01*
X137469136Y-77977000D01*
X137673906Y-77936269D01*
X137906113Y-77781113D01*
X138061269Y-77548906D01*
X138115752Y-77275000D01*
X138102000Y-77205864D01*
X138102000Y-66319136D01*
X138115752Y-66250000D01*
X138061269Y-65976094D01*
X137906113Y-65743887D01*
X137673906Y-65588731D01*
X137469136Y-65548000D01*
X137400000Y-65534248D01*
X137330864Y-65548000D01*
X135944136Y-65548000D01*
X135875000Y-65534248D01*
X135805864Y-65548000D01*
X135601094Y-65588731D01*
X135368887Y-65743887D01*
X135213731Y-65976094D01*
X135159248Y-66250000D01*
X132527000Y-66250000D01*
X132527000Y-64827000D01*
X142670012Y-64827000D01*
X142573034Y-68997047D01*
X142573034Y-68997047D01*
G37*
X142573034Y-68997047D02*
X142581569Y-69045860D01*
X142608134Y-69087690D01*
X142648684Y-69116171D01*
X142700000Y-69127000D01*
X161200000Y-69127000D01*
X161248601Y-69117333D01*
X161289803Y-69089803D01*
X161317333Y-69048601D01*
X161326991Y-69001494D01*
X161359361Y-66250000D01*
X163209248Y-66250000D01*
X163223000Y-66319136D01*
X163223001Y-77205859D01*
X163209248Y-77275000D01*
X163263731Y-77548906D01*
X163418887Y-77781113D01*
X163651094Y-77936269D01*
X163855864Y-77977000D01*
X163925000Y-77990752D01*
X163994136Y-77977000D01*
X165380864Y-77977000D01*
X165450000Y-77990752D01*
X165519136Y-77977000D01*
X165723906Y-77936269D01*
X165956113Y-77781113D01*
X166111269Y-77548906D01*
X166165752Y-77275000D01*
X166152000Y-77205864D01*
X166152000Y-66319136D01*
X166165752Y-66250000D01*
X166111269Y-65976094D01*
X165956113Y-65743887D01*
X165723906Y-65588731D01*
X165519136Y-65548000D01*
X165450000Y-65534248D01*
X165380864Y-65548000D01*
X163994136Y-65548000D01*
X163925000Y-65534248D01*
X163855864Y-65548000D01*
X163651094Y-65588731D01*
X163418887Y-65743887D01*
X163263731Y-65976094D01*
X163209248Y-66250000D01*
X161359361Y-66250000D01*
X161375514Y-64877000D01*
X167621173Y-64877000D01*
X167374801Y-82123000D01*
X140000000Y-82123000D01*
X139951399Y-82132667D01*
X139910197Y-82160197D01*
X139882667Y-82201399D01*
X139873000Y-82250000D01*
X139873000Y-94873000D01*
X132081777Y-94873000D01*
X131018356Y-92533473D01*
X131127000Y-92271183D01*
X131127000Y-90728817D01*
X130877000Y-90125263D01*
X130877000Y-85874737D01*
X131127000Y-85271183D01*
X131127000Y-83728817D01*
X130877000Y-83125263D01*
X130877000Y-80781102D01*
X131328315Y-80329787D01*
X131466894Y-80122389D01*
X131515557Y-79877746D01*
X131466894Y-79633103D01*
X131328315Y-79425705D01*
X130877000Y-78974390D01*
X130877000Y-77250651D01*
X130926480Y-72253126D01*
X132489803Y-70689803D01*
X132517333Y-70648601D01*
X132527000Y-70600000D01*
X132527000Y-66250000D01*
X135159248Y-66250000D01*
X135173000Y-66319136D01*
X135173001Y-77205859D01*
X135159248Y-77275000D01*
X135213731Y-77548906D01*
X135368887Y-77781113D01*
X135601094Y-77936269D01*
X135805864Y-77977000D01*
X135875000Y-77990752D01*
X135944136Y-77977000D01*
X137330864Y-77977000D01*
X137400000Y-77990752D01*
X137469136Y-77977000D01*
X137673906Y-77936269D01*
X137906113Y-77781113D01*
X138061269Y-77548906D01*
X138115752Y-77275000D01*
X138102000Y-77205864D01*
X138102000Y-66319136D01*
X138115752Y-66250000D01*
X138061269Y-65976094D01*
X137906113Y-65743887D01*
X137673906Y-65588731D01*
X137469136Y-65548000D01*
X137400000Y-65534248D01*
X137330864Y-65548000D01*
X135944136Y-65548000D01*
X135875000Y-65534248D01*
X135805864Y-65548000D01*
X135601094Y-65588731D01*
X135368887Y-65743887D01*
X135213731Y-65976094D01*
X135159248Y-66250000D01*
X132527000Y-66250000D01*
X132527000Y-64827000D01*
X142670012Y-64827000D01*
X142573034Y-68997047D01*
G36*
X136698000Y-76573000D02*
X136577000Y-76573000D01*
X136577000Y-66952000D01*
X136698001Y-66952000D01*
X136698000Y-76573000D01*
X136698000Y-76573000D01*
G37*
X136698000Y-76573000D02*
X136577000Y-76573000D01*
X136577000Y-66952000D01*
X136698001Y-66952000D01*
X136698000Y-76573000D01*
G36*
X164748000Y-66994135D02*
X164748001Y-66994140D01*
X164748000Y-76573000D01*
X164627000Y-76573000D01*
X164627000Y-66952000D01*
X164748000Y-66952000D01*
X164748000Y-66994135D01*
X164748000Y-66994135D01*
G37*
X164748000Y-66994135D02*
X164748001Y-66994140D01*
X164748000Y-76573000D01*
X164627000Y-76573000D01*
X164627000Y-66952000D01*
X164748000Y-66952000D01*
X164748000Y-66994135D01*
G04 #@! TO.N,/Fun_Out*
G36*
X160228817Y-43877000D02*
X161771183Y-43877000D01*
X162374737Y-43627000D01*
X166625263Y-43627000D01*
X167228817Y-43877000D01*
X168771183Y-43877000D01*
X169374737Y-43627000D01*
X171623000Y-43627000D01*
X171623000Y-55493182D01*
X171313182Y-55803000D01*
X157377000Y-55803000D01*
X157377000Y-53250000D01*
X158459248Y-53250000D01*
X158473001Y-53319141D01*
X158473000Y-54705863D01*
X158459248Y-54775000D01*
X158513731Y-55048906D01*
X158668887Y-55281113D01*
X158901094Y-55436269D01*
X159175000Y-55490752D01*
X159244136Y-55477000D01*
X170130864Y-55477000D01*
X170200000Y-55490752D01*
X170269136Y-55477000D01*
X170354602Y-55460000D01*
X170473906Y-55436269D01*
X170706113Y-55281113D01*
X170861269Y-55048906D01*
X170902000Y-54844136D01*
X170902000Y-54844135D01*
X170915752Y-54775000D01*
X170902000Y-54705864D01*
X170902000Y-53319136D01*
X170915752Y-53250000D01*
X170861269Y-52976094D01*
X170706113Y-52743887D01*
X170473906Y-52588731D01*
X170269136Y-52548000D01*
X159244136Y-52548000D01*
X159175000Y-52534248D01*
X159105864Y-52548000D01*
X158901094Y-52588731D01*
X158668887Y-52743887D01*
X158513731Y-52976094D01*
X158459248Y-53250000D01*
X157377000Y-53250000D01*
X157377000Y-43627000D01*
X159625263Y-43627000D01*
X160228817Y-43877000D01*
X160228817Y-43877000D01*
G37*
X160228817Y-43877000D02*
X161771183Y-43877000D01*
X162374737Y-43627000D01*
X166625263Y-43627000D01*
X167228817Y-43877000D01*
X168771183Y-43877000D01*
X169374737Y-43627000D01*
X171623000Y-43627000D01*
X171623000Y-55493182D01*
X171313182Y-55803000D01*
X157377000Y-55803000D01*
X157377000Y-53250000D01*
X158459248Y-53250000D01*
X158473001Y-53319141D01*
X158473000Y-54705863D01*
X158459248Y-54775000D01*
X158513731Y-55048906D01*
X158668887Y-55281113D01*
X158901094Y-55436269D01*
X159175000Y-55490752D01*
X159244136Y-55477000D01*
X170130864Y-55477000D01*
X170200000Y-55490752D01*
X170269136Y-55477000D01*
X170354602Y-55460000D01*
X170473906Y-55436269D01*
X170706113Y-55281113D01*
X170861269Y-55048906D01*
X170902000Y-54844136D01*
X170902000Y-54844135D01*
X170915752Y-54775000D01*
X170902000Y-54705864D01*
X170902000Y-53319136D01*
X170915752Y-53250000D01*
X170861269Y-52976094D01*
X170706113Y-52743887D01*
X170473906Y-52588731D01*
X170269136Y-52548000D01*
X159244136Y-52548000D01*
X159175000Y-52534248D01*
X159105864Y-52548000D01*
X158901094Y-52588731D01*
X158668887Y-52743887D01*
X158513731Y-52976094D01*
X158459248Y-53250000D01*
X157377000Y-53250000D01*
X157377000Y-43627000D01*
X159625263Y-43627000D01*
X160228817Y-43877000D01*
G36*
X169498001Y-54073000D02*
X159877000Y-54073000D01*
X159877000Y-53952000D01*
X169498000Y-53952000D01*
X169498001Y-54073000D01*
X169498001Y-54073000D01*
G37*
X169498001Y-54073000D02*
X159877000Y-54073000D01*
X159877000Y-53952000D01*
X169498000Y-53952000D01*
X169498001Y-54073000D01*
G04 #@! TO.N,/Power_Out*
G36*
X132575886Y-43545148D02*
X133328762Y-43857000D01*
X134851238Y-43857000D01*
X135560183Y-43563345D01*
X140441676Y-43593110D01*
X141078762Y-43857000D01*
X142601238Y-43857000D01*
X143197752Y-43609916D01*
X145873000Y-43626228D01*
X145873000Y-43727996D01*
X145864006Y-43734006D01*
X145736478Y-43924866D01*
X145691696Y-44150000D01*
X145691696Y-44670762D01*
X145681902Y-44720000D01*
X145691696Y-44769238D01*
X145691696Y-45350000D01*
X145736478Y-45575134D01*
X145864006Y-45765994D01*
X145873000Y-45772004D01*
X145873000Y-55853000D01*
X139511067Y-55853000D01*
X139405001Y-55831902D01*
X139298934Y-55853000D01*
X139298929Y-55853000D01*
X139198383Y-55873000D01*
X129727000Y-55873000D01*
X129727000Y-53250000D01*
X130460227Y-53250000D01*
X130473000Y-53314214D01*
X130473001Y-54710781D01*
X130460227Y-54775000D01*
X130510830Y-55029398D01*
X130654935Y-55245065D01*
X130870602Y-55389170D01*
X131060786Y-55427000D01*
X131125000Y-55439773D01*
X131189214Y-55427000D01*
X142085786Y-55427000D01*
X142150000Y-55439773D01*
X142214214Y-55427000D01*
X142404398Y-55389170D01*
X142620065Y-55245065D01*
X142764170Y-55029398D01*
X142814773Y-54775000D01*
X142802000Y-54710786D01*
X142802000Y-53314214D01*
X142814773Y-53250000D01*
X142764170Y-52995602D01*
X142620065Y-52779935D01*
X142404398Y-52635830D01*
X142214214Y-52598000D01*
X142150000Y-52585227D01*
X142085786Y-52598000D01*
X131189214Y-52598000D01*
X131125000Y-52585227D01*
X131060786Y-52598000D01*
X130870602Y-52635830D01*
X130654935Y-52779935D01*
X130510830Y-52995602D01*
X130460227Y-53250000D01*
X129727000Y-53250000D01*
X129727000Y-43527777D01*
X132575886Y-43545148D01*
X132575886Y-43545148D01*
G37*
X132575886Y-43545148D02*
X133328762Y-43857000D01*
X134851238Y-43857000D01*
X135560183Y-43563345D01*
X140441676Y-43593110D01*
X141078762Y-43857000D01*
X142601238Y-43857000D01*
X143197752Y-43609916D01*
X145873000Y-43626228D01*
X145873000Y-43727996D01*
X145864006Y-43734006D01*
X145736478Y-43924866D01*
X145691696Y-44150000D01*
X145691696Y-44670762D01*
X145681902Y-44720000D01*
X145691696Y-44769238D01*
X145691696Y-45350000D01*
X145736478Y-45575134D01*
X145864006Y-45765994D01*
X145873000Y-45772004D01*
X145873000Y-55853000D01*
X139511067Y-55853000D01*
X139405001Y-55831902D01*
X139298934Y-55853000D01*
X139298929Y-55853000D01*
X139198383Y-55873000D01*
X129727000Y-55873000D01*
X129727000Y-53250000D01*
X130460227Y-53250000D01*
X130473000Y-53314214D01*
X130473001Y-54710781D01*
X130460227Y-54775000D01*
X130510830Y-55029398D01*
X130654935Y-55245065D01*
X130870602Y-55389170D01*
X131060786Y-55427000D01*
X131125000Y-55439773D01*
X131189214Y-55427000D01*
X142085786Y-55427000D01*
X142150000Y-55439773D01*
X142214214Y-55427000D01*
X142404398Y-55389170D01*
X142620065Y-55245065D01*
X142764170Y-55029398D01*
X142814773Y-54775000D01*
X142802000Y-54710786D01*
X142802000Y-53314214D01*
X142814773Y-53250000D01*
X142764170Y-52995602D01*
X142620065Y-52779935D01*
X142404398Y-52635830D01*
X142214214Y-52598000D01*
X142150000Y-52585227D01*
X142085786Y-52598000D01*
X131189214Y-52598000D01*
X131125000Y-52585227D01*
X131060786Y-52598000D01*
X130870602Y-52635830D01*
X130654935Y-52779935D01*
X130510830Y-52995602D01*
X130460227Y-53250000D01*
X129727000Y-53250000D01*
X129727000Y-43527777D01*
X132575886Y-43545148D01*
G36*
X141498000Y-54123000D02*
X131777000Y-54123000D01*
X131777000Y-53902000D01*
X141498001Y-53902000D01*
X141498000Y-54123000D01*
X141498000Y-54123000D01*
G37*
X141498000Y-54123000D02*
X131777000Y-54123000D01*
X131777000Y-53902000D01*
X141498001Y-53902000D01*
X141498000Y-54123000D01*
G04 #@! TO.N,GNDPWR*
G36*
X193925178Y-37195470D02*
X193373000Y-38528545D01*
X193373000Y-39971455D01*
X193925178Y-41304530D01*
X194945470Y-42324822D01*
X196278545Y-42877000D01*
X197721455Y-42877000D01*
X199054530Y-42324822D01*
X199273000Y-42106352D01*
X199273000Y-47373000D01*
X186250000Y-47373000D01*
X186201399Y-47382667D01*
X186160197Y-47410197D01*
X185934332Y-47636062D01*
X185760057Y-47670728D01*
X185556644Y-47806644D01*
X184647000Y-48716288D01*
X184647000Y-47946818D01*
X191236980Y-41356839D01*
X191537278Y-41297106D01*
X191992761Y-40992762D01*
X192297106Y-40537279D01*
X192377000Y-40135623D01*
X192377000Y-38864377D01*
X192297106Y-38462721D01*
X191992762Y-38007238D01*
X191537279Y-37702894D01*
X191000000Y-37596023D01*
X190462722Y-37702894D01*
X190007239Y-38007238D01*
X189750000Y-38392222D01*
X189492762Y-38007238D01*
X189037279Y-37702894D01*
X188500000Y-37596023D01*
X187962722Y-37702894D01*
X187507239Y-38007238D01*
X187262844Y-38373000D01*
X184737156Y-38373000D01*
X184492762Y-38007238D01*
X184037279Y-37702894D01*
X183500000Y-37596023D01*
X182962722Y-37702894D01*
X182507239Y-38007238D01*
X182250000Y-38392222D01*
X181992762Y-38007238D01*
X181537279Y-37702894D01*
X181000000Y-37596023D01*
X180462722Y-37702894D01*
X180007239Y-38007238D01*
X179762844Y-38373000D01*
X179619857Y-38373000D01*
X179524643Y-38309380D01*
X179280000Y-38260717D01*
X178280000Y-38260717D01*
X178035357Y-38309380D01*
X178000000Y-38333005D01*
X177964643Y-38309380D01*
X177720000Y-38260717D01*
X176720000Y-38260717D01*
X176475357Y-38309380D01*
X176267959Y-38447959D01*
X176129380Y-38655357D01*
X176080717Y-38900000D01*
X176080717Y-39045464D01*
X175971421Y-39154761D01*
X175750000Y-39110717D01*
X173750000Y-39110717D01*
X173505357Y-39159380D01*
X173297959Y-39297959D01*
X173159380Y-39505357D01*
X173110717Y-39750000D01*
X173110717Y-41750000D01*
X173159380Y-41994643D01*
X173297959Y-42202041D01*
X173505357Y-42340620D01*
X173750000Y-42389283D01*
X173834098Y-42389283D01*
X173805504Y-42408389D01*
X173537478Y-42587478D01*
X173474602Y-42681579D01*
X172531582Y-43624600D01*
X172437478Y-43687478D01*
X172377000Y-43777990D01*
X172377000Y-43500000D01*
X172329272Y-43260057D01*
X172193356Y-43056644D01*
X171989943Y-42920728D01*
X171750000Y-42873000D01*
X157250000Y-42873000D01*
X157010057Y-42920728D01*
X156806644Y-43056644D01*
X156670728Y-43260057D01*
X156662962Y-43299100D01*
X156470000Y-43260717D01*
X156139283Y-43260717D01*
X156139283Y-41540000D01*
X156090620Y-41295357D01*
X155952041Y-41087959D01*
X155744643Y-40949380D01*
X155500000Y-40900717D01*
X153500000Y-40900717D01*
X153255357Y-40949380D01*
X153047959Y-41087959D01*
X152909380Y-41295357D01*
X152860717Y-41540000D01*
X152860717Y-43540000D01*
X152909380Y-43784643D01*
X153047959Y-43992041D01*
X153255357Y-44130620D01*
X153482541Y-44175810D01*
X153687478Y-44482522D01*
X153781582Y-44545400D01*
X154454601Y-45218420D01*
X154517478Y-45312522D01*
X154770558Y-45481624D01*
X154890265Y-45561610D01*
X154890266Y-45561610D01*
X154890267Y-45561611D01*
X155092478Y-45601833D01*
X155225357Y-45690620D01*
X155470000Y-45739283D01*
X156470000Y-45739283D01*
X156623000Y-45708849D01*
X156623000Y-55803000D01*
X146627000Y-55803000D01*
X146627000Y-45989283D01*
X147280000Y-45989283D01*
X147524643Y-45940620D01*
X147732041Y-45802041D01*
X147870620Y-45594643D01*
X147919283Y-45350000D01*
X147919283Y-45174535D01*
X148954536Y-44139283D01*
X150000000Y-44139283D01*
X150244643Y-44090620D01*
X150452041Y-43952041D01*
X150590620Y-43744643D01*
X150639283Y-43500000D01*
X150639283Y-41500000D01*
X150590620Y-41255357D01*
X150452041Y-41047959D01*
X150244643Y-40909380D01*
X150000000Y-40860717D01*
X148000000Y-40860717D01*
X147755357Y-40909380D01*
X147547959Y-41047959D01*
X147409380Y-41255357D01*
X147360717Y-41500000D01*
X147360717Y-42545464D01*
X146590852Y-43315330D01*
X146580725Y-43263594D01*
X146446051Y-43059356D01*
X146243470Y-42922201D01*
X146003823Y-42873012D01*
X129603823Y-42773012D01*
X129360057Y-42820728D01*
X129156644Y-42956644D01*
X129020728Y-43160057D01*
X128973000Y-43400000D01*
X128973000Y-56000000D01*
X129020728Y-56239943D01*
X129156644Y-56443356D01*
X129360057Y-56579272D01*
X129600000Y-56627000D01*
X138114182Y-56627000D01*
X133453182Y-61288001D01*
X129989283Y-61288001D01*
X129989283Y-57950000D01*
X129940620Y-57705357D01*
X129802041Y-57497959D01*
X129594643Y-57359380D01*
X129350000Y-57310717D01*
X127350000Y-57310717D01*
X127105357Y-57359380D01*
X126897959Y-57497959D01*
X126759380Y-57705357D01*
X126710717Y-57950000D01*
X126710717Y-66950000D01*
X126759380Y-67194643D01*
X126897959Y-67402041D01*
X127105357Y-67540620D01*
X127350000Y-67589283D01*
X129350000Y-67589283D01*
X129594643Y-67540620D01*
X129802041Y-67402041D01*
X129940620Y-67194643D01*
X129989283Y-66950000D01*
X129989283Y-63542001D01*
X133809002Y-63542001D01*
X133920000Y-63564080D01*
X134030998Y-63542001D01*
X135944569Y-63542001D01*
X135957959Y-63562041D01*
X136165357Y-63700620D01*
X136410000Y-63749283D01*
X137320000Y-63749283D01*
X137564643Y-63700620D01*
X137772041Y-63562041D01*
X137910620Y-63354643D01*
X137959283Y-63110000D01*
X137959283Y-62775477D01*
X138014079Y-62500000D01*
X137959283Y-62224524D01*
X137959283Y-61890000D01*
X137910620Y-61645357D01*
X137772041Y-61437959D01*
X137564643Y-61299380D01*
X137320000Y-61250717D01*
X136678102Y-61250717D01*
X139871820Y-58057000D01*
X143610717Y-58057000D01*
X143610717Y-61373000D01*
X140944823Y-61373000D01*
X140834643Y-61299380D01*
X140590000Y-61250717D01*
X139680000Y-61250717D01*
X139435357Y-61299380D01*
X139227959Y-61437959D01*
X139089380Y-61645357D01*
X139040717Y-61890000D01*
X139040717Y-62224521D01*
X138985921Y-62500000D01*
X139040717Y-62775479D01*
X139040717Y-63110000D01*
X139089380Y-63354643D01*
X139227959Y-63562041D01*
X139435357Y-63700620D01*
X139680000Y-63749283D01*
X140590000Y-63749283D01*
X140834643Y-63700620D01*
X140944823Y-63627000D01*
X143610717Y-63627000D01*
X143610717Y-66950000D01*
X143659380Y-67194643D01*
X143797959Y-67402041D01*
X144005357Y-67540620D01*
X144250000Y-67589283D01*
X146250000Y-67589283D01*
X146494643Y-67540620D01*
X146702041Y-67402041D01*
X146840620Y-67194643D01*
X146889283Y-66950000D01*
X146889283Y-63608399D01*
X154240043Y-63542001D01*
X154660717Y-63542001D01*
X154660717Y-66900000D01*
X154709380Y-67144643D01*
X154847959Y-67352041D01*
X155055357Y-67490620D01*
X155300000Y-67539283D01*
X157300000Y-67539283D01*
X157544643Y-67490620D01*
X157752041Y-67352041D01*
X157890620Y-67144643D01*
X157939283Y-66900000D01*
X157939283Y-63542001D01*
X162194569Y-63542001D01*
X162207959Y-63562041D01*
X162415357Y-63700620D01*
X162660000Y-63749283D01*
X163570000Y-63749283D01*
X163814643Y-63700620D01*
X164022041Y-63562041D01*
X164160620Y-63354643D01*
X164209283Y-63110000D01*
X164209283Y-62775477D01*
X164264079Y-62500000D01*
X164209283Y-62224524D01*
X164209283Y-61890000D01*
X164160620Y-61645357D01*
X164022041Y-61437959D01*
X163814643Y-61299380D01*
X163570000Y-61250717D01*
X162660000Y-61250717D01*
X162472563Y-61288001D01*
X157939283Y-61288001D01*
X157939283Y-58057000D01*
X171560717Y-58057000D01*
X171560717Y-61373000D01*
X167194823Y-61373000D01*
X167084643Y-61299380D01*
X166840000Y-61250717D01*
X165930000Y-61250717D01*
X165685357Y-61299380D01*
X165477959Y-61437959D01*
X165339380Y-61645357D01*
X165290717Y-61890000D01*
X165290717Y-62224521D01*
X165235921Y-62500000D01*
X165290717Y-62775479D01*
X165290717Y-63110000D01*
X165339380Y-63354643D01*
X165477959Y-63562041D01*
X165685357Y-63700620D01*
X165930000Y-63749283D01*
X166840000Y-63749283D01*
X167084643Y-63700620D01*
X167194823Y-63627000D01*
X171560717Y-63627000D01*
X171560717Y-66900000D01*
X171609380Y-67144643D01*
X171747959Y-67352041D01*
X171955357Y-67490620D01*
X172200000Y-67539283D01*
X174200000Y-67539283D01*
X174444643Y-67490620D01*
X174652041Y-67352041D01*
X174790620Y-67144643D01*
X174839283Y-66900000D01*
X174839283Y-63542001D01*
X175358266Y-63542001D01*
X175397909Y-63601331D01*
X175605307Y-63739910D01*
X175849950Y-63788573D01*
X176512679Y-63788573D01*
X176347909Y-63898669D01*
X176209330Y-64106067D01*
X176160667Y-64350710D01*
X176160667Y-64696655D01*
X176061581Y-64795741D01*
X175967479Y-64858618D01*
X175904603Y-64952719D01*
X175718390Y-65231406D01*
X175630921Y-65671140D01*
X175653001Y-65782143D01*
X175653000Y-67088248D01*
X175640717Y-67150000D01*
X175640717Y-67700752D01*
X175630921Y-67750000D01*
X175640717Y-67799248D01*
X175640717Y-68350000D01*
X175689380Y-68594643D01*
X175827959Y-68802041D01*
X176035357Y-68940620D01*
X176280000Y-68989283D01*
X177280000Y-68989283D01*
X177524643Y-68940620D01*
X177679721Y-68837000D01*
X177998144Y-68837000D01*
X178212158Y-68980000D01*
X177851191Y-69221191D01*
X177535796Y-69693212D01*
X177425044Y-70250000D01*
X177535796Y-70806788D01*
X177851191Y-71278809D01*
X178323212Y-71594204D01*
X178739456Y-71677000D01*
X179020544Y-71677000D01*
X179436788Y-71594204D01*
X179761856Y-71377000D01*
X179880143Y-71377000D01*
X179975357Y-71440620D01*
X180220000Y-71489283D01*
X181046899Y-71489283D01*
X171711580Y-80824602D01*
X171617479Y-80887478D01*
X171554603Y-80981579D01*
X171368390Y-81260266D01*
X171280921Y-81700000D01*
X171303001Y-81811003D01*
X171303000Y-86483181D01*
X158293181Y-99493001D01*
X151716819Y-99493001D01*
X145267000Y-93043183D01*
X145267000Y-87657479D01*
X145731244Y-87193235D01*
X146017000Y-86503359D01*
X146017000Y-85756641D01*
X145731244Y-85066765D01*
X145203235Y-84538756D01*
X144513359Y-84253000D01*
X143766641Y-84253000D01*
X143076765Y-84538756D01*
X142548756Y-85066765D01*
X142263000Y-85756641D01*
X142263000Y-86503359D01*
X142548756Y-87193235D01*
X143013000Y-87657479D01*
X143013001Y-93398998D01*
X142990921Y-93510001D01*
X143078390Y-93949735D01*
X143143729Y-94047521D01*
X143327479Y-94322523D01*
X143421580Y-94385399D01*
X148529181Y-99493001D01*
X145500997Y-99493001D01*
X145389999Y-99470922D01*
X145279001Y-99493001D01*
X145279000Y-99493001D01*
X144950266Y-99558390D01*
X144843481Y-99629741D01*
X144513359Y-99493000D01*
X143766641Y-99493000D01*
X143076765Y-99778756D01*
X142548756Y-100306765D01*
X142263000Y-100996641D01*
X142263000Y-101373000D01*
X141424504Y-101373000D01*
X141429079Y-101350000D01*
X141407000Y-101239002D01*
X141407000Y-100411750D01*
X141419283Y-100350000D01*
X141419283Y-99150000D01*
X141370620Y-98905357D01*
X141232041Y-98697959D01*
X141024643Y-98559380D01*
X140780000Y-98510717D01*
X139860980Y-98510717D01*
X139869079Y-98469999D01*
X139830689Y-98277000D01*
X139781611Y-98030267D01*
X139532522Y-97657478D01*
X139438420Y-97594601D01*
X139389283Y-97545464D01*
X139389283Y-96500000D01*
X139340620Y-96255357D01*
X139202041Y-96047959D01*
X138994643Y-95909380D01*
X138750000Y-95860717D01*
X136750000Y-95860717D01*
X136505357Y-95909380D01*
X136297959Y-96047959D01*
X136159380Y-96255357D01*
X136110717Y-96500000D01*
X136110717Y-98500000D01*
X136159380Y-98744643D01*
X136297959Y-98952041D01*
X136505357Y-99090620D01*
X136750000Y-99139283D01*
X137582849Y-99139283D01*
X137580717Y-99150000D01*
X137580717Y-100350000D01*
X137629380Y-100594643D01*
X137767959Y-100802041D01*
X137975357Y-100940620D01*
X138220000Y-100989283D01*
X139046899Y-100989283D01*
X138796353Y-101239829D01*
X138650000Y-101210717D01*
X137350000Y-101210717D01*
X137105357Y-101259380D01*
X136897959Y-101397959D01*
X136759380Y-101605357D01*
X136710717Y-101850000D01*
X136710717Y-102195465D01*
X136533182Y-102373000D01*
X132987156Y-102373000D01*
X132742762Y-102007238D01*
X132287279Y-101702894D01*
X131750000Y-101596023D01*
X131212722Y-101702894D01*
X130757239Y-102007238D01*
X130500000Y-102392222D01*
X130242762Y-102007238D01*
X129837000Y-101736117D01*
X129837000Y-100749283D01*
X131110000Y-100749283D01*
X131354643Y-100700620D01*
X131562041Y-100562041D01*
X131700620Y-100354643D01*
X131749283Y-100110000D01*
X131749283Y-100103282D01*
X131880000Y-100129283D01*
X133150000Y-100129283D01*
X133394643Y-100080620D01*
X133602041Y-99942041D01*
X133740620Y-99734643D01*
X133789283Y-99490000D01*
X133789283Y-98090000D01*
X133740620Y-97845357D01*
X133676904Y-97750000D01*
X133740620Y-97654643D01*
X133789283Y-97410000D01*
X133789283Y-96010000D01*
X133740620Y-95765357D01*
X133648173Y-95627000D01*
X140000000Y-95627000D01*
X140239943Y-95579272D01*
X140443356Y-95443356D01*
X140579272Y-95239943D01*
X140627000Y-95000000D01*
X140627000Y-82877000D01*
X167500000Y-82877000D01*
X167731644Y-82832641D01*
X167936978Y-82699644D01*
X168075786Y-82498193D01*
X168126936Y-82258956D01*
X168376936Y-64758956D01*
X168329272Y-64510057D01*
X168193356Y-64306644D01*
X167989943Y-64170728D01*
X167750000Y-64123000D01*
X161250000Y-64123000D01*
X161016889Y-64167945D01*
X160811890Y-64301459D01*
X160673590Y-64503260D01*
X160623043Y-64742624D01*
X160580333Y-68373000D01*
X143341751Y-68373000D01*
X143426831Y-64714577D01*
X143379272Y-64460057D01*
X143243356Y-64256644D01*
X143039943Y-64120728D01*
X142800000Y-64073000D01*
X132400000Y-64073000D01*
X132160057Y-64120728D01*
X131956644Y-64256644D01*
X131820728Y-64460057D01*
X131773000Y-64700000D01*
X131773000Y-70340288D01*
X130356644Y-71756644D01*
X130223131Y-71954334D01*
X130173031Y-72193792D01*
X130123031Y-77243792D01*
X130123000Y-77250000D01*
X130123000Y-78540540D01*
X129924525Y-78580020D01*
X129717127Y-78718599D01*
X129362726Y-79073000D01*
X126029283Y-79073000D01*
X126029283Y-78950000D01*
X125980620Y-78705357D01*
X125842041Y-78497959D01*
X125634643Y-78359380D01*
X125390000Y-78310717D01*
X123390000Y-78310717D01*
X123145357Y-78359380D01*
X122937959Y-78497959D01*
X122799380Y-78705357D01*
X122750717Y-78950000D01*
X122750717Y-80950000D01*
X122799380Y-81194643D01*
X122937959Y-81402041D01*
X123145357Y-81540620D01*
X123390000Y-81589283D01*
X125390000Y-81589283D01*
X125634643Y-81540620D01*
X125842041Y-81402041D01*
X125980620Y-81194643D01*
X126029283Y-80950000D01*
X126029283Y-80827000D01*
X129224390Y-80827000D01*
X129575705Y-81178315D01*
X129783103Y-81316894D01*
X129824810Y-81325190D01*
X129833106Y-81366897D01*
X129971685Y-81574295D01*
X130123000Y-81725610D01*
X130123000Y-92250000D01*
X130179200Y-92509454D01*
X131206699Y-94769952D01*
X131110000Y-94750717D01*
X126310000Y-94750717D01*
X126065357Y-94799380D01*
X125857959Y-94937959D01*
X125719380Y-95145357D01*
X125670717Y-95390000D01*
X125670717Y-100110000D01*
X125719380Y-100354643D01*
X125857959Y-100562041D01*
X126065357Y-100700620D01*
X126310000Y-100749283D01*
X127583001Y-100749283D01*
X127583001Y-102848997D01*
X127560921Y-102960000D01*
X127648390Y-103399734D01*
X127792291Y-103615097D01*
X127873000Y-103735886D01*
X127873000Y-104135622D01*
X127952894Y-104537278D01*
X128257238Y-104992761D01*
X128712721Y-105297106D01*
X129250000Y-105403977D01*
X129787278Y-105297106D01*
X130242761Y-104992762D01*
X130500000Y-104607777D01*
X130757238Y-104992761D01*
X131212721Y-105297106D01*
X131750000Y-105403977D01*
X132287278Y-105297106D01*
X132742761Y-104992762D01*
X132987156Y-104627000D01*
X136889002Y-104627000D01*
X137000000Y-104649079D01*
X137110998Y-104627000D01*
X137110999Y-104627000D01*
X137439733Y-104561611D01*
X137812522Y-104312522D01*
X137875400Y-104218418D01*
X138304535Y-103789283D01*
X138650000Y-103789283D01*
X138894643Y-103740620D01*
X139054207Y-103634003D01*
X139130000Y-103649079D01*
X139240998Y-103627000D01*
X143399002Y-103627000D01*
X143510000Y-103649079D01*
X143620998Y-103627000D01*
X143620999Y-103627000D01*
X143949733Y-103561611D01*
X144322522Y-103312522D01*
X144366302Y-103247000D01*
X144513359Y-103247000D01*
X145203235Y-102961244D01*
X145731244Y-102433235D01*
X146015491Y-101747001D01*
X151139001Y-101747001D01*
X151249999Y-101769080D01*
X151360997Y-101747001D01*
X158649001Y-101747001D01*
X158759999Y-101769080D01*
X158870997Y-101747001D01*
X158870998Y-101747001D01*
X159199732Y-101681612D01*
X159572521Y-101432523D01*
X159635399Y-101338419D01*
X173148421Y-87825398D01*
X173242522Y-87762522D01*
X173491611Y-87389733D01*
X173557000Y-87060999D01*
X173557000Y-87060998D01*
X173579079Y-86950000D01*
X173557000Y-86839002D01*
X173557000Y-82166818D01*
X182998418Y-72725400D01*
X183092522Y-72662522D01*
X183341611Y-72289733D01*
X183407000Y-71960999D01*
X183407000Y-71960998D01*
X183429079Y-71850000D01*
X183407000Y-71739002D01*
X183407000Y-70911750D01*
X183419283Y-70850000D01*
X183419283Y-69650000D01*
X183407000Y-69588250D01*
X183407000Y-67166818D01*
X183508008Y-67065810D01*
X183692522Y-66942522D01*
X183755401Y-66848417D01*
X184123000Y-66480817D01*
X184123000Y-72490288D01*
X179056644Y-77556644D01*
X178920728Y-77760057D01*
X178882668Y-77951398D01*
X178882667Y-77951399D01*
X178873000Y-78000000D01*
X178873000Y-106273000D01*
X125856352Y-106273000D01*
X126074822Y-106054530D01*
X126627000Y-104721455D01*
X126627000Y-103278545D01*
X126074822Y-101945470D01*
X125054530Y-100925178D01*
X123721455Y-100373000D01*
X122278545Y-100373000D01*
X120945470Y-100925178D01*
X120727000Y-101143648D01*
X120727000Y-42106352D01*
X120945470Y-42324822D01*
X122278545Y-42877000D01*
X123721455Y-42877000D01*
X125054530Y-42324822D01*
X126074822Y-41304530D01*
X126627000Y-39971455D01*
X126627000Y-38528545D01*
X126074822Y-37195470D01*
X125856352Y-36977000D01*
X194143648Y-36977000D01*
X193925178Y-37195470D01*
X193925178Y-37195470D01*
G37*
X193925178Y-37195470D02*
X193373000Y-38528545D01*
X193373000Y-39971455D01*
X193925178Y-41304530D01*
X194945470Y-42324822D01*
X196278545Y-42877000D01*
X197721455Y-42877000D01*
X199054530Y-42324822D01*
X199273000Y-42106352D01*
X199273000Y-47373000D01*
X186250000Y-47373000D01*
X186201399Y-47382667D01*
X186160197Y-47410197D01*
X185934332Y-47636062D01*
X185760057Y-47670728D01*
X185556644Y-47806644D01*
X184647000Y-48716288D01*
X184647000Y-47946818D01*
X191236980Y-41356839D01*
X191537278Y-41297106D01*
X191992761Y-40992762D01*
X192297106Y-40537279D01*
X192377000Y-40135623D01*
X192377000Y-38864377D01*
X192297106Y-38462721D01*
X191992762Y-38007238D01*
X191537279Y-37702894D01*
X191000000Y-37596023D01*
X190462722Y-37702894D01*
X190007239Y-38007238D01*
X189750000Y-38392222D01*
X189492762Y-38007238D01*
X189037279Y-37702894D01*
X188500000Y-37596023D01*
X187962722Y-37702894D01*
X187507239Y-38007238D01*
X187262844Y-38373000D01*
X184737156Y-38373000D01*
X184492762Y-38007238D01*
X184037279Y-37702894D01*
X183500000Y-37596023D01*
X182962722Y-37702894D01*
X182507239Y-38007238D01*
X182250000Y-38392222D01*
X181992762Y-38007238D01*
X181537279Y-37702894D01*
X181000000Y-37596023D01*
X180462722Y-37702894D01*
X180007239Y-38007238D01*
X179762844Y-38373000D01*
X179619857Y-38373000D01*
X179524643Y-38309380D01*
X179280000Y-38260717D01*
X178280000Y-38260717D01*
X178035357Y-38309380D01*
X178000000Y-38333005D01*
X177964643Y-38309380D01*
X177720000Y-38260717D01*
X176720000Y-38260717D01*
X176475357Y-38309380D01*
X176267959Y-38447959D01*
X176129380Y-38655357D01*
X176080717Y-38900000D01*
X176080717Y-39045464D01*
X175971421Y-39154761D01*
X175750000Y-39110717D01*
X173750000Y-39110717D01*
X173505357Y-39159380D01*
X173297959Y-39297959D01*
X173159380Y-39505357D01*
X173110717Y-39750000D01*
X173110717Y-41750000D01*
X173159380Y-41994643D01*
X173297959Y-42202041D01*
X173505357Y-42340620D01*
X173750000Y-42389283D01*
X173834098Y-42389283D01*
X173805504Y-42408389D01*
X173537478Y-42587478D01*
X173474602Y-42681579D01*
X172531582Y-43624600D01*
X172437478Y-43687478D01*
X172377000Y-43777990D01*
X172377000Y-43500000D01*
X172329272Y-43260057D01*
X172193356Y-43056644D01*
X171989943Y-42920728D01*
X171750000Y-42873000D01*
X157250000Y-42873000D01*
X157010057Y-42920728D01*
X156806644Y-43056644D01*
X156670728Y-43260057D01*
X156662962Y-43299100D01*
X156470000Y-43260717D01*
X156139283Y-43260717D01*
X156139283Y-41540000D01*
X156090620Y-41295357D01*
X155952041Y-41087959D01*
X155744643Y-40949380D01*
X155500000Y-40900717D01*
X153500000Y-40900717D01*
X153255357Y-40949380D01*
X153047959Y-41087959D01*
X152909380Y-41295357D01*
X152860717Y-41540000D01*
X152860717Y-43540000D01*
X152909380Y-43784643D01*
X153047959Y-43992041D01*
X153255357Y-44130620D01*
X153482541Y-44175810D01*
X153687478Y-44482522D01*
X153781582Y-44545400D01*
X154454601Y-45218420D01*
X154517478Y-45312522D01*
X154770558Y-45481624D01*
X154890265Y-45561610D01*
X154890266Y-45561610D01*
X154890267Y-45561611D01*
X155092478Y-45601833D01*
X155225357Y-45690620D01*
X155470000Y-45739283D01*
X156470000Y-45739283D01*
X156623000Y-45708849D01*
X156623000Y-55803000D01*
X146627000Y-55803000D01*
X146627000Y-45989283D01*
X147280000Y-45989283D01*
X147524643Y-45940620D01*
X147732041Y-45802041D01*
X147870620Y-45594643D01*
X147919283Y-45350000D01*
X147919283Y-45174535D01*
X148954536Y-44139283D01*
X150000000Y-44139283D01*
X150244643Y-44090620D01*
X150452041Y-43952041D01*
X150590620Y-43744643D01*
X150639283Y-43500000D01*
X150639283Y-41500000D01*
X150590620Y-41255357D01*
X150452041Y-41047959D01*
X150244643Y-40909380D01*
X150000000Y-40860717D01*
X148000000Y-40860717D01*
X147755357Y-40909380D01*
X147547959Y-41047959D01*
X147409380Y-41255357D01*
X147360717Y-41500000D01*
X147360717Y-42545464D01*
X146590852Y-43315330D01*
X146580725Y-43263594D01*
X146446051Y-43059356D01*
X146243470Y-42922201D01*
X146003823Y-42873012D01*
X129603823Y-42773012D01*
X129360057Y-42820728D01*
X129156644Y-42956644D01*
X129020728Y-43160057D01*
X128973000Y-43400000D01*
X128973000Y-56000000D01*
X129020728Y-56239943D01*
X129156644Y-56443356D01*
X129360057Y-56579272D01*
X129600000Y-56627000D01*
X138114182Y-56627000D01*
X133453182Y-61288001D01*
X129989283Y-61288001D01*
X129989283Y-57950000D01*
X129940620Y-57705357D01*
X129802041Y-57497959D01*
X129594643Y-57359380D01*
X129350000Y-57310717D01*
X127350000Y-57310717D01*
X127105357Y-57359380D01*
X126897959Y-57497959D01*
X126759380Y-57705357D01*
X126710717Y-57950000D01*
X126710717Y-66950000D01*
X126759380Y-67194643D01*
X126897959Y-67402041D01*
X127105357Y-67540620D01*
X127350000Y-67589283D01*
X129350000Y-67589283D01*
X129594643Y-67540620D01*
X129802041Y-67402041D01*
X129940620Y-67194643D01*
X129989283Y-66950000D01*
X129989283Y-63542001D01*
X133809002Y-63542001D01*
X133920000Y-63564080D01*
X134030998Y-63542001D01*
X135944569Y-63542001D01*
X135957959Y-63562041D01*
X136165357Y-63700620D01*
X136410000Y-63749283D01*
X137320000Y-63749283D01*
X137564643Y-63700620D01*
X137772041Y-63562041D01*
X137910620Y-63354643D01*
X137959283Y-63110000D01*
X137959283Y-62775477D01*
X138014079Y-62500000D01*
X137959283Y-62224524D01*
X137959283Y-61890000D01*
X137910620Y-61645357D01*
X137772041Y-61437959D01*
X137564643Y-61299380D01*
X137320000Y-61250717D01*
X136678102Y-61250717D01*
X139871820Y-58057000D01*
X143610717Y-58057000D01*
X143610717Y-61373000D01*
X140944823Y-61373000D01*
X140834643Y-61299380D01*
X140590000Y-61250717D01*
X139680000Y-61250717D01*
X139435357Y-61299380D01*
X139227959Y-61437959D01*
X139089380Y-61645357D01*
X139040717Y-61890000D01*
X139040717Y-62224521D01*
X138985921Y-62500000D01*
X139040717Y-62775479D01*
X139040717Y-63110000D01*
X139089380Y-63354643D01*
X139227959Y-63562041D01*
X139435357Y-63700620D01*
X139680000Y-63749283D01*
X140590000Y-63749283D01*
X140834643Y-63700620D01*
X140944823Y-63627000D01*
X143610717Y-63627000D01*
X143610717Y-66950000D01*
X143659380Y-67194643D01*
X143797959Y-67402041D01*
X144005357Y-67540620D01*
X144250000Y-67589283D01*
X146250000Y-67589283D01*
X146494643Y-67540620D01*
X146702041Y-67402041D01*
X146840620Y-67194643D01*
X146889283Y-66950000D01*
X146889283Y-63608399D01*
X154240043Y-63542001D01*
X154660717Y-63542001D01*
X154660717Y-66900000D01*
X154709380Y-67144643D01*
X154847959Y-67352041D01*
X155055357Y-67490620D01*
X155300000Y-67539283D01*
X157300000Y-67539283D01*
X157544643Y-67490620D01*
X157752041Y-67352041D01*
X157890620Y-67144643D01*
X157939283Y-66900000D01*
X157939283Y-63542001D01*
X162194569Y-63542001D01*
X162207959Y-63562041D01*
X162415357Y-63700620D01*
X162660000Y-63749283D01*
X163570000Y-63749283D01*
X163814643Y-63700620D01*
X164022041Y-63562041D01*
X164160620Y-63354643D01*
X164209283Y-63110000D01*
X164209283Y-62775477D01*
X164264079Y-62500000D01*
X164209283Y-62224524D01*
X164209283Y-61890000D01*
X164160620Y-61645357D01*
X164022041Y-61437959D01*
X163814643Y-61299380D01*
X163570000Y-61250717D01*
X162660000Y-61250717D01*
X162472563Y-61288001D01*
X157939283Y-61288001D01*
X157939283Y-58057000D01*
X171560717Y-58057000D01*
X171560717Y-61373000D01*
X167194823Y-61373000D01*
X167084643Y-61299380D01*
X166840000Y-61250717D01*
X165930000Y-61250717D01*
X165685357Y-61299380D01*
X165477959Y-61437959D01*
X165339380Y-61645357D01*
X165290717Y-61890000D01*
X165290717Y-62224521D01*
X165235921Y-62500000D01*
X165290717Y-62775479D01*
X165290717Y-63110000D01*
X165339380Y-63354643D01*
X165477959Y-63562041D01*
X165685357Y-63700620D01*
X165930000Y-63749283D01*
X166840000Y-63749283D01*
X167084643Y-63700620D01*
X167194823Y-63627000D01*
X171560717Y-63627000D01*
X171560717Y-66900000D01*
X171609380Y-67144643D01*
X171747959Y-67352041D01*
X171955357Y-67490620D01*
X172200000Y-67539283D01*
X174200000Y-67539283D01*
X174444643Y-67490620D01*
X174652041Y-67352041D01*
X174790620Y-67144643D01*
X174839283Y-66900000D01*
X174839283Y-63542001D01*
X175358266Y-63542001D01*
X175397909Y-63601331D01*
X175605307Y-63739910D01*
X175849950Y-63788573D01*
X176512679Y-63788573D01*
X176347909Y-63898669D01*
X176209330Y-64106067D01*
X176160667Y-64350710D01*
X176160667Y-64696655D01*
X176061581Y-64795741D01*
X175967479Y-64858618D01*
X175904603Y-64952719D01*
X175718390Y-65231406D01*
X175630921Y-65671140D01*
X175653001Y-65782143D01*
X175653000Y-67088248D01*
X175640717Y-67150000D01*
X175640717Y-67700752D01*
X175630921Y-67750000D01*
X175640717Y-67799248D01*
X175640717Y-68350000D01*
X175689380Y-68594643D01*
X175827959Y-68802041D01*
X176035357Y-68940620D01*
X176280000Y-68989283D01*
X177280000Y-68989283D01*
X177524643Y-68940620D01*
X177679721Y-68837000D01*
X177998144Y-68837000D01*
X178212158Y-68980000D01*
X177851191Y-69221191D01*
X177535796Y-69693212D01*
X177425044Y-70250000D01*
X177535796Y-70806788D01*
X177851191Y-71278809D01*
X178323212Y-71594204D01*
X178739456Y-71677000D01*
X179020544Y-71677000D01*
X179436788Y-71594204D01*
X179761856Y-71377000D01*
X179880143Y-71377000D01*
X179975357Y-71440620D01*
X180220000Y-71489283D01*
X181046899Y-71489283D01*
X171711580Y-80824602D01*
X171617479Y-80887478D01*
X171554603Y-80981579D01*
X171368390Y-81260266D01*
X171280921Y-81700000D01*
X171303001Y-81811003D01*
X171303000Y-86483181D01*
X158293181Y-99493001D01*
X151716819Y-99493001D01*
X145267000Y-93043183D01*
X145267000Y-87657479D01*
X145731244Y-87193235D01*
X146017000Y-86503359D01*
X146017000Y-85756641D01*
X145731244Y-85066765D01*
X145203235Y-84538756D01*
X144513359Y-84253000D01*
X143766641Y-84253000D01*
X143076765Y-84538756D01*
X142548756Y-85066765D01*
X142263000Y-85756641D01*
X142263000Y-86503359D01*
X142548756Y-87193235D01*
X143013000Y-87657479D01*
X143013001Y-93398998D01*
X142990921Y-93510001D01*
X143078390Y-93949735D01*
X143143729Y-94047521D01*
X143327479Y-94322523D01*
X143421580Y-94385399D01*
X148529181Y-99493001D01*
X145500997Y-99493001D01*
X145389999Y-99470922D01*
X145279001Y-99493001D01*
X145279000Y-99493001D01*
X144950266Y-99558390D01*
X144843481Y-99629741D01*
X144513359Y-99493000D01*
X143766641Y-99493000D01*
X143076765Y-99778756D01*
X142548756Y-100306765D01*
X142263000Y-100996641D01*
X142263000Y-101373000D01*
X141424504Y-101373000D01*
X141429079Y-101350000D01*
X141407000Y-101239002D01*
X141407000Y-100411750D01*
X141419283Y-100350000D01*
X141419283Y-99150000D01*
X141370620Y-98905357D01*
X141232041Y-98697959D01*
X141024643Y-98559380D01*
X140780000Y-98510717D01*
X139860980Y-98510717D01*
X139869079Y-98469999D01*
X139830689Y-98277000D01*
X139781611Y-98030267D01*
X139532522Y-97657478D01*
X139438420Y-97594601D01*
X139389283Y-97545464D01*
X139389283Y-96500000D01*
X139340620Y-96255357D01*
X139202041Y-96047959D01*
X138994643Y-95909380D01*
X138750000Y-95860717D01*
X136750000Y-95860717D01*
X136505357Y-95909380D01*
X136297959Y-96047959D01*
X136159380Y-96255357D01*
X136110717Y-96500000D01*
X136110717Y-98500000D01*
X136159380Y-98744643D01*
X136297959Y-98952041D01*
X136505357Y-99090620D01*
X136750000Y-99139283D01*
X137582849Y-99139283D01*
X137580717Y-99150000D01*
X137580717Y-100350000D01*
X137629380Y-100594643D01*
X137767959Y-100802041D01*
X137975357Y-100940620D01*
X138220000Y-100989283D01*
X139046899Y-100989283D01*
X138796353Y-101239829D01*
X138650000Y-101210717D01*
X137350000Y-101210717D01*
X137105357Y-101259380D01*
X136897959Y-101397959D01*
X136759380Y-101605357D01*
X136710717Y-101850000D01*
X136710717Y-102195465D01*
X136533182Y-102373000D01*
X132987156Y-102373000D01*
X132742762Y-102007238D01*
X132287279Y-101702894D01*
X131750000Y-101596023D01*
X131212722Y-101702894D01*
X130757239Y-102007238D01*
X130500000Y-102392222D01*
X130242762Y-102007238D01*
X129837000Y-101736117D01*
X129837000Y-100749283D01*
X131110000Y-100749283D01*
X131354643Y-100700620D01*
X131562041Y-100562041D01*
X131700620Y-100354643D01*
X131749283Y-100110000D01*
X131749283Y-100103282D01*
X131880000Y-100129283D01*
X133150000Y-100129283D01*
X133394643Y-100080620D01*
X133602041Y-99942041D01*
X133740620Y-99734643D01*
X133789283Y-99490000D01*
X133789283Y-98090000D01*
X133740620Y-97845357D01*
X133676904Y-97750000D01*
X133740620Y-97654643D01*
X133789283Y-97410000D01*
X133789283Y-96010000D01*
X133740620Y-95765357D01*
X133648173Y-95627000D01*
X140000000Y-95627000D01*
X140239943Y-95579272D01*
X140443356Y-95443356D01*
X140579272Y-95239943D01*
X140627000Y-95000000D01*
X140627000Y-82877000D01*
X167500000Y-82877000D01*
X167731644Y-82832641D01*
X167936978Y-82699644D01*
X168075786Y-82498193D01*
X168126936Y-82258956D01*
X168376936Y-64758956D01*
X168329272Y-64510057D01*
X168193356Y-64306644D01*
X167989943Y-64170728D01*
X167750000Y-64123000D01*
X161250000Y-64123000D01*
X161016889Y-64167945D01*
X160811890Y-64301459D01*
X160673590Y-64503260D01*
X160623043Y-64742624D01*
X160580333Y-68373000D01*
X143341751Y-68373000D01*
X143426831Y-64714577D01*
X143379272Y-64460057D01*
X143243356Y-64256644D01*
X143039943Y-64120728D01*
X142800000Y-64073000D01*
X132400000Y-64073000D01*
X132160057Y-64120728D01*
X131956644Y-64256644D01*
X131820728Y-64460057D01*
X131773000Y-64700000D01*
X131773000Y-70340288D01*
X130356644Y-71756644D01*
X130223131Y-71954334D01*
X130173031Y-72193792D01*
X130123031Y-77243792D01*
X130123000Y-77250000D01*
X130123000Y-78540540D01*
X129924525Y-78580020D01*
X129717127Y-78718599D01*
X129362726Y-79073000D01*
X126029283Y-79073000D01*
X126029283Y-78950000D01*
X125980620Y-78705357D01*
X125842041Y-78497959D01*
X125634643Y-78359380D01*
X125390000Y-78310717D01*
X123390000Y-78310717D01*
X123145357Y-78359380D01*
X122937959Y-78497959D01*
X122799380Y-78705357D01*
X122750717Y-78950000D01*
X122750717Y-80950000D01*
X122799380Y-81194643D01*
X122937959Y-81402041D01*
X123145357Y-81540620D01*
X123390000Y-81589283D01*
X125390000Y-81589283D01*
X125634643Y-81540620D01*
X125842041Y-81402041D01*
X125980620Y-81194643D01*
X126029283Y-80950000D01*
X126029283Y-80827000D01*
X129224390Y-80827000D01*
X129575705Y-81178315D01*
X129783103Y-81316894D01*
X129824810Y-81325190D01*
X129833106Y-81366897D01*
X129971685Y-81574295D01*
X130123000Y-81725610D01*
X130123000Y-92250000D01*
X130179200Y-92509454D01*
X131206699Y-94769952D01*
X131110000Y-94750717D01*
X126310000Y-94750717D01*
X126065357Y-94799380D01*
X125857959Y-94937959D01*
X125719380Y-95145357D01*
X125670717Y-95390000D01*
X125670717Y-100110000D01*
X125719380Y-100354643D01*
X125857959Y-100562041D01*
X126065357Y-100700620D01*
X126310000Y-100749283D01*
X127583001Y-100749283D01*
X127583001Y-102848997D01*
X127560921Y-102960000D01*
X127648390Y-103399734D01*
X127792291Y-103615097D01*
X127873000Y-103735886D01*
X127873000Y-104135622D01*
X127952894Y-104537278D01*
X128257238Y-104992761D01*
X128712721Y-105297106D01*
X129250000Y-105403977D01*
X129787278Y-105297106D01*
X130242761Y-104992762D01*
X130500000Y-104607777D01*
X130757238Y-104992761D01*
X131212721Y-105297106D01*
X131750000Y-105403977D01*
X132287278Y-105297106D01*
X132742761Y-104992762D01*
X132987156Y-104627000D01*
X136889002Y-104627000D01*
X137000000Y-104649079D01*
X137110998Y-104627000D01*
X137110999Y-104627000D01*
X137439733Y-104561611D01*
X137812522Y-104312522D01*
X137875400Y-104218418D01*
X138304535Y-103789283D01*
X138650000Y-103789283D01*
X138894643Y-103740620D01*
X139054207Y-103634003D01*
X139130000Y-103649079D01*
X139240998Y-103627000D01*
X143399002Y-103627000D01*
X143510000Y-103649079D01*
X143620998Y-103627000D01*
X143620999Y-103627000D01*
X143949733Y-103561611D01*
X144322522Y-103312522D01*
X144366302Y-103247000D01*
X144513359Y-103247000D01*
X145203235Y-102961244D01*
X145731244Y-102433235D01*
X146015491Y-101747001D01*
X151139001Y-101747001D01*
X151249999Y-101769080D01*
X151360997Y-101747001D01*
X158649001Y-101747001D01*
X158759999Y-101769080D01*
X158870997Y-101747001D01*
X158870998Y-101747001D01*
X159199732Y-101681612D01*
X159572521Y-101432523D01*
X159635399Y-101338419D01*
X173148421Y-87825398D01*
X173242522Y-87762522D01*
X173491611Y-87389733D01*
X173557000Y-87060999D01*
X173557000Y-87060998D01*
X173579079Y-86950000D01*
X173557000Y-86839002D01*
X173557000Y-82166818D01*
X182998418Y-72725400D01*
X183092522Y-72662522D01*
X183341611Y-72289733D01*
X183407000Y-71960999D01*
X183407000Y-71960998D01*
X183429079Y-71850000D01*
X183407000Y-71739002D01*
X183407000Y-70911750D01*
X183419283Y-70850000D01*
X183419283Y-69650000D01*
X183407000Y-69588250D01*
X183407000Y-67166818D01*
X183508008Y-67065810D01*
X183692522Y-66942522D01*
X183755401Y-66848417D01*
X184123000Y-66480817D01*
X184123000Y-72490288D01*
X179056644Y-77556644D01*
X178920728Y-77760057D01*
X178882668Y-77951398D01*
X178882667Y-77951399D01*
X178873000Y-78000000D01*
X178873000Y-106273000D01*
X125856352Y-106273000D01*
X126074822Y-106054530D01*
X126627000Y-104721455D01*
X126627000Y-103278545D01*
X126074822Y-101945470D01*
X125054530Y-100925178D01*
X123721455Y-100373000D01*
X122278545Y-100373000D01*
X120945470Y-100925178D01*
X120727000Y-101143648D01*
X120727000Y-42106352D01*
X120945470Y-42324822D01*
X122278545Y-42877000D01*
X123721455Y-42877000D01*
X125054530Y-42324822D01*
X126074822Y-41304530D01*
X126627000Y-39971455D01*
X126627000Y-38528545D01*
X126074822Y-37195470D01*
X125856352Y-36977000D01*
X194143648Y-36977000D01*
X193925178Y-37195470D01*
G36*
X182507238Y-40992761D02*
X182962721Y-41297106D01*
X183500000Y-41403977D01*
X184037278Y-41297106D01*
X184492761Y-40992762D01*
X184737156Y-40627000D01*
X187262844Y-40627000D01*
X187507238Y-40992761D01*
X187962721Y-41297106D01*
X188084794Y-41321388D01*
X182801580Y-46604602D01*
X182707479Y-46667478D01*
X182644603Y-46761579D01*
X182458390Y-47040266D01*
X182370921Y-47480000D01*
X182393001Y-47591003D01*
X182393000Y-65023182D01*
X182221993Y-65194189D01*
X182037478Y-65317478D01*
X181974600Y-65411582D01*
X181561580Y-65824602D01*
X181467479Y-65887478D01*
X181404603Y-65981579D01*
X181218390Y-66260266D01*
X181130921Y-66700000D01*
X181153001Y-66811003D01*
X181153000Y-69010717D01*
X180220000Y-69010717D01*
X179975357Y-69059380D01*
X179880143Y-69123000D01*
X179761856Y-69123000D01*
X179547842Y-68980000D01*
X179908809Y-68738809D01*
X180224204Y-68266788D01*
X180334956Y-67710000D01*
X180224204Y-67153212D01*
X179908809Y-66681191D01*
X179436788Y-66365796D01*
X179020544Y-66283000D01*
X178739456Y-66283000D01*
X178323212Y-66365796D01*
X178120483Y-66501256D01*
X178190670Y-66396213D01*
X178239333Y-66151570D01*
X178239333Y-65724213D01*
X178261610Y-65690873D01*
X178349079Y-65251140D01*
X178261610Y-64811406D01*
X178239333Y-64778066D01*
X178239333Y-64350710D01*
X178190670Y-64106067D01*
X178052091Y-63898669D01*
X177844693Y-63760090D01*
X177600050Y-63711427D01*
X176937321Y-63711427D01*
X177102091Y-63601331D01*
X177240670Y-63393933D01*
X177289333Y-63149290D01*
X177289333Y-62721934D01*
X177311611Y-62688593D01*
X177377000Y-62359859D01*
X177377000Y-62359858D01*
X177399079Y-62248860D01*
X177377000Y-62137862D01*
X177377000Y-49512982D01*
X177434537Y-49474537D01*
X177463001Y-49431938D01*
X177463000Y-54629002D01*
X177440921Y-54740000D01*
X177463000Y-54850998D01*
X177528389Y-55179732D01*
X177528390Y-55179733D01*
X177528390Y-55179734D01*
X177574673Y-55249001D01*
X177777478Y-55552522D01*
X177871582Y-55615400D01*
X179123001Y-56866819D01*
X179123000Y-57618143D01*
X178905796Y-57943212D01*
X178795044Y-58500000D01*
X178905796Y-59056788D01*
X179221191Y-59528809D01*
X179582158Y-59770000D01*
X179221191Y-60011191D01*
X179188941Y-60059456D01*
X178937478Y-60227478D01*
X178688389Y-60600268D01*
X178623000Y-60929002D01*
X178623000Y-61880143D01*
X178559380Y-61975357D01*
X178510717Y-62220000D01*
X178510717Y-63220000D01*
X178559380Y-63464643D01*
X178697959Y-63672041D01*
X178905357Y-63810620D01*
X179150000Y-63859283D01*
X179700752Y-63859283D01*
X179750000Y-63869079D01*
X179799248Y-63859283D01*
X180350000Y-63859283D01*
X180594643Y-63810620D01*
X180802041Y-63672041D01*
X180940620Y-63464643D01*
X180989283Y-63220000D01*
X180989283Y-62262264D01*
X181278809Y-62068809D01*
X181594204Y-61596788D01*
X181704956Y-61040000D01*
X181594204Y-60483212D01*
X181278809Y-60011191D01*
X180917842Y-59770000D01*
X181278809Y-59528809D01*
X181594204Y-59056788D01*
X181704956Y-58500000D01*
X181594204Y-57943212D01*
X181377000Y-57618144D01*
X181377000Y-56510998D01*
X181399079Y-56400000D01*
X181371733Y-56262521D01*
X181311611Y-55960267D01*
X181062522Y-55587478D01*
X180968418Y-55524600D01*
X179717000Y-54273182D01*
X179717000Y-50772537D01*
X179721191Y-50778809D01*
X180193212Y-51094204D01*
X180609456Y-51177000D01*
X180890544Y-51177000D01*
X181306788Y-51094204D01*
X181778809Y-50778809D01*
X182094204Y-50306788D01*
X182204956Y-49750000D01*
X182094204Y-49193212D01*
X181877000Y-48868144D01*
X181877000Y-45869857D01*
X181940620Y-45774643D01*
X181989283Y-45530000D01*
X181989283Y-44530000D01*
X181940620Y-44285357D01*
X181916995Y-44250000D01*
X181940620Y-44214643D01*
X181989283Y-43970000D01*
X181989283Y-42970000D01*
X181940620Y-42725357D01*
X181802041Y-42517959D01*
X181594643Y-42379380D01*
X181350000Y-42330717D01*
X180150000Y-42330717D01*
X180088250Y-42343000D01*
X179000819Y-42343000D01*
X179498420Y-41845398D01*
X179592522Y-41782522D01*
X179841611Y-41409733D01*
X179907000Y-41080999D01*
X179907000Y-41080998D01*
X179929079Y-40970000D01*
X179907000Y-40859002D01*
X179907000Y-40842744D01*
X180007238Y-40992761D01*
X180462721Y-41297106D01*
X181000000Y-41403977D01*
X181537278Y-41297106D01*
X181992761Y-40992762D01*
X182250000Y-40607777D01*
X182507238Y-40992761D01*
X182507238Y-40992761D01*
G37*
X182507238Y-40992761D02*
X182962721Y-41297106D01*
X183500000Y-41403977D01*
X184037278Y-41297106D01*
X184492761Y-40992762D01*
X184737156Y-40627000D01*
X187262844Y-40627000D01*
X187507238Y-40992761D01*
X187962721Y-41297106D01*
X188084794Y-41321388D01*
X182801580Y-46604602D01*
X182707479Y-46667478D01*
X182644603Y-46761579D01*
X182458390Y-47040266D01*
X182370921Y-47480000D01*
X182393001Y-47591003D01*
X182393000Y-65023182D01*
X182221993Y-65194189D01*
X182037478Y-65317478D01*
X181974600Y-65411582D01*
X181561580Y-65824602D01*
X181467479Y-65887478D01*
X181404603Y-65981579D01*
X181218390Y-66260266D01*
X181130921Y-66700000D01*
X181153001Y-66811003D01*
X181153000Y-69010717D01*
X180220000Y-69010717D01*
X179975357Y-69059380D01*
X179880143Y-69123000D01*
X179761856Y-69123000D01*
X179547842Y-68980000D01*
X179908809Y-68738809D01*
X180224204Y-68266788D01*
X180334956Y-67710000D01*
X180224204Y-67153212D01*
X179908809Y-66681191D01*
X179436788Y-66365796D01*
X179020544Y-66283000D01*
X178739456Y-66283000D01*
X178323212Y-66365796D01*
X178120483Y-66501256D01*
X178190670Y-66396213D01*
X178239333Y-66151570D01*
X178239333Y-65724213D01*
X178261610Y-65690873D01*
X178349079Y-65251140D01*
X178261610Y-64811406D01*
X178239333Y-64778066D01*
X178239333Y-64350710D01*
X178190670Y-64106067D01*
X178052091Y-63898669D01*
X177844693Y-63760090D01*
X177600050Y-63711427D01*
X176937321Y-63711427D01*
X177102091Y-63601331D01*
X177240670Y-63393933D01*
X177289333Y-63149290D01*
X177289333Y-62721934D01*
X177311611Y-62688593D01*
X177377000Y-62359859D01*
X177377000Y-62359858D01*
X177399079Y-62248860D01*
X177377000Y-62137862D01*
X177377000Y-49512982D01*
X177434537Y-49474537D01*
X177463001Y-49431938D01*
X177463000Y-54629002D01*
X177440921Y-54740000D01*
X177463000Y-54850998D01*
X177528389Y-55179732D01*
X177528390Y-55179733D01*
X177528390Y-55179734D01*
X177574673Y-55249001D01*
X177777478Y-55552522D01*
X177871582Y-55615400D01*
X179123001Y-56866819D01*
X179123000Y-57618143D01*
X178905796Y-57943212D01*
X178795044Y-58500000D01*
X178905796Y-59056788D01*
X179221191Y-59528809D01*
X179582158Y-59770000D01*
X179221191Y-60011191D01*
X179188941Y-60059456D01*
X178937478Y-60227478D01*
X178688389Y-60600268D01*
X178623000Y-60929002D01*
X178623000Y-61880143D01*
X178559380Y-61975357D01*
X178510717Y-62220000D01*
X178510717Y-63220000D01*
X178559380Y-63464643D01*
X178697959Y-63672041D01*
X178905357Y-63810620D01*
X179150000Y-63859283D01*
X179700752Y-63859283D01*
X179750000Y-63869079D01*
X179799248Y-63859283D01*
X180350000Y-63859283D01*
X180594643Y-63810620D01*
X180802041Y-63672041D01*
X180940620Y-63464643D01*
X180989283Y-63220000D01*
X180989283Y-62262264D01*
X181278809Y-62068809D01*
X181594204Y-61596788D01*
X181704956Y-61040000D01*
X181594204Y-60483212D01*
X181278809Y-60011191D01*
X180917842Y-59770000D01*
X181278809Y-59528809D01*
X181594204Y-59056788D01*
X181704956Y-58500000D01*
X181594204Y-57943212D01*
X181377000Y-57618144D01*
X181377000Y-56510998D01*
X181399079Y-56400000D01*
X181371733Y-56262521D01*
X181311611Y-55960267D01*
X181062522Y-55587478D01*
X180968418Y-55524600D01*
X179717000Y-54273182D01*
X179717000Y-50772537D01*
X179721191Y-50778809D01*
X180193212Y-51094204D01*
X180609456Y-51177000D01*
X180890544Y-51177000D01*
X181306788Y-51094204D01*
X181778809Y-50778809D01*
X182094204Y-50306788D01*
X182204956Y-49750000D01*
X182094204Y-49193212D01*
X181877000Y-48868144D01*
X181877000Y-45869857D01*
X181940620Y-45774643D01*
X181989283Y-45530000D01*
X181989283Y-44530000D01*
X181940620Y-44285357D01*
X181916995Y-44250000D01*
X181940620Y-44214643D01*
X181989283Y-43970000D01*
X181989283Y-42970000D01*
X181940620Y-42725357D01*
X181802041Y-42517959D01*
X181594643Y-42379380D01*
X181350000Y-42330717D01*
X180150000Y-42330717D01*
X180088250Y-42343000D01*
X179000819Y-42343000D01*
X179498420Y-41845398D01*
X179592522Y-41782522D01*
X179841611Y-41409733D01*
X179907000Y-41080999D01*
X179907000Y-41080998D01*
X179929079Y-40970000D01*
X179907000Y-40859002D01*
X179907000Y-40842744D01*
X180007238Y-40992761D01*
X180462721Y-41297106D01*
X181000000Y-41403977D01*
X181537278Y-41297106D01*
X181992761Y-40992762D01*
X182250000Y-40607777D01*
X182507238Y-40992761D01*
G04 #@! TO.N,GND*
G36*
X199273000Y-70825837D02*
X199053183Y-70295152D01*
X198454848Y-69696817D01*
X197673087Y-69373000D01*
X196826913Y-69373000D01*
X196045152Y-69696817D01*
X195446817Y-70295152D01*
X195123000Y-71076913D01*
X195123000Y-71923087D01*
X195446817Y-72704848D01*
X196045152Y-73303183D01*
X196826913Y-73627000D01*
X197673087Y-73627000D01*
X198454848Y-73303183D01*
X199053183Y-72704848D01*
X199273001Y-72174163D01*
X199273001Y-101143649D01*
X199054530Y-100925178D01*
X197721455Y-100373000D01*
X196278545Y-100373000D01*
X194945470Y-100925178D01*
X193925178Y-101945470D01*
X193373000Y-103278545D01*
X193373000Y-104721455D01*
X193925178Y-106054530D01*
X194143648Y-106273000D01*
X179627000Y-106273000D01*
X179627000Y-78052606D01*
X184839803Y-72839803D01*
X184867333Y-72798601D01*
X184877000Y-72750000D01*
X184877000Y-63970818D01*
X188893161Y-67986980D01*
X188952894Y-68287279D01*
X189257238Y-68742762D01*
X189642222Y-69000000D01*
X189257238Y-69257238D01*
X188952894Y-69712721D01*
X188893619Y-70010717D01*
X188530000Y-70010717D01*
X188285357Y-70059380D01*
X188250000Y-70083005D01*
X188214643Y-70059380D01*
X187970000Y-70010717D01*
X187907360Y-70010717D01*
X187844204Y-69693212D01*
X187528809Y-69221191D01*
X187056788Y-68905796D01*
X186640544Y-68823000D01*
X186359456Y-68823000D01*
X185943212Y-68905796D01*
X185471191Y-69221191D01*
X185155796Y-69693212D01*
X185045044Y-70250000D01*
X185155796Y-70806788D01*
X185471191Y-71278809D01*
X185943212Y-71594204D01*
X186326657Y-71670476D01*
X186330717Y-71674536D01*
X186330717Y-71850000D01*
X186379380Y-72094643D01*
X186517959Y-72302041D01*
X186725357Y-72440620D01*
X186970000Y-72489283D01*
X187970000Y-72489283D01*
X188214643Y-72440620D01*
X188250000Y-72416995D01*
X188285357Y-72440620D01*
X188530000Y-72489283D01*
X188897883Y-72489283D01*
X188846023Y-72750000D01*
X188952894Y-73287279D01*
X189257238Y-73742762D01*
X189712721Y-74047106D01*
X190114377Y-74127000D01*
X191385623Y-74127000D01*
X191787279Y-74047106D01*
X191943000Y-73943056D01*
X191943001Y-77203181D01*
X191781580Y-77364602D01*
X191687479Y-77427478D01*
X191624603Y-77521579D01*
X191438390Y-77800266D01*
X191394053Y-78023162D01*
X191370620Y-77905357D01*
X191232041Y-77697959D01*
X191024643Y-77559380D01*
X190780000Y-77510717D01*
X189780000Y-77510717D01*
X189535357Y-77559380D01*
X189500000Y-77583005D01*
X189464643Y-77559380D01*
X189220000Y-77510717D01*
X188220000Y-77510717D01*
X188096570Y-77535269D01*
X188090620Y-77505357D01*
X187952041Y-77297959D01*
X187744643Y-77159380D01*
X187500000Y-77110717D01*
X185500000Y-77110717D01*
X185255357Y-77159380D01*
X185047959Y-77297959D01*
X184909380Y-77505357D01*
X184860717Y-77750000D01*
X184860717Y-79750000D01*
X184909380Y-79994643D01*
X185047959Y-80202041D01*
X185255357Y-80340620D01*
X185500000Y-80389283D01*
X187500000Y-80389283D01*
X187744643Y-80340620D01*
X187952041Y-80202041D01*
X188090620Y-79994643D01*
X188096570Y-79964731D01*
X188220000Y-79989283D01*
X189220000Y-79989283D01*
X189464643Y-79940620D01*
X189500000Y-79916995D01*
X189535357Y-79940620D01*
X189780000Y-79989283D01*
X189825465Y-79989283D01*
X191373001Y-81536820D01*
X191373001Y-82448522D01*
X190923235Y-81998756D01*
X190233359Y-81713000D01*
X189486641Y-81713000D01*
X188796765Y-81998756D01*
X188268756Y-82526765D01*
X187983000Y-83216641D01*
X187983000Y-83963359D01*
X188268756Y-84653235D01*
X188796765Y-85181244D01*
X189486641Y-85467000D01*
X190233359Y-85467000D01*
X190923235Y-85181244D01*
X191383001Y-84721478D01*
X191383000Y-91829001D01*
X191360921Y-91940000D01*
X191383000Y-92050998D01*
X191383001Y-92051003D01*
X191383000Y-99629001D01*
X191360921Y-99740000D01*
X191383000Y-99850998D01*
X191383001Y-101293180D01*
X190523147Y-102153034D01*
X190233359Y-102033000D01*
X189486641Y-102033000D01*
X188796765Y-102318756D01*
X188268756Y-102846765D01*
X187983000Y-103536641D01*
X187983000Y-104283359D01*
X188268756Y-104973235D01*
X188796765Y-105501244D01*
X189486641Y-105787000D01*
X190233359Y-105787000D01*
X190923235Y-105501244D01*
X191451244Y-104973235D01*
X191737000Y-104283359D01*
X191737000Y-104126818D01*
X193228420Y-102635398D01*
X193322522Y-102572522D01*
X193571611Y-102199733D01*
X193637000Y-101870999D01*
X193637000Y-101870998D01*
X193659079Y-101760000D01*
X193637000Y-101649002D01*
X193637000Y-100206818D01*
X195554536Y-98289283D01*
X195900000Y-98289283D01*
X196144643Y-98240620D01*
X196352041Y-98102041D01*
X196490620Y-97894643D01*
X196539283Y-97650000D01*
X196539283Y-96350000D01*
X196490620Y-96105357D01*
X196352041Y-95897959D01*
X196144643Y-95759380D01*
X195900000Y-95710717D01*
X194600000Y-95710717D01*
X194355357Y-95759380D01*
X194147959Y-95897959D01*
X194009380Y-96105357D01*
X193960717Y-96350000D01*
X193960717Y-96695464D01*
X193637000Y-97019181D01*
X193637000Y-92406818D01*
X194954536Y-91089283D01*
X195100000Y-91089283D01*
X195148271Y-91079681D01*
X195257238Y-91242762D01*
X195712721Y-91547106D01*
X196114377Y-91627000D01*
X197385623Y-91627000D01*
X197787279Y-91547106D01*
X198242762Y-91242762D01*
X198547106Y-90787279D01*
X198653977Y-90250000D01*
X198547106Y-89712721D01*
X198242762Y-89257238D01*
X197787279Y-88952894D01*
X197385623Y-88873000D01*
X196812367Y-88873000D01*
X196560999Y-88823000D01*
X196560998Y-88823000D01*
X196450000Y-88800921D01*
X196339002Y-88823000D01*
X195161750Y-88823000D01*
X195100000Y-88810717D01*
X194549248Y-88810717D01*
X194500000Y-88800921D01*
X194450752Y-88810717D01*
X193900000Y-88810717D01*
X193655357Y-88859380D01*
X193637000Y-88871646D01*
X193637000Y-84806818D01*
X194854536Y-83589283D01*
X195100000Y-83589283D01*
X195148271Y-83579681D01*
X195257238Y-83742762D01*
X195712721Y-84047106D01*
X196114377Y-84127000D01*
X197385623Y-84127000D01*
X197787279Y-84047106D01*
X198242762Y-83742762D01*
X198547106Y-83287279D01*
X198653977Y-82750000D01*
X198547106Y-82212721D01*
X198242762Y-81757238D01*
X197787279Y-81452894D01*
X197385623Y-81373000D01*
X196812367Y-81373000D01*
X196560999Y-81323000D01*
X196560998Y-81323000D01*
X196450000Y-81300921D01*
X196339002Y-81323000D01*
X195161750Y-81323000D01*
X195100000Y-81310717D01*
X194449247Y-81310717D01*
X194399999Y-81300921D01*
X194350751Y-81310717D01*
X193900000Y-81310717D01*
X193655357Y-81359380D01*
X193627000Y-81378328D01*
X193627000Y-81180997D01*
X193649079Y-81069999D01*
X193627000Y-80959001D01*
X193627000Y-78706818D01*
X193788418Y-78545400D01*
X193882522Y-78482522D01*
X194131611Y-78109733D01*
X194197000Y-77780999D01*
X194197000Y-77780998D01*
X194219079Y-77670000D01*
X194197000Y-77559002D01*
X194197000Y-73411750D01*
X194209283Y-73350000D01*
X194209283Y-72799248D01*
X194219079Y-72750000D01*
X194209283Y-72700752D01*
X194209283Y-72254535D01*
X194218418Y-72245400D01*
X194312522Y-72182522D01*
X194561611Y-71809733D01*
X194627000Y-71480999D01*
X194627000Y-71480998D01*
X194649079Y-71370000D01*
X194627000Y-71259002D01*
X194627000Y-70864035D01*
X194739735Y-70841611D01*
X195112524Y-70592522D01*
X195175402Y-70498418D01*
X195768421Y-69905400D01*
X195862522Y-69842524D01*
X196111611Y-69469735D01*
X196177000Y-69141001D01*
X196177000Y-69141000D01*
X196199079Y-69030003D01*
X196177000Y-68919005D01*
X196177000Y-65411750D01*
X196189283Y-65350000D01*
X196189283Y-64904535D01*
X196966819Y-64127000D01*
X197385623Y-64127000D01*
X197787279Y-64047106D01*
X198242762Y-63742762D01*
X198547106Y-63287279D01*
X198653977Y-62750000D01*
X198547106Y-62212721D01*
X198242762Y-61757238D01*
X197787279Y-61452894D01*
X197385623Y-61373000D01*
X196114377Y-61373000D01*
X195712721Y-61452894D01*
X195627000Y-61510171D01*
X195627000Y-60030998D01*
X195649079Y-59920000D01*
X195627000Y-59809001D01*
X195627000Y-56489829D01*
X195712721Y-56547106D01*
X196114377Y-56627000D01*
X197385623Y-56627000D01*
X197787279Y-56547106D01*
X198242762Y-56242762D01*
X198547106Y-55787279D01*
X198653977Y-55250000D01*
X198547106Y-54712721D01*
X198242762Y-54257238D01*
X197787279Y-53952894D01*
X197385623Y-53873000D01*
X196114377Y-53873000D01*
X195712721Y-53952894D01*
X195458139Y-54123000D01*
X194810998Y-54123000D01*
X194700000Y-54100921D01*
X194589002Y-54123000D01*
X194589001Y-54123000D01*
X194260267Y-54188389D01*
X194077190Y-54310717D01*
X193900000Y-54310717D01*
X193655357Y-54359380D01*
X193579283Y-54410211D01*
X193579283Y-54360000D01*
X193530620Y-54115357D01*
X193392041Y-53907959D01*
X193184643Y-53769380D01*
X192940000Y-53720717D01*
X190940000Y-53720717D01*
X190695357Y-53769380D01*
X190487959Y-53907959D01*
X190392199Y-54051273D01*
X190321622Y-53980696D01*
X189723630Y-53733000D01*
X189076370Y-53733000D01*
X188478378Y-53980696D01*
X188020696Y-54438378D01*
X187773000Y-55036370D01*
X187773000Y-55393182D01*
X186651580Y-56514602D01*
X186557479Y-56577478D01*
X186308389Y-56950267D01*
X186267507Y-57155796D01*
X186220921Y-57390000D01*
X186243000Y-57500998D01*
X186243000Y-58610998D01*
X186308389Y-58939732D01*
X186557478Y-59312522D01*
X186808941Y-59480544D01*
X186841191Y-59528809D01*
X187202158Y-59770000D01*
X186841191Y-60011191D01*
X186816952Y-60047467D01*
X186577478Y-60207478D01*
X186514600Y-60301582D01*
X186494603Y-60321579D01*
X186308390Y-60600266D01*
X186220921Y-61040000D01*
X186308390Y-61479734D01*
X186557479Y-61852521D01*
X186808940Y-62020543D01*
X186841191Y-62068809D01*
X187313212Y-62384204D01*
X187729456Y-62467000D01*
X188010544Y-62467000D01*
X188426788Y-62384204D01*
X188649590Y-62235332D01*
X188770000Y-62259283D01*
X189770000Y-62259283D01*
X190014643Y-62210620D01*
X190222041Y-62072041D01*
X190360620Y-61864643D01*
X190409283Y-61620000D01*
X190409283Y-61069248D01*
X190419079Y-61020000D01*
X190409283Y-60970752D01*
X190409283Y-60420000D01*
X190360620Y-60175357D01*
X190222041Y-59967959D01*
X190014643Y-59829380D01*
X189770000Y-59780717D01*
X188770000Y-59780717D01*
X188603459Y-59813844D01*
X188537842Y-59770000D01*
X188898809Y-59528809D01*
X189214204Y-59056788D01*
X189324956Y-58500000D01*
X189214204Y-57943212D01*
X188898809Y-57471191D01*
X188889109Y-57464709D01*
X189366818Y-56987000D01*
X189723630Y-56987000D01*
X190321622Y-56739304D01*
X190392199Y-56668727D01*
X190487959Y-56812041D01*
X190695357Y-56950620D01*
X190813001Y-56974021D01*
X190813001Y-57248997D01*
X190790921Y-57360000D01*
X190878390Y-57799734D01*
X190974259Y-57943212D01*
X191127479Y-58172522D01*
X191221580Y-58235398D01*
X193373000Y-60386818D01*
X193373000Y-64089002D01*
X193350921Y-64200000D01*
X193373000Y-64310998D01*
X193438389Y-64639732D01*
X193438390Y-64639733D01*
X193438390Y-64639734D01*
X193487224Y-64712819D01*
X193687478Y-65012522D01*
X193781582Y-65075400D01*
X193910717Y-65204535D01*
X193910717Y-65350000D01*
X193923000Y-65411750D01*
X193923000Y-66460998D01*
X193923001Y-66461003D01*
X193923001Y-67080717D01*
X193878231Y-67080717D01*
X193782522Y-66937478D01*
X193409733Y-66688389D01*
X193080999Y-66623000D01*
X192041861Y-66623000D01*
X191787279Y-66452894D01*
X191385623Y-66373000D01*
X190466819Y-66373000D01*
X186077000Y-61983182D01*
X186077000Y-55666818D01*
X186188418Y-55555400D01*
X186282522Y-55492522D01*
X186531611Y-55119733D01*
X186597000Y-54790999D01*
X186619079Y-54680001D01*
X186597000Y-54569003D01*
X186597000Y-53161750D01*
X186609283Y-53100000D01*
X186609283Y-51900000D01*
X186597000Y-51838250D01*
X186597000Y-51366818D01*
X187086818Y-50877000D01*
X187488144Y-50877000D01*
X187813212Y-51094204D01*
X188229456Y-51177000D01*
X188510544Y-51177000D01*
X188926788Y-51094204D01*
X189398809Y-50778809D01*
X189714204Y-50306788D01*
X189824956Y-49750000D01*
X189714204Y-49193212D01*
X189398809Y-48721191D01*
X188926788Y-48405796D01*
X188782021Y-48377000D01*
X199273000Y-48377000D01*
X199273000Y-70825837D01*
X199273000Y-70825837D01*
G37*
X199273000Y-70825837D02*
X199053183Y-70295152D01*
X198454848Y-69696817D01*
X197673087Y-69373000D01*
X196826913Y-69373000D01*
X196045152Y-69696817D01*
X195446817Y-70295152D01*
X195123000Y-71076913D01*
X195123000Y-71923087D01*
X195446817Y-72704848D01*
X196045152Y-73303183D01*
X196826913Y-73627000D01*
X197673087Y-73627000D01*
X198454848Y-73303183D01*
X199053183Y-72704848D01*
X199273001Y-72174163D01*
X199273001Y-101143649D01*
X199054530Y-100925178D01*
X197721455Y-100373000D01*
X196278545Y-100373000D01*
X194945470Y-100925178D01*
X193925178Y-101945470D01*
X193373000Y-103278545D01*
X193373000Y-104721455D01*
X193925178Y-106054530D01*
X194143648Y-106273000D01*
X179627000Y-106273000D01*
X179627000Y-78052606D01*
X184839803Y-72839803D01*
X184867333Y-72798601D01*
X184877000Y-72750000D01*
X184877000Y-63970818D01*
X188893161Y-67986980D01*
X188952894Y-68287279D01*
X189257238Y-68742762D01*
X189642222Y-69000000D01*
X189257238Y-69257238D01*
X188952894Y-69712721D01*
X188893619Y-70010717D01*
X188530000Y-70010717D01*
X188285357Y-70059380D01*
X188250000Y-70083005D01*
X188214643Y-70059380D01*
X187970000Y-70010717D01*
X187907360Y-70010717D01*
X187844204Y-69693212D01*
X187528809Y-69221191D01*
X187056788Y-68905796D01*
X186640544Y-68823000D01*
X186359456Y-68823000D01*
X185943212Y-68905796D01*
X185471191Y-69221191D01*
X185155796Y-69693212D01*
X185045044Y-70250000D01*
X185155796Y-70806788D01*
X185471191Y-71278809D01*
X185943212Y-71594204D01*
X186326657Y-71670476D01*
X186330717Y-71674536D01*
X186330717Y-71850000D01*
X186379380Y-72094643D01*
X186517959Y-72302041D01*
X186725357Y-72440620D01*
X186970000Y-72489283D01*
X187970000Y-72489283D01*
X188214643Y-72440620D01*
X188250000Y-72416995D01*
X188285357Y-72440620D01*
X188530000Y-72489283D01*
X188897883Y-72489283D01*
X188846023Y-72750000D01*
X188952894Y-73287279D01*
X189257238Y-73742762D01*
X189712721Y-74047106D01*
X190114377Y-74127000D01*
X191385623Y-74127000D01*
X191787279Y-74047106D01*
X191943000Y-73943056D01*
X191943001Y-77203181D01*
X191781580Y-77364602D01*
X191687479Y-77427478D01*
X191624603Y-77521579D01*
X191438390Y-77800266D01*
X191394053Y-78023162D01*
X191370620Y-77905357D01*
X191232041Y-77697959D01*
X191024643Y-77559380D01*
X190780000Y-77510717D01*
X189780000Y-77510717D01*
X189535357Y-77559380D01*
X189500000Y-77583005D01*
X189464643Y-77559380D01*
X189220000Y-77510717D01*
X188220000Y-77510717D01*
X188096570Y-77535269D01*
X188090620Y-77505357D01*
X187952041Y-77297959D01*
X187744643Y-77159380D01*
X187500000Y-77110717D01*
X185500000Y-77110717D01*
X185255357Y-77159380D01*
X185047959Y-77297959D01*
X184909380Y-77505357D01*
X184860717Y-77750000D01*
X184860717Y-79750000D01*
X184909380Y-79994643D01*
X185047959Y-80202041D01*
X185255357Y-80340620D01*
X185500000Y-80389283D01*
X187500000Y-80389283D01*
X187744643Y-80340620D01*
X187952041Y-80202041D01*
X188090620Y-79994643D01*
X188096570Y-79964731D01*
X188220000Y-79989283D01*
X189220000Y-79989283D01*
X189464643Y-79940620D01*
X189500000Y-79916995D01*
X189535357Y-79940620D01*
X189780000Y-79989283D01*
X189825465Y-79989283D01*
X191373001Y-81536820D01*
X191373001Y-82448522D01*
X190923235Y-81998756D01*
X190233359Y-81713000D01*
X189486641Y-81713000D01*
X188796765Y-81998756D01*
X188268756Y-82526765D01*
X187983000Y-83216641D01*
X187983000Y-83963359D01*
X188268756Y-84653235D01*
X188796765Y-85181244D01*
X189486641Y-85467000D01*
X190233359Y-85467000D01*
X190923235Y-85181244D01*
X191383001Y-84721478D01*
X191383000Y-91829001D01*
X191360921Y-91940000D01*
X191383000Y-92050998D01*
X191383001Y-92051003D01*
X191383000Y-99629001D01*
X191360921Y-99740000D01*
X191383000Y-99850998D01*
X191383001Y-101293180D01*
X190523147Y-102153034D01*
X190233359Y-102033000D01*
X189486641Y-102033000D01*
X188796765Y-102318756D01*
X188268756Y-102846765D01*
X187983000Y-103536641D01*
X187983000Y-104283359D01*
X188268756Y-104973235D01*
X188796765Y-105501244D01*
X189486641Y-105787000D01*
X190233359Y-105787000D01*
X190923235Y-105501244D01*
X191451244Y-104973235D01*
X191737000Y-104283359D01*
X191737000Y-104126818D01*
X193228420Y-102635398D01*
X193322522Y-102572522D01*
X193571611Y-102199733D01*
X193637000Y-101870999D01*
X193637000Y-101870998D01*
X193659079Y-101760000D01*
X193637000Y-101649002D01*
X193637000Y-100206818D01*
X195554536Y-98289283D01*
X195900000Y-98289283D01*
X196144643Y-98240620D01*
X196352041Y-98102041D01*
X196490620Y-97894643D01*
X196539283Y-97650000D01*
X196539283Y-96350000D01*
X196490620Y-96105357D01*
X196352041Y-95897959D01*
X196144643Y-95759380D01*
X195900000Y-95710717D01*
X194600000Y-95710717D01*
X194355357Y-95759380D01*
X194147959Y-95897959D01*
X194009380Y-96105357D01*
X193960717Y-96350000D01*
X193960717Y-96695464D01*
X193637000Y-97019181D01*
X193637000Y-92406818D01*
X194954536Y-91089283D01*
X195100000Y-91089283D01*
X195148271Y-91079681D01*
X195257238Y-91242762D01*
X195712721Y-91547106D01*
X196114377Y-91627000D01*
X197385623Y-91627000D01*
X197787279Y-91547106D01*
X198242762Y-91242762D01*
X198547106Y-90787279D01*
X198653977Y-90250000D01*
X198547106Y-89712721D01*
X198242762Y-89257238D01*
X197787279Y-88952894D01*
X197385623Y-88873000D01*
X196812367Y-88873000D01*
X196560999Y-88823000D01*
X196560998Y-88823000D01*
X196450000Y-88800921D01*
X196339002Y-88823000D01*
X195161750Y-88823000D01*
X195100000Y-88810717D01*
X194549248Y-88810717D01*
X194500000Y-88800921D01*
X194450752Y-88810717D01*
X193900000Y-88810717D01*
X193655357Y-88859380D01*
X193637000Y-88871646D01*
X193637000Y-84806818D01*
X194854536Y-83589283D01*
X195100000Y-83589283D01*
X195148271Y-83579681D01*
X195257238Y-83742762D01*
X195712721Y-84047106D01*
X196114377Y-84127000D01*
X197385623Y-84127000D01*
X197787279Y-84047106D01*
X198242762Y-83742762D01*
X198547106Y-83287279D01*
X198653977Y-82750000D01*
X198547106Y-82212721D01*
X198242762Y-81757238D01*
X197787279Y-81452894D01*
X197385623Y-81373000D01*
X196812367Y-81373000D01*
X196560999Y-81323000D01*
X196560998Y-81323000D01*
X196450000Y-81300921D01*
X196339002Y-81323000D01*
X195161750Y-81323000D01*
X195100000Y-81310717D01*
X194449247Y-81310717D01*
X194399999Y-81300921D01*
X194350751Y-81310717D01*
X193900000Y-81310717D01*
X193655357Y-81359380D01*
X193627000Y-81378328D01*
X193627000Y-81180997D01*
X193649079Y-81069999D01*
X193627000Y-80959001D01*
X193627000Y-78706818D01*
X193788418Y-78545400D01*
X193882522Y-78482522D01*
X194131611Y-78109733D01*
X194197000Y-77780999D01*
X194197000Y-77780998D01*
X194219079Y-77670000D01*
X194197000Y-77559002D01*
X194197000Y-73411750D01*
X194209283Y-73350000D01*
X194209283Y-72799248D01*
X194219079Y-72750000D01*
X194209283Y-72700752D01*
X194209283Y-72254535D01*
X194218418Y-72245400D01*
X194312522Y-72182522D01*
X194561611Y-71809733D01*
X194627000Y-71480999D01*
X194627000Y-71480998D01*
X194649079Y-71370000D01*
X194627000Y-71259002D01*
X194627000Y-70864035D01*
X194739735Y-70841611D01*
X195112524Y-70592522D01*
X195175402Y-70498418D01*
X195768421Y-69905400D01*
X195862522Y-69842524D01*
X196111611Y-69469735D01*
X196177000Y-69141001D01*
X196177000Y-69141000D01*
X196199079Y-69030003D01*
X196177000Y-68919005D01*
X196177000Y-65411750D01*
X196189283Y-65350000D01*
X196189283Y-64904535D01*
X196966819Y-64127000D01*
X197385623Y-64127000D01*
X197787279Y-64047106D01*
X198242762Y-63742762D01*
X198547106Y-63287279D01*
X198653977Y-62750000D01*
X198547106Y-62212721D01*
X198242762Y-61757238D01*
X197787279Y-61452894D01*
X197385623Y-61373000D01*
X196114377Y-61373000D01*
X195712721Y-61452894D01*
X195627000Y-61510171D01*
X195627000Y-60030998D01*
X195649079Y-59920000D01*
X195627000Y-59809001D01*
X195627000Y-56489829D01*
X195712721Y-56547106D01*
X196114377Y-56627000D01*
X197385623Y-56627000D01*
X197787279Y-56547106D01*
X198242762Y-56242762D01*
X198547106Y-55787279D01*
X198653977Y-55250000D01*
X198547106Y-54712721D01*
X198242762Y-54257238D01*
X197787279Y-53952894D01*
X197385623Y-53873000D01*
X196114377Y-53873000D01*
X195712721Y-53952894D01*
X195458139Y-54123000D01*
X194810998Y-54123000D01*
X194700000Y-54100921D01*
X194589002Y-54123000D01*
X194589001Y-54123000D01*
X194260267Y-54188389D01*
X194077190Y-54310717D01*
X193900000Y-54310717D01*
X193655357Y-54359380D01*
X193579283Y-54410211D01*
X193579283Y-54360000D01*
X193530620Y-54115357D01*
X193392041Y-53907959D01*
X193184643Y-53769380D01*
X192940000Y-53720717D01*
X190940000Y-53720717D01*
X190695357Y-53769380D01*
X190487959Y-53907959D01*
X190392199Y-54051273D01*
X190321622Y-53980696D01*
X189723630Y-53733000D01*
X189076370Y-53733000D01*
X188478378Y-53980696D01*
X188020696Y-54438378D01*
X187773000Y-55036370D01*
X187773000Y-55393182D01*
X186651580Y-56514602D01*
X186557479Y-56577478D01*
X186308389Y-56950267D01*
X186267507Y-57155796D01*
X186220921Y-57390000D01*
X186243000Y-57500998D01*
X186243000Y-58610998D01*
X186308389Y-58939732D01*
X186557478Y-59312522D01*
X186808941Y-59480544D01*
X186841191Y-59528809D01*
X187202158Y-59770000D01*
X186841191Y-60011191D01*
X186816952Y-60047467D01*
X186577478Y-60207478D01*
X186514600Y-60301582D01*
X186494603Y-60321579D01*
X186308390Y-60600266D01*
X186220921Y-61040000D01*
X186308390Y-61479734D01*
X186557479Y-61852521D01*
X186808940Y-62020543D01*
X186841191Y-62068809D01*
X187313212Y-62384204D01*
X187729456Y-62467000D01*
X188010544Y-62467000D01*
X188426788Y-62384204D01*
X188649590Y-62235332D01*
X188770000Y-62259283D01*
X189770000Y-62259283D01*
X190014643Y-62210620D01*
X190222041Y-62072041D01*
X190360620Y-61864643D01*
X190409283Y-61620000D01*
X190409283Y-61069248D01*
X190419079Y-61020000D01*
X190409283Y-60970752D01*
X190409283Y-60420000D01*
X190360620Y-60175357D01*
X190222041Y-59967959D01*
X190014643Y-59829380D01*
X189770000Y-59780717D01*
X188770000Y-59780717D01*
X188603459Y-59813844D01*
X188537842Y-59770000D01*
X188898809Y-59528809D01*
X189214204Y-59056788D01*
X189324956Y-58500000D01*
X189214204Y-57943212D01*
X188898809Y-57471191D01*
X188889109Y-57464709D01*
X189366818Y-56987000D01*
X189723630Y-56987000D01*
X190321622Y-56739304D01*
X190392199Y-56668727D01*
X190487959Y-56812041D01*
X190695357Y-56950620D01*
X190813001Y-56974021D01*
X190813001Y-57248997D01*
X190790921Y-57360000D01*
X190878390Y-57799734D01*
X190974259Y-57943212D01*
X191127479Y-58172522D01*
X191221580Y-58235398D01*
X193373000Y-60386818D01*
X193373000Y-64089002D01*
X193350921Y-64200000D01*
X193373000Y-64310998D01*
X193438389Y-64639732D01*
X193438390Y-64639733D01*
X193438390Y-64639734D01*
X193487224Y-64712819D01*
X193687478Y-65012522D01*
X193781582Y-65075400D01*
X193910717Y-65204535D01*
X193910717Y-65350000D01*
X193923000Y-65411750D01*
X193923000Y-66460998D01*
X193923001Y-66461003D01*
X193923001Y-67080717D01*
X193878231Y-67080717D01*
X193782522Y-66937478D01*
X193409733Y-66688389D01*
X193080999Y-66623000D01*
X192041861Y-66623000D01*
X191787279Y-66452894D01*
X191385623Y-66373000D01*
X190466819Y-66373000D01*
X186077000Y-61983182D01*
X186077000Y-55666818D01*
X186188418Y-55555400D01*
X186282522Y-55492522D01*
X186531611Y-55119733D01*
X186597000Y-54790999D01*
X186619079Y-54680001D01*
X186597000Y-54569003D01*
X186597000Y-53161750D01*
X186609283Y-53100000D01*
X186609283Y-51900000D01*
X186597000Y-51838250D01*
X186597000Y-51366818D01*
X187086818Y-50877000D01*
X187488144Y-50877000D01*
X187813212Y-51094204D01*
X188229456Y-51177000D01*
X188510544Y-51177000D01*
X188926788Y-51094204D01*
X189398809Y-50778809D01*
X189714204Y-50306788D01*
X189824956Y-49750000D01*
X189714204Y-49193212D01*
X189398809Y-48721191D01*
X188926788Y-48405796D01*
X188782021Y-48377000D01*
X199273000Y-48377000D01*
X199273000Y-70825837D01*
G04 #@! TD*
M02*
