G04 #@! TF.GenerationSoftware,KiCad,Pcbnew,(5.0.0)*
G04 #@! TF.CreationDate,2019-02-26T15:30:30+09:00*
G04 #@! TF.ProjectId,stm32f4_Centaurus,73746D333266345F43656E7461757275,rev?*
G04 #@! TF.SameCoordinates,Original*
G04 #@! TF.FileFunction,Soldermask,Bot*
G04 #@! TF.FilePolarity,Negative*
%FSLAX46Y46*%
G04 Gerber Fmt 4.6, Leading zero omitted, Abs format (unit mm)*
G04 Created by KiCad (PCBNEW (5.0.0)) date 02/26/19 15:30:30*
%MOMM*%
%LPD*%
G01*
G04 APERTURE LIST*
%ADD10C,0.010000*%
%ADD11O,2.900000X1.900000*%
%ADD12R,1.620000X1.310000*%
%ADD13R,1.600000X1.400000*%
%ADD14O,2.000000X2.000000*%
%ADD15O,2.127200X2.432000*%
%ADD16R,2.127200X2.432000*%
%ADD17R,2.127200X2.127200*%
%ADD18O,2.127200X2.127200*%
%ADD19C,3.400000*%
%ADD20R,1.400000X1.600000*%
%ADD21R,1.310000X1.620000*%
%ADD22R,2.800000X4.600000*%
%ADD23O,1.924000X1.400000*%
%ADD24C,1.901140*%
%ADD25C,3.399740*%
%ADD26R,2.400000X1.600000*%
%ADD27R,2.900000X3.900000*%
%ADD28O,1.650000X1.350000*%
%ADD29O,1.400000X1.950000*%
%ADD30O,1.900000X2.900000*%
%ADD31O,2.432000X2.127200*%
%ADD32R,2.432000X2.127200*%
%ADD33R,1.200100X1.200100*%
%ADD34R,1.400760X1.090880*%
%ADD35R,1.950000X1.000000*%
%ADD36R,2.432000X2.432000*%
%ADD37O,2.432000X2.432000*%
%ADD38R,1.365200X1.670000*%
%ADD39O,1.900000X2.400000*%
%ADD40R,3.900000X2.400000*%
%ADD41R,1.797000X1.797000*%
%ADD42C,1.797000*%
G04 APERTURE END LIST*
D10*
G04 #@! TO.C,U10*
G36*
X60353264Y-66966375D02*
X60261575Y-66966446D01*
X60174218Y-66966636D01*
X60092029Y-66966939D01*
X60015845Y-66967347D01*
X59946504Y-66967851D01*
X59884843Y-66968443D01*
X59831699Y-66969117D01*
X59787909Y-66969863D01*
X59754309Y-66970674D01*
X59731738Y-66971542D01*
X59721637Y-66972350D01*
X59695126Y-66976427D01*
X59668508Y-66980397D01*
X59655459Y-66982280D01*
X59622039Y-66989215D01*
X59582223Y-67000859D01*
X59540539Y-67015633D01*
X59501515Y-67031956D01*
X59474777Y-67045333D01*
X59421867Y-67081802D01*
X59376174Y-67127687D01*
X59338800Y-67181379D01*
X59310847Y-67241270D01*
X59293417Y-67305753D01*
X59292459Y-67311374D01*
X59289132Y-67331830D01*
X59971293Y-67333434D01*
X60653455Y-67335038D01*
X60680153Y-67413822D01*
X60688670Y-67438922D01*
X60700551Y-67473882D01*
X60715091Y-67516631D01*
X60731584Y-67565098D01*
X60749327Y-67617212D01*
X60767614Y-67670902D01*
X60779880Y-67706899D01*
X60796669Y-67756202D01*
X60812100Y-67801592D01*
X60825717Y-67841722D01*
X60837065Y-67875248D01*
X60845689Y-67900824D01*
X60851132Y-67917105D01*
X60852944Y-67922741D01*
X60846736Y-67922890D01*
X60828474Y-67923048D01*
X60798708Y-67923215D01*
X60757990Y-67923389D01*
X60706871Y-67923569D01*
X60645901Y-67923754D01*
X60575632Y-67923942D01*
X60496614Y-67924133D01*
X60409399Y-67924326D01*
X60314538Y-67924518D01*
X60212581Y-67924710D01*
X60104080Y-67924899D01*
X59989586Y-67925085D01*
X59869650Y-67925266D01*
X59744822Y-67925442D01*
X59615654Y-67925611D01*
X59482697Y-67925771D01*
X59374987Y-67925892D01*
X59239418Y-67926023D01*
X59107200Y-67926120D01*
X58978886Y-67926182D01*
X58855027Y-67926212D01*
X58736172Y-67926210D01*
X58622874Y-67926177D01*
X58515684Y-67926113D01*
X58415152Y-67926019D01*
X58321829Y-67925897D01*
X58236267Y-67925746D01*
X58159016Y-67925569D01*
X58090628Y-67925365D01*
X58031653Y-67925135D01*
X57982643Y-67924881D01*
X57944148Y-67924603D01*
X57916721Y-67924301D01*
X57900911Y-67923978D01*
X57896997Y-67923706D01*
X57901892Y-67917800D01*
X57915853Y-67905250D01*
X57937798Y-67886884D01*
X57966643Y-67863535D01*
X58001307Y-67836031D01*
X58040705Y-67805202D01*
X58083754Y-67771880D01*
X58129372Y-67736895D01*
X58176476Y-67701076D01*
X58223982Y-67665254D01*
X58270808Y-67630259D01*
X58315870Y-67596921D01*
X58358085Y-67566071D01*
X58396371Y-67538539D01*
X58429644Y-67515155D01*
X58432729Y-67513025D01*
X58477258Y-67482873D01*
X58528514Y-67449057D01*
X58583827Y-67413268D01*
X58640526Y-67377200D01*
X58695941Y-67342547D01*
X58747401Y-67311000D01*
X58792235Y-67284254D01*
X58807742Y-67275265D01*
X58842268Y-67255999D01*
X58883109Y-67234070D01*
X58927820Y-67210710D01*
X58973957Y-67187154D01*
X59019075Y-67164632D01*
X59060730Y-67144379D01*
X59096478Y-67127627D01*
X59123873Y-67115609D01*
X59126029Y-67114727D01*
X59148628Y-67105448D01*
X59167995Y-67097286D01*
X59179603Y-67092161D01*
X59210474Y-67078902D01*
X59249081Y-67064392D01*
X59293234Y-67049263D01*
X59340746Y-67034143D01*
X59389427Y-67019665D01*
X59437089Y-67006457D01*
X59481543Y-66995150D01*
X59520602Y-66986375D01*
X59552076Y-66980763D01*
X59572706Y-66978933D01*
X59586330Y-66977102D01*
X59592410Y-66972664D01*
X59592431Y-66972359D01*
X59586286Y-66971259D01*
X59568476Y-66970296D01*
X59539943Y-66969466D01*
X59501627Y-66968765D01*
X59454469Y-66968189D01*
X59399409Y-66967735D01*
X59337388Y-66967399D01*
X59269346Y-66967177D01*
X59196225Y-66967064D01*
X59118964Y-66967058D01*
X59038504Y-66967155D01*
X58955787Y-66967350D01*
X58871752Y-66967639D01*
X58787340Y-66968020D01*
X58703492Y-66968488D01*
X58621148Y-66969039D01*
X58541248Y-66969670D01*
X58464735Y-66970377D01*
X58392547Y-66971155D01*
X58325626Y-66972002D01*
X58264913Y-66972913D01*
X58211347Y-66973884D01*
X58165870Y-66974912D01*
X58129421Y-66975993D01*
X58102943Y-66977122D01*
X58087375Y-66978297D01*
X58086079Y-66978471D01*
X58008678Y-66992962D01*
X57934563Y-67012585D01*
X57865623Y-67036604D01*
X57803749Y-67064285D01*
X57750829Y-67094890D01*
X57713060Y-67123753D01*
X57669398Y-67170950D01*
X57633938Y-67226647D01*
X57607588Y-67289065D01*
X57591254Y-67356423D01*
X57589932Y-67365319D01*
X57587626Y-67390502D01*
X57586241Y-67423288D01*
X57585778Y-67459631D01*
X57586238Y-67495487D01*
X57587622Y-67526810D01*
X57589895Y-67549330D01*
X57607632Y-67634435D01*
X57633369Y-67720763D01*
X57666013Y-67805951D01*
X57704474Y-67887635D01*
X57747659Y-67963451D01*
X57794475Y-68031034D01*
X57833977Y-68077764D01*
X57888378Y-68129225D01*
X57952887Y-68177873D01*
X58028473Y-68224399D01*
X58073594Y-68248555D01*
X58134831Y-68278317D01*
X58192432Y-68302637D01*
X58249862Y-68322632D01*
X58310584Y-68339418D01*
X58378062Y-68354115D01*
X58430212Y-68363594D01*
X58446999Y-68366112D01*
X58466390Y-68368280D01*
X58489550Y-68370142D01*
X58517643Y-68371739D01*
X58551835Y-68373113D01*
X58593289Y-68374308D01*
X58643170Y-68375364D01*
X58702641Y-68376326D01*
X58772869Y-68377235D01*
X58819715Y-68377762D01*
X59146825Y-68381291D01*
X59179749Y-68504194D01*
X59192899Y-68553462D01*
X59207833Y-68609731D01*
X59224076Y-68671179D01*
X59241149Y-68735981D01*
X59258576Y-68802316D01*
X59275878Y-68868359D01*
X59292579Y-68932288D01*
X59308202Y-68992278D01*
X59322269Y-69046509D01*
X59334303Y-69093155D01*
X59343826Y-69130394D01*
X59347643Y-69145497D01*
X59368617Y-69229008D01*
X59582943Y-69229008D01*
X59797270Y-69229007D01*
X59797270Y-70480100D01*
X60017866Y-70480100D01*
X60017866Y-69229007D01*
X60119474Y-69229007D01*
X60221083Y-69229008D01*
X60224939Y-69161253D01*
X60225875Y-69139961D01*
X60226916Y-69107850D01*
X60228021Y-69066704D01*
X60229149Y-69018310D01*
X60230260Y-68964452D01*
X60231312Y-68906916D01*
X60232266Y-68847486D01*
X60232537Y-68828784D01*
X60233606Y-68758300D01*
X60234734Y-68699123D01*
X60236054Y-68649957D01*
X60237698Y-68609504D01*
X60239797Y-68576467D01*
X60242484Y-68549548D01*
X60245890Y-68527450D01*
X60250147Y-68508875D01*
X60255388Y-68492527D01*
X60261743Y-68477107D01*
X60269346Y-68461319D01*
X60270041Y-68459945D01*
X60298755Y-68415383D01*
X60335605Y-68379924D01*
X60375210Y-68355455D01*
X60395036Y-68345872D01*
X60413931Y-68337928D01*
X60433295Y-68331473D01*
X60454531Y-68326353D01*
X60479041Y-68322417D01*
X60508226Y-68319512D01*
X60543489Y-68317485D01*
X60586233Y-68316185D01*
X60637858Y-68315460D01*
X60699767Y-68315156D01*
X60746565Y-68315112D01*
X60985978Y-68315112D01*
X60994492Y-68335596D01*
X60998796Y-68347004D01*
X61006504Y-68368514D01*
X61016975Y-68398289D01*
X61029565Y-68434492D01*
X61043632Y-68475287D01*
X61056765Y-68513648D01*
X61073339Y-68562181D01*
X61092854Y-68619248D01*
X61114150Y-68681465D01*
X61136067Y-68745445D01*
X61157447Y-68807803D01*
X61177130Y-68865153D01*
X61177627Y-68866601D01*
X61203371Y-68941568D01*
X61225312Y-69005479D01*
X61243744Y-69059201D01*
X61258962Y-69103599D01*
X61271262Y-69139538D01*
X61280939Y-69167884D01*
X61288288Y-69189502D01*
X61293604Y-69205257D01*
X61297182Y-69216015D01*
X61299317Y-69222641D01*
X61300305Y-69226001D01*
X61300471Y-69226862D01*
X61306418Y-69227595D01*
X61322834Y-69228220D01*
X61347584Y-69228691D01*
X61378531Y-69228961D01*
X61398838Y-69229008D01*
X61436184Y-69229132D01*
X61462628Y-69229624D01*
X61479871Y-69230664D01*
X61489617Y-69232430D01*
X61493567Y-69235103D01*
X61493422Y-69238862D01*
X61493379Y-69238977D01*
X61492550Y-69247266D01*
X61491778Y-69266776D01*
X61491083Y-69296125D01*
X61490485Y-69333929D01*
X61490004Y-69378806D01*
X61489661Y-69429371D01*
X61489475Y-69484242D01*
X61489449Y-69508419D01*
X61489345Y-69767891D01*
X61402660Y-69679653D01*
X61377395Y-69653897D01*
X61345067Y-69620883D01*
X61307408Y-69582382D01*
X61266151Y-69540165D01*
X61223025Y-69496005D01*
X61179765Y-69451675D01*
X61147837Y-69418933D01*
X61109615Y-69379942D01*
X61073562Y-69343580D01*
X61040752Y-69310899D01*
X61012259Y-69282952D01*
X60989159Y-69260793D01*
X60972525Y-69245473D01*
X60963434Y-69238046D01*
X60962888Y-69237729D01*
X60951563Y-69234908D01*
X60930814Y-69232577D01*
X60902767Y-69230747D01*
X60869551Y-69229428D01*
X60833292Y-69228628D01*
X60796118Y-69228360D01*
X60760154Y-69228632D01*
X60727529Y-69229454D01*
X60700370Y-69230838D01*
X60680803Y-69232791D01*
X60670955Y-69235326D01*
X60670198Y-69236352D01*
X60674567Y-69241996D01*
X60687147Y-69255667D01*
X60707152Y-69276565D01*
X60733792Y-69303890D01*
X60766281Y-69336844D01*
X60803831Y-69374627D01*
X60845654Y-69416439D01*
X60890961Y-69461481D01*
X60933337Y-69503399D01*
X60988466Y-69557819D01*
X61035265Y-69604084D01*
X61074377Y-69642890D01*
X61106443Y-69674936D01*
X61132106Y-69700920D01*
X61152009Y-69721540D01*
X61166795Y-69737494D01*
X61177104Y-69749479D01*
X61183581Y-69758193D01*
X61186867Y-69764335D01*
X61187604Y-69768603D01*
X61186436Y-69771694D01*
X61184005Y-69774306D01*
X61183292Y-69774950D01*
X61174391Y-69784727D01*
X61160285Y-69802223D01*
X61143015Y-69824841D01*
X61126994Y-69846675D01*
X61104008Y-69878456D01*
X61078084Y-69914079D01*
X61053284Y-69947969D01*
X61042019Y-69963276D01*
X61021492Y-69991174D01*
X60996712Y-70024974D01*
X60970830Y-70060373D01*
X60947423Y-70092482D01*
X60924463Y-70124015D01*
X60900439Y-70156969D01*
X60878134Y-70187529D01*
X60860328Y-70211884D01*
X60859651Y-70212808D01*
X60842677Y-70236021D01*
X60820850Y-70265917D01*
X60796732Y-70298987D01*
X60772883Y-70331721D01*
X60767891Y-70338578D01*
X60746179Y-70368334D01*
X60725283Y-70396852D01*
X60707163Y-70421463D01*
X60693779Y-70439499D01*
X60690495Y-70443873D01*
X60679668Y-70460051D01*
X60673772Y-70472597D01*
X60673535Y-70477248D01*
X60681050Y-70479554D01*
X60698855Y-70481298D01*
X60724645Y-70482498D01*
X60756119Y-70483170D01*
X60790973Y-70483332D01*
X60826904Y-70483004D01*
X60861609Y-70482202D01*
X60892785Y-70480944D01*
X60918130Y-70479248D01*
X60935339Y-70477132D01*
X60941672Y-70475172D01*
X60949540Y-70466943D01*
X60962579Y-70451108D01*
X60978643Y-70430328D01*
X60988491Y-70417072D01*
X61009405Y-70388539D01*
X61032291Y-70357372D01*
X61053028Y-70329183D01*
X61057930Y-70322531D01*
X61071644Y-70303832D01*
X61091045Y-70277242D01*
X61114440Y-70245088D01*
X61140136Y-70209698D01*
X61166439Y-70173401D01*
X61171830Y-70165953D01*
X61214407Y-70107128D01*
X61250102Y-70057854D01*
X61279405Y-70017459D01*
X61302805Y-69985268D01*
X61320792Y-69960608D01*
X61333856Y-69942805D01*
X61341855Y-69932026D01*
X61354877Y-69914649D01*
X61425366Y-69982195D01*
X61495856Y-70049741D01*
X61495856Y-70476948D01*
X61722754Y-70476948D01*
X61722754Y-69237787D01*
X61570914Y-68787479D01*
X61544997Y-68710633D01*
X61519098Y-68633865D01*
X61493675Y-68558535D01*
X61469190Y-68486005D01*
X61446100Y-68417636D01*
X61424866Y-68354787D01*
X61405947Y-68298820D01*
X61389803Y-68251096D01*
X61376894Y-68212975D01*
X61375763Y-68209638D01*
X59900599Y-68209638D01*
X59874691Y-68247789D01*
X59859557Y-68272675D01*
X59843363Y-68303392D01*
X59829267Y-68333891D01*
X59827478Y-68338199D01*
X59819421Y-68358336D01*
X59812516Y-68377001D01*
X59806669Y-68395327D01*
X59801789Y-68414446D01*
X59797782Y-68435492D01*
X59794556Y-68459595D01*
X59792018Y-68487888D01*
X59790076Y-68521503D01*
X59788637Y-68561574D01*
X59787608Y-68609231D01*
X59786896Y-68665608D01*
X59786410Y-68731837D01*
X59786055Y-68809049D01*
X59785920Y-68846096D01*
X59785634Y-68911934D01*
X59785257Y-68973851D01*
X59784805Y-69030727D01*
X59784291Y-69081441D01*
X59783729Y-69124875D01*
X59783133Y-69159906D01*
X59782517Y-69185416D01*
X59781896Y-69200283D01*
X59781433Y-69203776D01*
X59778678Y-69198085D01*
X59773916Y-69182772D01*
X59767937Y-69160508D01*
X59764230Y-69145497D01*
X59757733Y-69118948D01*
X59748952Y-69083854D01*
X59738810Y-69043863D01*
X59728229Y-69002620D01*
X59722381Y-68980050D01*
X59711369Y-68937729D01*
X59699652Y-68892703D01*
X59688348Y-68849265D01*
X59678573Y-68811710D01*
X59674814Y-68797271D01*
X59654670Y-68720368D01*
X59632156Y-68635265D01*
X59608316Y-68545895D01*
X59586095Y-68463226D01*
X59577600Y-68431584D01*
X59566700Y-68390742D01*
X59554190Y-68343693D01*
X59540864Y-68293431D01*
X59527519Y-68242948D01*
X59519957Y-68214268D01*
X59507680Y-68167749D01*
X59495602Y-68122156D01*
X59484355Y-68079866D01*
X59474574Y-68043253D01*
X59466889Y-68014696D01*
X59462920Y-68000128D01*
X59456506Y-67976166D01*
X59451837Y-67957435D01*
X59449603Y-67946765D01*
X59449568Y-67945354D01*
X59453743Y-67949355D01*
X59463781Y-67961205D01*
X59477884Y-67978746D01*
X59485436Y-67988382D01*
X59542918Y-68053137D01*
X59606012Y-68107012D01*
X59674238Y-68149728D01*
X59747117Y-68181009D01*
X59824171Y-68200577D01*
X59859671Y-68205445D01*
X59900599Y-68209638D01*
X61375763Y-68209638D01*
X61369851Y-68192209D01*
X61335128Y-68089997D01*
X61302444Y-67993875D01*
X61272121Y-67904797D01*
X61244486Y-67823713D01*
X61219861Y-67751575D01*
X61198572Y-67689334D01*
X61180943Y-67637943D01*
X61178647Y-67631266D01*
X61169060Y-67603318D01*
X61156057Y-67565299D01*
X61140275Y-67519075D01*
X61122350Y-67466514D01*
X61102919Y-67409480D01*
X61082616Y-67349840D01*
X61062080Y-67289459D01*
X61052638Y-67261681D01*
X61033569Y-67205731D01*
X61015536Y-67153139D01*
X60998983Y-67105175D01*
X60984353Y-67063113D01*
X60972090Y-67028222D01*
X60962639Y-67001776D01*
X60956442Y-66985045D01*
X60954196Y-66979634D01*
X60947075Y-66966328D01*
X60353264Y-66966375D01*
X60353264Y-66966375D01*
G37*
X60353264Y-66966375D02*
X60261575Y-66966446D01*
X60174218Y-66966636D01*
X60092029Y-66966939D01*
X60015845Y-66967347D01*
X59946504Y-66967851D01*
X59884843Y-66968443D01*
X59831699Y-66969117D01*
X59787909Y-66969863D01*
X59754309Y-66970674D01*
X59731738Y-66971542D01*
X59721637Y-66972350D01*
X59695126Y-66976427D01*
X59668508Y-66980397D01*
X59655459Y-66982280D01*
X59622039Y-66989215D01*
X59582223Y-67000859D01*
X59540539Y-67015633D01*
X59501515Y-67031956D01*
X59474777Y-67045333D01*
X59421867Y-67081802D01*
X59376174Y-67127687D01*
X59338800Y-67181379D01*
X59310847Y-67241270D01*
X59293417Y-67305753D01*
X59292459Y-67311374D01*
X59289132Y-67331830D01*
X59971293Y-67333434D01*
X60653455Y-67335038D01*
X60680153Y-67413822D01*
X60688670Y-67438922D01*
X60700551Y-67473882D01*
X60715091Y-67516631D01*
X60731584Y-67565098D01*
X60749327Y-67617212D01*
X60767614Y-67670902D01*
X60779880Y-67706899D01*
X60796669Y-67756202D01*
X60812100Y-67801592D01*
X60825717Y-67841722D01*
X60837065Y-67875248D01*
X60845689Y-67900824D01*
X60851132Y-67917105D01*
X60852944Y-67922741D01*
X60846736Y-67922890D01*
X60828474Y-67923048D01*
X60798708Y-67923215D01*
X60757990Y-67923389D01*
X60706871Y-67923569D01*
X60645901Y-67923754D01*
X60575632Y-67923942D01*
X60496614Y-67924133D01*
X60409399Y-67924326D01*
X60314538Y-67924518D01*
X60212581Y-67924710D01*
X60104080Y-67924899D01*
X59989586Y-67925085D01*
X59869650Y-67925266D01*
X59744822Y-67925442D01*
X59615654Y-67925611D01*
X59482697Y-67925771D01*
X59374987Y-67925892D01*
X59239418Y-67926023D01*
X59107200Y-67926120D01*
X58978886Y-67926182D01*
X58855027Y-67926212D01*
X58736172Y-67926210D01*
X58622874Y-67926177D01*
X58515684Y-67926113D01*
X58415152Y-67926019D01*
X58321829Y-67925897D01*
X58236267Y-67925746D01*
X58159016Y-67925569D01*
X58090628Y-67925365D01*
X58031653Y-67925135D01*
X57982643Y-67924881D01*
X57944148Y-67924603D01*
X57916721Y-67924301D01*
X57900911Y-67923978D01*
X57896997Y-67923706D01*
X57901892Y-67917800D01*
X57915853Y-67905250D01*
X57937798Y-67886884D01*
X57966643Y-67863535D01*
X58001307Y-67836031D01*
X58040705Y-67805202D01*
X58083754Y-67771880D01*
X58129372Y-67736895D01*
X58176476Y-67701076D01*
X58223982Y-67665254D01*
X58270808Y-67630259D01*
X58315870Y-67596921D01*
X58358085Y-67566071D01*
X58396371Y-67538539D01*
X58429644Y-67515155D01*
X58432729Y-67513025D01*
X58477258Y-67482873D01*
X58528514Y-67449057D01*
X58583827Y-67413268D01*
X58640526Y-67377200D01*
X58695941Y-67342547D01*
X58747401Y-67311000D01*
X58792235Y-67284254D01*
X58807742Y-67275265D01*
X58842268Y-67255999D01*
X58883109Y-67234070D01*
X58927820Y-67210710D01*
X58973957Y-67187154D01*
X59019075Y-67164632D01*
X59060730Y-67144379D01*
X59096478Y-67127627D01*
X59123873Y-67115609D01*
X59126029Y-67114727D01*
X59148628Y-67105448D01*
X59167995Y-67097286D01*
X59179603Y-67092161D01*
X59210474Y-67078902D01*
X59249081Y-67064392D01*
X59293234Y-67049263D01*
X59340746Y-67034143D01*
X59389427Y-67019665D01*
X59437089Y-67006457D01*
X59481543Y-66995150D01*
X59520602Y-66986375D01*
X59552076Y-66980763D01*
X59572706Y-66978933D01*
X59586330Y-66977102D01*
X59592410Y-66972664D01*
X59592431Y-66972359D01*
X59586286Y-66971259D01*
X59568476Y-66970296D01*
X59539943Y-66969466D01*
X59501627Y-66968765D01*
X59454469Y-66968189D01*
X59399409Y-66967735D01*
X59337388Y-66967399D01*
X59269346Y-66967177D01*
X59196225Y-66967064D01*
X59118964Y-66967058D01*
X59038504Y-66967155D01*
X58955787Y-66967350D01*
X58871752Y-66967639D01*
X58787340Y-66968020D01*
X58703492Y-66968488D01*
X58621148Y-66969039D01*
X58541248Y-66969670D01*
X58464735Y-66970377D01*
X58392547Y-66971155D01*
X58325626Y-66972002D01*
X58264913Y-66972913D01*
X58211347Y-66973884D01*
X58165870Y-66974912D01*
X58129421Y-66975993D01*
X58102943Y-66977122D01*
X58087375Y-66978297D01*
X58086079Y-66978471D01*
X58008678Y-66992962D01*
X57934563Y-67012585D01*
X57865623Y-67036604D01*
X57803749Y-67064285D01*
X57750829Y-67094890D01*
X57713060Y-67123753D01*
X57669398Y-67170950D01*
X57633938Y-67226647D01*
X57607588Y-67289065D01*
X57591254Y-67356423D01*
X57589932Y-67365319D01*
X57587626Y-67390502D01*
X57586241Y-67423288D01*
X57585778Y-67459631D01*
X57586238Y-67495487D01*
X57587622Y-67526810D01*
X57589895Y-67549330D01*
X57607632Y-67634435D01*
X57633369Y-67720763D01*
X57666013Y-67805951D01*
X57704474Y-67887635D01*
X57747659Y-67963451D01*
X57794475Y-68031034D01*
X57833977Y-68077764D01*
X57888378Y-68129225D01*
X57952887Y-68177873D01*
X58028473Y-68224399D01*
X58073594Y-68248555D01*
X58134831Y-68278317D01*
X58192432Y-68302637D01*
X58249862Y-68322632D01*
X58310584Y-68339418D01*
X58378062Y-68354115D01*
X58430212Y-68363594D01*
X58446999Y-68366112D01*
X58466390Y-68368280D01*
X58489550Y-68370142D01*
X58517643Y-68371739D01*
X58551835Y-68373113D01*
X58593289Y-68374308D01*
X58643170Y-68375364D01*
X58702641Y-68376326D01*
X58772869Y-68377235D01*
X58819715Y-68377762D01*
X59146825Y-68381291D01*
X59179749Y-68504194D01*
X59192899Y-68553462D01*
X59207833Y-68609731D01*
X59224076Y-68671179D01*
X59241149Y-68735981D01*
X59258576Y-68802316D01*
X59275878Y-68868359D01*
X59292579Y-68932288D01*
X59308202Y-68992278D01*
X59322269Y-69046509D01*
X59334303Y-69093155D01*
X59343826Y-69130394D01*
X59347643Y-69145497D01*
X59368617Y-69229008D01*
X59582943Y-69229008D01*
X59797270Y-69229007D01*
X59797270Y-70480100D01*
X60017866Y-70480100D01*
X60017866Y-69229007D01*
X60119474Y-69229007D01*
X60221083Y-69229008D01*
X60224939Y-69161253D01*
X60225875Y-69139961D01*
X60226916Y-69107850D01*
X60228021Y-69066704D01*
X60229149Y-69018310D01*
X60230260Y-68964452D01*
X60231312Y-68906916D01*
X60232266Y-68847486D01*
X60232537Y-68828784D01*
X60233606Y-68758300D01*
X60234734Y-68699123D01*
X60236054Y-68649957D01*
X60237698Y-68609504D01*
X60239797Y-68576467D01*
X60242484Y-68549548D01*
X60245890Y-68527450D01*
X60250147Y-68508875D01*
X60255388Y-68492527D01*
X60261743Y-68477107D01*
X60269346Y-68461319D01*
X60270041Y-68459945D01*
X60298755Y-68415383D01*
X60335605Y-68379924D01*
X60375210Y-68355455D01*
X60395036Y-68345872D01*
X60413931Y-68337928D01*
X60433295Y-68331473D01*
X60454531Y-68326353D01*
X60479041Y-68322417D01*
X60508226Y-68319512D01*
X60543489Y-68317485D01*
X60586233Y-68316185D01*
X60637858Y-68315460D01*
X60699767Y-68315156D01*
X60746565Y-68315112D01*
X60985978Y-68315112D01*
X60994492Y-68335596D01*
X60998796Y-68347004D01*
X61006504Y-68368514D01*
X61016975Y-68398289D01*
X61029565Y-68434492D01*
X61043632Y-68475287D01*
X61056765Y-68513648D01*
X61073339Y-68562181D01*
X61092854Y-68619248D01*
X61114150Y-68681465D01*
X61136067Y-68745445D01*
X61157447Y-68807803D01*
X61177130Y-68865153D01*
X61177627Y-68866601D01*
X61203371Y-68941568D01*
X61225312Y-69005479D01*
X61243744Y-69059201D01*
X61258962Y-69103599D01*
X61271262Y-69139538D01*
X61280939Y-69167884D01*
X61288288Y-69189502D01*
X61293604Y-69205257D01*
X61297182Y-69216015D01*
X61299317Y-69222641D01*
X61300305Y-69226001D01*
X61300471Y-69226862D01*
X61306418Y-69227595D01*
X61322834Y-69228220D01*
X61347584Y-69228691D01*
X61378531Y-69228961D01*
X61398838Y-69229008D01*
X61436184Y-69229132D01*
X61462628Y-69229624D01*
X61479871Y-69230664D01*
X61489617Y-69232430D01*
X61493567Y-69235103D01*
X61493422Y-69238862D01*
X61493379Y-69238977D01*
X61492550Y-69247266D01*
X61491778Y-69266776D01*
X61491083Y-69296125D01*
X61490485Y-69333929D01*
X61490004Y-69378806D01*
X61489661Y-69429371D01*
X61489475Y-69484242D01*
X61489449Y-69508419D01*
X61489345Y-69767891D01*
X61402660Y-69679653D01*
X61377395Y-69653897D01*
X61345067Y-69620883D01*
X61307408Y-69582382D01*
X61266151Y-69540165D01*
X61223025Y-69496005D01*
X61179765Y-69451675D01*
X61147837Y-69418933D01*
X61109615Y-69379942D01*
X61073562Y-69343580D01*
X61040752Y-69310899D01*
X61012259Y-69282952D01*
X60989159Y-69260793D01*
X60972525Y-69245473D01*
X60963434Y-69238046D01*
X60962888Y-69237729D01*
X60951563Y-69234908D01*
X60930814Y-69232577D01*
X60902767Y-69230747D01*
X60869551Y-69229428D01*
X60833292Y-69228628D01*
X60796118Y-69228360D01*
X60760154Y-69228632D01*
X60727529Y-69229454D01*
X60700370Y-69230838D01*
X60680803Y-69232791D01*
X60670955Y-69235326D01*
X60670198Y-69236352D01*
X60674567Y-69241996D01*
X60687147Y-69255667D01*
X60707152Y-69276565D01*
X60733792Y-69303890D01*
X60766281Y-69336844D01*
X60803831Y-69374627D01*
X60845654Y-69416439D01*
X60890961Y-69461481D01*
X60933337Y-69503399D01*
X60988466Y-69557819D01*
X61035265Y-69604084D01*
X61074377Y-69642890D01*
X61106443Y-69674936D01*
X61132106Y-69700920D01*
X61152009Y-69721540D01*
X61166795Y-69737494D01*
X61177104Y-69749479D01*
X61183581Y-69758193D01*
X61186867Y-69764335D01*
X61187604Y-69768603D01*
X61186436Y-69771694D01*
X61184005Y-69774306D01*
X61183292Y-69774950D01*
X61174391Y-69784727D01*
X61160285Y-69802223D01*
X61143015Y-69824841D01*
X61126994Y-69846675D01*
X61104008Y-69878456D01*
X61078084Y-69914079D01*
X61053284Y-69947969D01*
X61042019Y-69963276D01*
X61021492Y-69991174D01*
X60996712Y-70024974D01*
X60970830Y-70060373D01*
X60947423Y-70092482D01*
X60924463Y-70124015D01*
X60900439Y-70156969D01*
X60878134Y-70187529D01*
X60860328Y-70211884D01*
X60859651Y-70212808D01*
X60842677Y-70236021D01*
X60820850Y-70265917D01*
X60796732Y-70298987D01*
X60772883Y-70331721D01*
X60767891Y-70338578D01*
X60746179Y-70368334D01*
X60725283Y-70396852D01*
X60707163Y-70421463D01*
X60693779Y-70439499D01*
X60690495Y-70443873D01*
X60679668Y-70460051D01*
X60673772Y-70472597D01*
X60673535Y-70477248D01*
X60681050Y-70479554D01*
X60698855Y-70481298D01*
X60724645Y-70482498D01*
X60756119Y-70483170D01*
X60790973Y-70483332D01*
X60826904Y-70483004D01*
X60861609Y-70482202D01*
X60892785Y-70480944D01*
X60918130Y-70479248D01*
X60935339Y-70477132D01*
X60941672Y-70475172D01*
X60949540Y-70466943D01*
X60962579Y-70451108D01*
X60978643Y-70430328D01*
X60988491Y-70417072D01*
X61009405Y-70388539D01*
X61032291Y-70357372D01*
X61053028Y-70329183D01*
X61057930Y-70322531D01*
X61071644Y-70303832D01*
X61091045Y-70277242D01*
X61114440Y-70245088D01*
X61140136Y-70209698D01*
X61166439Y-70173401D01*
X61171830Y-70165953D01*
X61214407Y-70107128D01*
X61250102Y-70057854D01*
X61279405Y-70017459D01*
X61302805Y-69985268D01*
X61320792Y-69960608D01*
X61333856Y-69942805D01*
X61341855Y-69932026D01*
X61354877Y-69914649D01*
X61425366Y-69982195D01*
X61495856Y-70049741D01*
X61495856Y-70476948D01*
X61722754Y-70476948D01*
X61722754Y-69237787D01*
X61570914Y-68787479D01*
X61544997Y-68710633D01*
X61519098Y-68633865D01*
X61493675Y-68558535D01*
X61469190Y-68486005D01*
X61446100Y-68417636D01*
X61424866Y-68354787D01*
X61405947Y-68298820D01*
X61389803Y-68251096D01*
X61376894Y-68212975D01*
X61375763Y-68209638D01*
X59900599Y-68209638D01*
X59874691Y-68247789D01*
X59859557Y-68272675D01*
X59843363Y-68303392D01*
X59829267Y-68333891D01*
X59827478Y-68338199D01*
X59819421Y-68358336D01*
X59812516Y-68377001D01*
X59806669Y-68395327D01*
X59801789Y-68414446D01*
X59797782Y-68435492D01*
X59794556Y-68459595D01*
X59792018Y-68487888D01*
X59790076Y-68521503D01*
X59788637Y-68561574D01*
X59787608Y-68609231D01*
X59786896Y-68665608D01*
X59786410Y-68731837D01*
X59786055Y-68809049D01*
X59785920Y-68846096D01*
X59785634Y-68911934D01*
X59785257Y-68973851D01*
X59784805Y-69030727D01*
X59784291Y-69081441D01*
X59783729Y-69124875D01*
X59783133Y-69159906D01*
X59782517Y-69185416D01*
X59781896Y-69200283D01*
X59781433Y-69203776D01*
X59778678Y-69198085D01*
X59773916Y-69182772D01*
X59767937Y-69160508D01*
X59764230Y-69145497D01*
X59757733Y-69118948D01*
X59748952Y-69083854D01*
X59738810Y-69043863D01*
X59728229Y-69002620D01*
X59722381Y-68980050D01*
X59711369Y-68937729D01*
X59699652Y-68892703D01*
X59688348Y-68849265D01*
X59678573Y-68811710D01*
X59674814Y-68797271D01*
X59654670Y-68720368D01*
X59632156Y-68635265D01*
X59608316Y-68545895D01*
X59586095Y-68463226D01*
X59577600Y-68431584D01*
X59566700Y-68390742D01*
X59554190Y-68343693D01*
X59540864Y-68293431D01*
X59527519Y-68242948D01*
X59519957Y-68214268D01*
X59507680Y-68167749D01*
X59495602Y-68122156D01*
X59484355Y-68079866D01*
X59474574Y-68043253D01*
X59466889Y-68014696D01*
X59462920Y-68000128D01*
X59456506Y-67976166D01*
X59451837Y-67957435D01*
X59449603Y-67946765D01*
X59449568Y-67945354D01*
X59453743Y-67949355D01*
X59463781Y-67961205D01*
X59477884Y-67978746D01*
X59485436Y-67988382D01*
X59542918Y-68053137D01*
X59606012Y-68107012D01*
X59674238Y-68149728D01*
X59747117Y-68181009D01*
X59824171Y-68200577D01*
X59859671Y-68205445D01*
X59900599Y-68209638D01*
X61375763Y-68209638D01*
X61369851Y-68192209D01*
X61335128Y-68089997D01*
X61302444Y-67993875D01*
X61272121Y-67904797D01*
X61244486Y-67823713D01*
X61219861Y-67751575D01*
X61198572Y-67689334D01*
X61180943Y-67637943D01*
X61178647Y-67631266D01*
X61169060Y-67603318D01*
X61156057Y-67565299D01*
X61140275Y-67519075D01*
X61122350Y-67466514D01*
X61102919Y-67409480D01*
X61082616Y-67349840D01*
X61062080Y-67289459D01*
X61052638Y-67261681D01*
X61033569Y-67205731D01*
X61015536Y-67153139D01*
X60998983Y-67105175D01*
X60984353Y-67063113D01*
X60972090Y-67028222D01*
X60962639Y-67001776D01*
X60956442Y-66985045D01*
X60954196Y-66979634D01*
X60947075Y-66966328D01*
X60353264Y-66966375D01*
G36*
X60424125Y-70483251D02*
X60651556Y-70483251D01*
X60649848Y-70358772D01*
X60648139Y-70234293D01*
X60427543Y-70234293D01*
X60424125Y-70483251D01*
X60424125Y-70483251D01*
G37*
X60424125Y-70483251D02*
X60651556Y-70483251D01*
X60649848Y-70358772D01*
X60648139Y-70234293D01*
X60427543Y-70234293D01*
X60424125Y-70483251D01*
G36*
X59245781Y-70483251D02*
X59359428Y-70483251D01*
X59402419Y-70483030D01*
X59434168Y-70482306D01*
X59456031Y-70480984D01*
X59469365Y-70478970D01*
X59475526Y-70476170D01*
X59476180Y-70475161D01*
X59477087Y-70466491D01*
X59477697Y-70447404D01*
X59477983Y-70420082D01*
X59477922Y-70386709D01*
X59477558Y-70353833D01*
X59475831Y-70240596D01*
X59245781Y-70237160D01*
X59245781Y-70483251D01*
X59245781Y-70483251D01*
G37*
X59245781Y-70483251D02*
X59359428Y-70483251D01*
X59402419Y-70483030D01*
X59434168Y-70482306D01*
X59456031Y-70480984D01*
X59469365Y-70478970D01*
X59475526Y-70476170D01*
X59476180Y-70475161D01*
X59477087Y-70466491D01*
X59477697Y-70447404D01*
X59477983Y-70420082D01*
X59477922Y-70386709D01*
X59477558Y-70353833D01*
X59475831Y-70240596D01*
X59245781Y-70237160D01*
X59245781Y-70483251D01*
G36*
X58771501Y-69230551D02*
X58183771Y-69232159D01*
X58183771Y-69465360D01*
X58418548Y-69467013D01*
X58653325Y-69468665D01*
X58653325Y-69968395D01*
X58653370Y-70064941D01*
X58653513Y-70149511D01*
X58653763Y-70222734D01*
X58654129Y-70285239D01*
X58654620Y-70337655D01*
X58655246Y-70380610D01*
X58656016Y-70414734D01*
X58656940Y-70440656D01*
X58658027Y-70459004D01*
X58659287Y-70470408D01*
X58660728Y-70475496D01*
X58660888Y-70475688D01*
X58669422Y-70478920D01*
X58688092Y-70481220D01*
X58717651Y-70482638D01*
X58758853Y-70483227D01*
X58770964Y-70483251D01*
X58809271Y-70483150D01*
X58836888Y-70482703D01*
X58855730Y-70481696D01*
X58867709Y-70479916D01*
X58874742Y-70477148D01*
X58878742Y-70473179D01*
X58880001Y-70471060D01*
X58881400Y-70461991D01*
X58882631Y-70440340D01*
X58883694Y-70406131D01*
X58884588Y-70359385D01*
X58885314Y-70300126D01*
X58885870Y-70228375D01*
X58886257Y-70144157D01*
X58886474Y-70047494D01*
X58886526Y-69963690D01*
X58886526Y-69468511D01*
X59113874Y-69468511D01*
X59175101Y-69468439D01*
X59224892Y-69468192D01*
X59264415Y-69467725D01*
X59294838Y-69466995D01*
X59317331Y-69465956D01*
X59333061Y-69464564D01*
X59343197Y-69462776D01*
X59348908Y-69460545D01*
X59350227Y-69459508D01*
X59353634Y-69453512D01*
X59356110Y-69442257D01*
X59357778Y-69424096D01*
X59358764Y-69397381D01*
X59359189Y-69360467D01*
X59359230Y-69339723D01*
X59359230Y-69228943D01*
X58771501Y-69230551D01*
X58771501Y-69230551D01*
G37*
X58771501Y-69230551D02*
X58183771Y-69232159D01*
X58183771Y-69465360D01*
X58418548Y-69467013D01*
X58653325Y-69468665D01*
X58653325Y-69968395D01*
X58653370Y-70064941D01*
X58653513Y-70149511D01*
X58653763Y-70222734D01*
X58654129Y-70285239D01*
X58654620Y-70337655D01*
X58655246Y-70380610D01*
X58656016Y-70414734D01*
X58656940Y-70440656D01*
X58658027Y-70459004D01*
X58659287Y-70470408D01*
X58660728Y-70475496D01*
X58660888Y-70475688D01*
X58669422Y-70478920D01*
X58688092Y-70481220D01*
X58717651Y-70482638D01*
X58758853Y-70483227D01*
X58770964Y-70483251D01*
X58809271Y-70483150D01*
X58836888Y-70482703D01*
X58855730Y-70481696D01*
X58867709Y-70479916D01*
X58874742Y-70477148D01*
X58878742Y-70473179D01*
X58880001Y-70471060D01*
X58881400Y-70461991D01*
X58882631Y-70440340D01*
X58883694Y-70406131D01*
X58884588Y-70359385D01*
X58885314Y-70300126D01*
X58885870Y-70228375D01*
X58886257Y-70144157D01*
X58886474Y-70047494D01*
X58886526Y-69963690D01*
X58886526Y-69468511D01*
X59113874Y-69468511D01*
X59175101Y-69468439D01*
X59224892Y-69468192D01*
X59264415Y-69467725D01*
X59294838Y-69466995D01*
X59317331Y-69465956D01*
X59333061Y-69464564D01*
X59343197Y-69462776D01*
X59348908Y-69460545D01*
X59350227Y-69459508D01*
X59353634Y-69453512D01*
X59356110Y-69442257D01*
X59357778Y-69424096D01*
X59358764Y-69397381D01*
X59359189Y-69360467D01*
X59359230Y-69339723D01*
X59359230Y-69228943D01*
X58771501Y-69230551D01*
G36*
X58073543Y-70336712D02*
X58073814Y-70372841D01*
X58074514Y-70406325D01*
X58075551Y-70434309D01*
X58076833Y-70453936D01*
X58077519Y-70459616D01*
X58081426Y-70483251D01*
X58294069Y-70483251D01*
X58294069Y-70237444D01*
X58073474Y-70237444D01*
X58073543Y-70336712D01*
X58073543Y-70336712D01*
G37*
X58073543Y-70336712D02*
X58073814Y-70372841D01*
X58074514Y-70406325D01*
X58075551Y-70434309D01*
X58076833Y-70453936D01*
X58077519Y-70459616D01*
X58081426Y-70483251D01*
X58294069Y-70483251D01*
X58294069Y-70237444D01*
X58073474Y-70237444D01*
X58073543Y-70336712D01*
G04 #@! TD*
D11*
G04 #@! TO.C,P11*
X69250000Y-98500000D03*
X69250000Y-101000000D03*
X69250000Y-103500000D03*
X69250000Y-106000000D03*
G04 #@! TD*
D12*
G04 #@! TO.C,D31*
X75750000Y-85615000D03*
X75750000Y-88885000D03*
G04 #@! TD*
D13*
G04 #@! TO.C,R63*
X104500000Y-90030000D03*
X104500000Y-88470000D03*
G04 #@! TD*
G04 #@! TO.C,R41*
X59500000Y-116470000D03*
X59500000Y-118030000D03*
G04 #@! TD*
D14*
G04 #@! TO.C,U12*
X100950000Y-69990000D03*
X100950000Y-72530000D03*
X100950000Y-75070000D03*
X100950000Y-77610000D03*
X108570000Y-77610000D03*
X108570000Y-75070000D03*
X108570000Y-72530000D03*
X108570000Y-69990000D03*
G04 #@! TD*
D13*
G04 #@! TO.C,R52*
X82000000Y-81530000D03*
X82000000Y-79970000D03*
G04 #@! TD*
D15*
G04 #@! TO.C,P28*
X127870000Y-51500000D03*
X125330000Y-51500000D03*
X122790000Y-51500000D03*
D16*
X120250000Y-51500000D03*
G04 #@! TD*
D17*
G04 #@! TO.C,P31*
X134250000Y-48750000D03*
D18*
X134250000Y-46210000D03*
X136790000Y-48750000D03*
X136790000Y-46210000D03*
X139330000Y-48750000D03*
X139330000Y-46210000D03*
X141870000Y-48750000D03*
X141870000Y-46210000D03*
G04 #@! TD*
D16*
G04 #@! TO.C,P29*
X134250000Y-51500000D03*
D15*
X136790000Y-51500000D03*
X139330000Y-51500000D03*
X141870000Y-51500000D03*
G04 #@! TD*
D18*
G04 #@! TO.C,P30*
X127870000Y-46210000D03*
X127870000Y-48750000D03*
X125330000Y-46210000D03*
X125330000Y-48750000D03*
X122790000Y-46210000D03*
X122790000Y-48750000D03*
X120250000Y-46210000D03*
D17*
X120250000Y-48750000D03*
G04 #@! TD*
D13*
G04 #@! TO.C,C35*
X123750000Y-78930000D03*
X123750000Y-77050000D03*
G04 #@! TD*
D19*
G04 #@! TO.C,P14*
X55750000Y-115150000D03*
D11*
X62250000Y-118900000D03*
X62250000Y-116400000D03*
X62250000Y-113900000D03*
X62250000Y-111400000D03*
G04 #@! TD*
D20*
G04 #@! TO.C,C1*
X123800000Y-113500000D03*
X125680000Y-113500000D03*
G04 #@! TD*
G04 #@! TO.C,C2*
X135320000Y-112750000D03*
X137200000Y-112750000D03*
G04 #@! TD*
D13*
G04 #@! TO.C,C3*
X130500000Y-106870000D03*
X130500000Y-108750000D03*
G04 #@! TD*
G04 #@! TO.C,C4*
X131000000Y-116570000D03*
X131000000Y-118450000D03*
G04 #@! TD*
D20*
G04 #@! TO.C,C5*
X81700000Y-117500000D03*
X79820000Y-117500000D03*
G04 #@! TD*
G04 #@! TO.C,C6*
X92750000Y-116500000D03*
X94630000Y-116500000D03*
G04 #@! TD*
D13*
G04 #@! TO.C,C7*
X101250000Y-122930000D03*
X101250000Y-121050000D03*
G04 #@! TD*
G04 #@! TO.C,C8*
X151500000Y-97680000D03*
X151500000Y-95800000D03*
G04 #@! TD*
G04 #@! TO.C,C9*
X151500000Y-85180000D03*
X151500000Y-83300000D03*
G04 #@! TD*
G04 #@! TO.C,C10*
X88000000Y-122050000D03*
X88000000Y-123930000D03*
G04 #@! TD*
D20*
G04 #@! TO.C,C12*
X90930000Y-88250000D03*
X89050000Y-88250000D03*
G04 #@! TD*
D13*
G04 #@! TO.C,C14*
X151500000Y-70800000D03*
X151500000Y-72680000D03*
G04 #@! TD*
G04 #@! TO.C,C15*
X151500000Y-108300000D03*
X151500000Y-110180000D03*
G04 #@! TD*
D20*
G04 #@! TO.C,C16*
X126570000Y-136750000D03*
X128450000Y-136750000D03*
G04 #@! TD*
G04 #@! TO.C,C17*
X115950000Y-136750000D03*
X114070000Y-136750000D03*
G04 #@! TD*
G04 #@! TO.C,C18*
X86550000Y-103000000D03*
X88430000Y-103000000D03*
G04 #@! TD*
D13*
G04 #@! TO.C,C19*
X84000000Y-107730000D03*
X84000000Y-105850000D03*
G04 #@! TD*
G04 #@! TO.C,C20*
X81600000Y-99520000D03*
X81600000Y-101400000D03*
G04 #@! TD*
G04 #@! TO.C,C21*
X81600000Y-110570000D03*
X81600000Y-112450000D03*
G04 #@! TD*
D20*
G04 #@! TO.C,C24*
X101570000Y-136750000D03*
X103450000Y-136750000D03*
G04 #@! TD*
G04 #@! TO.C,C25*
X81450000Y-136750000D03*
X79570000Y-136750000D03*
G04 #@! TD*
D21*
G04 #@! TO.C,D12*
X73500000Y-122500000D03*
X76770000Y-122500000D03*
G04 #@! TD*
G04 #@! TO.C,D13*
X75115000Y-116250000D03*
X78385000Y-116250000D03*
G04 #@! TD*
D12*
G04 #@! TO.C,D14*
X83750000Y-104235000D03*
X83750000Y-100965000D03*
G04 #@! TD*
D21*
G04 #@! TO.C,D15*
X85385000Y-115000000D03*
X82115000Y-115000000D03*
G04 #@! TD*
D12*
G04 #@! TO.C,D16*
X78800000Y-128035000D03*
X78800000Y-124765000D03*
G04 #@! TD*
G04 #@! TO.C,D17*
X81600000Y-119365000D03*
X81600000Y-122635000D03*
G04 #@! TD*
D22*
G04 #@! TO.C,L1*
X90250000Y-111000000D03*
X85750000Y-111000000D03*
G04 #@! TD*
D23*
G04 #@! TO.C,P1*
X150250000Y-127500000D03*
X150250000Y-126000000D03*
X150250000Y-124500000D03*
X150250000Y-123000000D03*
X150250000Y-121500000D03*
X150250000Y-120000000D03*
G04 #@! TD*
D24*
G04 #@! TO.C,P2*
X143612860Y-124997880D03*
X141072860Y-124997880D03*
X139040860Y-124997880D03*
X136500860Y-124997880D03*
D25*
X146660860Y-127664880D03*
X132944860Y-127664880D03*
G04 #@! TD*
D13*
G04 #@! TO.C,R1*
X133500000Y-120780000D03*
X133500000Y-119220000D03*
G04 #@! TD*
D20*
G04 #@! TO.C,R2*
X142030000Y-120000000D03*
X140470000Y-120000000D03*
G04 #@! TD*
G04 #@! TO.C,R3*
X140470000Y-117000000D03*
X142030000Y-117000000D03*
G04 #@! TD*
D26*
G04 #@! TO.C,U2*
X92850000Y-121000000D03*
X92850000Y-123300000D03*
X92850000Y-118700000D03*
D27*
X98850000Y-121000000D03*
G04 #@! TD*
D13*
G04 #@! TO.C,C28*
X74350000Y-74400000D03*
X74350000Y-76280000D03*
G04 #@! TD*
G04 #@! TO.C,C29*
X66600000Y-76300000D03*
X66600000Y-74420000D03*
G04 #@! TD*
D20*
G04 #@! TO.C,C30*
X71530000Y-76100000D03*
X69650000Y-76100000D03*
G04 #@! TD*
D12*
G04 #@! TO.C,D20*
X90250000Y-96885000D03*
X90250000Y-93615000D03*
G04 #@! TD*
D11*
G04 #@! TO.C,P3*
X149500000Y-103000000D03*
X149500000Y-100500000D03*
X149500000Y-98000000D03*
X149500000Y-95500000D03*
G04 #@! TD*
G04 #@! TO.C,P4*
X149500000Y-83000000D03*
X149500000Y-85500000D03*
X149500000Y-88000000D03*
X149500000Y-90500000D03*
G04 #@! TD*
D28*
G04 #@! TO.C,P5*
X86499100Y-132687460D03*
X91499100Y-132687460D03*
D29*
X85499100Y-135387460D03*
X92499100Y-135387460D03*
G04 #@! TD*
D11*
G04 #@! TO.C,P6*
X149500000Y-70500000D03*
X149500000Y-73000000D03*
X149500000Y-75500000D03*
X149500000Y-78000000D03*
G04 #@! TD*
G04 #@! TO.C,P7*
X149500000Y-115500000D03*
X149500000Y-113000000D03*
X149500000Y-110500000D03*
X149500000Y-108000000D03*
G04 #@! TD*
D30*
G04 #@! TO.C,P8*
X121250000Y-134500000D03*
X123750000Y-134500000D03*
X126250000Y-134500000D03*
X128750000Y-134500000D03*
G04 #@! TD*
G04 #@! TO.C,P9*
X116250000Y-134500000D03*
X113750000Y-134500000D03*
X111250000Y-134500000D03*
X108750000Y-134500000D03*
G04 #@! TD*
G04 #@! TO.C,P10*
X76250000Y-125500000D03*
X73750000Y-125500000D03*
G04 #@! TD*
D11*
G04 #@! TO.C,P12*
X69250000Y-118900000D03*
X69250000Y-116400000D03*
X69250000Y-113900000D03*
X69250000Y-111400000D03*
G04 #@! TD*
G04 #@! TO.C,P13*
X62250000Y-98500000D03*
X62250000Y-101000000D03*
X62250000Y-103500000D03*
X62250000Y-106000000D03*
D19*
X55750000Y-102250000D03*
G04 #@! TD*
D30*
G04 #@! TO.C,P15*
X103750000Y-134500000D03*
X101250000Y-134500000D03*
X98750000Y-134500000D03*
X96250000Y-134500000D03*
G04 #@! TD*
G04 #@! TO.C,P16*
X74250000Y-134500000D03*
X76750000Y-134500000D03*
X79250000Y-134500000D03*
X81750000Y-134500000D03*
G04 #@! TD*
G04 #@! TO.C,P17*
X66250000Y-125500000D03*
X68750000Y-125500000D03*
G04 #@! TD*
D31*
G04 #@! TO.C,P18*
X147830000Y-64660000D03*
X147830000Y-62120000D03*
X147830000Y-59580000D03*
X147830000Y-57040000D03*
D32*
X147830000Y-54500000D03*
G04 #@! TD*
D16*
G04 #@! TO.C,P23*
X90890000Y-51400000D03*
D15*
X93430000Y-51400000D03*
X95970000Y-51400000D03*
X98510000Y-51400000D03*
X101050000Y-51400000D03*
X103590000Y-51400000D03*
X106130000Y-51400000D03*
X108670000Y-51400000D03*
X111210000Y-51400000D03*
X113750000Y-51400000D03*
G04 #@! TD*
G04 #@! TO.C,P24*
X84610000Y-51400000D03*
X82070000Y-51400000D03*
X79530000Y-51400000D03*
X76990000Y-51400000D03*
X74450000Y-51400000D03*
X71910000Y-51400000D03*
X69370000Y-51400000D03*
X66830000Y-51400000D03*
X64290000Y-51400000D03*
D16*
X61750000Y-51400000D03*
G04 #@! TD*
D18*
G04 #@! TO.C,P25*
X113750000Y-46210000D03*
X113750000Y-48750000D03*
X111210000Y-46210000D03*
X111210000Y-48750000D03*
X108670000Y-46210000D03*
X108670000Y-48750000D03*
X106130000Y-46210000D03*
X106130000Y-48750000D03*
X103590000Y-46210000D03*
X103590000Y-48750000D03*
X101050000Y-46210000D03*
X101050000Y-48750000D03*
X98510000Y-46210000D03*
X98510000Y-48750000D03*
X95970000Y-46210000D03*
X95970000Y-48750000D03*
X93430000Y-46210000D03*
X93430000Y-48750000D03*
X90890000Y-46210000D03*
D17*
X90890000Y-48750000D03*
G04 #@! TD*
G04 #@! TO.C,P26*
X61750000Y-48750000D03*
D18*
X61750000Y-46210000D03*
X64290000Y-48750000D03*
X64290000Y-46210000D03*
X66830000Y-48750000D03*
X66830000Y-46210000D03*
X69370000Y-48750000D03*
X69370000Y-46210000D03*
X71910000Y-48750000D03*
X71910000Y-46210000D03*
X74450000Y-48750000D03*
X74450000Y-46210000D03*
X76990000Y-48750000D03*
X76990000Y-46210000D03*
X79530000Y-48750000D03*
X79530000Y-46210000D03*
X82070000Y-48750000D03*
X82070000Y-46210000D03*
X84610000Y-48750000D03*
X84610000Y-46210000D03*
G04 #@! TD*
D33*
G04 #@! TO.C,Q1*
X74999240Y-120450000D03*
X74999240Y-118550000D03*
X76998220Y-119500000D03*
G04 #@! TD*
G04 #@! TO.C,Q2*
X63950000Y-130000760D03*
X62050000Y-130000760D03*
X63000000Y-128001780D03*
G04 #@! TD*
G04 #@! TO.C,Q3*
X81600000Y-126798220D03*
X82550000Y-124799240D03*
X80650000Y-124799240D03*
G04 #@! TD*
G04 #@! TO.C,Q4*
X90900000Y-78350760D03*
X92800000Y-78350760D03*
X91850000Y-76351780D03*
G04 #@! TD*
G04 #@! TO.C,Q5*
X94700000Y-94249240D03*
X92800000Y-94249240D03*
X93750000Y-96248220D03*
G04 #@! TD*
D20*
G04 #@! TO.C,R4*
X145470000Y-100900000D03*
X147030000Y-100900000D03*
G04 #@! TD*
G04 #@! TO.C,R5*
X147030000Y-102600000D03*
X145470000Y-102600000D03*
G04 #@! TD*
G04 #@! TO.C,R6*
X145620000Y-88400000D03*
X147180000Y-88400000D03*
G04 #@! TD*
G04 #@! TO.C,R7*
X147170000Y-90200000D03*
X145610000Y-90200000D03*
G04 #@! TD*
G04 #@! TO.C,R8*
X147030000Y-104300000D03*
X145470000Y-104300000D03*
G04 #@! TD*
G04 #@! TO.C,R9*
X147170000Y-92000000D03*
X145610000Y-92000000D03*
G04 #@! TD*
G04 #@! TO.C,R10*
X145470000Y-99200000D03*
X147030000Y-99200000D03*
G04 #@! TD*
G04 #@! TO.C,R11*
X145640000Y-86700000D03*
X147200000Y-86700000D03*
G04 #@! TD*
G04 #@! TO.C,R12*
X85560000Y-120000000D03*
X84000000Y-120000000D03*
G04 #@! TD*
G04 #@! TO.C,R13*
X147030000Y-76000000D03*
X145470000Y-76000000D03*
G04 #@! TD*
G04 #@! TO.C,R14*
X145470000Y-77800000D03*
X147030000Y-77800000D03*
G04 #@! TD*
G04 #@! TO.C,R15*
X147030000Y-113350000D03*
X145470000Y-113350000D03*
G04 #@! TD*
G04 #@! TO.C,R16*
X145470000Y-115000000D03*
X147030000Y-115000000D03*
G04 #@! TD*
G04 #@! TO.C,R17*
X90530000Y-85250000D03*
X88970000Y-85250000D03*
G04 #@! TD*
G04 #@! TO.C,R18*
X145470000Y-79650000D03*
X147030000Y-79650000D03*
G04 #@! TD*
G04 #@! TO.C,R19*
X147030000Y-116700000D03*
X145470000Y-116700000D03*
G04 #@! TD*
G04 #@! TO.C,R20*
X147030000Y-74250000D03*
X145470000Y-74250000D03*
G04 #@! TD*
G04 #@! TO.C,R21*
X147030000Y-111650000D03*
X145470000Y-111650000D03*
G04 #@! TD*
G04 #@! TO.C,R25*
X130250000Y-82560000D03*
X128690000Y-82560000D03*
G04 #@! TD*
G04 #@! TO.C,R32*
X69530000Y-131750000D03*
X67970000Y-131750000D03*
G04 #@! TD*
G04 #@! TO.C,R33*
X71720000Y-120500000D03*
X73280000Y-120500000D03*
G04 #@! TD*
D13*
G04 #@! TO.C,R34*
X65500000Y-131780000D03*
X65500000Y-130220000D03*
G04 #@! TD*
D20*
G04 #@! TO.C,R35*
X90970000Y-106850000D03*
X92530000Y-106850000D03*
G04 #@! TD*
G04 #@! TO.C,R36*
X90970000Y-105100000D03*
X92530000Y-105100000D03*
G04 #@! TD*
G04 #@! TO.C,R37*
X75810000Y-114000000D03*
X74250000Y-114000000D03*
G04 #@! TD*
G04 #@! TO.C,R38*
X75820000Y-97000000D03*
X77380000Y-97000000D03*
G04 #@! TD*
G04 #@! TO.C,R39*
X77380000Y-106000000D03*
X75820000Y-106000000D03*
G04 #@! TD*
D13*
G04 #@! TO.C,R40*
X59500000Y-101970000D03*
X59500000Y-103530000D03*
G04 #@! TD*
G04 #@! TO.C,R42*
X90750000Y-82530000D03*
X90750000Y-80970000D03*
G04 #@! TD*
G04 #@! TO.C,R43*
X94350000Y-78380000D03*
X94350000Y-76820000D03*
G04 #@! TD*
G04 #@! TO.C,R45*
X110500000Y-121530000D03*
X110500000Y-119970000D03*
G04 #@! TD*
G04 #@! TO.C,R49*
X97000000Y-113030000D03*
X97000000Y-111470000D03*
G04 #@! TD*
G04 #@! TO.C,R50*
X79500000Y-81530000D03*
X79500000Y-79970000D03*
G04 #@! TD*
D20*
G04 #@! TO.C,R51*
X97220000Y-94250000D03*
X98780000Y-94250000D03*
G04 #@! TD*
G04 #@! TO.C,R53*
X97220000Y-92000000D03*
X98780000Y-92000000D03*
G04 #@! TD*
D34*
G04 #@! TO.C,U4*
X88300480Y-104650040D03*
X88300480Y-105600000D03*
X88300480Y-106549960D03*
X85699520Y-106549960D03*
X85699520Y-105600000D03*
X85699520Y-104650040D03*
G04 #@! TD*
D35*
G04 #@! TO.C,U5*
X73900000Y-98895000D03*
X73900000Y-100165000D03*
X73900000Y-101435000D03*
X73900000Y-102705000D03*
X79300000Y-102705000D03*
X79300000Y-101435000D03*
X79300000Y-100165000D03*
X79300000Y-98895000D03*
G04 #@! TD*
G04 #@! TO.C,U6*
X79300000Y-107895000D03*
X79300000Y-109165000D03*
X79300000Y-110435000D03*
X79300000Y-111705000D03*
X73900000Y-111705000D03*
X73900000Y-110435000D03*
X73900000Y-109165000D03*
X73900000Y-107895000D03*
G04 #@! TD*
D13*
G04 #@! TO.C,C33*
X119500000Y-77050000D03*
X119500000Y-78930000D03*
G04 #@! TD*
G04 #@! TO.C,C34*
X117750000Y-78930000D03*
X117750000Y-77050000D03*
G04 #@! TD*
G04 #@! TO.C,C36*
X121250000Y-77050000D03*
X121250000Y-78930000D03*
G04 #@! TD*
G04 #@! TO.C,C37*
X116000000Y-80430000D03*
X116000000Y-78550000D03*
G04 #@! TD*
G04 #@! TO.C,C38*
X116500000Y-93450000D03*
X116500000Y-91570000D03*
G04 #@! TD*
G04 #@! TO.C,C39*
X128750000Y-91570000D03*
X128750000Y-93450000D03*
G04 #@! TD*
D20*
G04 #@! TO.C,C40*
X130670000Y-79560000D03*
X128790000Y-79560000D03*
G04 #@! TD*
D36*
G04 #@! TO.C,JP1*
X55000000Y-94000000D03*
D37*
X57540000Y-94000000D03*
G04 #@! TD*
G04 #@! TO.C,JP2*
X57540000Y-123500000D03*
D36*
X55000000Y-123500000D03*
G04 #@! TD*
D13*
G04 #@! TO.C,R54*
X104250000Y-119970000D03*
X104250000Y-121530000D03*
G04 #@! TD*
G04 #@! TO.C,R55*
X116750000Y-121530000D03*
X116750000Y-119970000D03*
G04 #@! TD*
G04 #@! TO.C,R56*
X122750000Y-119970000D03*
X122750000Y-121530000D03*
G04 #@! TD*
G04 #@! TO.C,R57*
X100000000Y-111470000D03*
X100000000Y-113030000D03*
G04 #@! TD*
G04 #@! TO.C,R58*
X103000000Y-113030000D03*
X103000000Y-111470000D03*
G04 #@! TD*
G04 #@! TO.C,R59*
X109000000Y-111470000D03*
X109000000Y-113030000D03*
G04 #@! TD*
G04 #@! TO.C,R60*
X106000000Y-113030000D03*
X106000000Y-111470000D03*
G04 #@! TD*
G04 #@! TO.C,R61*
X112000000Y-111470000D03*
X112000000Y-113030000D03*
G04 #@! TD*
D20*
G04 #@! TO.C,C41*
X104900000Y-69840000D03*
X106780000Y-69840000D03*
G04 #@! TD*
G04 #@! TO.C,R62*
X116750000Y-71250000D03*
X115190000Y-71250000D03*
G04 #@! TD*
D13*
G04 #@! TO.C,R64*
X111000000Y-76220000D03*
X111000000Y-77780000D03*
G04 #@! TD*
G04 #@! TO.C,C42*
X64750000Y-82050000D03*
X64750000Y-83930000D03*
G04 #@! TD*
D21*
G04 #@! TO.C,D26*
X67770000Y-87000000D03*
X64500000Y-87000000D03*
G04 #@! TD*
G04 #@! TO.C,D27*
X67770000Y-89500000D03*
X64500000Y-89500000D03*
G04 #@! TD*
G04 #@! TO.C,D28*
X54615000Y-89500000D03*
X57885000Y-89500000D03*
G04 #@! TD*
D11*
G04 #@! TO.C,P27*
X62250000Y-82000000D03*
X62250000Y-84500000D03*
X62250000Y-87000000D03*
X62250000Y-89500000D03*
D19*
X55750000Y-85750000D03*
G04 #@! TD*
D38*
G04 #@! TO.C,JP3*
X141715000Y-57040000D03*
X142985000Y-57040000D03*
G04 #@! TD*
D39*
G04 #@! TO.C,U7*
X64190000Y-77885000D03*
X66730000Y-77885000D03*
X69270000Y-77885000D03*
X71810000Y-77885000D03*
X74350000Y-77885000D03*
X76890000Y-77885000D03*
X79430000Y-77885000D03*
X81970000Y-77885000D03*
X84510000Y-77885000D03*
D40*
X56750000Y-74085000D03*
X91950000Y-74085000D03*
G04 #@! TD*
D21*
G04 #@! TO.C,D29*
X78645000Y-104340000D03*
X81915000Y-104340000D03*
G04 #@! TD*
D41*
G04 #@! TO.C,SW1*
X62960000Y-133750000D03*
D42*
X65500000Y-133750000D03*
X68040000Y-133750000D03*
G04 #@! TD*
D12*
G04 #@! TO.C,D30*
X70000000Y-85115000D03*
X70000000Y-88385000D03*
G04 #@! TD*
D21*
G04 #@! TO.C,D32*
X66615000Y-83500000D03*
X69885000Y-83500000D03*
G04 #@! TD*
D33*
G04 #@! TO.C,Q6*
X71800000Y-85499240D03*
X73700000Y-85499240D03*
X72750000Y-87498220D03*
G04 #@! TD*
D20*
G04 #@! TO.C,R66*
X69470000Y-81000000D03*
X71030000Y-81000000D03*
G04 #@! TD*
D21*
G04 #@! TO.C,D33*
X64635000Y-96000000D03*
X61365000Y-96000000D03*
G04 #@! TD*
G04 #@! TO.C,D34*
X66615000Y-96000000D03*
X69885000Y-96000000D03*
G04 #@! TD*
D12*
G04 #@! TO.C,D38*
X59750000Y-95115000D03*
X59750000Y-98385000D03*
G04 #@! TD*
G04 #@! TO.C,D39*
X66000000Y-110385000D03*
X66000000Y-107115000D03*
G04 #@! TD*
D20*
G04 #@! TO.C,R65*
X71970000Y-83750000D03*
X73530000Y-83750000D03*
G04 #@! TD*
G04 #@! TO.C,R67*
X63780000Y-92250000D03*
X62220000Y-92250000D03*
G04 #@! TD*
G04 #@! TO.C,R68*
X63780000Y-94000000D03*
X62220000Y-94000000D03*
G04 #@! TD*
D13*
G04 #@! TO.C,C22*
X64500000Y-100680000D03*
X64500000Y-98800000D03*
G04 #@! TD*
G04 #@! TO.C,C23*
X64500000Y-111800000D03*
X64500000Y-113680000D03*
G04 #@! TD*
M02*
